<svg xmlns="http://www.w3.org/2000/svg" viewBox="0 0 480 638"><defs><style>.cls-1{isolation:isolate;}.cls-2{fill:#046080;}.cls-3{mix-blend-mode:multiply;opacity:0.1;}.cls-4{fill:#fff;}.cls-5{fill:#f3f2f2;}.cls-6{fill:#eae9e9;}.cls-7{fill:#e3e2e1;}.cls-8{fill:#dcdbda;}.cls-9{fill:#d6d4d4;}.cls-10{fill:#cfcdcd;}.cls-11{fill:#c9c7c7;}.cls-12{fill:#c3c0c0;}.cls-13{fill:#bdbaba;}.cls-14{fill:#b7b4b4;}.cls-15{fill:#b1aeae;}.cls-16{fill:#aba8a8;}.cls-17{fill:#a6a3a3;}.cls-18{fill:#a09d9d;}.cls-19{fill:#9b9898;}.cls-20{fill:#969292;}.cls-21{fill:#908d8d;}.cls-22{fill:#8b8888;}.cls-23{fill:#868383;}.cls-24{fill:#817e7e;}.cls-25{fill:#7c7979;}.cls-26{fill:#787474;}.cls-27{fill:#737070;}.cls-28{fill:#6e6b6b;}.cls-29{fill:#6a6767;}.cls-30{fill:#666362;}.cls-31{fill:#615f5e;}.cls-32{fill:#5d5a5a;}.cls-33{fill:#595756;}.cls-34{fill:#555352;}.cls-35{fill:#524f4e;}.cls-36{fill:#4e4b4b;}.cls-37{fill:#4a4747;}.cls-38{fill:#464443;}.cls-39{fill:#434040;}.cls-40{fill:#3f3d3c;}.cls-41{fill:#3b3a39;}.cls-42{fill:#383636;}.cls-43{fill:#343332;}.cls-44{fill:#312f2f;}.cls-45{fill:#2d2c2c;}.cls-46{fill:#2a2928;}.cls-47{fill:#262525;}.cls-48{fill:#222221;}.cls-49{fill:#1e1e1e;}.cls-50{fill:#1a1a1a;}.cls-51{fill:#161616;}.cls-52{fill:#121211;}.cls-53{fill:#0d0d0d;}.cls-54{fill:#070707;}.cls-55{fill:#010101;}.cls-56{fill:#c6b9a9;}.cls-57{fill:#7b9eb2;}.cls-58{fill:#8ea58e;}.cls-59{opacity:0.5;}.cls-60{fill:#333;}</style></defs><g class="cls-1"><g id="Layer_1" data-name="Layer 1"><path class="cls-2" d="M130.55,67.31a8,8,0,0,1-6.23,2.94c-4.19,0-6.26-3.2-6.26-6.93a11.72,11.72,0,0,1,1.7-6l1.11.55a8.78,8.78,0,0,0-1,3.41,4.29,4.29,0,0,0,1.45,3.61,5.61,5.61,0,0,0,3.43,1.16,6.94,6.94,0,0,0,4-1.29,3.8,3.8,0,0,0,1.8-2,11.51,11.51,0,0,0-2.23-5.23,30.38,30.38,0,0,1,1.95-3.38l.22,0c.51,1.07,1,2.19,1.46,3.38.35.82.59,1.3,1.54,1.3a2.28,2.28,0,0,0,1.59-.78,7.24,7.24,0,0,0,1.24-2.63c.59-.35,1.21-.7,1.84-1l.14.14a17.86,17.86,0,0,0-.82,3,1.54,1.54,0,0,0,.21.89,1.06,1.06,0,0,0,.86.41,2.56,2.56,0,0,0,2.07-1.07,9.35,9.35,0,0,0,1.23-3l1.54-.94.21.14a10.81,10.81,0,0,0-.56,2.55c0,1,.23,1.43.76,1.76a5.17,5.17,0,0,0,2.61.58h.28V63h-.28c-2.14,0-4.15-.58-4.64-2h-.06a5,5,0,0,1-3.47,2,2.5,2.5,0,0,1-2.46-1.68h-.08a4.17,4.17,0,0,1-3.59,1.78A9,9,0,0,1,130.55,67.31Z"/><path class="cls-2" d="M151.94,50.72c1.42,2.55,2.07,4.41,2.07,5.73a8.45,8.45,0,0,1-.84,3.73,4.36,4.36,0,0,1-2,2.09A10,10,0,0,1,147,63h-.29c-1,0-1.43-1.07-1.43-2s.45-2.05,1.43-2.05h.45c2.36,0,4.47-.48,4.47-.8a18.41,18.41,0,0,0-2-4.19,31.75,31.75,0,0,1,2.1-3.2Zm-2.15-6.37a19.85,19.85,0,0,1,2.93,2.4,7.34,7.34,0,0,1-1.84,2.52,37.13,37.13,0,0,0-3-2.28Z"/><path class="cls-2" d="M168.7,58.87V63h-1.54c-.86,3.71-3.45,7.48-6.65,7.48a11.15,11.15,0,0,1-6-2.27l.48-1.09a6.16,6.16,0,0,0,2.5.57,8.59,8.59,0,0,0,5.12-2.11A7.94,7.94,0,0,0,165,63h-.57c-3.92,0-6.52-1.25-6.52-4.95a6.12,6.12,0,0,1,1.56-4.08,4.36,4.36,0,0,1,3.28-1.82c2.29,0,3.77,2.48,4.59,6.75Zm-7-3.41a2,2,0,0,0-2.07,1.5c0,1.19,2.09,2,4.78,2a5,5,0,0,0,.8-.06C164.47,56.81,163.3,55.46,161.72,55.46Z"/><path class="cls-2" d="M178.29,63H178c-1.87,0-3.61-.37-4.7-2.24h-.06A5.15,5.15,0,0,1,169,63h-.28c-1,0-1.44-1.07-1.44-2s.45-2.05,1.44-2.05H169a4.83,4.83,0,0,0,2.79-.7c1.13-.7,1.23-2,1.68-3,.48-.33,1-.7,1.64-1.07l.15.12a7.8,7.8,0,0,0-.39,1.89,2.21,2.21,0,0,0,1,2.11,4.14,4.14,0,0,0,2.2.6h.24Zm-7.36-15a16.39,16.39,0,0,1,2.34,2.54,9,9,0,0,1-2,2.09c-.78-.84-1.58-1.64-2.4-2.44Zm4.33-.19a16.9,16.9,0,0,1,2.34,2.54,9.49,9.49,0,0,1-2,2.1c-.78-.85-1.58-1.64-2.4-2.44Z"/><path class="cls-2" d="M183.5,50.72c1.42,2.55,2.07,4.41,2.07,5.73a8.45,8.45,0,0,1-.84,3.73,4.36,4.36,0,0,1-2,2.09,10,10,0,0,1-4.14.7h-.29c-1,0-1.43-1.07-1.43-2s.45-2.05,1.43-2.05h.46c2.35,0,4.47-.48,4.47-.8a18.87,18.87,0,0,0-2-4.19,30.12,30.12,0,0,1,2.09-3.2Zm-1.33,15.71a21.2,21.2,0,0,1,2.93,2.4,7,7,0,0,1-1.84,2.52c-.84-.73-1.87-1.49-3-2.27Z"/><path class="cls-2" d="M201.26,61.41c-2,0-4-.72-4-2.91a7.28,7.28,0,0,1,.85-3.16c1.1-2.38,3.38-4.06,6-5.54l-.06-1.09c.66-.65,1.34-1.29,2-1.9l.33.1c.1,2,.12,4.47.12,7.59,0,1.72,0,3,.62,3.65a3,3,0,0,0,2.34.72h.28V63h-.28c-2.53,0-3.63-.47-4.51-2.32A10.78,10.78,0,0,1,201.26,61.41Zm.19-20.2a16.9,16.9,0,0,1,2.34,2.54,9.24,9.24,0,0,1-2,2.09c-.78-.84-1.58-1.64-2.4-2.44Zm3,11.79c-2.91,1.35-4.78,2.81-4.78,3.65s1,1,2.12,1a8.82,8.82,0,0,0,2.74-.43C204.54,55.56,204.5,54.13,204.46,53Zm1.31-12a16,16,0,0,1,2.34,2.55,9.23,9.23,0,0,1-2,2.09c-.78-.84-1.58-1.64-2.4-2.44Z"/><path class="cls-2" d="M215,50.72c1.42,2.55,2.07,4.41,2.07,5.73a8.45,8.45,0,0,1-.84,3.73,4.36,4.36,0,0,1-2,2.09,10,10,0,0,1-4.14.7h-.29c-1,0-1.43-1.07-1.43-2s.45-2.05,1.43-2.05h.46c2.35,0,4.47-.48,4.47-.8a18.87,18.87,0,0,0-2-4.19,30.12,30.12,0,0,1,2.09-3.2Zm-3.34,15.8A16.9,16.9,0,0,1,214,69.06a9.23,9.23,0,0,1-2,2.09c-.78-.84-1.58-1.64-2.4-2.44Zm4.33-.19a16.9,16.9,0,0,1,2.34,2.54,9.49,9.49,0,0,1-2,2.1c-.78-.85-1.58-1.65-2.4-2.45Z"/><path class="cls-2" d="M233,63h-.35a6.68,6.68,0,0,1-2.13-.39,8.21,8.21,0,0,1-1.34,4.63c-1.12,1.79-2.46,3-4.14,3a10.14,10.14,0,0,1-5.45-2l.45-1a5.65,5.65,0,0,0,1.84.35,6.4,6.4,0,0,0,4.47-1.89,7.39,7.39,0,0,0,2.4-3.91,18.88,18.88,0,0,1-2.27-3.8,29.66,29.66,0,0,1,1.45-3h.31c1.07,2.38,2.17,4,4.47,4H233ZM226.1,47.46a21.81,21.81,0,0,1,2.93,2.4,7.18,7.18,0,0,1-1.85,2.53,35.16,35.16,0,0,0-3-2.28Z"/><path class="cls-2" d="M238.3,50.05c3.08,2.66,4,4.16,4,6.54a8.73,8.73,0,0,1-1,3.71c-.86,1.76-3.59,2.67-8,2.67H233c-1,0-1.44-1.07-1.44-2s.45-2.05,1.44-2.05h.28c4.11,0,6.94-.68,6.94-1.6,0-1.73-2.75-4.13-6.91-6.94a9.21,9.21,0,0,1-.41-2.58,3.11,3.11,0,0,1,2-3,101.77,101.77,0,0,1,10.58-4l.14.14c-.53,1.13-1.13,2.28-1.76,3.41a86.54,86.54,0,0,0-9.11,3.3v.12c1.46.31,2.87.53,4.21.72Z"/><path class="cls-2" d="M253.76,63h-.35a6.74,6.74,0,0,1-2.13-.39A8.21,8.21,0,0,1,250,67.21c-1.13,1.79-2.46,3-4.14,3a10.17,10.17,0,0,1-5.46-2l.45-1a5.7,5.7,0,0,0,1.85.35,6.41,6.41,0,0,0,4.47-1.89,7.52,7.52,0,0,0,2.4-3.91,19.36,19.36,0,0,1-2.28-3.8,27.67,27.67,0,0,1,1.46-3h.3c1.07,2.38,2.18,4,4.48,4h.28Z"/><path class="cls-2" d="M257.39,60.55A3.44,3.44,0,0,1,254,63h-.27c-.94,0-1.41-1-1.41-2s.45-2.05,1.43-2.05h.29a3.31,3.31,0,0,0,1.76-.54c1.6-1,1.23-3.87,3.24-5.74a4,4,0,0,1,2.71-1.21c3.43,0,4.57,5.23,4.57,7.51,0,.28-.73,3.89-3.46,3.89a9.44,9.44,0,0,1-5.42-2.23Zm6.07-1.68c.39,0,.64-.07.64-.19-.43-2.3-1.66-3.77-3-3.77a2.67,2.67,0,0,0-2.4,1.76A7.39,7.39,0,0,0,263.46,58.87Z"/><path class="cls-2" d="M272.81,48.65c2.51,3.88,4.41,6.16,4.41,9.68l.07,0A5.94,5.94,0,0,0,279,53.9c0-2.72-.17-5.94-.43-10.07.82-.8,1.55-1.47,2.21-2L281,42c.22,3.18.22,7.32.22,12.47,0,2.89.93,4.45,2.94,4.45h.28V63h-.28c-2.67,0-4.17-1.4-4.6-4.29h-.08c-1,3.71-4.35,4.84-7,4.84a12.32,12.32,0,0,1-3.92-.55v-.39A31,31,0,0,0,276.08,59c-.54-1.81-2.51-4.66-5.13-8.12-1.36-1.79-2.81-3.2-2.81-4.41a7.54,7.54,0,0,1,.65-2.61h.29a20.34,20.34,0,0,0,4.64,3.2Z"/><path class="cls-2" d="M289.71,42c0,1.35.78,3,2.26,5.47l-1.83,1.4c.09,1.58.13,3.51.13,5.52a13.35,13.35,0,0,1-.76,4.53,9.64,9.64,0,0,1-1,2.17A4.29,4.29,0,0,1,284.73,63h-.29c-1,0-1.43-1.07-1.43-2s.45-2.05,1.43-2.05h.29a4,4,0,0,0,2.91-.85c.35-.34.35-.92.35-2,0-5.1-.68-9.65-.68-10.68a3,3,0,0,1,.56-1.91,8.49,8.49,0,0,1,1.6-1.54Z"/><path class="cls-2" d="M294.82,63.21a35.6,35.6,0,0,0,.27-4.94,122.25,122.25,0,0,0-.7-13.33,34.76,34.76,0,0,1,2.38-2.6l.35.18c.41,4.43.47,8.57.47,12.55,0,3.22-.19,5.37-.64,6.07a14.43,14.43,0,0,1-1.68,2.4Z"/><path class="cls-2" d="M316.72,52.1c1.79,2.93,2.5,4.71,2.5,6.4,0,1-.08,1.49-.08,1.88a10.71,10.71,0,0,1-1.31,5.44c-1.29,2.19-2.87,3.46-4.66,3.46a11.82,11.82,0,0,1-5.62-1.78l.39-1.09a7.75,7.75,0,0,0,2.06.25,7.57,7.57,0,0,0,5-2.48c1.39-1.4,2.25-2.81,2.25-3.47s-.77-2.17-2.74-5.13c.57-1.23,1.23-2.42,1.84-3.48Z"/><path class="cls-2" d="M328.41,63h-.35c-2.79,0-4.8-1.42-4.86-5.42,0-2.33-.2-8.36-.74-13.41a31.48,31.48,0,0,1,2.36-2.28l.29.15a86.31,86.31,0,0,1,.37,9.19c0,2.15,0,3.24,0,4.92,0,2.05.82,2.75,2.68,2.75h.29Z"/><path class="cls-2" d="M349.41,63h-.29c-2.29,0-3.95-.52-4.65-1.89h-.08A4.69,4.69,0,0,1,340.92,63a2.24,2.24,0,0,1-2.28-1.75h-.1A4.6,4.6,0,0,1,335.16,63a2.08,2.08,0,0,1-2.2-1.56A6.72,6.72,0,0,1,328.7,63h-.29c-1,0-1.43-1.07-1.43-2s.45-2.05,1.43-2.05h.29a5.91,5.91,0,0,0,3.67-.93,10.46,10.46,0,0,0,1.76-2.17,13.54,13.54,0,0,1,1.79-.82l.22.2a5.72,5.72,0,0,0-1.25,2.67.93.93,0,0,0,1.07,1,2.66,2.66,0,0,0,2-.8,9.64,9.64,0,0,0,1.47-2.67,13.46,13.46,0,0,1,1.66-.82l.17.2a10.34,10.34,0,0,0-.95,2.79c0,.89.37,1.3,1,1.3a2.43,2.43,0,0,0,2.07-1,11.11,11.11,0,0,0,1.15-2.89,14.3,14.3,0,0,1,1.64-1l.14.15a10,10,0,0,0-.57,2.66c0,1.44,1.07,2.14,3.4,2.14h.29Z"/><path class="cls-2" d="M353,60.55A3.44,3.44,0,0,1,349.66,63h-.27c-.94,0-1.41-1-1.41-2s.45-2.05,1.43-2.05h.29a3.34,3.34,0,0,0,1.76-.54c1.6-1,1.23-3.87,3.24-5.74a4,4,0,0,1,2.71-1.21c3.42,0,4.57,5.23,4.57,7.51,0,.28-.74,3.89-3.46,3.89a9.44,9.44,0,0,1-5.42-2.23Zm6.07-1.68c.39,0,.64-.07.64-.19-.43-2.3-1.66-3.77-3-3.77a2.66,2.66,0,0,0-2.4,1.76A7.39,7.39,0,0,0,359.11,58.87Z"/><g class="cls-3"><polygon class="cls-4" points="254.76 452.36 308.93 486.69 308.93 609.98 254.76 575.64 200.61 609.98 200.61 486.69 254.76 452.36"/><polygon class="cls-4" points="254.76 298.79 308.93 333.13 308.93 456.41 254.76 422.08 200.61 456.41 200.61 333.13 254.76 298.79"/><polygon class="cls-4" points="254.76 145.23 308.93 179.56 308.93 302.85 254.76 268.51 200.61 302.85 200.61 179.56 254.76 145.23"/><polygon class="cls-5" points="254.46 452.06 308.63 486.39 308.63 609.68 254.46 575.34 200.31 609.68 200.31 486.39 254.46 452.06"/><polygon class="cls-5" points="254.46 298.49 308.63 332.83 308.63 456.11 254.46 421.78 200.31 456.11 200.31 332.83 254.46 298.49"/><polygon class="cls-5" points="254.46 144.93 308.63 179.26 308.63 302.55 254.46 268.21 200.31 302.55 200.31 179.26 254.46 144.93"/><polygon class="cls-6" points="254.16 451.76 308.33 486.1 308.33 609.38 254.16 575.04 200.01 609.38 200.01 486.1 254.16 451.76"/><polygon class="cls-6" points="254.16 298.19 308.33 332.53 308.33 455.81 254.16 421.48 200.01 455.81 200.01 332.53 254.16 298.19"/><polygon class="cls-6" points="254.16 144.63 308.33 178.96 308.33 302.25 254.16 267.91 200.01 302.25 200.01 178.96 254.16 144.63"/><polygon class="cls-7" points="253.87 451.46 308.03 485.8 308.03 609.08 253.87 574.75 199.71 609.08 199.71 485.8 253.87 451.46"/><polygon class="cls-7" points="253.87 297.9 308.03 332.23 308.03 455.51 253.87 421.18 199.71 455.51 199.71 332.23 253.87 297.9"/><polygon class="cls-7" points="253.87 144.33 308.03 178.66 308.03 301.95 253.87 267.61 199.71 301.95 199.71 178.66 253.87 144.33"/><polygon class="cls-8" points="253.57 451.16 307.73 485.5 307.73 608.78 253.57 574.45 199.41 608.78 199.41 485.5 253.57 451.16"/><polygon class="cls-8" points="253.57 297.6 307.73 331.93 307.73 455.22 253.57 420.88 199.41 455.22 199.41 331.93 253.57 297.6"/><polygon class="cls-8" points="253.57 144.03 307.73 178.37 307.73 301.65 253.57 267.31 199.41 301.65 199.41 178.37 253.57 144.03"/><polygon class="cls-9" points="253.27 450.86 307.43 485.2 307.43 608.48 253.27 574.15 199.11 608.48 199.11 485.2 253.27 450.86"/><polygon class="cls-9" points="253.27 297.3 307.43 331.63 307.43 454.92 253.27 420.58 199.11 454.92 199.11 331.63 253.27 297.3"/><polygon class="cls-9" points="253.27 143.73 307.43 178.07 307.43 301.35 253.27 267.02 199.11 301.35 199.11 178.07 253.27 143.73"/><polygon class="cls-10" points="252.97 450.56 307.13 484.9 307.13 608.18 252.97 573.85 198.81 608.18 198.81 484.9 252.97 450.56"/><polygon class="cls-10" points="252.97 297 307.13 331.33 307.13 454.62 252.97 420.28 198.81 454.62 198.81 331.33 252.97 297"/><polygon class="cls-10" points="252.97 143.43 307.13 177.77 307.13 301.05 252.97 266.72 198.81 301.05 198.81 177.77 252.97 143.43"/><polygon class="cls-11" points="252.67 450.26 306.83 484.6 306.83 607.88 252.67 573.55 198.51 607.88 198.51 484.6 252.67 450.26"/><polygon class="cls-11" points="252.67 296.7 306.83 331.04 306.83 454.32 252.67 419.98 198.51 454.32 198.51 331.04 252.67 296.7"/><polygon class="cls-11" points="252.67 143.13 306.83 177.47 306.83 300.75 252.67 266.42 198.51 300.75 198.51 177.47 252.67 143.13"/><polygon class="cls-12" points="252.37 449.97 306.53 484.3 306.53 607.59 252.37 573.25 198.22 607.59 198.22 484.3 252.37 449.97"/><polygon class="cls-12" points="252.37 296.4 306.53 330.74 306.53 454.02 252.37 419.69 198.22 454.02 198.22 330.74 252.37 296.4"/><polygon class="cls-12" points="252.37 142.84 306.53 177.17 306.53 300.45 252.37 266.12 198.22 300.45 198.22 177.17 252.37 142.84"/><polygon class="cls-13" points="252.07 449.67 306.23 484 306.23 607.29 252.07 572.95 197.92 607.29 197.92 484 252.07 449.67"/><polygon class="cls-13" points="252.07 296.1 306.23 330.44 306.23 453.72 252.07 419.39 197.92 453.72 197.92 330.44 252.07 296.1"/><polygon class="cls-13" points="252.07 142.54 306.23 176.87 306.23 300.15 252.07 265.82 197.92 300.15 197.92 176.87 252.07 142.54"/><polygon class="cls-14" points="251.77 449.37 305.94 483.7 305.94 606.99 251.77 572.65 197.62 606.99 197.62 483.7 251.77 449.37"/><polygon class="cls-14" points="251.77 295.8 305.94 330.14 305.94 453.42 251.77 419.09 197.62 453.42 197.62 330.14 251.77 295.8"/><polygon class="cls-14" points="251.77 142.24 305.94 176.57 305.94 299.86 251.77 265.52 197.62 299.86 197.62 176.57 251.77 142.24"/><polygon class="cls-15" points="251.47 449.07 305.64 483.4 305.64 606.69 251.47 572.35 197.32 606.69 197.32 483.4 251.47 449.07"/><polygon class="cls-15" points="251.47 295.5 305.64 329.84 305.64 453.12 251.47 418.79 197.32 453.12 197.32 329.84 251.47 295.5"/><polygon class="cls-15" points="251.47 141.94 305.64 176.27 305.64 299.56 251.47 265.22 197.32 299.56 197.32 176.27 251.47 141.94"/><polygon class="cls-16" points="251.17 448.77 305.34 483.11 305.34 606.39 251.17 572.05 197.02 606.39 197.02 483.11 251.17 448.77"/><polygon class="cls-16" points="251.17 295.2 305.34 329.54 305.34 452.82 251.17 418.49 197.02 452.82 197.02 329.54 251.17 295.2"/><polygon class="cls-16" points="251.17 141.64 305.34 175.97 305.34 299.26 251.17 264.92 197.02 299.26 197.02 175.97 251.17 141.64"/><polygon class="cls-17" points="250.88 448.47 305.04 482.81 305.04 606.09 250.88 571.75 196.72 606.09 196.72 482.81 250.88 448.47"/><polygon class="cls-17" points="250.88 294.91 305.04 329.24 305.04 452.52 250.88 418.19 196.72 452.52 196.72 329.24 250.88 294.91"/><polygon class="cls-17" points="250.88 141.34 305.04 175.68 305.04 298.96 250.88 264.62 196.72 298.96 196.72 175.68 250.88 141.34"/><polygon class="cls-18" points="250.58 448.17 304.74 482.51 304.74 605.79 250.58 571.46 196.42 605.79 196.42 482.51 250.58 448.17"/><polygon class="cls-18" points="250.58 294.61 304.74 328.94 304.74 452.23 250.58 417.89 196.42 452.23 196.42 328.94 250.58 294.61"/><polygon class="cls-18" points="250.58 141.04 304.74 175.38 304.74 298.66 250.58 264.32 196.42 298.66 196.42 175.38 250.58 141.04"/><polygon class="cls-19" points="250.28 447.87 304.44 482.21 304.44 605.49 250.28 571.16 196.12 605.49 196.12 482.21 250.28 447.87"/><polygon class="cls-19" points="250.28 294.31 304.44 328.64 304.44 451.93 250.28 417.59 196.12 451.93 196.12 328.64 250.28 294.31"/><polygon class="cls-19" points="250.28 140.74 304.44 175.08 304.44 298.36 250.28 264.03 196.12 298.36 196.12 175.08 250.28 140.74"/><polygon class="cls-20" points="249.98 447.57 304.14 481.91 304.14 605.19 249.98 570.86 195.82 605.19 195.82 481.91 249.98 447.57"/><polygon class="cls-20" points="249.98 294.01 304.14 328.34 304.14 451.63 249.98 417.29 195.82 451.63 195.82 328.34 249.98 294.01"/><polygon class="cls-20" points="249.98 140.44 304.14 174.78 304.14 298.06 249.98 263.73 195.82 298.06 195.82 174.78 249.98 140.44"/><polygon class="cls-21" points="249.68 447.27 303.84 481.61 303.84 604.89 249.68 570.56 195.52 604.89 195.52 481.61 249.68 447.27"/><polygon class="cls-21" points="249.68 293.71 303.84 328.05 303.84 451.33 249.68 416.99 195.52 451.33 195.52 328.05 249.68 293.71"/><polygon class="cls-21" points="249.68 140.14 303.84 174.48 303.84 297.76 249.68 263.43 195.52 297.76 195.52 174.48 249.68 140.14"/><polygon class="cls-22" points="249.38 446.98 303.54 481.31 303.54 604.6 249.38 570.26 195.22 604.6 195.22 481.31 249.38 446.98"/><polygon class="cls-22" points="249.38 293.41 303.54 327.75 303.54 451.03 249.38 416.69 195.22 451.03 195.22 327.75 249.38 293.41"/><polygon class="cls-22" points="249.38 139.84 303.54 174.18 303.54 297.46 249.38 263.13 195.22 297.46 195.22 174.18 249.38 139.84"/><polygon class="cls-23" points="249.08 446.68 303.24 481.01 303.24 604.3 249.08 569.96 194.93 604.3 194.93 481.01 249.08 446.68"/><polygon class="cls-23" points="249.08 293.11 303.24 327.45 303.24 450.73 249.08 416.4 194.93 450.73 194.93 327.45 249.08 293.11"/><polygon class="cls-23" points="249.08 139.55 303.24 173.88 303.24 297.17 249.08 262.83 194.93 297.17 194.93 173.88 249.08 139.55"/><polygon class="cls-24" points="248.78 446.38 302.94 480.71 302.94 604 248.78 569.66 194.63 604 194.63 480.71 248.78 446.38"/><polygon class="cls-24" points="248.78 292.81 302.94 327.15 302.94 450.43 248.78 416.1 194.63 450.43 194.63 327.15 248.78 292.81"/><polygon class="cls-24" points="248.78 139.25 302.94 173.58 302.94 296.87 248.78 262.53 194.63 296.87 194.63 173.58 248.78 139.25"/><polygon class="cls-25" points="248.48 446.08 302.65 480.41 302.65 603.7 248.48 569.36 194.33 603.7 194.33 480.41 248.48 446.08"/><polygon class="cls-25" points="248.48 292.51 302.65 326.85 302.65 450.13 248.48 415.8 194.33 450.13 194.33 326.85 248.48 292.51"/><polygon class="cls-25" points="248.48 138.95 302.65 173.28 302.65 296.57 248.48 262.23 194.33 296.57 194.33 173.28 248.48 138.95"/><polygon class="cls-26" points="248.18 445.78 302.35 480.12 302.35 603.4 248.18 569.06 194.03 603.4 194.03 480.12 248.18 445.78"/><polygon class="cls-26" points="248.18 292.21 302.35 326.55 302.35 449.83 248.18 415.5 194.03 449.83 194.03 326.55 248.18 292.21"/><polygon class="cls-26" points="248.18 138.65 302.35 172.98 302.35 296.27 248.18 261.93 194.03 296.27 194.03 172.98 248.18 138.65"/><polygon class="cls-27" points="247.88 445.48 302.05 479.82 302.05 603.1 247.88 568.76 193.73 603.1 193.73 479.82 247.88 445.48"/><polygon class="cls-27" points="247.88 291.92 302.05 326.25 302.05 449.54 247.88 415.2 193.73 449.54 193.73 326.25 247.88 291.92"/><polygon class="cls-27" points="247.88 138.35 302.05 172.69 302.05 295.97 247.88 261.63 193.73 295.97 193.73 172.69 247.88 138.35"/><polygon class="cls-28" points="247.59 445.18 301.75 479.52 301.75 602.8 247.59 568.47 193.43 602.8 193.43 479.52 247.59 445.18"/><polygon class="cls-28" points="247.59 291.62 301.75 325.95 301.75 449.24 247.59 414.9 193.43 449.24 193.43 325.95 247.59 291.62"/><polygon class="cls-28" points="247.59 138.05 301.75 172.39 301.75 295.67 247.59 261.33 193.43 295.67 193.43 172.39 247.59 138.05"/><polygon class="cls-29" points="247.29 444.88 301.45 479.22 301.45 602.5 247.29 568.17 193.13 602.5 193.13 479.22 247.29 444.88"/><polygon class="cls-29" points="247.29 291.32 301.45 325.65 301.45 448.94 247.29 414.6 193.13 448.94 193.13 325.65 247.29 291.32"/><polygon class="cls-29" points="247.29 137.75 301.45 172.09 301.45 295.37 247.29 261.04 193.13 295.37 193.13 172.09 247.29 137.75"/><polygon class="cls-30" points="246.99 444.58 301.15 478.92 301.15 602.2 246.99 567.87 192.83 602.2 192.83 478.92 246.99 444.58"/><polygon class="cls-30" points="246.99 291.02 301.15 325.35 301.15 448.64 246.99 414.3 192.83 448.64 192.83 325.35 246.99 291.02"/><polygon class="cls-30" points="246.99 137.45 301.15 171.79 301.15 295.07 246.99 260.74 192.83 295.07 192.83 171.79 246.99 137.45"/><polygon class="cls-31" points="246.69 444.29 300.85 478.62 300.85 601.9 246.69 567.57 192.53 601.9 192.53 478.62 246.69 444.29"/><polygon class="cls-31" points="246.69 290.72 300.85 325.06 300.85 448.34 246.69 414 192.53 448.34 192.53 325.06 246.69 290.72"/><polygon class="cls-31" points="246.69 137.15 300.85 171.49 300.85 294.77 246.69 260.44 192.53 294.77 192.53 171.49 246.69 137.15"/><polygon class="cls-32" points="246.39 443.99 300.55 478.32 300.55 601.61 246.39 567.27 192.24 601.61 192.24 478.32 246.39 443.99"/><polygon class="cls-32" points="246.39 290.42 300.55 324.76 300.55 448.04 246.39 413.7 192.24 448.04 192.24 324.76 246.39 290.42"/><polygon class="cls-32" points="246.39 136.85 300.55 171.19 300.55 294.47 246.39 260.14 192.24 294.47 192.24 171.19 246.39 136.85"/><polygon class="cls-33" points="246.09 443.69 300.25 478.02 300.25 601.31 246.09 566.97 191.94 601.31 191.94 478.02 246.09 443.69"/><polygon class="cls-33" points="246.09 290.12 300.25 324.46 300.25 447.74 246.09 413.41 191.94 447.74 191.94 324.46 246.09 290.12"/><polygon class="cls-33" points="246.09 136.56 300.25 170.89 300.25 294.18 246.09 259.84 191.94 294.18 191.94 170.89 246.09 136.56"/><polygon class="cls-34" points="245.79 443.39 299.95 477.72 299.95 601.01 245.79 566.67 191.64 601.01 191.64 477.72 245.79 443.39"/><polygon class="cls-34" points="245.79 289.82 299.95 324.16 299.95 447.44 245.79 413.11 191.64 447.44 191.64 324.16 245.79 289.82"/><polygon class="cls-34" points="245.79 136.26 299.95 170.59 299.95 293.88 245.79 259.54 191.64 293.88 191.64 170.59 245.79 136.26"/><polygon class="cls-35" points="245.49 443.09 299.66 477.42 299.66 600.71 245.49 566.37 191.34 600.71 191.34 477.42 245.49 443.09"/><polygon class="cls-35" points="245.49 289.52 299.66 323.86 299.66 447.14 245.49 412.81 191.34 447.14 191.34 323.86 245.49 289.52"/><polygon class="cls-35" points="245.49 135.96 299.66 170.29 299.66 293.58 245.49 259.24 191.34 293.58 191.34 170.29 245.49 135.96"/><polygon class="cls-36" points="245.19 442.79 299.36 477.13 299.36 600.41 245.19 566.07 191.04 600.41 191.04 477.13 245.19 442.79"/><polygon class="cls-36" points="245.19 289.22 299.36 323.56 299.36 446.84 245.19 412.51 191.04 446.84 191.04 323.56 245.19 289.22"/><polygon class="cls-36" points="245.19 135.66 299.36 169.99 299.36 293.28 245.19 258.94 191.04 293.28 191.04 169.99 245.19 135.66"/><polygon class="cls-37" points="244.89 442.49 299.06 476.83 299.06 600.11 244.89 565.77 190.74 600.11 190.74 476.83 244.89 442.49"/><polygon class="cls-37" points="244.89 288.93 299.06 323.26 299.06 446.55 244.89 412.21 190.74 446.55 190.74 323.26 244.89 288.93"/><polygon class="cls-37" points="244.89 135.36 299.06 169.69 299.06 292.98 244.89 258.64 190.74 292.98 190.74 169.69 244.89 135.36"/><polygon class="cls-38" points="244.59 442.19 298.76 476.53 298.76 599.81 244.59 565.48 190.44 599.81 190.44 476.53 244.59 442.19"/><polygon class="cls-38" points="244.59 288.63 298.76 322.96 298.76 446.25 244.59 411.91 190.44 446.25 190.44 322.96 244.59 288.63"/><polygon class="cls-38" points="244.59 135.06 298.76 169.4 298.76 292.68 244.59 258.35 190.44 292.68 190.44 169.4 244.59 135.06"/><polygon class="cls-39" points="244.3 441.89 298.46 476.23 298.46 599.51 244.3 565.18 190.14 599.51 190.14 476.23 244.3 441.89"/><polygon class="cls-39" points="244.3 288.33 298.46 322.66 298.46 445.95 244.3 411.61 190.14 445.95 190.14 322.66 244.3 288.33"/><polygon class="cls-39" points="244.3 134.76 298.46 169.1 298.46 292.38 244.3 258.05 190.14 292.38 190.14 169.1 244.3 134.76"/><polygon class="cls-40" points="244 441.59 298.16 475.93 298.16 599.21 244 564.88 189.84 599.21 189.84 475.93 244 441.59"/><polygon class="cls-40" points="244 288.03 298.16 322.36 298.16 445.65 244 411.31 189.84 445.65 189.84 322.36 244 288.03"/><polygon class="cls-40" points="244 134.46 298.16 168.8 298.16 292.08 244 257.75 189.84 292.08 189.84 168.8 244 134.46"/><polygon class="cls-41" points="243.7 441.3 297.86 475.63 297.86 598.91 243.7 564.58 189.54 598.91 189.54 475.63 243.7 441.3"/><polygon class="cls-41" points="243.7 287.73 297.86 322.06 297.86 445.35 243.7 411.01 189.54 445.35 189.54 322.06 243.7 287.73"/><polygon class="cls-41" points="243.7 134.16 297.86 168.5 297.86 291.78 243.7 257.45 189.54 291.78 189.54 168.5 243.7 134.16"/><polygon class="cls-42" points="243.4 441 297.56 475.33 297.56 598.62 243.4 564.28 189.25 598.62 189.25 475.33 243.4 441"/><polygon class="cls-42" points="243.4 287.43 297.56 321.77 297.56 445.05 243.4 410.71 189.25 445.05 189.25 321.77 243.4 287.43"/><polygon class="cls-42" points="243.4 133.87 297.56 168.2 297.56 291.48 243.4 257.15 189.25 291.48 189.25 168.2 243.4 133.87"/><polygon class="cls-43" points="243.1 440.7 297.26 475.03 297.26 598.32 243.1 563.98 188.95 598.32 188.95 475.03 243.1 440.7"/><polygon class="cls-43" points="243.1 287.13 297.26 321.47 297.26 444.75 243.1 410.42 188.95 444.75 188.95 321.47 243.1 287.13"/><polygon class="cls-43" points="243.1 133.57 297.26 167.9 297.26 291.19 243.1 256.85 188.95 291.19 188.95 167.9 243.1 133.57"/><polygon class="cls-44" points="242.8 440.4 296.96 474.73 296.96 598.02 242.8 563.68 188.65 598.02 188.65 474.73 242.8 440.4"/><polygon class="cls-44" points="242.8 286.83 296.96 321.17 296.96 444.45 242.8 410.12 188.65 444.45 188.65 321.17 242.8 286.83"/><polygon class="cls-44" points="242.8 133.27 296.96 167.6 296.96 290.89 242.8 256.55 188.65 290.89 188.65 167.6 242.8 133.27"/><polygon class="cls-45" points="242.5 440.1 296.67 474.43 296.67 597.72 242.5 563.38 188.35 597.72 188.35 474.43 242.5 440.1"/><polygon class="cls-45" points="242.5 286.53 296.67 320.87 296.67 444.15 242.5 409.82 188.35 444.15 188.35 320.87 242.5 286.53"/><polygon class="cls-45" points="242.5 132.97 296.67 167.3 296.67 290.59 242.5 256.25 188.35 290.59 188.35 167.3 242.5 132.97"/><polygon class="cls-46" points="242.2 439.8 296.37 474.13 296.37 597.42 242.2 563.08 188.05 597.42 188.05 474.13 242.2 439.8"/><polygon class="cls-46" points="242.2 286.23 296.37 320.57 296.37 443.85 242.2 409.52 188.05 443.85 188.05 320.57 242.2 286.23"/><polygon class="cls-46" points="242.2 132.67 296.37 167 296.37 290.29 242.2 255.95 188.05 290.29 188.05 167 242.2 132.67"/><polygon class="cls-47" points="241.9 439.5 296.07 473.84 296.07 597.12 241.9 562.78 187.75 597.12 187.75 473.84 241.9 439.5"/><polygon class="cls-47" points="241.9 285.94 296.07 320.27 296.07 443.56 241.9 409.22 187.75 443.56 187.75 320.27 241.9 285.94"/><polygon class="cls-47" points="241.9 132.37 296.07 166.71 296.07 289.99 241.9 255.65 187.75 289.99 187.75 166.71 241.9 132.37"/><polygon class="cls-48" points="241.6 439.2 295.77 473.54 295.77 596.82 241.6 562.49 187.45 596.82 187.45 473.54 241.6 439.2"/><polygon class="cls-48" points="241.6 285.64 295.77 319.97 295.77 443.26 241.6 408.92 187.45 443.26 187.45 319.97 241.6 285.64"/><polygon class="cls-48" points="241.6 132.07 295.77 166.41 295.77 289.69 241.6 255.35 187.45 289.69 187.45 166.41 241.6 132.07"/><polygon class="cls-49" points="241.31 438.9 295.47 473.24 295.47 596.52 241.31 562.19 187.15 596.52 187.15 473.24 241.31 438.9"/><polygon class="cls-49" points="241.31 285.34 295.47 319.67 295.47 442.96 241.31 408.62 187.15 442.96 187.15 319.67 241.31 285.34"/><polygon class="cls-49" points="241.31 131.77 295.47 166.11 295.47 289.39 241.31 255.06 187.15 289.39 187.15 166.11 241.31 131.77"/><polygon class="cls-50" points="241.01 438.6 295.17 472.94 295.17 596.22 241.01 561.89 186.85 596.22 186.85 472.94 241.01 438.6"/><polygon class="cls-50" points="241.01 285.04 295.17 319.37 295.17 442.66 241.01 408.32 186.85 442.66 186.85 319.37 241.01 285.04"/><polygon class="cls-50" points="241.01 131.47 295.17 165.81 295.17 289.09 241.01 254.76 186.85 289.09 186.85 165.81 241.01 131.47"/><polygon class="cls-51" points="240.71 438.31 294.87 472.64 294.87 595.92 240.71 561.59 186.55 595.92 186.55 472.64 240.71 438.31"/><polygon class="cls-51" points="240.71 284.74 294.87 319.07 294.87 442.36 240.71 408.02 186.55 442.36 186.55 319.07 240.71 284.74"/><polygon class="cls-51" points="240.71 131.17 294.87 165.51 294.87 288.79 240.71 254.46 186.55 288.79 186.55 165.51 240.71 131.17"/><polygon class="cls-52" points="240.41 438.01 294.57 472.34 294.57 595.63 240.41 561.29 186.25 595.63 186.25 472.34 240.41 438.01"/><polygon class="cls-52" points="240.41 284.44 294.57 318.78 294.57 442.06 240.41 407.73 186.25 442.06 186.25 318.78 240.41 284.44"/><polygon class="cls-52" points="240.41 130.88 294.57 165.21 294.57 288.49 240.41 254.16 186.25 288.49 186.25 165.21 240.41 130.88"/><polygon class="cls-53" points="240.11 437.71 294.27 472.04 294.27 595.33 240.11 560.99 185.96 595.33 185.96 472.04 240.11 437.71"/><polygon class="cls-53" points="240.11 284.14 294.27 318.48 294.27 441.76 240.11 407.43 185.96 441.76 185.96 318.48 240.11 284.14"/><polygon class="cls-53" points="240.11 130.58 294.27 164.91 294.27 288.19 240.11 253.86 185.96 288.19 185.96 164.91 240.11 130.58"/><polygon class="cls-54" points="239.81 437.41 293.98 471.74 293.98 595.03 239.81 560.69 185.66 595.03 185.66 471.74 239.81 437.41"/><polygon class="cls-54" points="239.81 283.84 293.98 318.18 293.98 441.46 239.81 407.13 185.66 441.46 185.66 318.18 239.81 283.84"/><polygon class="cls-54" points="239.81 130.28 293.98 164.61 293.98 287.9 239.81 253.56 185.66 287.9 185.66 164.61 239.81 130.28"/><polygon class="cls-55" points="239.51 437.11 293.68 471.44 293.68 594.73 239.51 560.39 185.36 594.73 185.36 471.44 239.51 437.11"/><polygon class="cls-55" points="239.51 283.54 293.68 317.88 293.68 441.16 239.51 406.83 185.36 441.16 185.36 317.88 239.51 283.54"/><polygon class="cls-55" points="239.51 129.98 293.68 164.31 293.68 287.6 239.51 253.26 185.36 287.6 185.36 164.31 239.51 129.98"/></g><polygon class="cls-4" points="292.12 591.89 239.51 558.55 186.92 591.89 186.92 472.3 239.51 438.95 292.12 472.3 292.12 591.89"/><path class="cls-56" d="M188.47,473.16l51-32.36,51.05,32.36v115.9l-49.38-31.3-1.67-1.06-1.67,1.06-49.37,31.3V473.16m-3.11-1.72V594.73l54.15-34.34,54.17,34.34V471.44l-54.17-34.33-54.15,34.33Z"/><polygon class="cls-4" points="292.12 438.33 239.51 404.98 186.92 438.33 186.92 318.74 239.51 285.39 292.12 318.74 292.12 438.33"/><path class="cls-57" d="M188.47,319.59l51-32.36,51.05,32.36V435.5l-49.38-31.31-1.67-1.05-1.67,1.05L188.47,435.5V319.59m-3.11-1.71V441.16l54.15-34.33,54.17,34.33V317.88l-54.17-34.34-54.15,34.34Z"/><polygon class="cls-4" points="292.12 284.76 239.51 251.42 186.92 284.76 186.92 165.17 239.51 131.82 292.12 165.17 292.12 284.76"/><path class="cls-58" d="M188.47,166l51-32.36L290.56,166v115.9l-49.38-31.3-1.67-1.06-1.67,1.06-49.37,31.3V166m-3.11-1.72V287.6l54.15-34.34,54.17,34.34V164.31L239.51,130l-54.15,34.33Z"/><g class="cls-59"><g class="cls-59"><path class="cls-55" d="M185.88,215.49a.53.53,0,0,1-.52.52,40.08,40.08,0,0,0-40,40V489.45a40.09,40.09,0,0,0,40,40,.52.52,0,1,1,0,1,41.12,41.12,0,0,1-41.08-41.07V256A41.12,41.12,0,0,1,185.36,215,.52.52,0,0,1,185.88,215.49Z"/></g><g class="cls-59"><path class="cls-55" d="M181.56,246.58a.53.53,0,0,1-.45.52,13.3,13.3,0,0,0-11.49,13.14v79.35a13.31,13.31,0,0,0,11.49,13.15.52.52,0,0,1-.14,1,14.36,14.36,0,0,1-12.39-14.18V260.24A14.35,14.35,0,0,1,181,246.07a.52.52,0,0,1,.58.44S181.56,246.56,181.56,246.58Z"/><path class="cls-55" d="M181.1,351.28a2,2,0,1,1-2.1,1.79A2,2,0,0,1,181.1,351.28Z"/><path class="cls-55" d="M181.1,248.56a2,2,0,1,0-2.1-1.8A2,2,0,0,0,181.1,248.56Z"/></g><g class="cls-59"><path class="cls-55" d="M181.56,394.82a.53.53,0,0,1-.45.52,13.29,13.29,0,0,0-11.49,13.14v79.35A13.31,13.31,0,0,0,181.11,501a.51.51,0,0,1,.44.58.52.52,0,0,1-.58.45,14.36,14.36,0,0,1-12.39-14.18V408.48A14.34,14.34,0,0,1,181,394.31a.52.52,0,0,1,.58.44S181.56,394.8,181.56,394.82Z"/><path class="cls-55" d="M181.1,499.51a2,2,0,1,1-2.1,1.8A2,2,0,0,1,181.1,499.51Z"/><path class="cls-55" d="M181.1,396.8A2,2,0,1,0,179,395,2,2,0,0,0,181.1,396.8Z"/></g><g class="cls-59"><path class="cls-55" d="M310.48,408.48v79.35A14.35,14.35,0,0,1,298.1,502a.52.52,0,0,1-.14-1,13.3,13.3,0,0,0,11.48-13.15V408.48A13.29,13.29,0,0,0,298,395.34a.52.52,0,0,1-.44-.59.51.51,0,0,1,.58-.44A14.33,14.33,0,0,1,310.48,408.48Z"/><path class="cls-55" d="M298,396.8a2,2,0,1,1,2.1-1.8A1.95,1.95,0,0,1,298,396.8Z"/><path class="cls-55" d="M298,499.51a2,2,0,1,0,2.1,1.8A2,2,0,0,0,298,499.51Z"/></g><g class="cls-59"><path class="cls-55" d="M310.48,260.24v79.35a14.35,14.35,0,0,1-12.38,14.18.51.51,0,0,1-.58-.45.52.52,0,0,1,.44-.58,13.3,13.3,0,0,0,11.48-13.15V260.24A13.29,13.29,0,0,0,298,247.1a.52.52,0,0,1-.44-.59.51.51,0,0,1,.58-.44A14.34,14.34,0,0,1,310.48,260.24Z"/><path class="cls-55" d="M298,248.56a2,2,0,1,1,2.1-1.8A1.95,1.95,0,0,1,298,248.56Z"/><path class="cls-55" d="M298,351.28a2,2,0,1,0,2.1,1.79A1.94,1.94,0,0,0,298,351.28Z"/></g><g class="cls-59"><path class="cls-55" d="M335.72,256V489.45a41.12,41.12,0,0,1-41.08,41.07.52.52,0,1,1,0-1,40.09,40.09,0,0,0,40-40V256a40.08,40.08,0,0,0-40-40,.53.53,0,0,1-.52-.52.52.52,0,0,1,.52-.52A41.12,41.12,0,0,1,335.72,256Z"/></g></g><path class="cls-56" d="M234.7,471.27h9.63v23.8h-5.1V475.8H234.7Z"/><path class="cls-57" d="M241.32,328.19a4.3,4.3,0,0,0,.9-2.47,2.74,2.74,0,0,0-.78-2,2.7,2.7,0,0,0-2-.8c-1.5,0-2.91,1.07-4.25,3.2l-4.26-2.52a13.1,13.1,0,0,1,3.66-3.91,8.93,8.93,0,0,1,5.07-1.33,8.2,8.2,0,0,1,5.42,1.95,6.62,6.62,0,0,1,2.33,5.33,7.13,7.13,0,0,1-.94,3.53,22.93,22.93,0,0,1-3.45,4.3l-4.29,4.46h9.39v4.77H231.33v-3.95l7-7.15A30,30,0,0,0,241.32,328.19Z"/><path class="cls-58" d="M232.33,168.86v-4.53H246.9V168L242,173.55a7,7,0,0,1,4.42,2.4A6.84,6.84,0,0,1,248,180.4a7.26,7.26,0,0,1-2.54,5.87A9.73,9.73,0,0,1,239,188.4a14,14,0,0,1-8-2.8l2.18-4.22a10.82,10.82,0,0,0,6,2.39,4.21,4.21,0,0,0,2.64-.79,2.66,2.66,0,0,0,1-2.26,2.77,2.77,0,0,0-1.19-2.35,5.54,5.54,0,0,0-3.31-.87,11.4,11.4,0,0,0-3.16.65v-3.92l4.56-5.37Z"/><path class="cls-60" d="M236.92,213.55h-.15a2.66,2.66,0,0,1-2.28-.87h0a14.94,14.94,0,0,1-5.83,1.34,6.9,6.9,0,0,1-3.79-.9,3.35,3.35,0,0,1-1.54-3,6.81,6.81,0,0,1,.64-2.85l.66.23a4.37,4.37,0,0,0-.25,1.29c0,1.63,1.36,3,4.79,3a14.78,14.78,0,0,0,4.78-.84l.51-1.4a10.07,10.07,0,0,1,.84-.58l.11.08a4.87,4.87,0,0,0-.26,1.22c0,.77.76,1.14,1.65,1.14h.15ZM228,204.18c.54.45,1.05.91,1.52,1.38a13.47,13.47,0,0,1-1.07,1.35c-.51-.51-1-1-1.55-1.39Zm2.6-.14c.54.45,1,.91,1.52,1.38a13.47,13.47,0,0,1-1.07,1.35c-.51-.51-1-1-1.55-1.39Z"/><path class="cls-60" d="M242,213.55h-.14a2.54,2.54,0,0,1-2.46-1.18h0a2.69,2.69,0,0,1-2.24,1.18h-.15c-.52,0-.75-.56-.75-1.08s.23-1.07.75-1.07h.15a2.49,2.49,0,0,0,1.46-.37c.59-.36.64-1.05.88-1.55.25-.17.53-.36.86-.55l.08.06a4.16,4.16,0,0,0-.21,1,1.17,1.17,0,0,0,.53,1.11,2.16,2.16,0,0,0,1.15.31H242Zm-3.9,2a8.71,8.71,0,0,1,1.22,1.34,4.91,4.91,0,0,1-1.05,1.09c-.41-.44-.83-.86-1.26-1.28Zm2.26-.09a8.28,8.28,0,0,1,1.23,1.33,5,5,0,0,1-1.06,1.1c-.4-.45-.82-.86-1.25-1.28Z"/><path class="cls-60" d="M247,213.55h-.14a2.55,2.55,0,0,1-2.46-1.18h0a2.69,2.69,0,0,1-2.24,1.18H242c-.52,0-.76-.56-.76-1.08s.24-1.07.76-1.07h.15a2.51,2.51,0,0,0,1.46-.37c.59-.36.64-1.05.88-1.55.25-.17.52-.36.86-.55l.07.06a4,4,0,0,0-.2,1,1.18,1.18,0,0,0,.52,1.11,2.21,2.21,0,0,0,1.15.31H247Zm-2.91,1.83a11.39,11.39,0,0,1,1.54,1.26,3.72,3.72,0,0,1-1,1.32,18.57,18.57,0,0,0-1.56-1.19Z"/><path class="cls-60" d="M252,213.55h-.14a2.54,2.54,0,0,1-2.46-1.18h0a2.69,2.69,0,0,1-2.25,1.18H247c-.51,0-.75-.56-.75-1.08s.24-1.07.75-1.07h.15a2.49,2.49,0,0,0,1.46-.37c.6-.36.65-1.05.89-1.55.24-.17.52-.36.85-.55l.08.06a4,4,0,0,0-.2,1,1.16,1.16,0,0,0,.52,1.11,2.19,2.19,0,0,0,1.15.31H252Zm-3.86-7.87a8.28,8.28,0,0,1,1.23,1.33,5,5,0,0,1-1.05,1.1c-.41-.44-.83-.86-1.26-1.28Zm.91-2.32a8.67,8.67,0,0,1,1.22,1.33,4.75,4.75,0,0,1-1.05,1.1c-.41-.44-.83-.86-1.26-1.28Zm1.36,2.23a9.32,9.32,0,0,1,1.23,1.33,4.75,4.75,0,0,1-1.06,1.09c-.41-.44-.82-.86-1.25-1.28Z"/><path class="cls-60" d="M254.73,207.13a6.88,6.88,0,0,1,1.08,3,4.33,4.33,0,0,1-.44,2,2.24,2.24,0,0,1-1.05,1.1,5.17,5.17,0,0,1-2.17.37H252c-.52,0-.75-.56-.75-1.08s.23-1.07.75-1.07h.24a4.31,4.31,0,0,0,2.34-.42,10,10,0,0,0-1.05-2.19,15.33,15.33,0,0,1,1.09-1.68Zm-2-3A8.28,8.28,0,0,1,254,205.5a5.19,5.19,0,0,1-1.05,1.1c-.41-.45-.83-.86-1.26-1.28Zm2.27-.1a8.67,8.67,0,0,1,1.22,1.33,4.55,4.55,0,0,1-1.05,1.1c-.41-.44-.83-.86-1.26-1.28Z"/><path class="cls-60" d="M201,234.73c-1.07,0-2.07-.38-2.07-1.53a3.85,3.85,0,0,1,.44-1.65,7,7,0,0,1,3.15-2.9l0-.57c.35-.34.7-.68,1.07-1l.17,0c.05,1.07.06,2.35.06,4,0,.9,0,1.59.33,1.91a1.54,1.54,0,0,0,1.22.38h.15v2.15h-.15c-1.32,0-1.9-.25-2.36-1.22A5.54,5.54,0,0,1,201,234.73Zm.1-10.58a8.67,8.67,0,0,1,1.22,1.33,5,5,0,0,1-1,1.1c-.41-.44-.83-.86-1.26-1.28Zm1.58,6.18c-1.53.7-2.51,1.47-2.51,1.91s.52.5,1.11.5a4.7,4.7,0,0,0,1.44-.22C202.69,231.67,202.67,230.92,202.65,230.33Zm.68-6.28a8.28,8.28,0,0,1,1.23,1.33,5,5,0,0,1-1.05,1.1c-.41-.44-.83-.86-1.26-1.28Z"/><path class="cls-60" d="M210.48,235.55h-.14a2.55,2.55,0,0,1-2.46-1.17h0a2.71,2.71,0,0,1-2.25,1.17h-.15c-.52,0-.75-.56-.75-1.08s.23-1.07.75-1.07h.15a2.49,2.49,0,0,0,1.46-.37c.59-.36.65-1.05.88-1.54a9.93,9.93,0,0,1,.86-.56l.08.06a4.16,4.16,0,0,0-.21,1,1.17,1.17,0,0,0,.53,1.11,2.19,2.19,0,0,0,1.15.31h.13Zm-3.9,2a9.2,9.2,0,0,1,1.22,1.34,4.91,4.91,0,0,1-1.05,1.09c-.41-.44-.83-.86-1.26-1.28Zm2.26-.09a8.28,8.28,0,0,1,1.23,1.33,5,5,0,0,1-1,1.1c-.41-.44-.83-.86-1.26-1.28Z"/><path class="cls-60" d="M215.1,235.55H215a2.27,2.27,0,0,1-2.25-1.21h0a2.26,2.26,0,0,1-2,1.21h-.15c-.52,0-.75-.56-.75-1.08s.23-1.07.75-1.07h.23c1.1,0,1.58-.53,1.58-1.44,0-1.94-.12-4.34-.32-6.36a15.29,15.29,0,0,1,1.21-1.12l.14.07a43.07,43.07,0,0,1,.19,4.81c0,1.13,0,2.08,0,2.58,0,1,.26,1.46,1.39,1.46h.22Z"/><path class="cls-60" d="M220.68,231.94a9.08,9.08,0,0,0-2.73-.57,1.64,1.64,0,0,0-.89.19l-.49,1.13h-.22l-.69-1.37A2.23,2.23,0,0,1,218,229.4a9.24,9.24,0,0,1,3,.74,6.9,6.9,0,0,0,2.66.51h.79l0,.08a12.39,12.39,0,0,1-.89,1.5,2.46,2.46,0,0,0-1.85.64c-1.9,1.72-3.32,2.68-6.45,2.68h-.15c-.52,0-.76-.56-.76-1.08s.24-1.07.76-1.07h.15a9.09,9.09,0,0,0,5.43-1.41Zm2,.54.06.06c.07.8.93.86,1.87.86h.15v2.15h-.15a3,3,0,0,1-2-.44,2,2,0,0,1-.57-1.52c0-.21,0-.42,0-.63Z"/><path class="cls-60" d="M227.27,234.75a3.54,3.54,0,0,1-2.33.8h-.15c-.52,0-.76-.56-.76-1.08s.24-1.07.76-1.07h.15a4.91,4.91,0,0,0,2.26-.43c-.09-1.7-.17-3.39-.24-5.08,0-.51-.15-1.16-.15-1.59a1.54,1.54,0,0,1,.29-1,4.28,4.28,0,0,1,.83-.81l.13.09a6.37,6.37,0,0,0,1.18,2.87l-1,.74c0,2.24,0,3.3.11,4.12a3.53,3.53,0,0,1,1.23-.26c1.08,0,2.06.86,2.06,2.48,0,.94-.61,2.53-2.17,2.53-1,0-1.87-.77-2.2-2.31Zm2.95.62a.59.59,0,0,0,.46-.17,1.48,1.48,0,0,0-1.46-1.42,2.44,2.44,0,0,0-.75.14A2,2,0,0,0,230.22,235.37Z"/><path class="cls-60" d="M233.47,235.67a19.35,19.35,0,0,0,.14-2.58,63.47,63.47,0,0,0-.37-7c.43-.51.84-1,1.25-1.36l.18.1c.21,2.32.25,4.49.25,6.57a8.26,8.26,0,0,1-.34,3.18,7.06,7.06,0,0,1-.88,1.26Z"/><path class="cls-60" d="M243.18,234.73c-1.08,0-2.08-.38-2.08-1.53a3.85,3.85,0,0,1,.44-1.65,7,7,0,0,1,3.15-2.9l0-.57c.34-.34.7-.68,1.06-1l.17,0c.06,1.07.07,2.35.07,4,0,.9,0,1.59.32,1.91a1.55,1.55,0,0,0,1.23.38h.15v2.15h-.15c-1.33,0-1.91-.25-2.37-1.22A5.49,5.49,0,0,1,243.18,234.73Zm.09-10.58a8.28,8.28,0,0,1,1.23,1.33,5.19,5.19,0,0,1-1.05,1.1c-.41-.44-.83-.86-1.26-1.28Zm1.58,6.18c-1.52.7-2.5,1.47-2.5,1.91s.52.5,1.11.5a4.75,4.75,0,0,0,1.44-.22C244.9,231.67,244.87,230.92,244.85,230.33Zm.69-6.28a8.67,8.67,0,0,1,1.22,1.33,4.55,4.55,0,0,1-1,1.1c-.41-.44-.83-.86-1.25-1.28Z"/><path class="cls-60" d="M250.15,231.68c1.2-1.28,2.53-2.33,3.9-2.33a2.54,2.54,0,0,1,2.23,1.1,2.8,2.8,0,0,1,.52,1.64,3,3,0,0,1-.34,1.31h1.29v2.15h-.15a27.5,27.5,0,0,1-3.83-.28,45.65,45.65,0,0,1-6,.28h-.15c-.52,0-.76-.56-.76-1.08s.24-1.07.76-1.07h1l.5-.6a10.32,10.32,0,0,0,.13-1.7,36.77,36.77,0,0,0-.33-5.48c0-.82.36-1.18,1.07-1.79l.16.09a6.48,6.48,0,0,0,1.17,2.88l-.93.69c0,.72,0,1.44,0,2.34a5.26,5.26,0,0,1-.31,1.84ZM255,233c.34-.12.62-.24.62-.37a2.08,2.08,0,0,0-2-1.36c-1.14,0-2.39.84-3.65,2.1A21.52,21.52,0,0,0,255,233Z"/><path class="cls-60" d="M262.37,235.55h-.15a2.27,2.27,0,0,1-2.24-1.21h-.05a2.25,2.25,0,0,1-2,1.21h-.15c-.51,0-.75-.56-.75-1.08s.24-1.07.75-1.07H258c1.1,0,1.58-.53,1.58-1.44,0-1.94-.12-4.34-.32-6.36a13.72,13.72,0,0,1,1.21-1.12l.14.07a45.59,45.59,0,0,1,.18,4.81c0,1.13,0,2.08,0,2.58,0,1,.27,1.46,1.4,1.46h.21Z"/><path class="cls-60" d="M273.37,235.55h-.15c-1.2,0-2.07-.27-2.44-1h0a2.46,2.46,0,0,1-1.81,1,1.17,1.17,0,0,1-1.2-.92h-.05a2.41,2.41,0,0,1-1.77.92,1.09,1.09,0,0,1-1.15-.82,3.51,3.51,0,0,1-2.24.82h-.15c-.51,0-.75-.56-.75-1.08s.24-1.07.75-1.07h.15a3.06,3.06,0,0,0,1.93-.49,5.59,5.59,0,0,0,.92-1.13,5.7,5.7,0,0,1,.93-.43l.12.1a3.09,3.09,0,0,0-.65,1.4c0,.4.21.55.56.55a1.42,1.42,0,0,0,1-.42,5,5,0,0,0,.77-1.4,7,7,0,0,1,.87-.43l.09.11a5.28,5.28,0,0,0-.5,1.46c0,.46.2.68.54.68a1.27,1.27,0,0,0,1.08-.55,6.19,6.19,0,0,0,.61-1.52,6.31,6.31,0,0,1,.86-.52l.07.07a5.27,5.27,0,0,0-.3,1.4c0,.75.56,1.12,1.78,1.12h.15Z"/><path class="cls-60" d="M276.13,224.58a6.3,6.3,0,0,0,1.19,2.87l-1,.73c0,.82.06,1.83.06,2.89a7.16,7.16,0,0,1-.39,2.37,5.2,5.2,0,0,1-.54,1.14,2.26,2.26,0,0,1-2,1h-.15c-.51,0-.75-.56-.75-1.08s.24-1.07.75-1.07h.15a2.14,2.14,0,0,0,1.53-.44c.18-.19.18-.49.18-1.07,0-2.67-.35-5.06-.35-5.59a1.54,1.54,0,0,1,.29-1,4.28,4.28,0,0,1,.83-.81Z"/><path class="cls-60" d="M278.81,235.67a17.8,17.8,0,0,0,.14-2.58,63.47,63.47,0,0,0-.37-7c.43-.51.84-1,1.25-1.36l.18.1c.22,2.32.25,4.49.25,6.57a8.56,8.56,0,0,1-.33,3.18,7.72,7.72,0,0,1-.89,1.26Z"/><path class="cls-60" d="M232.14,368.54H232a2,2,0,0,1-1.65-.74h0a4.89,4.89,0,0,1-.47,1.63,4.31,4.31,0,0,1-3.41,1.76c-2.35,0-3.14-1.81-3.14-3.39a6.87,6.87,0,0,1,.84-3.25l.59.26a5.11,5.11,0,0,0-.46,1.81,2.22,2.22,0,0,0,2.33,2.4,3.91,3.91,0,0,0,2.78-1.32c0-.51,0-1,0-1.43,0-1.74-.17-4.71-.32-7.25a9.43,9.43,0,0,1,1.14-1.14l.17.08c.08,1.68.13,3.82.14,6.5a2.25,2.25,0,0,0,.39,1.49,1.41,1.41,0,0,0,1.08.45h.15Z"/><path class="cls-60" d="M236.44,366.4v2.14h-4.3c-.51,0-.75-.55-.75-1.07s.24-1.07.75-1.07Z"/><path class="cls-60" d="M240.74,366.4v2.14h-4.3c-.51,0-.75-.55-.75-1.07s.24-1.07.75-1.07Z"/><path class="cls-60" d="M245,366.4v2.14h-4.3c-.52,0-.75-.55-.75-1.07s.23-1.07.75-1.07Z"/><path class="cls-60" d="M245.19,366.4a6.9,6.9,0,0,0,1.36-.13,5.7,5.7,0,0,1-.17-1.42,3.82,3.82,0,0,1,1.23-2.83,2.52,2.52,0,0,1,1.63-.84,1.33,1.33,0,0,1,1,.68,3.72,3.72,0,0,1,.63,2.17,5.11,5.11,0,0,1-.56,2.23,13.24,13.24,0,0,0,1.56.14h.15v2.14h-.15a9.08,9.08,0,0,1-3.73-.66,6.55,6.55,0,0,1-3,.66H245c-.52,0-.76-.55-.76-1.07s.24-1.07.76-1.07ZM247.4,358a8.71,8.71,0,0,1,1.22,1.34,4.91,4.91,0,0,1-1.05,1.09c-.41-.44-.83-.86-1.26-1.28Zm1.14,7.94c.94-.28,1.52-.8,1.52-1.16s-.53-1.53-1.25-1.53a2.16,2.16,0,0,0-1.71,1.41C247.22,365.19,247.73,365.61,248.54,365.9Zm1.13-8a8.67,8.67,0,0,1,1.22,1.33,4.71,4.71,0,0,1-1,1.09c-.41-.44-.83-.85-1.26-1.27Z"/><path class="cls-60" d="M254.8,362.13a6.88,6.88,0,0,1,1.08,3,4.33,4.33,0,0,1-.44,1.95,2.24,2.24,0,0,1-1.05,1.1,5.19,5.19,0,0,1-2.17.36h-.15c-.51,0-.75-.55-.75-1.07s.24-1.07.75-1.07h.24a4.31,4.31,0,0,0,2.34-.42,9.8,9.8,0,0,0-1.05-2.19,15.33,15.33,0,0,1,1.09-1.68Zm-1.13-3.34a11.39,11.39,0,0,1,1.54,1.26,3.9,3.9,0,0,1-1,1.32,16.66,16.66,0,0,0-1.56-1.19Z"/><path class="cls-60" d="M221.33,384a7.54,7.54,0,0,1,1.14,3,5.06,5.06,0,0,1-.89,2.66,13.17,13.17,0,0,1-5.83,1.32,6.84,6.84,0,0,1-3.78-.89,3.33,3.33,0,0,1-1.55-3,6.81,6.81,0,0,1,.64-2.85l.66.23a4.37,4.37,0,0,0-.25,1.29c0,1.63,1.37,3,4.79,3a15.51,15.51,0,0,0,5-.85,16.74,16.74,0,0,0-1.07-2.21,17,17,0,0,1,1.05-1.67Zm-6.5-2.85c.54.45,1,.91,1.52,1.38a15,15,0,0,1-1.06,1.35c-.52-.51-1-1-1.56-1.39Zm2.6-.14c.54.45,1,.91,1.52,1.38a15,15,0,0,1-1.06,1.35c-.52-.51-1-1-1.56-1.39Z"/><path class="cls-60" d="M227.28,390.55h-.18c-1.46,0-2.51-.75-2.54-2.84,0-1.22-.11-4.38-.39-7,.4-.43.82-.82,1.23-1.19l.16.08a45.93,45.93,0,0,1,.19,4.81c0,1.13,0,1.7,0,2.58,0,1.07.43,1.44,1.4,1.44h.15Z"/><path class="cls-60" d="M232.31,390.55h-.14a2.55,2.55,0,0,1-2.46-1.17h0a2.7,2.7,0,0,1-2.24,1.17h-.16c-.51,0-.75-.56-.75-1.08s.24-1.07.75-1.07h.16a2.53,2.53,0,0,0,1.46-.37c.59-.36.64-1,.88-1.54a7.58,7.58,0,0,1,.86-.56l.07.06a4,4,0,0,0-.2,1,1.18,1.18,0,0,0,.52,1.11,2.21,2.21,0,0,0,1.15.31h.13Zm-3.9,2a9.31,9.31,0,0,1,1.23,1.34,5,5,0,0,1-1.06,1.09c-.4-.44-.82-.86-1.25-1.28Zm2.27-.09a8.67,8.67,0,0,1,1.22,1.33,5,5,0,0,1-1.05,1.1c-.41-.44-.83-.86-1.26-1.28Z"/><path class="cls-60" d="M237.9,386.94a9.14,9.14,0,0,0-2.73-.57,1.59,1.59,0,0,0-.89.19l-.5,1.13h-.21l-.7-1.37a2.24,2.24,0,0,1,2.34-1.92,9.35,9.35,0,0,1,3,.74,6.89,6.89,0,0,0,2.65.51h.8l0,.08a15.71,15.71,0,0,1-.89,1.5,2.43,2.43,0,0,0-1.84.64c-1.9,1.72-3.33,2.68-6.47,2.68h-.15c-.51,0-.75-.56-.75-1.08s.24-1.07.75-1.07h.15A9.12,9.12,0,0,0,237.9,387Z"/><path class="cls-60" d="M244.32,383.05c1.31,2,2.31,3.22,2.31,5.07h0a3.09,3.09,0,0,0,.88-2.33c0-1.43-.08-3.12-.22-5.28.43-.42.82-.77,1.16-1l.13.07c.12,1.66.12,3.83.12,6.53,0,1.51.48,2.33,1.53,2.33h.15v2.15h-.15a2.25,2.25,0,0,1-2.4-2.25h-.05a3.52,3.52,0,0,1-3.64,2.54,6.51,6.51,0,0,1-2-.29v-.21a16,16,0,0,0,3.91-1.89,17.55,17.55,0,0,0-2.69-4.25c-.7-.94-1.47-1.68-1.47-2.31a3.88,3.88,0,0,1,.35-1.37h.15a10.58,10.58,0,0,0,2.42,1.68Z"/><path class="cls-60" d="M253.61,385.94a5.1,5.1,0,0,0-.15,1A1.11,1.11,0,0,0,254,388c1.52-2.27,3-3.65,4.56-3.65a2.38,2.38,0,0,1,2.38,2.4,4.17,4.17,0,0,1-.39,1.67h1.35v2.15h-.15a21,21,0,0,1-3.64-.3,11.9,11.9,0,0,1-2.57.3c-1.28,0-2.28-.27-2.76-1.09h0a2.71,2.71,0,0,1-2.22,1.09h-.14c-.51,0-.75-.56-.75-1.08s.24-1.07.75-1.07h.15a1.88,1.88,0,0,0,1.66-.65,6.94,6.94,0,0,0,.51-1.28c.26-.19.52-.39.81-.59Zm2.78,2.46c1.76,0,3.44-.54,3.44-.9a1.72,1.72,0,0,0-1.73-1.29c-1.05,0-2.1.74-3.15,2A5.51,5.51,0,0,0,256.39,388.4Z"/><path class="cls-60" d="M264.7,379.58a6.37,6.37,0,0,0,1.18,2.87l-.95.73c0,.82.06,1.83.06,2.89a6.9,6.9,0,0,1-.4,2.37,5.18,5.18,0,0,1-.53,1.14,2.26,2.26,0,0,1-2,1h-.15c-.52,0-.75-.56-.75-1.08s.23-1.07.75-1.07h.15a2.11,2.11,0,0,0,1.52-.44c.19-.19.19-.49.19-1.07,0-2.67-.36-5.06-.36-5.59a1.6,1.6,0,0,1,.29-1,4.37,4.37,0,0,1,.84-.81Z"/><path class="cls-60" d="M267.37,390.67a17.8,17.8,0,0,0,.14-2.58,63.44,63.44,0,0,0-.36-7c.43-.51.84-1,1.25-1.36l.18.1c.21,2.32.24,4.49.24,6.57a8.34,8.34,0,0,1-.33,3.18,7.06,7.06,0,0,1-.88,1.26Z"/><path class="cls-60" d="M232.68,522.54h-.19a3.33,3.33,0,0,1-1.11-.2,4.28,4.28,0,0,1-.7,2.43,2.73,2.73,0,0,1-2.17,1.56,5.33,5.33,0,0,1-2.86-1.07l.24-.53a3,3,0,0,0,1,.18,3.39,3.39,0,0,0,2.35-1,3.9,3.9,0,0,0,1.25-2,10.15,10.15,0,0,1-1.19-2c.25-.58.5-1.12.76-1.59h.17c.55,1.25,1.13,2.11,2.34,2.11h.15Zm-3.6-8.12a11.28,11.28,0,0,1,1.53,1.26,3.58,3.58,0,0,1-1,1.32c-.44-.38-1-.78-1.56-1.19Z"/><path class="cls-60" d="M237.7,522.54h-.14a2.54,2.54,0,0,1-2.46-1.17h0a2.68,2.68,0,0,1-2.24,1.17h-.15c-.52,0-.75-.55-.75-1.07s.23-1.07.75-1.07h.15a2.51,2.51,0,0,0,1.46-.37c.59-.36.64-1,.88-1.55.25-.17.53-.36.86-.55l.07.06a4.57,4.57,0,0,0-.2,1,1.15,1.15,0,0,0,.53,1.1,2.08,2.08,0,0,0,1.15.32h.12Zm-3.89,2a8.71,8.71,0,0,1,1.22,1.34A4.91,4.91,0,0,1,234,527c-.41-.44-.83-.86-1.26-1.28Zm2.26-.09a8.77,8.77,0,0,1,1.23,1.33,4.75,4.75,0,0,1-1.06,1.09c-.4-.44-.82-.85-1.25-1.27Z"/><path class="cls-60" d="M240.5,515.78c1.61,1.39,2.07,2.18,2.07,3.42a4.64,4.64,0,0,1-.51,1.95c-.46.92-1.88,1.39-4.21,1.39h-.15c-.51,0-.75-.55-.75-1.07s.24-1.07.75-1.07h.15c2.15,0,3.64-.36,3.64-.84,0-.9-1.44-2.16-3.62-3.63a5,5,0,0,1-.22-1.36,1.62,1.62,0,0,1,1.08-1.57,53.2,53.2,0,0,1,5.54-2.08l.07.08c-.28.59-.59,1.19-.92,1.78a46,46,0,0,0-4.77,1.73v.06c.76.17,1.5.28,2.2.38Z"/><path class="cls-60" d="M248.6,522.54h-.19a3.33,3.33,0,0,1-1.11-.2,4.28,4.28,0,0,1-.7,2.43,2.73,2.73,0,0,1-2.17,1.56,5.33,5.33,0,0,1-2.86-1.07l.24-.53a3,3,0,0,0,1,.18,3.39,3.39,0,0,0,2.35-1,3.9,3.9,0,0,0,1.25-2,10.15,10.15,0,0,1-1.19-2c.25-.58.5-1.12.76-1.59h.16c.56,1.25,1.14,2.11,2.35,2.11h.15Z"/><path class="cls-60" d="M251.33,516.13a6.88,6.88,0,0,1,1.08,3,4.47,4.47,0,0,1-.44,2,2.28,2.28,0,0,1-1.05,1.1,5.22,5.22,0,0,1-2.17.36h-.15c-.52,0-.75-.55-.75-1.07s.23-1.07.75-1.07h.23a4.33,4.33,0,0,0,2.35-.42,9.52,9.52,0,0,0-1.06-2.19,15.31,15.31,0,0,1,1.1-1.68Zm-2-3a8.67,8.67,0,0,1,1.22,1.33,4.51,4.51,0,0,1-1.05,1.09c-.41-.44-.83-.85-1.26-1.27Zm2.27-.1a8.67,8.67,0,0,1,1.22,1.33,4.75,4.75,0,0,1-1,1.1c-.41-.44-.83-.86-1.26-1.28Z"/><path class="cls-60" d="M223.07,538a7.54,7.54,0,0,1,1.14,3,5.08,5.08,0,0,1-.9,2.66,13.17,13.17,0,0,1-5.83,1.32,6.89,6.89,0,0,1-3.78-.89,3.33,3.33,0,0,1-1.55-3,6.83,6.83,0,0,1,.65-2.85l.65.23a4.33,4.33,0,0,0-.24,1.29c0,1.63,1.36,3,4.79,3a15.43,15.43,0,0,0,5-.85,16.44,16.44,0,0,0-1.06-2.21,15.24,15.24,0,0,1,1-1.67Zm-6.5-2.85c.54.45,1,.91,1.51,1.38a13.36,13.36,0,0,1-1.06,1.35c-.52-.51-1-1-1.56-1.39Zm2.6-.14c.54.45,1,.91,1.51,1.38a13.36,13.36,0,0,1-1.06,1.35c-.52-.51-1-1-1.56-1.39Z"/><path class="cls-60" d="M229,544.55h-.18c-1.46,0-2.52-.75-2.55-2.84,0-1.22-.11-4.38-.39-7,.4-.43.82-.82,1.24-1.19l.15.08a45.93,45.93,0,0,1,.19,4.81c0,1.13,0,1.7,0,2.58,0,1.07.43,1.44,1.41,1.44H229Z"/><path class="cls-60" d="M240,544.55h-.15c-1.2,0-2.08-.27-2.44-1h0a2.48,2.48,0,0,1-1.82,1,1.16,1.16,0,0,1-1.19-.92h0a2.43,2.43,0,0,1-1.78.92,1.1,1.1,0,0,1-1.15-.82,3.47,3.47,0,0,1-2.23.82H229c-.52,0-.75-.56-.75-1.08s.23-1.07.75-1.07h.15a3.05,3.05,0,0,0,1.92-.49,5.58,5.58,0,0,0,.93-1.13,5.33,5.33,0,0,1,.93-.43l.12.1a3,3,0,0,0-.66,1.4.49.49,0,0,0,.56.55,1.38,1.38,0,0,0,1-.42,5,5,0,0,0,.78-1.4,6.4,6.4,0,0,1,.87-.43l.08.11a5.17,5.17,0,0,0-.49,1.46c0,.46.19.68.53.68a1.29,1.29,0,0,0,1.09-.55,5.81,5.81,0,0,0,.6-1.52,7.84,7.84,0,0,1,.86-.52l.08.07a5,5,0,0,0-.31,1.4c0,.75.56,1.12,1.79,1.12H240Z"/><path class="cls-60" d="M248.83,539.11a12.77,12.77,0,0,1,.24,2.45,3.9,3.9,0,0,1-.63,1.88,2.06,2.06,0,0,1-1.57,1.07,1.87,1.87,0,0,1-1.5-.91h0a2.67,2.67,0,0,1-1.78.95,1.05,1.05,0,0,1-1.15-.85h0a3,3,0,0,1-2.22.85H240c-.52,0-.75-.56-.75-1.08s.23-1.07.75-1.07h.15a2.85,2.85,0,0,0,2-.58,8.29,8.29,0,0,0,.84-1.09,7.68,7.68,0,0,1,1-.41l.08.12a3.43,3.43,0,0,0-.67,1.44.48.48,0,0,0,.5.52,1.71,1.71,0,0,0,.73-.21c.68-.34.73-1,.9-1.63a8.47,8.47,0,0,1,.8-.5l.1.07a3.22,3.22,0,0,0-.17,1,1.21,1.21,0,0,0,.31.85,1.12,1.12,0,0,0,.8.36.57.57,0,0,0,.52-.21,14.18,14.18,0,0,0-.39-1.86c.37-.42.75-.84,1.18-1.25Z"/><path class="cls-60" d="M257,542.4v2.15h-.81c-.45,1.94-1.8,3.92-3.48,3.92a5.8,5.8,0,0,1-3.16-1.2l.25-.56a3.31,3.31,0,0,0,1.31.3,4.48,4.48,0,0,0,2.69-1.11,4.09,4.09,0,0,0,1.24-1.35h-.3c-2,0-3.41-.66-3.41-2.59a3.23,3.23,0,0,1,.81-2.14,2.32,2.32,0,0,1,1.72-1c1.21,0,2,1.3,2.41,3.54Zm-3.38-6.32-.29-.32a.45.45,0,0,0-.37-.15c-.43,0-.72.21-.72.37s.49.57,1.41.57c.39,0,.71,0,1.08,0l.05.1a6,6,0,0,1-.45.87,6.92,6.92,0,0,0-2.68.77l-.13-.13a8.6,8.6,0,0,1,.42-.8.92.92,0,0,1-.66-.86,1.84,1.84,0,0,1,.69-1.22,2.1,2.1,0,0,1,1.33-.57c.47,0,.77.24.77.61a1.45,1.45,0,0,1-.32.79Zm-.27,4.53a1,1,0,0,0-1.09.79c0,.62,1.1,1,2.5,1a2.67,2.67,0,0,0,.42,0C254.75,541.32,254.13,540.61,253.31,540.61Z"/><path class="cls-60" d="M259.44,543.75a3.54,3.54,0,0,1-2.33.8H257c-.52,0-.75-.56-.75-1.08s.23-1.07.75-1.07h.15a5,5,0,0,0,2.27-.43c-.1-1.7-.18-3.39-.25-5.08,0-.51-.15-1.16-.15-1.59a1.54,1.54,0,0,1,.29-1,4.09,4.09,0,0,1,.84-.81l.13.09a6.25,6.25,0,0,0,1.18,2.87l-1,.74c0,2.24.05,3.3.12,4.12a3.48,3.48,0,0,1,1.22-.26c1.09,0,2.06.86,2.06,2.48,0,.94-.61,2.53-2.17,2.53-1,0-1.86-.77-2.2-2.31Zm2.95.62a.61.61,0,0,0,.47-.17,1.49,1.49,0,0,0-1.46-1.42,2.51,2.51,0,0,0-.76.14A2,2,0,0,0,262.39,544.37Z"/><path class="cls-60" d="M265.64,544.67a17.8,17.8,0,0,0,.14-2.58,63.47,63.47,0,0,0-.37-7c.43-.51.84-1,1.25-1.36l.18.1c.22,2.32.25,4.49.25,6.57a8.56,8.56,0,0,1-.33,3.18,8.28,8.28,0,0,1-.88,1.26Z"/></g></g></svg>