<svg id="Layer_1" data-name="Layer 1" xmlns="http://www.w3.org/2000/svg" viewBox="0 0 480 638"><defs><style>.cls-1{fill:#e51e25;}.cls-2{fill:#c6b9a9;}.cls-3{fill:#d1c4b6;}.cls-4{opacity:0.4;}.cls-5{fill:#030202;}.cls-6{fill:#7b9eb2;}.cls-7{fill:#82a7ba;}.cls-8{fill:#806b59;}.cls-9{fill:#8f7863;}.cls-10{fill:#fff;}.cls-11{fill:#7a9eb1;}.cls-12{fill:#a3bed0;}.cls-13{fill:#046080;}</style></defs><path class="cls-1" d="M241,132.93v31.94c16-6.39,31.94,6.38,47.91,0V132.93C272.9,139.32,256.93,126.54,241,132.93Zm24,23.95a10.09,10.09,0,0,1-8-9.4,6.44,6.44,0,0,1,8-6.57c4.41.93,8,5,8,9.41A6.43,6.43,0,0,1,264.91,156.88Z"/><path class="cls-1" d="M266.51,154a4.07,4.07,0,0,0,3.25-.66,4.88,4.88,0,0,1-4.85,1.54,7.63,7.63,0,0,1-6-7.12,4.79,4.79,0,0,1,6-4.86,7.73,7.73,0,0,1,4.85,3.39,6.14,6.14,0,0,0-3.25-1.88,3.82,3.82,0,0,0-4.79,3.85A6.15,6.15,0,0,0,266.51,154Z"/><path class="cls-1" d="M267.88,149.48c.52.8,1,1.6,1.54,2.4-.83-.42-1.66-.84-2.48-1.28l-1.54,1.81V149.8l-2.48-1.3,2.48-.31v-2.61c.51.8,1,1.61,1.54,2.41.82-.1,1.65-.21,2.48-.34C268.91,148.27,268.4,148.88,267.88,149.48Z"/><rect class="cls-2" x="390" y="357.18" width="33.33" height="26.45"/><rect class="cls-2" x="323.33" y="357.18" width="33.33" height="26.45"/><rect class="cls-3" x="306.67" y="369.78" width="133.33" height="73.33"/><g class="cls-4"><path class="cls-5" d="M354.27,408.88c-1.17,0-2.26-.41-2.26-1.67a4.11,4.11,0,0,1,.48-1.8,7.7,7.7,0,0,1,3.43-3.17l0-.62c.37-.37.76-.74,1.16-1.09l.18.06c.06,1.16.07,2.56.07,4.34,0,1,0,1.73.35,2.08a1.69,1.69,0,0,0,1.34.41h.16v2.35H359c-1.44,0-2.07-.27-2.58-1.33A6.06,6.06,0,0,1,354.27,408.88Zm.1-11.55a9.36,9.36,0,0,1,1.34,1.46,5.39,5.39,0,0,1-1.15,1.19c-.44-.48-.9-.94-1.37-1.39Zm1.73,6.74c-1.67.78-2.73,1.61-2.73,2.09s.56.55,1.2.55a4.91,4.91,0,0,0,1.57-.25C356.14,405.54,356.12,404.72,356.1,404.07Zm.75-6.84a9.22,9.22,0,0,1,1.33,1.45,5,5,0,0,1-1.15,1.2c-.44-.48-.9-.94-1.37-1.4Z"/><path class="cls-5" d="M362.17,397.8a6.79,6.79,0,0,0,1.29,3.13l-1,.8c0,.9.07,2,.07,3.15a7.58,7.58,0,0,1-.43,2.59,5.06,5.06,0,0,1-.59,1.24,2.45,2.45,0,0,1-2.14,1.06h-.17c-.56,0-.82-.61-.82-1.17s.26-1.18.82-1.18h.17a2.31,2.31,0,0,0,1.66-.48c.2-.2.2-.52.2-1.16,0-2.91-.38-5.52-.38-6.1a1.72,1.72,0,0,1,.31-1.09,4.61,4.61,0,0,1,.92-.88Z"/><path class="cls-5" d="M370.66,407.06l-1,1.75a13.41,13.41,0,0,0-2.38.42,6.92,6.92,0,0,0-1.86.85l-.19-.3a6.72,6.72,0,0,1,.74-1.18,1.61,1.61,0,0,1-1.06-1.39,3.13,3.13,0,0,1,1.07-2.12,3.77,3.77,0,0,1,2.38-1.18,1.12,1.12,0,0,1,1.25,1.16,2.1,2.1,0,0,1-.56,1.28l-.24,0a1,1,0,0,0-1-.81c-.54,0-1.31.34-1.31.72s.66.9,1.86.9a15.59,15.59,0,0,0,2.25-.2Z"/><path class="cls-5" d="M375.68,409.77h-.2c-1.59,0-2.74-.81-2.78-3.1,0-1.33-.12-4.78-.42-7.66a16.45,16.45,0,0,1,1.35-1.3l.16.08A49,49,0,0,1,374,403c0,1.23,0,1.85,0,2.81,0,1.18.47,1.57,1.53,1.57h.17Z"/><path class="cls-5" d="M387.68,409.77h-.17c-1.31,0-2.26-.3-2.66-1.08h0a2.67,2.67,0,0,1-2,1.08,1.27,1.27,0,0,1-1.3-1h-.06a2.65,2.65,0,0,1-1.94,1,1.19,1.19,0,0,1-1.25-.89,3.88,3.88,0,0,1-2.44.89h-.16c-.56,0-.82-.61-.82-1.17s.26-1.18.82-1.18h.16a3.4,3.4,0,0,0,2.1-.52,6.22,6.22,0,0,0,1-1.25,8.16,8.16,0,0,1,1-.46l.13.11a3.22,3.22,0,0,0-.72,1.53c0,.43.24.59.61.59a1.51,1.51,0,0,0,1.11-.45,5.57,5.57,0,0,0,.85-1.53,9.32,9.32,0,0,1,.95-.47l.09.12a5.87,5.87,0,0,0-.54,1.6c0,.5.21.73.59.73a1.39,1.39,0,0,0,1.18-.59,6.39,6.39,0,0,0,.66-1.66,8.2,8.2,0,0,1,.93-.57l.09.08a5.56,5.56,0,0,0-.33,1.53c0,.82.61,1.21,1.94,1.21h.17Z"/><path class="cls-5" d="M389.75,408.38a2,2,0,0,1-1.93,1.39h-.15c-.54,0-.81-.56-.81-1.17s.26-1.18.82-1.18h.16a1.87,1.87,0,0,0,1-.3c.91-.58.7-2.22,1.85-3.28a2.26,2.26,0,0,1,1.55-.69c2,0,2.61,3,2.61,4.29,0,.16-.42,2.22-2,2.22a5.3,5.3,0,0,1-3.09-1.28Zm3.47-1c.22,0,.36,0,.36-.1-.24-1.31-.94-2.16-1.73-2.16a1.53,1.53,0,0,0-1.37,1A4.21,4.21,0,0,0,393.22,407.42Z"/></g><rect class="cls-6" x="256.67" y="357.18" width="33.33" height="26.45"/><rect class="cls-6" x="190" y="357.18" width="33.33" height="26.45"/><rect class="cls-7" x="173.33" y="369.78" width="133.33" height="73.33"/><g class="cls-4"><path class="cls-5" d="M221.13,398.21c-1.17,0-2.26-.41-2.26-1.66a4.19,4.19,0,0,1,.48-1.81,7.63,7.63,0,0,1,3.43-3.16l0-.62c.37-.38.76-.74,1.16-1.09l.18.06c.06,1.16.07,2.55.07,4.33,0,1,0,1.74.35,2.09a1.73,1.73,0,0,0,1.34.41H226v2.34h-.16c-1.44,0-2.07-.27-2.58-1.32A6,6,0,0,1,221.13,398.21Zm.1-11.54a9.32,9.32,0,0,1,1.34,1.45,5.43,5.43,0,0,1-1.15,1.2c-.44-.48-.9-.94-1.37-1.4Zm1.73,6.74c-1.67.77-2.73,1.6-2.73,2.08s.56.55,1.2.55a5.2,5.2,0,0,0,1.57-.24C223,394.87,223,394.05,223,393.41Zm.75-6.85A9.26,9.26,0,0,1,225,388a5.17,5.17,0,0,1-1.15,1.19c-.44-.48-.9-.94-1.37-1.39Z"/><path class="cls-5" d="M229.06,391.72c1.76,1.52,2.26,2.38,2.26,3.74a5,5,0,0,1-.56,2.12c-.49,1-2,1.52-4.58,1.52H226c-.56,0-.82-.61-.82-1.17s.26-1.17.82-1.17h.17c2.34,0,4-.39,4-.92,0-1-1.57-2.35-3.95-4a5.39,5.39,0,0,1-.23-1.47,1.79,1.79,0,0,1,1.17-1.73,61.63,61.63,0,0,1,6-2.26l.09.08c-.31.65-.65,1.3-1,1.95a48.59,48.59,0,0,0-5.2,1.89v.07c.83.17,1.64.3,2.4.41Z"/><path class="cls-5" d="M235.47,392.89a7.32,7.32,0,0,1,1.43,3.66c0,.55-.05.85-.05,1.07a6.1,6.1,0,0,1-.75,3.11,3.3,3.3,0,0,1-2.66,2,6.72,6.72,0,0,1-3.21-1l.23-.62a4.63,4.63,0,0,0,1.17.14,4.32,4.32,0,0,0,2.85-1.42,4,4,0,0,0,1.28-2c0-.42-.44-1.24-1.57-2.93.33-.7.71-1.38,1.06-2Z"/><path class="cls-5" d="M242.15,399.1H242c-1.59,0-2.74-.81-2.78-3.09,0-1.34-.11-4.78-.42-7.67.44-.46.89-.9,1.35-1.3l.16.08a49.13,49.13,0,0,1,.22,5.26c0,1.23,0,1.85,0,2.81,0,1.17.47,1.57,1.54,1.57h.16Z"/><path class="cls-5" d="M254.15,399.1H254c-1.32,0-2.26-.29-2.66-1.08h-.05a2.65,2.65,0,0,1-2,1.08,1.27,1.27,0,0,1-1.3-1h-.06a2.62,2.62,0,0,1-1.93,1,1.19,1.19,0,0,1-1.26-.89,3.78,3.78,0,0,1-2.44.89h-.16c-.56,0-.82-.61-.82-1.17s.26-1.17.82-1.17h.16a3.38,3.38,0,0,0,2.1-.53,6.12,6.12,0,0,0,1-1.24,7.44,7.44,0,0,1,1-.47l.13.12a3.34,3.34,0,0,0-.72,1.52.54.54,0,0,0,.61.6,1.51,1.51,0,0,0,1.12-.46,5.63,5.63,0,0,0,.84-1.52,7,7,0,0,1,1-.47l.09.12a5.83,5.83,0,0,0-.54,1.59c0,.5.22.74.59.74a1.4,1.4,0,0,0,1.18-.6,6.32,6.32,0,0,0,.66-1.65,8.38,8.38,0,0,1,.94-.58l.08.09a5.51,5.51,0,0,0-.33,1.52c0,.82.61,1.22,2,1.22h.16Zm-6.67-8.68a9.76,9.76,0,0,1,1.41,1.38,4.91,4.91,0,0,1-1.08,1.25c-.47-.45-.95-.87-1.44-1.31Zm1-2.58a10.92,10.92,0,0,1,1.41,1.38,5.13,5.13,0,0,1-1.08,1.26c-.47-.46-.95-.88-1.44-1.32Zm1.57,2.46a10.92,10.92,0,0,1,1.41,1.38,5.13,5.13,0,0,1-1.08,1.26c-.47-.46-.95-.88-1.44-1.32Z"/><path class="cls-5" d="M256.23,397.72a2,2,0,0,1-1.94,1.38h-.15c-.54,0-.81-.56-.81-1.17s.26-1.17.82-1.17h.16a1.88,1.88,0,0,0,1-.31c.92-.57.71-2.21,1.85-3.28a2.26,2.26,0,0,1,1.55-.69c2,0,2.61,3,2.61,4.29,0,.16-.42,2.23-2,2.23a5.36,5.36,0,0,1-3.09-1.28Zm3.46-1c.23,0,.37,0,.37-.11-.25-1.31-.95-2.15-1.74-2.15a1.52,1.52,0,0,0-1.37,1A4.25,4.25,0,0,0,259.69,396.76Z"/><path class="cls-5" d="M203.77,414.22a7.32,7.32,0,0,1,1.43,3.66c0,.55,0,.86,0,1.08a6.06,6.06,0,0,1-.75,3.1c-.74,1.26-1.64,2-2.66,2a6.69,6.69,0,0,1-3.21-1l.22-.62a4.27,4.27,0,0,0,1.17.14,4.33,4.33,0,0,0,2.85-1.41,4.09,4.09,0,0,0,1.29-2c0-.43-.45-1.25-1.57-2.93.33-.71.7-1.39,1-2Z"/><path class="cls-5" d="M207.29,420.58a19.58,19.58,0,0,0,.16-2.83,70,70,0,0,0-.4-7.62,18.37,18.37,0,0,1,1.36-1.48l.2.1c.23,2.53.27,4.9.27,7.17a9.06,9.06,0,0,1-.37,3.47,7.81,7.81,0,0,1-1,1.37Z"/><path class="cls-5" d="M215.91,420.43h-.2a3.69,3.69,0,0,1-1.22-.22,4.71,4.71,0,0,1-.76,2.65,3,3,0,0,1-2.37,1.7,5.81,5.81,0,0,1-3.12-1.16l.26-.59a3.13,3.13,0,0,0,1.06.2,3.67,3.67,0,0,0,2.55-1.08,4.28,4.28,0,0,0,1.37-2.23,10.91,10.91,0,0,1-1.3-2.17,18.93,18.93,0,0,1,.83-1.74h.18c.61,1.36,1.24,2.3,2.55,2.3h.17Z"/><path class="cls-5" d="M216.07,418.09a7.33,7.33,0,0,0,1.49-.14,6.21,6.21,0,0,1-.19-1.55,4.13,4.13,0,0,1,1.35-3.08,2.7,2.7,0,0,1,1.77-.92,1.44,1.44,0,0,1,1.15.75,4.05,4.05,0,0,1,.69,2.36,5.71,5.71,0,0,1-.61,2.43,13.51,13.51,0,0,0,1.7.15h.16v2.34h-.16a10,10,0,0,1-4.07-.72,7.16,7.16,0,0,1-3.28.72h-.16c-.57,0-.82-.6-.82-1.17s.25-1.17.82-1.17Zm2.42-9.2a9.73,9.73,0,0,1,1.33,1.45,5,5,0,0,1-1.15,1.2c-.44-.48-.9-.94-1.37-1.39Zm1.24,8.66c1-.3,1.66-.88,1.66-1.26,0-.57-.58-1.68-1.37-1.68a2.37,2.37,0,0,0-1.86,1.55C218.29,416.78,218.85,417.24,219.73,417.55Zm1.23-8.76a9.22,9.22,0,0,1,1.33,1.45,5.34,5.34,0,0,1-1.14,1.19c-.45-.48-.91-.93-1.38-1.39Z"/><path class="cls-5" d="M226.59,408.47a7,7,0,0,0,1.29,3.13l-1,.8c0,.9.07,2,.07,3.15a7.58,7.58,0,0,1-.43,2.59,5.44,5.44,0,0,1-.59,1.24,2.46,2.46,0,0,1-2.14,1.05h-.17c-.56,0-.82-.6-.82-1.17s.26-1.17.82-1.17h.17a2.31,2.31,0,0,0,1.66-.48c.2-.2.2-.53.2-1.16,0-2.92-.39-5.52-.39-6.11a1.76,1.76,0,0,1,.32-1.09,4.51,4.51,0,0,1,.91-.87Z"/><path class="cls-5" d="M229.51,420.58a19.72,19.72,0,0,0,.15-2.83,70,70,0,0,0-.39-7.62,18.37,18.37,0,0,1,1.36-1.48l.2.1c.23,2.53.26,4.9.26,7.17a9.14,9.14,0,0,1-.36,3.47,7.81,7.81,0,0,1-1,1.37Z"/><path class="cls-5" d="M238.47,422c0,1.32,1.94,2.84,5.32,2.84a20.18,20.18,0,0,0,3.22-.28l.13.22a22.83,22.83,0,0,1-2.76,2.12,9.09,9.09,0,0,1-1.91.21c-2.79,0-5.13-1.5-5.13-4.24,0-1.87,1.14-3.6,3.31-5.1-1-.92-1.45-1.67-2-1.67a2,2,0,0,0-.56.08l-.11-.12.68-1.92a17.78,17.78,0,0,1,3.84-.53,9.62,9.62,0,0,1,3.46.59c-.09.57-.19,1.15-.34,1.78-.57.56-1.2,1.14-1.84,1.7v0a6.9,6.9,0,0,0,2.95.39h.17v2.34h-.17a6.5,6.5,0,0,1-4.6-1.45C240,419.94,238.47,421.15,238.47,422Zm6-6.28v-.06a8.73,8.73,0,0,0-2.12-.24,10.26,10.26,0,0,0-2,.17v.06c.61.51,1.25,1.06,1.92,1.56A20.3,20.3,0,0,0,244.48,415.71Z"/><path class="cls-5" d="M252.35,420.43h-.15a2.76,2.76,0,0,1-2.68-1.27h0a2.94,2.94,0,0,1-2.45,1.27h-.16c-.56,0-.82-.6-.82-1.17s.26-1.17.82-1.17H247a2.75,2.75,0,0,0,1.6-.4c.64-.4.7-1.15,1-1.69.27-.18.57-.39.93-.6l.09.07a4.69,4.69,0,0,0-.23,1.07,1.26,1.26,0,0,0,.58,1.21,2.35,2.35,0,0,0,1.25.34h.14Zm-3.21-8.9a12.68,12.68,0,0,1,1.68,1.37,4.15,4.15,0,0,1-1.06,1.44,20.77,20.77,0,0,0-1.7-1.3Z"/><path class="cls-5" d="M261.36,413.47a2.58,2.58,0,0,1,2.52,2.83,4.11,4.11,0,0,1-.89,2.52c-.92,1-2.41,1.61-5,1.61-1.4,0-2.49-.29-3-1.18h-.06a3,3,0,0,1-2.42,1.18h-.15c-.56,0-.82-.6-.82-1.17s.26-1.17.82-1.17h.17a2,2,0,0,0,1.8-.7,7.54,7.54,0,0,0,.56-1.4c.28-.21.57-.43.88-.64l.08.06a5.34,5.34,0,0,0-.16,1.06,1.23,1.23,0,0,0,.66,1.18C257.84,415.16,259.64,413.47,261.36,413.47Zm-2.46,4.62a6.43,6.43,0,0,0,3.82-1,1.77,1.77,0,0,0-1.7-1.57c-1.25,0-2.55.91-3.75,2.46A11.77,11.77,0,0,0,258.9,418.09Z"/><path class="cls-5" d="M277.57,417c-1.5,0-2.61-.62-2.61-2.27s1.24-3.05,2.52-3.05c1.72,0,2.55,3,2.56,5.24a2.75,2.75,0,0,1-.38,1.41,1.41,1.41,0,0,1,1,1.3,5.07,5.07,0,0,1-.67,2.52,7.54,7.54,0,0,1-5.32,2.44c-3.1,0-4.19-2.42-4.19-4.5a10.07,10.07,0,0,1,.75-3.72l.71.27a6.88,6.88,0,0,0-.4,2.15,3.1,3.1,0,0,0,3.39,3.38,7.57,7.57,0,0,0,4.6-1.74c0-.14-1.68-.48-4.17-.48l-.09-.18a15.68,15.68,0,0,1,.81-1.58c1.87-.17,2.93-.44,2.93-.88a.92.92,0,0,0-.14-.47A4.59,4.59,0,0,1,277.57,417Zm-4.15,8.41a11.14,11.14,0,0,1,1.62,1.46,9.24,9.24,0,0,1-1.11,1.42,18.17,18.17,0,0,0-1.66-1.44Zm2.77-.19a12.28,12.28,0,0,1,1.62,1.46,8.79,8.79,0,0,1-1.12,1.42,19.52,19.52,0,0,0-1.65-1.44ZM276.6,408a12,12,0,0,1,1.67,1.37,4.08,4.08,0,0,1-1,1.45,20.25,20.25,0,0,0-1.7-1.31Zm.37,5.44c-.63,0-1.08.41-1.08.72s.65,1,2.85,1C278.36,414.2,277.81,413.45,277,413.45Z"/></g><rect class="cls-8" x="323.33" y="283.74" width="33.33" height="26.45"/><rect class="cls-8" x="256.67" y="283.74" width="33.33" height="26.45"/><rect class="cls-9" x="240" y="296.33" width="133.33" height="73.33"/><g class="cls-4"><path class="cls-5" d="M270.93,335.43c-1.18,0-2.27-.41-2.27-1.66a4.33,4.33,0,0,1,.48-1.81,7.71,7.71,0,0,1,3.44-3.16l0-.62c.38-.38.76-.74,1.16-1.09l.19.06c.06,1.16.07,2.55.07,4.33,0,1,0,1.74.35,2.09a1.69,1.69,0,0,0,1.34.41h.16v2.34h-.16c-1.44,0-2.08-.27-2.58-1.32A6.09,6.09,0,0,1,270.93,335.43Zm.1-11.54a9.32,9.32,0,0,1,1.34,1.45,5.22,5.22,0,0,1-1.15,1.2c-.45-.48-.9-.94-1.37-1.4Zm1.72,6.74c-1.66.77-2.73,1.6-2.73,2.08s.57.55,1.21.55a5.25,5.25,0,0,0,1.57-.24C272.8,332.09,272.78,331.27,272.75,330.63Zm.75-6.85a9.36,9.36,0,0,1,1.34,1.46,5.39,5.39,0,0,1-1.15,1.19c-.44-.48-.9-.93-1.37-1.39Z"/><path class="cls-5" d="M281.3,336.32h-.16a2.77,2.77,0,0,1-2.68-1.27h0a3,3,0,0,1-2.45,1.27h-.17c-.56,0-.82-.61-.82-1.17s.26-1.17.82-1.17H276a2.74,2.74,0,0,0,1.59-.4c.64-.4.7-1.15,1-1.69.27-.18.57-.39.94-.61l.08.07a4.69,4.69,0,0,0-.22,1.08,1.29,1.29,0,0,0,.57,1.21,2.36,2.36,0,0,0,1.26.34h.14ZM277,338.51a9.83,9.83,0,0,1,1.34,1.46,5.39,5.39,0,0,1-1.15,1.19c-.45-.48-.9-.93-1.37-1.39Zm2.48-.1a9.73,9.73,0,0,1,1.33,1.45,5,5,0,0,1-1.15,1.2c-.44-.48-.9-.94-1.37-1.4Z"/><path class="cls-5" d="M284.31,324.36a6.87,6.87,0,0,0,1.29,3.13l-1.05.79c.05.91.07,2,.07,3.16a7.58,7.58,0,0,1-.43,2.59,5.44,5.44,0,0,1-.59,1.24,2.43,2.43,0,0,1-2.14,1.05h-.16c-.57,0-.82-.61-.82-1.17s.25-1.17.82-1.17h.16a2.31,2.31,0,0,0,1.66-.48c.2-.2.2-.53.2-1.16,0-2.92-.38-5.52-.38-6.11a1.74,1.74,0,0,1,.31-1.09,5.24,5.24,0,0,1,.92-.88Z"/><path class="cls-5" d="M290.38,336.32h-.2c-1.59,0-2.74-.81-2.78-3.09,0-1.34-.12-4.78-.42-7.66a16.59,16.59,0,0,1,1.35-1.31l.16.09a48.92,48.92,0,0,1,.21,5.25c0,1.23,0,1.85,0,2.81,0,1.17.47,1.57,1.53,1.57h.17Z"/><path class="cls-5" d="M293.09,335.46a3.91,3.91,0,0,1-2.55.86h-.16c-.56,0-.82-.61-.82-1.17s.26-1.17.82-1.17h.16a5.42,5.42,0,0,0,2.48-.47c-.11-1.85-.19-3.69-.27-5.54,0-.55-.17-1.27-.17-1.74a1.74,1.74,0,0,1,.32-1.09,4.81,4.81,0,0,1,.91-.88l.14.1a7,7,0,0,0,1.29,3.13l-1.06.81c0,2.45.05,3.59.12,4.5a3.73,3.73,0,0,1,1.34-.29c1.18,0,2.25.94,2.25,2.7,0,1-.67,2.77-2.37,2.77-1.06,0-2-.85-2.4-2.52Zm3.22.68a.67.67,0,0,0,.5-.19,1.62,1.62,0,0,0-1.59-1.55,2.5,2.5,0,0,0-.82.15A2.13,2.13,0,0,0,296.31,336.14Z"/><path class="cls-5" d="M299.85,336.46a21.13,21.13,0,0,0,.15-2.82,70,70,0,0,0-.4-7.62c.47-.56.92-1,1.36-1.49l.2.11c.23,2.53.27,4.9.27,7.17a9.37,9.37,0,0,1-.36,3.47,8.48,8.48,0,0,1-1,1.37Z"/><path class="cls-5" d="M310.44,335.43c-1.17,0-2.26-.41-2.26-1.66a4.19,4.19,0,0,1,.48-1.81,7.63,7.63,0,0,1,3.43-3.16l0-.62c.37-.38.76-.74,1.16-1.09l.19.06c0,1.16.07,2.55.07,4.33,0,1,0,1.74.35,2.09a1.66,1.66,0,0,0,1.33.41h.17v2.34h-.17c-1.44,0-2.07-.27-2.57-1.32A6.1,6.1,0,0,1,310.44,335.43Zm.11-11.54a9.22,9.22,0,0,1,1.33,1.45,5,5,0,0,1-1.15,1.2c-.44-.48-.9-.94-1.37-1.4Zm1.72,6.74c-1.67.77-2.73,1.6-2.73,2.08s.56.55,1.21.55a5.3,5.3,0,0,0,1.57-.24C312.32,332.09,312.29,331.27,312.27,330.63Zm.75-6.85a9.26,9.26,0,0,1,1.33,1.46,5.34,5.34,0,0,1-1.14,1.19c-.45-.48-.91-.93-1.37-1.39Z"/><path class="cls-5" d="M318.3,329.33a7.53,7.53,0,0,1,1.19,3.27,4.89,4.89,0,0,1-.48,2.13,2.48,2.48,0,0,1-1.15,1.19,5.69,5.69,0,0,1-2.37.4h-.16c-.56,0-.82-.61-.82-1.17s.26-1.17.82-1.17h.26c1.34,0,2.55-.27,2.55-.46a10.88,10.88,0,0,0-1.15-2.39,18.17,18.17,0,0,1,1.2-1.83Zm-.76,9a13.52,13.52,0,0,1,1.68,1.37,4.1,4.1,0,0,1-1.06,1.45,17.09,17.09,0,0,0-1.7-1.3Z"/><path class="cls-5" d="M324.74,336.32h-.2c-1.6,0-2.74-.81-2.78-3.09,0-1.34-.12-4.78-.42-7.66a16.59,16.59,0,0,1,1.35-1.31l.16.09a48.92,48.92,0,0,1,.21,5.25c0,1.23,0,1.85,0,2.81,0,1.17.47,1.57,1.53,1.57h.17Z"/><path class="cls-5" d="M325.37,334c2.53,0,4.2-.06,4.2-.75a.38.38,0,0,0,0-.16c-.41,0-.84.05-1.28.05-2,0-3.08-.7-3.08-2.23a3.39,3.39,0,0,1,.93-2.37,2.62,2.62,0,0,1,1.86-1c1.59,0,2.66,2.87,2.66,5.57,0,3.05-1.9,3.23-5.72,3.23h-.16c-.56,0-.82-.61-.82-1.17s.26-1.17.82-1.17Zm.66-9.73a9.26,9.26,0,0,1,1.33,1.46,5.17,5.17,0,0,1-1.15,1.19c-.44-.48-.9-.94-1.37-1.39Zm1.4,5.11c-.79,0-1.26.44-1.26.79,0,.65,1.23,1.11,3.07,1.16C328.8,330.08,328.21,329.36,327.43,329.36Zm1.07-5.21a9.83,9.83,0,0,1,1.34,1.45,5.67,5.67,0,0,1-1.15,1.2c-.45-.48-.91-.94-1.37-1.4Z"/><path class="cls-5" d="M337.25,336.32h-.2a3.63,3.63,0,0,1-1.21-.22,4.71,4.71,0,0,1-.77,2.65,3,3,0,0,1-2.36,1.7,5.78,5.78,0,0,1-3.12-1.16l.26-.59a3.3,3.3,0,0,0,1,.2,3.67,3.67,0,0,0,2.56-1.08,4.27,4.27,0,0,0,1.37-2.24,10.82,10.82,0,0,1-1.3-2.16,17.76,17.76,0,0,1,.83-1.74h.17c.61,1.36,1.25,2.3,2.56,2.3h.16Z"/><path class="cls-5" d="M340.27,324.36a6.94,6.94,0,0,0,1.28,3.13l-1,.79c.05.91.07,2,.07,3.16a7.58,7.58,0,0,1-.43,2.59,5.44,5.44,0,0,1-.59,1.24,2.46,2.46,0,0,1-2.14,1.05h-.17c-.56,0-.82-.61-.82-1.17s.26-1.17.82-1.17h.17a2.31,2.31,0,0,0,1.66-.48c.2-.2.2-.53.2-1.16,0-2.92-.39-5.52-.39-6.11a1.74,1.74,0,0,1,.32-1.09,4.81,4.81,0,0,1,.91-.88Z"/><path class="cls-5" d="M343.18,336.46a19.44,19.44,0,0,0,.16-2.82,70,70,0,0,0-.4-7.62c.47-.56.91-1,1.36-1.49l.2.11c.23,2.53.27,4.9.27,7.17a9.06,9.06,0,0,1-.37,3.47,7.81,7.81,0,0,1-1,1.37Z"/></g><rect class="cls-8" x="123.33" y="357.18" width="33.33" height="26.45"/><rect class="cls-8" x="56.67" y="357.18" width="33.33" height="26.45"/><rect class="cls-9" x="40" y="369.78" width="133.33" height="73.33"/><g class="cls-4"><path class="cls-5" d="M71,402.65a8.3,8.3,0,0,1,1.24,3.29,5.49,5.49,0,0,1-1,2.89,14.32,14.32,0,0,1-6.36,1.44,7.49,7.49,0,0,1-4.13-1,3.64,3.64,0,0,1-1.69-3.25,7.44,7.44,0,0,1,.71-3.1l.71.24a5,5,0,0,0-.27,1.41c0,1.78,1.49,3.23,5.23,3.23a17.24,17.24,0,0,0,5.43-.92,18.9,18.9,0,0,0-1.16-2.42,18.08,18.08,0,0,1,1.13-1.82Zm-7.09-3.1a21.91,21.91,0,0,1,1.65,1.51c-.35.5-.74,1-1.16,1.47a21.35,21.35,0,0,0-1.7-1.52Zm2.84-.15c.58.49,1.13,1,1.65,1.51a17.25,17.25,0,0,1-1.16,1.46c-.56-.55-1.14-1.05-1.7-1.51Z"/><path class="cls-5" d="M77.52,409.77h-.2c-1.59,0-2.74-.81-2.77-3.1,0-1.33-.12-4.78-.43-7.66.44-.47.9-.9,1.35-1.3l.17.08a51.77,51.77,0,0,1,.21,5.25c0,1.23,0,1.85,0,2.81,0,1.18.47,1.57,1.54,1.57h.16Z"/><path class="cls-5" d="M79.6,408.38a2,2,0,0,1-1.94,1.39h-.15c-.54,0-.81-.56-.81-1.17s.26-1.18.82-1.18h.17a1.86,1.86,0,0,0,1-.3c.92-.58.71-2.22,1.86-3.28a2.24,2.24,0,0,1,1.54-.69c2,0,2.62,3,2.62,4.29,0,.16-.43,2.22-2,2.22a5.35,5.35,0,0,1-3.1-1.28Zm3.47-1c.22,0,.36,0,.36-.1-.25-1.31-1-2.16-1.74-2.16a1.53,1.53,0,0,0-1.37,1A4.24,4.24,0,0,0,83.07,407.42Z"/><path class="cls-5" d="M94.66,409.77h-.17a2.38,2.38,0,0,1-2.53-2h0a2.13,2.13,0,0,1-.65,1.14,4,4,0,0,1-2.52.83c-1.23,0-2.07-.73-2.07-2.73,0-.24,0-.58,0-1l.76-.07A1.35,1.35,0,0,0,89,407.42a4.26,4.26,0,0,0,1.72-.41c.44-.18.74-.41.74-.77a18.47,18.47,0,0,0-1-3.91,14.6,14.6,0,0,1,1.08-1.61l.2.06c.29,1.07.6,2.41,1,4.7.23,1.33.85,1.94,1.79,1.94h.17Z"/><path class="cls-5" d="M100.75,405.83a10.17,10.17,0,0,0-3-.62,1.77,1.77,0,0,0-1,.21l-.54,1.23H96l-.76-1.49a2.44,2.44,0,0,1,2.55-2.1,10.24,10.24,0,0,1,3.25.81,7.58,7.58,0,0,0,2.89.55h.87l0,.1a15.68,15.68,0,0,1-1,1.63,2.69,2.69,0,0,0-2,.7c-2.07,1.87-3.62,2.92-7,2.92h-.16c-.57,0-.82-.61-.82-1.17s.25-1.18.82-1.18h.16a9.92,9.92,0,0,0,5.93-1.53ZM98.56,399a12,12,0,0,1,1.67,1.38,4.13,4.13,0,0,1-1,1.44,20.26,20.26,0,0,0-1.7-1.3Zm4.4,7.46.06.06c.08.88,1,.93,2,.93h.17v2.35h-.17a3.32,3.32,0,0,1-2.14-.48,2.2,2.2,0,0,1-.62-1.66c0-.23,0-.45,0-.69Z"/><path class="cls-5" d="M108.24,397.8a6.79,6.79,0,0,0,1.29,3.13l-1,.8c0,.9.07,2,.07,3.15a7.58,7.58,0,0,1-.43,2.59,5.06,5.06,0,0,1-.59,1.24,2.45,2.45,0,0,1-2.14,1.06h-.16c-.57,0-.82-.61-.82-1.17s.25-1.18.82-1.18h.16a2.31,2.31,0,0,0,1.66-.48c.2-.2.2-.52.2-1.16,0-2.91-.38-5.52-.38-6.1a1.72,1.72,0,0,1,.31-1.09,4.9,4.9,0,0,1,.92-.88Z"/><path class="cls-5" d="M111.16,409.91a21.19,21.19,0,0,0,.15-2.83,69.67,69.67,0,0,0-.4-7.61,17,17,0,0,1,1.36-1.49l.2.1c.23,2.54.27,4.9.27,7.18a9,9,0,0,1-.37,3.46,7.86,7.86,0,0,1-1,1.38Z"/><path class="cls-5" d="M121.75,408.88c-1.17,0-2.26-.41-2.26-1.67a4.11,4.11,0,0,1,.48-1.8,7.7,7.7,0,0,1,3.43-3.17l0-.62c.37-.37.76-.74,1.16-1.09l.18.06c.06,1.16.07,2.56.07,4.34,0,1,0,1.73.36,2.08a1.66,1.66,0,0,0,1.33.41h.17v2.35h-.17c-1.44,0-2.07-.27-2.58-1.33A6.06,6.06,0,0,1,121.75,408.88Zm.1-11.55a9.36,9.36,0,0,1,1.34,1.46A5.17,5.17,0,0,1,122,400c-.44-.48-.9-.94-1.37-1.39Zm1.73,6.74c-1.67.78-2.73,1.61-2.73,2.09s.56.55,1.2.55a4.91,4.91,0,0,0,1.57-.25C123.62,405.54,123.6,404.72,123.58,404.07Zm.75-6.84a9.22,9.22,0,0,1,1.33,1.45,5.17,5.17,0,0,1-1.14,1.2c-.45-.48-.91-.94-1.38-1.4Z"/><path class="cls-5" d="M133.1,404.52a3.19,3.19,0,0,0-4,.06,2.51,2.51,0,0,0,.81,1.27,2.33,2.33,0,0,0,1.46.68,12.76,12.76,0,0,0,3.31-.88l.17.18c-.29.7-.59,1.41-.94,2.11a39.28,39.28,0,0,1-4,1.21,10.15,10.15,0,0,1-3.09.62h-.16c-.57,0-.82-.61-.82-1.17s.25-1.18.82-1.18h.16a9.21,9.21,0,0,0,1.62-.1v0a2.33,2.33,0,0,1-.83-1.82,3.55,3.55,0,0,1,.68-1.95,3.06,3.06,0,0,1,2.49-1.52c1.2,0,2,.77,2.72,2.11Z"/><path class="cls-5" d="M139.71,409.77h-.19c-1.6,0-2.75-.81-2.78-3.1,0-1.33-.12-4.78-.42-7.66a18.12,18.12,0,0,1,1.34-1.3l.17.08A49,49,0,0,1,138,403c0,1.23,0,1.85,0,2.81,0,1.18.46,1.57,1.53,1.57h.16Z"/><path class="cls-5" d="M145.81,405.83a10.17,10.17,0,0,0-3-.62,1.77,1.77,0,0,0-1,.21l-.54,1.23h-.23l-.77-1.49a2.45,2.45,0,0,1,2.56-2.1,10.13,10.13,0,0,1,3.24.81,7.67,7.67,0,0,0,2.9.55h.87l0,.1a15.68,15.68,0,0,1-1,1.63,2.66,2.66,0,0,0-2,.7c-2.07,1.87-3.62,2.92-7,2.92h-.17c-.56,0-.82-.61-.82-1.17s.26-1.18.82-1.18h.17a9.92,9.92,0,0,0,5.93-1.53ZM144,411a12,12,0,0,1,1.67,1.38,4.13,4.13,0,0,1-1,1.44,20.26,20.26,0,0,0-1.7-1.3Zm4.05-4.61.06.06c.08.88,1,.93,2,.93h.16v2.35h-.16a3.32,3.32,0,0,1-2.14-.48,2.21,2.21,0,0,1-.63-1.66,5.39,5.39,0,0,1,0-.69Z"/><path class="cls-5" d="M153.26,402.77a7.48,7.48,0,0,1,1.18,3.27,4.75,4.75,0,0,1-.48,2.13,2.55,2.55,0,0,1-1.14,1.2,5.69,5.69,0,0,1-2.37.4h-.17c-.56,0-.82-.61-.82-1.17s.26-1.18.82-1.18h.26a4.81,4.81,0,0,0,2.56-.45,10.67,10.67,0,0,0-1.15-2.39,18.81,18.81,0,0,1,1.19-1.83ZM152,399.13a12.68,12.68,0,0,1,1.68,1.37,4.15,4.15,0,0,1-1.06,1.44,18.75,18.75,0,0,0-1.7-1.3Z"/></g><rect class="cls-2" x="190" y="283.74" width="33.33" height="26.45"/><rect class="cls-2" x="123.33" y="283.74" width="33.33" height="26.45"/><rect class="cls-3" x="106.67" y="296.33" width="133.33" height="73.33"/><g class="cls-4"><path class="cls-5" d="M164.93,323.31v2.35h-.65a7.48,7.48,0,0,1-.44,1.77,6.92,6.92,0,0,1-5.54,2.95c-2.71,0-4.49-1.74-4.49-4.79a10.19,10.19,0,0,1,.69-3.55l.73.25a8.71,8.71,0,0,0-.33,2.11,3.54,3.54,0,0,0,1,2.67,4,4,0,0,0,2.71.89,6.28,6.28,0,0,0,3.17-1,6.18,6.18,0,0,0,1.56-1.23l-.07-.11h-.9c-2.24,0-3.73-.72-3.73-2.83a3.53,3.53,0,0,1,.88-2.35,2.53,2.53,0,0,1,1.89-1.05c1.31,0,2.21,1.42,2.68,3.88Zm-5.74-7.54a9.76,9.76,0,0,1,1.41,1.38,4.91,4.91,0,0,1-1.08,1.25c-.47-.45-1-.88-1.44-1.31Zm1.72,5.59a1.18,1.18,0,0,0-1.24.86c0,.68,1.25,1.13,2.79,1.13a2.25,2.25,0,0,0,.46,0C162.48,322.14,161.81,321.36,160.91,321.36Zm.85-5.71a9.66,9.66,0,0,1,1.4,1.38,4.93,4.93,0,0,1-1.08,1.26c-.46-.46-.94-.88-1.44-1.32Z"/><path class="cls-5" d="M170.42,325.66h-.16a2.76,2.76,0,0,1-2.68-1.28h0a3,3,0,0,1-2.45,1.28h-.17c-.56,0-.82-.61-.82-1.18s.26-1.17.82-1.17h.17a2.74,2.74,0,0,0,1.59-.4c.64-.39.7-1.14,1-1.68.27-.19.58-.4.94-.61l.08.07a4.5,4.5,0,0,0-.22,1.08A1.26,1.26,0,0,0,169,323a2.36,2.36,0,0,0,1.26.34h.14Zm-4.26,2.19a9.32,9.32,0,0,1,1.34,1.45,5.43,5.43,0,0,1-1.15,1.2c-.45-.48-.9-.94-1.37-1.4Zm2.48-.11A9.31,9.31,0,0,1,170,329.2a5.17,5.17,0,0,1-1.15,1.19c-.44-.48-.9-.94-1.37-1.39Z"/><path class="cls-5" d="M170.58,323.31a6.68,6.68,0,0,0,1.49-.14,6.21,6.21,0,0,1-.19-1.55,4.15,4.15,0,0,1,1.35-3.08,2.7,2.7,0,0,1,1.77-.92,1.44,1.44,0,0,1,1.15.75,4.05,4.05,0,0,1,.69,2.36,5.71,5.71,0,0,1-.61,2.43,13.51,13.51,0,0,0,1.7.15h.16v2.35h-.16a10,10,0,0,1-4.07-.73,7.15,7.15,0,0,1-3.28.73h-.16c-.57,0-.82-.61-.82-1.18s.25-1.17.82-1.17Zm2.41-9.2a9.36,9.36,0,0,1,1.34,1.46,5.17,5.17,0,0,1-1.15,1.19c-.44-.48-.9-.94-1.37-1.39Zm1.25,8.66c1-.3,1.66-.88,1.66-1.26,0-.56-.59-1.68-1.37-1.68a2.36,2.36,0,0,0-1.86,1.55C172.8,322,173.36,322.46,174.24,322.77Zm1.23-8.76a9.22,9.22,0,0,1,1.33,1.45,5,5,0,0,1-1.15,1.2c-.44-.48-.9-.94-1.37-1.4Z"/><path class="cls-5" d="M184.19,321.72a10.17,10.17,0,0,0-3-.62,1.74,1.74,0,0,0-1,.21l-.54,1.23h-.24l-.76-1.49a2.45,2.45,0,0,1,2.56-2.1,10.26,10.26,0,0,1,3.24.81,7.63,7.63,0,0,0,2.9.55h.86l0,.1a14.31,14.31,0,0,1-1,1.63,2.65,2.65,0,0,0-2,.7c-2.07,1.87-3.62,2.92-7,2.92h-.17c-.56,0-.82-.61-.82-1.18s.26-1.17.82-1.17h.17a9.94,9.94,0,0,0,5.93-1.53Zm2.21.6.06.06c.08.87,1,.93,2,.93h.16v2.35h-.16a3.35,3.35,0,0,1-2.15-.48,2.24,2.24,0,0,1-.62-1.66,5.39,5.39,0,0,1,0-.69Z"/><path class="cls-5" d="M191.64,318.66a7.48,7.48,0,0,1,1.18,3.27,4.89,4.89,0,0,1-.48,2.13,2.52,2.52,0,0,1-1.15,1.2,5.84,5.84,0,0,1-2.36.4h-.17c-.56,0-.82-.61-.82-1.18s.26-1.17.82-1.17h.26a4.81,4.81,0,0,0,2.56-.45,10.68,10.68,0,0,0-1.15-2.4,16.92,16.92,0,0,1,1.19-1.82Zm-2.15-3.23a9.32,9.32,0,0,1,1.34,1.45,5.17,5.17,0,0,1-1.15,1.19c-.44-.48-.9-.93-1.37-1.39Zm2.48-.11a9.22,9.22,0,0,1,1.33,1.45,5,5,0,0,1-1.15,1.2c-.44-.48-.9-.94-1.37-1.4Z"/><path class="cls-5" d="M132.52,346.1c-1.17,0-2.26-.41-2.26-1.66a4.15,4.15,0,0,1,.48-1.81,7.63,7.63,0,0,1,3.43-3.16l0-.62c.37-.38.76-.74,1.16-1.09l.18.05c.06,1.16.07,2.56.07,4.34,0,1,0,1.73.35,2.09a1.73,1.73,0,0,0,1.34.41h.16V347h-.16c-1.44,0-2.07-.27-2.58-1.32A6,6,0,0,1,132.52,346.1Zm.1-11.54A9.32,9.32,0,0,1,134,336a5.43,5.43,0,0,1-1.15,1.2c-.44-.49-.9-.94-1.37-1.4Zm1.73,6.73c-1.67.78-2.73,1.61-2.73,2.09s.56.55,1.2.55a5.2,5.2,0,0,0,1.57-.24C134.39,342.76,134.37,341.94,134.35,341.29Zm.75-6.84a9.22,9.22,0,0,1,1.33,1.45,5,5,0,0,1-1.15,1.2c-.44-.48-.9-.94-1.37-1.39Z"/><path class="cls-5" d="M142.89,347h-.15a2.77,2.77,0,0,1-2.69-1.28h0a3,3,0,0,1-2.45,1.28h-.17c-.56,0-.82-.61-.82-1.17s.26-1.17.82-1.17h.17a2.79,2.79,0,0,0,1.59-.4c.65-.4.71-1.15,1-1.69.27-.19.58-.4.94-.61l.08.07a4.59,4.59,0,0,0-.22,1.08,1.29,1.29,0,0,0,.57,1.21,2.39,2.39,0,0,0,1.26.34h.14Zm-4.25,2.19a9.73,9.73,0,0,1,1.33,1.45,5,5,0,0,1-1.15,1.2c-.44-.48-.9-.94-1.37-1.39Zm2.47-.1a9.22,9.22,0,0,1,1.33,1.45,5.34,5.34,0,0,1-1.14,1.19c-.45-.48-.91-.93-1.38-1.39Z"/><path class="cls-5" d="M147.93,347h-.17a2.5,2.5,0,0,1-2.45-1.31h0a2.48,2.48,0,0,1-2.22,1.31h-.16c-.56,0-.82-.61-.82-1.17s.26-1.17.82-1.17h.26c1.19,0,1.72-.58,1.72-1.57,0-2.11-.13-4.74-.35-6.94a14.67,14.67,0,0,1,1.32-1.22l.15.07a48.69,48.69,0,0,1,.2,5.25c0,1.23,0,2.27,0,2.81,0,1.12.29,1.6,1.52,1.6h.24Z"/><path class="cls-5" d="M154,343.05a10.18,10.18,0,0,0-3-.62,1.78,1.78,0,0,0-1,.21l-.54,1.23h-.23l-.76-1.49a2.43,2.43,0,0,1,2.55-2.09,10,10,0,0,1,3.25.81,7.62,7.62,0,0,0,2.89.55h.87l0,.09a14.09,14.09,0,0,1-1,1.63,2.65,2.65,0,0,0-2,.7c-2.08,1.88-3.63,2.92-7,2.92h-.16c-.56,0-.82-.61-.82-1.17s.26-1.17.82-1.17h.16a9.9,9.9,0,0,0,5.93-1.54Zm2.22.6.06.06c.08.88,1,.94,2,.94h.17V347h-.17a3.25,3.25,0,0,1-2.14-.48,2.18,2.18,0,0,1-.62-1.65c0-.24,0-.46,0-.69Z"/><path class="cls-5" d="M161.21,346.12a3.86,3.86,0,0,1-2.55.87h-.16c-.56,0-.82-.61-.82-1.17s.26-1.17.82-1.17h.16a5.42,5.42,0,0,0,2.48-.47c-.11-1.85-.19-3.69-.27-5.55,0-.55-.17-1.26-.17-1.73a1.74,1.74,0,0,1,.32-1.09,4.81,4.81,0,0,1,.91-.88l.14.1a6.92,6.92,0,0,0,1.29,3.12l-1.06.81c0,2.45,0,3.6.12,4.5a3.92,3.92,0,0,1,1.34-.28c1.18,0,2.25.94,2.25,2.7,0,1-.67,2.76-2.37,2.76-1.06,0-2-.84-2.4-2.52Zm3.22.68a.66.66,0,0,0,.5-.18,1.62,1.62,0,0,0-1.59-1.55,2.5,2.5,0,0,0-.82.15A2.12,2.12,0,0,0,164.43,346.8Z"/><path class="cls-5" d="M168,347.13a21.13,21.13,0,0,0,.15-2.82,70,70,0,0,0-.4-7.62c.47-.56.92-1.06,1.36-1.49l.2.11c.23,2.53.27,4.9.27,7.17a9.37,9.37,0,0,1-.36,3.47,9.57,9.57,0,0,1-1,1.37Z"/><path class="cls-5" d="M178.56,346.1c-1.17,0-2.26-.41-2.26-1.66a4.15,4.15,0,0,1,.48-1.81,7.63,7.63,0,0,1,3.43-3.16l0-.62c.37-.38.76-.74,1.16-1.09l.19.05c.05,1.16.07,2.56.07,4.34,0,1,0,1.73.35,2.09a1.69,1.69,0,0,0,1.33.41h.17V347h-.17c-1.44,0-2.07-.27-2.57-1.32A6.1,6.1,0,0,1,178.56,346.1Zm.11-11.54A9.22,9.22,0,0,1,180,336a5.21,5.21,0,0,1-1.15,1.2c-.44-.49-.9-.94-1.37-1.4Zm1.72,6.73c-1.66.78-2.73,1.61-2.73,2.09s.56.55,1.21.55a5.3,5.3,0,0,0,1.57-.24C180.44,342.76,180.41,341.94,180.39,341.29Zm.75-6.84a9.83,9.83,0,0,1,1.34,1.45,5.44,5.44,0,0,1-1.15,1.2c-.45-.48-.91-.94-1.37-1.39Z"/><path class="cls-5" d="M188.93,347h-.15a2.75,2.75,0,0,1-2.68-1.28h0a3,3,0,0,1-2.45,1.28h-.16c-.56,0-.82-.61-.82-1.17s.26-1.17.82-1.17h.16a2.83,2.83,0,0,0,1.6-.4c.64-.4.7-1.15,1-1.69.27-.19.57-.4.93-.61l.09.07a4.74,4.74,0,0,0-.23,1.08,1.27,1.27,0,0,0,.58,1.21,2.35,2.35,0,0,0,1.25.34h.14Zm-4.25,2.19a9.22,9.22,0,0,1,1.33,1.45,5.17,5.17,0,0,1-1.14,1.2c-.45-.48-.91-.94-1.38-1.39Zm2.47-.1a9.32,9.32,0,0,1,1.34,1.45,5.39,5.39,0,0,1-1.15,1.19c-.45-.48-.9-.93-1.37-1.39Z"/><path class="cls-5" d="M195.83,346c-.28.93-.71,1.44-1.38,1.44a5,5,0,0,1-3.21-1.79h-.05A2.13,2.13,0,0,1,189.1,347h-.17c-.56,0-.82-.61-.82-1.17s.26-1.17.82-1.17h.17c1.6,0,1.8-.66,2.19-1.86a3.49,3.49,0,0,1,.89-1.51,2,2,0,0,1,1.35-.61c1.37,0,1.89,1.56,2.61,3.06a1.74,1.74,0,0,0,1.72.92H198V347h-.17a2.21,2.21,0,0,1-2-1Zm-1-.91c.18,0,.27-.09.27-.25,0-.59-.82-2.25-1.84-2.25a1.35,1.35,0,0,0-1.17.76A3.69,3.69,0,0,0,194.79,345.12Z"/><path class="cls-5" d="M203.51,347h-.15a2.78,2.78,0,0,1-2.69-1.28h0a3,3,0,0,1-2.45,1.28H198c-.57,0-.82-.61-.82-1.17s.25-1.17.82-1.17h.16a2.77,2.77,0,0,0,1.59-.4c.65-.4.71-1.15,1-1.69.27-.19.58-.4.94-.61l.08.07a4.59,4.59,0,0,0-.22,1.08,1.27,1.27,0,0,0,.58,1.21,2.35,2.35,0,0,0,1.25.34h.14Zm-3.21-8.91a12.74,12.74,0,0,1,1.68,1.38,4.15,4.15,0,0,1-1.06,1.44,18.34,18.34,0,0,0-1.7-1.3Z"/><path class="cls-5" d="M209,347h-.15a2.76,2.76,0,0,1-2.68-1.28h0a3,3,0,0,1-2.45,1.28h-.16c-.56,0-.82-.61-.82-1.17s.26-1.17.82-1.17h.16a2.83,2.83,0,0,0,1.6-.4c.64-.4.7-1.15,1-1.69a11.08,11.08,0,0,1,.94-.61l.08.07a4.59,4.59,0,0,0-.22,1.08,1.27,1.27,0,0,0,.57,1.21,2.35,2.35,0,0,0,1.25.34H209Zm-4.2-8.58a8.84,8.84,0,0,1,1.33,1.46,5.34,5.34,0,0,1-1.14,1.19c-.45-.48-.91-.94-1.38-1.39Zm2.47-.1a9.83,9.83,0,0,1,1.34,1.45,5.67,5.67,0,0,1-1.15,1.2c-.45-.49-.9-.94-1.37-1.4Z"/><path class="cls-5" d="M212,335a6.8,6.8,0,0,0,1.29,3.12l-1.05.8c.05.9.07,2,.07,3.15a7.54,7.54,0,0,1-.43,2.59,5.32,5.32,0,0,1-.59,1.25,2.45,2.45,0,0,1-2.14,1.05H209c-.56,0-.82-.61-.82-1.17s.26-1.17.82-1.17h.17a2.31,2.31,0,0,0,1.66-.48c.2-.2.2-.53.2-1.16,0-2.92-.38-5.52-.38-6.11a1.74,1.74,0,0,1,.31-1.09,4.91,4.91,0,0,1,.92-.88Z"/><path class="cls-5" d="M214.92,347.13a19.44,19.44,0,0,0,.16-2.82,70,70,0,0,0-.4-7.62A18.6,18.6,0,0,1,216,335.2l.2.11c.23,2.53.27,4.9.27,7.17a9.06,9.06,0,0,1-.37,3.47,8.2,8.2,0,0,1-1,1.37Z"/></g><rect class="cls-6" x="256.67" y="210.43" width="33.33" height="26.45"/><rect class="cls-6" x="190" y="210.43" width="33.33" height="26.45"/><rect class="cls-7" x="173.33" y="223.03" width="133.33" height="73.33"/><g class="cls-4"><path class="cls-5" d="M222.25,251.46c-1.17,0-2.26-.41-2.26-1.66a4.3,4.3,0,0,1,.48-1.81,7.65,7.65,0,0,1,3.44-3.16l0-.62c.38-.38.76-.74,1.16-1.09l.19,0c.06,1.16.07,2.56.07,4.34,0,1,0,1.73.35,2.09A1.7,1.7,0,0,0,227,250h.16v2.34H227c-1.45,0-2.08-.27-2.58-1.32A6.1,6.1,0,0,1,222.25,251.46Zm.11-11.54a9.22,9.22,0,0,1,1.33,1.45,5.34,5.34,0,0,1-1.14,1.19c-.45-.48-.91-.93-1.38-1.39Zm1.72,6.73c-1.66.78-2.73,1.61-2.73,2.09s.56.55,1.21.55a5.25,5.25,0,0,0,1.57-.24C224.13,248.12,224.1,247.3,224.08,246.65Zm.75-6.84a9.32,9.32,0,0,1,1.34,1.45,5.22,5.22,0,0,1-1.15,1.2c-.45-.48-.9-.94-1.37-1.4Z"/><path class="cls-5" d="M234,251.39c-.28.92-.71,1.44-1.38,1.44a5,5,0,0,1-3.21-1.79h0a2.14,2.14,0,0,1-2.1,1.31h-.16c-.56,0-.82-.61-.82-1.17s.26-1.17.82-1.17h.16c1.61,0,1.81-.66,2.2-1.86a3.4,3.4,0,0,1,.89-1.51,2,2,0,0,1,1.34-.61c1.37,0,1.9,1.56,2.62,3.06a1.74,1.74,0,0,0,1.72.92h.16v2.34h-.16a2.21,2.21,0,0,1-2-1Zm-1-.91a.24.24,0,0,0,.27-.25c0-.59-.82-2.25-1.84-2.25a1.35,1.35,0,0,0-1.17.76A3.69,3.69,0,0,0,233,250.48Z"/><path class="cls-5" d="M239.28,245c1.76,1.52,2.26,2.38,2.26,3.74a5,5,0,0,1-.56,2.12c-.49,1-2,1.52-4.58,1.52h-.17c-.56,0-.82-.61-.82-1.17s.26-1.17.82-1.17h.17c2.34,0,4-.39,4-.92,0-1-1.57-2.35-4-4a5.49,5.49,0,0,1-.24-1.48,1.8,1.8,0,0,1,1.18-1.72,61.63,61.63,0,0,1,6-2.26l.09.08c-.31.65-.65,1.3-1,1.95a52.17,52.17,0,0,0-5.21,1.88v.07c.84.18,1.65.31,2.41.41Z"/><path class="cls-5" d="M250.23,250v2.34h-.88c-.5,2.12-2,4.28-3.8,4.28a6.38,6.38,0,0,1-3.45-1.3l.27-.62a3.74,3.74,0,0,0,1.43.32,4.92,4.92,0,0,0,2.93-1.2,4.54,4.54,0,0,0,1.36-1.48h-.33c-2.23,0-3.72-.71-3.72-2.82a3.52,3.52,0,0,1,.89-2.34,2.51,2.51,0,0,1,1.87-1c1.32,0,2.16,1.42,2.63,3.86Zm-4-1.95a1.13,1.13,0,0,0-1.18.86c0,.68,1.19,1.12,2.73,1.12a3.19,3.19,0,0,0,.45,0C247.81,248.83,247.14,248.06,246.24,248.06Z"/><path class="cls-5" d="M256.32,248.41a10.17,10.17,0,0,0-3-.62,1.77,1.77,0,0,0-1,.21l-.54,1.23h-.23l-.77-1.49a2.45,2.45,0,0,1,2.56-2.09,10,10,0,0,1,3.25.81,7.58,7.58,0,0,0,2.89.55h.87l0,.09a15.68,15.68,0,0,1-1,1.63,2.66,2.66,0,0,0-2,.7c-2.07,1.88-3.63,2.92-7.05,2.92h-.16c-.57,0-.83-.61-.83-1.17s.26-1.17.83-1.17h.16a9.92,9.92,0,0,0,5.93-1.54Z"/><path class="cls-5" d="M199.1,272.79c-1.17,0-2.26-.41-2.26-1.66a4.19,4.19,0,0,1,.48-1.81,7.63,7.63,0,0,1,3.43-3.16l0-.62c.37-.38.76-.74,1.16-1.09l.19.06c.06,1.16.07,2.55.07,4.33,0,1,0,1.74.35,2.09a1.67,1.67,0,0,0,1.34.41H204v2.34h-.16c-1.45,0-2.08-.27-2.58-1.32A6.1,6.1,0,0,1,199.1,272.79Zm.11-11.54a9.22,9.22,0,0,1,1.33,1.45,5.17,5.17,0,0,1-1.14,1.2c-.45-.48-.91-.94-1.38-1.4Zm1.72,6.74c-1.66.77-2.73,1.6-2.73,2.08s.56.55,1.21.55a5.25,5.25,0,0,0,1.57-.24C201,269.45,201,268.63,200.93,268Zm.75-6.85A9.88,9.88,0,0,1,203,262.6a5.39,5.39,0,0,1-1.15,1.19c-.45-.48-.9-.93-1.37-1.39Z"/><path class="cls-5" d="M209.47,273.68h-.15a2.76,2.76,0,0,1-2.68-1.27h0a2.94,2.94,0,0,1-2.45,1.27H204c-.56,0-.82-.61-.82-1.17s.26-1.17.82-1.17h.16a2.75,2.75,0,0,0,1.6-.4c.64-.4.7-1.15,1-1.69.27-.18.57-.39.94-.61l.08.07a4.85,4.85,0,0,0-.23,1.08,1.26,1.26,0,0,0,.58,1.21,2.35,2.35,0,0,0,1.25.34h.14Zm-4.25,2.2a9.83,9.83,0,0,1,1.34,1.45,5.62,5.62,0,0,1-1.15,1.19c-.45-.48-.91-.93-1.37-1.39Zm2.47-.11a9.32,9.32,0,0,1,1.34,1.45,5.22,5.22,0,0,1-1.15,1.2c-.45-.48-.9-.94-1.37-1.4Z"/><path class="cls-5" d="M212.49,261.72a6.94,6.94,0,0,0,1.28,3.13l-1,.79c.05.91.07,2,.07,3.16a7.58,7.58,0,0,1-.43,2.59,5.44,5.44,0,0,1-.59,1.24,2.45,2.45,0,0,1-2.14,1.05h-.17c-.56,0-.82-.61-.82-1.17s.26-1.17.82-1.17h.17a2.31,2.31,0,0,0,1.66-.48c.2-.2.2-.53.2-1.16,0-2.92-.39-5.52-.39-6.11a1.76,1.76,0,0,1,.32-1.09,4.81,4.81,0,0,1,.91-.88Z"/><path class="cls-5" d="M218.56,273.68h-.2c-1.6,0-2.75-.8-2.78-3.09,0-1.34-.12-4.78-.42-7.66a18.29,18.29,0,0,1,1.34-1.31l.17.09a48.92,48.92,0,0,1,.21,5.25c0,1.23,0,1.85,0,2.81,0,1.17.47,1.57,1.53,1.57h.17Z"/><path class="cls-5" d="M220.63,272.3a2,2,0,0,1-1.93,1.38h-.16c-.54,0-.8-.56-.8-1.17s.25-1.17.82-1.17h.16a2,2,0,0,0,1-.3c.91-.58.7-2.22,1.85-3.29a2.29,2.29,0,0,1,1.55-.69c2,0,2.61,3,2.61,4.29,0,.17-.42,2.23-2,2.23a5.41,5.41,0,0,1-3.1-1.28Zm3.47-1c.22,0,.36,0,.36-.11-.24-1.31-1-2.15-1.73-2.15a1.51,1.51,0,0,0-1.37,1A4.24,4.24,0,0,0,224.1,271.34Z"/><path class="cls-5" d="M230.9,272.92c-1.81,0-2.71-1-2.71-2.37a3.9,3.9,0,0,1,.92-2.59,2.89,2.89,0,0,1,2-1.07c1.3,0,2.44,1.95,2.44,4.72a6.92,6.92,0,0,1-1.22,4.07c-1,1.33-1.91,1.77-2.74,1.77a6.38,6.38,0,0,1-3.49-1.32l.24-.64a3.83,3.83,0,0,0,1.36.27,5,5,0,0,0,2.9-1.09,5.62,5.62,0,0,0,1.68-1.9A5,5,0,0,1,230.9,272.92Zm-.37-4.08c-.79,0-1.3.46-1.3.85,0,.54.9,1.1,2.16,1.1a5.58,5.58,0,0,0,1-.07C232.07,269.66,231.25,268.84,230.53,268.84Z"/><path class="cls-5" d="M242.48,272.79c-1.17,0-2.26-.41-2.26-1.66a4.33,4.33,0,0,1,.48-1.81,7.71,7.71,0,0,1,3.44-3.16l0-.62c.38-.38.76-.74,1.16-1.09l.19.06c.06,1.16.07,2.55.07,4.33,0,1,0,1.74.35,2.09a1.68,1.68,0,0,0,1.34.41h.16v2.34h-.16c-1.44,0-2.08-.27-2.58-1.32A6.1,6.1,0,0,1,242.48,272.79Zm.11-11.54a9.83,9.83,0,0,1,1.34,1.45,5.44,5.44,0,0,1-1.15,1.2c-.45-.48-.9-.94-1.37-1.4Zm1.72,6.74c-1.66.77-2.73,1.6-2.73,2.08s.56.55,1.21.55a5.25,5.25,0,0,0,1.57-.24C244.36,269.45,244.34,268.63,244.31,268Zm.75-6.85a9.36,9.36,0,0,1,1.34,1.46,5.39,5.39,0,0,1-1.15,1.19c-.44-.48-.9-.93-1.37-1.39Z"/><path class="cls-5" d="M252.86,273.68h-.16a2.77,2.77,0,0,1-2.68-1.27h0a2.92,2.92,0,0,1-2.44,1.27h-.17c-.56,0-.82-.61-.82-1.17s.26-1.17.82-1.17h.17a2.74,2.74,0,0,0,1.59-.4c.64-.4.7-1.15,1-1.69.27-.18.57-.39.94-.61l.08.07a4.69,4.69,0,0,0-.22,1.08,1.28,1.28,0,0,0,.57,1.21,2.36,2.36,0,0,0,1.26.34h.14Zm-4.26,2.2a9.32,9.32,0,0,1,1.34,1.45,5.39,5.39,0,0,1-1.15,1.19c-.45-.48-.9-.93-1.37-1.39Zm2.47-.11a9.32,9.32,0,0,1,1.34,1.45,5,5,0,0,1-1.15,1.2c-.44-.48-.9-.94-1.37-1.4Z"/><path class="cls-5" d="M262.47,267.75a13.88,13.88,0,0,1,.26,2.68,4.18,4.18,0,0,1-.69,2.05,2.26,2.26,0,0,1-1.71,1.17,2.07,2.07,0,0,1-1.64-1h0a2.89,2.89,0,0,1-1.94,1,1.13,1.13,0,0,1-1.25-.92h0a3.34,3.34,0,0,1-2.43.92h-.16c-.57,0-.82-.61-.82-1.17s.25-1.17.82-1.17H253a3.06,3.06,0,0,0,2.2-.63,9,9,0,0,0,.92-1.19,9.08,9.08,0,0,1,1.05-.44l.08.13a3.73,3.73,0,0,0-.72,1.57.52.52,0,0,0,.54.56,1.8,1.8,0,0,0,.79-.22c.75-.38.8-1.06,1-1.78a6.27,6.27,0,0,1,.88-.55l.1.08a3.47,3.47,0,0,0-.19,1.12,1.32,1.32,0,0,0,.34.93,1.24,1.24,0,0,0,.87.38.66.66,0,0,0,.58-.22,16.45,16.45,0,0,0-.44-2c.41-.45.82-.91,1.29-1.37Z"/><path class="cls-5" d="M268,273.68h-.2c-1.59,0-2.74-.8-2.78-3.09,0-1.34-.11-4.78-.42-7.66a18.39,18.39,0,0,1,1.35-1.31l.16.09a49,49,0,0,1,.22,5.25c0,1.23,0,1.85,0,2.81,0,1.17.47,1.57,1.54,1.57H268Z"/><path class="cls-5" d="M273.45,273.68h-.16a2.77,2.77,0,0,1-2.68-1.27h0a2.94,2.94,0,0,1-2.44,1.27H268c-.56,0-.82-.61-.82-1.17s.26-1.17.82-1.17h.17a2.74,2.74,0,0,0,1.59-.4c.64-.4.7-1.15,1-1.69.27-.18.57-.39.94-.61l.08.07a4.69,4.69,0,0,0-.22,1.08,1.28,1.28,0,0,0,.57,1.21,2.36,2.36,0,0,0,1.26.34h.14Zm-4.26,2.2a9.32,9.32,0,0,1,1.34,1.45,5.39,5.39,0,0,1-1.15,1.19c-.45-.48-.9-.93-1.37-1.39Zm2.47-.11a9.32,9.32,0,0,1,1.34,1.45,5,5,0,0,1-1.15,1.2c-.44-.48-.9-.94-1.37-1.4Z"/><path class="cls-5" d="M283.06,267.75a13.88,13.88,0,0,1,.26,2.68,4.18,4.18,0,0,1-.69,2.05,2.26,2.26,0,0,1-1.71,1.17,2.07,2.07,0,0,1-1.64-1h0a2.89,2.89,0,0,1-1.94,1,1.13,1.13,0,0,1-1.25-.92h0a3.34,3.34,0,0,1-2.43.92h-.16c-.57,0-.82-.61-.82-1.17s.25-1.17.82-1.17h.16a3.06,3.06,0,0,0,2.2-.63,9,9,0,0,0,.92-1.19,9.08,9.08,0,0,1,1-.44l.08.13a3.73,3.73,0,0,0-.72,1.57.52.52,0,0,0,.54.56,1.8,1.8,0,0,0,.79-.22c.75-.38.8-1.06,1-1.78a6.27,6.27,0,0,1,.88-.55l.1.08a3.47,3.47,0,0,0-.19,1.12,1.32,1.32,0,0,0,.34.93,1.24,1.24,0,0,0,.87.38.66.66,0,0,0,.58-.22,16.45,16.45,0,0,0-.44-2c.41-.45.82-.91,1.29-1.37Z"/></g><path class="cls-6" d="M74.92,491.81c1.19.28,2.42.39,3.6.74a19,19,0,0,1,10.77,7.95,18.43,18.43,0,0,1,3.12,11.81,18.9,18.9,0,0,1-7.65,14.07l-.41.32a.56.56,0,0,0-.09.13,3.57,3.57,0,0,0,1,.45c10.16,4.22,16.86,11.57,20,22.13a31.35,31.35,0,0,1,1.19,8.18c0,.51-.07.72-.65.7-1.32,0-2.64,0-4,0-.5,0-.59-.15-.61-.61A27,27,0,0,0,96.71,543c-4.7-7-11.21-11.34-19.6-12.48a27.07,27.07,0,0,0-22.88,7.2,27.38,27.38,0,0,0-8.75,16.63,27.87,27.87,0,0,0-.26,3.29c0,.55-.21.63-.68.62-1.51,0-3,0-4.54,0v-2.2a3.86,3.86,0,0,0,.12-.57,26.23,26.23,0,0,1,.66-4.41c2.79-11.47,9.68-19.39,20.58-23.87a2,2,0,0,0,.87-.43l-.53-.41a18.92,18.92,0,0,1-7.64-14.07,18.44,18.44,0,0,1,3.12-11.82,19,19,0,0,1,10.76-7.94c1.19-.35,2.41-.46,3.61-.74ZM73.32,497a14,14,0,1,0,13.91,14.13A14,14,0,0,0,73.32,497Z"/><path class="cls-6" d="M141.63,491.81c1.19.28,2.42.39,3.6.74A19.07,19.07,0,0,1,156,500.5a18.42,18.42,0,0,1,3.11,11.81,18.89,18.89,0,0,1-7.64,14.07l-.41.32s-.05.07-.1.13a3.74,3.74,0,0,0,1,.45c10.15,4.22,16.85,11.57,20,22.13a31.36,31.36,0,0,1,1.2,8.18c0,.51-.08.72-.65.7-1.32,0-2.64,0-4,0-.5,0-.6-.15-.61-.61a28,28,0,0,0-47-19.93,27.33,27.33,0,0,0-8.75,16.63,27.87,27.87,0,0,0-.26,3.29c0,.55-.21.63-.68.62-1.52,0-3,0-4.54,0v-2.2a3.86,3.86,0,0,0,.12-.57,24.33,24.33,0,0,1,.66-4.41c2.78-11.47,9.68-19.39,20.58-23.87a2,2,0,0,0,.87-.43l-.54-.41a18.91,18.91,0,0,1-7.63-14.07,18.44,18.44,0,0,1,3.11-11.82,19,19,0,0,1,10.77-7.94c1.18-.35,2.41-.46,3.6-.74ZM140,497a14,14,0,1,0,13.91,14.13A14,14,0,0,0,140,497Z"/><path class="cls-6" d="M208.33,491.77c1.2.29,2.42.4,3.61.75a19.05,19.05,0,0,1,10.77,8,18.48,18.48,0,0,1,3.11,11.81,18.9,18.9,0,0,1-7.65,14.07l-.41.32s0,.07-.09.12a3.34,3.34,0,0,0,1,.46c10.16,4.22,16.86,11.57,20,22.13a31.35,31.35,0,0,1,1.19,8.18c0,.51-.07.71-.65.69q-2-.06-4,0c-.5,0-.59-.15-.61-.61A27,27,0,0,0,230.13,543c-4.71-7-11.22-11.34-19.61-12.48a27.07,27.07,0,0,0-22.88,7.2,27.38,27.38,0,0,0-8.75,16.63,27.87,27.87,0,0,0-.26,3.29c0,.55-.2.63-.68.62-1.51,0-3,0-4.54,0V556a3.48,3.48,0,0,0,.12-.56,26.23,26.23,0,0,1,.66-4.41c2.79-11.47,9.68-19.4,20.58-23.87a2,2,0,0,0,.87-.43l-.53-.41a18.93,18.93,0,0,1-7.64-14.08,18.43,18.43,0,0,1,3.12-11.81,19,19,0,0,1,10.77-7.94c1.18-.35,2.41-.46,3.6-.75Zm-1.6,5.2a14,14,0,1,0,13.91,14.13A14,14,0,0,0,206.73,497Z"/><path class="cls-6" d="M275,491.77c1.19.29,2.42.4,3.6.75a19,19,0,0,1,10.77,8,18.42,18.42,0,0,1,3.11,11.81,18.86,18.86,0,0,1-7.64,14.07l-.41.32s-.05.07-.1.12a3.5,3.5,0,0,0,1.05.46c10.15,4.22,16.85,11.57,20,22.13a31.36,31.36,0,0,1,1.2,8.18c0,.51-.08.71-.65.69q-2-.06-4,0c-.5,0-.6-.15-.61-.61a28,28,0,0,0-55.77-3.3,27.87,27.87,0,0,0-.26,3.29c0,.55-.21.63-.68.62-1.51,0-3,0-4.54,0V556a3.48,3.48,0,0,0,.12-.56,25.25,25.25,0,0,1,.66-4.41c2.79-11.47,9.68-19.4,20.58-23.87a2,2,0,0,0,.87-.43l-.54-.41a18.92,18.92,0,0,1-7.63-14.08,18.42,18.42,0,0,1,3.11-11.81,19.08,19.08,0,0,1,10.77-7.94c1.19-.35,2.41-.46,3.6-.75Zm-1.61,5.2a14,14,0,1,0,13.92,14.13A14,14,0,0,0,273.43,497Z"/><path class="cls-6" d="M341.74,491.74c1.2.29,2.42.4,3.61.75a19.08,19.08,0,0,1,10.77,7.94,18.47,18.47,0,0,1,3.11,11.82,18.89,18.89,0,0,1-7.65,14.07l-.41.32a.46.46,0,0,0-.09.12,3.34,3.34,0,0,0,1,.46c10.16,4.22,16.86,11.57,20,22.13a31.35,31.35,0,0,1,1.19,8.18c0,.51-.07.71-.65.69-1.31-.05-2.64,0-3.95,0-.5,0-.6-.15-.62-.62A27,27,0,0,0,363.54,543c-4.71-7-11.22-11.34-19.61-12.48a27,27,0,0,0-22.87,7.2,27.37,27.37,0,0,0-8.76,16.63,25.88,25.88,0,0,0-.25,3.29c0,.54-.21.62-.69.62-1.51,0-3,0-4.54,0V556a3.73,3.73,0,0,0,.12-.56,26.08,26.08,0,0,1,.66-4.41c2.79-11.47,9.69-19.4,20.58-23.87a2.09,2.09,0,0,0,.87-.43l-.53-.41a18.94,18.94,0,0,1-7.64-14.08A18.43,18.43,0,0,1,324,500.43a19,19,0,0,1,10.77-7.94c1.18-.35,2.41-.46,3.6-.75Zm-1.6,5.2a14,14,0,1,0,13.91,14.13A14,14,0,0,0,340.14,496.94Z"/><path class="cls-6" d="M408.45,491.74c1.19.29,2.42.4,3.6.75a19,19,0,0,1,10.77,7.94,18.41,18.41,0,0,1,3.11,11.82,18.88,18.88,0,0,1-7.64,14.07l-.41.32a.46.46,0,0,0-.09.12,3.34,3.34,0,0,0,1,.46c10.15,4.22,16.85,11.57,20,22.13a31.36,31.36,0,0,1,1.2,8.18c0,.51-.08.71-.65.69-1.32-.05-2.64,0-4,0-.5,0-.6-.15-.61-.62A27.12,27.12,0,0,0,430.24,543c-4.7-7-11.21-11.34-19.6-12.48a27.06,27.06,0,0,0-22.88,7.2A27.36,27.36,0,0,0,379,554.31a27.87,27.87,0,0,0-.26,3.29c0,.54-.21.62-.68.62-1.51,0-3,0-4.54,0V556a3.73,3.73,0,0,0,.12-.56,26.08,26.08,0,0,1,.66-4.41c2.79-11.47,9.68-19.4,20.58-23.87a2.15,2.15,0,0,0,.87-.43l-.53-.41a18.94,18.94,0,0,1-7.64-14.08,18.42,18.42,0,0,1,3.11-11.81,19.08,19.08,0,0,1,10.77-7.94c1.19-.35,2.41-.46,3.6-.75Zm-1.61,5.2a14,14,0,1,0,13.92,14.13A14,14,0,0,0,406.84,496.94Z"/><polygon class="cls-7" points="251.88 465.56 240 453.32 228.12 465.56 251.88 465.56"/><polygon class="cls-9" points="118.55 453.32 106.67 465.56 94.79 453.32 118.55 453.32"/><polygon class="cls-3" points="385.21 465.56 373.33 453.32 361.45 465.56 385.21 465.56"/><rect class="cls-6" x="40" y="568.36" width="400" height="50"/><path class="cls-10" d="M127.13,589.75a11.48,11.48,0,0,1,1.53,4.54,5,5,0,0,1-.84,2.64c1.84.44,2.17,1,2.17,2.32a4.7,4.7,0,0,1-.64,2.11,10,10,0,0,1-7,3.15,5.52,5.52,0,0,1-3.73-1.47,5.83,5.83,0,0,1-1.63-4.18,12,12,0,0,1,1.17-4.91l.61.23a10,10,0,0,0-.7,3.28,5.16,5.16,0,0,0,.91,3.08,4.44,4.44,0,0,0,3.56,1.78,8.61,8.61,0,0,0,4.5-1.17,7.73,7.73,0,0,0,2-1.54c0-.6-2.61-1.13-4.92-1.3l-.11-.14.75-1.63c1.77-.26,2.45-.68,2.81-1.14a17.45,17.45,0,0,0-1.65-3.92c.37-.61.78-1.22,1.15-1.73ZM122,609.29c-.64-.61-1.21-1.11-1.83-1.62a15.52,15.52,0,0,1,1.23-1.49,13.9,13.9,0,0,1,1.78,1.68A8.17,8.17,0,0,1,122,609.29Zm3-.2c-.64-.61-1.2-1.11-1.83-1.63A15.32,15.32,0,0,1,124.4,606a15.3,15.3,0,0,1,1.78,1.67A8.29,8.29,0,0,1,125,609.09Zm.91-24.33a14.29,14.29,0,0,1,1.87,1.67,6,6,0,0,1-1.29,1.53c-.61-.57-1.22-1.07-1.85-1.6C125.06,585.79,125.48,585.25,125.9,584.76Z"/><path class="cls-10" d="M143.2,600h-.3a3.09,3.09,0,0,1-3.19-2.55h-.08a2.18,2.18,0,0,1-1.12,1.5,6.19,6.19,0,0,1-3.14,1.05c-1.75,0-2.72-1.06-2.72-2.89a11.25,11.25,0,0,1,0-1.16l.61,0a2,2,0,0,0,2.2,2.09,5.62,5.62,0,0,0,2.55-.78c.57-.33,1-.8,1-1.17a30.49,30.49,0,0,0-1.3-5.82c.36-.54.71-1.11,1.11-1.61l.1.07c.58,2.25,1.06,4.65,1.48,7a2.55,2.55,0,0,0,2.47,2.36h.27Z"/><path class="cls-10" d="M149.45,598v2H143.2a1,1,0,0,1-1.1-1.05,1,1,0,0,1,1.1-.95Z"/><path class="cls-10" d="M155.7,598v2h-6.25a1,1,0,0,1-1.1-1.05,1,1,0,0,1,1.1-.95Z"/><path class="cls-10" d="M162,598v2H155.7a1,1,0,0,1-1.1-1.05,1,1,0,0,1,1.1-.95Z"/><path class="cls-10" d="M165.73,598.61a5,5,0,0,1-3.57,1.34H162a1,1,0,0,1-1.1-1.05A1,1,0,0,1,162,598h.14a5.71,5.71,0,0,0,3.54-1.11c-.28-3-.34-6.16-.34-8.59,0-.63-.13-1.63-.13-2.36a1.9,1.9,0,0,1,.49-1.38,5.76,5.76,0,0,1,.87-.81l.16.09a3.36,3.36,0,0,0-.05.66,6.39,6.39,0,0,0,1.21,3.19l-1.14.79A52.75,52.75,0,0,0,167,596l.06,0a3.93,3.93,0,0,1,2-.54,2.38,2.38,0,0,1,1.79.86,3.42,3.42,0,0,1,.75,2.15,2.74,2.74,0,0,1-2.47,3c-1.46,0-2.66-1.17-3.28-2.95Zm4.08,1.2a1.18,1.18,0,0,0,.76-.28,2.3,2.3,0,0,0-.58-1.46,1.83,1.83,0,0,0-1.47-.7,2.41,2.41,0,0,0-1.26.34A2.94,2.94,0,0,0,169.81,599.81Z"/><path class="cls-10" d="M174.43,600.21a20.06,20.06,0,0,0,.17-3.12v-1.53c0-2.86-.31-7-.56-9.72a15.36,15.36,0,0,1,1.53-1.66l.14.05c.33,3.41.41,7.36.41,11a24.31,24.31,0,0,1-.11,2.58,4,4,0,0,1-1.38,2.51Z"/><path class="cls-10" d="M190.85,598c-2.78,1.41-4.61,2.91-4.61,4.59,0,2.63,2.88,4.42,7.14,4.42a16.38,16.38,0,0,0,4-.45l.11.28a23.09,23.09,0,0,1-2.63,1.75,5.93,5.93,0,0,1-2.67.46c-3.8,0-7-1.8-7-5.83,0-2.8,2.11-4.91,4.36-6.31a22.89,22.89,0,0,1-1.86-1.83c-.39-.36-.75-.77-1.06-.77a2.71,2.71,0,0,0-.77.19l-.09-.14.67-1.7.73-.13a19.42,19.42,0,0,1,4.19-.52,11.84,11.84,0,0,1,4.47.72l-.37,1.77-3,2.59v.07a8.21,8.21,0,0,0,3.75.84h.91v2h-.74a9.36,9.36,0,0,1-5.4-2Zm.27-1.67a20,20,0,0,0,3.2-2.28v-.1a14,14,0,0,0-3-.36,12.47,12.47,0,0,0-3,.32v.07c.28.25.81.68,1.15,1,.55.47,1,.87,1.57,1.34Z"/><path class="cls-10" d="M197.54,598c1.64,0,2.17-.81,2.64-2.3.61-1.95,1.84-3,2.89-3a2.11,2.11,0,0,1,1.88,1.05,20.45,20.45,0,0,1,1.56,2.94A2.51,2.51,0,0,0,209,598h.26v2h-.3a2.63,2.63,0,0,1-2.4-1.36h-.06a2.51,2.51,0,0,1-.5,1.19,1.46,1.46,0,0,1-1,.51,6.92,6.92,0,0,1-4.42-2.18h-.06a3.15,3.15,0,0,1-3.11,1.84h-.23a1,1,0,0,1-1.1-1.05,1,1,0,0,1,1.1-.95Zm5.27-.27a5,5,0,0,0,2.15.69c.3,0,.58,0,.58-.39a4.53,4.53,0,0,0-.78-2.08,2.62,2.62,0,0,0-2-1.4,1.93,1.93,0,0,0-1.8,1.4A4.43,4.43,0,0,0,202.81,597.68Z"/><path class="cls-10" d="M209.56,598c1.2,0,2.45-.49,2.68-1.38l.46-1.68,1.07-.78.1.1a8.43,8.43,0,0,0-.35,1.82,1.53,1.53,0,0,0,.52,1.29A2.9,2.9,0,0,0,216,598h.28v2h-.36c-1.53,0-2.69-.42-3.22-1.59h-.06a3.38,3.38,0,0,1-3.11,1.59h-.3a1,1,0,0,1-1.09-1.05,1,1,0,0,1,1.09-.95Zm1.71-5.92c-.64-.61-1.2-1.11-1.82-1.63a13,13,0,0,1,1.23-1.48,14.49,14.49,0,0,1,1.78,1.67A8.68,8.68,0,0,1,211.27,592Zm3-.21c-.64-.61-1.2-1.11-1.83-1.62a15.52,15.52,0,0,1,1.24-1.49,14.6,14.6,0,0,1,1.78,1.68A8.19,8.19,0,0,1,214.29,591.82Z"/><path class="cls-10" d="M225.57,595.06a14.76,14.76,0,0,0-4.91-1.1,2.5,2.5,0,0,0-2,.79l.19.78-.47,1.4h-.16l-.76-2.06a3.09,3.09,0,0,1,3.39-2.81A15.2,15.2,0,0,1,226,593.4a7.34,7.34,0,0,0,2.67.52H230l0,0-1,1.61a5,5,0,0,0-2.64.59l-2.61,1.71A12.24,12.24,0,0,1,217,600h-.72a1,1,0,0,1-1.1-1.05,1,1,0,0,1,1.1-.95h1c2.53,0,5.13-.89,8.35-2.83ZM222,602.28a14.29,14.29,0,0,1,1.87,1.67,6.22,6.22,0,0,1-1.29,1.53c-.61-.58-1.22-1.08-1.85-1.61C221.13,603.31,221.56,602.76,222,602.28Zm5.34-6.16.05,0c.06,1.32,1.15,1.81,2.76,1.81h.43v2h-.49c-2,0-3.36-.7-3.36-2.58a8.3,8.3,0,0,1,0-.87Z"/><path class="cls-10" d="M234.34,598.61a5,5,0,0,1-3.57,1.34h-.21a1,1,0,0,1-1.1-1.05,1,1,0,0,1,1.1-.95h.14a5.71,5.71,0,0,0,3.54-1.11c-.28-3-.34-6.16-.34-8.59,0-.63-.13-1.63-.13-2.36a1.9,1.9,0,0,1,.49-1.38,5.76,5.76,0,0,1,.87-.81l.16.09a3.36,3.36,0,0,0,0,.66,6.39,6.39,0,0,0,1.21,3.19l-1.14.79a52.75,52.75,0,0,0,.26,7.61l.06,0a3.93,3.93,0,0,1,2-.54,2.35,2.35,0,0,1,1.78.86,3.36,3.36,0,0,1,.75,2.15,2.73,2.73,0,0,1-2.46,3c-1.46,0-2.66-1.17-3.29-2.95Zm4.07,1.2a1.19,1.19,0,0,0,.77-.28,2.3,2.3,0,0,0-.58-1.46,1.83,1.83,0,0,0-1.47-.7,2.41,2.41,0,0,0-1.26.34A2.94,2.94,0,0,0,238.41,599.81Z"/><path class="cls-10" d="M243,600.21a20.06,20.06,0,0,0,.17-3.12v-1.53c0-2.86-.31-7-.56-9.72a15.36,15.36,0,0,1,1.53-1.66l.14.05c.33,3.41.41,7.36.41,11a24.31,24.31,0,0,1-.11,2.58,4,4,0,0,1-1.38,2.51Z"/><path class="cls-10" d="M259.09,598.31c-1.83,0-3.41-.86-3.41-2.94a4.29,4.29,0,0,1,1-2.69,3.34,3.34,0,0,1,2.23-1.29,2.86,2.86,0,0,1,2.36,1.76,8.93,8.93,0,0,1,1,4.3,7.45,7.45,0,0,1-1.18,4.11c-1.39,2.11-2.72,3-4,3a7.89,7.89,0,0,1-4.48-1.53l.23-.5a4.9,4.9,0,0,0,2.28.53,6.3,6.3,0,0,0,4.6-2.39,5.1,5.1,0,0,0,1.46-2.61A8,8,0,0,1,259.09,598.31Zm-.69-4.95c-.74,0-1.75.81-1.75,1.39,0,1,1.37,1.65,2.66,1.65a7.37,7.37,0,0,0,1.76-.2C260.65,594.62,259.74,593.36,258.4,593.36Z"/><path class="cls-10" d="M280.65,590.9a13.17,13.17,0,0,1,1.67,6.41,6.74,6.74,0,0,1-1.11,4,7.55,7.55,0,0,1-5.2,2.38,4.51,4.51,0,0,1-4.8-4.74,8.26,8.26,0,0,1,1.35-4.54l.59.32a7.31,7.31,0,0,0-.88,2.93,3.49,3.49,0,0,0,1.05,2.72,4.47,4.47,0,0,0,2.95,1,6.8,6.8,0,0,0,3.79-1.36c.68-.53,1.07-1,1.07-1.29a9.49,9.49,0,0,0-.48-2.77,13.56,13.56,0,0,0-1.31-3.08c.37-.65.75-1.31,1.2-2Zm-4.25-5a13.6,13.6,0,0,1,1.87,1.67,6.22,6.22,0,0,1-1.29,1.53c-.61-.58-1.22-1.08-1.85-1.61C275.56,586.89,276,586.34,276.4,585.86Z"/><path class="cls-10" d="M293.81,598v2h-1.3a7.24,7.24,0,0,1-1.19,3.2,5.56,5.56,0,0,1-3.76,2.67,9.08,9.08,0,0,1-4.5-1.57l.26-.52a4.73,4.73,0,0,0,2.3.56,6.09,6.09,0,0,0,4.34-2.15,5,5,0,0,0,1.47-2.19h-.77c-3.18,0-4.81-1-4.81-3.2a4.25,4.25,0,0,1,.8-2.52,3,3,0,0,1,2.41-1.5c1.43,0,2.92,2,3.35,5.22Zm-3.55-2.28a2.3,2.3,0,0,0-1.66-.88c-.87,0-1.76.75-1.76,1.38,0,.79.73,1.26,1.7,1.54a10.56,10.56,0,0,0,2.81.24A4.77,4.77,0,0,0,290.26,595.67Z"/><path class="cls-10" d="M300.06,598v2h-6.25a1,1,0,0,1-1.1-1.05,1,1,0,0,1,1.1-.95Z"/><path class="cls-10" d="M306.31,598v2h-6.25a1,1,0,0,1-1.1-1.05,1,1,0,0,1,1.1-.95Z"/><path class="cls-10" d="M312.56,598v2h-6.25a1,1,0,0,1-1.1-1.05,1,1,0,0,1,1.1-.95Z"/><path class="cls-10" d="M312.9,598c1.2,0,2.45-.49,2.69-1.38l.45-1.68,1.08-.78.09.1a8.25,8.25,0,0,0-.34,1.82,1.55,1.55,0,0,0,.51,1.29,2.9,2.9,0,0,0,1.94.63h.28v2h-.36c-1.53,0-2.68-.42-3.22-1.59H316a3.37,3.37,0,0,1-3.11,1.59h-.29a1,1,0,0,1-1.1-1.05,1,1,0,0,1,1.1-.95Zm2.72-9.44a14.29,14.29,0,0,1,1.87,1.67,6,6,0,0,1-1.29,1.53c-.61-.57-1.22-1.07-1.85-1.6C314.77,589.54,315.2,589,315.62,588.51Z"/><path class="cls-10" d="M321,598l.84-1.42a11.56,11.56,0,0,0,.24-3.11c0-2.13-.22-5.39-.39-7.17-.05-.49-.1-1-.1-1.54,0-.7.44-1.2,1.22-1.79l.11.11a6.94,6.94,0,0,0,1.33,3.42l-1,.8c.08,1.68.14,3.37.14,5.06a7.77,7.77,0,0,1-.54,3.12h.06a22.22,22.22,0,0,1,3.44-2.92,5.68,5.68,0,0,1,2.94-.94,3.46,3.46,0,0,1,2.32.88,3.7,3.7,0,0,1,1.18,2.76,9,9,0,0,1-.36,1.66c-.79,2.7-6.24,3.08-9.33,3.08H319.6a1,1,0,0,1-1.09-1.05,1,1,0,0,1,1.09-.95Zm2.45,0c3.39,0,5.55-.34,7.21-1.17a2.56,2.56,0,0,0,.93-.72,2.89,2.89,0,0,0-3-2.41c-2,0-4.26,1.64-6.51,4.3Z"/><path class="cls-10" d="M335.77,600.21a20,20,0,0,0,.18-3.12v-1.53c0-2.86-.32-7-.57-9.72a15.36,15.36,0,0,1,1.53-1.66l.15.05c.32,3.41.4,7.36.4,11a24.31,24.31,0,0,1-.11,2.58,4,4,0,0,1-1.37,2.51Z"/><path class="cls-10" d="M348.71,598v2h-1.3a7.21,7.21,0,0,1-1.18,3.2,5.57,5.57,0,0,1-3.77,2.67,9.12,9.12,0,0,1-4.5-1.57l.27-.52a4.72,4.72,0,0,0,2.29.56,6.13,6.13,0,0,0,4.35-2.15,5,5,0,0,0,1.47-2.19h-.77c-3.19,0-4.81-1-4.81-3.2a4.18,4.18,0,0,1,.8-2.52,3,3,0,0,1,2.4-1.5c1.44,0,2.92,2,3.36,5.22Zm-3.55-2.28a2.28,2.28,0,0,0-1.65-.88c-.88,0-1.77.75-1.77,1.38,0,.79.74,1.26,1.71,1.54a10.52,10.52,0,0,0,2.81.24A4.69,4.69,0,0,0,345.16,595.67Z"/><path class="cls-10" d="M352.49,598.61a5,5,0,0,1-3.56,1.34h-.22a1,1,0,0,1-1.09-1.05,1,1,0,0,1,1.09-.95h.14a5.74,5.74,0,0,0,3.55-1.11c-.28-3-.34-6.16-.34-8.59,0-.63-.13-1.63-.13-2.36a1.93,1.93,0,0,1,.48-1.38,5.86,5.86,0,0,1,.88-.81l.16.09a3.36,3.36,0,0,0-.05.66,6.47,6.47,0,0,0,1.2,3.19l-1.14.79a50.46,50.46,0,0,0,.27,7.61l.06,0a3.93,3.93,0,0,1,2-.54,2.36,2.36,0,0,1,1.78.86,3.36,3.36,0,0,1,.75,2.15,2.74,2.74,0,0,1-2.47,3c-1.45,0-2.65-1.17-3.28-2.95Zm4.08,1.2a1.21,1.21,0,0,0,.77-.28,2.35,2.35,0,0,0-.58-1.46,1.84,1.84,0,0,0-1.47-.7,2.42,2.42,0,0,0-1.27.34A3,3,0,0,0,356.57,599.81Z"/><path class="cls-10" d="M361.2,600.21a21.37,21.37,0,0,0,.17-3.12v-1.53c0-2.86-.31-7-.56-9.72a13.56,13.56,0,0,1,1.53-1.66l.14.05c.33,3.41.4,7.36.4,11a24.31,24.31,0,0,1-.11,2.58,4,4,0,0,1-1.37,2.51Z"/><rect class="cls-7" x="238.04" y="127.96" width="3.92" height="105.11"/><path class="cls-7" d="M243.83,124.13A3.83,3.83,0,1,1,240,120.3,3.83,3.83,0,0,1,243.83,124.13Z"/><path class="cls-11" d="M43.5,145.28h-.16c-1.29,0-2.23-.65-2.26-2.51,0-1.08-.09-3.88-.34-6.23a13.48,13.48,0,0,1,1.1-1l.13.06a41.07,41.07,0,0,1,.17,4.27c0,1,0,1.5,0,2.28,0,1,.38,1.28,1.25,1.28h.13Z"/><path class="cls-11" d="M43.63,145.28H43.5c-.46,0-.67-.49-.67-.95s.21-1,.67-1h.13a11.07,11.07,0,0,0,1.38-.15,8.55,8.55,0,0,1-.07-1,3.54,3.54,0,0,1,1.51-2.9,7.46,7.46,0,0,1,.31-1.05h.16A19.6,19.6,0,0,0,49.07,140c1.37.93,2.45,1.62,2.45,3a2.89,2.89,0,0,1-.3,1.27,1.6,1.6,0,0,1-1.55,1,12.34,12.34,0,0,1-3.26-.6A7.83,7.83,0,0,1,43.63,145.28ZM48,142.14c0-.71-.47-1.43-1.06-1.43a1.51,1.51,0,0,0-1.31,1.15c0,.47.58.93,1.23,1.13C47.61,142.83,48,142.45,48,142.14ZM50,143.66c.36,0,.57-.07.57-.21,0-.43-.7-1-1.74-1.61a4.93,4.93,0,0,1-.48,1.54A6.24,6.24,0,0,0,50,143.66Z"/><path class="cls-11" d="M54.79,140.24a5.91,5.91,0,0,1,1.16,3c0,.45,0,.69,0,.87a4.94,4.94,0,0,1-.61,2.53,2.68,2.68,0,0,1-2.16,1.61,5.57,5.57,0,0,1-2.61-.83l.18-.51a3.55,3.55,0,0,0,1,.12A3.5,3.5,0,0,0,54,145.85,3.34,3.34,0,0,0,55,144.24a6.68,6.68,0,0,0-1.28-2.38c.27-.57.57-1.13.86-1.62Z"/><path class="cls-11" d="M57.65,145.4a17.19,17.19,0,0,0,.12-2.3,56,56,0,0,0-.32-6.18,15,15,0,0,1,1.1-1.21l.17.08c.19,2.06.22,4,.22,5.83a7.44,7.44,0,0,1-.3,2.82,7.08,7.08,0,0,1-.78,1.11Z"/><path class="cls-11" d="M64.65,145.28h-.17a3,3,0,0,1-1-.18,3.9,3.9,0,0,1-.61,2.16A2.45,2.45,0,0,1,61,148.64a4.7,4.7,0,0,1-2.53-.95l.21-.47a2.78,2.78,0,0,0,.86.16,2.93,2.93,0,0,0,2.07-.88,3.48,3.48,0,0,0,1.12-1.82,8,8,0,0,1-1.06-1.76c.22-.51.44-1,.67-1.41h.15c.49,1.11,1,1.87,2.07,1.87h.14Z"/><path class="cls-11" d="M64.78,143.38a6.13,6.13,0,0,0,1.2-.11,5.44,5.44,0,0,1-.15-1.26,3.36,3.36,0,0,1,1.1-2.51,2.22,2.22,0,0,1,1.43-.75,1.17,1.17,0,0,1,.94.61,3.28,3.28,0,0,1,.56,1.93,4.56,4.56,0,0,1-.5,2,12.25,12.25,0,0,0,1.39.12h.13v1.9h-.13a8.05,8.05,0,0,1-3.31-.59,5.74,5.74,0,0,1-2.66.59h-.14c-.45,0-.66-.49-.66-.95s.21-1,.66-1Zm2-7.47a7.71,7.71,0,0,1,1.08,1.18,4.48,4.48,0,0,1-.93,1c-.36-.39-.73-.76-1.12-1.14Zm1,7c.83-.25,1.35-.71,1.35-1s-.48-1.36-1.12-1.36a1.93,1.93,0,0,0-1.51,1.26C66.57,142.31,67,142.69,67.75,142.94Zm1-7.12A7.71,7.71,0,0,1,69.83,137a4.27,4.27,0,0,1-.93,1c-.36-.39-.74-.76-1.12-1.13Z"/><path class="cls-11" d="M75.33,145.28h-.12a2.25,2.25,0,0,1-2.18-1h0a2.41,2.41,0,0,1-2,1h-.14c-.45,0-.66-.49-.66-.95s.21-1,.66-1H71a2.25,2.25,0,0,0,1.29-.32c.53-.33.57-.94.78-1.37.22-.16.47-.33.76-.5l.07.06a3.9,3.9,0,0,0-.18.87,1,1,0,0,0,.47,1,1.83,1.83,0,0,0,1,.28h.11Zm-3.42-7A8.36,8.36,0,0,1,73,139.5a4.31,4.31,0,0,1-.94,1c-.36-.39-.73-.76-1.11-1.14Zm2-.08A7.81,7.81,0,0,1,75,139.41a4.31,4.31,0,0,1-.94,1c-.36-.39-.73-.76-1.11-1.13Z"/><path class="cls-11" d="M83.13,140.47a11.11,11.11,0,0,1,.22,2.17,3.33,3.33,0,0,1-.56,1.66,1.85,1.85,0,0,1-1.39,1,1.68,1.68,0,0,1-1.33-.81h0a2.32,2.32,0,0,1-1.57.83.92.92,0,0,1-1-.75h0a2.68,2.68,0,0,1-2,.75h-.13c-.46,0-.67-.49-.67-.95s.21-1,.67-1h.13a2.5,2.5,0,0,0,1.79-.51,7.09,7.09,0,0,0,.74-1,7.55,7.55,0,0,1,.86-.36l.07.11a2.9,2.9,0,0,0-.59,1.27.42.42,0,0,0,.43.46,1.62,1.62,0,0,0,.65-.18c.61-.31.65-.86.8-1.45a7.55,7.55,0,0,1,.72-.45l.08.07a3,3,0,0,0-.15.92,1.08,1.08,0,0,0,.27.75,1,1,0,0,0,.71.31.53.53,0,0,0,.47-.18,12.93,12.93,0,0,0-.36-1.65c.34-.37.67-.74,1-1.11Z"/><path class="cls-11" d="M85,145.4a15.53,15.53,0,0,0,.13-2.3,56,56,0,0,0-.33-6.18,13.41,13.41,0,0,1,1.11-1.21l.16.08c.19,2.06.22,4,.22,5.83a7.44,7.44,0,0,1-.3,2.82,7.08,7.08,0,0,1-.78,1.11Z"/><path class="cls-11" d="M90.21,144.67a1.93,1.93,0,0,1-2.2-1.93,3.16,3.16,0,0,1,.75-2.1,2.31,2.31,0,0,1,1.6-.88c1.06,0,2,1.59,2,3.84a5.6,5.6,0,0,1-1,3.3,2.87,2.87,0,0,1-2.23,1.44,5.18,5.18,0,0,1-2.83-1.07l.2-.52a3,3,0,0,0,1.1.22,4,4,0,0,0,2.35-.89,4.48,4.48,0,0,0,1.37-1.54A4,4,0,0,1,90.21,144.67Zm-.3-3.32c-.64,0-1,.37-1,.69s.73.89,1.75.89a6.06,6.06,0,0,0,.79-.05C91.16,142,90.5,141.35,89.91,141.35Z"/><path class="cls-11" d="M99.62,144.56c-1,0-1.84-.33-1.84-1.35a3.4,3.4,0,0,1,.39-1.47,6.31,6.31,0,0,1,2.79-2.57l0-.5c.31-.31.62-.6.95-.89l.15.05c0,.94.06,2.08.06,3.52,0,.8,0,1.41.28,1.7a1.4,1.4,0,0,0,1.09.33h.13v1.9h-.13c-1.17,0-1.69-.21-2.1-1.07A4.91,4.91,0,0,1,99.62,144.56Zm.09-9.38a8.26,8.26,0,0,1,1.08,1.18,4.27,4.27,0,0,1-.93,1c-.36-.39-.74-.76-1.12-1.13Zm1.39,5.48c-1.35.63-2.21,1.3-2.21,1.69s.45.45,1,.45a4.21,4.21,0,0,0,1.27-.2C101.14,141.85,101.12,141.18,101.1,140.66Zm.61-5.56a7.81,7.81,0,0,1,1.09,1.18,4.48,4.48,0,0,1-.93,1c-.37-.39-.74-.76-1.12-1.13Z"/><path class="cls-11" d="M106,135.56a5.61,5.61,0,0,0,1,2.55l-.85.64c0,.74.06,1.63.06,2.56a6.2,6.2,0,0,1-.35,2.11,4.94,4.94,0,0,1-.48,1,2,2,0,0,1-1.74.85h-.14c-.45,0-.66-.49-.66-.95s.21-1,.66-1h.14a1.87,1.87,0,0,0,1.35-.39c.16-.16.16-.43.16-.94,0-2.37-.31-4.49-.31-5a1.4,1.4,0,0,1,.25-.89,3.7,3.7,0,0,1,.75-.71Z"/><path class="cls-11" d="M110.46,144.67a1.93,1.93,0,0,1-2.2-1.93,3.11,3.11,0,0,1,.75-2.1,2.29,2.29,0,0,1,1.6-.88c1.06,0,2,1.59,2,3.84a5.6,5.6,0,0,1-1,3.3,2.87,2.87,0,0,1-2.23,1.44,5.23,5.23,0,0,1-2.84-1.07l.2-.52a3.14,3.14,0,0,0,1.11.22,4,4,0,0,0,2.35-.89,4.48,4.48,0,0,0,1.37-1.54A4,4,0,0,1,110.46,144.67Zm-.3-3.32c-.65,0-1.06.37-1.06.69s.74.89,1.76.89a6.06,6.06,0,0,0,.79-.05C111.41,142,110.74,141.35,110.16,141.35Z"/><path class="cls-11" d="M120.72,145.28h-.14a1.93,1.93,0,0,1-2-1.59h0a1.76,1.76,0,0,1-.53.92,3.13,3.13,0,0,1-2,.67c-1,0-1.69-.59-1.69-2.21,0-.19,0-.47,0-.81l.62-.06a1.1,1.1,0,0,0,1.21,1.18,3.47,3.47,0,0,0,1.4-.33c.35-.16.6-.34.6-.63a15,15,0,0,0-.82-3.18,10.72,10.72,0,0,1,.88-1.31l.16,0c.24.87.48,2,.82,3.82.19,1.09.69,1.58,1.45,1.58h.14Z"/><path class="cls-11" d="M123.16,135.56a5.61,5.61,0,0,0,1,2.55l-.85.64c0,.74,0,1.63,0,2.56a6.2,6.2,0,0,1-.35,2.11,4.44,4.44,0,0,1-.47,1,2,2,0,0,1-1.75.85h-.13c-.46,0-.67-.49-.67-.95s.21-1,.67-1h.13a1.89,1.89,0,0,0,1.36-.39c.16-.16.16-.43.16-.94,0-2.37-.32-4.49-.32-5a1.4,1.4,0,0,1,.26-.89,3.62,3.62,0,0,1,.74-.71Z"/><path class="cls-11" d="M125.53,145.4a17.19,17.19,0,0,0,.12-2.3,58.55,58.55,0,0,0-.32-6.18,15,15,0,0,1,1.1-1.21l.16.08c.19,2.06.22,4,.22,5.83a7.52,7.52,0,0,1-.29,2.82,6.56,6.56,0,0,1-.79,1.11Z"/><path class="cls-11" d="M133.27,135.72a7.81,7.81,0,0,1,1.09,1.18,4.53,4.53,0,0,1-.94,1c-.36-.39-.73-.76-1.11-1.14Zm.71,2.79.2-.13c.66.55,1.41,1,2,1.61a2.72,2.72,0,0,1,1.05,2.29,4.27,4.27,0,0,1-.47,2,2.86,2.86,0,0,1-2.26,1.15,2.19,2.19,0,0,1-2.18-2.39,5.16,5.16,0,0,1,1.46-3.41Zm-.72,3.89c0,.57.58,1.09,1.44,1.09a2.09,2.09,0,0,0,1.72-.8c-.07-.62-.72-1.28-2-2C133.61,141.44,133.26,142,133.26,142.4Zm2-6.77a7.81,7.81,0,0,1,1.09,1.18,4.31,4.31,0,0,1-.94,1c-.36-.39-.73-.76-1.11-1.13Z"/><path class="cls-11" d="M145.41,145.28h-.14a1.93,1.93,0,0,1-2.05-1.59h0a1.76,1.76,0,0,1-.53.92,3.13,3.13,0,0,1-2,.67c-1,0-1.69-.59-1.69-2.21,0-.19,0-.47,0-.81l.62-.06a1.1,1.1,0,0,0,1.21,1.18,3.47,3.47,0,0,0,1.4-.33c.35-.16.6-.34.6-.63a15,15,0,0,0-.82-3.18,10.72,10.72,0,0,1,.88-1.31l.16,0c.24.87.48,2,.82,3.82.19,1.09.69,1.58,1.45,1.58h.14Z"/><path class="cls-11" d="M150.35,142.09a7.94,7.94,0,0,0-2.42-.51,1.47,1.47,0,0,0-.79.17l-.43,1h-.19l-.62-1.21a2,2,0,0,1,2.07-1.7,8.21,8.21,0,0,1,2.64.66,6.18,6.18,0,0,0,2.35.44h.71V141a10.63,10.63,0,0,1-.79,1.32,2.15,2.15,0,0,0-1.62.57,7.35,7.35,0,0,1-5.74,2.37h-.13c-.46,0-.67-.49-.67-.95s.21-1,.67-1h.13a8.06,8.06,0,0,0,4.82-1.25Z"/><path class="cls-11" d="M157.51,144.67a1.93,1.93,0,0,1-2.2-1.93,3.11,3.11,0,0,1,.75-2.1,2.29,2.29,0,0,1,1.6-.88c1.06,0,2,1.59,2,3.84a5.6,5.6,0,0,1-1,3.3,2.87,2.87,0,0,1-2.23,1.44,5.21,5.21,0,0,1-2.84-1.07l.2-.52a3.14,3.14,0,0,0,1.11.22,4,4,0,0,0,2.35-.89,4.48,4.48,0,0,0,1.37-1.54A4,4,0,0,1,157.51,144.67Zm-.3-3.32c-.65,0-1.06.37-1.06.69s.74.89,1.76.89a6.06,6.06,0,0,0,.79-.05C158.46,142,157.79,141.35,157.21,141.35Z"/><path class="cls-11" d="M173.42,142.7a2.22,2.22,0,0,1-.91,1.19A1.25,1.25,0,0,1,173,145a4.27,4.27,0,0,1-.42,1.74,5.67,5.67,0,0,1-4.32,2.09c-2,0-3.21-1.57-3.21-3.56a8,8,0,0,1,.63-3.11l.53.23a5.76,5.76,0,0,0-.34,1.75,2.48,2.48,0,0,0,2.63,2.73,6.29,6.29,0,0,0,3.6-1.33A6.16,6.16,0,0,0,169,145l-.09-.14.63-1.4a6.8,6.8,0,0,0,3-1,1.44,1.44,0,0,0,.79-1.57c0-1.37-.09-2.87-.24-4.44a10.5,10.5,0,0,1,1-1.06l.13.09c.16,1.86.17,3.62.17,5.26v1c0,1.05.41,1.66,1.49,1.66v1.9h-.13c-1.24,0-2.12-.62-2.27-2.58Z"/><path class="cls-11" d="M181.13,141a2.39,2.39,0,0,0-1.44-.55,2.35,2.35,0,0,0-1.83.6,2,2,0,0,0,.65,1,1.88,1.88,0,0,0,1.18.56,10.34,10.34,0,0,0,2.7-.72l.13.15c-.23.57-.47,1.14-.76,1.71a31.91,31.91,0,0,1-3.24,1,8.06,8.06,0,0,1-2.51.5h-.13c-.46,0-.67-.49-.67-.95s.21-1,.67-1H176a6.74,6.74,0,0,0,1.31-.09v0a2,2,0,0,1-.67-1.49,2.94,2.94,0,0,1,.55-1.58,2.51,2.51,0,0,1,2-1.24c1,0,1.65.63,2.21,1.72Z"/><path class="cls-11" d="M191.38,142.09c1.26-1.47,2.55-2.43,3.84-2.43A2.18,2.18,0,0,1,197.4,142a3.81,3.81,0,0,1-.78,2.07c-.9.81-2.86,1.2-5,1.2a12.19,12.19,0,0,1-1.37-.05,14,14,0,0,0-.88,1.16l-.16-.19.18-1.07-.48,0q-.88-.95-1.68-1.92l.05-.11c1,.15,2,.25,2.91.33l.29-.42a15.41,15.41,0,0,0,.12-2.31c0-1-.06-1.93-.15-3.06,0-.43-.14-.87-.14-1.29s.23-.83,1-1.43l.12.06a5,5,0,0,0,1.05,2.58l-.83.62c0,.79,0,1.51,0,1.94a5.23,5.23,0,0,1-.35,2Zm4.92.39a1.62,1.62,0,0,0-1.53-1.09c-1,0-2.14.65-3.52,2C193.77,143.41,195.51,143.1,196.3,142.48Zm-2-5.87a7.59,7.59,0,0,1,1.14,1.12,3.84,3.84,0,0,1-.87,1c-.38-.37-.77-.71-1.17-1.06Z"/><path class="cls-11" d="M201.62,145.28h-.16c-1.29,0-2.23-.65-2.25-2.51,0-1.08-.1-3.88-.35-6.23.36-.38.73-.73,1.1-1l.13.06a41.07,41.07,0,0,1,.17,4.27c0,1,0,1.5,0,2.28,0,1,.38,1.28,1.25,1.28h.13Z"/><path class="cls-11" d="M201.75,143.38a6.17,6.17,0,0,0,1.21-.11,5.44,5.44,0,0,1-.15-1.26,3.36,3.36,0,0,1,1.1-2.51,2.22,2.22,0,0,1,1.43-.75,1.17,1.17,0,0,1,.94.61,3.28,3.28,0,0,1,.56,1.93,4.56,4.56,0,0,1-.5,2,12.25,12.25,0,0,0,1.39.12h.13v1.9h-.13a8.05,8.05,0,0,1-3.31-.59,5.75,5.75,0,0,1-2.67.59h-.13c-.46,0-.66-.49-.66-.95s.2-1,.66-1Zm3-.44c.83-.25,1.35-.71,1.35-1s-.48-1.36-1.12-1.36a1.93,1.93,0,0,0-1.51,1.26C203.55,142.31,204,142.69,204.73,142.94Zm-.08-7.25A10,10,0,0,1,206,136.8a3.18,3.18,0,0,1-.86,1.17,15.93,15.93,0,0,0-1.38-1.05Z"/><path class="cls-11" d="M212.8,142.09a7.89,7.89,0,0,0-2.41-.51,1.45,1.45,0,0,0-.79.17l-.44,1H209l-.62-1.21a2,2,0,0,1,2.07-1.7,8.15,8.15,0,0,1,2.64.66,6.21,6.21,0,0,0,2.35.44h.71l0,.08a12,12,0,0,1-.79,1.32,2.18,2.18,0,0,0-1.64.57,7.31,7.31,0,0,1-5.72,2.37h-.14c-.45,0-.66-.49-.66-.95s.21-1,.66-1H208a8,8,0,0,0,4.81-1.25Zm1.8.48.05.05c.07.71.83.76,1.66.76h.13v1.9h-.13a2.62,2.62,0,0,1-1.74-.39,1.75,1.75,0,0,1-.51-1.34,5.24,5.24,0,0,1,0-.56Z"/><path class="cls-11" d="M218.88,135.56a5.61,5.61,0,0,0,1.05,2.55l-.85.64c0,.74.06,1.63.06,2.56a6.2,6.2,0,0,1-.35,2.11,4.94,4.94,0,0,1-.48,1,2,2,0,0,1-1.74.85h-.13c-.46,0-.67-.49-.67-.95s.21-1,.67-1h.13a1.87,1.87,0,0,0,1.35-.39c.16-.16.16-.43.16-.94,0-2.37-.31-4.49-.31-5a1.35,1.35,0,0,1,.26-.89,3.62,3.62,0,0,1,.74-.71Z"/><path class="cls-11" d="M221.25,145.4a15.66,15.66,0,0,0,.12-2.3,56,56,0,0,0-.32-6.18,13.41,13.41,0,0,1,1.11-1.21l.16.08c.19,2.06.22,4,.22,5.83a7.44,7.44,0,0,1-.3,2.82,7.08,7.08,0,0,1-.78,1.11Z"/><path class="cls-12" d="M121,160.43v1.9h-.51a3.71,3.71,0,0,1,0,.47,3.28,3.28,0,0,1-.49,1.38,7,7,0,0,1-4.4,1.74,3.33,3.33,0,0,1-3.55-3.67,8.18,8.18,0,0,1,1.06-3.66l.53.26a5.91,5.91,0,0,0-.59,2.22A2.63,2.63,0,0,0,116,164a6.11,6.11,0,0,0,3.6-1.14c-.36-.41-1.36-.59-2.77-.65l-.13-.17.89-1.56Zm-6.35,6.15a9.15,9.15,0,0,1,1.31,1.19,7.2,7.2,0,0,1-.9,1.15c-.45-.42-.89-.82-1.34-1.17Zm2.25-.15a9.72,9.72,0,0,1,1.31,1.19,7.2,7.2,0,0,1-.9,1.15A15.88,15.88,0,0,0,116,167.6Z"/><path class="cls-12" d="M125.49,162.33h-.12a2.25,2.25,0,0,1-2.18-1h0a2.42,2.42,0,0,1-2,1H121c-.45,0-.66-.49-.66-1s.21-.95.66-.95h.14a2.25,2.25,0,0,0,1.29-.32c.52-.33.57-.94.78-1.37.22-.16.47-.33.76-.5l.07.06a3.9,3.9,0,0,0-.18.87,1,1,0,0,0,.47,1,1.82,1.82,0,0,0,1,.28h.12Zm-2.61-7.23a9.38,9.38,0,0,1,1.36,1.11,3.28,3.28,0,0,1-.85,1.17c-.4-.34-.87-.69-1.39-1Z"/><path class="cls-12" d="M127.65,159.14c1.26-1.47,2.55-2.43,3.83-2.43a2.18,2.18,0,0,1,2.18,2.35,3.79,3.79,0,0,1-.77,2.07c-.89.8-2.78,1.2-7.27,1.2h-.13c-.46,0-.67-.49-.67-1s.21-.95.67-.95h1l.29-.42a15.41,15.41,0,0,0,.12-2.31c0-.95-.06-1.93-.15-3.06,0-.43-.14-.87-.14-1.29s.23-.83,1-1.43l.12.06a4.86,4.86,0,0,0,1.05,2.58l-.83.62c0,.78,0,1.51,0,1.94a5.23,5.23,0,0,1-.35,2Zm4.92.39a1.62,1.62,0,0,0-1.53-1.09c-1,0-2.15.62-3.53,2C130,160.43,131.78,160.15,132.57,159.53Z"/><path class="cls-12" d="M140.64,160.43v1.9h-.72c-.4,1.73-1.6,3.48-3.08,3.48a5.11,5.11,0,0,1-2.8-1.06l.22-.5a2.9,2.9,0,0,0,1.16.26,4,4,0,0,0,2.38-1,3.79,3.79,0,0,0,1.11-1.2h-.27c-1.82,0-3-.58-3-2.29a2.85,2.85,0,0,1,.72-1.89,2,2,0,0,1,1.53-.85c1.06,0,1.75,1.15,2.13,3.13Zm-3.24-1.58a.93.93,0,0,0-1,.69c0,.56,1,.92,2.22.92a2.22,2.22,0,0,0,.37,0C138.68,159.48,138.13,158.85,137.4,158.85Z"/><path class="cls-12" d="M143.08,152.61a5.61,5.61,0,0,0,1,2.55l-.85.64c0,.74.06,1.63.06,2.56a6.19,6.19,0,0,1-.36,2.11,4.44,4.44,0,0,1-.47,1,2,2,0,0,1-1.74.85h-.14c-.45,0-.66-.49-.66-1s.21-.95.66-.95h.14a1.87,1.87,0,0,0,1.35-.39c.16-.16.16-.43.16-.94,0-2.37-.31-4.49-.31-5a1.4,1.4,0,0,1,.25-.89,3.45,3.45,0,0,1,.75-.71Z"/><path class="cls-12" d="M145.45,162.45a17.19,17.19,0,0,0,.12-2.3,56.3,56.3,0,0,0-.32-6.19c.38-.45.74-.85,1.1-1.2l.16.08c.19,2.06.22,4,.22,5.83a7.52,7.52,0,0,1-.29,2.82,7.08,7.08,0,0,1-.78,1.11Z"/><path class="cls-12" d="M152.72,163.6c0,1.07,1.58,2.31,4.32,2.31a16.15,16.15,0,0,0,2.62-.23l.1.18a19.66,19.66,0,0,1-2.23,1.72,7.17,7.17,0,0,1-1.56.17c-2.26,0-4.17-1.22-4.17-3.44,0-1.53.93-2.93,2.69-4.15-.79-.75-1.17-1.36-1.65-1.36a1.77,1.77,0,0,0-.46.07l-.08-.1.55-1.56a14.69,14.69,0,0,1,3.12-.43,7.72,7.72,0,0,1,2.81.48c-.07.47-.15.93-.27,1.45-.47.45-1,.92-1.5,1.38v0a5.8,5.8,0,0,0,2.4.31h.13v1.9h-.13a5.27,5.27,0,0,1-3.74-1.18C153.94,161.93,152.72,162.92,152.72,163.6Zm4.88-5.1v-.05a6.89,6.89,0,0,0-1.72-.2,8.29,8.29,0,0,0-1.58.14v.05c.49.41,1,.86,1.56,1.27A15.66,15.66,0,0,0,157.6,158.5Z"/><path class="cls-12" d="M162,156.65a6.21,6.21,0,0,1,1,2.66,4,4,0,0,1-.39,1.73,2,2,0,0,1-.94,1,4.63,4.63,0,0,1-1.92.32h-.13c-.46,0-.67-.49-.67-1s.21-.95.67-.95h.21a3.82,3.82,0,0,0,2.07-.37,8.53,8.53,0,0,0-.93-1.94,13.78,13.78,0,0,1,1-1.49ZM160.4,164a7.81,7.81,0,0,1,1.09,1.18,4.27,4.27,0,0,1-.93,1c-.37-.39-.74-.76-1.12-1.13Zm2-.08a7.81,7.81,0,0,1,1.09,1.18,4.48,4.48,0,0,1-.93,1c-.37-.39-.74-.76-1.12-1.13Z"/><path class="cls-12" d="M179.18,162.33H179a2.28,2.28,0,0,1-2.16-.88h0a2.19,2.19,0,0,1-1.63.88,1,1,0,0,1-1-.78h0a1.91,1.91,0,0,1-1.52.78c-.91,0-1.38-.6-1.5-1.71a12.76,12.76,0,0,0-1.83.66v.25c0,.27,0,.55,0,.82a4.24,4.24,0,0,1,0,.57,3.27,3.27,0,0,1-.73,2,2.62,2.62,0,0,1-1.94,1.2,4.7,4.7,0,0,1-2.59-1l.23-.48a3.38,3.38,0,0,0,1.07.17,3.92,3.92,0,0,0,2.41-1.16,2.47,2.47,0,0,0,.75-1.12c0-.2-.33-.56-.72-1l.41-1.68a20.88,20.88,0,0,1,3.76-1.17l.08.06a2.24,2.24,0,0,0-.1.68,1,1,0,0,0,1,1,1.16,1.16,0,0,0,.9-.37,4,4,0,0,0,.57-1.24c.27-.14.53-.27.81-.39l.09.12a4.26,4.26,0,0,0-.35,1.32c0,.33.1.56.5.56a1,1,0,0,0,.82-.39,3.7,3.7,0,0,0,.63-1.46,7.92,7.92,0,0,1,.78-.44l.09.06a5,5,0,0,0-.3,1.21c0,.75.6,1,1.55,1h.14Zm-5.38-7.24a7.59,7.59,0,0,1,1.14,1.12,3.85,3.85,0,0,1-.88,1c-.38-.37-.77-.71-1.17-1.07Zm.81-2.1a8.71,8.71,0,0,1,1.14,1.13,4,4,0,0,1-.88,1c-.38-.38-.77-.72-1.17-1.07Zm1.27,2a8.24,8.24,0,0,1,1.15,1.13,4.22,4.22,0,0,1-.88,1c-.38-.38-.77-.72-1.17-1.07Z"/><path class="cls-12" d="M183.62,162.33h-.12a2.25,2.25,0,0,1-2.18-1h0a2.39,2.39,0,0,1-2,1h-.13c-.46,0-.67-.49-.67-1s.21-.95.67-.95h.13a2.23,2.23,0,0,0,1.29-.32c.53-.33.58-.94.79-1.37a6.69,6.69,0,0,1,.76-.5l.06.06a3.9,3.9,0,0,0-.18.87,1,1,0,0,0,.47,1,1.83,1.83,0,0,0,1,.28h.11Zm-3.42-7a7.85,7.85,0,0,1,1.09,1.19,4.48,4.48,0,0,1-.93,1c-.37-.39-.74-.77-1.12-1.14Zm2-.08a7.81,7.81,0,0,1,1.09,1.18,4.27,4.27,0,0,1-.93,1c-.37-.39-.74-.76-1.12-1.13Z"/><path class="cls-12" d="M186.07,152.61a5.69,5.69,0,0,0,1,2.55l-.84.64c0,.74,0,1.63,0,2.56a6.2,6.2,0,0,1-.35,2.11,4.47,4.47,0,0,1-.48,1,2,2,0,0,1-1.74.85h-.13c-.46,0-.67-.49-.67-1s.21-.95.67-.95h.13a1.85,1.85,0,0,0,1.35-.39c.17-.16.17-.43.17-.94,0-2.37-.32-4.49-.32-5a1.4,1.4,0,0,1,.26-.89,3.62,3.62,0,0,1,.74-.71Z"/><path class="cls-12" d="M188.43,162.45a15.53,15.53,0,0,0,.13-2.3,56.33,56.33,0,0,0-.33-6.19c.39-.45.75-.85,1.11-1.2l.16.08c.19,2.06.22,4,.22,5.83a7.44,7.44,0,0,1-.3,2.82,6.47,6.47,0,0,1-.78,1.11Z"/><path class="cls-12" d="M197,161.61c-1,0-1.84-.33-1.84-1.35a3.4,3.4,0,0,1,.39-1.47,6.26,6.26,0,0,1,2.79-2.57l0-.5c.31-.31.62-.6.94-.89l.16,0c0,.94.05,2.08.05,3.52,0,.8,0,1.41.29,1.7a1.38,1.38,0,0,0,1.08.33H201v1.9h-.14c-1.17,0-1.68-.21-2.09-1.07A4.91,4.91,0,0,1,197,161.61Zm.08-9.38a7.81,7.81,0,0,1,1.09,1.18,4.11,4.11,0,0,1-.94,1c-.36-.39-.73-.76-1.11-1.13Zm1.4,5.48c-1.35.63-2.22,1.3-2.22,1.69s.46.45,1,.45a4.28,4.28,0,0,0,1.28-.2C198.56,158.9,198.54,158.23,198.52,157.71Zm.61-5.56a7.81,7.81,0,0,1,1.09,1.18,4.31,4.31,0,0,1-.94,1c-.36-.39-.73-.76-1.11-1.13Z"/><path class="cls-12" d="M203.42,156.65a6.07,6.07,0,0,1,1,2.66A3.9,3.9,0,0,1,204,161a2,2,0,0,1-.93,1,4.69,4.69,0,0,1-1.92.32H201c-.46,0-.66-.49-.66-1s.2-.95.66-.95h.21a3.84,3.84,0,0,0,2.08-.37,8.71,8.71,0,0,0-.94-1.94,13.76,13.76,0,0,1,1-1.49ZM201.87,164a7.23,7.23,0,0,1,1.08,1.18,4.06,4.06,0,0,1-.93,1c-.36-.39-.73-.76-1.11-1.13Zm2-.08a7.23,7.23,0,0,1,1.08,1.18,4.26,4.26,0,0,1-.93,1c-.36-.39-.73-.76-1.11-1.13Z"/><path class="cls-12" d="M212.13,160.43v1.9h-.71c-.4,1.73-1.6,3.48-3.09,3.48a5.11,5.11,0,0,1-2.8-1.06l.22-.5a2.9,2.9,0,0,0,1.16.26,4,4,0,0,0,2.38-1,3.56,3.56,0,0,0,1.11-1.2h-.27c-1.82,0-3-.58-3-2.29a2.81,2.81,0,0,1,.73-1.89,2,2,0,0,1,1.52-.85c1.07,0,1.75,1.15,2.13,3.13Zm-3.24-1.58a.93.93,0,0,0-1,.69c0,.56,1,.92,2.22.92a2.13,2.13,0,0,0,.37,0C210.17,159.48,209.63,158.85,208.89,158.85Z"/><path class="cls-12" d="M216.22,162.33h-.13a2,2,0,0,1-2-1.06h0a2,2,0,0,1-1.8,1.06h-.14c-.45,0-.66-.49-.66-1s.21-.95.66-.95h.21c1,0,1.4-.47,1.4-1.28,0-1.71-.1-3.84-.28-5.63a12.06,12.06,0,0,1,1.07-1l.13.05a40.94,40.94,0,0,1,.16,4.27c0,1,0,1.85,0,2.29,0,.9.24,1.29,1.24,1.29h.19Z"/><path class="cls-12" d="M221.47,158.07a2.39,2.39,0,0,0-1.44-.55,2.35,2.35,0,0,0-1.83.6,2,2,0,0,0,.65,1,1.88,1.88,0,0,0,1.18.56,10.34,10.34,0,0,0,2.7-.72l.13.15c-.23.57-.47,1.14-.76,1.71a31.16,31.16,0,0,1-3.24,1,8.06,8.06,0,0,1-2.51.5h-.13c-.46,0-.67-.49-.67-1s.21-.95.67-.95h.13a6.74,6.74,0,0,0,1.31-.09v0a2,2,0,0,1-.67-1.49,2.94,2.94,0,0,1,.55-1.58,2.51,2.51,0,0,1,2-1.24c1,0,1.65.63,2.21,1.72Z"/><path class="cls-13" d="M143.06,57.41A4.87,4.87,0,0,1,141.11,60a2.68,2.68,0,0,1,1.07,2.42,9.41,9.41,0,0,1-.9,3.76A12.24,12.24,0,0,1,132,70.64c-4.32,0-6.91-3.37-6.91-7.65a17.23,17.23,0,0,1,1.36-6.71l1.15.49a12.21,12.21,0,0,0-.74,3.78c0,3.77,2.29,5.88,5.68,5.88a13.62,13.62,0,0,0,7.75-2.87c-1-.78-3.42-1.13-6.71-1.17l-.18-.3,1.35-3a14.73,14.73,0,0,0,6.38-2.15c1.5-1.11,1.7-1.42,1.7-3.37,0-2.95-.2-6.19-.53-9.57a22.18,22.18,0,0,1,2.26-2.28l.26.19c.35,4,.37,7.81.37,11.34V55.3c0,2.25.88,3.57,3.22,3.57V63h-.29c-2.66,0-4.57-1.36-4.9-5.56ZM129.73,72.05a20.67,20.67,0,0,1,2.83,2.57,16.75,16.75,0,0,1-1.95,2.48,34.87,34.87,0,0,0-2.89-2.53Zm4.84-.33a20.67,20.67,0,0,1,2.83,2.57,16.75,16.75,0,0,1-2,2.48,36.66,36.66,0,0,0-2.89-2.52Z"/><path class="cls-13" d="M156.57,58.87V63h-8.2c-1,0-1.43-1.07-1.43-2s.45-2.05,1.43-2.05Z"/><path class="cls-13" d="M164.78,58.87V63h-8.21c-1,0-1.43-1.07-1.43-2s.45-2.05,1.43-2.05Z"/><path class="cls-13" d="M173,58.87V63h-8.2c-1,0-1.44-1.07-1.44-2s.45-2.05,1.44-2.05Z"/><path class="cls-13" d="M181.18,58.87V63H173c-1,0-1.44-1.07-1.44-2s.46-2.05,1.44-2.05Z"/><path class="cls-13" d="M189.39,58.87V63h-8.21c-1,0-1.43-1.07-1.43-2s.45-2.05,1.43-2.05Z"/><path class="cls-13" d="M197.59,58.87V63h-8.2c-1,0-1.44-1.07-1.44-2s.45-2.05,1.44-2.05Z"/><path class="cls-13" d="M208.25,56.08A17.52,17.52,0,0,0,203,55a3.06,3.06,0,0,0-1.7.37l-.94,2.15H200l-1.33-2.6a4.26,4.26,0,0,1,4.47-3.67,17.7,17.7,0,0,1,5.68,1.41,13.24,13.24,0,0,0,5.06,1h1.52l0,.16a25.83,25.83,0,0,1-1.7,2.85,4.67,4.67,0,0,0-3.53,1.23c-3.63,3.28-6.33,5.11-12.32,5.11h-.29c-1,0-1.44-1.07-1.44-2s.46-2.05,1.44-2.05h.29c4.34,0,7.13-.64,10.37-2.69Zm3.88,1,.1.11c.15,1.53,1.79,1.64,3.57,1.64h.29V63h-.29c-2,0-3.14-.29-3.75-.84a3.84,3.84,0,0,1-1.09-2.9c0-.41,0-.79,0-1.21Z"/><path class="cls-13" d="M220.83,61.45A6.77,6.77,0,0,1,216.37,63h-.28c-1,0-1.44-1.07-1.44-2s.45-2.05,1.44-2.05h.28a9.44,9.44,0,0,0,4.33-.82c-.18-3.24-.33-6.46-.47-9.7,0-1-.29-2.22-.29-3a3,3,0,0,1,.56-1.91,8.49,8.49,0,0,1,1.6-1.54l.24.17c0,1.35.78,3,2.26,5.47l-1.87,1.42c0,4.29.1,6.3.23,7.87a6.72,6.72,0,0,1,2.34-.49c2.07,0,3.93,1.64,3.93,4.72,0,1.8-1.17,4.84-4.14,4.84-1.87,0-3.57-1.48-4.2-4.41Zm5.63,1.19a1.17,1.17,0,0,0,.89-.33,2.84,2.84,0,0,0-2.79-2.71,4.45,4.45,0,0,0-1.44.27A3.73,3.73,0,0,0,226.46,62.64Z"/><path class="cls-13" d="M232.66,63.21a35.75,35.75,0,0,0,.26-4.94,122.23,122.23,0,0,0-.69-13.33,34.76,34.76,0,0,1,2.38-2.6l.35.18c.41,4.43.47,8.57.47,12.55,0,3.22-.19,5.37-.64,6.07a14.43,14.43,0,0,1-1.68,2.4Z"/><path class="cls-13" d="M259.42,67.31a8.05,8.05,0,0,1-6.23,2.94c-4.19,0-6.26-3.2-6.26-6.93a11.63,11.63,0,0,1,1.7-6l1.11.55a8.78,8.78,0,0,0-1,3.41,4.29,4.29,0,0,0,1.45,3.61,5.61,5.61,0,0,0,3.43,1.16,6.94,6.94,0,0,0,4-1.29,3.8,3.8,0,0,0,1.8-2,11.51,11.51,0,0,0-2.23-5.23,31.93,31.93,0,0,1,1.94-3.38l.23,0c.51,1.07,1,2.19,1.46,3.38.34.82.59,1.3,1.53,1.3a2.28,2.28,0,0,0,1.6-.78,7.25,7.25,0,0,0,1.23-2.63c.6-.35,1.21-.7,1.85-1l.14.14a17.86,17.86,0,0,0-.82,3,1.46,1.46,0,0,0,.21.89,1.06,1.06,0,0,0,.86.41,2.56,2.56,0,0,0,2.07-1.07,9.58,9.58,0,0,0,1.23-3l1.54-.94.2.14a11.23,11.23,0,0,0-.55,2.55c0,1,.23,1.43.76,1.76a5.16,5.16,0,0,0,2.6.58h.29V63h-.29c-2.13,0-4.14-.58-4.63-2h-.06a5,5,0,0,1-3.47,2,2.5,2.5,0,0,1-2.46-1.68h-.08A4.17,4.17,0,0,1,261,63.07,9,9,0,0,1,259.42,67.31Z"/><path class="cls-13" d="M283.8,58.87V63h-8.2c-1,0-1.43-1.07-1.43-2s.45-2.05,1.43-2.05Z"/><path class="cls-13" d="M292,58.87V63H283.8c-1,0-1.43-1.07-1.43-2s.45-2.05,1.43-2.05Z"/><path class="cls-13" d="M300.21,58.87V63H292c-1,0-1.44-1.07-1.44-2s.45-2.05,1.44-2.05Z"/><path class="cls-13" d="M308.41,58.87V63h-8.2c-1,0-1.44-1.07-1.44-2s.46-2.05,1.44-2.05Z"/><path class="cls-13" d="M317.23,63h-.29a4.35,4.35,0,0,1-4.28-2.3h-.08A4.34,4.34,0,0,1,308.7,63h-.29c-1,0-1.43-1.07-1.43-2s.45-2.05,1.43-2.05h.45c2.1,0,3-1,3-2.75,0-3.69-.23-8.29-.62-12.14a28.24,28.24,0,0,1,2.32-2.14l.27.13a85.77,85.77,0,0,1,.35,9.18c0,2.16,0,4,0,4.93,0,1.94.51,2.79,2.66,2.79h.41Z"/><path class="cls-13" d="M327.9,56.08A17.58,17.58,0,0,0,322.69,55a3.08,3.08,0,0,0-1.71.37L320,57.51h-.41l-1.33-2.6a4.26,4.26,0,0,1,4.47-3.67,17.7,17.7,0,0,1,5.68,1.41,13.25,13.25,0,0,0,5.07,1H335l0,.16a25.83,25.83,0,0,1-1.7,2.85,4.68,4.68,0,0,0-3.53,1.23c-3.63,3.28-6.33,5.11-12.32,5.11h-.29c-1,0-1.43-1.07-1.43-2s.45-2.05,1.43-2.05h.29c4.35,0,7.14-.64,10.38-2.69Zm-3.22,9.12a21.81,21.81,0,0,1,2.93,2.4,7.06,7.06,0,0,1-1.85,2.52c-.84-.73-1.86-1.49-3-2.27Zm7.09-8.08.1.11c.15,1.53,1.79,1.64,3.57,1.64h.29V63h-.29c-2,0-3.13-.29-3.75-.84a3.84,3.84,0,0,1-1.09-2.9c0-.41,0-.79,0-1.21Z"/><path class="cls-13" d="M340.47,61.45A6.76,6.76,0,0,1,336,63h-.29c-1,0-1.44-1.07-1.44-2s.46-2.05,1.44-2.05H336a9.4,9.4,0,0,0,4.32-.82c-.18-3.24-.32-6.46-.47-9.7,0-1-.28-2.22-.28-3a3,3,0,0,1,.55-1.91,8.49,8.49,0,0,1,1.6-1.54L342,42c0,1.35.78,3,2.26,5.47l-1.87,1.42c.05,4.29.11,6.3.23,7.87a6.72,6.72,0,0,1,2.34-.49c2.07,0,3.94,1.64,3.94,4.72,0,1.8-1.17,4.84-4.15,4.84-1.86,0-3.57-1.48-4.2-4.41Zm5.64,1.19a1.16,1.16,0,0,0,.88-.33,2.84,2.84,0,0,0-2.79-2.71,4.5,4.5,0,0,0-1.44.27A3.74,3.74,0,0,0,346.11,62.64Z"/><path class="cls-13" d="M352.3,63.21a34.11,34.11,0,0,0,.27-4.94,122.25,122.25,0,0,0-.7-13.33,34.76,34.76,0,0,1,2.38-2.6l.35.18c.41,4.43.47,8.57.47,12.55,0,3.22-.19,5.37-.64,6.07a14.43,14.43,0,0,1-1.68,2.4Z"/></svg>