<svg id="Layer_1" data-name="Layer 1" xmlns="http://www.w3.org/2000/svg" viewBox="0 0 480 638"><defs><style>.cls-1,.cls-4{fill:#fff;stroke:#7b9eb2;stroke-width:1.5px;}.cls-1,.cls-2{stroke-miterlimit:10;}.cls-2,.cls-3{fill:#7b9eb2;}.cls-2{stroke:#fff;}.cls-4{stroke-linejoin:round;}.cls-5{fill:#046080;}.cls-6{fill:#b6cccf;}</style></defs><rect class="cls-1" x="42.11" y="212.72" width="102.9" height="150.83" rx="15.59" transform="translate(-95.64 51.53) rotate(-20.66)"/><path class="cls-2" d="M111.22,217.08a2.6,2.6,0,0,1,1.7.49,7.64,7.64,0,0,1,1.65,3,8.61,8.61,0,0,1,.67,3.08,3.22,3.22,0,0,1-.88,2.13,6.37,6.37,0,0,1-2.49,1.55,6.18,6.18,0,0,1-3.17.48,3.25,3.25,0,0,1-2-1,10.84,10.84,0,0,1-1.53-3l-.47-1.25,3.93-1.48,1,2.56a4.47,4.47,0,0,0,.61,1.25.57.57,0,0,0,.65.07.62.62,0,0,0,.47-.57,7.07,7.07,0,0,0-.55-1.88l-.41-1.09a3.4,3.4,0,0,0-.7-1.25,1.12,1.12,0,0,0-.81-.32,6.72,6.72,0,0,0-1.6.43l-.86-2.28a8.28,8.28,0,0,0,1.69-.76.82.82,0,0,0,.3-.65,3.44,3.44,0,0,0-.28-1.18l-.33-.87a2.55,2.55,0,0,0-.58-1,.64.64,0,0,0-.63-.06.62.62,0,0,0-.45.49,3.1,3.1,0,0,0,.29,1.24l.49,1.29L103,218l-.5-1.34c-.57-1.51-.61-2.65-.12-3.44a5.8,5.8,0,0,1,3-2c1.88-.71,3.28-.82,4.23-.34a4.67,4.67,0,0,1,2.15,2.67,4.11,4.11,0,0,1,.36,2A3.38,3.38,0,0,1,111.22,217.08Z"/><path class="cls-2" d="M80.34,355.71a2.6,2.6,0,0,1,1.7.49,7.58,7.58,0,0,1,1.65,3.05,8.32,8.32,0,0,1,.67,3.07,3.22,3.22,0,0,1-.88,2.13,7.5,7.5,0,0,1-5.65,2,3.24,3.24,0,0,1-2-1,11.06,11.06,0,0,1-1.53-3l-.47-1.24,3.93-1.48,1,2.55a4.47,4.47,0,0,0,.61,1.25.57.57,0,0,0,.65.08.64.64,0,0,0,.47-.58,6.68,6.68,0,0,0-.55-1.88l-.41-1.09a3.26,3.26,0,0,0-.7-1.24,1.09,1.09,0,0,0-.81-.33,6.9,6.9,0,0,0-1.6.44l-.86-2.29a8,8,0,0,0,1.69-.76.82.82,0,0,0,.3-.64,3.49,3.49,0,0,0-.28-1.19l-.33-.87a2.42,2.42,0,0,0-.58-1,.72.72,0,0,0-1.08.42,3.26,3.26,0,0,0,.29,1.24l.49,1.29-3.93,1.48-.5-1.34c-.57-1.5-.61-2.65-.12-3.43a5.74,5.74,0,0,1,3-2c1.87-.71,3.28-.82,4.22-.34a4.67,4.67,0,0,1,2.15,2.67,4.13,4.13,0,0,1,.36,2.05A3.41,3.41,0,0,1,80.34,355.71Z"/><path class="cls-3" d="M77.49,288.13a1.24,1.24,0,0,1-.95-1.43,1.12,1.12,0,0,1,1.33-1A1.14,1.14,0,0,1,79,287.26,1.24,1.24,0,0,1,77.49,288.13Zm-7.44,1.18a1.26,1.26,0,1,0,2.46.54,1.19,1.19,0,0,0-1-1.4C70.84,288.39,70.24,288.56,70.05,289.31Zm44.14-9.17a1.17,1.17,0,0,0-.78-1.78,1.14,1.14,0,0,0-1.46.83,1.2,1.2,0,0,0,.64,1.57A1.23,1.23,0,0,0,114.19,280.14Zm-24.32,4.35c.21-1,1.25-2.2-.3-3a1.05,1.05,0,0,0-1.55.65c-.49,1.66,1,1.77,2,2.32Zm-5.38-4.61A1.14,1.14,0,0,0,83,281.07a1,1,0,0,0,1.1,1.2,1.31,1.31,0,0,0,1.37-1A1.24,1.24,0,0,0,84.49,279.88Zm34.75,14.68c1.07.05,2.39.77,2.88-.87a1,1,0,0,0-1-1.37c-1.71-.15-1.54,1.32-1.88,2.34ZM80.51,277.48a1.16,1.16,0,0,0,.9,1.71,1.11,1.11,0,0,0,1.42-.89,1.26,1.26,0,0,0-.77-1.53A1.21,1.21,0,0,0,80.51,277.48Zm14.93,6a1.16,1.16,0,0,0-1.76.81,1.12,1.12,0,0,0,.81,1.47,1.21,1.21,0,0,0,1.56-.69A1.16,1.16,0,0,0,95.44,283.5Zm-27.1,20.41a1.09,1.09,0,0,0-1.52.7,1.08,1.08,0,0,0,.67,1.53c.69.27,1.22-.06,1.6-.73A1.19,1.19,0,0,0,68.34,303.91Zm43.89-17a1.16,1.16,0,0,0-1.65.39,1.15,1.15,0,0,0,.58,1.83,1.2,1.2,0,0,0,1.58-.61A1.18,1.18,0,0,0,112.23,286.9ZM70.92,306.68a1.09,1.09,0,0,0,.57,1.56,1.2,1.2,0,0,0,1.78-.78,1.24,1.24,0,0,0-2.35-.78Zm48.37-12c-1-.58-1.91-2-3.11-.4a1.34,1.34,0,0,0,.09,1.33c1.51,1.34,2-.46,3-1Zm3.7-7.43a1.14,1.14,0,0,0-1.58.58,1.25,1.25,0,1,0,2.31.94A1.16,1.16,0,0,0,123,287.22Zm-47.22,2.12a1.19,1.19,0,1,0,.74,1.79C76.76,290.09,76.41,289.55,75.77,289.34Zm6.92,6.73a1.2,1.2,0,0,0-2.26-.79c-.29.69.07,1.18.7,1.5A1.28,1.28,0,0,0,82.69,296.07Zm-5.51,5a1.14,1.14,0,0,0-.74-1.52,1.11,1.11,0,0,0-1.48.78,1.07,1.07,0,0,0,.71,1.49A1.15,1.15,0,0,0,77.18,301.05Zm-2.69,9.28c1,.44,1.9,1.62,3,.34a1,1,0,0,0-.28-1.62c-1.51-.82-1.94.61-2.68,1.38Zm-5.95,3.59a1.15,1.15,0,0,0,1.58-.56,1.11,1.11,0,0,0-.73-1.74,1.27,1.27,0,0,0-1.52.81A1.17,1.17,0,0,0,68.54,313.92ZM113,275a1.15,1.15,0,0,0-.93-1.68,1.13,1.13,0,0,0-1.37,1,1.1,1.1,0,0,0,.8,1.45A1.15,1.15,0,0,0,113,275Zm-8.39-3.55a1.23,1.23,0,1,0-.53,2.4,1.16,1.16,0,0,0,1.36-1C105.44,272.24,105.26,271.65,104.58,271.45Zm14.25,5.88a1.1,1.1,0,0,0-1.39.91,1.12,1.12,0,0,0,1,1.35c.69.12,1.21-.2,1.43-1.1A1.15,1.15,0,0,0,118.83,277.33Zm-9.46-.81a1.22,1.22,0,1,0-.38,2.39,1.18,1.18,0,0,0,1.32-1C110.31,277.21,110.12,276.64,109.37,276.52Zm7.58,4.19c-.82-.06-1.49.28-1.56,1.19s.53,1.11,1.18,1.17a1.18,1.18,0,0,0,1.34-1C117.85,281.42,117.74,280.76,117,280.71Zm8.47,3.72a1.11,1.11,0,0,0-.9-1.66,1.15,1.15,0,0,0-1.38,1,1.06,1.06,0,0,0,.77,1.45A1.2,1.2,0,0,0,125.42,284.43Zm-6.74,0a1.09,1.09,0,0,0,.87,1.45,1.1,1.1,0,0,0,1.48-.83,1.17,1.17,0,0,0-.86-1.48A1.19,1.19,0,0,0,118.68,284.47ZM93.25,277.8a1.21,1.21,0,0,0-.44-1.66,1.18,1.18,0,0,0-1.83.65c-.31.69.08,1.19.65,1.56A1.21,1.21,0,0,0,93.25,277.8Zm8.48,2a1.12,1.12,0,0,0,.87,1.69,1.16,1.16,0,0,0,1.41-.91,1.11,1.11,0,0,0-.75-1.47A1.15,1.15,0,0,0,101.73,279.78ZM111,284.3a1.11,1.11,0,0,0,1.58-.51,1.18,1.18,0,0,0-.73-1.78,1.25,1.25,0,0,0-1.51.76A1.17,1.17,0,0,0,111,284.3Zm4.86.64a1.18,1.18,0,0,0-1.67.39,1.2,1.2,0,0,0,.62,1.85c.7.33,1.19-.1,1.59-.63A1.2,1.2,0,0,0,115.9,284.94Zm13,4.77a1.15,1.15,0,0,0-1.61.43,1.13,1.13,0,0,0,.6,1.78c.66.25,1.17-.13,1.61-.73A1.16,1.16,0,0,0,129,289.71Zm-34.23-8.54A1.11,1.11,0,0,0,94,279.7a1.22,1.22,0,1,0-.7,2.33A1.23,1.23,0,0,0,94.72,281.17Zm9.31,2.14a1.09,1.09,0,0,0-1.44.77,1,1,0,0,0,.84,1.38,1.23,1.23,0,0,0,1.49-.77A1.15,1.15,0,0,0,104,283.31Zm15.63,6.46a1.2,1.2,0,0,0-.72-1.54,1.25,1.25,0,1,0-.73,2.39C118.89,290.67,119.47,290.5,119.66,289.77ZM125.3,291a1.13,1.13,0,0,0-1.61.44,1.11,1.11,0,0,0,.62,1.78,1.28,1.28,0,0,0,1.57-.65A1.18,1.18,0,0,0,125.3,291ZM90,284.44c-.22,1-1.23,2.22.36,3a1.37,1.37,0,0,0,1.25-.52c.7-1.63-.75-1.86-1.71-2.4Zm-13.65-2.2a1.09,1.09,0,0,0-1.58.53,1.23,1.23,0,1,0,2.22,1A1.21,1.21,0,0,0,76.32,282.24Zm11.77,6.87c.36-.9-.18-1.46-1-1.62a1.09,1.09,0,0,0-1.39.91,1.13,1.13,0,0,0,.86,1.42A1.22,1.22,0,0,0,88.09,289.11Zm-6-2a1.1,1.1,0,0,0-1.5.7,1.17,1.17,0,0,0,.9,1.71,1.22,1.22,0,0,0,1.42-.94A1.19,1.19,0,0,0,82.12,287.08Zm32.78,2.84a1.15,1.15,0,0,0-1.42.93,1.11,1.11,0,0,0,1,1.35,1.15,1.15,0,0,0,1.41-1A1.08,1.08,0,0,0,114.9,289.92Zm-15.53-7a1,1,0,0,0-1.15.77,1.08,1.08,0,0,0,.74,1.51,1.16,1.16,0,1,0,.41-2.28ZM76.29,304.2a1.07,1.07,0,0,0-1.53.6,1.13,1.13,0,0,0,.77,1.74,1.15,1.15,0,0,0,1.45-.81A1.17,1.17,0,0,0,76.29,304.2Zm21.26-27.47a1.11,1.11,0,0,0-.81-1.43,1.08,1.08,0,0,0-1.45.74,1.06,1.06,0,0,0,.77,1.42A1.18,1.18,0,0,0,97.55,276.73ZM72.81,297.32a1.19,1.19,0,0,0-1.51.75,1,1,0,0,0,.72,1.46c.7.27,1.17-.12,1.49-.74A1.06,1.06,0,0,0,72.81,297.32Zm28-22.23a1.53,1.53,0,0,0-1.21.7,1,1,0,0,0,.78,1.46,1.14,1.14,0,0,0,1.47-.86A1.05,1.05,0,0,0,100.8,275.09ZM74.55,310.43c-1-.11-2.25-.94-2.81.68a1,1,0,0,0,.82,1.38c1.62.21,1.62-1.14,1.93-2.16Zm4.12-6.76a1.11,1.11,0,0,0,.83,1.68,1.18,1.18,0,0,0,1.47-.8c.26-.72-.13-1.16-.74-1.46A1.18,1.18,0,0,0,78.67,303.67Zm29.06-23.51a1.2,1.2,0,1,0-.81,2.26,1.19,1.19,0,0,0,1.55-.73A1.13,1.13,0,0,0,107.73,280.16Zm-2.11-4.65a1.2,1.2,0,1,0-.85,2.24,1.22,1.22,0,0,0,1.5-.72A1.17,1.17,0,0,0,105.62,275.51Zm2.52,9.1a1.06,1.06,0,0,0-1.46.79,1.16,1.16,0,0,0,.83,1.49,1.18,1.18,0,1,0,.63-2.28ZM89,273a1.19,1.19,0,0,0-1.42.92,1,1,0,0,0,.88,1.36,1.17,1.17,0,0,0,1.41-.91C90,273.67,89.67,273.14,89,273Zm-7.09,11.06a1,1,0,0,0-.45-1.31,1,1,0,0,0-1.6.45,1.12,1.12,0,1,0,2,.86ZM96.45,271.3a1.53,1.53,0,0,0-1.17.72,1,1,0,0,0,.81,1.45,1.08,1.08,0,0,0,1.41-.88A1.06,1.06,0,0,0,96.45,271.3Zm-8,6.47a1.1,1.1,0,0,0-1.48.73,1.08,1.08,0,0,0,.68,1.5c.64.23,1.22,0,1.56-1A1.08,1.08,0,0,0,88.44,277.77Zm-3,6.23a1.18,1.18,0,0,0-.49,2.3,1.13,1.13,0,0,0,1.37-.93A1.07,1.07,0,0,0,85.48,284Zm-7.57,8a1.44,1.44,0,0,0,.74,1.14,1,1,0,0,0,1.44-.83,1.09,1.09,0,0,0-.93-1.39A1,1,0,0,0,77.91,292Zm19.18-12.16a1,1,0,0,0,.64,1.24,1,1,0,0,0,1.51-.65c.25-.73-.14-1.21-.76-1.54A1.11,1.11,0,0,0,97.09,279.87Zm-25,21.8a1,1,0,0,0-1.25.6,1.07,1.07,0,0,0,.65,1.53c.74.3,1.2-.1,1.52-.73C73,302.35,72.82,301.81,72,301.67ZM77.17,295c-.73,0-1.28.39-1.23,1.11a1.55,1.55,0,0,0,.84,1.09c.68.25,1.2-.15,1.39-.86C78.18,295.57,78,295,77.17,295Zm4.24,13.93a1,1,0,0,0-.81-1.39,1.13,1.13,0,0,0-1.45.79,1,1,0,0,0,.82,1.37A1.09,1.09,0,0,0,81.41,308.88Zm-.3-8.55a1.06,1.06,0,0,0-.61-1.54.92.92,0,0,0-1.27.48,1,1,0,0,0,.59,1.52A1,1,0,0,0,81.11,300.33Zm-13.6-3.45a1,1,0,0,0,.62,1.24,1.09,1.09,0,0,0,1.54-.67,1.1,1.1,0,0,0-.73-1.52A1.18,1.18,0,0,0,67.51,296.88Zm7-2.28a1,1,0,0,0-.86-1.34.94.94,0,0,0-1.16.68,1,1,0,0,0,.88,1.37A1,1,0,0,0,74.56,294.6ZM84.38,291a1,1,0,0,0-1.53.63,1,1,0,0,0,.53,1.27,1.14,1.14,0,0,0,1.58-.62C85,291.73,85,291.23,84.38,291Z"/><rect class="cls-1" x="134.97" y="187.88" width="102.9" height="150.83" rx="15.59" transform="translate(-12.01 8.93) rotate(-2.66)"/><path class="cls-2" d="M227.27,207.72l.14,2.86-9.22.43-.11-2.4q3.78-6.88,4.48-8.52a6.14,6.14,0,0,0,.66-2.52,1.87,1.87,0,0,0-.28-1,.8.8,0,0,0-.73-.3.77.77,0,0,0-.69.4,3.14,3.14,0,0,0-.17,1.5l.08,1.6-3.76.17,0-.61a13.92,13.92,0,0,1,0-2.23,4,4,0,0,1,.65-1.64,3.61,3.61,0,0,1,1.42-1.26,5.38,5.38,0,0,1,2.17-.51,5.21,5.21,0,0,1,3.84,1.07,4.18,4.18,0,0,1,1.43,3.07,7.59,7.59,0,0,1-.58,3.09,63.16,63.16,0,0,1-3.93,7Z"/><path class="cls-2" d="M154.46,330.05l.14,2.86-9.22.43-.11-2.39q3.78-6.9,4.48-8.52a6.21,6.21,0,0,0,.66-2.52,1.74,1.74,0,0,0-.28-1,.82.82,0,0,0-.73-.31.76.76,0,0,0-.69.41,3.07,3.07,0,0,0-.17,1.49l.08,1.6-3.76.17,0-.61a12.69,12.69,0,0,1,0-2.23,3.87,3.87,0,0,1,.64-1.64,3.57,3.57,0,0,1,1.43-1.26,5.13,5.13,0,0,1,2.16-.5,5.21,5.21,0,0,1,3.84,1.06,4.17,4.17,0,0,1,1.43,3.08,7.54,7.54,0,0,1-.58,3.08,62.22,62.22,0,0,1-3.93,7Z"/><path class="cls-4" d="M206.34,279.12l.23,5s-2.38-6.47-11.31-6.15h.28l-29.74,1.38a6.58,6.58,0,0,1-6.88-6.27l-1.1-23.64a6.58,6.58,0,0,1,6.27-6.88l42.64-2a6.58,6.58,0,0,1,6.88,6.27l1.1,23.64a6.58,6.58,0,0,1-6.27,6.88l-2.18.12Z"/><path class="cls-1" d="M290.32,359l-67.66-23.75a15.59,15.59,0,0,1-9.55-19.88l39.63-112.89a15.59,15.59,0,0,1,19.87-9.55l67.67,23.75a15.59,15.59,0,0,1,9.55,19.88L310.2,349.43A15.59,15.59,0,0,1,290.32,359Z"/><path class="cls-2" d="M344.78,226.58l-5.56,15.86-4-1.39,3-8.5a16.32,16.32,0,0,0,.69-2.25.88.88,0,0,0-.29-.73,5.25,5.25,0,0,0-1.7-.81l-.39-.14.65-1.85a7.58,7.58,0,0,0,5.25-1Z"/><path class="cls-2" d="M227,311.18,221.46,327l-4-1.39,3-8.5a16.32,16.32,0,0,0,.69-2.25.87.87,0,0,0-.29-.73,5.25,5.25,0,0,0-1.7-.81l-.39-.14.65-1.85a7.63,7.63,0,0,0,5.25-1Z"/><path class="cls-1" d="M278.93,254.48a42.08,42.08,0,0,0-22.29,5.34c-2.92,1.74-3.85,3.89-2.75,7.07,8.61,24.74,32.8,32.82,54.53,20.17,2.41-1.41,3.05-3.26,2.41-6C307.6,267.21,293.31,255.23,278.93,254.48Zm2.84,30a10.86,10.86,0,0,0,1.15-21.68,10.86,10.86,0,1,0-1.15,21.68Z"/><polygon class="cls-1" points="396.86 257.29 433.99 303.92 345.07 373.33 303.68 336.21 319.15 307.12 396.86 257.29"/><path class="cls-5" d="M390.14,236.63l-103.37,79a10.37,10.37,0,0,0-1.95,14.53l49.9,65.29a10.36,10.36,0,0,0,14.53,1.94l103.37-79a10.35,10.35,0,0,0,1.94-14.52l-49.89-65.29A10.36,10.36,0,0,0,390.14,236.63Zm-58.67,92.76c1.48.1,2.92.26,4.32.47.07,1.2.06,2.4,0,3.65-1.52-.22-3-.35-4.39-.42Zm-4.1,3.51c1.48.1,2.92.26,4.31.48a31.55,31.55,0,0,1,0,3.64c-1.51-.22-3-.35-4.38-.42ZM349.65,339a26.3,26.3,0,0,1-7.87,9.61c-3,2.26-5.35,3.1-7.41,3.23a7.25,7.25,0,0,1-6.45-3.16,15,15,0,0,1-2.67-5.7l1.37-.43a9.57,9.57,0,0,0,1.29,2.52c2.14,2.8,6.14,3.37,11.78-.94,3.05-2.33,6.46-6.34,7.08-7.72a35.26,35.26,0,0,0-4.65-2.47,36.86,36.86,0,0,1-.48-4.19l.18-.16a16.8,16.8,0,0,1,5.82,3.73A11.18,11.18,0,0,1,349.65,339Zm18.5.27c-1.25-.24-2.49-.43-3.75-.61l.28-3.34a18.15,18.15,0,0,1,3.76.74A10.34,10.34,0,0,1,368.15,339.29Zm3.6-3c-1.25-.24-2.49-.43-3.74-.61l.28-3.34a18.15,18.15,0,0,1,3.76.74A10.06,10.06,0,0,1,371.75,336.27ZM378,310.63a4.86,4.86,0,0,0-2.18,3.42c-.88,5.35-2,8.79-7.15,12.74l-.24.19-.23.17c-1.61,1.24-3.37,2.05-5.59,1.09l-.06,0a5.53,5.53,0,0,1-2.16,4.84l-.25.19-.3.23c-2.41,1.84-5.11,1.89-7.92-1.66-1.62-2.09-5.93-7.4-9.85-11.58a31.28,31.28,0,0,1,.47-3.6l.34-.07a101.26,101.26,0,0,1,6.64,8c1.48,1.93,2.19,2.94,3.35,4.45,1.41,1.84,2.59,1.93,4.2.7l.25-.19.25-.19a5.09,5.09,0,0,0,1.93-2.47c.49-1.37-.32-2.62-.58-3.76.18-.61.39-1.29.68-2h.21a9.54,9.54,0,0,0,1,2,2.54,2.54,0,0,0,2.32,1.23,4.28,4.28,0,0,0,2.3-.91l.22-.16.24-.19c3.76-2.87,5.73-5.28,7.11-9.26l-.07-.1a18.66,18.66,0,0,0-5.24,2.46,3.19,3.19,0,0,0-1.21,1.46l.66,2.56-.35.27L363.85,319a4.68,4.68,0,0,1,1.33-6.25,18.62,18.62,0,0,1,5.88-2.47,13.85,13.85,0,0,0,5-2.48l1.31-1,.15.12A29.16,29.16,0,0,1,378,310.63Zm34.38-21.28c-.14,2.71-1.7,5.33-5.61,8.32-2.11,1.61-4.11,2.41-6,1.62l-.09.06a5.54,5.54,0,0,1-2.22,4.65l-.23.18-.25.19c-2.3,1.76-4.56,1.49-6.91-.82l-.08.05c1.71,4-.42,7.22-2.67,8.94a13.13,13.13,0,0,1-3.76,2.09l-.27-.35a32.32,32.32,0,0,0,4-8.18c-1.7-1.27-5.36-2.53-10-3.92-2.39-.71-4.62-1-5.45-2.11a8.76,8.76,0,0,1-1.23-2.78l.25-.19a21.94,21.94,0,0,0,6.2-.18l.34,2.06c4.82,1.83,8,2.62,10.46,5.79l.06,0a6.88,6.88,0,0,0-1.6-5.11c-1.88-2.45-4.23-5.24-7.3-8.77.16-1.26.33-2.36.53-3.27l.3-.05c2.38,2.71,5.23,6.43,8.77,11.06,2,2.6,3.85,3.4,5.59,2.07l.25-.19.24-.19c1.33-1,2-2.09,1.88-3.19a15.05,15.05,0,0,0-.82-2.84c.17-.66.32-1.34.55-2h.19a10.34,10.34,0,0,0,1,1.86,2.42,2.42,0,0,0,2.4,1.09c-.72-5.64,0-10.38,2.57-12.37,2.16-1.65,5.15-1.16,7.21,1.54A8.37,8.37,0,0,1,412.42,289.35Z"/><path class="cls-5" d="M405.47,286.42c-1.89,1.45-2.77,4.37-2.7,8.2a20.39,20.39,0,0,0,2.6-1.69c2.11-1.61,4.07-3.85,4.56-6C408.33,285.58,406.66,285.51,405.47,286.42Z"/><path class="cls-6" d="M303.55,410.13v51.13H290.79V433.85a50,50,0,0,0-.28-7.14,2.69,2.69,0,0,0-1.57-1.82q-1.28-.61-5.7-.61H282v-6q9.25-2,14-8.19Z"/><path class="cls-5" d="M122.65,433.53c-1.17,0-2.25-.41-2.25-1.66a4.08,4.08,0,0,1,.48-1.79,7.61,7.61,0,0,1,3.41-3.15l0-.62c.37-.37.76-.73,1.15-1.08l.19.06c.06,1.15.07,2.54.07,4.31,0,1,0,1.72.35,2.07a1.66,1.66,0,0,0,1.33.41h.16v2.33h-.16c-1.44,0-2.07-.27-2.57-1.31A6.22,6.22,0,0,1,122.65,433.53Zm.1-11.49a9.22,9.22,0,0,1,1.33,1.45,5.12,5.12,0,0,1-1.14,1.19c-.44-.48-.9-.93-1.36-1.39Zm1.72,6.71c-1.66.77-2.72,1.59-2.72,2.07s.56.55,1.2.55a5.13,5.13,0,0,0,1.56-.24C124.51,430.21,124.49,429.39,124.47,428.75Zm.74-6.81a9.64,9.64,0,0,1,1.33,1.44,4.93,4.93,0,0,1-1.14,1.19c-.44-.47-.9-.93-1.36-1.38Z"/><path class="cls-5" d="M127.67,432.08a6.59,6.59,0,0,0,1.48-.14,6.13,6.13,0,0,1-.19-1.54,4.09,4.09,0,0,1,1.35-3.06,2.66,2.66,0,0,1,1.76-.92,1.45,1.45,0,0,1,1.14.74,4.05,4.05,0,0,1,.69,2.36,5.66,5.66,0,0,1-.61,2.41,13.53,13.53,0,0,0,1.69.15h.16v2.33H135a10,10,0,0,1-4-.72,7.2,7.2,0,0,1-3.26.72h-.16c-.56,0-.82-.6-.82-1.16s.26-1.17.82-1.17Zm2.4-9.15a9.22,9.22,0,0,1,1.33,1.45,5.3,5.3,0,0,1-1.14,1.18c-.44-.47-.9-.93-1.37-1.38Zm1.24,8.61c1-.3,1.65-.87,1.65-1.25,0-.56-.58-1.67-1.36-1.67a2.35,2.35,0,0,0-1.85,1.54C129.87,430.78,130.43,431.23,131.31,431.54Zm1.22-8.71a8.76,8.76,0,0,1,1.33,1.44,5.34,5.34,0,0,1-1.14,1.19c-.44-.48-.9-.93-1.37-1.39Z"/><path class="cls-5" d="M140.15,434.41H140a2.48,2.48,0,0,1-2.44-1.3h0a2.47,2.47,0,0,1-2.21,1.3h-.16c-.56,0-.82-.6-.82-1.16s.26-1.17.82-1.17h.26c1.19,0,1.71-.57,1.71-1.56,0-2.1-.13-4.71-.35-6.9a13.18,13.18,0,0,1,1.32-1.21l.15.07a48.14,48.14,0,0,1,.2,5.22c0,1.22,0,2.26,0,2.8,0,1.1.3,1.58,1.52,1.58h.23Z"/><path class="cls-5" d="M146.2,431.63a5.31,5.31,0,0,0,2.56.45h.16v2.33h-.16a6.06,6.06,0,0,1-4.11-1.4,6.62,6.62,0,0,1-4.33,1.4h-.17c-.56,0-.81-.6-.81-1.16s.25-1.17.81-1.17h.5a7.16,7.16,0,0,0,2.52-.31v0c-.45-.4-.92-.84-1.43-1.35A1,1,0,0,0,141,430h-.29l0,0,.67-1.9a25.45,25.45,0,0,1,3.75-.42,8.93,8.93,0,0,1,3.3.59A17.23,17.23,0,0,1,148,430c-.61.57-1.22,1.11-1.79,1.62Zm.56-1.92a6.45,6.45,0,0,0-1.85-.26,9.34,9.34,0,0,0-1.94.18v.06a14.76,14.76,0,0,0,1.91,1.48,17.18,17.18,0,0,0,1.88-1.4Z"/><path class="cls-5" d="M154.37,434.41h-.15a2.76,2.76,0,0,1-2.67-1.27h0a2.94,2.94,0,0,1-2.44,1.27h-.16c-.56,0-.82-.6-.82-1.16s.26-1.17.82-1.17h.16a2.76,2.76,0,0,0,1.58-.39c.65-.4.7-1.15,1-1.68.27-.19.57-.4.93-.61l.08.07a4.53,4.53,0,0,0-.22,1.07,1.26,1.26,0,0,0,.57,1.2,2.35,2.35,0,0,0,1.25.34h.14Zm-4.18-8.53a9.73,9.73,0,0,1,1.33,1.45,5.14,5.14,0,0,1-1.15,1.18c-.44-.47-.89-.93-1.36-1.38Zm2.46-.11a9.73,9.73,0,0,1,1.33,1.45,5.39,5.39,0,0,1-1.15,1.19c-.44-.48-.89-.93-1.36-1.39Z"/><path class="cls-5" d="M157.06,433.55a3.78,3.78,0,0,1-2.53.86h-.16c-.56,0-.82-.6-.82-1.16s.26-1.17.82-1.17h.16a5.44,5.44,0,0,0,2.46-.46c-.1-1.85-.18-3.68-.27-5.52,0-.55-.16-1.26-.16-1.72a1.66,1.66,0,0,1,.32-1.09,4.51,4.51,0,0,1,.91-.87l.14.09a6.85,6.85,0,0,0,1.28,3.11l-1.06.81c0,2.43.06,3.58.13,4.47a3.82,3.82,0,0,1,1.32-.28c1.18,0,2.24.94,2.24,2.69,0,1-.66,2.75-2.35,2.75-1.06,0-2-.84-2.39-2.51Zm3.21.68a.67.67,0,0,0,.5-.19,1.62,1.62,0,0,0-1.59-1.54,2.49,2.49,0,0,0-.81.15A2.12,2.12,0,0,0,160.27,434.23Z"/><path class="cls-5" d="M163.79,434.55a20.87,20.87,0,0,0,.15-2.81,69.08,69.08,0,0,0-.4-7.57c.47-.56.91-1.05,1.35-1.48l.2.1c.23,2.52.27,4.87.27,7.13a9.11,9.11,0,0,1-.36,3.46,8.77,8.77,0,0,1-1,1.36Z"/><path class="cls-5" d="M181.65,434.41h-.16a2.16,2.16,0,0,1-1.79-.8h0a5.18,5.18,0,0,1-.5,1.76,4.69,4.69,0,0,1-3.71,1.91c-2.55,0-3.4-2-3.4-3.67a7.39,7.39,0,0,1,.91-3.53l.64.28a5.47,5.47,0,0,0-.5,2,2.4,2.4,0,0,0,2.53,2.6,4.25,4.25,0,0,0,3-1.44c0-.55,0-1.07,0-1.55,0-1.89-.19-5.1-.35-7.87a11,11,0,0,1,1.24-1.23l.18.09c.08,1.82.14,4.14.15,7.05a2.43,2.43,0,0,0,.42,1.61,1.55,1.55,0,0,0,1.18.49h.16Z"/><path class="cls-5" d="M184.61,427.45a7.45,7.45,0,0,1,1.18,3.26,4.88,4.88,0,0,1-.48,2.12,2.52,2.52,0,0,1-1.14,1.19,5.83,5.83,0,0,1-2.36.39h-.16c-.56,0-.81-.6-.81-1.16s.25-1.17.81-1.17h.26a4.74,4.74,0,0,0,2.54-.45,11,11,0,0,0-1.14-2.38,16.42,16.42,0,0,1,1.19-1.82Zm-.09-2.68-.32-.35a.48.48,0,0,0-.39-.16c-.47,0-.78.23-.78.41s.53.62,1.52.62c.44,0,.77,0,1.18,0l.05.11a7.6,7.6,0,0,1-.48.94,7.32,7.32,0,0,0-2.91.84l-.14-.14c.14-.3.29-.6.45-.88a1,1,0,0,1-.71-.93,2,2,0,0,1,.75-1.32,2.25,2.25,0,0,1,1.44-.61c.5,0,.83.25.83.65a1.58,1.58,0,0,1-.34.86Z"/><path class="cls-5" d="M191,434.41h-.2c-1.58,0-2.73-.8-2.76-3.08,0-1.32-.12-4.75-.42-7.62a17.94,17.94,0,0,1,1.34-1.29l.16.08a48.46,48.46,0,0,1,.21,5.22c0,1.23,0,1.84,0,2.8,0,1.17.47,1.56,1.53,1.56H191Z"/><path class="cls-5" d="M203,434.41h-.17c-1.3,0-2.25-.29-2.64-1.07h0a2.65,2.65,0,0,1-2,1.07,1.26,1.26,0,0,1-1.29-1h-.06a2.62,2.62,0,0,1-1.93,1,1.17,1.17,0,0,1-1.24-.88,3.82,3.82,0,0,1-2.43.88H191c-.56,0-.82-.6-.82-1.16s.26-1.17.82-1.17h.16a3.37,3.37,0,0,0,2.09-.52,6.12,6.12,0,0,0,1-1.24,9.87,9.87,0,0,1,1-.47l.12.12a3.3,3.3,0,0,0-.71,1.52c0,.43.24.59.61.59a1.54,1.54,0,0,0,1.11-.45,5.91,5.91,0,0,0,.84-1.52,6.29,6.29,0,0,1,.94-.46l.09.11a5.72,5.72,0,0,0-.53,1.59c0,.5.21.73.58.73a1.39,1.39,0,0,0,1.18-.59,6.68,6.68,0,0,0,.65-1.65,9.94,9.94,0,0,1,.93-.57l.08.08a5.82,5.82,0,0,0-.32,1.52c0,.82.6,1.21,1.93,1.21H203Z"/><path class="cls-5" d="M205.64,433.55a3.82,3.82,0,0,1-2.53.86h-.17c-.56,0-.81-.6-.81-1.16s.25-1.17.81-1.17h.17a5.49,5.49,0,0,0,2.46-.46c-.11-1.85-.19-3.68-.27-5.52,0-.55-.17-1.26-.17-1.72a1.72,1.72,0,0,1,.32-1.09,4.51,4.51,0,0,1,.91-.87l.14.09a6.85,6.85,0,0,0,1.28,3.11l-1.06.81c0,2.43.06,3.58.13,4.47a3.87,3.87,0,0,1,1.33-.28c1.17,0,2.24.94,2.24,2.69,0,1-.67,2.75-2.36,2.75-1.06,0-2-.84-2.39-2.51Zm3.2.68a.64.64,0,0,0,.5-.19,1.62,1.62,0,0,0-1.58-1.54,2.5,2.5,0,0,0-.82.15A2.13,2.13,0,0,0,208.84,434.23Z"/><path class="cls-5" d="M212.36,434.55a19.34,19.34,0,0,0,.15-2.81,69.08,69.08,0,0,0-.4-7.57,18.37,18.37,0,0,1,1.36-1.48l.19.1c.24,2.52.27,4.87.27,7.13a9.11,9.11,0,0,1-.36,3.46,8.67,8.67,0,0,1-.95,1.36Z"/><path class="cls-5" d="M227.64,431c-1.49,0-2.6-.62-2.6-2.26s1.24-3,2.51-3c1.71,0,2.54,3,2.55,5.21a2.65,2.65,0,0,1-.39,1.4c.73.3,1,.74,1,1.29a5.12,5.12,0,0,1-.66,2.51,7.47,7.47,0,0,1-5.29,2.42c-3.09,0-4.18-2.4-4.18-4.47a10.16,10.16,0,0,1,.75-3.7l.71.27a6.81,6.81,0,0,0-.4,2.13,3.09,3.09,0,0,0,3.37,3.37,7.46,7.46,0,0,0,4.58-1.74,11.65,11.65,0,0,0-4.15-.47l-.09-.18a16.56,16.56,0,0,1,.8-1.57c1.87-.16,2.92-.43,2.92-.88a.88.88,0,0,0-.14-.46A4.93,4.93,0,0,1,227.64,431Zm-4.13,8.36a11.61,11.61,0,0,1,1.61,1.46,9,9,0,0,1-1.11,1.41,18,18,0,0,0-1.64-1.44Zm2.75-.19a11.07,11.07,0,0,1,1.61,1.46,9.11,9.11,0,0,1-1.1,1.41,21.32,21.32,0,0,0-1.65-1.43Zm.41-17.13a11.91,11.91,0,0,1,1.67,1.36,4.12,4.12,0,0,1-1.05,1.43,20,20,0,0,0-1.69-1.29Zm.38,5.4c-.63,0-1.08.41-1.08.72s.64,1,2.84,1C228.42,428.21,227.87,427.46,227.05,427.46Z"/><path class="cls-5" d="M243.85,434.41h-.2a3.63,3.63,0,0,1-1.21-.22,4.7,4.7,0,0,1-.76,2.64,3,3,0,0,1-2.35,1.69,5.7,5.7,0,0,1-3.1-1.16l.25-.58a3.35,3.35,0,0,0,1.05.2,3.66,3.66,0,0,0,2.54-1.07,4.28,4.28,0,0,0,1.37-2.23,10.82,10.82,0,0,1-1.3-2.16,17.31,17.31,0,0,1,.83-1.72h.18c.6,1.35,1.23,2.28,2.54,2.28h.16Z"/><path class="cls-5" d="M246.55,430.22c1.31-1.39,2.75-2.53,4.23-2.53a2.76,2.76,0,0,1,2.43,1.2,3,3,0,0,1,.56,1.77,3.32,3.32,0,0,1-.36,1.42h1.4v2.33h-.17a29,29,0,0,1-4.16-.3,48,48,0,0,1-6.47.3h-.16c-.56,0-.82-.6-.82-1.16s.26-1.17.82-1.17h1l.54-.65a10.69,10.69,0,0,0,.14-1.84,40.7,40.7,0,0,0-.35-5.95c0-.89.39-1.28,1.16-1.95l.17.11a7.11,7.11,0,0,0,1.27,3.12l-1,.75c0,.78,0,1.56,0,2.54a5.87,5.87,0,0,1-.33,2Zm5.21,1.47c.38-.13.68-.27.68-.41a2.25,2.25,0,0,0-2.2-1.47c-1.24,0-2.6.91-4,2.27A23.72,23.72,0,0,0,251.76,431.69Zm-1.56-7.84a9.66,9.66,0,0,1,1.4,1.38,5,5,0,0,1-1.07,1.24c-.47-.45-.95-.87-1.44-1.3Z"/><path class="cls-5" d="M260.26,434.41h-.15a2.75,2.75,0,0,1-2.67-1.27h0a2.92,2.92,0,0,1-2.43,1.27h-.17c-.56,0-.81-.6-.81-1.16s.25-1.17.81-1.17H255a2.76,2.76,0,0,0,1.58-.39c.64-.4.7-1.15,1-1.68a10.78,10.78,0,0,1,.93-.61l.08.07a4.53,4.53,0,0,0-.22,1.07,1.26,1.26,0,0,0,.57,1.2,2.35,2.35,0,0,0,1.25.34h.14Zm-3.2-8.86a12,12,0,0,1,1.67,1.37,4.12,4.12,0,0,1-1.05,1.43,20,20,0,0,0-1.69-1.29Z"/><path class="cls-5" d="M263.22,427.45a7.53,7.53,0,0,1,1.17,3.26,4.86,4.86,0,0,1-.47,2.12,2.58,2.58,0,0,1-1.15,1.19,5.77,5.77,0,0,1-2.35.39h-.16c-.56,0-.82-.6-.82-1.16s.26-1.17.82-1.17h.25a4.74,4.74,0,0,0,2.54-.45,10.48,10.48,0,0,0-1.14-2.38,18,18,0,0,1,1.19-1.82Zm-1.9,9a9.73,9.73,0,0,1,1.33,1.45,5.35,5.35,0,0,1-1.15,1.18c-.44-.47-.89-.93-1.36-1.38Zm2.46-.1a9.22,9.22,0,0,1,1.33,1.44A5.39,5.39,0,0,1,264,439c-.44-.48-.89-.93-1.36-1.39Z"/><path class="cls-5" d="M103.34,448.22a8.26,8.26,0,0,1,1.24,3.26,5.48,5.48,0,0,1-1,2.88,14.19,14.19,0,0,1-6.33,1.44,7.38,7.38,0,0,1-4.1-1,3.61,3.61,0,0,1-1.68-3.23,7.34,7.34,0,0,1,.7-3.09l.71.25a4.53,4.53,0,0,0-.27,1.4c0,1.77,1.48,3.21,5.2,3.21a17.07,17.07,0,0,0,5.4-.92,17.6,17.6,0,0,0-1.16-2.4,20.09,20.09,0,0,1,1.13-1.82Zm-7-3.09c.58.49,1.13,1,1.64,1.5a15.67,15.67,0,0,1-1.15,1.46c-.56-.55-1.13-1-1.69-1.5Zm2.82-.15c.58.49,1.13,1,1.64,1.5a15.67,15.67,0,0,1-1.15,1.46c-.56-.55-1.13-1.05-1.69-1.5Z"/><path class="cls-5" d="M109.79,455.3h-.19c-1.59,0-2.73-.81-2.77-3.08,0-1.33-.11-4.76-.42-7.63.44-.46.89-.89,1.34-1.29l.17.08a51.26,51.26,0,0,1,.21,5.23c0,1.22,0,1.84,0,2.79,0,1.17.47,1.57,1.53,1.57h.16Z"/><path class="cls-5" d="M117.16,453v2.33H117a6.63,6.63,0,0,1-.81-.06,3,3,0,0,1,.19,1.18,2.71,2.71,0,0,1-2.47,2.72c-1.45,0-3.17-1.35-3.17-3.88-.49,0-.76,0-.95,0-.56,0-.81-.61-.81-1.17s.25-1.16.81-1.16h1.31a17,17,0,0,1,2-5.59h.19l.7,1.16a6.82,6.82,0,0,1,1.26,3.28A3.59,3.59,0,0,1,115,453Zm-2.74,4.31c.35,0,.57-.12.57-.34a1.93,1.93,0,0,0-.42-1.12,1.74,1.74,0,0,0-1.49-.69,7.88,7.88,0,0,0-1.22.11A3,3,0,0,0,114.42,457.28Zm-.35-4.78a6.52,6.52,0,0,0-1.19-2.46h0c-.38,1.09-.66,2-.9,2.93C113.28,453,114.07,452.87,114.07,452.5Z"/><path class="cls-5" d="M123.22,451.38a10.07,10.07,0,0,0-3-.62,1.77,1.77,0,0,0-1,.21l-.53,1.23h-.24l-.76-1.48a2.43,2.43,0,0,1,2.55-2.09,10.14,10.14,0,0,1,3.23.8,7.52,7.52,0,0,0,2.87.55h.87l0,.09a13.25,13.25,0,0,1-1,1.62,2.64,2.64,0,0,0-2,.7c-2.07,1.87-3.6,2.91-7,2.91h-.16c-.56,0-.82-.61-.82-1.17s.26-1.16.82-1.16h.16a9.89,9.89,0,0,0,5.9-1.53Zm-1.83,5.19a11.91,11.91,0,0,1,1.67,1.36,4.26,4.26,0,0,1-1,1.44,20,20,0,0,0-1.69-1.3Zm4-4.6.06.06c.08.88,1,.94,2,.94h.16v2.33h-.16a3.28,3.28,0,0,1-2.13-.48,2.18,2.18,0,0,1-.62-1.65c0-.23,0-.45,0-.68Z"/><path class="cls-5" d="M130.67,443.39a6.87,6.87,0,0,0,1.28,3.12l-1,.79c.05.9.07,2,.07,3.14a7.46,7.46,0,0,1-.43,2.57,5.43,5.43,0,0,1-.58,1.24,2.46,2.46,0,0,1-2.14,1.05h-.16c-.56,0-.82-.61-.82-1.17s.26-1.16.82-1.16h.16a2.31,2.31,0,0,0,1.66-.48c.2-.2.2-.53.2-1.16,0-2.9-.39-5.49-.39-6.07a1.71,1.71,0,0,1,.32-1.08,4.52,4.52,0,0,1,.91-.88Z"/><path class="cls-5" d="M133.57,455.44a21,21,0,0,0,.15-2.81,69.13,69.13,0,0,0-.4-7.58c.47-.56.91-1.05,1.35-1.48l.2.1c.24,2.52.27,4.88.27,7.14a9,9,0,0,1-.36,3.45,8.32,8.32,0,0,1-1,1.36Z"/><path class="cls-5" d="M153.84,455.3h-.18c-2,0-2.36-1.5-2.78-3.38l-.06-.24h-.06a2,2,0,0,1-1.22,1.06,7.3,7.3,0,0,1,.18,1.59,5.33,5.33,0,0,1-.52,2.52,4.92,4.92,0,0,1-3.77,2c-2.06,0-3.59-1.44-3.59-3.91a7.57,7.57,0,0,1,.61-3l.62.24a6.06,6.06,0,0,0-.24,1.49,2.57,2.57,0,0,0,2.72,2.85,4.16,4.16,0,0,0,3.25-1.62,4.49,4.49,0,0,0-1.74-2.9c.18-.7.37-1.41.58-2.11l.12,0a3.18,3.18,0,0,0,1.79,1c1,0,1.16-1.06,1.82-1.87l.21,0a20.91,20.91,0,0,0,.81,3.12,1.49,1.49,0,0,0,1.28,1h.17Zm-8.7-9.05a12.37,12.37,0,0,1,1.7,1.39,4,4,0,0,1-1.07,1.47,17.15,17.15,0,0,0-1.72-1.32Zm4.68,11.65a8.67,8.67,0,0,1,1.32,1.44,4.93,4.93,0,0,1-1.14,1.19c-.44-.48-.9-.93-1.36-1.39Zm2.46-.11a9.63,9.63,0,0,1,1.32,1.45,5.12,5.12,0,0,1-1.14,1.19c-.44-.48-.9-.94-1.36-1.39Z"/><path class="cls-5" d="M156.79,448.34a7.38,7.38,0,0,1,1.18,3.25,4.82,4.82,0,0,1-.48,2.12,2.43,2.43,0,0,1-1.14,1.19,5.58,5.58,0,0,1-2.35.4h-.17c-.56,0-.81-.61-.81-1.17s.25-1.16.81-1.16h.26c1.34,0,2.54-.27,2.54-.46a10.48,10.48,0,0,0-1.14-2.38,16.42,16.42,0,0,1,1.19-1.82Zm-.75,8.93a12.41,12.41,0,0,1,1.66,1.36,3.88,3.88,0,0,1-1,1.43,20.53,20.53,0,0,0-1.69-1.29Z"/><path class="cls-5" d="M172,448.31a12.1,12.1,0,0,1,1.22,5.15,7.46,7.46,0,0,1-.71,2.86,5.42,5.42,0,0,1-4.2,2.16,3.56,3.56,0,0,1-3.68-3.87,7.81,7.81,0,0,1,1.06-3.73l.64.33a5.37,5.37,0,0,0-.59,2.06,2.6,2.6,0,0,0,2.77,2.74,5,5,0,0,0,3.22-1.3.82.82,0,0,0,.23-.59,9.36,9.36,0,0,0-1.34-3.85,21.74,21.74,0,0,1,1.24-2Zm-3.52-3.7a10.84,10.84,0,0,1,1.9,1.5,8.33,8.33,0,0,1-1.18,1.66,20.25,20.25,0,0,0-1.9-1.48Z"/><path class="cls-5" d="M178.83,449.12a7.2,7.2,0,0,1,1.42,3.64c0,.54,0,.85,0,1.07a6,6,0,0,1-.75,3.09,3.27,3.27,0,0,1-2.64,2,6.77,6.77,0,0,1-3.2-1l.22-.62a3.76,3.76,0,0,0,4-1.27,4,4,0,0,0,1.28-2c0-.42-.44-1.23-1.56-2.91.33-.7.7-1.38,1.05-2Zm-1.33-4.2a13.11,13.11,0,0,1,1.71,1.39,4.1,4.1,0,0,1-1.08,1.47,20.74,20.74,0,0,0-1.72-1.32Z"/><path class="cls-5" d="M182.34,455.44a21,21,0,0,0,.15-2.81,69.13,69.13,0,0,0-.4-7.58,18.37,18.37,0,0,1,1.36-1.48l.19.1c.24,2.52.27,4.88.27,7.14a9,9,0,0,1-.36,3.45,7.75,7.75,0,0,1-1,1.36Z"/><path class="cls-5" d="M192.19,453v2.33h-.88c-.49,2.11-1.95,4.25-3.77,4.25a6.27,6.27,0,0,1-3.43-1.29l.27-.62a3.49,3.49,0,0,0,1.42.33,4.89,4.89,0,0,0,2.91-1.2,4.64,4.64,0,0,0,1.36-1.47h-.33c-2.23,0-3.71-.71-3.71-2.81a3.47,3.47,0,0,1,.89-2.32,2.48,2.48,0,0,1,1.86-1c1.31,0,2.15,1.41,2.62,3.84Zm-4-1.94a1.13,1.13,0,0,0-1.17.85c0,.68,1.19,1.12,2.71,1.12a3.23,3.23,0,0,0,.46,0C189.79,451.8,189.12,451,188.22,451Z"/><path class="cls-5" d="M197.64,455.3h-.15a2.76,2.76,0,0,1-2.67-1.27h0a3,3,0,0,1-2.44,1.27h-.16c-.56,0-.82-.61-.82-1.17s.26-1.16.82-1.16h.16a2.76,2.76,0,0,0,1.58-.4c.65-.4.7-1.14,1-1.68.27-.19.57-.4.93-.61l.08.07a4.5,4.5,0,0,0-.22,1.08,1.28,1.28,0,0,0,.57,1.2,2.35,2.35,0,0,0,1.25.34h.14Zm-4.18-8.54a9.73,9.73,0,0,1,1.33,1.45,5.39,5.39,0,0,1-1.15,1.19c-.44-.48-.89-.93-1.36-1.39Zm2.46-.1a10.21,10.21,0,0,1,1.33,1.44,5.18,5.18,0,0,1-1.15,1.19c-.44-.47-.89-.93-1.36-1.38Z"/><path class="cls-5" d="M200.64,443.39a6.87,6.87,0,0,0,1.28,3.12l-1,.79c.05.9.07,2,.07,3.14a7.46,7.46,0,0,1-.43,2.57,5.43,5.43,0,0,1-.58,1.24,2.46,2.46,0,0,1-2.14,1.05h-.16c-.56,0-.82-.61-.82-1.17s.26-1.16.82-1.16h.16a2.31,2.31,0,0,0,1.66-.48c.2-.2.2-.53.2-1.16,0-2.9-.39-5.49-.39-6.07a1.65,1.65,0,0,1,.32-1.08,4.52,4.52,0,0,1,.91-.88Z"/><path class="cls-5" d="M203.54,455.44a21,21,0,0,0,.15-2.81,69.13,69.13,0,0,0-.4-7.58c.47-.56.91-1.05,1.35-1.48l.2.1c.24,2.52.27,4.88.27,7.14a9,9,0,0,1-.36,3.45,8.32,8.32,0,0,1-1,1.36Z"/><path class="cls-5" d="M209.88,454.54c-1.8,0-2.7-1-2.7-2.36a3.83,3.83,0,0,1,.93-2.57,2.83,2.83,0,0,1,1.95-1.07c1.3,0,2.43,1.94,2.43,4.69a6.93,6.93,0,0,1-1.21,4c-1,1.33-1.9,1.76-2.73,1.76a6.36,6.36,0,0,1-3.48-1.31l.25-.64a3.73,3.73,0,0,0,1.35.27,5,5,0,0,0,2.88-1.08,5.59,5.59,0,0,0,1.68-1.89A5.41,5.41,0,0,1,209.88,454.54Zm-.36-4.06c-.8,0-1.3.46-1.3.84,0,.54.9,1.1,2.15,1.1a6.52,6.52,0,0,0,1-.07C211,451.3,210.23,450.48,209.52,450.48Z"/><path class="cls-5" d="M221.4,454.41c-1.16,0-2.25-.41-2.25-1.65a4.26,4.26,0,0,1,.48-1.8,7.64,7.64,0,0,1,3.42-3.15l0-.62c.37-.37.76-.73,1.16-1.08l.18.06c.06,1.15.07,2.54.07,4.31,0,1,0,1.73.35,2.08a1.69,1.69,0,0,0,1.33.41h.16v2.33h-.16c-1.43,0-2.06-.27-2.56-1.32A6.09,6.09,0,0,1,221.4,454.41Zm.11-11.48a10.21,10.21,0,0,1,1.33,1.44,5.18,5.18,0,0,1-1.15,1.19c-.44-.48-.89-.93-1.36-1.38Zm1.71,6.7c-1.65.77-2.71,1.6-2.71,2.08s.55.54,1.2.54a5.18,5.18,0,0,0,1.56-.24C223.27,451.09,223.24,450.27,223.22,449.63Zm.75-6.81a9.73,9.73,0,0,1,1.33,1.45,5.39,5.39,0,0,1-1.15,1.19c-.44-.48-.89-.93-1.36-1.39Z"/><path class="cls-5" d="M231.72,455.3h-.15A2.74,2.74,0,0,1,228.9,454h0a3,3,0,0,1-2.44,1.27h-.16c-.56,0-.82-.61-.82-1.17s.26-1.16.82-1.16h.16a2.79,2.79,0,0,0,1.59-.4c.64-.4.7-1.14,1-1.68a10.78,10.78,0,0,1,.93-.61l.08.07a4.5,4.5,0,0,0-.22,1.08,1.28,1.28,0,0,0,.57,1.2,2.35,2.35,0,0,0,1.25.34h.14Zm-4.23,2.18a9.59,9.59,0,0,1,1.32,1.44,4.93,4.93,0,0,1-1.14,1.19c-.44-.48-.9-.93-1.36-1.39Zm2.45-.11a9.22,9.22,0,0,1,1.33,1.45,5.12,5.12,0,0,1-1.14,1.19c-.44-.48-.9-.94-1.36-1.39Z"/><path class="cls-5" d="M238.58,454.34c-.28.92-.71,1.43-1.37,1.43A5,5,0,0,1,234,454h0a2.16,2.16,0,0,1-2.09,1.31h-.16c-.56,0-.82-.61-.82-1.17s.26-1.16.82-1.16h.16c1.6,0,1.79-.66,2.18-1.85a3.54,3.54,0,0,1,.88-1.5,2,2,0,0,1,1.34-.61c1.37,0,1.89,1.55,2.6,3.05a1.75,1.75,0,0,0,1.72.91h.16v2.33h-.16a2.21,2.21,0,0,1-2-1Zm-1-.91q.27,0,.27-.24c0-.59-.81-2.24-1.83-2.24a1.34,1.34,0,0,0-1.16.76A3.67,3.67,0,0,0,237.54,453.43Z"/><path class="cls-5" d="M246.21,455.3h-.15a2.76,2.76,0,0,1-2.67-1.27h0a3,3,0,0,1-2.44,1.27h-.16c-.56,0-.82-.61-.82-1.17s.26-1.16.82-1.16h.16a2.82,2.82,0,0,0,1.59-.4c.64-.4.7-1.14,1-1.68a11.08,11.08,0,0,1,.94-.61l.08.07a4.5,4.5,0,0,0-.22,1.08,1.26,1.26,0,0,0,.57,1.2,2.31,2.31,0,0,0,1.24.34h.14ZM243,446.44a11.91,11.91,0,0,1,1.67,1.36,4.26,4.26,0,0,1-1.05,1.44,20,20,0,0,0-1.69-1.3Z"/><path class="cls-5" d="M251.67,455.3h-.15a2.76,2.76,0,0,1-2.67-1.27h0a2.94,2.94,0,0,1-2.43,1.27h-.17c-.56,0-.81-.61-.81-1.17s.25-1.16.81-1.16h.17a2.76,2.76,0,0,0,1.58-.4c.64-.4.7-1.14,1-1.68.27-.19.57-.4.93-.61l.08.07a4.5,4.5,0,0,0-.22,1.08,1.28,1.28,0,0,0,.57,1.2,2.35,2.35,0,0,0,1.25.34h.14Zm-4.19-8.54a9.22,9.22,0,0,1,1.33,1.45,5.34,5.34,0,0,1-1.14,1.19c-.44-.48-.9-.93-1.36-1.39Zm2.46-.1a9.64,9.64,0,0,1,1.33,1.44,5.13,5.13,0,0,1-1.14,1.19c-.44-.47-.9-.93-1.36-1.38Z"/><path class="cls-5" d="M254.66,443.39a7,7,0,0,0,1.28,3.12l-1,.79c0,.9.07,2,.07,3.14a7.7,7.7,0,0,1-.43,2.57,5.46,5.46,0,0,1-.59,1.24,2.43,2.43,0,0,1-2.13,1.05h-.16c-.56,0-.82-.61-.82-1.17s.26-1.16.82-1.16h.16a2.31,2.31,0,0,0,1.66-.48c.19-.2.19-.53.19-1.16,0-2.9-.38-5.49-.38-6.07a1.71,1.71,0,0,1,.31-1.08,4.52,4.52,0,0,1,.91-.88Z"/><path class="cls-5" d="M260.7,455.3h-.2c-1.58,0-2.73-.81-2.76-3.08,0-1.33-.12-4.76-.42-7.63a18,18,0,0,1,1.34-1.29l.16.08a48.55,48.55,0,0,1,.21,5.23c0,1.22,0,1.84,0,2.79,0,1.17.47,1.57,1.53,1.57h.16Z"/><path class="cls-5" d="M263.66,448.34a7.51,7.51,0,0,1,1.18,3.25,4.82,4.82,0,0,1-.48,2.12,2.47,2.47,0,0,1-1.14,1.19,5.67,5.67,0,0,1-2.36.4h-.16c-.56,0-.82-.61-.82-1.17s.26-1.16.82-1.16H261c1.35,0,2.55-.27,2.55-.46a10.66,10.66,0,0,0-1.15-2.38,19.87,19.87,0,0,1,1.19-1.82Zm-.76,8.93a11.91,11.91,0,0,1,1.67,1.36,4.12,4.12,0,0,1-1.05,1.43c-.48-.41-1.06-.85-1.69-1.29Z"/><path class="cls-6" d="M311.55,520.21v8.72H283.47v-7.3q12.48-20.4,14.83-25.25t2.35-7.56a5.54,5.54,0,0,0-.71-3.11,2.48,2.48,0,0,0-2.17-1,2.36,2.36,0,0,0-2.16,1.14c-.48.76-.71,2.26-.71,4.52v4.86H283.47v-1.86a39.93,39.93,0,0,1,.45-6.78,12,12,0,0,1,2.17-4.88,11,11,0,0,1,4.52-3.63,16.36,16.36,0,0,1,6.66-1.23q7.62,0,11.51,3.77a12.74,12.74,0,0,1,3.9,9.56,22.76,22.76,0,0,1-2.19,9.28q-2.19,4.9-12.93,20.78Z"/><path class="cls-5" d="M93.29,502.08h-.17c-2.06,0-2.37-1.49-2.79-3.38l-.06-.23h-.06A2,2,0,0,1,89,499.52a6.64,6.64,0,0,1,.19,1.58,5.33,5.33,0,0,1-.53,2.52,4.9,4.9,0,0,1-3.76,2c-2.07,0-3.59-1.45-3.59-3.92a7.78,7.78,0,0,1,.6-3l.62.25a5.88,5.88,0,0,0-.23,1.49A2.56,2.56,0,0,0,85,503.22a4.13,4.13,0,0,0,3.25-1.62,4.55,4.55,0,0,0-1.73-2.9c.17-.7.36-1.41.57-2.11l.13,0a3.11,3.11,0,0,0,1.78.95c1,0,1.17-1.06,1.82-1.86l.21,0a21.44,21.44,0,0,0,.82,3.13,1.49,1.49,0,0,0,1.28.94h.16Zm-8.7-9a13,13,0,0,1,1.71,1.38,4,4,0,0,1-1.08,1.47,20.74,20.74,0,0,0-1.72-1.32Zm4.68,11.64a9.73,9.73,0,0,1,1.33,1.45,5.57,5.57,0,0,1-1.14,1.19c-.45-.48-.9-.94-1.37-1.39Zm2.46-.1A9.22,9.22,0,0,1,93.06,506a5.35,5.35,0,0,1-1.14,1.19c-.45-.48-.9-.93-1.37-1.39Z"/><path class="cls-5" d="M96.25,495.12a7.53,7.53,0,0,1,1.17,3.26A4.86,4.86,0,0,1,97,500.5a2.58,2.58,0,0,1-1.15,1.19,5.77,5.77,0,0,1-2.35.39h-.16c-.56,0-.82-.6-.82-1.16s.26-1.17.82-1.17h.25a4.74,4.74,0,0,0,2.54-.45,10.48,10.48,0,0,0-1.14-2.38,16.92,16.92,0,0,1,1.19-1.82ZM95,491.5a11.91,11.91,0,0,1,1.67,1.36,4.12,4.12,0,0,1-1,1.43c-.48-.41-1.06-.85-1.69-1.29Z"/><path class="cls-5" d="M99.51,502.22a19.43,19.43,0,0,0,.15-2.81,69.26,69.26,0,0,0-.4-7.58c.47-.55.91-1,1.36-1.48l.2.11c.23,2.52.26,4.87.26,7.13a9,9,0,0,1-.36,3.45,8.29,8.29,0,0,1-1,1.37Z"/><path class="cls-5" d="M109.36,499.75v2.33h-.88c-.48,2.11-2,4.26-3.77,4.26a6.32,6.32,0,0,1-3.43-1.3l.27-.62a3.49,3.49,0,0,0,1.42.33,4.89,4.89,0,0,0,2.91-1.2,4.43,4.43,0,0,0,1.36-1.47h-.33c-2.23,0-3.71-.71-3.71-2.81a3.52,3.52,0,0,1,.89-2.32,2.49,2.49,0,0,1,1.86-1c1.31,0,2.15,1.41,2.62,3.83Zm-4-1.93a1.13,1.13,0,0,0-1.18.85c0,.67,1.19,1.12,2.71,1.12a3.15,3.15,0,0,0,.46,0C107,498.58,106.29,497.82,105.4,497.82Z"/><path class="cls-5" d="M109.52,499.75a7.23,7.23,0,0,0,1.48-.14,6.18,6.18,0,0,1-.19-1.54,4.12,4.12,0,0,1,1.34-3.06,2.72,2.72,0,0,1,1.76-.93,1.46,1.46,0,0,1,1.15.75,4,4,0,0,1,.68,2.36,5.65,5.65,0,0,1-.6,2.41,13.37,13.37,0,0,0,1.69.15H117v2.33h-.16a10,10,0,0,1-4-.72,7.23,7.23,0,0,1-3.26.72h-.16c-.56,0-.82-.6-.82-1.16s.26-1.17.82-1.17Zm2.4-9.15a9.64,9.64,0,0,1,1.33,1.44,5.13,5.13,0,0,1-1.14,1.19c-.45-.47-.9-.93-1.37-1.38Zm1.24,8.61c1-.3,1.65-.87,1.65-1.25,0-.56-.58-1.67-1.36-1.67a2.36,2.36,0,0,0-1.86,1.54C111.72,498.44,112.28,498.9,113.16,499.21Zm1.22-8.72a9.22,9.22,0,0,1,1.33,1.45,5.34,5.34,0,0,1-1.14,1.19c-.45-.48-.9-.93-1.37-1.39Z"/><path class="cls-5" d="M120,490.18a6.85,6.85,0,0,0,1.28,3.11l-1,.79c0,.9.07,2,.07,3.14a7.52,7.52,0,0,1-.43,2.58,5.56,5.56,0,0,1-.58,1.23,2.46,2.46,0,0,1-2.14,1.05H117c-.56,0-.82-.6-.82-1.16s.26-1.17.82-1.17h.16a2.31,2.31,0,0,0,1.66-.48c.2-.2.2-.52.2-1.15,0-2.9-.39-5.49-.39-6.08a1.71,1.71,0,0,1,.32-1.08,4.51,4.51,0,0,1,.91-.87Z"/><path class="cls-5" d="M122.89,502.22a21,21,0,0,0,.15-2.81,69.26,69.26,0,0,0-.4-7.58c.47-.55.91-1,1.35-1.48l.2.11c.24,2.52.27,4.87.27,7.13a9,9,0,0,1-.36,3.45,8.38,8.38,0,0,1-1,1.37Z"/><path class="cls-5" d="M131.79,503.63c0,1.31,1.94,2.82,5.29,2.82a18.88,18.88,0,0,0,3.21-.28l.13.23a24.44,24.44,0,0,1-2.74,2.11,9.79,9.79,0,0,1-1.9.2c-2.78,0-5.11-1.49-5.11-4.21,0-1.87,1.13-3.58,3.29-5.08-1-.92-1.43-1.66-2-1.66a2,2,0,0,0-.56.08l-.1-.12.67-1.91a17.67,17.67,0,0,1,3.83-.52,9.57,9.57,0,0,1,3.44.58c-.1.57-.19,1.14-.34,1.77-.57.56-1.19,1.13-1.83,1.69v0a7,7,0,0,0,2.94.38h.16v2.33H140a6.53,6.53,0,0,1-4.59-1.44C133.28,501.59,131.79,502.79,131.79,503.63Zm6-6.25v-.05a8.16,8.16,0,0,0-2.11-.25,9.32,9.32,0,0,0-1.93.18v.05c.6.51,1.24,1.05,1.91,1.55A18.56,18.56,0,0,0,137.77,497.38Z"/><path class="cls-5" d="M143.11,495.12a7.53,7.53,0,0,1,1.17,3.26,4.86,4.86,0,0,1-.47,2.12,2.58,2.58,0,0,1-1.15,1.19,5.77,5.77,0,0,1-2.35.39h-.16c-.56,0-.82-.6-.82-1.16s.26-1.17.82-1.17h.25a4.74,4.74,0,0,0,2.54-.45,10.48,10.48,0,0,0-1.14-2.38A16.92,16.92,0,0,1,143,495.1Zm-1.9,9a10.21,10.21,0,0,1,1.33,1.44,5.18,5.18,0,0,1-1.15,1.19c-.44-.47-.89-.93-1.36-1.38Zm2.46-.11a9.73,9.73,0,0,1,1.33,1.45,5.39,5.39,0,0,1-1.15,1.19c-.44-.48-.89-.93-1.36-1.39Z"/><path class="cls-5" d="M150.89,495.9a7.24,7.24,0,0,1,1.43,3.64c0,.55,0,.85,0,1.07a6,6,0,0,1-.75,3.09,3.27,3.27,0,0,1-2.64,2,6.74,6.74,0,0,1-3.2-1l.22-.62a4.69,4.69,0,0,0,1.17.14,4.27,4.27,0,0,0,2.83-1.41,4.07,4.07,0,0,0,1.28-2c0-.42-.44-1.24-1.56-2.91.33-.7.7-1.38,1-2Z"/><path class="cls-5" d="M157.53,502.08h-.19c-1.59,0-2.73-.8-2.77-3.08,0-1.32-.11-4.75-.42-7.62a17.87,17.87,0,0,1,1.34-1.29l.17.08a51.18,51.18,0,0,1,.21,5.22c0,1.22,0,1.84,0,2.8,0,1.16.47,1.56,1.53,1.56h.16Z"/><path class="cls-5" d="M169.47,502.08h-.16c-1.31,0-2.25-.29-2.65-1.07h0a2.64,2.64,0,0,1-2,1.07,1.26,1.26,0,0,1-1.29-1h-.06a2.6,2.6,0,0,1-1.92,1,1.18,1.18,0,0,1-1.25-.88,3.81,3.81,0,0,1-2.42.88h-.17c-.56,0-.81-.6-.81-1.16s.25-1.17.81-1.17h.17a3.4,3.4,0,0,0,2.08-.52,6.12,6.12,0,0,0,1-1.24,8.68,8.68,0,0,1,1-.47l.13.12a3.25,3.25,0,0,0-.71,1.52.52.52,0,0,0,.6.59,1.52,1.52,0,0,0,1.11-.45,5.37,5.37,0,0,0,.84-1.52,7.49,7.49,0,0,1,.94-.47l.1.12a5.83,5.83,0,0,0-.54,1.59c0,.5.21.73.58.73a1.39,1.39,0,0,0,1.18-.59,6.31,6.31,0,0,0,.65-1.65,9.37,9.37,0,0,1,.94-.57l.08.08a5.51,5.51,0,0,0-.33,1.52c0,.81.61,1.21,1.94,1.21h.16Zm-6.63-8.64a10.19,10.19,0,0,1,1.4,1.38,4.89,4.89,0,0,1-1.08,1.25c-.46-.46-.94-.88-1.43-1.31Zm1-2.56a10.16,10.16,0,0,1,1.4,1.37,4.72,4.72,0,0,1-1.08,1.25c-.46-.45-.94-.87-1.43-1.3Zm1.56,2.45a9.62,9.62,0,0,1,1.4,1.37,4.87,4.87,0,0,1-1.07,1.25c-.47-.45-.95-.87-1.44-1.31Z"/><path class="cls-5" d="M171.53,500.71a2,2,0,0,1-1.92,1.37h-.15c-.54,0-.81-.56-.81-1.16s.26-1.17.82-1.17h.16a2,2,0,0,0,1-.3c.91-.57.7-2.21,1.84-3.27a2.29,2.29,0,0,1,1.54-.68c2,0,2.6,3,2.6,4.26,0,.17-.42,2.22-2,2.22a5.36,5.36,0,0,1-3.07-1.27Zm3.45-1c.22,0,.36,0,.36-.1-.24-1.31-.94-2.15-1.72-2.15a1.52,1.52,0,0,0-1.37,1A4.19,4.19,0,0,0,175,499.75Z"/><path class="cls-5" d="M190.21,498.69c-1.49,0-2.6-.62-2.6-2.26s1.24-3,2.51-3c1.71,0,2.54,3,2.55,5.21a2.74,2.74,0,0,1-.38,1.4,1.4,1.4,0,0,1,1,1.29,5,5,0,0,1-.67,2.51,7.51,7.51,0,0,1-5.29,2.42c-3.09,0-4.17-2.4-4.17-4.47a10.16,10.16,0,0,1,.74-3.7l.71.27a7,7,0,0,0-.39,2.13,3.08,3.08,0,0,0,3.37,3.37,7.49,7.49,0,0,0,4.58-1.74c0-.14-1.68-.47-4.15-.47l-.1-.18a15.52,15.52,0,0,1,.81-1.57c1.86-.17,2.91-.43,2.91-.88a.8.8,0,0,0-.14-.46A4.88,4.88,0,0,1,190.21,498.69Zm-4.12,8.36a11.54,11.54,0,0,1,1.6,1.46,9.62,9.62,0,0,1-1.1,1.41,19.52,19.52,0,0,0-1.65-1.44Zm2.75-.19a12.21,12.21,0,0,1,1.61,1.46,9.63,9.63,0,0,1-1.11,1.41,21.32,21.32,0,0,0-1.65-1.43Zm.41-17.14a12.47,12.47,0,0,1,1.66,1.37,3.88,3.88,0,0,1-1,1.43,18.53,18.53,0,0,0-1.69-1.29Zm.37,5.41c-.63,0-1.07.41-1.07.71s.64,1,2.83,1C191,495.88,190.45,495.13,189.62,495.13Z"/><path class="cls-5" d="M208.84,498c-.33-1.05-.71-1.47-1.1-1.47a3.53,3.53,0,0,0-2.53,1.79c0,.88,2.54.76,3.42,1.25a1.7,1.7,0,0,1,.85,1.63,5.5,5.5,0,0,1-.61,2.17A6.28,6.28,0,0,1,207,505a6.43,6.43,0,0,1-3.26,1c-1.83,0-3.91-1.24-3.91-4.48a8,8,0,0,1,.67-3.3l.68.2a5.07,5.07,0,0,0-.33,2,3,3,0,0,0,3,3.21,6.77,6.77,0,0,0,2.56-.57,6,6,0,0,0,1.76-1.1c0-.17-.92-.34-2-.5-1.5-.22-2.14-.93-2.14-2a4.69,4.69,0,0,1,1.34-3.23,4.53,4.53,0,0,1,3-1.75c1,0,1.31,1.19,1.31,1.86a4.5,4.5,0,0,1-.6,1.8Zm-6,8.9a11.61,11.61,0,0,1,1.61,1.46,9.63,9.63,0,0,1-1.11,1.41,19.43,19.43,0,0,0-1.64-1.44Zm2.75-.19a11.61,11.61,0,0,1,1.61,1.46,9.12,9.12,0,0,1-1.11,1.41,21.22,21.22,0,0,0-1.64-1.43Z"/><path class="cls-5" d="M212.94,487.88l-.32-.35a.48.48,0,0,0-.39-.16c-.47,0-.79.23-.79.41s.54.62,1.53.62c.43,0,.77,0,1.18,0l0,.11a8.35,8.35,0,0,1-.48.94,7.38,7.38,0,0,0-2.92.84l-.14-.14a8,8,0,0,1,.46-.87,1,1,0,0,1-.71-.94,2,2,0,0,1,.74-1.31,2.26,2.26,0,0,1,1.45-.62c.5,0,.83.25.83.65a1.58,1.58,0,0,1-.34.86Zm-1.11,14.34a19.43,19.43,0,0,0,.15-2.81,69.26,69.26,0,0,0-.4-7.58c.47-.55.91-1,1.36-1.48l.19.11c.24,2.52.27,4.87.27,7.13A9,9,0,0,1,213,501a8.29,8.29,0,0,1-.95,1.37Z"/><path class="cls-5" d="M221.05,502.08h-.2a3.63,3.63,0,0,1-1.21-.22,4.7,4.7,0,0,1-.76,2.64,3,3,0,0,1-2.35,1.69,5.75,5.75,0,0,1-3.11-1.16l.26-.58a3.3,3.3,0,0,0,1,.2,3.63,3.63,0,0,0,2.54-1.08,4.22,4.22,0,0,0,1.37-2.22,11.11,11.11,0,0,1-1.3-2.16,17.31,17.31,0,0,1,.83-1.72h.17c.61,1.35,1.24,2.28,2.55,2.28h.16Z"/><path class="cls-5" d="M224,490.18a7,7,0,0,0,1.28,3.11l-1,.79c0,.9.07,2,.07,3.14a7.77,7.77,0,0,1-.43,2.58,5.59,5.59,0,0,1-.59,1.23,2.43,2.43,0,0,1-2.13,1.05h-.16c-.56,0-.82-.6-.82-1.16s.26-1.17.82-1.17h.16a2.26,2.26,0,0,0,1.65-.48c.2-.2.2-.52.2-1.15,0-2.9-.38-5.49-.38-6.08A1.71,1.71,0,0,1,223,491a4.79,4.79,0,0,1,.91-.87Z"/><path class="cls-5" d="M226.94,502.22a19.29,19.29,0,0,0,.16-2.81,69.26,69.26,0,0,0-.4-7.58c.47-.55.91-1,1.35-1.48l.2.11c.23,2.52.27,4.87.27,7.13a9.23,9.23,0,0,1-.36,3.45,8.38,8.38,0,0,1-1,1.37Z"/><path class="cls-5" d="M244.22,498c-.33-1.05-.71-1.47-1.1-1.47a3.53,3.53,0,0,0-2.53,1.79c0,.88,2.54.76,3.42,1.25a1.68,1.68,0,0,1,.85,1.63,5.5,5.5,0,0,1-.61,2.17,6.28,6.28,0,0,1-1.86,1.57,6.43,6.43,0,0,1-3.26,1c-1.83,0-3.91-1.24-3.91-4.48a8,8,0,0,1,.67-3.3l.68.2a5.07,5.07,0,0,0-.33,2,3,3,0,0,0,3,3.21,6.77,6.77,0,0,0,2.56-.57,6,6,0,0,0,1.76-1.1c0-.17-.92-.34-2-.5-1.5-.22-2.14-.93-2.14-2a4.74,4.74,0,0,1,1.34-3.23,4.53,4.53,0,0,1,3-1.75c1,0,1.31,1.19,1.31,1.86a4.5,4.5,0,0,1-.6,1.8Zm-6,8.9a11.61,11.61,0,0,1,1.61,1.46,9.63,9.63,0,0,1-1.11,1.41,19.43,19.43,0,0,0-1.64-1.44Zm2.75-.19a11.61,11.61,0,0,1,1.61,1.46,9.12,9.12,0,0,1-1.11,1.41,19.5,19.5,0,0,0-1.64-1.43Z"/><path class="cls-5" d="M255,502.08h-.16a2.37,2.37,0,0,1-2.52-2h0a2.12,2.12,0,0,1-.64,1.13,3.89,3.89,0,0,1-2.51.83c-1.22,0-2.06-.72-2.06-2.71,0-.24,0-.58,0-1l.76-.08a1.34,1.34,0,0,0,1.48,1.45,4.22,4.22,0,0,0,1.71-.41c.43-.18.74-.41.74-.77a18.38,18.38,0,0,0-1-3.89,14.49,14.49,0,0,1,1.08-1.6l.19.06c.3,1.06.6,2.4,1,4.68.23,1.32.85,1.93,1.78,1.93H255Z"/><path class="cls-5" d="M260.43,502.08h-.16a2.73,2.73,0,0,1-2.66-1.27h0a2.92,2.92,0,0,1-2.44,1.27H255c-.56,0-.82-.6-.82-1.16s.26-1.17.82-1.17h.16a2.74,2.74,0,0,0,1.59-.4c.64-.39.7-1.14.95-1.67.27-.19.58-.4.94-.61l.08.07a4.53,4.53,0,0,0-.22,1.07,1.26,1.26,0,0,0,.57,1.2,2.33,2.33,0,0,0,1.25.34h.14Zm-3.16,2a12.41,12.41,0,0,1,1.66,1.36,3.88,3.88,0,0,1-1.05,1.43,18.53,18.53,0,0,0-1.69-1.29Z"/><path class="cls-5" d="M263.39,495.12a7.53,7.53,0,0,1,1.17,3.26,5,5,0,0,1-.47,2.12,2.58,2.58,0,0,1-1.15,1.19,5.77,5.77,0,0,1-2.35.39h-.17c-.56,0-.81-.6-.81-1.16s.25-1.17.81-1.17h.26a4.74,4.74,0,0,0,2.54-.45,10.48,10.48,0,0,0-1.14-2.38,16.92,16.92,0,0,1,1.19-1.82Zm-1.9,9a10.1,10.1,0,0,1,1.32,1.44,4.93,4.93,0,0,1-1.14,1.19c-.44-.47-.9-.93-1.36-1.38Zm2.45-.11a9.22,9.22,0,0,1,1.33,1.45,5.12,5.12,0,0,1-1.14,1.19c-.44-.48-.9-.93-1.36-1.39Z"/><path class="cls-5" d="M64.26,522.08c-1.17,0-2.25-.41-2.25-1.66a4.11,4.11,0,0,1,.48-1.79,7.66,7.66,0,0,1,3.41-3.15l0-.62c.37-.37.75-.73,1.15-1.08l.19.06c.06,1.15.07,2.54.07,4.31,0,1,0,1.73.35,2.08a1.69,1.69,0,0,0,1.33.4h.16V523H69c-1.44,0-2.07-.27-2.57-1.32A6,6,0,0,1,64.26,522.08Zm.1-11.48A9.18,9.18,0,0,1,65.69,512a5.13,5.13,0,0,1-1.14,1.19c-.44-.48-.9-.93-1.36-1.39Zm1.72,6.7c-1.66.77-2.72,1.6-2.72,2.08s.56.54,1.2.54a5.13,5.13,0,0,0,1.56-.24C66.12,518.76,66.1,517.94,66.08,517.3Zm.74-6.81a9.22,9.22,0,0,1,1.33,1.45A5.34,5.34,0,0,1,67,513.13c-.44-.48-.9-.94-1.36-1.39Z"/><path class="cls-5" d="M74.57,523h-.15a2.76,2.76,0,0,1-2.67-1.27h0A3,3,0,0,1,69.28,523h-.16c-.56,0-.82-.61-.82-1.17s.26-1.17.82-1.17h.16a2.76,2.76,0,0,0,1.58-.39c.65-.4.7-1.14,1-1.68.27-.19.57-.4.93-.61l.09.07a4.64,4.64,0,0,0-.23,1.08,1.28,1.28,0,0,0,.57,1.2,2.35,2.35,0,0,0,1.25.33h.14Zm-4.23,2.18a8.76,8.76,0,0,1,1.33,1.44,5.34,5.34,0,0,1-1.14,1.19c-.45-.48-.9-.93-1.37-1.39ZM72.8,525a9.22,9.22,0,0,1,1.33,1.45A5.34,5.34,0,0,1,73,527.68c-.45-.48-.9-.94-1.37-1.39Z"/><path class="cls-5" d="M79.58,523h-.16A2.49,2.49,0,0,1,77,521.66h0A2.48,2.48,0,0,1,74.73,523h-.16c-.56,0-.82-.61-.82-1.17s.26-1.17.82-1.17h.26c1.19,0,1.71-.57,1.71-1.56,0-2.1-.13-4.71-.35-6.9A16.11,16.11,0,0,1,77.51,511l.15.07a48.14,48.14,0,0,1,.2,5.22c0,1.22,0,2.26,0,2.8,0,1.11.3,1.58,1.52,1.58h.23Z"/><path class="cls-5" d="M85.64,519.05a10,10,0,0,0-3-.62,1.71,1.71,0,0,0-1,.21l-.54,1.23H81l-.76-1.49a2.43,2.43,0,0,1,2.54-2.08,10.08,10.08,0,0,1,3.23.8,7.54,7.54,0,0,0,2.88.55h.86l0,.09a14.43,14.43,0,0,1-1,1.62,2.65,2.65,0,0,0-2,.7c-2.06,1.87-3.6,2.91-7,2.91h-.16c-.56,0-.81-.61-.81-1.17s.25-1.17.81-1.17h.16a9.87,9.87,0,0,0,5.9-1.52Zm2.21.59.06.06c.08.88,1,.93,2,.93h.17V523h-.17a3.28,3.28,0,0,1-2.13-.48,2.18,2.18,0,0,1-.62-1.65,5.16,5.16,0,0,1,0-.68Z"/><path class="cls-5" d="M92.79,522.1a3.81,3.81,0,0,1-2.53.87h-.17c-.56,0-.81-.61-.81-1.17s.25-1.17.81-1.17h.17a5.36,5.36,0,0,0,2.46-.46c-.11-1.84-.19-3.67-.27-5.52,0-.54-.17-1.26-.17-1.72a1.74,1.74,0,0,1,.32-1.09,4.51,4.51,0,0,1,.91-.87l.14.09a6.87,6.87,0,0,0,1.28,3.12l-1.06.8c0,2.44.06,3.58.13,4.48a3.65,3.65,0,0,1,1.33-.28c1.18,0,2.24.93,2.24,2.68,0,1-.67,2.75-2.36,2.75-1.06,0-2-.84-2.39-2.51Zm3.2.68a.64.64,0,0,0,.5-.19,1.61,1.61,0,0,0-1.58-1.54,2.35,2.35,0,0,0-.82.16A2.12,2.12,0,0,0,96,522.78Z"/><path class="cls-5" d="M99.51,523.11a19.43,19.43,0,0,0,.15-2.81,69.13,69.13,0,0,0-.4-7.58,18.37,18.37,0,0,1,1.36-1.48l.2.1c.23,2.52.26,4.88.26,7.14a9,9,0,0,1-.36,3.45,8.23,8.23,0,0,1-1,1.36Z"/><path class="cls-5" d="M110.05,522.08c-1.17,0-2.25-.41-2.25-1.66a4.23,4.23,0,0,1,.47-1.79,7.69,7.69,0,0,1,3.42-3.15l0-.62c.38-.37.76-.73,1.16-1.08l.19.06c0,1.15.07,2.54.07,4.31,0,1,0,1.73.34,2.08a1.72,1.72,0,0,0,1.33.4h.17V523h-.17c-1.43,0-2.06-.27-2.56-1.32A6,6,0,0,1,110.05,522.08Zm.1-11.48a9.18,9.18,0,0,1,1.33,1.44,5.13,5.13,0,0,1-1.14,1.19c-.45-.48-.9-.93-1.37-1.39Zm1.71,6.7c-1.65.77-2.71,1.6-2.71,2.08s.56.54,1.2.54a5.18,5.18,0,0,0,1.56-.24C111.91,518.76,111.89,517.94,111.86,517.3Zm.75-6.81a9.22,9.22,0,0,1,1.33,1.45,5.34,5.34,0,0,1-1.14,1.19c-.45-.48-.9-.94-1.37-1.39Z"/><path class="cls-5" d="M120.36,523h-.15a2.76,2.76,0,0,1-2.67-1.27h0a2.94,2.94,0,0,1-2.43,1.27h-.17c-.56,0-.81-.61-.81-1.17s.25-1.17.81-1.17h.17a2.76,2.76,0,0,0,1.58-.39c.64-.4.7-1.14,1-1.68.27-.19.57-.4.93-.61l.08.07a4.5,4.5,0,0,0-.22,1.08,1.28,1.28,0,0,0,.57,1.2,2.35,2.35,0,0,0,1.25.33h.14Zm-4.23,2.18a9.22,9.22,0,0,1,1.33,1.44,5.39,5.39,0,0,1-1.15,1.19c-.44-.48-.89-.93-1.36-1.39Zm2.46-.11a9.73,9.73,0,0,1,1.33,1.45,5.39,5.39,0,0,1-1.15,1.19c-.44-.48-.89-.94-1.36-1.39Z"/><path class="cls-5" d="M123.35,511.06a6.92,6.92,0,0,0,1.29,3.12l-1,.79c.05.9.07,2,.07,3.13a7.77,7.77,0,0,1-.43,2.58,5.44,5.44,0,0,1-.59,1.24,2.45,2.45,0,0,1-2.13,1.05h-.16c-.56,0-.82-.61-.82-1.17s.26-1.17.82-1.17h.16a2.35,2.35,0,0,0,1.66-.47c.19-.2.19-.53.19-1.16,0-2.9-.38-5.49-.38-6.07a1.74,1.74,0,0,1,.31-1.09,5.11,5.11,0,0,1,.91-.87Z"/><path class="cls-5" d="M129.39,523h-.2c-1.58,0-2.72-.81-2.76-3.08,0-1.33-.12-4.76-.42-7.63.43-.46.89-.89,1.34-1.29l.16.08a48.46,48.46,0,0,1,.21,5.22c0,1.23,0,1.85,0,2.8,0,1.17.47,1.56,1.53,1.56h.16Z"/><path class="cls-5" d="M132.08,522.1a3.79,3.79,0,0,1-2.53.87h-.16c-.56,0-.82-.61-.82-1.17s.26-1.17.82-1.17h.16a5.31,5.31,0,0,0,2.46-.46c-.1-1.84-.18-3.67-.27-5.52,0-.54-.16-1.26-.16-1.72a1.68,1.68,0,0,1,.32-1.09,4.51,4.51,0,0,1,.91-.87l.14.09a6.87,6.87,0,0,0,1.28,3.12l-1.06.8c0,2.44.06,3.58.13,4.48a3.6,3.6,0,0,1,1.32-.28c1.18,0,2.24.93,2.24,2.68,0,1-.66,2.75-2.35,2.75-1.06,0-2-.84-2.39-2.51Zm3.21.68a.67.67,0,0,0,.5-.19,1.62,1.62,0,0,0-1.59-1.54,2.25,2.25,0,0,0-.81.16A2.11,2.11,0,0,0,135.29,522.78Z"/><path class="cls-5" d="M138.81,523.11a21,21,0,0,0,.15-2.81,69.13,69.13,0,0,0-.4-7.58c.47-.56.91-1.05,1.35-1.48l.2.1c.24,2.52.27,4.88.27,7.14a9,9,0,0,1-.36,3.45,8.32,8.32,0,0,1-1,1.36Z"/><path class="cls-5" d="M145.15,522.21c-1.8,0-2.7-1-2.7-2.36a3.83,3.83,0,0,1,.93-2.57,2.81,2.81,0,0,1,2-1.08c1.3,0,2.43,1.95,2.43,4.7a7,7,0,0,1-1.21,4.05c-1,1.33-1.9,1.76-2.73,1.76a6.36,6.36,0,0,1-3.48-1.31l.25-.64a3.73,3.73,0,0,0,1.35.27,5,5,0,0,0,2.88-1.08,5.68,5.68,0,0,0,1.68-1.89A5.41,5.41,0,0,1,145.15,522.21Zm-.36-4.06c-.8,0-1.3.46-1.3.84,0,.54.9,1.1,2.15,1.1a6.63,6.63,0,0,0,1-.07C146.31,519,145.5,518.15,144.79,518.15Z"/><path class="cls-5" d="M156.67,522.08c-1.16,0-2.25-.41-2.25-1.66a4.25,4.25,0,0,1,.48-1.79,7.64,7.64,0,0,1,3.42-3.15l0-.62c.37-.37.76-.73,1.16-1.08l.18.06c.06,1.15.07,2.54.07,4.31,0,1,0,1.73.35,2.08a1.69,1.69,0,0,0,1.33.4h.16V523h-.16c-1.43,0-2.06-.27-2.56-1.32A6.09,6.09,0,0,1,156.67,522.08Zm.11-11.48a9.69,9.69,0,0,1,1.33,1.44,5.18,5.18,0,0,1-1.15,1.19c-.44-.48-.89-.93-1.36-1.39Zm1.71,6.7c-1.65.77-2.72,1.6-2.72,2.08s.56.54,1.21.54a5.23,5.23,0,0,0,1.56-.24C158.54,518.76,158.51,517.94,158.49,517.3Zm.75-6.81a9.73,9.73,0,0,1,1.33,1.45,5.39,5.39,0,0,1-1.15,1.19c-.44-.48-.89-.94-1.36-1.39Z"/><path class="cls-5" d="M167,523h-.15a2.74,2.74,0,0,1-2.67-1.27h0a3,3,0,0,1-2.44,1.27h-.16c-.56,0-.81-.61-.81-1.17s.25-1.17.81-1.17h.16a2.8,2.8,0,0,0,1.59-.39c.64-.4.7-1.14,1-1.68a10.78,10.78,0,0,1,.93-.61l.08.07a4.5,4.5,0,0,0-.22,1.08,1.28,1.28,0,0,0,.57,1.2,2.35,2.35,0,0,0,1.25.33H167Zm-4.23,2.18a9.13,9.13,0,0,1,1.32,1.44,5.12,5.12,0,0,1-1.14,1.19c-.44-.48-.9-.93-1.36-1.39Zm2.45-.11a9.22,9.22,0,0,1,1.33,1.45,5.12,5.12,0,0,1-1.14,1.19c-.44-.48-.9-.94-1.36-1.39Z"/><path class="cls-5" d="M170,516a7.46,7.46,0,0,1,1.17,3.25,4.83,4.83,0,0,1-.47,2.12,2.53,2.53,0,0,1-1.15,1.19,5.75,5.75,0,0,1-2.35.4H167c-.56,0-.82-.61-.82-1.17s.26-1.17.82-1.17h.25c1.34,0,2.54-.26,2.54-.45a10.48,10.48,0,0,0-1.14-2.38,18,18,0,0,1,1.19-1.82Zm-1.23-3.63a11.91,11.91,0,0,1,1.67,1.36,4.16,4.16,0,0,1-1,1.44c-.48-.42-1.06-.85-1.69-1.3Z"/><path class="cls-5" d="M173.21,523.11a21,21,0,0,0,.15-2.81,69.13,69.13,0,0,0-.4-7.58,18.37,18.37,0,0,1,1.36-1.48l.19.1c.24,2.52.27,4.88.27,7.14a9,9,0,0,1-.36,3.45,8.23,8.23,0,0,1-.95,1.36Z"/><path class="cls-5" d="M181.78,523h-.2a3.62,3.62,0,0,1-1.21-.23,4.68,4.68,0,0,1-.76,2.64,3,3,0,0,1-2.36,1.69,5.81,5.81,0,0,1-3.1-1.15l.26-.59a3.3,3.3,0,0,0,1.05.2,3.66,3.66,0,0,0,2.54-1.07,4.26,4.26,0,0,0,1.36-2.23,11.2,11.2,0,0,1-1.29-2.15,17.53,17.53,0,0,1,.83-1.73h.17c.61,1.35,1.24,2.28,2.54,2.28h.17Zm-3.91-8.82a12,12,0,0,1,1.67,1.37,4.12,4.12,0,0,1-1,1.43,20,20,0,0,0-1.69-1.29Z"/><path class="cls-5" d="M187.23,523h-.15a2.76,2.76,0,0,1-2.67-1.27h0a2.94,2.94,0,0,1-2.43,1.27h-.17c-.56,0-.81-.61-.81-1.17s.25-1.17.81-1.17h.17a2.76,2.76,0,0,0,1.58-.39c.64-.4.7-1.14,1-1.68.27-.19.57-.4.93-.61l.08.07a4.5,4.5,0,0,0-.22,1.08,1.28,1.28,0,0,0,.57,1.2,2.35,2.35,0,0,0,1.25.33h.14ZM183,525.15a9.22,9.22,0,0,1,1.33,1.44,5.39,5.39,0,0,1-1.15,1.19c-.44-.48-.89-.93-1.36-1.39Zm2.46-.11a9.73,9.73,0,0,1,1.33,1.45,5.39,5.39,0,0,1-1.15,1.19c-.44-.48-.89-.94-1.36-1.39Z"/><path class="cls-5" d="M189.92,522.1a3.81,3.81,0,0,1-2.53.87h-.16c-.56,0-.82-.61-.82-1.17s.26-1.17.82-1.17h.16a5.33,5.33,0,0,0,2.46-.46c-.1-1.84-.19-3.67-.27-5.52,0-.54-.16-1.26-.16-1.72a1.74,1.74,0,0,1,.31-1.09,5.11,5.11,0,0,1,.91-.87l.14.09a6.92,6.92,0,0,0,1.29,3.12L191,515c0,2.44.06,3.58.13,4.48a3.69,3.69,0,0,1,1.33-.28c1.18,0,2.24.93,2.24,2.68,0,1-.66,2.75-2.36,2.75-1.06,0-2-.84-2.38-2.51Zm3.21.68a.67.67,0,0,0,.5-.19,1.62,1.62,0,0,0-1.59-1.54,2.25,2.25,0,0,0-.81.16A2.11,2.11,0,0,0,193.13,522.78Z"/><path class="cls-5" d="M196.64,523.11a19.29,19.29,0,0,0,.16-2.81,69.13,69.13,0,0,0-.4-7.58c.47-.56.91-1.05,1.35-1.48l.2.1c.23,2.52.27,4.88.27,7.14a9.27,9.27,0,0,1-.36,3.45,8.32,8.32,0,0,1-1,1.36Z"/><path class="cls-5" d="M203,522.21c-1.8,0-2.7-1-2.7-2.36a3.88,3.88,0,0,1,.92-2.57,2.82,2.82,0,0,1,2-1.08c1.3,0,2.43,1.95,2.43,4.7a6.88,6.88,0,0,1-1.22,4.05c-1,1.33-1.9,1.76-2.72,1.76a6.36,6.36,0,0,1-3.48-1.31l.25-.64a3.73,3.73,0,0,0,1.35.27,5,5,0,0,0,2.88-1.08,5.68,5.68,0,0,0,1.68-1.89A5.46,5.46,0,0,1,203,522.21Zm-.37-4.06c-.79,0-1.29.46-1.29.84,0,.54.9,1.1,2.14,1.1a6.67,6.67,0,0,0,1-.07C204.15,519,203.33,518.15,202.62,518.15Z"/><path class="cls-5" d="M216.86,518.77c1.31-1.39,2.76-2.53,4.24-2.53a2.79,2.79,0,0,1,2.43,1.2,3,3,0,0,1,.55,1.77,3.32,3.32,0,0,1-.36,1.42h1.4V523H225a29.07,29.07,0,0,1-4.17-.31,26.79,26.79,0,0,1-4,.31,13.69,13.69,0,0,1-1.37-.05c-.35.42-.7.87-1.07,1.39l-.2-.23.21-1.28-.57-.09c-.72-.78-1.41-1.55-2.06-2.33l.07-.15c1.09.17,2.26.3,3.47.4l.45-.65a9.77,9.77,0,0,0,.14-1.84,40.87,40.87,0,0,0-.35-5.95c0-.88.39-1.28,1.16-1.94l.17.1a7.18,7.18,0,0,0,1.27,3.13l-1,.74c0,.78,0,1.56,0,2.54a5.62,5.62,0,0,1-.34,2Zm5.22,1.47c.37-.13.67-.27.67-.41a2.25,2.25,0,0,0-2.2-1.47c-1.24,0-2.6.95-4,2.31A23.24,23.24,0,0,0,222.08,520.24Z"/><path class="cls-5" d="M230.57,523h-.15a2.76,2.76,0,0,1-2.67-1.27h0a2.94,2.94,0,0,1-2.43,1.27h-.17c-.56,0-.81-.61-.81-1.17s.25-1.17.81-1.17h.17a2.76,2.76,0,0,0,1.58-.39c.64-.4.7-1.14,1-1.68.27-.19.57-.4.93-.61l.08.07a4.5,4.5,0,0,0-.22,1.08,1.28,1.28,0,0,0,.57,1.2,2.35,2.35,0,0,0,1.25.33h.14Zm-4.23,2.18a9.22,9.22,0,0,1,1.33,1.44,5.39,5.39,0,0,1-1.15,1.19c-.44-.48-.89-.93-1.36-1.39Zm2.46-.11a9.73,9.73,0,0,1,1.33,1.45,5.39,5.39,0,0,1-1.15,1.19c-.44-.48-.89-.94-1.36-1.39Z"/><path class="cls-5" d="M233.27,518.77c1.31-1.39,2.75-2.53,4.23-2.53a2.78,2.78,0,0,1,2.43,1.2,3.07,3.07,0,0,1,.56,1.77,3.32,3.32,0,0,1-.36,1.42h1.4V523h-.17a28.93,28.93,0,0,1-4.16-.31,48,48,0,0,1-6.47.31h-.16c-.56,0-.82-.61-.82-1.17s.26-1.17.82-1.17h1l.53-.65a9.77,9.77,0,0,0,.14-1.84,40.87,40.87,0,0,0-.35-5.95c0-.88.39-1.28,1.16-1.94l.17.1a7.18,7.18,0,0,0,1.27,3.13l-1,.74c0,.78,0,1.56,0,2.54a5.87,5.87,0,0,1-.33,2Zm5.21,1.47c.38-.13.68-.27.68-.41a2.25,2.25,0,0,0-2.2-1.47c-1.24,0-2.6.91-4,2.27A23.72,23.72,0,0,0,238.48,520.24Z"/><path class="cls-5" d="M247.58,519.05a10,10,0,0,0-3-.62,1.73,1.73,0,0,0-1,.21l-.54,1.23h-.23l-.76-1.49a2.43,2.43,0,0,1,2.54-2.08,10.08,10.08,0,0,1,3.23.8,7.54,7.54,0,0,0,2.88.55h.86l0,.09a14.43,14.43,0,0,1-1,1.62,2.65,2.65,0,0,0-2,.7c-2.06,1.87-3.6,2.91-7,2.91h-.17c-.56,0-.81-.61-.81-1.17s.25-1.17.81-1.17h.17a9.86,9.86,0,0,0,5.89-1.52Zm-2.18-6.82a11.91,11.91,0,0,1,1.67,1.36,4.13,4.13,0,0,1-1,1.44c-.48-.42-1.06-.85-1.69-1.3Zm4.39,7.41.06.06c.08.88,1,.93,2,.93H252V523h-.17a3.3,3.3,0,0,1-2.13-.48,2.18,2.18,0,0,1-.62-1.65,5.16,5.16,0,0,1,0-.68Z"/><path class="cls-5" d="M257.49,523h-.15a2.76,2.76,0,0,1-2.67-1.27h0A2.94,2.94,0,0,1,252.2,523H252c-.56,0-.81-.61-.81-1.17s.25-1.17.81-1.17h.17a2.76,2.76,0,0,0,1.58-.39c.64-.4.7-1.14,1-1.68.27-.19.57-.4.93-.61l.08.07a4.5,4.5,0,0,0-.22,1.08,1.28,1.28,0,0,0,.57,1.2,2.35,2.35,0,0,0,1.25.33h.14Zm-4.19-8.54a9.22,9.22,0,0,1,1.33,1.45,5.12,5.12,0,0,1-1.14,1.19c-.44-.48-.9-.94-1.36-1.39Zm2.46-.1a9.18,9.18,0,0,1,1.33,1.44A4.93,4.93,0,0,1,256,517c-.44-.48-.9-.93-1.36-1.38Z"/><path class="cls-5" d="M260.48,511.06a6.92,6.92,0,0,0,1.29,3.12l-1,.79c0,.9.07,2,.07,3.13a7.77,7.77,0,0,1-.43,2.58,5.44,5.44,0,0,1-.59,1.24,2.45,2.45,0,0,1-2.13,1.05h-.16c-.56,0-.82-.61-.82-1.17s.26-1.17.82-1.17h.16a2.35,2.35,0,0,0,1.66-.47c.19-.2.19-.53.19-1.16,0-2.9-.38-5.49-.38-6.07a1.74,1.74,0,0,1,.31-1.09,5.11,5.11,0,0,1,.91-.87Z"/><path class="cls-5" d="M263.39,523.11a21,21,0,0,0,.15-2.81,69.13,69.13,0,0,0-.4-7.58c.47-.56.91-1.05,1.35-1.48l.2.1c.23,2.52.27,4.88.27,7.14a9.27,9.27,0,0,1-.36,3.45,8.32,8.32,0,0,1-1,1.36Z"/><path class="cls-6" d="M307.18,567.62a7.88,7.88,0,0,1,4.33,3.21c.94,1.48,1.42,5,1.42,10.44a25.69,25.69,0,0,1-1.39,9.46,9.89,9.89,0,0,1-4.8,5.12,19.1,19.1,0,0,1-8.75,1.76c-4,0-7.22-.68-9.52-2a9.88,9.88,0,0,1-4.55-5c-.72-2-1.09-5.38-1.09-10.25v-4h12.76v8.3a13.6,13.6,0,0,0,.39,4.22,1.72,1.72,0,0,0,1.76.9,1.88,1.88,0,0,0,1.95-1.14q.48-1.12.48-5.93V579.1a10.35,10.35,0,0,0-.66-4.29,3.33,3.33,0,0,0-2-1.79,20.35,20.35,0,0,0-5-.49v-7.42a25.11,25.11,0,0,0,5.62-.35,2.43,2.43,0,0,0,1.54-1.51,10.33,10.33,0,0,0,.48-3.67v-2.84a7.46,7.46,0,0,0-.55-3.53,1.92,1.92,0,0,0-1.72-.86,1.88,1.88,0,0,0-1.82.9,9.47,9.47,0,0,0-.49,3.84v4.2H282.83v-4.36q0-7.32,3.35-9.9t10.64-2.57q9.14,0,12.38,3.56t3.25,9.91q0,4.29-1.17,6.2A10.28,10.28,0,0,1,307.18,567.62Z"/><path class="cls-5" d="M115.18,563.57a7.3,7.3,0,0,1,1.42,3.64c0,.55,0,.85,0,1.07a6,6,0,0,1-.75,3.09,3.27,3.27,0,0,1-2.65,2,6.74,6.74,0,0,1-3.19-1l.22-.62a4.69,4.69,0,0,0,1.17.14,4.31,4.31,0,0,0,2.83-1.41,4.07,4.07,0,0,0,1.28-2c0-.42-.44-1.24-1.56-2.91.33-.7.7-1.38,1-2Z"/><path class="cls-5" d="M125,567.42v2.33h-.88c-.49,2.11-2,4.26-3.77,4.26a6.3,6.3,0,0,1-3.43-1.3l.27-.62a3.45,3.45,0,0,0,1.42.33,4.89,4.89,0,0,0,2.91-1.2,4.65,4.65,0,0,0,1.36-1.47h-.33c-2.23,0-3.71-.71-3.71-2.81a3.47,3.47,0,0,1,.89-2.32,2.51,2.51,0,0,1,1.86-1c1.31,0,2.15,1.42,2.61,3.84Zm-4-1.93a1.12,1.12,0,0,0-1.17.85c0,.67,1.18,1.12,2.71,1.12a3.15,3.15,0,0,0,.46,0C122.55,566.25,121.88,565.49,121,565.49Z"/><path class="cls-5" d="M128.42,564.75a4.81,4.81,0,0,0-.17,1.06,1.21,1.21,0,0,0,.63,1.16c1.65-2.46,3.3-4,5-4a2.59,2.59,0,0,1,2.59,2.61,4.35,4.35,0,0,1-.44,1.81h1.47v2.33h-.16a23.29,23.29,0,0,1-3.95-.32,13.24,13.24,0,0,1-2.79.32c-1.39,0-2.47-.29-3-1.18h-.06a2.94,2.94,0,0,1-2.4,1.18h-.16c-.56,0-.81-.6-.81-1.16s.25-1.17.81-1.17h.17a2,2,0,0,0,1.79-.7,7.15,7.15,0,0,0,.56-1.39c.28-.21.56-.43.88-.64Zm3,2.67c1.91,0,3.74-.58,3.74-1a1.87,1.87,0,0,0-1.88-1.4c-1.14,0-2.28.81-3.43,2.22A6.06,6.06,0,0,0,131.43,567.42Zm.43-8.64a12.47,12.47,0,0,1,1.66,1.37,3.88,3.88,0,0,1-1.05,1.43,18.53,18.53,0,0,0-1.69-1.29Z"/><path class="cls-5" d="M143.51,565.83a10,10,0,0,0-3-.61,1.77,1.77,0,0,0-1,.21l-.53,1.22h-.24l-.75-1.48a2.41,2.41,0,0,1,2.54-2.09,10.21,10.21,0,0,1,3.23.81,7.54,7.54,0,0,0,2.88.55h.86l0,.09a13.25,13.25,0,0,1-1,1.62,2.64,2.64,0,0,0-2,.7c-2.07,1.86-3.6,2.9-7,2.9h-.16c-.56,0-.82-.6-.82-1.16s.26-1.17.82-1.17h.16a9.82,9.82,0,0,0,5.9-1.53Zm2.2.6.06.06c.08.87,1,.93,2,.93H148v2.33h-.16a3.22,3.22,0,0,1-2.13-.48,2.15,2.15,0,0,1-.62-1.64c0-.23,0-.45,0-.69Z"/><path class="cls-5" d="M151,557.85a6.85,6.85,0,0,0,1.28,3.11l-1,.79c.05.9.07,2,.07,3.14a7.52,7.52,0,0,1-.43,2.58,5.56,5.56,0,0,1-.58,1.23,2.46,2.46,0,0,1-2.14,1H148c-.56,0-.82-.6-.82-1.16s.26-1.17.82-1.17h.16a2.31,2.31,0,0,0,1.66-.48c.2-.2.2-.52.2-1.15,0-2.9-.39-5.49-.39-6.08a1.71,1.71,0,0,1,.32-1.08,4.51,4.51,0,0,1,.91-.87Z"/><path class="cls-5" d="M160.69,568.87c-1.17,0-2.25-.41-2.25-1.66a4.08,4.08,0,0,1,.48-1.79,7.61,7.61,0,0,1,3.41-3.15l0-.62c.37-.37.75-.73,1.15-1.08l.19,0c.05,1.16.07,2.55.07,4.32,0,1,0,1.72.35,2.07a1.66,1.66,0,0,0,1.33.41h.16v2.33h-.16c-1.44,0-2.07-.27-2.57-1.32A6,6,0,0,1,160.69,568.87Zm1.82-4.78c-1.66.77-2.72,1.59-2.72,2.07s.56.55,1.2.55a4.85,4.85,0,0,0,1.56-.25C162.55,565.54,162.53,564.73,162.51,564.09Z"/><path class="cls-5" d="M177.48,569.75h-.16c-1.31,0-2.25-.29-2.65-1.07h0a2.67,2.67,0,0,1-2,1.07,1.27,1.27,0,0,1-1.3-1h-.06a2.59,2.59,0,0,1-1.92,1,1.18,1.18,0,0,1-1.25-.88,3.79,3.79,0,0,1-2.42.88h-.16c-.56,0-.82-.6-.82-1.16s.26-1.17.82-1.17h.16a3.46,3.46,0,0,0,2.09-.52,6.12,6.12,0,0,0,1-1.24,8.68,8.68,0,0,1,1-.47l.13.12a3.25,3.25,0,0,0-.71,1.52c0,.43.23.59.61.59a1.5,1.5,0,0,0,1.1-.45,5.37,5.37,0,0,0,.84-1.52,7,7,0,0,1,.95-.47l.09.12a5.83,5.83,0,0,0-.54,1.59c0,.5.21.73.59.73a1.36,1.36,0,0,0,1.17-.59,6.32,6.32,0,0,0,.66-1.65,8.2,8.2,0,0,1,.93-.57l.08.08a5.43,5.43,0,0,0-.32,1.52c0,.81.6,1.21,1.93,1.21h.16Z"/><path class="cls-5" d="M182.94,569.75h-.16a2.76,2.76,0,0,1-2.67-1.27h0a2.92,2.92,0,0,1-2.44,1.27h-.16c-.56,0-.82-.6-.82-1.16s.26-1.17.82-1.17h.16a2.74,2.74,0,0,0,1.59-.4c.64-.39.7-1.14,1-1.67.27-.19.58-.4.94-.61l.08.07a4.53,4.53,0,0,0-.22,1.07,1.24,1.24,0,0,0,.57,1.2,2.33,2.33,0,0,0,1.25.34h.14Zm-4.24,2.18a9.22,9.22,0,0,1,1.33,1.45,5.34,5.34,0,0,1-1.14,1.19c-.44-.48-.9-.94-1.36-1.39Zm2.46-.1a8.76,8.76,0,0,1,1.33,1.44,5.13,5.13,0,0,1-1.14,1.19c-.44-.48-.9-.93-1.36-1.39Z"/><path class="cls-5" d="M185.89,562.79a7.46,7.46,0,0,1,1.18,3.25,4.89,4.89,0,0,1-.48,2.13,2.52,2.52,0,0,1-1.14,1.19,5.77,5.77,0,0,1-2.35.39h-.17c-.56,0-.81-.6-.81-1.16s.25-1.17.81-1.17h.26a4.74,4.74,0,0,0,2.54-.45,11,11,0,0,0-1.14-2.38,16.92,16.92,0,0,1,1.19-1.82Zm-.09-2.68-.31-.35a.49.49,0,0,0-.4-.16c-.47,0-.78.23-.78.41s.54.61,1.53.61c.43,0,.77,0,1.17,0l.05.1a7.06,7.06,0,0,1-.48.95,7.32,7.32,0,0,0-2.91.84l-.14-.14c.14-.31.29-.6.45-.88a1,1,0,0,1-.71-.93,2,2,0,0,1,.75-1.32,2.25,2.25,0,0,1,1.44-.61c.5,0,.83.25.83.65a1.64,1.64,0,0,1-.34.86Z"/><path class="cls-5" d="M191.26,563.57a7.3,7.3,0,0,1,1.42,3.64c0,.55-.05.85-.05,1.07a6.12,6.12,0,0,1-.74,3.09c-.74,1.25-1.64,2-2.65,2a6.71,6.71,0,0,1-3.19-1l.22-.62a4.61,4.61,0,0,0,1.16.14,4.31,4.31,0,0,0,2.84-1.41,4.07,4.07,0,0,0,1.28-2c0-.42-.45-1.24-1.56-2.91.32-.7.69-1.38,1-2Z"/><path class="cls-5" d="M200.54,558a8.76,8.76,0,0,1,1.33,1.44,5.34,5.34,0,0,1-1.14,1.19c-.44-.48-.9-.93-1.36-1.39Zm.87,3.42.24-.16c.82.68,1.74,1.27,2.52,2a3.34,3.34,0,0,1,1.28,2.8,5.3,5.3,0,0,1-.57,2.45,3.52,3.52,0,0,1-2.77,1.41,2.68,2.68,0,0,1-2.67-2.93,6.26,6.26,0,0,1,1.79-4.17Zm-.88,4.76c0,.7.71,1.34,1.76,1.34a2.59,2.59,0,0,0,2.11-1c-.09-.77-.88-1.57-2.41-2.44C201,565,200.53,565.72,200.53,566.22Zm2.47-8.29a9.22,9.22,0,0,1,1.33,1.45,5.34,5.34,0,0,1-1.14,1.19c-.44-.48-.9-.94-1.36-1.39Z"/><path class="cls-5" d="M213.91,567.42v2.33H213c-.49,2.11-2,4.26-3.78,4.26a6.32,6.32,0,0,1-3.43-1.3l.27-.62a3.49,3.49,0,0,0,1.42.33,4.89,4.89,0,0,0,2.92-1.2,4.49,4.49,0,0,0,1.35-1.47h-.33c-2.22,0-3.7-.71-3.7-2.81a3.51,3.51,0,0,1,.88-2.32,2.51,2.51,0,0,1,1.87-1c1.3,0,2.14,1.42,2.61,3.84Zm-4-1.93a1.12,1.12,0,0,0-1.18.85c0,.67,1.19,1.12,2.72,1.12a3.14,3.14,0,0,0,.45,0C211.51,566.25,210.85,565.49,210,565.49Z"/><path class="cls-5" d="M220.34,564.53a3.16,3.16,0,0,0-4,.06,2.44,2.44,0,0,0,.81,1.27,2.34,2.34,0,0,0,1.44.67,12.78,12.78,0,0,0,3.3-.87l.17.17c-.28.7-.59,1.4-.94,2.1a36.34,36.34,0,0,1-4,1.2,9.75,9.75,0,0,1-3.08.62h-.16c-.56,0-.82-.6-.82-1.16s.26-1.17.82-1.17h.16a9.1,9.1,0,0,0,1.61-.1v0a2.36,2.36,0,0,1-.83-1.82,3.6,3.6,0,0,1,.68-1.93A3,3,0,0,1,218,562c1.19,0,2,.77,2.71,2.1Z"/><path class="cls-5" d="M224.51,566.1c0,1.09.59,1.48,1.7,1.48a5.48,5.48,0,0,0,2.53-.65,5.79,5.79,0,0,0-3.08-3.31c-.4-.22-.64-.42-.64-.69a4.75,4.75,0,0,1,.74-1.79h.08a11.86,11.86,0,0,1,2.94,2.5,4.44,4.44,0,0,1,1.07,2.92,4.54,4.54,0,0,1-.58,2.19A5.16,5.16,0,0,1,226,569.9c-1.44,0-2.31-.78-2.31-2.53a10.88,10.88,0,0,1,.07-1.27Z"/><path class="cls-5" d="M243.57,564.16c.51,1,.83,1.91,1.25,2.64a2.12,2.12,0,0,0,1.61.62h.16v2.33h-.16a2.85,2.85,0,0,1-1.66-.42h0a6.57,6.57,0,0,1-.75,2.5,5.13,5.13,0,0,1-4,1.84c-2.13,0-3.56-1.33-3.56-4a7.19,7.19,0,0,1,.93-3.3l.63.32a4.53,4.53,0,0,0-.53,2,2.46,2.46,0,0,0,2.76,2.64c1.61,0,3.34-1.14,3.59-1.89a9.69,9.69,0,0,0-1.46-3.58,18.36,18.36,0,0,1,1.11-1.71Zm-3.34-3.7a11.87,11.87,0,0,1,1.9,1.5,8.76,8.76,0,0,1-1.18,1.66,20.25,20.25,0,0,0-1.9-1.48Z"/><path class="cls-5" d="M249.4,562.86c3.11,2.35,3.95,4.56,6,4.56h.16v2.33h-.16c-2.24,0-2.4-.83-4.16-3h0a3.6,3.6,0,0,1-1,2.19c-.57.52-1.69.77-3.4.77h-.16c-.56,0-.82-.6-.82-1.16s.26-1.17.82-1.17h.16c1.54,0,2.93-.07,3.28-.63-.12-.84-1.26-2.21-3.3-4.08a3.14,3.14,0,0,1-.19-1.13,2.35,2.35,0,0,1,.45-1.52,2.8,2.8,0,0,1,.69-.5,42.78,42.78,0,0,1,6.66-2.43l.09.09a21,21,0,0,1-1,1.88,38.18,38.18,0,0,0-5.73,2.07v.06c.61.22,1.33.45,2.17.7Z"/><path class="cls-5" d="M263.62,565.62a1.79,1.79,0,0,0-1.59-.8,2.59,2.59,0,0,0-2.45,1.61l.05,0a2.43,2.43,0,0,1,1.28-.36,2.21,2.21,0,0,1,2,2.43c0,1.22-.74,2.83-2.19,2.83-1.21,0-2.11-1-2.35-2.48h-.06a3.29,3.29,0,0,1-2.56.88h-.17c-.56,0-.82-.6-.82-1.16s.26-1.17.82-1.17h.16a4.3,4.3,0,0,0,2.7-.64c.56-2.5,2.08-4.07,4-4.07a1.44,1.44,0,0,1,1.64,1.49,4.32,4.32,0,0,1-.29,1.4Zm-3.22,6.78a10.21,10.21,0,0,1,1.33,1.44,5.18,5.18,0,0,1-1.15,1.19c-.44-.48-.89-.93-1.36-1.38Zm1-2.88c.23,0,.43-.12.43-.26a1.47,1.47,0,0,0-1.41-1.3,2,2,0,0,0-1,.22A2,2,0,0,0,261.39,569.52Zm1.47,2.77a9.73,9.73,0,0,1,1.33,1.45,5.39,5.39,0,0,1-1.15,1.19c-.44-.48-.89-.93-1.36-1.39Z"/><path class="cls-5" d="M97.9,590.64h-.16a2.86,2.86,0,0,1-2.47-.95h0a16,16,0,0,1-6.33,1.46,7.39,7.39,0,0,1-4.1-1,3.61,3.61,0,0,1-1.68-3.23,7.34,7.34,0,0,1,.7-3.09l.71.25a4.85,4.85,0,0,0-.27,1.4c0,1.77,1.48,3.22,5.2,3.22a15.92,15.92,0,0,0,5.19-.92l.55-1.51a8.49,8.49,0,0,1,.92-.63l.11.09a5.3,5.3,0,0,0-.28,1.32c0,.84.82,1.23,1.79,1.23h.16Zm-8.61,2a11.59,11.59,0,0,1,1.92,1.52A8.17,8.17,0,0,1,90,595.83a22.46,22.46,0,0,0-1.92-1.49Z"/><path class="cls-5" d="M104,587.85a5.16,5.16,0,0,0,2.55.45h.16v2.34h-.16a6,6,0,0,1-4.1-1.4,6.63,6.63,0,0,1-4.34,1.4H97.9c-.56,0-.82-.61-.82-1.17s.26-1.17.82-1.17h.5a7.24,7.24,0,0,0,2.52-.31v0c-.46-.39-.93-.84-1.44-1.35a1,1,0,0,0-.76-.37h-.29l0,0,.66-1.9a25.63,25.63,0,0,1,3.76-.42,8.68,8.68,0,0,1,3.29.6c-.1.57-.22,1.15-.38,1.72-.61.57-1.21,1.11-1.78,1.62Zm.56-1.91a6.18,6.18,0,0,0-1.86-.27,8.54,8.54,0,0,0-1.93.19v0a13.35,13.35,0,0,0,1.91,1.48,19.57,19.57,0,0,0,1.88-1.39Z"/><path class="cls-5" d="M118.6,590.64h-.17c-1.3,0-2.25-.3-2.64-1.08h-.05a2.63,2.63,0,0,1-2,1.08,1.27,1.27,0,0,1-1.29-1h-.06a2.63,2.63,0,0,1-1.93,1,1.18,1.18,0,0,1-1.24-.89,3.83,3.83,0,0,1-2.43.89h-.16c-.56,0-.82-.61-.82-1.17s.26-1.17.82-1.17h.16a3.37,3.37,0,0,0,2.09-.52,5.8,5.8,0,0,0,1-1.24,8.87,8.87,0,0,1,1-.46l.12.11a3.3,3.3,0,0,0-.71,1.52c0,.43.24.59.61.59a1.54,1.54,0,0,0,1.11-.45,5.91,5.91,0,0,0,.84-1.52,7.44,7.44,0,0,1,.94-.46l.09.11a5.72,5.72,0,0,0-.53,1.59c0,.5.21.73.58.73a1.39,1.39,0,0,0,1.18-.59,6.6,6.6,0,0,0,.65-1.64,7,7,0,0,1,.93-.57l.08.08a5.84,5.84,0,0,0-.32,1.51c0,.82.6,1.21,1.93,1.21h.17ZM112,582a9.62,9.62,0,0,1,1.4,1.37,4.87,4.87,0,0,1-1.07,1.25c-.47-.45-.94-.87-1.43-1.31Zm1-2.57a9.66,9.66,0,0,1,1.4,1.38,5,5,0,0,1-1.07,1.25c-.47-.46-.94-.88-1.43-1.31Zm1.57,2.45a9.65,9.65,0,0,1,1.4,1.38,5,5,0,0,1-1.08,1.24c-.46-.45-.94-.87-1.43-1.3Z"/><path class="cls-5" d="M121.59,578.73a6.87,6.87,0,0,0,1.28,3.12l-1,.79c0,.9.07,2,.07,3.13a7.52,7.52,0,0,1-.43,2.58,5.86,5.86,0,0,1-.58,1.24,2.48,2.48,0,0,1-2.13,1h-.17c-.56,0-.81-.61-.81-1.17s.25-1.17.81-1.17h.17a2.34,2.34,0,0,0,1.65-.47c.2-.2.2-.53.2-1.16,0-2.9-.39-5.49-.39-6.07a1.74,1.74,0,0,1,.32-1.09,4.51,4.51,0,0,1,.91-.87Z"/><path class="cls-5" d="M124.49,590.78a19.51,19.51,0,0,0,.15-2.81,69.13,69.13,0,0,0-.4-7.58,18.37,18.37,0,0,1,1.36-1.48l.2.1c.23,2.52.26,4.88.26,7.14a9,9,0,0,1-.36,3.45,8.23,8.23,0,0,1-1,1.36Z"/><path class="cls-5" d="M144.71,583.56a8.2,8.2,0,0,1,1.24,3.26,5.51,5.51,0,0,1-1,2.88,14.19,14.19,0,0,1-6.33,1.44,7.4,7.4,0,0,1-4.1-1,3.61,3.61,0,0,1-1.68-3.23,7.34,7.34,0,0,1,.7-3.09l.71.25a4.85,4.85,0,0,0-.27,1.4c0,1.77,1.48,3.21,5.2,3.21a17,17,0,0,0,5.4-.92,17.6,17.6,0,0,0-1.16-2.4,18.13,18.13,0,0,1,1.14-1.82ZM139,592.64a11.59,11.59,0,0,1,1.92,1.52,8.17,8.17,0,0,1-1.19,1.67,22.46,22.46,0,0,0-1.92-1.49Z"/><path class="cls-5" d="M148,590.78a19.51,19.51,0,0,0,.15-2.81,69.1,69.1,0,0,0-.39-7.58,16.66,16.66,0,0,1,1.35-1.48l.2.1c.23,2.52.26,4.88.26,7.14a9,9,0,0,1-.36,3.45,8.23,8.23,0,0,1-1,1.36Z"/><path class="cls-5" d="M157.88,588.3v2.34H157c-.49,2.11-2,4.25-3.78,4.25a6.3,6.3,0,0,1-3.43-1.29l.27-.62a3.49,3.49,0,0,0,1.42.33,4.89,4.89,0,0,0,2.92-1.21,4.47,4.47,0,0,0,1.35-1.46h-.33c-2.22,0-3.71-.72-3.71-2.81a3.52,3.52,0,0,1,.89-2.32,2.48,2.48,0,0,1,1.87-1c1.3,0,2.14,1.41,2.61,3.83Zm-4-1.93a1.13,1.13,0,0,0-1.18.85c0,.68,1.19,1.12,2.72,1.12a2.15,2.15,0,0,0,.45,0C155.48,587.14,154.81,586.37,153.92,586.37Z"/><path class="cls-5" d="M160.84,583.68a7.51,7.51,0,0,1,1.18,3.25,4.85,4.85,0,0,1-.48,2.12,2.52,2.52,0,0,1-1.14,1.19,5.84,5.84,0,0,1-2.36.4h-.16c-.56,0-.82-.61-.82-1.17s.26-1.17.82-1.17h.25c1.34,0,2.55-.26,2.55-.45a10.66,10.66,0,0,0-1.15-2.38,19.87,19.87,0,0,1,1.19-1.82Zm-1.23-3.63a11.91,11.91,0,0,1,1.67,1.36,3.92,3.92,0,0,1-1.05,1.44c-.48-.42-1.06-.85-1.69-1.3Z"/><path class="cls-5" d="M175.61,593.11a4.61,4.61,0,0,1-3.55,1.66c-2.38,0-3.55-1.81-3.55-3.94a6.69,6.69,0,0,1,1-3.39l.63.32a5.06,5.06,0,0,0-.54,1.93,2.45,2.45,0,0,0,.82,2,3.18,3.18,0,0,0,2,.67,3.87,3.87,0,0,0,2.27-.74c.55-.37,1-.75,1-1.14a6.59,6.59,0,0,0-1.27-3,17.11,17.11,0,0,1,1.11-1.93l.12,0c.3.6.56,1.24.83,1.92.2.47.34.73.88.73a1.31,1.31,0,0,0,.91-.44,4.15,4.15,0,0,0,.69-1.49c.34-.2.69-.4,1-.57l.09.08a9.78,9.78,0,0,0-.47,1.69.79.79,0,0,0,.12.5.57.57,0,0,0,.49.23,1.44,1.44,0,0,0,1.17-.6,5.31,5.31,0,0,0,.7-1.72l.88-.53.11.08a6.33,6.33,0,0,0-.31,1.45,1,1,0,0,0,.43,1,3,3,0,0,0,1.48.32h.16v2.34h-.16c-1.21,0-2.35-.33-2.63-1.12h0a2.85,2.85,0,0,1-2,1.12,1.42,1.42,0,0,1-1.4-1h0a2.39,2.39,0,0,1-2,1A5.29,5.29,0,0,1,175.61,593.11Z"/><path class="cls-5" d="M189.81,590.64h-.16a2.48,2.48,0,0,1-2.44-1.31h-.05a2.45,2.45,0,0,1-2.2,1.31h-.16c-.56,0-.82-.61-.82-1.17s.26-1.17.82-1.17h.25c1.19,0,1.72-.57,1.72-1.56,0-2.1-.13-4.71-.35-6.9a14.63,14.63,0,0,1,1.32-1.21l.15.07a50.82,50.82,0,0,1,.2,5.22c0,1.22,0,2.26,0,2.8,0,1.11.29,1.58,1.52,1.58h.23Z"/><path class="cls-5" d="M195.87,586.72a10.07,10.07,0,0,0-3-.62,1.77,1.77,0,0,0-1,.21l-.53,1.23h-.24l-.76-1.49A2.43,2.43,0,0,1,193,584a10.14,10.14,0,0,1,3.23.8,7.54,7.54,0,0,0,2.88.55h.86l0,.09a13.25,13.25,0,0,1-1,1.62,2.64,2.64,0,0,0-2,.7c-2.07,1.87-3.6,2.91-7,2.91h-.16c-.56,0-.82-.61-.82-1.17s.26-1.17.82-1.17H190a9.89,9.89,0,0,0,5.9-1.52ZM194,591.91a11.91,11.91,0,0,1,1.67,1.36,4.12,4.12,0,0,1-1.05,1.43,20,20,0,0,0-1.69-1.29Zm4-4.6.06.06c.08.88,1,.93,2,.93h.16v2.34h-.16a3.28,3.28,0,0,1-2.13-.48,2.18,2.18,0,0,1-.62-1.65c0-.23,0-.45,0-.68Z"/><path class="cls-5" d="M202.38,589.26a2,2,0,0,1-1.92,1.38h-.15c-.54,0-.81-.56-.81-1.17s.26-1.17.82-1.17h.16a1.92,1.92,0,0,0,1-.3c.91-.57.7-2.2,1.84-3.26a2.22,2.22,0,0,1,1.54-.69c1.94,0,2.6,3,2.6,4.27,0,.16-.42,2.21-2,2.21a5.32,5.32,0,0,1-3.08-1.27Zm3.45-1c.23,0,.37,0,.37-.1-.25-1.31-.95-2.15-1.73-2.15a1.51,1.51,0,0,0-1.36,1A4.22,4.22,0,0,0,205.83,588.3Z"/><path class="cls-5" d="M226,583.56a8.2,8.2,0,0,1,1.24,3.26,5.51,5.51,0,0,1-1,2.88,14.19,14.19,0,0,1-6.33,1.44,7.44,7.44,0,0,1-4.11-1,3.62,3.62,0,0,1-1.67-3.23,7.48,7.48,0,0,1,.69-3.09l.72.25a4.53,4.53,0,0,0-.27,1.4c0,1.77,1.48,3.21,5.2,3.21a16.94,16.94,0,0,0,5.39-.92,17.31,17.31,0,0,0-1.15-2.4,20.09,20.09,0,0,1,1.13-1.82Zm-7-3.09c.58.49,1.13,1,1.64,1.5a15.67,15.67,0,0,1-1.15,1.46c-.56-.55-1.13-1-1.69-1.5Zm2.82-.15c.58.49,1.13,1,1.64,1.5a17.1,17.1,0,0,1-1.15,1.46c-.56-.55-1.13-1-1.69-1.5Z"/><path class="cls-5" d="M230.56,582.91c1.76,2.64,2.73,3.73,2.73,5.83.56-.33,1-.76,1-2.08a59,59,0,0,0-.32-6.17c0-.64.25-1.17,1.18-1.89l.2.13a.76.76,0,0,0,0,.27,8.13,8.13,0,0,0,1.3,2.82l-1.06.78v2.22a9.92,9.92,0,0,1-1,4.85,3.36,3.36,0,0,1-3.3,1.79,9.42,9.42,0,0,1-3.47-.71v-.29a26.65,26.65,0,0,0,4.94-1.46c-.09-.61-1.46-2.58-3.57-5.43a4.53,4.53,0,0,1-1.13-2.21,3.62,3.62,0,0,1,.6-1.66h.15a12.21,12.21,0,0,0,2.41,2.33Z"/><path class="cls-5" d="M240.82,589.88c-1.8,0-2.69-1-2.69-2.36a3.83,3.83,0,0,1,.92-2.57,2.81,2.81,0,0,1,2-1.08c1.29,0,2.42,2,2.42,4.7a7,7,0,0,1-1.21,4c-1,1.33-1.9,1.76-2.73,1.76a6.31,6.31,0,0,1-3.47-1.31l.24-.64a3.73,3.73,0,0,0,1.35.27,5,5,0,0,0,2.88-1.08,5.68,5.68,0,0,0,1.68-1.89A5.41,5.41,0,0,1,240.82,589.88Zm-.36-4.06c-.8,0-1.3.46-1.3.84,0,.54.9,1.1,2.15,1.1a6.78,6.78,0,0,0,1-.07C242,586.64,241.17,585.82,240.46,585.82Z"/><path class="cls-5" d="M245.51,590.78a19.38,19.38,0,0,0,.16-2.81,69.13,69.13,0,0,0-.4-7.58c.47-.56.91-1,1.35-1.48l.2.1c.23,2.52.27,4.88.27,7.14a9.27,9.27,0,0,1-.36,3.45,8.32,8.32,0,0,1-1,1.36Z"/><path class="cls-5" d="M257.09,590.64h-.16a2.37,2.37,0,0,1-2.52-2h0a2.07,2.07,0,0,1-.64,1.13,3.9,3.9,0,0,1-2.5.83c-1.23,0-2.07-.73-2.07-2.72,0-.23,0-.57,0-1l.75-.07a1.34,1.34,0,0,0,1.48,1.44,4.41,4.41,0,0,0,1.72-.4c.43-.19.73-.41.73-.77a18.7,18.7,0,0,0-1-3.9,13,13,0,0,1,1.07-1.59l.2.05c.29,1.06.59,2.41,1,4.68.24,1.33.85,1.93,1.79,1.93h.16Z"/><path class="cls-5" d="M259.15,589.26a2,2,0,0,1-1.92,1.38h-.16c-.53,0-.8-.56-.8-1.17s.26-1.17.82-1.17h.16a1.86,1.86,0,0,0,1-.3c.91-.57.7-2.2,1.84-3.26a2.24,2.24,0,0,1,1.54-.69c1.95,0,2.6,3,2.6,4.27,0,.16-.42,2.21-2,2.21a5.34,5.34,0,0,1-3.08-1.27Zm3.45-1c.22,0,.36,0,.36-.1-.24-1.31-.94-2.15-1.72-2.15a1.53,1.53,0,0,0-1.37,1A4.22,4.22,0,0,0,262.6,588.3Z"/><path class="cls-5" d="M141.1,63.79c-5.68,0-10-2.09-10-7.14a10.31,10.31,0,0,1,1.21-5l.82.35a10,10,0,0,0-.59,3.11c0,4.15,4.08,5.85,9.23,5.85a30.94,30.94,0,0,0,7-.88,16.76,16.76,0,0,0,2.71-.84c.16-.07.2-.17.2-.23,0-1-1-3-2-5.07a15.19,15.19,0,0,1,1.54-2.31h.1a14.49,14.49,0,0,1,2.05,6.25,6.05,6.05,0,0,1-1.09,3.43C150.41,62.43,145.16,63.79,141.1,63.79Zm-.8-13.68c-.84-.8-1.58-1.46-2.4-2.13A18,18,0,0,1,139.52,46a19,19,0,0,1,2.34,2.19A11.29,11.29,0,0,1,140.3,50.11Zm4-.27c-.84-.8-1.58-1.45-2.4-2.13a18,18,0,0,1,1.62-2,19.08,19.08,0,0,1,2.34,2.2A11.19,11.19,0,0,1,144.26,49.84Z"/><path class="cls-5" d="M162.3,63h-.22a4.53,4.53,0,0,1-3.51-1.17c-1.25-1.27-1.27-2.73-1.27-5.74,0-3.9-.22-8-.53-12.33a19,19,0,0,1,1.93-1.91l.14.09c.33,4.49.33,9.8.33,14.84v1.17a2.15,2.15,0,0,0,1.54,2.2,4.2,4.2,0,0,0,1.31.22h.28Z"/><path class="cls-5" d="M170.51,60.34V63H162.3a1.32,1.32,0,0,1-1.43-1.38,1.28,1.28,0,0,1,1.43-1.25Z"/><path class="cls-5" d="M178.71,60.34V63h-8.2a1.32,1.32,0,0,1-1.44-1.38,1.28,1.28,0,0,1,1.44-1.25Z"/><path class="cls-5" d="M186.91,60.34V63h-8.2a1.31,1.31,0,0,1-1.43-1.38,1.27,1.27,0,0,1,1.43-1.25Z"/><path class="cls-5" d="M195.12,60.34V63h-8.21a1.32,1.32,0,0,1-1.43-1.38,1.28,1.28,0,0,1,1.43-1.25Z"/><path class="cls-5" d="M203.32,60.34V63h-8.2a1.32,1.32,0,0,1-1.44-1.38,1.28,1.28,0,0,1,1.44-1.25Z"/><path class="cls-5" d="M211.52,60.34V63h-8.2a1.32,1.32,0,0,1-1.44-1.38,1.28,1.28,0,0,1,1.44-1.25Z"/><path class="cls-5" d="M219.73,60.34V63h-8.21a1.32,1.32,0,0,1-1.43-1.38,1.28,1.28,0,0,1,1.43-1.25Z"/><path class="cls-5" d="M227.93,60.34V63h-8.2a1.32,1.32,0,0,1-1.44-1.38,1.28,1.28,0,0,1,1.44-1.25Z"/><path class="cls-5" d="M236.13,60.34V63h-8.2a1.32,1.32,0,0,1-1.44-1.38,1.28,1.28,0,0,1,1.44-1.25Z"/><path class="cls-5" d="M244.34,60.34V63h-8.21a1.32,1.32,0,0,1-1.43-1.38,1.28,1.28,0,0,1,1.43-1.25Z"/><path class="cls-5" d="M252.54,60.34V63h-8.2a1.32,1.32,0,0,1-1.44-1.38,1.28,1.28,0,0,1,1.44-1.25Z"/><path class="cls-5" d="M260.74,60.34V63h-8.2a1.32,1.32,0,0,1-1.44-1.38,1.28,1.28,0,0,1,1.44-1.25Z"/><path class="cls-5" d="M269,60.34V63h-8.21a1.31,1.31,0,0,1-1.43-1.38,1.27,1.27,0,0,1,1.43-1.25Z"/><path class="cls-5" d="M277.15,60.34V63H269a1.32,1.32,0,0,1-1.44-1.38A1.28,1.28,0,0,1,269,60.34Z"/><path class="cls-5" d="M285.35,60.34V63h-8.2a1.32,1.32,0,0,1-1.44-1.38,1.28,1.28,0,0,1,1.44-1.25Z"/><path class="cls-5" d="M285.8,60.34c1.58,0,3.22-.63,3.53-1.8l.59-2.22,1.42-1,.12.14a11.51,11.51,0,0,0-.45,2.38,2,2,0,0,0,.68,1.7,3.76,3.76,0,0,0,2.54.82h.37V63h-.47c-2,0-3.53-.56-4.23-2.09h-.08A4.4,4.4,0,0,1,285.74,63h-.39a1.31,1.31,0,0,1-1.43-1.38,1.27,1.27,0,0,1,1.43-1.25Zm2.32,10.81c-.84-.8-1.58-1.46-2.4-2.13a18,18,0,0,1,1.62-2,19.77,19.77,0,0,1,2.34,2.19A11.29,11.29,0,0,1,288.12,71.15Zm4-.27c-.84-.8-1.58-1.45-2.4-2.13a19,19,0,0,1,1.62-2,19.88,19.88,0,0,1,2.34,2.2A11.19,11.19,0,0,1,292.08,70.88Z"/><path class="cls-5" d="M295.85,60.34c3.32,0,6.73-1.17,10.95-3.71l0-.08a19.34,19.34,0,0,0-6.44-1.44,3.27,3.27,0,0,0-2.6,1l.25,1L297.41,59h-.2l-1-2.71c.16-2.27,2-3.69,4.45-3.69a19.68,19.68,0,0,1,6.73,1.79,10.34,10.34,0,0,0,3.5.65l1.67,0,.06,0-1.09,2.16A6.32,6.32,0,0,0,308,58l-3.42,2.24A16.05,16.05,0,0,1,295.67,63H294.6a1.31,1.31,0,0,1-1.43-1.38,1.27,1.27,0,0,1,1.43-1.25Z"/><path class="cls-5" d="M325.75,41.86c.13,4,.21,8,.21,12a12.7,12.7,0,0,0,.53,4.58A2.91,2.91,0,0,0,329,60.34h.17V63h-.39c-1.91,0-4.25-1.73-4.25-5.66l-.14,0a7.7,7.7,0,0,1-4.47,5.29,10.41,10.41,0,0,1-4.19.82l-2.23-.21-.08-.14a39.12,39.12,0,0,0,7.81-3.84c-.35-2-2.32-5.27-5.91-10-1-1.42-2.13-2.65-2.13-3.37a6.43,6.43,0,0,1,.55-1.88h.11a22.63,22.63,0,0,0,3.87,2.91L317,48.06c1.08,1.5,2.17,3.07,3.28,5a10,10,0,0,1,1.62,4.39,11.18,11.18,0,0,1-.09,1.29l.07,0A10.39,10.39,0,0,0,323.35,57c.82-1.31.82-2.75.82-6.28,0-2.36-.16-4.73-.26-7.13a10.35,10.35,0,0,1,1.68-1.75Z"/><path class="cls-5" d="M329.59,60.34c1.74,0,3.13-.57,3.38-1.8.16-.8.33-1.58.53-2.34a11.33,11.33,0,0,1,1.36-1.07l.12.13a7.44,7.44,0,0,0-.33,1.92,2.44,2.44,0,0,0,1.23,2.28,25.33,25.33,0,0,1,4.23-5.21A7.84,7.84,0,0,1,345,52a4.15,4.15,0,0,1,3.81,2.25,5.3,5.3,0,0,1,.52,2.4,6.15,6.15,0,0,1-.39,1.95c-.56,1.62-1.85,2.91-4.27,3.71a16.4,16.4,0,0,1-5.11.64c-2.7,0-4.77-.62-5.9-2.16h-.06A4.83,4.83,0,0,1,329.38,63h-.24a1.32,1.32,0,0,1-1.44-1.38,1.28,1.28,0,0,1,1.44-1.25Zm11.19,0a13.1,13.1,0,0,0,5.34-1.17c1-.47,1.68-.92,1.68-1.47a3.58,3.58,0,0,0-3.53-3.12c-2.42,0-5.19,2.23-7.32,5.33A12.94,12.94,0,0,0,340.78,60.34Z"/><path class="cls-5" d="M81,105.48c-2,0-3.76-.68-3.76-2.77a7,7,0,0,1,.8-3c1-2.26,3.22-3.87,5.72-5.27l-.06-1c.62-.62,1.27-1.23,1.93-1.81l.32.09c.09,1.94.11,4.26.11,7.23,0,1.64,0,2.89.59,3.48a2.83,2.83,0,0,0,2.23.68h.27V107h-.27c-2.41,0-3.46-.45-4.3-2.21A10.11,10.11,0,0,1,81,105.48Zm.18-19.24a16.36,16.36,0,0,1,2.23,2.43,9,9,0,0,1-1.92,2c-.74-.8-1.5-1.56-2.28-2.33Zm2.87,11.24c-2.77,1.28-4.55,2.67-4.55,3.47s.94.92,2,.92a8.64,8.64,0,0,0,2.62-.41C84.17,99.92,84.13,98.55,84.09,97.48Zm1.25-11.41a15.84,15.84,0,0,1,2.23,2.42,8.6,8.6,0,0,1-1.92,2c-.74-.8-1.5-1.56-2.28-2.32Z"/><path class="cls-5" d="M98.33,107h-.25c-1.78,0-3.44-.35-4.48-2.13h-.06A4.89,4.89,0,0,1,89.46,107h-.27c-.94,0-1.37-1-1.37-2s.43-2,1.37-2h.27a4.66,4.66,0,0,0,2.66-.66c1.07-.67,1.17-1.92,1.6-2.82.45-.31,1-.66,1.56-1l.14.12a7.79,7.79,0,0,0-.37,1.79,2.09,2.09,0,0,0,1,2,3.83,3.83,0,0,0,2.09.57h.23Zm-7.09,3.65A15.84,15.84,0,0,1,93.47,113a8.81,8.81,0,0,1-1.92,2c-.74-.8-1.5-1.56-2.28-2.32Zm4.12-.18a15.43,15.43,0,0,1,2.23,2.43,8.8,8.8,0,0,1-1.92,2c-.74-.8-1.5-1.56-2.28-2.33Z"/><path class="cls-5" d="M106.73,107h-.28a4.15,4.15,0,0,1-4.08-2.19h-.08A4.1,4.1,0,0,1,98.6,107h-.27c-.94,0-1.37-1-1.37-2s.43-2,1.37-2h.43c2,0,2.87-1,2.87-2.62,0-3.51-.21-7.89-.59-11.56a28.94,28.94,0,0,1,2.21-2l.26.12a82.86,82.86,0,0,1,.33,8.75c0,2,0,3.79,0,4.68,0,1.86.49,2.66,2.54,2.66h.39Z"/><path class="cls-5" d="M116.88,100.4a16.68,16.68,0,0,0-5-1,3,3,0,0,0-1.62.35l-.9,2H109l-1.27-2.48A4.07,4.07,0,0,1,112,95.8a16.68,16.68,0,0,1,5.41,1.34,12.53,12.53,0,0,0,4.83.92h1.44l0,.16a24.65,24.65,0,0,1-1.62,2.71,4.45,4.45,0,0,0-3.36,1.17c-3.46,3.13-6,4.87-11.74,4.87h-.27c-.94,0-1.37-1-1.37-2s.43-2,1.37-2H107c4.14,0,6.8-.6,9.88-2.56Zm3.7,1,.09.1c.14,1.46,1.7,1.56,3.4,1.56h.28V107h-.28c-1.87,0-3-.28-3.57-.8a3.65,3.65,0,0,1-1-2.76,11,11,0,0,1,0-1.15Z"/><path class="cls-5" d="M128.86,105.52a6.42,6.42,0,0,1-4.24,1.45h-.27c-.94,0-1.37-1-1.37-2s.43-2,1.37-2h.27a8.88,8.88,0,0,0,4.12-.78c-.18-3.09-.31-6.15-.45-9.24,0-.92-.27-2.11-.27-2.89a2.89,2.89,0,0,1,.52-1.82,8.35,8.35,0,0,1,1.53-1.46l.23.16c0,1.28.74,2.87,2.15,5.21l-1.78,1.35c0,4.08.1,6,.22,7.5a6.28,6.28,0,0,1,2.22-.47c2,0,3.75,1.56,3.75,4.49,0,1.72-1.11,4.61-3.94,4.61-1.78,0-3.4-1.41-4-4.2Zm5.37,1.13a1.09,1.09,0,0,0,.84-.31,2.71,2.71,0,0,0-2.66-2.58A4.12,4.12,0,0,0,131,104,3.55,3.55,0,0,0,134.23,106.65Z"/><path class="cls-5" d="M140.13,107.2a34.22,34.22,0,0,0,.25-4.71,115.65,115.65,0,0,0-.66-12.69A31.6,31.6,0,0,1,142,87.32l.33.17c.39,4.22.45,8.17.45,12,0,3.06-.17,5.11-.6,5.78a14.24,14.24,0,0,1-1.6,2.28Z"/><path class="cls-5" d="M174,95.11a13.82,13.82,0,0,1,2.07,5.47,9.14,9.14,0,0,1-1.62,4.82,23.71,23.71,0,0,1-10.6,2.41,12.51,12.51,0,0,1-6.88-1.62,6.07,6.07,0,0,1-2.81-5.41,12.34,12.34,0,0,1,1.17-5.18l1.19.41a8.07,8.07,0,0,0-.45,2.34c0,3,2.48,5.39,8.71,5.39a28.37,28.37,0,0,0,9.05-1.54,29.33,29.33,0,0,0-1.94-4,30.35,30.35,0,0,1,1.9-3.05ZM162.2,89.94c1,.82,1.89,1.66,2.75,2.52A29.06,29.06,0,0,1,163,94.9c-.94-.92-1.9-1.76-2.83-2.52Zm4.72-.26q1.47,1.23,2.76,2.52a27.28,27.28,0,0,1-1.94,2.44c-.93-.91-1.89-1.75-2.83-2.52Z"/><path class="cls-5" d="M184.83,107h-.33c-2.65,0-4.57-1.35-4.63-5.16,0-2.23-.19-8-.7-12.77a26.92,26.92,0,0,1,2.25-2.17l.27.14a83.33,83.33,0,0,1,.35,8.75c0,2,0,3.08,0,4.68,0,2,.78,2.62,2.56,2.62h.27Z"/><path class="cls-5" d="M195.61,98.22a4.93,4.93,0,0,0-2.94-1.14c-2.17,0-3.77.92-3.77,1.23a4.1,4.1,0,0,0,1.34,2.13,3.88,3.88,0,0,0,2.43,1.14,21.27,21.27,0,0,0,5.52-1.47l.28.29c-.47,1.18-1,2.35-1.57,3.52-1.85.88-4.66,1.35-6.64,2a16.65,16.65,0,0,1-5.15,1h-.28c-.93,0-1.36-1-1.36-2s.43-2,1.36-2h.28a15.22,15.22,0,0,0,2.69-.17v-.06a4,4,0,0,1-1.38-3,6,6,0,0,1,1.13-3.24A5.12,5.12,0,0,1,191.71,94c2,0,3.4,1.29,4.53,3.51Z"/><path class="cls-5" d="M212.43,96.3a62,62,0,0,0,4.24,5.34,4,4,0,0,0,3.28,1.42h.27V107H220c-1.76,0-3-.45-3.69-1.51h-.06c0,2.43-1.54,4.2-3,4.2-1.68,0-3.45-1.56-4-4.18h-.06a4,4,0,0,1-3,1.49c-2.76,0-4.3-1.47-4.34-5.16,0-2.23-.22-8-.72-12.77a28.45,28.45,0,0,1,2.24-2.17l.28.14a83.33,83.33,0,0,1,.35,8.75c0,2,0,3.08,0,4.68,0,2,.78,2.62,2.56,2.62a2.68,2.68,0,0,0,2.2-1c.55-.62,2-3.84,3.38-5.76Zm-1.72,6.35a3.21,3.21,0,0,0,2.83,3.24c.57,0,1-.5,1-1.29,0-1.17-1.11-2.44-2.6-4.1l-.37-.41A4.54,4.54,0,0,0,210.71,102.65Z"/><path class="cls-5" d="M230.38,100.4a16.8,16.8,0,0,0-5-1,3,3,0,0,0-1.62.35l-.9,2h-.39l-1.27-2.48a4.07,4.07,0,0,1,4.26-3.49,16.74,16.74,0,0,1,5.41,1.34,12.49,12.49,0,0,0,4.82.92h1.45l0,.16a24.65,24.65,0,0,1-1.62,2.71,4.45,4.45,0,0,0-3.36,1.17c-3.46,3.13-6,4.87-11.74,4.87h-.28c-.93,0-1.36-1-1.36-2s.43-2,1.36-2h.28c4.14,0,6.79-.6,9.88-2.56Zm-3.07,8.7a19.85,19.85,0,0,1,2.8,2.28,6.8,6.8,0,0,1-1.76,2.4,35.19,35.19,0,0,0-2.83-2.16Zm6.76-7.7.1.1c.14,1.46,1.7,1.56,3.4,1.56h.27V107h-.27c-1.88,0-3-.28-3.58-.8a3.69,3.69,0,0,1-1-2.76,11,11,0,0,1,0-1.15Z"/><path class="cls-5" d="M246.24,107H246a4.15,4.15,0,0,1-4.09-2.19h-.07a4.12,4.12,0,0,1-3.7,2.19h-.27c-.94,0-1.37-1-1.37-2s.43-2,1.37-2h.43c2,0,2.87-1,2.87-2.62,0-3.51-.21-7.89-.58-11.56a27.1,27.1,0,0,1,2.2-2L243,87a82.86,82.86,0,0,1,.33,8.75c0,2,0,3.79,0,4.68,0,1.86.49,2.66,2.54,2.66h.39Z"/><path class="cls-5" d="M251.26,87c0,1.28.74,2.87,2.15,5.21l-1.74,1.33c.08,1.5.12,3.34.12,5.25a12.69,12.69,0,0,1-.73,4.32,9.13,9.13,0,0,1-1,2.07,4.12,4.12,0,0,1-3.58,1.76h-.27c-.94,0-1.37-1-1.37-2s.43-2,1.37-2h.27a3.87,3.87,0,0,0,2.78-.8c.33-.33.33-.88.33-1.93,0-4.87-.65-9.2-.65-10.18a2.89,2.89,0,0,1,.53-1.82A8,8,0,0,1,251,86.87Z"/><path class="cls-5" d="M280.91,101.67a4.67,4.67,0,0,1-1.86,2.45,2.52,2.52,0,0,1,1,2.3,8.81,8.81,0,0,1-.86,3.57,11.62,11.62,0,0,1-8.87,4.28c-4.12,0-6.58-3.2-6.58-7.28a16.35,16.35,0,0,1,1.29-6.39l1.09.47a11.8,11.8,0,0,0-.7,3.59c0,3.6,2.19,5.61,5.41,5.61a13,13,0,0,0,7.38-2.74c-.94-.74-3.26-1.07-6.38-1.11l-.18-.29,1.29-2.87a13.94,13.94,0,0,0,6.07-2.05c1.43-1.06,1.62-1.35,1.62-3.21,0-2.81-.19-5.9-.5-9.12a21,21,0,0,1,2.14-2.17l.26.18c.33,3.83.35,7.44.35,10.8v2c0,2.15.84,3.4,3.07,3.4V107h-.28c-2.54,0-4.35-1.29-4.66-5.3Z"/><path class="cls-5" d="M296.75,98.22a5,5,0,0,0-2.95-1.14c-2.17,0-3.77.92-3.77,1.23a4.07,4.07,0,0,0,1.35,2.13,3.85,3.85,0,0,0,2.42,1.14,21.4,21.4,0,0,0,5.53-1.47l.27.29c-.47,1.18-1,2.35-1.56,3.52-1.86.88-4.67,1.35-6.64,2a16.75,16.75,0,0,1-5.16,1H286c-.94,0-1.37-1-1.37-2s.43-2,1.37-2h.27a15.34,15.34,0,0,0,2.7-.17v-.06a4,4,0,0,1-1.39-3,6,6,0,0,1,1.13-3.24A5.13,5.13,0,0,1,292.84,94c2,0,3.4,1.29,4.53,3.51Z"/><path class="cls-5" d="M303.56,84.15l-.52-.58a.8.8,0,0,0-.67-.27c-.78,0-1.31.39-1.31.68,0,.51.9,1,2.56,1,.73,0,1.29,0,2-.05l.07.17a10.2,10.2,0,0,1-.8,1.58A12.58,12.58,0,0,0,300,88.12l-.23-.23a14.55,14.55,0,0,1,.76-1.47,1.66,1.66,0,0,1-1.19-1.56,3.31,3.31,0,0,1,1.25-2.21,3.78,3.78,0,0,1,2.42-1c.84,0,1.38.43,1.38,1.09a2.63,2.63,0,0,1-.56,1.44ZM304.78,94c2.94,4.43,4.57,6.25,4.57,9.76.93-.54,1.62-1.27,1.62-3.47A99.16,99.16,0,0,0,310.44,90c0-1.08.41-2,2-3.17l.33.22a1.13,1.13,0,0,0-.07.45c0,.85.89,2.61,2.16,4.72l-1.77,1.31v3.71a16.62,16.62,0,0,1-1.7,8.13c-1,1.83-2.54,3-5.53,3a15.78,15.78,0,0,1-5.82-1.19v-.49a43.87,43.87,0,0,0,8.28-2.44c-.16-1-2.44-4.33-6-9.1-1.15-1.56-1.89-2.73-1.89-3.71a5.93,5.93,0,0,1,1-2.77l.25,0a21.31,21.31,0,0,0,4,3.9Z"/><path class="cls-5" d="M317.55,107.2a34.22,34.22,0,0,0,.25-4.71,115.65,115.65,0,0,0-.66-12.69,31.6,31.6,0,0,1,2.26-2.48l.34.17c.39,4.22.45,8.17.45,12,0,3.06-.18,5.11-.61,5.78a14.24,14.24,0,0,1-1.6,2.28Z"/><path class="cls-5" d="M343,111.11a7.69,7.69,0,0,1-5.94,2.79c-4,0-6-3.05-6-6.6a11.07,11.07,0,0,1,1.62-5.68l1.06.52a8.33,8.33,0,0,0-.92,3.25,4.05,4.05,0,0,0,1.39,3.43,5.22,5.22,0,0,0,3.26,1.12,6.66,6.66,0,0,0,3.81-1.23c.92-.63,1.6-1.27,1.72-1.92a11,11,0,0,0-2.13-5,29,29,0,0,1,1.85-3.22l.22,0c.49,1,.93,2.09,1.38,3.22.34.78.57,1.23,1.47,1.23a2.16,2.16,0,0,0,1.52-.74,6.94,6.94,0,0,0,1.17-2.5c.57-.33,1.16-.67,1.76-1l.14.14a16.78,16.78,0,0,0-.78,2.83,1.45,1.45,0,0,0,.19.84,1,1,0,0,0,.82.39,2.48,2.48,0,0,0,2-1,9.12,9.12,0,0,0,1.17-2.88l1.46-.89.2.13a10.08,10.08,0,0,0-.53,2.42c0,.92.22,1.37.72,1.68a4.85,4.85,0,0,0,2.48.55h.28V107h-.28c-2,0-3.94-.55-4.41-1.88h-.06a4.74,4.74,0,0,1-3.3,1.88,2.36,2.36,0,0,1-2.34-1.6H348a4,4,0,0,1-3.42,1.69A8.57,8.57,0,0,1,343,111.11Z"/><path class="cls-5" d="M366.85,107h-.28a4.14,4.14,0,0,1-4.08-2.19h-.08a4.11,4.11,0,0,1-3.69,2.19h-.27c-.94,0-1.37-1-1.37-2s.43-2,1.37-2h.43c2,0,2.87-1,2.87-2.62,0-3.51-.22-7.89-.59-11.56a27.18,27.18,0,0,1,2.21-2l.25.12a80.27,80.27,0,0,1,.33,8.75c0,2,0,3.79,0,4.68,0,1.86.48,2.66,2.53,2.66h.4Z"/><path class="cls-5" d="M377,100.4a16.8,16.8,0,0,0-5-1,3,3,0,0,0-1.62.35l-.9,2h-.39l-1.27-2.48a4.07,4.07,0,0,1,4.26-3.49,16.74,16.74,0,0,1,5.41,1.34,12.49,12.49,0,0,0,4.82.92h1.45l0,.16a24.65,24.65,0,0,1-1.62,2.71,4.45,4.45,0,0,0-3.36,1.17c-3.46,3.13-6,4.87-11.74,4.87h-.27c-.94,0-1.37-1-1.37-2s.43-2,1.37-2h.27c4.14,0,6.8-.6,9.88-2.56Zm-3.06,8.7a20.34,20.34,0,0,1,2.79,2.28,6.8,6.8,0,0,1-1.76,2.4,35.19,35.19,0,0,0-2.83-2.16Zm6.75-7.7.1.1c.14,1.46,1.7,1.56,3.4,1.56h.27V107h-.27c-1.88,0-3-.28-3.58-.8a3.69,3.69,0,0,1-1-2.76,11,11,0,0,1,0-1.15Z"/><path class="cls-5" d="M389,105.52a6.39,6.39,0,0,1-4.23,1.45h-.28c-.93,0-1.36-1-1.36-2s.43-2,1.36-2h.28a8.9,8.9,0,0,0,4.12-.78c-.18-3.09-.32-6.15-.45-9.24,0-.92-.28-2.11-.28-2.89a2.89,2.89,0,0,1,.53-1.82,8,8,0,0,1,1.53-1.46l.23.16c0,1.28.74,2.87,2.15,5.21l-1.78,1.35c0,4.08.1,6,.22,7.5a6.28,6.28,0,0,1,2.22-.47c2,0,3.75,1.56,3.75,4.49,0,1.72-1.11,4.61-3.94,4.61-1.78,0-3.4-1.41-4-4.2Zm5.38,1.13a1.09,1.09,0,0,0,.84-.31,2.72,2.72,0,0,0-2.66-2.58,4.07,4.07,0,0,0-1.37.26A3.55,3.55,0,0,0,394.35,106.65Z"/><path class="cls-5" d="M400.24,107.2a32.57,32.57,0,0,0,.26-4.71,115.68,115.68,0,0,0-.67-12.69,31.62,31.62,0,0,1,2.27-2.48l.33.17c.39,4.22.45,8.17.45,12,0,3.06-.18,5.11-.6,5.78a14.34,14.34,0,0,1-1.61,2.28Z"/><path class="cls-5" d="M135.48,130.91l1,1.85a5.2,5.2,0,0,1,.68,2.6v1.5a6.24,6.24,0,0,1-1.72,3.8,3.2,3.2,0,0,1-2.26,1.24,7.92,7.92,0,0,1-3.51-1.05l.15-.46a5,5,0,0,0,1.52.24c1.93,0,3.89-1.66,4.8-3.69a1.45,1.45,0,0,0,.15-.6,2.4,2.4,0,0,0-.19-.72,21.93,21.93,0,0,0-1.64-3c.31-.59.62-1.15,1-1.71Z"/><path class="cls-5" d="M146.87,136.22V138h-1.14a6.3,6.3,0,0,1-1,2.8,4.87,4.87,0,0,1-3.29,2.34,8,8,0,0,1-3.94-1.38l.23-.45a4.26,4.26,0,0,0,2,.49,5.34,5.34,0,0,0,3.8-1.89,4.38,4.38,0,0,0,1.29-1.91h-.67c-2.79,0-4.21-.89-4.21-2.81a3.67,3.67,0,0,1,.7-2.2,2.64,2.64,0,0,1,2.1-1.31c1.26,0,2.56,1.76,2.94,4.57Zm-3.11-2a2,2,0,0,0-1.45-.76c-.76,0-1.54.65-1.54,1.2,0,.7.64,1.11,1.49,1.35a9.22,9.22,0,0,0,2.46.21A4.16,4.16,0,0,0,143.76,134.22Z"/><path class="cls-5" d="M147.17,136.22c1.05,0,2.14-.43,2.35-1.21l.4-1.47.94-.69.08.1a7.36,7.36,0,0,0-.3,1.59,1.35,1.35,0,0,0,.45,1.13,2.53,2.53,0,0,0,1.7.55H153V138h-.31c-1.34,0-2.35-.37-2.82-1.4h-.05a3,3,0,0,1-2.72,1.4h-.26a.88.88,0,0,1-1-.92.85.85,0,0,1,1-.83Zm1.5-5.18c-.56-.54-1-1-1.6-1.43a14,14,0,0,1,1.08-1.3,12.52,12.52,0,0,1,1.56,1.47A7.76,7.76,0,0,1,148.67,131Zm2.64-.18c-.56-.54-1.05-1-1.6-1.42a11.81,11.81,0,0,1,1.08-1.3,12.42,12.42,0,0,1,1.56,1.46A7.35,7.35,0,0,1,151.31,130.86Z"/><path class="cls-5" d="M164.05,132.12a15.13,15.13,0,0,1,.22,2.43,4.58,4.58,0,0,1-.49,1.87,2.64,2.64,0,0,1-2,1.51,2.3,2.3,0,0,1-1.71-1.14h-.11a3.21,3.21,0,0,1-2.4,1.18,1.17,1.17,0,0,1-1.31-1.16h0a3.67,3.67,0,0,1-2.91,1.16H153a.88.88,0,0,1-.95-.92.84.84,0,0,1,.95-.83h.47a3.26,3.26,0,0,0,2.88-1.27l.75-1.08,1.06-.37.05.06a5.12,5.12,0,0,0-.93,2,.66.66,0,0,0,.71.69,2.19,2.19,0,0,0,1.22-.4c.48-.35.55-.75,1-2.17l.82-.48.08.05a6,6,0,0,0-.17,1.34,1.48,1.48,0,0,0,1.42,1.58.64.64,0,0,0,.72-.62,12.09,12.09,0,0,0-.34-2.21,9.61,9.61,0,0,1,1.23-1.24Z"/><path class="cls-5" d="M175.93,138h-.26a2.72,2.72,0,0,1-2.79-2.23h-.06a1.93,1.93,0,0,1-1,1.31,5.4,5.4,0,0,1-2.75.92,2.23,2.23,0,0,1-2.38-2.53c0-.34,0-.67.05-1l.53,0a1.71,1.71,0,0,0,1.93,1.83,4.92,4.92,0,0,0,2.23-.69c.5-.28.88-.69.88-1a27.11,27.11,0,0,0-1.13-5.09,15.3,15.3,0,0,1,1-1.41l.08.06c.51,2,.93,4.07,1.3,6.08a2.24,2.24,0,0,0,2.16,2.07h.23Z"/><path class="cls-5" d="M176.23,136.22a3.16,3.16,0,0,0,1.54-.37,1.58,1.58,0,0,0,.72-1.48c0-2.19-.18-4.58-.4-7.09-.05-.63-.13-1.21-.13-1.71a1.36,1.36,0,0,1,.41-.92,6.61,6.61,0,0,1,.75-.75l.09.07a6.25,6.25,0,0,0,1.11,3.13,8.34,8.34,0,0,1-.86.7c.06,1.57.18,3.22.18,4.74a8,8,0,0,1-.55,3.43,2.79,2.79,0,0,1-1.24,1.59,4,4,0,0,1-1.71.41h-.21a.88.88,0,0,1-1-.92.84.84,0,0,1,1-.83Z"/><path class="cls-5" d="M182.69,138.2a18.9,18.9,0,0,0,.15-2.73v-1.34c0-2.51-.28-6.14-.49-8.51a12.44,12.44,0,0,1,1.34-1.45l.12,0c.29,3,.35,6.44.35,9.63a21.25,21.25,0,0,1-.09,2.25,3.53,3.53,0,0,1-1.21,2.21Z"/><path class="cls-5" d="M200.43,132.2a17.21,17.21,0,0,1,1.11,2.62c.4,1.21,1.14,1.4,2.46,1.4h.19V138h-.28a2.92,2.92,0,0,1-2-.62h0a6.74,6.74,0,0,1-.85,3.16,6.54,6.54,0,0,1-4.63,2.22,3.94,3.94,0,0,1-4.2-4.15,7.28,7.28,0,0,1,1.18-4l.52.29a6.3,6.3,0,0,0-.77,2.56,3,3,0,0,0,.92,2.38,4,4,0,0,0,2.58.91,6,6,0,0,0,3.31-1.19c.6-.46,1-.87,1-1.4a6.5,6.5,0,0,0-.5-2.27,19.82,19.82,0,0,0-1.08-2.23,12.3,12.3,0,0,1,.93-1.45ZM197.18,128a12.19,12.19,0,0,1,1.64,1.46,5.71,5.71,0,0,1-1.13,1.34c-.54-.51-1.07-.94-1.62-1.41C196.44,128.93,196.81,128.45,197.18,128Z"/><path class="cls-5" d="M204.49,136.22c1,0,1.81-.7,2.3-2.42a4.25,4.25,0,0,1,1-1.66,2.6,2.6,0,0,1,1.73-.79c1.66,0,2.65,2.3,2.87,4.69-.29,1.24-.8,1.76-1.45,1.76a7,7,0,0,1-4.06-1.61h-.1a2.24,2.24,0,0,1-2.36,1.78h-.24a.88.88,0,0,1-.95-.92.84.84,0,0,1,.95-.83Zm4.79-.55a4.29,4.29,0,0,0,1.63.4c.2,0,.38,0,.43-.15-.39-2.07-1.3-3-2.16-3a2,2,0,0,0-1.83,1.34A4.18,4.18,0,0,0,209.28,135.67Z"/><path class="cls-5" d="M221.09,138v-.58c1.81-.12,1.93-.33,1.93-1.77v-7.55c0-1-.08-1.14-.93-1.19l-1.07,0v-.48a21.82,21.82,0,0,0,3.83-1v10.3c0,1.44.14,1.65,2,1.77V138Z"/><path class="cls-5" d="M236.21,134.44v1.35c0,1.34.11,1.47,1.74,1.62V138h-5.4v-.56c1.82-.15,1.9-.32,1.9-1.63v-1.34h-5.31v-.63c2-2.91,4.09-5.75,6.16-8.43h.91v8.06h2v1Zm-1.76-6.75h0c-1.26,1.65-2.57,3.55-3.95,5.75h4Z"/><path class="cls-5" d="M240.83,138v-.58c1.81-.12,1.93-.33,1.93-1.77v-7.55c0-1-.08-1.14-.93-1.19l-1.06,0v-.48a21.71,21.71,0,0,0,3.82-1v10.3c0,1.44.14,1.65,2,1.77V138Z"/><path class="cls-5" d="M264,124.47c.11,3.38.2,6.35.2,9.61a2.45,2.45,0,0,0,.68,1.75,2.22,2.22,0,0,0,1.34.39h.15V138h-.26a2.32,2.32,0,0,1-2.15-1h-.05a9.06,9.06,0,0,1-.48,2,4.8,4.8,0,0,1-1.57,1.54,5.18,5.18,0,0,1-2.85.85,3.65,3.65,0,0,1-2.84-1.17,4.61,4.61,0,0,1-1-3.09,8.09,8.09,0,0,1,.92-3.45l.49.19a6.07,6.07,0,0,0-.58,2.38,3.32,3.32,0,0,0,.7,2.12,2.81,2.81,0,0,0,2.37,1.11,4.65,4.65,0,0,0,2.36-.65,3.57,3.57,0,0,0,1.49-1.29,3,3,0,0,0,.1-.91c0-2.13-.11-5.67-.41-11a11.77,11.77,0,0,1,1.25-1.21Z"/><path class="cls-5" d="M266.66,136.22c1.16,0,2.09-.39,2.26-1.21.11-.53.21-1,.35-1.55a7.09,7.09,0,0,1,.9-.72l.09.09a4.53,4.53,0,0,0-.22,1.28,1.56,1.56,0,0,0,.75,1.52,16.36,16.36,0,0,1,2.83-3.45,4.67,4.67,0,0,1,3.06-1.4,3,3,0,0,1,3.09,3,5.65,5.65,0,0,1-.7,2.42h1.82V138h-.35a17.27,17.27,0,0,1-4.09-.48,10.06,10.06,0,0,1-3.19.48c-1.77,0-3.11-.43-3.87-1.44h0a3.23,3.23,0,0,1-2.83,1.44h-.16a.88.88,0,0,1-1-.92.85.85,0,0,1,1-.83Zm7.4,0a10.6,10.6,0,0,0,3.55-.62c.67-.27,1.12-.63,1.12-1a2.56,2.56,0,0,0-2.55-2c-1.62,0-3.12,1.33-4.63,3.39A8.48,8.48,0,0,0,274.06,136.22Z"/><path class="cls-5" d="M281.12,136.22a10.37,10.37,0,0,0,2.21-.33,3.74,3.74,0,0,1-.48-2.08,4.59,4.59,0,0,1,1.23-3.21,3.6,3.6,0,0,1,2.06-1.27c.49,0,1.1.54,1.6,1.51a4.19,4.19,0,0,1,.52,1.95,6.14,6.14,0,0,1-.91,3.18,7.69,7.69,0,0,0,2.13.25h.44V138h-.4a12.87,12.87,0,0,1-4.47-.88,12.25,12.25,0,0,1-3.91.88h-.25a.88.88,0,0,1-.95-.92.84.84,0,0,1,.95-.83Zm6.39-2.41a2.82,2.82,0,0,0-.33-1.23c-.37-.72-.79-1.23-1.35-1.23-1.07,0-2.11,1.27-2.35,2.28a2.41,2.41,0,0,0,1.87,1.82C286.29,135.26,287.51,134.37,287.51,133.81Zm-2.16-9.12a12.19,12.19,0,0,1,1.64,1.46,5.34,5.34,0,0,1-1.13,1.34c-.54-.5-1.07-.94-1.62-1.4C284.61,125.59,285,125.12,285.35,124.69Z"/><path class="cls-5" d="M290.22,136.22a3.15,3.15,0,0,0,1.53-.37,1.57,1.57,0,0,0,.72-1.48c0-2.19-.18-4.58-.39-7.09-.06-.63-.14-1.21-.14-1.71a1.41,1.41,0,0,1,.41-.92,6.61,6.61,0,0,1,.75-.75l.1.07a6.13,6.13,0,0,0,1.1,3.13,8.34,8.34,0,0,1-.86.7c.06,1.57.18,3.22.18,4.74a8,8,0,0,1-.55,3.43,2.75,2.75,0,0,1-1.24,1.59,4,4,0,0,1-1.71.41h-.2a.88.88,0,0,1-1-.92.85.85,0,0,1,1-.83Z"/><path class="cls-5" d="M296.67,138.2a17.58,17.58,0,0,0,.15-2.73v-1.34c0-2.51-.27-6.14-.49-8.51a12.44,12.44,0,0,1,1.34-1.45l.12,0c.29,3,.36,6.44.36,9.63a21,21,0,0,1-.1,2.25,3.55,3.55,0,0,1-1.2,2.21Z"/><path class="cls-5" d="M323.59,138h-.31c-1.34,0-2.27-.26-2.79-1.19a9.46,9.46,0,0,1-2.14.89,20.44,20.44,0,0,1-5.3.84,8.7,8.7,0,0,1-4.69-1,4.24,4.24,0,0,1-2-3.7,6.86,6.86,0,0,1,.81-3.31l.54.23a6.71,6.71,0,0,0-.39,2.08,3.56,3.56,0,0,0,1.8,3,8.59,8.59,0,0,0,4.35.87,20.12,20.12,0,0,0,4.67-.6,10.38,10.38,0,0,0,1.81-.6l.6-1.91.88-.69.08.1a5.57,5.57,0,0,0-.32,1.53,1.39,1.39,0,0,0,.47,1.22,2.59,2.59,0,0,0,1.69.52h.25Zm-10.06,3a12.83,12.83,0,0,1,1.64,1.46,5.18,5.18,0,0,1-1.14,1.34c-.53-.5-1.06-.94-1.61-1.4C312.79,141.86,313.16,141.39,313.53,141Z"/><path class="cls-5" d="M337.59,138h-.34c-1.7,0-2.48-.52-2.82-1.29h-.08A3.1,3.1,0,0,1,332,138a1.36,1.36,0,0,1-1.49-1.14h0A3.13,3.13,0,0,1,328.1,138a1.17,1.17,0,0,1-1.31-1.16h-.06a3.65,3.65,0,0,1-2.91,1.16h-.23a.88.88,0,0,1-1-.92.85.85,0,0,1,1-.83h.46a3.32,3.32,0,0,0,2.89-1.27l.68-1.07,1.06-.37.05.07a5.43,5.43,0,0,0-.89,1.95.68.68,0,0,0,.74.69,2,2,0,0,0,1.19-.41,3.16,3.16,0,0,0,.89-1.21l.33-.8,1-.48.05.05a5.7,5.7,0,0,0-.56,2,.75.75,0,0,0,.76.8,1.66,1.66,0,0,0,1-.3,2.17,2.17,0,0,0,.79-1.32c.06-.21.14-.47.27-1.08l1-.69.06,0a7.49,7.49,0,0,0-.34,1.87c0,1.08.94,1.48,2.24,1.48h.3Z"/><path class="cls-5" d="M338.42,136.22c2.22,0,4.49-.78,7.3-2.48l0-.05a12.86,12.86,0,0,0-4.3-1,2.21,2.21,0,0,0-1.73.68l.16.69-.41,1.23h-.13l-.67-1.81a2.71,2.71,0,0,1,3-2.46,13.26,13.26,0,0,1,4.49,1.19,6.62,6.62,0,0,0,2.33.44h1.11l0,0-.72,1.44a4.2,4.2,0,0,0-2.37.51l-2.28,1.49A10.75,10.75,0,0,1,338.3,138h-.71a.88.88,0,0,1-1-.92.85.85,0,0,1,1-.83Z"/></svg>