<svg id="Layer_1" data-name="Layer 1" xmlns="http://www.w3.org/2000/svg" viewBox="0 0 480 638"><defs><style>.cls-1{fill:#006080;}.cls-2{fill:#7b9db1;}.cls-3{fill:#f7f7f7;}.cls-4{fill:#4f7e98;}.cls-5{fill:#e5e5e4;}</style></defs><path class="cls-1" d="M95.43,58.76h-5.1l.29-1.23h5.13Z"/><path class="cls-1" d="M118,47.78c.16,3.1.19,6.28.19,9.46a5.09,5.09,0,0,0,.86,3.19,2.33,2.33,0,0,0,1.72.66h.2V63h-.26c-2.53,0-3.56-1.94-3.59-4h-.07a4.28,4.28,0,0,1-2.2,2.63v0a1.67,1.67,0,0,1,1.41,1.89,4.4,4.4,0,0,1-.6,2,9.37,9.37,0,0,1-6.6,3,5.19,5.19,0,0,1-3.5-1.38A5.55,5.55,0,0,1,104,63.11a11.25,11.25,0,0,1,1.1-4.6l.57.22a9.27,9.27,0,0,0-.66,3.08,4.85,4.85,0,0,0,.85,2.89,4.19,4.19,0,0,0,3.34,1.67,8.22,8.22,0,0,0,4.22-1.1,7.37,7.37,0,0,0,1.86-1.45c0-.56-2.42-1-4.59-1.2l-.07-.14.78-1.61a10.5,10.5,0,0,0,3.94-1.26c1.33-1,1.46-1.48,1.46-4.16,0-2-.13-4.14-.25-6.38a11.79,11.79,0,0,1,1.26-1.38Zm-9.26,24.83c-.6-.58-1.13-1-1.71-1.53a14.67,14.67,0,0,1,1.15-1.39,12.83,12.83,0,0,1,1.67,1.57A8,8,0,0,1,108.74,72.61Zm2.83-.19c-.6-.58-1.13-1-1.72-1.53A14.92,14.92,0,0,1,111,69.5a13.5,13.5,0,0,1,1.67,1.57A8.43,8.43,0,0,1,111.57,72.42Z"/><path class="cls-1" d="M129.7,58.38a13.74,13.74,0,0,0-4.6-1,2.35,2.35,0,0,0-1.86.73l.18.73L123,60.14h-.15l-.71-1.93a2.89,2.89,0,0,1,3.17-2.64,14.24,14.24,0,0,1,4.81,1.26,6.87,6.87,0,0,0,2.5.48h1.28l0,0L133,58.85a4.71,4.71,0,0,0-2.48.56L128.08,61a11.43,11.43,0,0,1-6.43,2H121a.94.94,0,0,1-1-1,.91.91,0,0,1,1-.9h.9c2.37,0,4.8-.83,7.82-2.65Zm1.64,1h0c.06,1.25,1.08,1.7,2.59,1.7h.4V63h-.46c-1.89,0-3.15-.66-3.15-2.42a7.52,7.52,0,0,1,0-.82Z"/><path class="cls-1" d="M137.92,61.71A4.72,4.72,0,0,1,134.58,63h-.2a.94.94,0,0,1-1-1,.92.92,0,0,1,1-.9h.13a5.34,5.34,0,0,0,3.32-1c-.26-2.84-.32-5.77-.32-8,0-.59-.12-1.53-.12-2.22a1.82,1.82,0,0,1,.46-1.29,5.6,5.6,0,0,1,.82-.76l.14.09a3.67,3.67,0,0,0,0,.62,5.94,5.94,0,0,0,1.13,3l-1.07.75a48.75,48.75,0,0,0,.25,7.14l.06,0a3.73,3.73,0,0,1,1.87-.51,2.2,2.2,0,0,1,1.67.81,3.16,3.16,0,0,1,.71,2,2.57,2.57,0,0,1-2.32,2.81c-1.36,0-2.49-1.1-3.08-2.77Zm3.82,1.13a1.12,1.12,0,0,0,.72-.27,2.15,2.15,0,0,0-.54-1.36,1.72,1.72,0,0,0-1.38-.66,2.18,2.18,0,0,0-1.18.32A2.77,2.77,0,0,0,141.74,62.84Z"/><path class="cls-1" d="M146.08,63.22a19,19,0,0,0,.16-2.93V58.85c0-2.68-.29-6.58-.53-9.11a13.46,13.46,0,0,1,1.44-1.55l.13,0c.31,3.19.38,6.9.38,10.31a24.1,24.1,0,0,1-.1,2.42,3.77,3.77,0,0,1-1.29,2.36Z"/><path class="cls-1" d="M166.57,60.51a4.77,4.77,0,0,1-2.66-.63,2.59,2.59,0,0,1-1-2.42,3.86,3.86,0,0,1,.53-1.7,3.08,3.08,0,0,1,2.4-1.77c1.19,0,2.14.92,2.9,2.81a12.62,12.62,0,0,1,.66,3.56,8.07,8.07,0,0,1-.23,2.09A3.43,3.43,0,0,1,168.05,64a9.49,9.49,0,0,1-6.13,2.46A5.33,5.33,0,0,1,156.38,61a10,10,0,0,1,.88-4.13l.61.16a7.92,7.92,0,0,0-.5,2.43c0,3.08,1.91,5,4.59,5a8.57,8.57,0,0,0,4.7-1.41c.9-.6,1.8-1.36,1.8-1.77a2.2,2.2,0,0,0-.2-.85A9.39,9.39,0,0,1,166.57,60.51Zm-2.81-8.63c-.6-.57-1.13-1-1.71-1.53A14.67,14.67,0,0,1,163.2,49a13.55,13.55,0,0,1,1.67,1.57A7.62,7.62,0,0,1,163.76,51.88Zm1.8,4c-.83,0-1.78.66-1.78,1.38s.82,1.35,2.88,1.35a7.19,7.19,0,0,0,1.32-.09C167.48,56.86,166.65,55.89,165.56,55.89Zm1-4.2c-.6-.57-1.13-1-1.72-1.53A16.36,16.36,0,0,1,166,48.77a14.3,14.3,0,0,1,1.67,1.57A7.62,7.62,0,0,1,166.59,51.69Z"/><path class="cls-1" d="M175.89,63h-.16a3.24,3.24,0,0,1-2.51-.84c-.89-.91-.9-2-.9-4.1,0-2.78-.17-5.7-.39-8.8a14.66,14.66,0,0,1,1.38-1.37l.1.06c.24,3.21.24,7,.24,10.61v.83a1.53,1.53,0,0,0,1.1,1.57,2.94,2.94,0,0,0,.93.16h.21Z"/><path class="cls-1" d="M176.21,61.09c1.13,0,2.3-.45,2.52-1.29l.43-1.58,1-.73.09.1a7.75,7.75,0,0,0-.33,1.7,1.45,1.45,0,0,0,.49,1.22,2.73,2.73,0,0,0,1.81.58h.27V63h-.34c-1.44,0-2.52-.4-3-1.5h-.06a3.14,3.14,0,0,1-2.91,1.5h-.28a.94.94,0,0,1-1-1,.92.92,0,0,1,1-.9Zm1.66,7.72c-.6-.57-1.13-1-1.72-1.52a12.34,12.34,0,0,1,1.16-1.39A14.19,14.19,0,0,1,179,67.46,7.62,7.62,0,0,1,177.87,68.81Zm2.82-.19c-.6-.57-1.12-1-1.71-1.52a12.34,12.34,0,0,1,1.16-1.39,14.19,14.19,0,0,1,1.67,1.56A7.64,7.64,0,0,1,180.69,68.62Z"/><path class="cls-1" d="M197.5,63h-.37c-1.82,0-2.65-.56-3-1.38H194a3.27,3.27,0,0,1-2.5,1.38,1.46,1.46,0,0,1-1.6-1.22h-.06A3.3,3.3,0,0,1,187.33,63a1.26,1.26,0,0,1-1.41-1.25h0A3.94,3.94,0,0,1,182.75,63h-.25a.94.94,0,0,1-1-1,.92.92,0,0,1,1-.9H183a3.54,3.54,0,0,0,3.1-1.36l.73-1.14,1.13-.4.05.08a5.89,5.89,0,0,0-.95,2.09.73.73,0,0,0,.79.73,2.09,2.09,0,0,0,1.28-.44,3.24,3.24,0,0,0,.95-1.29l.35-.86,1.11-.51.06.06a6,6,0,0,0-.6,2.19.8.8,0,0,0,.82.85,1.67,1.67,0,0,0,1-.32,2.29,2.29,0,0,0,.85-1.41c.06-.23.15-.51.3-1.15l1.11-.75.06,0a8.35,8.35,0,0,0-.37,2c0,1.16,1,1.58,2.4,1.58h.33Z"/><path class="cls-1" d="M197.82,61.09a3.35,3.35,0,0,0,1.64-.39,1.69,1.69,0,0,0,.78-1.59c0-2.34-.19-4.9-.43-7.6-.06-.67-.15-1.29-.15-1.83a1.49,1.49,0,0,1,.44-1,7.71,7.71,0,0,1,.81-.81l.1.08a6.61,6.61,0,0,0,1.19,3.35,9.29,9.29,0,0,1-.92.75c.05,1.68.19,3.46.19,5.08a8.62,8.62,0,0,1-.59,3.68,3,3,0,0,1-1.33,1.7,4.24,4.24,0,0,1-1.83.44h-.22a.94.94,0,0,1-1-1,.92.92,0,0,1,1-.9Z"/><path class="cls-1" d="M204.73,63.22a19,19,0,0,0,.16-2.93V58.85c0-2.68-.29-6.58-.52-9.11a13.4,13.4,0,0,1,1.43-1.55l.13,0c.31,3.19.38,6.9.38,10.31a21.45,21.45,0,0,1-.1,2.42,3.77,3.77,0,0,1-1.29,2.36Z"/><path class="cls-1" d="M225.43,58a6.51,6.51,0,0,1-1.52.16c-1.58,0-2.8-.41-3.27-1.47a2.43,2.43,0,0,1-.2-1,3.93,3.93,0,0,1,1-2.71,2.54,2.54,0,0,1,1.77-.91c1.12,0,2,1,2.64,2.71a9.93,9.93,0,0,1,.56,3.44,3.59,3.59,0,0,1-.68,2.08c1.38.45,1.56.88,1.56,1.93a3.77,3.77,0,0,1-.4,1.67,5.58,5.58,0,0,1-1.8,1.75,8.56,8.56,0,0,1-5,1.56,5.24,5.24,0,0,1-3.63-1.39A5.44,5.44,0,0,1,215,61.94a11.18,11.18,0,0,1,1-4.6l.59.22a9.06,9.06,0,0,0-.56,3.08,4.87,4.87,0,0,0,.85,2.88,4.32,4.32,0,0,0,3.47,1.67,8.22,8.22,0,0,0,4.24-1.08,6.2,6.2,0,0,0,1.93-1.49c0-.56-2.68-1.09-5.2-1.09l-.06-.1.65-1.51c2.4-.28,3.64-.69,3.64-1.45C225.47,58.34,225.45,58.21,225.43,58ZM219.7,71.73c-.6-.57-1.12-1-1.71-1.53a13.31,13.31,0,0,1,1.16-1.39,13.5,13.5,0,0,1,1.67,1.57A7.64,7.64,0,0,1,219.7,71.73Zm2.83-.19c-.6-.57-1.13-1-1.71-1.53A14.67,14.67,0,0,1,222,68.62a13.5,13.5,0,0,1,1.67,1.57A8,8,0,0,1,222.53,71.54Zm-.1-24a14,14,0,0,1,1.76,1.57A5.9,5.9,0,0,1,223,50.57c-.57-.54-1.14-1-1.73-1.5C221.64,48.54,222,48,222.43,47.57Zm.5,6.33a1.67,1.67,0,0,0-1.67,1.29c0,.73,1.4,1.27,2.78,1.27a8,8,0,0,0,1.2-.06C224.71,54.76,223.92,53.9,222.93,53.9Z"/><path class="cls-1" d="M245.09,48.51c.12,3.62.2,6.8.2,10.3a2.62,2.62,0,0,0,.74,1.87,2.34,2.34,0,0,0,1.43.41h.16V63h-.27a2.46,2.46,0,0,1-2.3-1.1H245a9.64,9.64,0,0,1-.52,2.18,5.21,5.21,0,0,1-1.68,1.66,5.61,5.61,0,0,1-3,.9,3.86,3.86,0,0,1-3-1.26,4.86,4.86,0,0,1-1-3.31,8.62,8.62,0,0,1,1-3.69l.52.21a6.52,6.52,0,0,0-.61,2.55,3.53,3.53,0,0,0,.75,2.27,3,3,0,0,0,2.53,1.18,5,5,0,0,0,2.53-.68,3.86,3.86,0,0,0,1.6-1.4,3.26,3.26,0,0,0,.1-1c0-2.29-.11-6.08-.44-11.79A10.15,10.15,0,0,1,245,48.44Z"/><path class="cls-1" d="M248,61.09c1.24,0,2.24-.41,2.41-1.29.12-.57.24-1.12.38-1.67a8.91,8.91,0,0,1,1-.76l.09.09a5.34,5.34,0,0,0-.24,1.38,1.74,1.74,0,0,0,.88,1.62,18.47,18.47,0,0,1,3-3.72A5.64,5.64,0,0,1,259,55.15a3,3,0,0,1,2.72,1.61,3.81,3.81,0,0,1,.37,1.71,4.29,4.29,0,0,1-3.33,4,11.63,11.63,0,0,1-3.65.46c-1.93,0-3.41-.44-4.21-1.54h0a3.46,3.46,0,0,1-3,1.54h-.18a.94.94,0,0,1-1-1,.91.91,0,0,1,1-.9Zm8,0a9.31,9.31,0,0,0,3.81-.83c.71-.34,1.2-.66,1.2-1.06A2.55,2.55,0,0,0,258.43,57c-1.72,0-3.7,1.59-5.23,3.8A9.21,9.21,0,0,0,255.94,61.09Z"/><path class="cls-1" d="M264.85,63.22a19,19,0,0,0,.16-2.93V58.85c0-2.68-.29-6.58-.53-9.11a13.46,13.46,0,0,1,1.44-1.55l.13,0c.31,3.19.38,6.9.38,10.31a24.1,24.1,0,0,1-.1,2.42A3.77,3.77,0,0,1,265,63.32Z"/><path class="cls-1" d="M277,61.09V63h-1.22a6.7,6.7,0,0,1-1.11,3,5.24,5.24,0,0,1-3.53,2.51A8.61,8.61,0,0,1,266.9,67l.25-.49a4.4,4.4,0,0,0,2.15.53,5.73,5.73,0,0,0,4.08-2,4.71,4.71,0,0,0,1.37-2H274c-3,0-4.51-.95-4.51-3a4,4,0,0,1,.75-2.35,2.84,2.84,0,0,1,2.26-1.41c1.34,0,2.74,1.89,3.15,4.89ZM273.65,59a2.16,2.16,0,0,0-1.55-.82c-.82,0-1.65.71-1.65,1.29,0,.75.68,1.19,1.59,1.45a10.16,10.16,0,0,0,2.64.22A4.52,4.52,0,0,0,273.65,59Z"/><path class="cls-1" d="M277.3,61.09c1.13,0,2.3-.45,2.52-1.29l.43-1.58,1-.73.08.1a8.21,8.21,0,0,0-.32,1.7,1.45,1.45,0,0,0,.49,1.22,2.71,2.71,0,0,0,1.81.58h.27V63h-.34c-1.44,0-2.52-.4-3-1.5h-.06a3.15,3.15,0,0,1-2.91,1.5H277a.94.94,0,0,1-1-1,.92.92,0,0,1,1-.9Zm1.61-5.55c-.6-.57-1.13-1-1.71-1.52a12.34,12.34,0,0,1,1.16-1.39A14.13,14.13,0,0,1,280,54.19,7.64,7.64,0,0,1,278.91,55.54Zm2.83-.19c-.6-.57-1.13-1-1.71-1.52a13.5,13.5,0,0,1,1.15-1.39A13.4,13.4,0,0,1,282.85,54,7.62,7.62,0,0,1,281.74,55.35Z"/><path class="cls-1" d="M283.91,61.09a3.35,3.35,0,0,0,1.64-.39,1.68,1.68,0,0,0,.77-1.59c0-2.34-.19-4.9-.42-7.6-.06-.67-.15-1.29-.15-1.83a1.49,1.49,0,0,1,.44-1,7.71,7.71,0,0,1,.81-.81l.1.08a6.61,6.61,0,0,0,1.19,3.35,8.42,8.42,0,0,1-.93.75c.06,1.68.2,3.46.2,5.08a8.77,8.77,0,0,1-.59,3.68,3,3,0,0,1-1.33,1.7,4.27,4.27,0,0,1-1.83.44h-.22a.94.94,0,0,1-1-1,.91.91,0,0,1,1-.9Z"/><path class="cls-1" d="M290.82,63.22a19,19,0,0,0,.16-2.93V58.85c0-2.68-.29-6.58-.52-9.11a13.4,13.4,0,0,1,1.43-1.55l.13,0c.31,3.19.38,6.9.38,10.31a24.1,24.1,0,0,1-.1,2.42A3.77,3.77,0,0,1,291,63.32Z"/><path class="cls-1" d="M303.71,61.58c-1.54,0-2.66-.55-2.66-1.72a4.25,4.25,0,0,1,.47-1.71c.58-1.28,2.16-2.64,4.68-4l-.09-1.1a14.74,14.74,0,0,1,1.16-1.2h.16c.06,2.27.08,4.56.09,6.83a2.64,2.64,0,0,0,.56,2.06,2.38,2.38,0,0,0,1.54.38H310V63h-.33a2.73,2.73,0,0,1-3-2A6.92,6.92,0,0,1,303.71,61.58Zm2.6-5.83c-2.61,1.34-4,2.43-4,3.2,0,.57.87.82,1.87.82a7,7,0,0,0,2.17-.41Zm-1.73-5.19c-.6-.57-1.13-1-1.72-1.52A12.34,12.34,0,0,1,304,47.65a13.4,13.4,0,0,1,1.67,1.56A7.62,7.62,0,0,1,304.58,50.56Zm2.82-.19c-.6-.57-1.12-1-1.71-1.52a13.49,13.49,0,0,1,1.16-1.4A14.3,14.3,0,0,1,308.52,49,7.64,7.64,0,0,1,307.4,50.37Z"/><path class="cls-1" d="M310.29,61.09c1.13,0,2.3-.45,2.52-1.29l.42-1.58,1-.73.09.1a8.21,8.21,0,0,0-.32,1.7,1.47,1.47,0,0,0,.48,1.22,2.74,2.74,0,0,0,1.82.58h.26V63h-.33c-1.44,0-2.52-.4-3-1.5h-.06a3.15,3.15,0,0,1-2.91,1.5H310a.94.94,0,0,1-1-1,.92.92,0,0,1,1-.9Zm1.65,7.72c-.6-.57-1.12-1-1.71-1.52a12.34,12.34,0,0,1,1.16-1.39,14.19,14.19,0,0,1,1.67,1.56A7.64,7.64,0,0,1,311.94,68.81Zm2.83-.19c-.6-.57-1.13-1-1.71-1.52a12.34,12.34,0,0,1,1.16-1.39,15,15,0,0,1,1.67,1.56A8.1,8.1,0,0,1,314.77,68.62Z"/><path class="cls-1" d="M325.3,58.38a13.74,13.74,0,0,0-4.6-1,2.35,2.35,0,0,0-1.86.73l.18.73-.44,1.32h-.15l-.71-1.93a2.89,2.89,0,0,1,3.17-2.64,14.18,14.18,0,0,1,4.81,1.26,6.87,6.87,0,0,0,2.5.48h1.28l0,0-.91,1.51a4.71,4.71,0,0,0-2.48.56L323.68,61a11.43,11.43,0,0,1-6.43,2h-.68a.94.94,0,0,1-1-1,.91.91,0,0,1,1-.9h.9c2.37,0,4.8-.83,7.82-2.65Zm-3.37,6.77a12.72,12.72,0,0,1,1.76,1.57,6.05,6.05,0,0,1-1.21,1.43c-.57-.54-1.15-1-1.73-1.51C321.14,66.12,321.54,65.6,321.93,65.15Zm5-5.77H327c.06,1.25,1.08,1.7,2.59,1.7h.4V63h-.46c-1.89,0-3.15-.66-3.15-2.42a7.52,7.52,0,0,1,.05-.82Z"/><path class="cls-1" d="M330.3,61.09c1.13,0,2.3-.45,2.52-1.29l.42-1.58,1-.73.09.1a8.21,8.21,0,0,0-.32,1.7,1.47,1.47,0,0,0,.48,1.22,2.74,2.74,0,0,0,1.82.58h.26V63h-.33c-1.44,0-2.52-.4-3-1.5h-.06a3.15,3.15,0,0,1-2.91,1.5H330a.94.94,0,0,1-1-1,.92.92,0,0,1,1-.9ZM332,68.81c-.6-.57-1.12-1-1.71-1.52a12.34,12.34,0,0,1,1.16-1.39,14.19,14.19,0,0,1,1.67,1.56A7.64,7.64,0,0,1,332,68.81Zm2.83-.19c-.6-.57-1.13-1-1.71-1.52a13.5,13.5,0,0,1,1.15-1.39,13.45,13.45,0,0,1,1.67,1.56A7.62,7.62,0,0,1,334.78,68.62Z"/><path class="cls-1" d="M336.83,61.09a9.32,9.32,0,0,0,2.89-.28c.51-.19.83-.39.83-.64a12.22,12.22,0,0,0-1.46-3.62,11,11,0,0,1,1.1-1.65h.07a10.32,10.32,0,0,1,1.46,4.46,4.38,4.38,0,0,1-1,2.73c-.66.66-1.7.88-3.94.88h-.18a.94.94,0,0,1-1-1,.91.91,0,0,1,1-.9Zm1.1-7.45c-.6-.58-1.13-1-1.71-1.53a14.67,14.67,0,0,1,1.15-1.39A13.5,13.5,0,0,1,339,52.29,8,8,0,0,1,337.93,53.64Zm2.83-.19c-.6-.58-1.13-1-1.72-1.53a16.36,16.36,0,0,1,1.16-1.39,13.5,13.5,0,0,1,1.67,1.57A8.43,8.43,0,0,1,340.76,53.45Z"/><path class="cls-1" d="M344.65,63.22a19,19,0,0,0,.17-2.93V58.85c0-2.68-.3-6.58-.53-9.11a13.4,13.4,0,0,1,1.43-1.55l.14,0c.3,3.19.38,6.9.38,10.31a21.21,21.21,0,0,1-.11,2.42,3.8,3.8,0,0,1-1.28,2.36Z"/><path class="cls-1" d="M356.26,56c.05.32.17,1,.39,2.29a3.81,3.81,0,0,0,1.25,2.53,2.41,2.41,0,0,0,1.18.32h.19V63H359c-1.74,0-2.48-.79-3.06-3.17l-.37-1.49h-.07a2.41,2.41,0,0,1-2.17,1.57,8.07,8.07,0,0,1,.21,2c0,.17,0,.35,0,.76a5.2,5.2,0,0,1-.84,2c-1,1.45-2.12,2.23-2.88,2.23A8.41,8.41,0,0,1,346,65.69l.21-.47a3.35,3.35,0,0,0,1.38.37,5.23,5.23,0,0,0,4-2.08,4.05,4.05,0,0,0,1.19-2.07A7.84,7.84,0,0,0,350.92,59l.49-1.87h.13c.38.35.76.69,1.07.92a2.06,2.06,0,0,0,1.23.32,1.72,1.72,0,0,0,1-.39,8.22,8.22,0,0,0,1.23-2Zm-1.79-1.58c-.6-.57-1.13-1-1.71-1.52a13.7,13.7,0,0,1,1.15-1.4A14.3,14.3,0,0,1,355.58,53,7.62,7.62,0,0,1,354.47,54.37Zm2.83-.19c-.6-.57-1.13-1-1.72-1.53a13.31,13.31,0,0,1,1.16-1.39,14.3,14.3,0,0,1,1.67,1.57A7.62,7.62,0,0,1,357.3,54.18Z"/><path class="cls-1" d="M371.08,56.7a16.38,16.38,0,0,1,.23,2.61,5,5,0,0,1-.52,2,2.82,2.82,0,0,1-2.17,1.61,2.49,2.49,0,0,1-1.83-1.21h-.12A3.42,3.42,0,0,1,364.11,63a1.26,1.26,0,0,1-1.41-1.25h-.06A3.92,3.92,0,0,1,359.52,63h-.25a.94.94,0,0,1-1-1,.91.91,0,0,1,1-.9h.5a3.46,3.46,0,0,0,3.09-1.36l.81-1.16,1.13-.39.05.07a5.56,5.56,0,0,0-1,2.11.7.7,0,0,0,.76.73,2.28,2.28,0,0,0,1.3-.42c.52-.38.59-.81,1-2.33l.88-.51.09.05a6.34,6.34,0,0,0-.19,1.44A1.58,1.58,0,0,0,369.26,61c.41,0,.78-.22.78-.65a13.4,13.4,0,0,0-.37-2.38A11.75,11.75,0,0,1,371,56.65Z"/><path class="cls-1" d="M374.14,63.22a19,19,0,0,0,.16-2.93V58.85c0-2.68-.29-6.58-.52-9.11a13.4,13.4,0,0,1,1.43-1.55l.13,0c.31,3.19.38,6.9.38,10.31a24.1,24.1,0,0,1-.1,2.42,3.77,3.77,0,0,1-1.29,2.36Z"/><path class="cls-1" d="M389.36,58.76h-5.1l.3-1.23h5.12Z"/><path class="cls-1" d="M138.25,111H138a3.61,3.61,0,0,1-3-1.35h-.08a8.62,8.62,0,0,1-.84,2.95,7.84,7.84,0,0,1-6.21,3.2c-4.28,0-5.7-3.28-5.7-6.15a12.51,12.51,0,0,1,1.52-5.92l1.07.47a9.47,9.47,0,0,0-.84,3.3,4,4,0,0,0,4.24,4.36,7.09,7.09,0,0,0,5.06-2.41c0-.91.06-1.79.06-2.59,0-3.17-.31-8.56-.59-13.19a18.38,18.38,0,0,1,2.07-2.07l.32.16c.13,3,.23,6.93.25,11.82a4.11,4.11,0,0,0,.7,2.69,2.58,2.58,0,0,0,2,.82h.27Z"/><path class="cls-1" d="M153.27,99.37c2.38,0,4.2,1.85,4.2,4.7a6.84,6.84,0,0,1-1.49,4.2c-1.54,1.74-4,2.7-8.34,2.7-2.32,0-4.14-.49-5-2h-.09a4.94,4.94,0,0,1-4,2h-.25c-.94,0-1.37-1-1.37-2s.43-2,1.37-2h.27a3.4,3.4,0,0,0,3-1.17,12.49,12.49,0,0,0,.94-2.33c.47-.35.94-.72,1.46-1.07l.14.1a8.08,8.08,0,0,0-.27,1.78,2,2,0,0,0,1.09,1.95C147.39,102.18,150.4,99.37,153.27,99.37Zm-4.1,7.69c2.32,0,4.88-.49,6.37-1.68a3,3,0,0,0-2.84-2.62c-2.09,0-4.25,1.51-6.25,4.11A20.49,20.49,0,0,0,149.17,107.06Z"/><path class="cls-1" d="M160.89,111.2a34.22,34.22,0,0,0,.25-4.71,115.65,115.65,0,0,0-.66-12.69,31.6,31.6,0,0,1,2.26-2.48l.33.17c.39,4.22.45,8.17.45,12,0,3.06-.17,5.11-.6,5.78a14.24,14.24,0,0,1-1.6,2.28Z"/><path class="cls-1" d="M177.39,107.06V111h-1.46c-.82,3.53-3.29,7.13-6.33,7.13a10.59,10.59,0,0,1-5.74-2.17l.44-1a5.86,5.86,0,0,0,2.39.55,8.17,8.17,0,0,0,4.88-2,7.78,7.78,0,0,0,2.27-2.46h-.55c-3.73,0-6.21-1.19-6.21-4.71a5.88,5.88,0,0,1,1.48-3.89,4.17,4.17,0,0,1,3.13-1.73c2.18,0,3.59,2.36,4.37,6.42Zm-6.64-3.24a1.89,1.89,0,0,0-2,1.42c0,1.14,2,1.88,4.55,1.88a4.51,4.51,0,0,0,.76-.06C173.37,105.11,172.25,103.82,170.75,103.82Z"/><path class="cls-1" d="M186.53,111h-.25c-1.78,0-3.44-.35-4.48-2.13h-.05a4.92,4.92,0,0,1-4.09,2.13h-.27c-.94,0-1.37-1-1.37-2s.43-2,1.37-2h.27a4.64,4.64,0,0,0,2.66-.66c1.07-.67,1.17-1.92,1.6-2.82.45-.31,1-.66,1.56-1l.14.12a7.79,7.79,0,0,0-.37,1.79,2.09,2.09,0,0,0,1,2,3.83,3.83,0,0,0,2.09.57h.23Zm-7-14.3a15.84,15.84,0,0,1,2.23,2.42,8.81,8.81,0,0,1-1.92,2c-.74-.8-1.5-1.56-2.28-2.32Zm4.12-.18a16.36,16.36,0,0,1,2.23,2.43,9,9,0,0,1-1.92,2c-.74-.8-1.5-1.56-2.28-2.33Z"/><path class="cls-1" d="M191.55,91c0,1.28.74,2.87,2.15,5.21L192,97.57c.08,1.5.12,3.34.12,5.25a12.7,12.7,0,0,1-.72,4.32,9.61,9.61,0,0,1-1,2.07A4.12,4.12,0,0,1,186.8,111h-.27c-.94,0-1.37-1-1.37-2s.43-2,1.37-2h.27a3.87,3.87,0,0,0,2.78-.8c.33-.33.33-.88.33-1.93,0-4.87-.64-9.2-.64-10.18a2.89,2.89,0,0,1,.52-1.82,8,8,0,0,1,1.53-1.46Z"/><path class="cls-1" d="M196.41,111.2a32.57,32.57,0,0,0,.26-4.71A115.68,115.68,0,0,0,196,93.8c.79-.94,1.53-1.76,2.27-2.48l.33.17c.39,4.22.45,8.17.45,12,0,3.06-.18,5.11-.6,5.78a13.72,13.72,0,0,1-1.61,2.28Z"/><path class="cls-1" d="M212.2,99.05a2.16,2.16,0,1,1-2.09,2.19,2,2,0,0,1,2.09-2.19Zm-.06,12.25a2.14,2.14,0,1,1,2.15-2.15,2,2,0,0,1-2.11,2.15Z"/><path class="cls-1" d="M230.93,106.46c2.52-4.22,5.54-7.09,8.45-7.09,2.39,0,4.2,1.85,4.2,4.7a6.83,6.83,0,0,1-1.48,4.2c-1.55,1.74-4,2.7-7.89,2.7a27.94,27.94,0,0,1-3.42-.24,8.66,8.66,0,0,1-2.15,4.36,7.67,7.67,0,0,1-5.41,2.22c-3,0-5.7-2.12-5.7-6.6a11.7,11.7,0,0,1,1.56-5.78l1.07.49a9.33,9.33,0,0,0-.87,3.56,4.53,4.53,0,0,0,1.05,3,4.36,4.36,0,0,0,3.24,1.43,6.55,6.55,0,0,0,5.55-3,15.94,15.94,0,0,0-2.07-5.9,28.66,28.66,0,0,1,2.05-3l.23.08a21.42,21.42,0,0,1,1.51,4.81Zm4.19.6c2.33,0,4.89-.49,6.37-1.68a3,3,0,0,0-2.83-2.62c-2.09,0-4.26,1.51-6.25,4.11A20.45,20.45,0,0,0,235.12,107.06Z"/><path class="cls-1" d="M252.25,111h-.33c-2.65,0-4.57-1.35-4.63-5.16,0-2.23-.19-8-.7-12.77a26.92,26.92,0,0,1,2.25-2.17l.27.14a83.33,83.33,0,0,1,.35,8.75c0,2,0,3.08,0,4.68,0,2,.78,2.62,2.56,2.62h.27Z"/><path class="cls-1" d="M262.41,104.4a16.8,16.8,0,0,0-5-1,3,3,0,0,0-1.62.35l-.9,2h-.39l-1.27-2.48a4.07,4.07,0,0,1,4.26-3.49,16.74,16.74,0,0,1,5.41,1.34,12.49,12.49,0,0,0,4.82.92h1.45l0,.16a23.38,23.38,0,0,1-1.63,2.71,4.44,4.44,0,0,0-3.35,1.17c-3.46,3.13-6,4.87-11.74,4.87h-.28c-.93,0-1.36-1-1.36-2s.43-2,1.36-2h.28c4.14,0,6.79-.6,9.88-2.56ZM258.76,93a20.34,20.34,0,0,1,2.79,2.28,6.81,6.81,0,0,1-1.76,2.41A31.5,31.5,0,0,0,257,95.5Zm7.34,12.42.1.1c.14,1.46,1.7,1.56,3.4,1.56h.27V111h-.27c-1.88,0-3-.28-3.58-.8a3.69,3.69,0,0,1-1-2.76,11,11,0,0,1,0-1.15Z"/><path class="cls-1" d="M274.89,91c0,1.28.74,2.87,2.15,5.21l-1.74,1.33c.08,1.5.12,3.34.12,5.25a13,13,0,0,1-.72,4.32,9.61,9.61,0,0,1-1,2.07,4.12,4.12,0,0,1-3.58,1.76h-.27c-.94,0-1.37-1-1.37-2s.43-2,1.37-2h.27a3.87,3.87,0,0,0,2.78-.8c.33-.33.33-.88.33-1.93,0-4.87-.64-9.2-.64-10.18a2.89,2.89,0,0,1,.52-1.82,8,8,0,0,1,1.53-1.46Z"/><path class="cls-1" d="M279.75,111.2a32.57,32.57,0,0,0,.26-4.71,115.68,115.68,0,0,0-.67-12.69,31.62,31.62,0,0,1,2.27-2.48l.33.17c.39,4.22.45,8.17.45,12,0,3.06-.18,5.11-.6,5.78a14.34,14.34,0,0,1-1.61,2.28Z"/><path class="cls-1" d="M312.45,105.64c-3.32,0-5.16-1.18-5.16-3.74A5.66,5.66,0,0,1,308.84,98a4.35,4.35,0,0,1,3.1-1.66c2.66,0,4.38,4.51,4.38,8.67a10.69,10.69,0,0,1-1.06,4.51,9.28,9.28,0,0,1-2.87,1.17,34.2,34.2,0,0,1-9.12,1.18c-6.47,0-9.45-3.09-9.45-6.88A13.08,13.08,0,0,1,295,99.44l1.25.47a7.09,7.09,0,0,0-.49,2.48c0,3.09,2.83,5.35,8.71,5.35a36.15,36.15,0,0,0,9-1.13c.78-.21,1.11-.51,1.11-1C313.84,105.64,313.13,105.64,312.45,105.64Zm-2.09-15.38a22,22,0,0,1,2.85,2.33,6.77,6.77,0,0,1-1.8,2.46,34.92,34.92,0,0,0-2.89-2.21Zm.7,9.11c-1.33,0-2.11.72-2.11,1.3,0,1.1,2.05,1.86,5.12,1.94C313.35,100.56,312.35,99.37,311.06,99.37Z"/><path class="cls-1" d="M333.09,111h-.27a4,4,0,0,1-4.22-3.28h-.06a3.5,3.5,0,0,1-1.07,1.89,6.49,6.49,0,0,1-4.2,1.39c-2,0-3.46-1.21-3.46-4.55,0-.39,0-1,0-1.66l1.27-.12a2.25,2.25,0,0,0,2.48,2.42,7.09,7.09,0,0,0,2.87-.68c.73-.32,1.23-.69,1.23-1.29A31.12,31.12,0,0,0,326,98.56a24.51,24.51,0,0,1,1.8-2.67l.33.1c.49,1.77,1,4,1.68,7.83.39,2.23,1.43,3.24,3,3.24h.27Z"/><path class="cls-1" d="M345.44,107.06V111h-.28a11.57,11.57,0,0,1-1.34-.1,5.41,5.41,0,0,1,.31,2c0,1.78-1.43,4.57-4.14,4.57-2.42,0-5.31-2.26-5.31-6.5-.82.06-1.27.06-1.59.06-.93,0-1.36-1-1.36-2s.43-2,1.36-2h2.19a28.09,28.09,0,0,1,3.34-9.35h.31l1.18,1.93c1.17,1.91,2.1,3.79,2.1,5.51a5.85,5.85,0,0,1-.35,1.91Zm-4.59,7.23c.58,0,.95-.2.95-.57a3.2,3.2,0,0,0-.7-1.87,2.89,2.89,0,0,0-2.5-1.16,12.94,12.94,0,0,0-2.05.18A5,5,0,0,0,340.85,114.29Zm-.59-8c0-.74-.78-2.25-2-4.12h-.08c-.62,1.83-1.09,3.44-1.5,4.9C338.93,107.06,340.26,106.9,340.26,106.28Z"/><path class="cls-1" d="M350.46,91c0,1.28.74,2.87,2.15,5.21l-1.74,1.33c.08,1.5.11,3.34.11,5.25a12.7,12.7,0,0,1-.72,4.32,9.13,9.13,0,0,1-1,2.07,4.13,4.13,0,0,1-3.58,1.76h-.27c-.94,0-1.37-1-1.37-2s.43-2,1.37-2h.27a3.83,3.83,0,0,0,2.77-.8c.34-.33.34-.88.34-1.93,0-4.87-.65-9.2-.65-10.18a2.89,2.89,0,0,1,.53-1.82,8.25,8.25,0,0,1,1.52-1.46Z"/><path class="cls-1" d="M355.32,111.2a32.71,32.71,0,0,0,.25-4.71,115.65,115.65,0,0,0-.66-12.69,29.78,29.78,0,0,1,2.27-2.48l.33.17c.39,4.22.45,8.17.45,12,0,3.06-.18,5.11-.61,5.78a14.24,14.24,0,0,1-1.6,2.28Z"/><polygon class="cls-2" points="287.39 293.83 240 263.79 192.61 293.83 192.61 186.08 240 156.03 287.39 186.08 287.39 293.83"/><path class="cls-3" d="M194,186.85l46-29.15,46,29.15V291.28l-44.49-28.2-1.5-.95-1.51.95L194,291.28V186.85m-2.81-1.54V296.39L240,265.45l48.8,30.94V185.31L240,154.37l-48.8,30.94Z"/><path class="cls-3" d="M218.08,236.35c-1,0-1.86-.34-1.86-1.37a3.45,3.45,0,0,1,.39-1.49,6.38,6.38,0,0,1,2.84-2.62l0-.51q.47-.47,1-.9l.15,0c.05,1,.06,2.11.06,3.58,0,.81,0,1.43.29,1.72a1.39,1.39,0,0,0,1.1.34h.14v1.93H222c-1.19,0-1.71-.22-2.13-1.09A5.08,5.08,0,0,1,218.08,236.35Zm.09-9.53a7.49,7.49,0,0,1,1.1,1.2,4.4,4.4,0,0,1-.94,1c-.37-.4-.75-.78-1.14-1.16Zm1.42,5.56c-1.37.64-2.25,1.33-2.25,1.72s.46.46,1,.46a4.34,4.34,0,0,0,1.29-.2C219.63,233.59,219.61,232.91,219.59,232.38Zm.62-5.65a8,8,0,0,1,1.11,1.2,4.68,4.68,0,0,1-.95,1c-.37-.4-.75-.77-1.13-1.15Z"/><path class="cls-3" d="M226.28,237.08h-.13a2.07,2.07,0,0,1-2-1.08h0a2,2,0,0,1-1.83,1.08h-.14c-.46,0-.68-.5-.68-1s.22-1,.68-1h.21c1,0,1.43-.47,1.43-1.3,0-1.74-.11-3.91-.29-5.72a11.25,11.25,0,0,1,1.09-1l.13.06a42,42,0,0,1,.16,4.33c0,1,0,1.88,0,2.32,0,.92.24,1.32,1.26,1.32h.19Z"/><path class="cls-3" d="M230.15,235.15v1.93h-3.87c-.46,0-.67-.5-.67-1s.21-1,.67-1Z"/><path class="cls-3" d="M234,235.15v1.93h-3.86c-.47,0-.68-.5-.68-1s.21-1,.68-1Z"/><path class="cls-3" d="M237.9,235.15v1.93H234c-.47,0-.68-.5-.68-1s.21-1,.68-1Z"/><path class="cls-3" d="M242.43,237.08h-.13a2.29,2.29,0,0,1-2.22-1.05h0a2.43,2.43,0,0,1-2,1.05h-.13c-.47,0-.68-.5-.68-1s.21-1,.68-1H238a2.33,2.33,0,0,0,1.32-.33c.53-.33.58-.95.79-1.39q.33-.24.78-.51l.06.06a4.13,4.13,0,0,0-.18.89,1.06,1.06,0,0,0,.47,1,2,2,0,0,0,1,.28h.12Zm-3.52,1.81a8,8,0,0,1,1.11,1.2,4.23,4.23,0,0,1-1,1c-.37-.4-.75-.77-1.13-1.15Zm2-.08a7.18,7.18,0,0,1,1.11,1.2,4.4,4.4,0,0,1-.95,1c-.37-.39-.75-.77-1.13-1.15Z"/><path class="cls-3" d="M250.36,232.19a11.43,11.43,0,0,1,.22,2.2,3.48,3.48,0,0,1-.57,1.7,1.87,1.87,0,0,1-1.41,1,1.7,1.7,0,0,1-1.35-.83h0a2.41,2.41,0,0,1-1.6.85.94.94,0,0,1-1-.76h0a2.79,2.79,0,0,1-2,.76h-.13c-.47,0-.68-.5-.68-1s.21-1,.68-1h.13a2.54,2.54,0,0,0,1.82-.52,8.25,8.25,0,0,0,.76-1,7.8,7.8,0,0,1,.87-.37l.07.11a3,3,0,0,0-.6,1.29.43.43,0,0,0,.44.47,1.66,1.66,0,0,0,.66-.18c.62-.31.66-.88.81-1.47a5.46,5.46,0,0,1,.73-.46l.08.07a3.11,3.11,0,0,0-.15.93,1.06,1.06,0,0,0,.28.76,1,1,0,0,0,.71.32.54.54,0,0,0,.48-.18,13.42,13.42,0,0,0-.36-1.68c.34-.37.68-.75,1.07-1.13Z"/><path class="cls-3" d="M257.69,235.15v1.93H257c-.4,1.75-1.62,3.54-3.13,3.54a5.24,5.24,0,0,1-2.85-1.08l.23-.51a3,3,0,0,0,1.18.27,4.08,4.08,0,0,0,2.42-1,3.76,3.76,0,0,0,1.12-1.22h-.27c-1.85,0-3.08-.59-3.08-2.33a2.86,2.86,0,0,1,.74-1.92,2,2,0,0,1,1.54-.86c1.09,0,1.78,1.17,2.17,3.18Zm-3.29-1.61a1,1,0,0,0-1,.71c0,.56,1,.93,2.26.93a2.13,2.13,0,0,0,.37,0C255.69,234.18,255.14,233.54,254.4,233.54Z"/><path class="cls-3" d="M260.18,227.21a5.62,5.62,0,0,0,1.06,2.58l-.86.66c0,.74.06,1.65.06,2.6a6.37,6.37,0,0,1-.36,2.14,4.78,4.78,0,0,1-.48,1,2,2,0,0,1-1.77.87h-.14c-.46,0-.68-.5-.68-1s.22-1,.68-1h.14a1.9,1.9,0,0,0,1.37-.4c.16-.16.16-.43.16-1,0-2.4-.31-4.55-.31-5a1.41,1.41,0,0,1,.26-.9,3.72,3.72,0,0,1,.75-.72Z"/><path class="cls-3" d="M262.59,237.2a17.67,17.67,0,0,0,.12-2.33,55.58,55.58,0,0,0-.33-6.29c.39-.46.76-.87,1.13-1.23l.16.09c.19,2.09.22,4,.22,5.92a7.38,7.38,0,0,1-.3,2.86,6.29,6.29,0,0,1-.79,1.13Z"/><path class="cls-3" d="M241.06,207v-4.28h-8.69v-3.56l9.21-13.49H245v13.47h2.63v3.58H245V207Zm0-7.86V191.9l-4.88,7.25Z"/><polygon class="cls-4" points="287.39 395.11 240 365.06 192.61 395.11 192.61 287.36 240 257.31 287.39 287.36 287.39 395.11"/><path class="cls-3" d="M194,288.13,240,259l46,29.16V392.56L241.5,364.35l-1.5-1-1.51,1L194,392.55V288.13m-2.81-1.55V397.66L240,366.72l48.8,30.94V286.58L240,255.65l-48.8,30.93Z"/><path class="cls-3" d="M219.55,340.15c-1,0-1.87-.34-1.87-1.37a3.51,3.51,0,0,1,.4-1.49,6.33,6.33,0,0,1,2.83-2.61l0-.51q.47-.46,1-.9l.16,0c.05,1,.06,2.11.06,3.58,0,.82,0,1.44.29,1.73a1.39,1.39,0,0,0,1.1.33h.13v1.94h-.13c-1.19,0-1.71-.22-2.13-1.09A5.07,5.07,0,0,1,219.55,340.15Zm.09-9.53a8.51,8.51,0,0,1,1.1,1.2,4.23,4.23,0,0,1-1,1c-.37-.4-.74-.77-1.13-1.15Zm1.42,5.57c-1.37.64-2.25,1.32-2.25,1.72s.46.45,1,.45a4.1,4.1,0,0,0,1.3-.2C221.1,337.4,221.08,336.72,221.06,336.19Zm.62-5.65a7.54,7.54,0,0,1,1.1,1.2,4.4,4.4,0,0,1-.95,1c-.36-.39-.74-.77-1.13-1.15Z"/><path class="cls-3" d="M226.07,331a5.67,5.67,0,0,0,1.07,2.58l-.86.66c0,.75.05,1.66.05,2.6A6.34,6.34,0,0,1,226,339a4.44,4.44,0,0,1-.49,1,2,2,0,0,1-1.77.87h-.13c-.47,0-.68-.5-.68-1s.21-1,.68-1h.13a1.93,1.93,0,0,0,1.38-.39c.16-.17.16-.44.16-1,0-2.41-.32-4.56-.32-5a1.43,1.43,0,0,1,.26-.9,4.48,4.48,0,0,1,.76-.73Z"/><path class="cls-3" d="M231.09,340.89h-.17c-1.31,0-2.26-.67-2.29-2.56,0-1.1-.1-3.94-.35-6.32.36-.39.74-.75,1.11-1.08l.14.07a42.31,42.31,0,0,1,.17,4.34c0,1,0,1.52,0,2.32,0,1,.39,1.29,1.27,1.29h.14Z"/><path class="cls-3" d="M235,339v1.94h-3.87c-.47,0-.68-.5-.68-1s.21-1,.68-1Z"/><path class="cls-3" d="M238.83,339v1.94H235c-.46,0-.68-.5-.68-1s.22-1,.68-1Z"/><path class="cls-3" d="M242.7,339v1.94h-3.87c-.46,0-.68-.5-.68-1s.22-1,.68-1Z"/><path class="cls-3" d="M250.64,336a11.59,11.59,0,0,1,.22,2.21,3.45,3.45,0,0,1-.57,1.69,1.89,1.89,0,0,1-1.42,1,1.7,1.7,0,0,1-1.35-.82h0a2.37,2.37,0,0,1-1.6.85.93.93,0,0,1-1-.77h0a2.71,2.71,0,0,1-2,.77h-.14c-.46,0-.67-.5-.67-1s.21-1,.67-1h.14a2.54,2.54,0,0,0,1.82-.52,7.26,7.26,0,0,0,.75-1,6.19,6.19,0,0,1,.87-.36l.07.1a3,3,0,0,0-.6,1.3.42.42,0,0,0,.44.46,1.48,1.48,0,0,0,.66-.18c.62-.31.66-.87.82-1.47a7.75,7.75,0,0,1,.72-.46l.09.07a2.84,2.84,0,0,0-.16.93,1.1,1.1,0,0,0,.28.77,1,1,0,0,0,.72.31c.22,0,.41-.05.47-.18a12.92,12.92,0,0,0-.35-1.67c.33-.38.67-.76,1.06-1.13Z"/><path class="cls-3" d="M256.22,340.89h-.16a3.31,3.31,0,0,1-1-.18,3.87,3.87,0,0,1-.63,2.18,2.44,2.44,0,0,1-1.95,1.4,4.83,4.83,0,0,1-2.58-1l.22-.49a2.57,2.57,0,0,0,.87.17,3,3,0,0,0,2.11-.89,3.61,3.61,0,0,0,1.13-1.85,8.73,8.73,0,0,1-1.08-1.79c.23-.52.45-1,.69-1.43H254c.5,1.12,1,1.89,2.11,1.89h.13Z"/><path class="cls-3" d="M258.71,331a5.74,5.74,0,0,0,1.06,2.58l-.86.66c0,.75.06,1.66.06,2.6a6.09,6.09,0,0,1-.36,2.14,4.42,4.42,0,0,1-.48,1,2,2,0,0,1-1.77.87h-.14c-.46,0-.67-.5-.67-1s.21-1,.67-1h.14a1.9,1.9,0,0,0,1.37-.39c.17-.17.17-.44.17-1,0-2.41-.32-4.56-.32-5a1.43,1.43,0,0,1,.26-.9,4.37,4.37,0,0,1,.75-.73Z"/><path class="cls-3" d="M261.12,341a15.88,15.88,0,0,0,.13-2.33,58,58,0,0,0-.33-6.29,13.63,13.63,0,0,1,1.12-1.22l.16.08c.2,2.09.23,4.05.23,5.92a7.66,7.66,0,0,1-.3,2.87,7.4,7.4,0,0,1-.8,1.13Z"/><path class="cls-3" d="M233.53,292v-4.08h13.13v3.31l-4.39,5a6.25,6.25,0,0,1,4,2.17,6.15,6.15,0,0,1,1.41,4,6.52,6.52,0,0,1-2.29,5.29,8.76,8.76,0,0,1-5.84,1.92,12.67,12.67,0,0,1-7.21-2.52l2-3.8a9.8,9.8,0,0,0,5.43,2.14,3.82,3.82,0,0,0,2.38-.7,2.41,2.41,0,0,0,.94-2,2.5,2.5,0,0,0-1.08-2.12,5,5,0,0,0-3-.78,10.45,10.45,0,0,0-2.85.58v-3.52l4.11-4.85Z"/><polygon class="cls-4" points="287.39 601.82 240 571.77 192.61 601.82 192.61 494.07 240 464.02 287.39 494.07 287.39 601.82"/><path class="cls-5" d="M194,494.84l46-29.16,46,29.16V599.27L241.5,571.06l-1.5-.95-1.51.95L194,599.27V494.84m-2.81-1.55V604.37L240,573.44l48.8,30.93V493.29L240,462.36l-48.8,30.93Z"/><path class="cls-3" d="M235.66,493.14h8.68v21.44h-4.6V497.22h-4.08Z"/><path class="cls-3" d="M229.05,543.05h-.14a2.41,2.41,0,0,1-2-.79h0a13.24,13.24,0,0,1-5.25,1.21,6.16,6.16,0,0,1-3.4-.81,3,3,0,0,1-1.4-2.68,6.19,6.19,0,0,1,.58-2.56l.59.2a4.06,4.06,0,0,0-.22,1.16c0,1.47,1.23,2.68,4.32,2.68a13.28,13.28,0,0,0,4.3-.76l.46-1.26a8.75,8.75,0,0,1,.76-.52l.1.07a4.23,4.23,0,0,0-.24,1.1c0,.69.68,1,1.48,1h.14Zm-7.15,1.66a9.48,9.48,0,0,1,1.6,1.26,7.27,7.27,0,0,1-1,1.39,17.12,17.12,0,0,0-1.6-1.24Z"/><path class="cls-3" d="M232.93,541.11v1.94h-3.87c-.47,0-.68-.51-.68-1s.21-1,.68-1Z"/><path class="cls-3" d="M235.12,539.8c1.29-1.49,2.6-2.47,3.9-2.47a2.23,2.23,0,0,1,2.22,2.39,3.86,3.86,0,0,1-.79,2.11c-.91.81-2.82,1.21-7.39,1.22h-.13c-.47,0-.68-.51-.68-1s.21-1,.68-1h1l.3-.42a16,16,0,0,0,.12-2.35c0-1-.06-2-.15-3.11,0-.44-.14-.88-.14-1.32s.23-.84,1-1.45l.11.07a4.88,4.88,0,0,0,1.08,2.61l-.85.64c0,.8,0,1.53,0,2a5.2,5.2,0,0,1-.36,2Zm5,.39a1.64,1.64,0,0,0-1.55-1.1c-1,0-2.19.63-3.58,2C237.54,541.11,239.32,540.83,240.12,540.19Z"/><path class="cls-3" d="M245.55,543.05h-.17c-1.31,0-2.26-.67-2.29-2.56,0-1.1-.1-3.94-.35-6.32.36-.39.74-.75,1.11-1.08l.14.07a42.23,42.23,0,0,1,.17,4.33c0,1,0,1.53,0,2.33,0,1,.39,1.29,1.27,1.29h.14Z"/><path class="cls-3" d="M250.58,539.8a8.34,8.34,0,0,0-2.46-.52,1.39,1.39,0,0,0-.8.18l-.45,1h-.19l-.63-1.22a2,2,0,0,1,2.11-1.74,8.2,8.2,0,0,1,2.68.67,6.26,6.26,0,0,0,2.39.46H254v.07a11.76,11.76,0,0,1-.8,1.35,2.16,2.16,0,0,0-1.66.58,7.44,7.44,0,0,1-5.82,2.41h-.13c-.47,0-.68-.51-.68-1s.21-1,.68-1h.13a8.18,8.18,0,0,0,4.9-1.27Zm-1.81-5.66a9.68,9.68,0,0,1,1.38,1.13,3.37,3.37,0,0,1-.87,1.19,16.37,16.37,0,0,0-1.4-1.08Zm3.64,6.15.05.05c.06.72.84.77,1.68.77h.13v1.94h-.13a2.71,2.71,0,0,1-1.77-.4,1.79,1.79,0,0,1-.51-1.36,5.33,5.33,0,0,1,0-.57Z"/><path class="cls-3" d="M256.51,542.33a3.15,3.15,0,0,1-2.1.72h-.13c-.47,0-.68-.51-.68-1s.21-1,.68-1h.13a4.28,4.28,0,0,0,2-.39c-.08-1.52-.15-3-.22-4.57,0-.46-.13-1-.13-1.43a1.37,1.37,0,0,1,.26-.9,3.74,3.74,0,0,1,.75-.73l.12.08a5.74,5.74,0,0,0,1.06,2.58l-.88.67c0,2,0,3,.11,3.71a3.19,3.19,0,0,1,1.1-.23,2,2,0,0,1,1.86,2.23c0,.85-.55,2.28-2,2.28-.89,0-1.69-.7-2-2.08Zm2.66.56a.57.57,0,0,0,.42-.15,1.34,1.34,0,0,0-1.32-1.28,2,2,0,0,0-.67.13A1.75,1.75,0,0,0,259.17,542.89Z"/><path class="cls-3" d="M262.1,543.16a17.57,17.57,0,0,0,.12-2.33,58,58,0,0,0-.32-6.29,15.38,15.38,0,0,1,1.12-1.23l.16.09c.2,2.09.22,4.05.22,5.92a7.44,7.44,0,0,1-.3,2.87,7.09,7.09,0,0,1-.79,1.13Z"/><polygon class="cls-2" points="287.39 503.02 240 472.97 192.61 503.02 192.61 395.26 240 365.22 287.39 395.26 287.39 503.02"/><path class="cls-5" d="M194,396l46-29.16L286,396V500.46l-44.49-28.2-1.5-.95-1.51.95L194,500.46V396m-2.81-1.55V505.57L240,474.63l48.8,30.94V394.49L240,363.56l-48.8,30.93Z"/><path class="cls-3" d="M241.63,403.78a3.89,3.89,0,0,0,.81-2.22,2.47,2.47,0,0,0-.71-1.8,2.42,2.42,0,0,0-1.81-.72c-1.35,0-2.62,1-3.83,2.89l-3.83-2.27a11.88,11.88,0,0,1,3.29-3.53,8.07,8.07,0,0,1,4.57-1.2,7.39,7.39,0,0,1,4.88,1.76,6,6,0,0,1,2.1,4.81,6.46,6.46,0,0,1-.84,3.17,20.78,20.78,0,0,1-3.12,3.88l-3.86,4h8.46v4.29H232.62V413.3l6.29-6.44A28.11,28.11,0,0,0,241.63,403.78Z"/><path class="cls-3" d="M229.56,437.5c-1.64,0-2.55-.58-2.55-1.85a2.79,2.79,0,0,1,.77-1.95,2.16,2.16,0,0,1,1.53-.82c1.32,0,2.17,2.23,2.17,4.29a5.28,5.28,0,0,1-.52,2.24,4.92,4.92,0,0,1-1.42.58,17.1,17.1,0,0,1-4.52.58c-3.2,0-4.68-1.53-4.68-3.41a6.44,6.44,0,0,1,.58-2.72l.62.23a3.36,3.36,0,0,0-.25,1.23c0,1.52,1.41,2.65,4.32,2.65A18.16,18.16,0,0,0,230,438c.39-.11.55-.26.55-.52C230.25,437.5,229.9,437.5,229.56,437.5Zm-1-7.61a10.08,10.08,0,0,1,1.41,1.15,3.32,3.32,0,0,1-.89,1.22,15.19,15.19,0,0,0-1.43-1.09Zm.35,4.51c-.66,0-1,.35-1,.64,0,.55,1,.92,2.54,1C230,435,229.52,434.4,228.88,434.4Z"/><path class="cls-3" d="M239.8,440.14h-.14a2,2,0,0,1-2.09-1.62h0a1.77,1.77,0,0,1-.53.94,3.25,3.25,0,0,1-2.08.68c-1,0-1.71-.6-1.71-2.25,0-.19,0-.47,0-.82l.63-.06a1.11,1.11,0,0,0,1.22,1.2,3.62,3.62,0,0,0,1.43-.34c.35-.15.61-.34.61-.64a15.27,15.27,0,0,0-.84-3.23,15.41,15.41,0,0,1,.89-1.33l.17.05c.24.88.49,2,.83,3.88.19,1.11.71,1.61,1.48,1.61h.14Z"/><path class="cls-3" d="M243.67,438.21v1.93H239.8c-.46,0-.68-.5-.68-1s.22-1,.68-1Z"/><path class="cls-3" d="M247.54,438.21v1.93h-3.87c-.46,0-.68-.5-.68-1s.22-1,.68-1Z"/><path class="cls-3" d="M253.66,438.21v1.93h-.14a5.86,5.86,0,0,1-.67-.05,2.59,2.59,0,0,1,.16,1,2.26,2.26,0,0,1-2,2.27,2.94,2.94,0,0,1-2.63-3.23c-.41,0-.63,0-.79,0-.46,0-.67-.5-.67-1s.21-1,.67-1h1.09a13.82,13.82,0,0,1,1.65-4.63h.16l.58.95a5.68,5.68,0,0,1,1,2.73,3.17,3.17,0,0,1-.17.95Zm-2.28,3.58c.29,0,.48-.1.48-.28a1.64,1.64,0,0,0-.35-.93,1.44,1.44,0,0,0-1.24-.57,7.45,7.45,0,0,0-1,.08A2.47,2.47,0,0,0,251.38,441.79Zm-.29-4a5.42,5.42,0,0,0-1-2h0c-.31.91-.54,1.7-.75,2.43C250.44,438.21,251.09,438.13,251.09,437.82Z"/><path class="cls-3" d="M256.15,430.27a5.62,5.62,0,0,0,1.06,2.58l-.86.66c0,.74.06,1.65.06,2.6a6.37,6.37,0,0,1-.36,2.14,4.78,4.78,0,0,1-.48,1,2,2,0,0,1-1.77.87h-.14c-.46,0-.68-.5-.68-1s.22-1,.68-1h.14a1.92,1.92,0,0,0,1.37-.4c.16-.16.16-.43.16-1,0-2.4-.32-4.55-.32-5a1.42,1.42,0,0,1,.27-.9,3.72,3.72,0,0,1,.75-.72Z"/><path class="cls-3" d="M258.56,440.26a17.67,17.67,0,0,0,.12-2.33,55.58,55.58,0,0,0-.33-6.29c.39-.46.76-.87,1.13-1.23l.16.09c.19,2.09.22,4,.22,5.92a7.38,7.38,0,0,1-.3,2.86,6.29,6.29,0,0,1-.79,1.13Z"/><path class="cls-3" d="M226.73,457.73c1.25-2.09,2.75-3.51,4.19-3.51a2.12,2.12,0,0,1,2.08,2.33,3.36,3.36,0,0,1-.74,2.08c-.76.86-2,1.34-3.9,1.34a13.74,13.74,0,0,1-1.7-.12A4.31,4.31,0,0,1,225.6,462a3.84,3.84,0,0,1-2.68,1.1c-1.47,0-2.83-1.05-2.83-3.27a5.74,5.74,0,0,1,.78-2.86l.53.24A4.6,4.6,0,0,0,221,459a2.25,2.25,0,0,0,.53,1.49,2.15,2.15,0,0,0,1.6.7,3.09,3.09,0,0,0,1.71-.46,3,3,0,0,0,1-1,7.85,7.85,0,0,0-1-2.92,14.58,14.58,0,0,1,1-1.48l.12,0a10.58,10.58,0,0,1,.74,2.38Zm2.08.3a5.33,5.33,0,0,0,3.15-.83,1.47,1.47,0,0,0-1.4-1.3,4.29,4.29,0,0,0-3.09,2A9.14,9.14,0,0,0,228.81,458Z"/><path class="cls-3" d="M237.3,460h-.16c-1.32,0-2.27-.67-2.3-2.56,0-1.1-.09-4-.34-6.33a14,14,0,0,1,1.11-1.07l.13.07a39.6,39.6,0,0,1,.18,4.33c0,1,0,1.53,0,2.32,0,1,.39,1.3,1.27,1.3h.13Z"/><path class="cls-3" d="M241.17,458V460H237.3c-.46,0-.67-.51-.67-1s.21-1,.67-1Z"/><path class="cls-3" d="M245,458V460h-3.87c-.46,0-.67-.51-.67-1s.21-1,.67-1Z"/><path class="cls-3" d="M250.08,456.71a8.59,8.59,0,0,0-2.46-.51,1.39,1.39,0,0,0-.8.18l-.45,1h-.19l-.63-1.23a2,2,0,0,1,2.11-1.73,8.26,8.26,0,0,1,2.68.67,6.2,6.2,0,0,0,2.39.45h.71l0,.08a11.76,11.76,0,0,1-.8,1.35,2.19,2.19,0,0,0-1.67.58,7.45,7.45,0,0,1-5.81,2.41h-.13c-.47,0-.68-.51-.68-1s.21-1,.68-1h.13a8.18,8.18,0,0,0,4.9-1.27Zm-1.81-5.65a9.56,9.56,0,0,1,1.38,1.13,3.37,3.37,0,0,1-.87,1.19c-.4-.35-.88-.71-1.4-1.08Zm3.63,6.15,0,.05c.07.72.84.77,1.69.77h.13V460h-.13a2.71,2.71,0,0,1-1.77-.4,1.81,1.81,0,0,1-.52-1.36,5.62,5.62,0,0,1,0-.58Z"/><path class="cls-3" d="M256.26,450.09a5.67,5.67,0,0,0,1.07,2.58l-.86.66c0,.74,0,1.65,0,2.6a6.39,6.39,0,0,1-.35,2.14,4.58,4.58,0,0,1-.49,1,2,2,0,0,1-1.77.88h-.13c-.47,0-.68-.51-.68-1s.21-1,.68-1h.13a1.9,1.9,0,0,0,1.38-.4c.16-.16.16-.43.16-.95,0-2.41-.32-4.56-.32-5a1.43,1.43,0,0,1,.26-.9,3.82,3.82,0,0,1,.76-.73Z"/><path class="cls-3" d="M258.67,460.08a15.88,15.88,0,0,0,.13-2.33,58,58,0,0,0-.33-6.29c.39-.46.75-.87,1.12-1.23l.17.09c.19,2.09.22,4,.22,5.92a7.56,7.56,0,0,1-.3,2.86,7.35,7.35,0,0,1-.79,1.14Z"/></svg>