<svg id="Layer_1" data-name="Layer 1" xmlns="http://www.w3.org/2000/svg" xmlns:xlink="http://www.w3.org/1999/xlink" viewBox="0 0 480 638"><defs><style>.cls-1{fill:#006080;}.cls-2{fill:#8da48d;}.cls-2,.cls-3,.cls-4,.cls-5,.cls-6,.cls-7{fill-rule:evenodd;}.cls-3{fill:#b7ab9e;}.cls-4{fill:#7b9db1;}.cls-5{fill:url(#radial-gradient);}.cls-6{fill:url(#radial-gradient-2);}.cls-7{fill:url(#radial-gradient-3);}.cls-8{fill:#4c4c4c;}</style><radialGradient id="radial-gradient" cx="128.13" cy="475.78" r="55.57" gradientUnits="userSpaceOnUse"><stop offset="0" stop-color="#fff"/><stop offset="0.54" stop-color="#fdfdfd"/><stop offset="0.74" stop-color="#f6f6f6"/><stop offset="0.87" stop-color="#ebebeb"/><stop offset="0.99" stop-color="#dadada"/><stop offset="1" stop-color="#d7d7d7"/></radialGradient><radialGradient id="radial-gradient-2" cx="239.96" cy="282.75" r="55.58" xlink:href="#radial-gradient"/><radialGradient id="radial-gradient-3" cx="352.3" cy="475.49" r="55.58" xlink:href="#radial-gradient"/></defs><path class="cls-1" d="M95.43,58.76h-5.1l.29-1.23h5.13Z"/><path class="cls-1" d="M118,47.78c.16,3.1.19,6.28.19,9.46a5.09,5.09,0,0,0,.86,3.19,2.33,2.33,0,0,0,1.72.66h.2V63h-.26c-2.54,0-3.56-1.94-3.59-4h-.07a4.28,4.28,0,0,1-2.2,2.63v0a1.67,1.67,0,0,1,1.41,1.89,4.54,4.54,0,0,1-.6,2,9.37,9.37,0,0,1-6.6,3,5.19,5.19,0,0,1-3.5-1.38A5.55,5.55,0,0,1,104,63.11a11.25,11.25,0,0,1,1.1-4.6l.57.22a9.27,9.27,0,0,0-.66,3.08,4.85,4.85,0,0,0,.85,2.89,4.19,4.19,0,0,0,3.34,1.67,8.22,8.22,0,0,0,4.22-1.1,7.37,7.37,0,0,0,1.86-1.45c0-.56-2.42-1-4.59-1.2l-.07-.14.78-1.61a10.5,10.5,0,0,0,3.94-1.26c1.33-1,1.46-1.48,1.46-4.16,0-2-.13-4.14-.25-6.38a11.79,11.79,0,0,1,1.26-1.38Zm-9.26,24.83c-.6-.58-1.13-1-1.71-1.53a14.67,14.67,0,0,1,1.15-1.39,12.83,12.83,0,0,1,1.67,1.57A8,8,0,0,1,108.74,72.61Zm2.83-.19c-.6-.58-1.13-1-1.72-1.53A14.92,14.92,0,0,1,111,69.5a13.5,13.5,0,0,1,1.67,1.57A8.43,8.43,0,0,1,111.57,72.42Z"/><path class="cls-1" d="M129.7,58.38a13.74,13.74,0,0,0-4.6-1,2.35,2.35,0,0,0-1.86.73l.18.73L123,60.14h-.15l-.71-1.93a2.89,2.89,0,0,1,3.17-2.64,14.24,14.24,0,0,1,4.81,1.26,6.87,6.87,0,0,0,2.5.48h1.28l0,0L133,58.85a4.71,4.71,0,0,0-2.48.56L128.08,61a11.43,11.43,0,0,1-6.43,2H121a.94.94,0,0,1-1-1,.91.91,0,0,1,1-.9h.9c2.37,0,4.8-.83,7.82-2.65Zm1.64,1h0c.06,1.25,1.08,1.7,2.59,1.7h.4V63h-.46c-1.89,0-3.15-.66-3.15-2.42a7.52,7.52,0,0,1,0-.82Z"/><path class="cls-1" d="M137.92,61.71A4.72,4.72,0,0,1,134.58,63h-.2a.94.94,0,0,1-1-1,.92.92,0,0,1,1-.9h.13a5.34,5.34,0,0,0,3.32-1c-.26-2.84-.32-5.77-.32-8,0-.59-.12-1.53-.12-2.22a1.82,1.82,0,0,1,.46-1.29,5.6,5.6,0,0,1,.82-.76l.14.09a3.67,3.67,0,0,0,0,.62,5.94,5.94,0,0,0,1.13,3l-1.07.75a48.75,48.75,0,0,0,.25,7.14l.06,0a3.73,3.73,0,0,1,1.87-.51,2.2,2.2,0,0,1,1.67.81,3.15,3.15,0,0,1,.7,2,2.56,2.56,0,0,1-2.31,2.81c-1.36,0-2.49-1.1-3.08-2.77Zm3.82,1.13a1.12,1.12,0,0,0,.72-.27,2.15,2.15,0,0,0-.54-1.36,1.72,1.72,0,0,0-1.38-.66,2.18,2.18,0,0,0-1.18.32A2.77,2.77,0,0,0,141.74,62.84Z"/><path class="cls-1" d="M146.08,63.22a19,19,0,0,0,.16-2.93V58.85c0-2.68-.29-6.58-.53-9.11a13.46,13.46,0,0,1,1.44-1.55l.13,0c.31,3.19.38,6.9.38,10.31a24.1,24.1,0,0,1-.1,2.42,3.77,3.77,0,0,1-1.29,2.36Z"/><path class="cls-1" d="M166.57,60.51a4.77,4.77,0,0,1-2.66-.63,2.59,2.59,0,0,1-1-2.42,3.86,3.86,0,0,1,.53-1.7,3.07,3.07,0,0,1,2.4-1.77c1.19,0,2.14.92,2.9,2.81a12.62,12.62,0,0,1,.66,3.56,8.07,8.07,0,0,1-.23,2.09A3.43,3.43,0,0,1,168.05,64a9.49,9.49,0,0,1-6.13,2.46A5.33,5.33,0,0,1,156.38,61a9.8,9.8,0,0,1,.88-4.13l.61.16a7.92,7.92,0,0,0-.5,2.43c0,3.08,1.91,5,4.59,5a8.57,8.57,0,0,0,4.7-1.41c.89-.6,1.8-1.36,1.8-1.77a2.2,2.2,0,0,0-.2-.85A9.39,9.39,0,0,1,166.57,60.51Zm-2.81-8.63c-.6-.57-1.13-1-1.71-1.53A14.67,14.67,0,0,1,163.2,49a14.3,14.3,0,0,1,1.67,1.57A7.62,7.62,0,0,1,163.76,51.88Zm1.8,4c-.83,0-1.78.66-1.78,1.38s.82,1.35,2.88,1.35a7.19,7.19,0,0,0,1.32-.09C167.48,56.86,166.65,55.89,165.56,55.89Zm1-4.2c-.6-.57-1.13-1-1.72-1.53A14.67,14.67,0,0,1,166,48.77a14.3,14.3,0,0,1,1.67,1.57A7.62,7.62,0,0,1,166.59,51.69Z"/><path class="cls-1" d="M175.89,63h-.16a3.24,3.24,0,0,1-2.51-.84c-.89-.91-.9-2-.9-4.1,0-2.78-.17-5.7-.39-8.8a14.66,14.66,0,0,1,1.38-1.37l.1.06c.24,3.21.24,7,.24,10.61v.83a1.53,1.53,0,0,0,1.1,1.57,2.94,2.94,0,0,0,.93.16h.21Z"/><path class="cls-1" d="M176.21,61.09c1.13,0,2.3-.45,2.52-1.29l.43-1.58,1-.73.08.1a8.21,8.21,0,0,0-.32,1.7,1.45,1.45,0,0,0,.49,1.22,2.71,2.71,0,0,0,1.81.58h.27V63h-.34c-1.44,0-2.52-.4-3-1.5h-.06a3.14,3.14,0,0,1-2.91,1.5h-.28a.94.94,0,0,1-1-1,.92.92,0,0,1,1-.9Zm1.66,7.72c-.6-.57-1.13-1-1.72-1.52a12.34,12.34,0,0,1,1.16-1.39A14.19,14.19,0,0,1,179,67.46,7.62,7.62,0,0,1,177.87,68.81Zm2.82-.19c-.6-.57-1.12-1-1.71-1.52a12.34,12.34,0,0,1,1.16-1.39,14.19,14.19,0,0,1,1.67,1.56A7.64,7.64,0,0,1,180.69,68.62Z"/><path class="cls-1" d="M197.5,63h-.37c-1.82,0-2.65-.56-3-1.38H194a3.27,3.27,0,0,1-2.5,1.38,1.46,1.46,0,0,1-1.6-1.22h-.06A3.3,3.3,0,0,1,187.33,63a1.26,1.26,0,0,1-1.41-1.25h0A3.94,3.94,0,0,1,182.75,63h-.25a.94.94,0,0,1-1-1,.92.92,0,0,1,1-.9H183a3.54,3.54,0,0,0,3.1-1.36l.73-1.14,1.13-.4.05.08a5.89,5.89,0,0,0-.95,2.09.73.73,0,0,0,.79.73,2.09,2.09,0,0,0,1.28-.44,3.24,3.24,0,0,0,.95-1.29l.35-.86,1.11-.51.06.06a6,6,0,0,0-.6,2.19.8.8,0,0,0,.82.85,1.67,1.67,0,0,0,1-.32,2.29,2.29,0,0,0,.85-1.41c.06-.23.15-.51.3-1.15l1.11-.75.06,0a8.35,8.35,0,0,0-.37,2c0,1.16,1,1.58,2.4,1.58h.33Z"/><path class="cls-1" d="M197.82,61.09a3.35,3.35,0,0,0,1.64-.39,1.69,1.69,0,0,0,.78-1.59c0-2.34-.19-4.9-.43-7.6-.06-.67-.15-1.29-.15-1.83a1.49,1.49,0,0,1,.44-1,7.71,7.71,0,0,1,.81-.81l.1.08a6.61,6.61,0,0,0,1.19,3.35,9.29,9.29,0,0,1-.92.75c.05,1.68.19,3.46.19,5.08a8.77,8.77,0,0,1-.59,3.68,3,3,0,0,1-1.33,1.7,4.24,4.24,0,0,1-1.83.44h-.22a.94.94,0,0,1-1-1,.92.92,0,0,1,1-.9Z"/><path class="cls-1" d="M204.73,63.22a19,19,0,0,0,.16-2.93V58.85c0-2.68-.29-6.58-.52-9.11a13.4,13.4,0,0,1,1.43-1.55l.13,0c.31,3.19.38,6.9.38,10.31a21.45,21.45,0,0,1-.1,2.42,3.77,3.77,0,0,1-1.29,2.36Z"/><path class="cls-1" d="M225.43,58a6.51,6.51,0,0,1-1.52.16c-1.58,0-2.8-.41-3.27-1.47a2.43,2.43,0,0,1-.2-1,3.93,3.93,0,0,1,1-2.71,2.54,2.54,0,0,1,1.77-.91c1.12,0,2,1,2.64,2.71a9.93,9.93,0,0,1,.56,3.44,3.59,3.59,0,0,1-.68,2.08c1.38.45,1.56.88,1.56,1.93a3.77,3.77,0,0,1-.4,1.67,5.58,5.58,0,0,1-1.8,1.75,8.56,8.56,0,0,1-5,1.56,5.24,5.24,0,0,1-3.63-1.39A5.44,5.44,0,0,1,215,61.94a11.18,11.18,0,0,1,1-4.6l.59.22a9.06,9.06,0,0,0-.56,3.08,4.87,4.87,0,0,0,.85,2.88,4.32,4.32,0,0,0,3.47,1.67,8.22,8.22,0,0,0,4.24-1.08,6.2,6.2,0,0,0,1.93-1.49c0-.56-2.68-1.09-5.2-1.09l-.06-.1.65-1.51c2.4-.28,3.64-.69,3.64-1.45C225.47,58.34,225.45,58.21,225.43,58ZM219.7,71.73c-.6-.57-1.12-1-1.71-1.53a13.31,13.31,0,0,1,1.16-1.39,13.5,13.5,0,0,1,1.67,1.57A7.64,7.64,0,0,1,219.7,71.73Zm2.83-.19c-.6-.57-1.13-1-1.71-1.53A14.67,14.67,0,0,1,222,68.62a13.5,13.5,0,0,1,1.67,1.57A8,8,0,0,1,222.53,71.54Zm-.1-24a14,14,0,0,1,1.76,1.57A5.9,5.9,0,0,1,223,50.57c-.57-.54-1.14-1-1.73-1.5C221.64,48.54,222,48,222.43,47.57Zm.5,6.33a1.67,1.67,0,0,0-1.67,1.29c0,.73,1.4,1.27,2.78,1.27a8,8,0,0,0,1.2-.06C224.71,54.76,223.92,53.9,222.93,53.9Z"/><path class="cls-1" d="M245.09,48.51c.12,3.62.2,6.8.2,10.3a2.62,2.62,0,0,0,.74,1.87,2.34,2.34,0,0,0,1.43.41h.16V63h-.28a2.46,2.46,0,0,1-2.29-1.1H245a9.64,9.64,0,0,1-.52,2.18,5.21,5.21,0,0,1-1.68,1.66,5.61,5.61,0,0,1-3,.9,3.86,3.86,0,0,1-3-1.26,4.86,4.86,0,0,1-1-3.31,8.62,8.62,0,0,1,1-3.69l.52.21a6.52,6.52,0,0,0-.61,2.55,3.53,3.53,0,0,0,.75,2.27,3,3,0,0,0,2.53,1.18,5,5,0,0,0,2.53-.68,3.86,3.86,0,0,0,1.6-1.4,3.26,3.26,0,0,0,.1-1c0-2.29-.11-6.08-.44-11.79A10.15,10.15,0,0,1,245,48.44Z"/><path class="cls-1" d="M248,61.09c1.24,0,2.24-.41,2.41-1.29.12-.57.24-1.12.38-1.67a8.91,8.91,0,0,1,1-.76l.09.09a5.34,5.34,0,0,0-.24,1.38,1.74,1.74,0,0,0,.88,1.62,18.47,18.47,0,0,1,3-3.72A5.64,5.64,0,0,1,259,55.15a3,3,0,0,1,2.72,1.61,3.81,3.81,0,0,1,.37,1.71,4.29,4.29,0,0,1-3.33,4,11.63,11.63,0,0,1-3.65.46c-1.93,0-3.41-.44-4.21-1.54h0a3.46,3.46,0,0,1-3,1.54h-.18a.94.94,0,0,1-1-1,.91.91,0,0,1,1-.9Zm8,0a9.31,9.31,0,0,0,3.81-.83c.71-.34,1.2-.66,1.2-1.06A2.55,2.55,0,0,0,258.43,57c-1.72,0-3.7,1.59-5.23,3.8A9.21,9.21,0,0,0,255.94,61.09Z"/><path class="cls-1" d="M264.85,63.22a19,19,0,0,0,.16-2.93V58.85c0-2.68-.29-6.58-.53-9.11a12.63,12.63,0,0,1,1.44-1.55l.13,0c.31,3.19.38,6.9.38,10.31a24.1,24.1,0,0,1-.1,2.42A3.77,3.77,0,0,1,265,63.32Z"/><path class="cls-1" d="M277,61.09V63h-1.22a6.82,6.82,0,0,1-1.11,3,5.24,5.24,0,0,1-3.53,2.51A8.61,8.61,0,0,1,266.9,67l.25-.49a4.4,4.4,0,0,0,2.15.53,5.73,5.73,0,0,0,4.08-2,4.71,4.71,0,0,0,1.37-2H274c-3,0-4.51-.95-4.51-3a3.92,3.92,0,0,1,.75-2.35,2.84,2.84,0,0,1,2.26-1.41c1.34,0,2.73,1.89,3.14,4.89ZM273.65,59a2.16,2.16,0,0,0-1.55-.82c-.82,0-1.65.71-1.65,1.29,0,.75.68,1.19,1.59,1.45a10.16,10.16,0,0,0,2.64.22A4.52,4.52,0,0,0,273.65,59Z"/><path class="cls-1" d="M277.3,61.09c1.13,0,2.3-.45,2.52-1.29l.43-1.58,1-.73.08.1a8.21,8.21,0,0,0-.32,1.7,1.47,1.47,0,0,0,.48,1.22,2.76,2.76,0,0,0,1.82.58h.27V63h-.34c-1.44,0-2.52-.4-3-1.5h-.06a3.15,3.15,0,0,1-2.91,1.5H277a.94.94,0,0,1-1-1,.92.92,0,0,1,1-.9Zm1.61-5.55c-.6-.57-1.13-1-1.71-1.52a12.34,12.34,0,0,1,1.16-1.39A14.13,14.13,0,0,1,280,54.19,7.64,7.64,0,0,1,278.91,55.54Zm2.83-.19c-.6-.57-1.13-1-1.71-1.52a13.5,13.5,0,0,1,1.15-1.39A13.4,13.4,0,0,1,282.85,54,7.62,7.62,0,0,1,281.74,55.35Z"/><path class="cls-1" d="M283.91,61.09a3.35,3.35,0,0,0,1.64-.39,1.68,1.68,0,0,0,.77-1.59c0-2.34-.19-4.9-.42-7.6-.06-.67-.15-1.29-.15-1.83a1.49,1.49,0,0,1,.44-1,7.71,7.71,0,0,1,.81-.81l.1.08a6.61,6.61,0,0,0,1.19,3.35,8.42,8.42,0,0,1-.93.75c.06,1.68.19,3.46.19,5.08a8.79,8.79,0,0,1-.58,3.68,3,3,0,0,1-1.33,1.7,4.28,4.28,0,0,1-1.84.44h-.21a.94.94,0,0,1-1-1,.91.91,0,0,1,1-.9Z"/><path class="cls-1" d="M290.82,63.22a19,19,0,0,0,.16-2.93V58.85c0-2.68-.29-6.58-.52-9.11a13.4,13.4,0,0,1,1.43-1.55l.13,0c.31,3.19.38,6.9.38,10.31a24.1,24.1,0,0,1-.1,2.42A3.77,3.77,0,0,1,291,63.32Z"/><path class="cls-1" d="M303.71,61.58c-1.54,0-2.66-.55-2.66-1.72a4.37,4.37,0,0,1,.46-1.71c.59-1.28,2.17-2.64,4.69-4l-.09-1.1a14.74,14.74,0,0,1,1.16-1.2h.16c.06,2.27.08,4.56.09,6.83a2.64,2.64,0,0,0,.56,2.06,2.38,2.38,0,0,0,1.54.38H310V63h-.33a2.73,2.73,0,0,1-3-2A6.92,6.92,0,0,1,303.71,61.58Zm2.59-5.83c-2.6,1.34-4,2.43-4,3.2,0,.57.87.82,1.87.82a7,7,0,0,0,2.17-.41Zm-1.72-5.19c-.6-.57-1.13-1-1.72-1.52A12.34,12.34,0,0,1,304,47.65a13.4,13.4,0,0,1,1.67,1.56A7.62,7.62,0,0,1,304.58,50.56Zm2.82-.19c-.6-.57-1.12-1-1.71-1.52a13.49,13.49,0,0,1,1.16-1.4A14.3,14.3,0,0,1,308.52,49,7.64,7.64,0,0,1,307.4,50.37Z"/><path class="cls-1" d="M310.29,61.09c1.13,0,2.3-.45,2.52-1.29l.42-1.58,1-.73.09.1a8.21,8.21,0,0,0-.32,1.7,1.47,1.47,0,0,0,.48,1.22,2.74,2.74,0,0,0,1.82.58h.26V63h-.33c-1.44,0-2.52-.4-3-1.5h-.06a3.16,3.16,0,0,1-2.91,1.5H310a.94.94,0,0,1-1-1,.92.92,0,0,1,1-.9Zm1.65,7.72c-.6-.57-1.12-1-1.71-1.52a12.34,12.34,0,0,1,1.16-1.39,14.19,14.19,0,0,1,1.67,1.56A7.64,7.64,0,0,1,311.94,68.81Zm2.83-.19c-.6-.57-1.13-1-1.71-1.52a13.5,13.5,0,0,1,1.15-1.39,13.45,13.45,0,0,1,1.67,1.56A7.62,7.62,0,0,1,314.77,68.62Z"/><path class="cls-1" d="M325.3,58.38a13.74,13.74,0,0,0-4.6-1,2.35,2.35,0,0,0-1.86.73l.18.73-.44,1.32h-.15l-.71-1.93a2.89,2.89,0,0,1,3.17-2.64,14.24,14.24,0,0,1,4.81,1.26,6.87,6.87,0,0,0,2.5.48h1.28l0,0-.91,1.51a4.71,4.71,0,0,0-2.48.56L323.68,61a11.43,11.43,0,0,1-6.43,2h-.68a.94.94,0,0,1-1-1,.91.91,0,0,1,1-.9h.9c2.37,0,4.8-.83,7.82-2.65Zm-3.37,6.77a12.72,12.72,0,0,1,1.76,1.57,6.05,6.05,0,0,1-1.21,1.43c-.57-.54-1.15-1-1.73-1.51C321.14,66.12,321.54,65.6,321.93,65.15Zm5-5.77H327c.06,1.25,1.08,1.7,2.59,1.7h.4V63h-.46c-1.89,0-3.15-.66-3.15-2.42a7.52,7.52,0,0,1,.05-.82Z"/><path class="cls-1" d="M330.3,61.09c1.13,0,2.3-.45,2.52-1.29l.42-1.58,1-.73.09.1a8.21,8.21,0,0,0-.32,1.7,1.47,1.47,0,0,0,.48,1.22,2.74,2.74,0,0,0,1.82.58h.26V63h-.33c-1.44,0-2.52-.4-3-1.5h-.06a3.17,3.17,0,0,1-2.92,1.5H330a.94.94,0,0,1-1-1,.92.92,0,0,1,1-.9ZM332,68.81c-.6-.57-1.12-1-1.71-1.52a12.34,12.34,0,0,1,1.16-1.39,14.19,14.19,0,0,1,1.67,1.56A7.64,7.64,0,0,1,332,68.81Zm2.83-.19c-.6-.57-1.13-1-1.71-1.52a13.5,13.5,0,0,1,1.15-1.39,13.45,13.45,0,0,1,1.67,1.56A7.62,7.62,0,0,1,334.78,68.62Z"/><path class="cls-1" d="M336.83,61.09a9.32,9.32,0,0,0,2.89-.28c.51-.19.83-.39.83-.64a12.22,12.22,0,0,0-1.46-3.62,11,11,0,0,1,1.1-1.65h.07a10.32,10.32,0,0,1,1.46,4.46,4.38,4.38,0,0,1-1,2.73c-.66.66-1.7.88-3.94.88h-.18a.94.94,0,0,1-1-1,.91.91,0,0,1,1-.9Zm1.1-7.45c-.6-.58-1.13-1-1.71-1.53a14.67,14.67,0,0,1,1.15-1.39A13.5,13.5,0,0,1,339,52.29,8,8,0,0,1,337.93,53.64Zm2.83-.19c-.6-.58-1.13-1-1.72-1.53a14.67,14.67,0,0,1,1.16-1.39,13.5,13.5,0,0,1,1.67,1.57A8.43,8.43,0,0,1,340.76,53.45Z"/><path class="cls-1" d="M344.65,63.22a19,19,0,0,0,.17-2.93V58.85c0-2.68-.3-6.58-.53-9.11a13.4,13.4,0,0,1,1.43-1.55l.14,0c.3,3.19.38,6.9.38,10.31a21.21,21.21,0,0,1-.11,2.42,3.77,3.77,0,0,1-1.29,2.36Z"/><path class="cls-1" d="M356.26,56c.05.32.17,1,.39,2.29a3.81,3.81,0,0,0,1.25,2.53,2.41,2.41,0,0,0,1.18.32h.19V63H359c-1.74,0-2.48-.79-3.06-3.17l-.37-1.49h-.07a2.41,2.41,0,0,1-2.17,1.57,8.07,8.07,0,0,1,.21,2c0,.17,0,.35,0,.76a5.2,5.2,0,0,1-.84,2c-1,1.45-2.12,2.23-2.88,2.23A8.41,8.41,0,0,1,346,65.69l.21-.47a3.35,3.35,0,0,0,1.37.37,5.23,5.23,0,0,0,4-2.08,4,4,0,0,0,1.18-2.07A7.65,7.65,0,0,0,350.92,59l.49-1.87h.13c.38.35.76.69,1.07.92a2.06,2.06,0,0,0,1.23.32,1.72,1.72,0,0,0,1-.39,8.22,8.22,0,0,0,1.23-2Zm-1.79-1.58c-.6-.57-1.13-1-1.72-1.52a15.14,15.14,0,0,1,1.16-1.4A14.3,14.3,0,0,1,355.58,53,7.62,7.62,0,0,1,354.47,54.37Zm2.83-.19c-.6-.57-1.13-1-1.72-1.53a13.31,13.31,0,0,1,1.16-1.39,14.3,14.3,0,0,1,1.67,1.57A7.62,7.62,0,0,1,357.3,54.18Z"/><path class="cls-1" d="M371.08,56.7a16.38,16.38,0,0,1,.23,2.61,5,5,0,0,1-.52,2,2.82,2.82,0,0,1-2.17,1.61,2.49,2.49,0,0,1-1.83-1.21h-.12A3.42,3.42,0,0,1,364.11,63a1.26,1.26,0,0,1-1.41-1.25h-.06A3.92,3.92,0,0,1,359.52,63h-.25a.94.94,0,0,1-1-1,.91.91,0,0,1,1-.9h.5a3.46,3.46,0,0,0,3.09-1.36l.81-1.16,1.13-.39.05.07a5.56,5.56,0,0,0-1,2.11.7.7,0,0,0,.76.73,2.28,2.28,0,0,0,1.3-.42c.52-.38.59-.81,1-2.33l.88-.51.09.05a6.34,6.34,0,0,0-.19,1.44A1.58,1.58,0,0,0,369.26,61c.41,0,.78-.22.78-.65a13.4,13.4,0,0,0-.37-2.38A11.75,11.75,0,0,1,371,56.65Z"/><path class="cls-1" d="M374.14,63.22a19,19,0,0,0,.16-2.93V58.85c0-2.68-.29-6.58-.52-9.11a13.4,13.4,0,0,1,1.43-1.55l.13,0c.31,3.19.38,6.9.38,10.31a24.1,24.1,0,0,1-.1,2.42,3.77,3.77,0,0,1-1.29,2.36Z"/><path class="cls-1" d="M389.36,58.76h-5.1l.3-1.23h5.12Z"/><path class="cls-1" d="M98.86,104.15c-.55-1.76-1.2-2.46-1.84-2.46-1.84,0-4.24,2.36-4.24,3,0,1.48,4.26,1.27,5.72,2.09a2.84,2.84,0,0,1,1.43,2.73,9.09,9.09,0,0,1-1,3.64,10.44,10.44,0,0,1-3.12,2.63,10.75,10.75,0,0,1-5.45,1.64c-3.07,0-6.56-2.07-6.56-7.5a13.2,13.2,0,0,1,1.13-5.52l1.13.33a8.54,8.54,0,0,0-.54,3.3c0,2.89,1.87,5.37,5.09,5.37a11.06,11.06,0,0,0,4.3-1,9.89,9.89,0,0,0,3-1.83c0-.3-1.54-.57-3.36-.84-2.5-.37-3.57-1.57-3.57-3.4A7.85,7.85,0,0,1,93.15,101c1.62-1.76,3.38-2.93,5-2.93s2.21,2,2.21,3.1a7.45,7.45,0,0,1-1,3Zm-10.1,14.9a21.25,21.25,0,0,1,2.69,2.44,15.77,15.77,0,0,1-1.85,2.37,33.33,33.33,0,0,0-2.76-2.4Zm4.61-.31a19.84,19.84,0,0,1,2.69,2.44,15.77,15.77,0,0,1-1.85,2.37,35.49,35.49,0,0,0-2.76-2.41Z"/><path class="cls-1" d="M116.88,111h-.27a4,4,0,0,1-4.22-3.28h-.06a3.5,3.5,0,0,1-1.07,1.89,6.51,6.51,0,0,1-4.2,1.39c-2,0-3.46-1.21-3.46-4.55,0-.39,0-1,0-1.66l1.27-.12a2.25,2.25,0,0,0,2.48,2.42,7.09,7.09,0,0,0,2.87-.68c.72-.32,1.23-.69,1.23-1.29a31.12,31.12,0,0,0-1.68-6.53,24.51,24.51,0,0,1,1.8-2.67l.33.1c.49,1.77,1,4,1.68,7.83.39,2.23,1.43,3.24,3,3.24h.27Z"/><path class="cls-1" d="M125.28,111H125a4.13,4.13,0,0,1-4.08-2.19h-.08a4.11,4.11,0,0,1-3.69,2.19h-.28c-.94,0-1.36-1-1.36-2s.42-2,1.36-2h.43c2,0,2.87-1,2.87-2.62,0-3.51-.21-7.89-.58-11.56a27.1,27.1,0,0,1,2.2-2l.26.12a82.86,82.86,0,0,1,.33,8.75c0,2,0,3.79,0,4.68,0,1.86.49,2.66,2.54,2.66h.39Z"/><path class="cls-1" d="M134.42,111h-.25c-1.78,0-3.44-.35-4.48-2.13h-.05a4.92,4.92,0,0,1-4.09,2.13h-.27c-.94,0-1.37-1-1.37-2s.43-2,1.37-2h.27a4.64,4.64,0,0,0,2.66-.66c1.07-.67,1.17-1.92,1.6-2.82.45-.31,1-.66,1.56-1l.14.12a7.79,7.79,0,0,0-.37,1.79,2.11,2.11,0,0,0,1,2,3.83,3.83,0,0,0,2.09.57h.23Zm-5.29,3.34a20.34,20.34,0,0,1,2.79,2.28,6.68,6.68,0,0,1-1.76,2.4,33.49,33.49,0,0,0-2.83-2.16Z"/><path class="cls-1" d="M139.44,91c0,1.28.74,2.87,2.15,5.21l-1.74,1.33c.08,1.5.12,3.34.12,5.25a12.7,12.7,0,0,1-.72,4.32,9.61,9.61,0,0,1-1,2.07,4.12,4.12,0,0,1-3.58,1.76h-.27c-.94,0-1.37-1-1.37-2s.43-2,1.37-2h.27a3.87,3.87,0,0,0,2.78-.8c.33-.33.33-.88.33-1.93,0-4.87-.64-9.2-.64-10.18a2.89,2.89,0,0,1,.52-1.82,8,8,0,0,1,1.53-1.46Z"/><path class="cls-1" d="M144.3,111.2a32.57,32.57,0,0,0,.26-4.71,115.68,115.68,0,0,0-.67-12.69c.79-.94,1.53-1.76,2.27-2.48l.33.17c.39,4.22.45,8.17.45,12,0,3.06-.17,5.11-.6,5.78a13.72,13.72,0,0,1-1.61,2.28Z"/><path class="cls-1" d="M169.79,115.11a7.65,7.65,0,0,1-5.93,2.79c-4,0-6-3.05-6-6.6a11.07,11.07,0,0,1,1.62-5.68l1,.52a8.46,8.46,0,0,0-.91,3.25,4.07,4.07,0,0,0,1.38,3.43,5.24,5.24,0,0,0,3.26,1.12,6.61,6.61,0,0,0,3.81-1.23c.92-.63,1.6-1.27,1.72-1.92a10.89,10.89,0,0,0-2.13-5,30.78,30.78,0,0,1,1.86-3.22l.21,0c.49,1,.94,2.09,1.39,3.22.33.78.57,1.23,1.46,1.23a2.18,2.18,0,0,0,1.53-.74,6.94,6.94,0,0,0,1.17-2.5c.57-.33,1.15-.67,1.76-1l.13.14a16.78,16.78,0,0,0-.78,2.83,1.37,1.37,0,0,0,.2.84,1,1,0,0,0,.82.39,2.46,2.46,0,0,0,2-1,8.9,8.9,0,0,0,1.17-2.88l1.47-.89.19.13a10.5,10.5,0,0,0-.52,2.42c0,.92.21,1.37.72,1.68a4.8,4.8,0,0,0,2.48.55h.27V111h-.27c-2,0-4-.55-4.41-1.88h-.06a4.76,4.76,0,0,1-3.3,1.88,2.38,2.38,0,0,1-2.35-1.6h-.08a4,4,0,0,1-3.41,1.69A8.68,8.68,0,0,1,169.79,115.11Z"/><path class="cls-1" d="M193.6,111h-.27a4.14,4.14,0,0,1-4.08-2.19h-.08a4.11,4.11,0,0,1-3.69,2.19h-.28c-.93,0-1.36-1-1.36-2s.43-2,1.36-2h.43c2,0,2.87-1,2.87-2.62,0-3.51-.21-7.89-.58-11.56a27.1,27.1,0,0,1,2.2-2l.26.12a82.86,82.86,0,0,1,.33,8.75c0,2,0,3.79,0,4.68,0,1.86.49,2.66,2.54,2.66h.39Z"/><path class="cls-1" d="M203.76,104.4a16.8,16.8,0,0,0-5-1,3,3,0,0,0-1.62.35l-.9,2h-.39l-1.27-2.48a4.06,4.06,0,0,1,4.25-3.49,16.68,16.68,0,0,1,5.41,1.34,12.57,12.57,0,0,0,4.83.92h1.44l0,.16a23.17,23.17,0,0,1-1.62,2.71,4.47,4.47,0,0,0-3.36,1.17c-3.45,3.13-6,4.87-11.74,4.87h-.27c-.94,0-1.37-1-1.37-2s.43-2,1.37-2h.27c4.15,0,6.8-.6,9.89-2.56Zm-3.07,8.7a19.75,19.75,0,0,1,2.79,2.28,6.78,6.78,0,0,1-1.75,2.4,33.74,33.74,0,0,0-2.84-2.16Zm6.76-7.7.1.1c.13,1.46,1.7,1.56,3.39,1.56h.28V111h-.28c-1.87,0-3-.28-3.57-.8a3.69,3.69,0,0,1-1-2.76c0-.39,0-.76,0-1.15Z"/><path class="cls-1" d="M215.73,109.52a6.4,6.4,0,0,1-4.24,1.45h-.27c-.94,0-1.37-1-1.37-2s.43-2,1.37-2h.27a8.88,8.88,0,0,0,4.12-.78c-.17-3.09-.31-6.15-.45-9.24,0-.92-.27-2.11-.27-2.89a2.89,2.89,0,0,1,.53-1.82,8.25,8.25,0,0,1,1.52-1.46l.24.16c0,1.28.74,2.87,2.14,5.21l-1.77,1.35c0,4.08.09,6,.21,7.5a6.29,6.29,0,0,1,2.23-.47c2,0,3.75,1.56,3.75,4.49,0,1.72-1.12,4.61-4,4.61-1.77,0-3.4-1.41-4-4.2Zm5.37,1.13a1.08,1.08,0,0,0,.84-.31,2.7,2.7,0,0,0-2.66-2.58,4.06,4.06,0,0,0-1.36.26A3.54,3.54,0,0,0,221.1,110.65Z"/><path class="cls-1" d="M227,111.2a34.22,34.22,0,0,0,.25-4.71,115.65,115.65,0,0,0-.66-12.69,29.78,29.78,0,0,1,2.27-2.48l.33.17c.39,4.22.45,8.17.45,12,0,3.06-.18,5.11-.61,5.78a14.24,14.24,0,0,1-1.6,2.28Z"/><path class="cls-1" d="M256.94,111h-.27a3.61,3.61,0,0,1-3-1.35h-.08a8.62,8.62,0,0,1-.84,2.95,7.82,7.82,0,0,1-6.21,3.2c-4.28,0-5.7-3.28-5.7-6.15a12.62,12.62,0,0,1,1.52-5.92l1.08.47a9.25,9.25,0,0,0-.84,3.3,4,4,0,0,0,4.23,4.36,7.09,7.09,0,0,0,5.06-2.41c0-.91.06-1.79.06-2.59,0-3.17-.31-8.56-.58-13.19a16.85,16.85,0,0,1,2.07-2.07l.31.16c.13,3,.23,6.93.25,11.82a4.11,4.11,0,0,0,.7,2.69,2.58,2.58,0,0,0,2,.82h.27Z"/><path class="cls-1" d="M266.08,111h-.25c-1.78,0-3.44-.35-4.47-2.13h-.06a4.92,4.92,0,0,1-4.09,2.13h-.27c-.94,0-1.37-1-1.37-2s.43-2,1.37-2h.27a4.64,4.64,0,0,0,2.66-.66c1.07-.67,1.17-1.92,1.6-2.82.45-.31,1-.66,1.56-1l.14.12a7.79,7.79,0,0,0-.37,1.79,2.11,2.11,0,0,0,1,2,3.83,3.83,0,0,0,2.09.57h.23Zm-7-14.3a15.84,15.84,0,0,1,2.23,2.42,8.81,8.81,0,0,1-1.92,2c-.74-.8-1.5-1.56-2.28-2.32Zm1.64-4.22a15.84,15.84,0,0,1,2.23,2.42,8.85,8.85,0,0,1-1.92,2c-.74-.81-1.5-1.57-2.28-2.33Zm2.48,4a16.36,16.36,0,0,1,2.23,2.43,8.8,8.8,0,0,1-1.92,2c-.74-.8-1.5-1.56-2.28-2.33Z"/><path class="cls-1" d="M277.59,109.37c-.47,1.54-1.2,2.4-2.31,2.4-1.44,0-3.71-1.13-5.35-3h-.08a3.58,3.58,0,0,1-3.49,2.19h-.28c-.94,0-1.37-1-1.37-2s.43-2,1.37-2h.28c2.67,0,3-1.09,3.65-3.08a5.8,5.8,0,0,1,1.48-2.52,3.33,3.33,0,0,1,2.25-1c2.28,0,3.16,2.6,4.35,5.1a2.91,2.91,0,0,0,2.87,1.52h.28V111H281a3.72,3.72,0,0,1-3.34-1.6Zm-1.74-1.53c.29,0,.45-.13.45-.41,0-1-1.37-3.75-3.07-3.75a2.26,2.26,0,0,0-2,1.27C272,106.57,274.58,107.84,275.85,107.84Z"/><path class="cls-1" d="M284.69,108.66a3.27,3.27,0,0,1-3.22,2.31h-.25c-.9,0-1.35-.94-1.35-2s.43-2,1.37-2h.27a3.13,3.13,0,0,0,1.68-.51c1.52-1,1.17-3.69,3.09-5.47a3.77,3.77,0,0,1,2.58-1.15c3.26,0,4.35,5,4.35,7.15,0,.27-.7,3.71-3.3,3.71a8.94,8.94,0,0,1-5.16-2.13Zm5.79-1.6c.37,0,.6-.06.6-.17-.41-2.19-1.58-3.6-2.89-3.6a2.54,2.54,0,0,0-2.28,1.68A7,7,0,0,0,290.48,107.06Z"/><path class="cls-1" d="M305,112.26h-2L309.4,92h2Z"/><path class="cls-1" d="M325.46,109.48c-2,0-3.77-.68-3.77-2.77a7,7,0,0,1,.8-3c1.05-2.26,3.22-3.87,5.72-5.27l-.06-1c.63-.62,1.27-1.23,1.94-1.81l.31.09c.1,1.94.12,4.26.12,7.23,0,1.64,0,2.89.58,3.48a2.85,2.85,0,0,0,2.23.68h.27V111h-.27c-2.4,0-3.46-.45-4.3-2.21A10.1,10.1,0,0,1,325.46,109.48Zm.17-19.24a16.36,16.36,0,0,1,2.23,2.43,8.8,8.8,0,0,1-1.92,2c-.74-.8-1.5-1.56-2.28-2.33Zm2.87,11.24c-2.77,1.28-4.55,2.67-4.55,3.47s.94.92,2,.92a8.64,8.64,0,0,0,2.62-.41C328.58,103.92,328.54,102.55,328.5,101.48Zm1.25-11.41A15.84,15.84,0,0,1,332,92.49a8.76,8.76,0,0,1-1.91,2c-.75-.8-1.51-1.56-2.29-2.32Z"/><path class="cls-1" d="M338.62,91c0,1.28.74,2.87,2.15,5.21L339,97.57c.08,1.5.12,3.34.12,5.25a12.7,12.7,0,0,1-.72,4.32,9.61,9.61,0,0,1-1,2.07,4.12,4.12,0,0,1-3.58,1.76h-.27c-.94,0-1.37-1-1.37-2s.43-2,1.37-2h.27a3.87,3.87,0,0,0,2.78-.8c.33-.33.33-.88.33-1.93,0-4.87-.64-9.2-.64-10.18a2.89,2.89,0,0,1,.52-1.82,8,8,0,0,1,1.53-1.46Z"/><path class="cls-1" d="M348.74,111h-.33c-2.66,0-4.57-1.35-4.63-5.16,0-2.23-.2-8-.71-12.77a30.4,30.4,0,0,1,2.25-2.17l.27.14a80.71,80.71,0,0,1,.35,8.75c0,2,0,3.08,0,4.68,0,2,.78,2.62,2.55,2.62h.28Z"/><path class="cls-1" d="M356.55,107.06V111h-7.81c-.94,0-1.37-1-1.37-2s.43-2,1.37-2Z"/><path class="cls-1" d="M372.57,101.08a22.91,22.91,0,0,1,.45,4.46,7,7,0,0,1-1.16,3.42c-.88,1.21-1.79,2-2.85,2a3.41,3.41,0,0,1-2.73-1.66h0A4.84,4.84,0,0,1,363,111a1.89,1.89,0,0,1-2.09-1.55h-.06a5.55,5.55,0,0,1-4.05,1.55h-.27c-.94,0-1.37-1-1.37-2s.43-2,1.37-2h.27a5.17,5.17,0,0,0,3.68-1,15.72,15.72,0,0,0,1.52-2,13.54,13.54,0,0,1,1.76-.74l.13.22a6.18,6.18,0,0,0-1.21,2.61.87.87,0,0,0,.9.94,3.23,3.23,0,0,0,1.33-.37c1.25-.63,1.33-1.76,1.64-3a14.93,14.93,0,0,1,1.46-.92l.18.14a6,6,0,0,0-.31,1.87,2.14,2.14,0,0,0,.56,1.55,2,2,0,0,0,1.45.64c.45,0,.82-.11,1-.37a26.77,26.77,0,0,0-.73-3.38c.69-.76,1.37-1.52,2.15-2.28Z"/><path class="cls-1" d="M383.84,111h-.34a6.44,6.44,0,0,1-2-.37A7.78,7.78,0,0,1,380.2,115c-1.07,1.7-2.34,2.83-3.94,2.83a9.61,9.61,0,0,1-5.2-1.93l.43-1a5.31,5.31,0,0,0,1.76.33,6.12,6.12,0,0,0,4.26-1.79,7.08,7.08,0,0,0,2.28-3.73,18.61,18.61,0,0,1-2.17-3.62,28.94,28.94,0,0,1,1.39-2.89h.29c1,2.27,2.07,3.83,4.26,3.83h.28Z"/><path class="cls-1" d="M388.86,91c0,1.28.74,2.87,2.14,5.21l-1.73,1.33c.07,1.5.11,3.34.11,5.25a12.7,12.7,0,0,1-.72,4.32,9.16,9.16,0,0,1-1,2.07,4.1,4.1,0,0,1-3.57,1.76h-.27c-.94,0-1.37-1-1.37-2s.43-2,1.37-2h.27a3.83,3.83,0,0,0,2.77-.8c.33-.33.33-.88.33-1.93,0-4.87-.64-9.2-.64-10.18a2.89,2.89,0,0,1,.53-1.82,8.25,8.25,0,0,1,1.52-1.46Z"/><path class="cls-1" d="M393.72,111.2a34.22,34.22,0,0,0,.25-4.71,115.65,115.65,0,0,0-.66-12.69,31.6,31.6,0,0,1,2.26-2.48l.34.17c.39,4.22.45,8.17.45,12,0,3.06-.18,5.11-.61,5.78a14.24,14.24,0,0,1-1.6,2.28Z"/><path class="cls-2" d="M170.58,277.74c-4.44,34.05,7.14,69-53,129.08a69.31,69.31,0,1,0,71.73,103c25.28-43.72-13.36-76.17,50.14-143.59-21.76-18.18-44.74-22.56-59.81-48.69a65.63,65.63,0,0,1-9.11-39.78Z"/><path class="cls-3" d="M406.83,434.41C379.77,396,331.64,407.47,304.72,306.87a69.31,69.31,0,1,0-125,10.65C205,361.29,252.41,344,279,433c26.38-9.79,41.65-27.1,71.66-27.27a67.87,67.87,0,0,1,56.14,28.67Z"/><path class="cls-4" d="M150.6,541.12C187,530,208.13,495.4,297.37,519.36a69.32,69.32,0,1,0,53.32-113.62c-50.44,0-59.24,49.55-149.13,28.41-4.72,27.72,2.78,49.67-12.2,75.65a67,67,0,0,1-38.76,31.32Z"/><path class="cls-5" d="M176.27,448a55.59,55.59,0,1,0-20.36,75.94A55.68,55.68,0,0,0,176.27,448Z"/><path class="cls-6" d="M288.12,254.94a55.61,55.61,0,1,0-20.35,76,55.73,55.73,0,0,0,20.35-76Z"/><path class="cls-7" d="M400.47,447.7a55.61,55.61,0,1,0-20.39,76,55.75,55.75,0,0,0,20.39-76Z"/><path class="cls-8" d="M221.39,274.62a12.4,12.4,0,0,1,1.86,4.92,8.28,8.28,0,0,1-1.46,4.34,21.48,21.48,0,0,1-9.54,2.16,11.17,11.17,0,0,1-6.19-1.46,5.43,5.43,0,0,1-2.53-4.87,11.08,11.08,0,0,1,1.05-4.66l1.07.37a7.4,7.4,0,0,0-.4,2.11c0,2.68,2.23,4.85,7.84,4.85a25.85,25.85,0,0,0,8.14-1.38,27.07,27.07,0,0,0-1.74-3.62,30.54,30.54,0,0,1,1.7-2.75Zm-8.56,13.69a17.62,17.62,0,0,1,2.9,2.28,12.54,12.54,0,0,1-1.8,2.53,28.06,28.06,0,0,0-2.9-2.24Z"/><path class="cls-8" d="M236,281.77v3.52h-1.32c-.73,3.18-2.95,6.41-5.69,6.41a9.46,9.46,0,0,1-5.17-1.95l.4-.93a5.38,5.38,0,0,0,2.15.49,7.34,7.34,0,0,0,4.39-1.81,6.8,6.8,0,0,0,2-2.21h-.49c-3.36,0-5.59-1.08-5.59-4.24a5.26,5.26,0,0,1,1.34-3.5,3.74,3.74,0,0,1,2.81-1.56c2,0,3.23,2.12,3.94,5.78Zm-6-2.92a1.71,1.71,0,0,0-1.78,1.28c0,1,1.79,1.69,4.1,1.69a4.83,4.83,0,0,0,.68-.05C232.39,280,231.39,278.85,230,278.85Z"/><path class="cls-8" d="M243.57,285.29h-.25a3.73,3.73,0,0,1-3.67-2h-.07a3.72,3.72,0,0,1-3.32,2H236c-.84,0-1.23-.92-1.23-1.76s.39-1.76,1.23-1.76h.39c1.79,0,2.58-.86,2.58-2.36,0-3.16-.19-7.1-.52-10.4a22.12,22.12,0,0,1,2-1.83l.23.11a74.25,74.25,0,0,1,.3,7.87c0,1.85,0,3.41,0,4.22,0,1.67.44,2.39,2.29,2.39h.35Z"/><path class="cls-8" d="M247.65,279c2-2.09,4.15-3.82,6.38-3.82a4.21,4.21,0,0,1,3.66,1.81,4.62,4.62,0,0,1,.84,2.67,5,5,0,0,1-.55,2.15h2.11v3.52h-.24a45.53,45.53,0,0,1-6.28-.46,72.71,72.71,0,0,1-9.75.46h-.25c-.84,0-1.23-.92-1.23-1.76s.39-1.76,1.23-1.76h1.56l.81-1a15.83,15.83,0,0,0,.21-2.78,62.57,62.57,0,0,0-.52-9c0-1.33.58-1.93,1.74-2.93l.26.16c0,1.26.81,2.84,1.92,4.71L248,272.1c.05,1.18.05,2.36.05,3.83a8.49,8.49,0,0,1-.51,3Zm7.86,2.21c.56-.19,1-.4,1-.61a3.4,3.4,0,0,0-3.33-2.22c-1.86,0-3.92,1.37-6,3.43C250.88,281.77,254,281.65,255.51,281.17Z"/><path class="cls-8" d="M264.15,284a5.71,5.71,0,0,1-3.81,1.31h-.25c-.84,0-1.23-.92-1.23-1.76s.39-1.76,1.23-1.76h.25a8.15,8.15,0,0,0,3.71-.7c-.16-2.78-.28-5.54-.41-8.32,0-.82-.24-1.9-.24-2.6a2.58,2.58,0,0,1,.47-1.63,7,7,0,0,1,1.37-1.32l.22.14c0,1.16.66,2.58,1.93,4.69l-1.6,1.21c0,3.68.09,5.4.19,6.75a5.66,5.66,0,0,1,2-.42c1.77,0,3.37,1.41,3.37,4.05,0,1.54-1,4.14-3.55,4.14-1.6,0-3.06-1.26-3.6-3.78Zm4.84,1a1,1,0,0,0,.75-.28,2.43,2.43,0,0,0-2.39-2.32,3.85,3.85,0,0,0-1.23.23A3.19,3.19,0,0,0,269,285Z"/><path class="cls-8" d="M274.3,285.5a30.9,30.9,0,0,0,.23-4.24,104.85,104.85,0,0,0-.6-11.43,28.67,28.67,0,0,1,2-2.23l.3.16c.35,3.8.4,7.35.4,10.76,0,2.76-.16,4.6-.54,5.2a12.82,12.82,0,0,1-1.45,2.06Z"/><path class="cls-8" d="M107.7,454.9a44.94,44.94,0,0,1,4.89,5.54,2.86,2.86,0,0,0,2.41,1.37h.24v3.51H115a3.37,3.37,0,0,1-3-1.26H112a3,3,0,0,1-2.79,2.65c-2.18,0-4.47-2.42-4.66-5.54h0c-.83.85-1.27,1.32-1.27,2.17,0,2,2.82,9,2.82,10.58a13.71,13.71,0,0,1-.5,3.18h-.44c-.81-4.18-3.79-9.33-3.79-13,0-2.49.63-3.77,1.7-4.86,1.46-1.48,3.66-3.22,4.45-4.38ZM106.35,460a3.41,3.41,0,0,0,3.23,3.14c.65,0,1.07-.24,1.07-.49,0-.72-1.17-2.16-3.25-4.08C106.77,459.05,106.35,459.5,106.35,460Z"/><path class="cls-8" d="M119.71,454.83a11.31,11.31,0,0,1,1.77,4.9,7.26,7.26,0,0,1-.72,3.2,3.72,3.72,0,0,1-1.72,1.79,8.61,8.61,0,0,1-3.55.6h-.25c-.84,0-1.23-.91-1.23-1.76s.39-1.75,1.23-1.75h.39c2,0,3.83-.41,3.83-.69a15.91,15.91,0,0,0-1.72-3.58,26.28,26.28,0,0,1,1.79-2.75Zm-2.87,13.53a13.66,13.66,0,0,1,2,2.18,7.69,7.69,0,0,1-1.72,1.8c-.67-.72-1.35-1.41-2.05-2.1Zm3.71-.15a13.62,13.62,0,0,1,2,2.17,7.69,7.69,0,0,1-1.72,1.8c-.67-.72-1.35-1.41-2.06-2.09Z"/><path class="cls-8" d="M137.16,465.32h-.24a3.57,3.57,0,0,1-3.8-2.95h-.05a3.12,3.12,0,0,1-1,1.7,5.85,5.85,0,0,1-3.78,1.25c-1.85,0-3.11-1.09-3.11-4.09,0-.35,0-.86,0-1.5l1.15-.1a2,2,0,0,0,2.23,2.18,6.31,6.31,0,0,0,2.58-.62c.65-.28,1.11-.61,1.11-1.16a28,28,0,0,0-1.51-5.87,19.17,19.17,0,0,1,1.62-2.41l.29.09c.44,1.6.9,3.62,1.52,7.05.35,2,1.28,2.92,2.69,2.92h.24Z"/><path class="cls-8" d="M137.41,461.81a10.63,10.63,0,0,0,2.23-.21,9.39,9.39,0,0,1-.28-2.32,6.2,6.2,0,0,1,2-4.63,4.1,4.1,0,0,1,2.65-1.39,2.17,2.17,0,0,1,1.73,1.13,6.06,6.06,0,0,1,1,3.55,8.48,8.48,0,0,1-.91,3.64,20.41,20.41,0,0,0,2.55.23h.24v3.51h-.24a14.94,14.94,0,0,1-6.1-1.09,10.76,10.76,0,0,1-4.92,1.09h-.25c-.84,0-1.23-.91-1.23-1.76s.39-1.75,1.23-1.75ZM141,448a14.15,14.15,0,0,1,2,2.18,7.65,7.65,0,0,1-1.72,1.79c-.67-.72-1.35-1.41-2.06-2.09Zm1.86,13c1.55-.46,2.5-1.32,2.5-1.9,0-.84-.88-2.51-2.06-2.51a3.55,3.55,0,0,0-2.79,2.32C140.73,459.84,141.57,460.52,142.89,461Zm1.85-13.15a14.15,14.15,0,0,1,2,2.18,8.08,8.08,0,0,1-1.72,1.79c-.67-.72-1.35-1.4-2.06-2.09Z"/><path class="cls-8" d="M153.14,454.83a11.36,11.36,0,0,1,1.78,4.9,7.28,7.28,0,0,1-.73,3.2,3.72,3.72,0,0,1-1.72,1.79,8.61,8.61,0,0,1-3.55.6h-.25c-.84,0-1.23-.91-1.23-1.76s.39-1.75,1.23-1.75h.39c2,0,3.83-.41,3.83-.69a15.91,15.91,0,0,0-1.72-3.58,28,28,0,0,1,1.79-2.75ZM149.92,450a14.24,14.24,0,0,1,2,2.18A8.12,8.12,0,0,1,150.2,454c-.66-.72-1.35-1.41-2-2.09Zm3.71-.16a14.24,14.24,0,0,1,2,2.18,7.91,7.91,0,0,1-1.73,1.79c-.66-.72-1.35-1.41-2-2.09Z"/><path class="cls-8" d="M101.48,486.85a4.58,4.58,0,0,0-2.45-.71c-1.77,0-3.53,1.2-3.53,1.57,0,.56.6,1.18,1.32,1.79a3.55,3.55,0,0,0,1.77.85c.48,0,2.4-1,5.68-2.24l.18.14c-.27,1.08-.55,2.17-.92,3.2C98,493.33,95,495.53,95,497.34c0,2.22,3,4.15,8.16,4.15a22.7,22.7,0,0,0,3.92-.33l.26.4a24.4,24.4,0,0,1-4.2,3.11,6.9,6.9,0,0,1-2.11.25c-4.34,0-7.77-2-7.77-6.44a8.9,8.9,0,0,1,2.5-5.83,4.48,4.48,0,0,1-2.25-3.55,6.2,6.2,0,0,1,.91-3,4.6,4.6,0,0,1,3.77-2.5c1.49,0,2.76.95,3.83,2.71Z"/><path class="cls-8" d="M114.57,495.18c-2.7,0-4.06-1.56-4.06-3.55a5.84,5.84,0,0,1,1.39-3.89,4.29,4.29,0,0,1,2.95-1.61c2,0,3.66,2.93,3.66,7.08a10.34,10.34,0,0,1-1.83,6.1c-1.53,2-2.86,2.65-4.11,2.65a9.63,9.63,0,0,1-5.24-2l.37-1a5.45,5.45,0,0,0,2,.4,7.4,7.4,0,0,0,4.34-1.63,8.42,8.42,0,0,0,2.53-2.85A7.74,7.74,0,0,1,114.57,495.18Zm-.54-6.12c-1.2,0-2,.69-2,1.27,0,.81,1.35,1.65,3.23,1.65a9,9,0,0,0,1.46-.1C116.33,490.29,115.1,489.06,114,489.06Z"/><path class="cls-8" d="M146.46,496.32h-.25c-1.82,0-3.27-.4-4-1.63h-.05a4.09,4.09,0,0,1-3,1.63,1.81,1.81,0,0,1-1.85-1.44h-.05a3.54,3.54,0,0,1-2.8,1.44c-1.68,0-2.54-1.11-2.77-3.16a25,25,0,0,0-3.38,1.21v.48c0,.49,0,1-.05,1.51a8.89,8.89,0,0,1,.05,1,6,6,0,0,1-1.35,3.7,4.87,4.87,0,0,1-3.59,2.23,8.63,8.63,0,0,1-4.78-1.92l.42-.88a6,6,0,0,0,2,.32,7.2,7.2,0,0,0,4.45-2.14,4.63,4.63,0,0,0,1.39-2.08c0-.37-.62-1-1.34-1.76l.76-3.11a39,39,0,0,1,6.94-2.16l.16.11a4,4,0,0,0-.2,1.26,1.78,1.78,0,0,0,1.81,1.85,2.19,2.19,0,0,0,1.67-.69,7.57,7.57,0,0,0,1-2.28c.51-.27,1-.5,1.5-.72l.17.22a8,8,0,0,0-.65,2.43c0,.61.19,1,.93,1a1.93,1.93,0,0,0,1.51-.72,6.76,6.76,0,0,0,1.16-2.69,16,16,0,0,1,1.45-.83l.15.12a9.19,9.19,0,0,0-.54,2.24c0,1.38,1.11,1.88,2.86,1.88h.25ZM136.53,483a14.33,14.33,0,0,1,2.11,2.07A7.56,7.56,0,0,1,137,486.9c-.7-.69-1.42-1.32-2.16-2Zm1.49-3.87a14.34,14.34,0,0,1,2.11,2.07,7,7,0,0,1-1.62,1.88c-.7-.68-1.42-1.32-2.16-2Zm2.36,3.69a16,16,0,0,1,2.11,2.07,7.39,7.39,0,0,1-1.62,1.88c-.7-.68-1.42-1.31-2.16-2Z"/><path class="cls-8" d="M150.52,495a5.78,5.78,0,0,1-3.81,1.3h-.25c-.84,0-1.23-.91-1.23-1.76s.39-1.75,1.23-1.75h.25a8,8,0,0,0,3.71-.71c-.16-2.77-.29-5.53-.41-8.31,0-.83-.25-1.9-.25-2.6a2.62,2.62,0,0,1,.48-1.64,7.26,7.26,0,0,1,1.37-1.32l.21.15c0,1.16.67,2.58,1.93,4.69l-1.59,1.21c0,3.68.08,5.4.19,6.75a5.61,5.61,0,0,1,2-.42c1.78,0,3.38,1.41,3.38,4,0,1.55-1,4.15-3.55,4.15-1.6,0-3.06-1.26-3.61-3.78Zm4.83,1a1,1,0,0,0,.76-.28,2.43,2.43,0,0,0-2.39-2.32,3.55,3.55,0,0,0-1.23.23A3.2,3.2,0,0,0,155.35,496Z"/><path class="cls-8" d="M160.66,496.53a29.25,29.25,0,0,0,.23-4.23,102.4,102.4,0,0,0-.6-11.43c.71-.84,1.38-1.58,2-2.23l.3.16c.35,3.79.41,7.34.41,10.75,0,2.76-.16,4.61-.55,5.21a12.24,12.24,0,0,1-1.44,2.05Z"/><path class="cls-8" d="M334.5,454.9a44.94,44.94,0,0,1,4.89,5.54,2.86,2.86,0,0,0,2.41,1.37H342v3.51h-.24a3.37,3.37,0,0,1-3-1.26h-.09a3,3,0,0,1-2.79,2.65c-2.18,0-4.47-2.42-4.66-5.54h-.05c-.83.85-1.27,1.32-1.27,2.17,0,2,2.82,9,2.82,10.58a13.63,13.63,0,0,1-.5,3.18h-.44c-.81-4.18-3.79-9.33-3.79-13,0-2.5.63-3.78,1.7-4.87,1.46-1.48,3.66-3.22,4.45-4.38ZM333.15,460a3.42,3.42,0,0,0,3.23,3.15c.65,0,1.07-.25,1.07-.5,0-.72-1.17-2.16-3.25-4.07C333.57,459.05,333.15,459.5,333.15,460Z"/><path class="cls-8" d="M346.51,454.83a11.31,11.31,0,0,1,1.77,4.9,7.26,7.26,0,0,1-.72,3.2,3.79,3.79,0,0,1-1.72,1.8,8.8,8.8,0,0,1-3.55.59H342c-.84,0-1.23-.91-1.23-1.75s.39-1.76,1.23-1.76h.39c2,0,3.83-.41,3.83-.69a15.91,15.91,0,0,0-1.72-3.58,24.76,24.76,0,0,1,1.79-2.75Zm-2.87,13.53a13.66,13.66,0,0,1,2,2.18,7.69,7.69,0,0,1-1.72,1.8c-.67-.72-1.35-1.41-2.05-2.09Zm3.71-.15a13.66,13.66,0,0,1,2,2.18,7.85,7.85,0,0,1-1.72,1.79c-.67-.72-1.35-1.41-2.06-2.09Z"/><path class="cls-8" d="M364,465.32h-.25a3.57,3.57,0,0,1-3.79-2.95h-.05a3.2,3.2,0,0,1-1,1.71,5.9,5.9,0,0,1-3.78,1.24c-1.85,0-3.11-1.09-3.11-4.09,0-.35,0-.86,0-1.5l1.15-.1a2,2,0,0,0,2.23,2.18,6.31,6.31,0,0,0,2.58-.62c.65-.28,1.11-.61,1.11-1.16a28,28,0,0,0-1.51-5.87,20.22,20.22,0,0,1,1.61-2.41l.3.09c.44,1.6.9,3.62,1.52,7.05.35,2,1.28,2.92,2.68,2.92H364Z"/><path class="cls-8" d="M364.21,461.81a10.63,10.63,0,0,0,2.23-.21,9.39,9.39,0,0,1-.28-2.32,6.2,6.2,0,0,1,2-4.63,4.1,4.1,0,0,1,2.65-1.39,2.17,2.17,0,0,1,1.73,1.13,6.06,6.06,0,0,1,1,3.55,8.48,8.48,0,0,1-.91,3.64,20.41,20.41,0,0,0,2.55.23h.24v3.51h-.24a14.94,14.94,0,0,1-6.1-1.09,10.76,10.76,0,0,1-4.92,1.09H364c-.84,0-1.23-.91-1.23-1.75s.39-1.76,1.23-1.76Zm3.62-13.8a14.15,14.15,0,0,1,2,2.18,7.65,7.65,0,0,1-1.72,1.79c-.67-.72-1.35-1.4-2.06-2.09Zm1.86,13c1.55-.46,2.5-1.32,2.5-1.9,0-.84-.88-2.51-2.06-2.51a3.55,3.55,0,0,0-2.79,2.32C367.53,459.84,368.37,460.52,369.69,461Zm1.85-13.15a14.15,14.15,0,0,1,2,2.18,7.87,7.87,0,0,1-1.72,1.79c-.67-.72-1.36-1.4-2.06-2.09Z"/><path class="cls-8" d="M379.94,454.83a11.31,11.31,0,0,1,1.77,4.9,7.26,7.26,0,0,1-.72,3.2,3.79,3.79,0,0,1-1.72,1.8,8.8,8.8,0,0,1-3.55.59h-.25c-.84,0-1.23-.91-1.23-1.75s.39-1.76,1.23-1.76h.39c2,0,3.83-.41,3.83-.69a15.91,15.91,0,0,0-1.72-3.58,28,28,0,0,1,1.79-2.75ZM376.72,450a14.24,14.24,0,0,1,2,2.18A7.91,7.91,0,0,1,377,454c-.66-.72-1.35-1.41-2.05-2.09Zm3.71-.16a14.24,14.24,0,0,1,2,2.18,7.91,7.91,0,0,1-1.73,1.79c-.66-.72-1.35-1.4-2-2.09Z"/><path class="cls-8" d="M328.64,490c2-2.1,4.15-3.82,6.38-3.82a4.21,4.21,0,0,1,3.67,1.81,4.61,4.61,0,0,1,.83,2.67,5,5,0,0,1-.55,2.15h2.11v3.51h-.24a45.62,45.62,0,0,1-6.28-.45,41.58,41.58,0,0,1-6,.45c-.61,0-1.26,0-2-.07-.53.64-1.06,1.32-1.62,2.09l-.3-.33.32-1.93-.87-.14c-1.09-1.18-2.12-2.34-3.11-3.52l.11-.23c1.65.27,3.41.46,5.24.62l.68-1a15.63,15.63,0,0,0,.21-2.77,62.23,62.23,0,0,0-.52-9c0-1.33.58-1.93,1.74-2.93l.26.15c0,1.27.81,2.85,1.92,4.71L329,483.14c.06,1.18.06,2.36.06,3.83a8.49,8.49,0,0,1-.51,3Zm7.86,2.21c.56-.19,1-.4,1-.62a3.39,3.39,0,0,0-3.32-2.21c-1.86,0-3.92,1.42-6,3.48A34.93,34.93,0,0,0,336.5,492.21Z"/><path class="cls-8" d="M349.31,496.32h-.23c-1.6,0-3.09-.31-4-1.91H345a4.4,4.4,0,0,1-3.67,1.91h-.25c-.84,0-1.23-.91-1.23-1.75s.39-1.76,1.23-1.76h.25a4.17,4.17,0,0,0,2.39-.6c1-.6,1-1.72,1.44-2.53.41-.28.86-.6,1.41-.92l.12.11a6.88,6.88,0,0,0-.33,1.62,1.9,1.9,0,0,0,.86,1.81,3.58,3.58,0,0,0,1.88.51h.21Zm-6.38,3.29a13.66,13.66,0,0,1,2,2.18,7.47,7.47,0,0,1-1.72,1.79c-.67-.72-1.35-1.4-2.06-2.09Zm3.71-.16a14.15,14.15,0,0,1,2,2.18,7.87,7.87,0,0,1-1.72,1.79c-.67-.72-1.35-1.4-2.06-2.09Z"/><path class="cls-8" d="M363.72,487.43a20,20,0,0,1,.41,4,6.26,6.26,0,0,1-1,3.07,3.41,3.41,0,0,1-2.57,1.76,3.11,3.11,0,0,1-2.46-1.49h0a4.36,4.36,0,0,1-2.9,1.54,1.7,1.7,0,0,1-1.88-1.39h-.06a4.93,4.93,0,0,1-3.63,1.39h-.25c-.84,0-1.23-.91-1.23-1.75s.39-1.76,1.23-1.76h.25a4.62,4.62,0,0,0,3.3-.95,13.35,13.35,0,0,0,1.37-1.78,11.36,11.36,0,0,1,1.58-.66l.13.19a5.51,5.51,0,0,0-1.09,2.35.79.79,0,0,0,.81.85,2.81,2.81,0,0,0,1.19-.34c1.13-.56,1.2-1.58,1.48-2.67a9.71,9.71,0,0,1,1.32-.82l.15.12a5.39,5.39,0,0,0-.28,1.69,1.9,1.9,0,0,0,.51,1.38,1.82,1.82,0,0,0,1.3.58c.41,0,.74-.1.86-.33a22,22,0,0,0-.65-3c.62-.69,1.23-1.37,1.94-2.06Z"/><path class="cls-8" d="M377,492.81v3.51h-1.32c-.74,3.18-2.95,6.42-5.69,6.42a9.51,9.51,0,0,1-5.17-1.95l.4-.93a5.38,5.38,0,0,0,2.15.49,7.34,7.34,0,0,0,4.39-1.81,6.72,6.72,0,0,0,2-2.22h-.49c-3.36,0-5.59-1.07-5.59-4.23a5.23,5.23,0,0,1,1.34-3.5A3.76,3.76,0,0,1,371.9,487c2,0,3.23,2.13,3.94,5.79Zm-6-2.92a1.7,1.7,0,0,0-1.77,1.28c0,1,1.79,1.69,4.09,1.69a4.86,4.86,0,0,0,.69-.05C373.41,491.05,372.41,489.89,371.05,489.89Z"/><path class="cls-8" d="M381.55,478.38c0,1.16.67,2.58,1.93,4.69l-1.56,1.19c.07,1.36.1,3,.1,4.73a11.37,11.37,0,0,1-.65,3.89,8.16,8.16,0,0,1-.88,1.86,3.67,3.67,0,0,1-3.21,1.58H377c-.84,0-1.23-.91-1.23-1.75s.39-1.76,1.23-1.76h.25a3.47,3.47,0,0,0,2.49-.72c.3-.3.3-.79.3-1.74,0-4.38-.58-8.28-.58-9.16a2.57,2.57,0,0,1,.48-1.64,6.68,6.68,0,0,1,1.37-1.31Z"/><path class="cls-8" d="M385.92,496.53a29.16,29.16,0,0,0,.23-4.23,104.82,104.82,0,0,0-.59-11.43c.7-.84,1.37-1.58,2-2.23l.3.16c.36,3.79.41,7.35.41,10.76,0,2.76-.16,4.6-.55,5.2a12.72,12.72,0,0,1-1.44,2.06Z"/></svg>