<svg id="Layer_1" data-name="Layer 1" xmlns="http://www.w3.org/2000/svg" viewBox="0 0 480 638"><defs><style>.cls-1{fill:#006080;}.cls-2{fill:#4f7e98;}.cls-3{fill:#7b9db1;}.cls-4{fill:none;stroke:#666;stroke-miterlimit:10;stroke-width:3px;}.cls-5{fill:#666;}</style></defs><path class="cls-1" d="M95.43,58.76h-5.1l.29-1.23h5.13Z"/><path class="cls-1" d="M118,47.78c.16,3.1.19,6.28.19,9.46a5.09,5.09,0,0,0,.86,3.19,2.33,2.33,0,0,0,1.72.66h.2V63h-.26c-2.53,0-3.56-1.94-3.59-4h-.07a4.28,4.28,0,0,1-2.2,2.63v0a1.67,1.67,0,0,1,1.41,1.89,4.4,4.4,0,0,1-.6,2,9.37,9.37,0,0,1-6.6,3,5.19,5.19,0,0,1-3.5-1.38A5.55,5.55,0,0,1,104,63.11a11.25,11.25,0,0,1,1.1-4.6l.57.22a9.27,9.27,0,0,0-.66,3.08,4.85,4.85,0,0,0,.85,2.89,4.19,4.19,0,0,0,3.34,1.67,8.22,8.22,0,0,0,4.22-1.1,7.37,7.37,0,0,0,1.86-1.45c0-.56-2.42-1-4.59-1.2l-.07-.14.78-1.61a10.5,10.5,0,0,0,3.94-1.26c1.33-1,1.46-1.48,1.46-4.16,0-2-.13-4.14-.25-6.38a11.79,11.79,0,0,1,1.26-1.38Zm-9.26,24.83c-.6-.58-1.13-1-1.71-1.53a14.67,14.67,0,0,1,1.15-1.39,12.83,12.83,0,0,1,1.67,1.57A8,8,0,0,1,108.74,72.61Zm2.83-.19c-.6-.58-1.13-1-1.72-1.53A14.92,14.92,0,0,1,111,69.5a13.5,13.5,0,0,1,1.67,1.57A8.43,8.43,0,0,1,111.57,72.42Z"/><path class="cls-1" d="M129.7,58.38a13.74,13.74,0,0,0-4.6-1,2.35,2.35,0,0,0-1.86.73l.18.73L123,60.14h-.15l-.71-1.93a2.89,2.89,0,0,1,3.17-2.64,14.24,14.24,0,0,1,4.81,1.26,6.87,6.87,0,0,0,2.5.48h1.28l0,0L133,58.85a4.71,4.71,0,0,0-2.48.56L128.08,61a11.43,11.43,0,0,1-6.43,2H121a.94.94,0,0,1-1-1,.91.91,0,0,1,1-.9h.9c2.37,0,4.8-.83,7.82-2.65Zm1.64,1h0c.06,1.25,1.08,1.7,2.59,1.7h.4V63h-.46c-1.89,0-3.15-.66-3.15-2.42a7.52,7.52,0,0,1,0-.82Z"/><path class="cls-1" d="M137.92,61.71A4.72,4.72,0,0,1,134.58,63h-.2a.94.94,0,0,1-1-1,.92.92,0,0,1,1-.9h.13a5.34,5.34,0,0,0,3.32-1c-.26-2.84-.32-5.77-.32-8,0-.59-.12-1.53-.12-2.22a1.82,1.82,0,0,1,.46-1.29,5.6,5.6,0,0,1,.82-.76l.14.09a3.67,3.67,0,0,0,0,.62,5.94,5.94,0,0,0,1.13,3l-1.07.75a48.75,48.75,0,0,0,.25,7.14l.06,0a3.73,3.73,0,0,1,1.87-.51,2.2,2.2,0,0,1,1.67.81,3.16,3.16,0,0,1,.71,2,2.57,2.57,0,0,1-2.32,2.81c-1.36,0-2.49-1.1-3.08-2.77Zm3.82,1.13a1.12,1.12,0,0,0,.72-.27,2.15,2.15,0,0,0-.54-1.36,1.72,1.72,0,0,0-1.38-.66,2.18,2.18,0,0,0-1.18.32A2.77,2.77,0,0,0,141.74,62.84Z"/><path class="cls-1" d="M146.08,63.22a19,19,0,0,0,.16-2.93V58.85c0-2.68-.29-6.58-.53-9.11a13.46,13.46,0,0,1,1.44-1.55l.13,0c.31,3.19.38,6.9.38,10.31a24.1,24.1,0,0,1-.1,2.42,3.77,3.77,0,0,1-1.29,2.36Z"/><path class="cls-1" d="M166.57,60.51a4.77,4.77,0,0,1-2.66-.63,2.59,2.59,0,0,1-1-2.42,3.86,3.86,0,0,1,.53-1.7,3.08,3.08,0,0,1,2.4-1.77c1.19,0,2.14.92,2.9,2.81a12.62,12.62,0,0,1,.66,3.56,8.07,8.07,0,0,1-.23,2.09A3.43,3.43,0,0,1,168.05,64a9.49,9.49,0,0,1-6.13,2.46A5.33,5.33,0,0,1,156.38,61a10,10,0,0,1,.88-4.13l.61.16a7.92,7.92,0,0,0-.5,2.43c0,3.08,1.91,5,4.59,5a8.57,8.57,0,0,0,4.7-1.41c.89-.6,1.8-1.36,1.8-1.77a2.2,2.2,0,0,0-.2-.85A9.39,9.39,0,0,1,166.57,60.51Zm-2.81-8.63c-.6-.57-1.13-1-1.71-1.53A14.67,14.67,0,0,1,163.2,49a14.3,14.3,0,0,1,1.67,1.57A7.62,7.62,0,0,1,163.76,51.88Zm1.8,4c-.83,0-1.78.66-1.78,1.38s.82,1.35,2.88,1.35a7.19,7.19,0,0,0,1.32-.09C167.48,56.86,166.65,55.89,165.56,55.89Zm1-4.2c-.6-.57-1.13-1-1.72-1.53A16.36,16.36,0,0,1,166,48.77a14.3,14.3,0,0,1,1.67,1.57A7.62,7.62,0,0,1,166.59,51.69Z"/><path class="cls-1" d="M175.89,63h-.16a3.24,3.24,0,0,1-2.51-.84c-.89-.91-.9-2-.9-4.1,0-2.78-.17-5.7-.39-8.8a14.66,14.66,0,0,1,1.38-1.37l.1.06c.24,3.21.24,7,.24,10.61v.83a1.53,1.53,0,0,0,1.1,1.57,2.94,2.94,0,0,0,.93.16h.21Z"/><path class="cls-1" d="M176.21,61.09c1.13,0,2.3-.45,2.52-1.29l.43-1.58,1-.73.09.1a7.75,7.75,0,0,0-.33,1.7,1.45,1.45,0,0,0,.49,1.22,2.73,2.73,0,0,0,1.81.58h.27V63h-.34c-1.44,0-2.52-.4-3-1.5h-.06a3.14,3.14,0,0,1-2.91,1.5h-.28a.94.94,0,0,1-1-1,.92.92,0,0,1,1-.9Zm1.66,7.72c-.6-.57-1.13-1-1.72-1.52a12.34,12.34,0,0,1,1.16-1.39A14.19,14.19,0,0,1,179,67.46,7.62,7.62,0,0,1,177.87,68.81Zm2.82-.19c-.6-.57-1.12-1-1.71-1.52a12.34,12.34,0,0,1,1.16-1.39,14.19,14.19,0,0,1,1.67,1.56A7.64,7.64,0,0,1,180.69,68.62Z"/><path class="cls-1" d="M197.5,63h-.37c-1.82,0-2.65-.56-3-1.38H194a3.27,3.27,0,0,1-2.5,1.38,1.46,1.46,0,0,1-1.6-1.22h-.06A3.3,3.3,0,0,1,187.33,63a1.26,1.26,0,0,1-1.41-1.25h0A3.94,3.94,0,0,1,182.75,63h-.25a.94.94,0,0,1-1-1,.92.92,0,0,1,1-.9H183a3.54,3.54,0,0,0,3.1-1.36l.73-1.14,1.13-.4.05.08a5.89,5.89,0,0,0-.95,2.09.73.73,0,0,0,.79.73,2.09,2.09,0,0,0,1.28-.44,3.24,3.24,0,0,0,.95-1.29l.35-.86,1.11-.51.06.06a6,6,0,0,0-.6,2.19.8.8,0,0,0,.82.85,1.67,1.67,0,0,0,1-.32,2.29,2.29,0,0,0,.85-1.41c.06-.23.15-.51.3-1.15l1.11-.75.06,0a8.35,8.35,0,0,0-.37,2c0,1.16,1,1.58,2.4,1.58h.33Z"/><path class="cls-1" d="M197.82,61.09a3.35,3.35,0,0,0,1.64-.39,1.69,1.69,0,0,0,.78-1.59c0-2.34-.19-4.9-.43-7.6-.06-.67-.15-1.29-.15-1.83a1.49,1.49,0,0,1,.44-1,7.71,7.71,0,0,1,.81-.81l.1.08a6.61,6.61,0,0,0,1.19,3.35,9.29,9.29,0,0,1-.92.75c.05,1.68.19,3.46.19,5.08a8.77,8.77,0,0,1-.59,3.68,3,3,0,0,1-1.33,1.7,4.24,4.24,0,0,1-1.83.44h-.22a.94.94,0,0,1-1-1,.92.92,0,0,1,1-.9Z"/><path class="cls-1" d="M204.73,63.22a19,19,0,0,0,.16-2.93V58.85c0-2.68-.29-6.58-.52-9.11a13.4,13.4,0,0,1,1.43-1.55l.13,0c.31,3.19.38,6.9.38,10.31a21.45,21.45,0,0,1-.1,2.42,3.77,3.77,0,0,1-1.29,2.36Z"/><path class="cls-1" d="M225.43,58a6.51,6.51,0,0,1-1.52.16c-1.58,0-2.8-.41-3.27-1.47a2.43,2.43,0,0,1-.2-1,3.93,3.93,0,0,1,1-2.71,2.54,2.54,0,0,1,1.77-.91c1.12,0,2,1,2.64,2.71a9.93,9.93,0,0,1,.56,3.44,3.59,3.59,0,0,1-.68,2.08c1.38.45,1.56.88,1.56,1.93a3.77,3.77,0,0,1-.4,1.67,5.58,5.58,0,0,1-1.8,1.75,8.56,8.56,0,0,1-5,1.56,5.24,5.24,0,0,1-3.63-1.39A5.44,5.44,0,0,1,215,61.94a11.18,11.18,0,0,1,1-4.6l.59.22a9.06,9.06,0,0,0-.56,3.08,4.87,4.87,0,0,0,.85,2.88,4.32,4.32,0,0,0,3.47,1.67,8.22,8.22,0,0,0,4.24-1.08,6.2,6.2,0,0,0,1.93-1.49c0-.56-2.68-1.09-5.2-1.09l-.06-.1.65-1.51c2.4-.28,3.64-.69,3.64-1.45C225.47,58.34,225.45,58.21,225.43,58ZM219.7,71.73c-.6-.57-1.12-1-1.71-1.53a13.31,13.31,0,0,1,1.16-1.39,13.5,13.5,0,0,1,1.67,1.57A7.64,7.64,0,0,1,219.7,71.73Zm2.83-.19c-.6-.57-1.13-1-1.71-1.53A14.67,14.67,0,0,1,222,68.62a13.5,13.5,0,0,1,1.67,1.57A8,8,0,0,1,222.53,71.54Zm-.1-24a14,14,0,0,1,1.76,1.57A5.9,5.9,0,0,1,223,50.57c-.57-.54-1.14-1-1.73-1.5C221.64,48.54,222,48,222.43,47.57Zm.5,6.33a1.67,1.67,0,0,0-1.67,1.29c0,.73,1.4,1.27,2.78,1.27a8,8,0,0,0,1.2-.06C224.71,54.76,223.92,53.9,222.93,53.9Z"/><path class="cls-1" d="M245.09,48.51c.12,3.62.2,6.8.2,10.3a2.62,2.62,0,0,0,.74,1.87,2.34,2.34,0,0,0,1.43.41h.16V63h-.27a2.46,2.46,0,0,1-2.3-1.1H245a9.64,9.64,0,0,1-.52,2.18,5.21,5.21,0,0,1-1.68,1.66,5.61,5.61,0,0,1-3,.9,3.86,3.86,0,0,1-3-1.26,4.86,4.86,0,0,1-1-3.31,8.62,8.62,0,0,1,1-3.69l.52.21a6.52,6.52,0,0,0-.61,2.55,3.53,3.53,0,0,0,.75,2.27,3,3,0,0,0,2.53,1.18,5,5,0,0,0,2.53-.68,3.86,3.86,0,0,0,1.6-1.4,3.26,3.26,0,0,0,.1-1c0-2.29-.11-6.08-.44-11.79A10.15,10.15,0,0,1,245,48.44Z"/><path class="cls-1" d="M248,61.09c1.24,0,2.24-.41,2.41-1.29.12-.57.24-1.12.38-1.67a8.91,8.91,0,0,1,1-.76l.09.09a5.34,5.34,0,0,0-.24,1.38,1.74,1.74,0,0,0,.88,1.62,18.47,18.47,0,0,1,3-3.72A5.64,5.64,0,0,1,259,55.15a3,3,0,0,1,2.72,1.61,3.81,3.81,0,0,1,.37,1.71,4.29,4.29,0,0,1-3.33,4,11.63,11.63,0,0,1-3.65.46c-1.93,0-3.41-.44-4.21-1.54h0a3.46,3.46,0,0,1-3,1.54h-.18a.94.94,0,0,1-1-1,.91.91,0,0,1,1-.9Zm8,0a9.31,9.31,0,0,0,3.81-.83c.71-.34,1.2-.66,1.2-1.06A2.55,2.55,0,0,0,258.43,57c-1.72,0-3.7,1.59-5.23,3.8A9.21,9.21,0,0,0,255.94,61.09Z"/><path class="cls-1" d="M264.85,63.22a19,19,0,0,0,.16-2.93V58.85c0-2.68-.29-6.58-.53-9.11a13.46,13.46,0,0,1,1.44-1.55l.13,0c.31,3.19.38,6.9.38,10.31a24.1,24.1,0,0,1-.1,2.42A3.77,3.77,0,0,1,265,63.32Z"/><path class="cls-1" d="M277,61.09V63h-1.22a6.82,6.82,0,0,1-1.11,3,5.24,5.24,0,0,1-3.53,2.51A8.61,8.61,0,0,1,266.9,67l.25-.49a4.4,4.4,0,0,0,2.15.53,5.73,5.73,0,0,0,4.08-2,4.71,4.71,0,0,0,1.37-2H274c-3,0-4.51-.95-4.51-3a4,4,0,0,1,.75-2.35,2.84,2.84,0,0,1,2.26-1.41c1.34,0,2.73,1.89,3.15,4.89ZM273.65,59a2.16,2.16,0,0,0-1.55-.82c-.82,0-1.65.71-1.65,1.29,0,.75.68,1.19,1.59,1.45a10.16,10.16,0,0,0,2.64.22A4.52,4.52,0,0,0,273.65,59Z"/><path class="cls-1" d="M277.3,61.09c1.13,0,2.3-.45,2.52-1.29l.43-1.58,1-.73.08.1a8.21,8.21,0,0,0-.32,1.7,1.45,1.45,0,0,0,.49,1.22,2.71,2.71,0,0,0,1.81.58h.27V63h-.34c-1.44,0-2.52-.4-3-1.5h-.06a3.15,3.15,0,0,1-2.91,1.5H277a.94.94,0,0,1-1-1,.92.92,0,0,1,1-.9Zm1.61-5.55c-.6-.57-1.13-1-1.71-1.52a12.34,12.34,0,0,1,1.16-1.39A14.13,14.13,0,0,1,280,54.19,7.64,7.64,0,0,1,278.91,55.54Zm2.83-.19c-.6-.57-1.13-1-1.71-1.52a13.5,13.5,0,0,1,1.15-1.39A13.4,13.4,0,0,1,282.85,54,7.62,7.62,0,0,1,281.74,55.35Z"/><path class="cls-1" d="M283.91,61.09a3.35,3.35,0,0,0,1.64-.39,1.68,1.68,0,0,0,.77-1.59c0-2.34-.19-4.9-.42-7.6-.06-.67-.15-1.29-.15-1.83a1.49,1.49,0,0,1,.44-1,7.71,7.71,0,0,1,.81-.81l.1.08a6.61,6.61,0,0,0,1.19,3.35,8.42,8.42,0,0,1-.93.75c.06,1.68.19,3.46.19,5.08a8.79,8.79,0,0,1-.58,3.68,3,3,0,0,1-1.33,1.7,4.28,4.28,0,0,1-1.84.44h-.21a.94.94,0,0,1-1-1,.91.91,0,0,1,1-.9Z"/><path class="cls-1" d="M290.82,63.22a19,19,0,0,0,.16-2.93V58.85c0-2.68-.29-6.58-.52-9.11a13.4,13.4,0,0,1,1.43-1.55l.13,0c.31,3.19.38,6.9.38,10.31a24.1,24.1,0,0,1-.1,2.42A3.77,3.77,0,0,1,291,63.32Z"/><path class="cls-1" d="M303.71,61.58c-1.54,0-2.66-.55-2.66-1.72a4.37,4.37,0,0,1,.46-1.71c.59-1.28,2.17-2.64,4.69-4l-.09-1.1a14.74,14.74,0,0,1,1.16-1.2h.16c.06,2.27.08,4.56.09,6.83a2.64,2.64,0,0,0,.56,2.06,2.38,2.38,0,0,0,1.54.38H310V63h-.33a2.73,2.73,0,0,1-3-2A6.92,6.92,0,0,1,303.71,61.58Zm2.59-5.83c-2.6,1.34-4,2.43-4,3.2,0,.57.87.82,1.87.82a7,7,0,0,0,2.17-.41Zm-1.72-5.19c-.6-.57-1.13-1-1.72-1.52A12.34,12.34,0,0,1,304,47.65a13.4,13.4,0,0,1,1.67,1.56A7.62,7.62,0,0,1,304.58,50.56Zm2.82-.19c-.6-.57-1.12-1-1.71-1.52a13.49,13.49,0,0,1,1.16-1.4A14.3,14.3,0,0,1,308.52,49,7.64,7.64,0,0,1,307.4,50.37Z"/><path class="cls-1" d="M310.29,61.09c1.13,0,2.3-.45,2.52-1.29l.42-1.58,1-.73.09.1a8.21,8.21,0,0,0-.32,1.7,1.47,1.47,0,0,0,.48,1.22,2.74,2.74,0,0,0,1.82.58h.26V63h-.33c-1.44,0-2.52-.4-3-1.5h-.06a3.15,3.15,0,0,1-2.91,1.5H310a.94.94,0,0,1-1-1,.92.92,0,0,1,1-.9Zm1.65,7.72c-.6-.57-1.12-1-1.71-1.52a12.34,12.34,0,0,1,1.16-1.39,14.19,14.19,0,0,1,1.67,1.56A7.64,7.64,0,0,1,311.94,68.81Zm2.83-.19c-.6-.57-1.13-1-1.71-1.52a12.34,12.34,0,0,1,1.16-1.39,15,15,0,0,1,1.67,1.56A8.1,8.1,0,0,1,314.77,68.62Z"/><path class="cls-1" d="M325.3,58.38a13.74,13.74,0,0,0-4.6-1,2.35,2.35,0,0,0-1.86.73l.18.73-.44,1.32h-.15l-.71-1.93a2.89,2.89,0,0,1,3.17-2.64,14.18,14.18,0,0,1,4.81,1.26,6.87,6.87,0,0,0,2.5.48h1.28l0,0-.91,1.51a4.71,4.71,0,0,0-2.48.56L323.68,61a11.43,11.43,0,0,1-6.43,2h-.68a.94.94,0,0,1-1-1,.91.91,0,0,1,1-.9h.9c2.37,0,4.8-.83,7.82-2.65Zm-3.37,6.77a12.72,12.72,0,0,1,1.76,1.57,6.05,6.05,0,0,1-1.21,1.43c-.57-.54-1.15-1-1.73-1.51C321.14,66.12,321.54,65.6,321.93,65.15Zm5-5.77H327c.06,1.25,1.08,1.7,2.59,1.7h.4V63h-.46c-1.89,0-3.15-.66-3.15-2.42a7.52,7.52,0,0,1,.05-.82Z"/><path class="cls-1" d="M330.3,61.09c1.13,0,2.3-.45,2.52-1.29l.42-1.58,1-.73.09.1a8.21,8.21,0,0,0-.32,1.7,1.47,1.47,0,0,0,.48,1.22,2.74,2.74,0,0,0,1.82.58h.26V63h-.33c-1.44,0-2.52-.4-3-1.5h-.06a3.16,3.16,0,0,1-2.91,1.5H330a.94.94,0,0,1-1-1,.92.92,0,0,1,1-.9ZM332,68.81c-.6-.57-1.12-1-1.71-1.52a12.34,12.34,0,0,1,1.16-1.39,14.19,14.19,0,0,1,1.67,1.56A7.64,7.64,0,0,1,332,68.81Zm2.83-.19c-.6-.57-1.13-1-1.71-1.52a13.5,13.5,0,0,1,1.15-1.39,13.45,13.45,0,0,1,1.67,1.56A7.62,7.62,0,0,1,334.78,68.62Z"/><path class="cls-1" d="M336.83,61.09a9.32,9.32,0,0,0,2.89-.28c.51-.19.83-.39.83-.64a12.22,12.22,0,0,0-1.46-3.62,11,11,0,0,1,1.1-1.65h.07a10.32,10.32,0,0,1,1.46,4.46,4.38,4.38,0,0,1-1,2.73c-.66.66-1.7.88-3.94.88h-.18a.94.94,0,0,1-1-1,.91.91,0,0,1,1-.9Zm1.1-7.45c-.6-.58-1.13-1-1.71-1.53a14.67,14.67,0,0,1,1.15-1.39A13.5,13.5,0,0,1,339,52.29,8,8,0,0,1,337.93,53.64Zm2.83-.19c-.6-.58-1.13-1-1.72-1.53a16.36,16.36,0,0,1,1.16-1.39,13.5,13.5,0,0,1,1.67,1.57A8.43,8.43,0,0,1,340.76,53.45Z"/><path class="cls-1" d="M344.65,63.22a19,19,0,0,0,.17-2.93V58.85c0-2.68-.3-6.58-.53-9.11a13.4,13.4,0,0,1,1.43-1.55l.14,0c.3,3.19.38,6.9.38,10.31a21.21,21.21,0,0,1-.11,2.42,3.8,3.8,0,0,1-1.28,2.36Z"/><path class="cls-1" d="M356.26,56c.05.32.17,1,.39,2.29a3.81,3.81,0,0,0,1.25,2.53,2.41,2.41,0,0,0,1.18.32h.19V63H359c-1.74,0-2.48-.79-3.06-3.17l-.37-1.49h-.07a2.41,2.41,0,0,1-2.17,1.57,8.07,8.07,0,0,1,.21,2c0,.17,0,.35,0,.76a5.2,5.2,0,0,1-.84,2c-1,1.45-2.12,2.23-2.88,2.23A8.41,8.41,0,0,1,346,65.69l.21-.47a3.35,3.35,0,0,0,1.37.37,5.23,5.23,0,0,0,4-2.08,4.05,4.05,0,0,0,1.19-2.07A7.84,7.84,0,0,0,350.92,59l.49-1.87h.13c.38.35.76.69,1.07.92a2.06,2.06,0,0,0,1.23.32,1.72,1.72,0,0,0,1-.39,8.22,8.22,0,0,0,1.23-2Zm-1.79-1.58c-.6-.57-1.13-1-1.71-1.52a13.7,13.7,0,0,1,1.15-1.4A14.3,14.3,0,0,1,355.58,53,7.62,7.62,0,0,1,354.47,54.37Zm2.83-.19c-.6-.57-1.13-1-1.72-1.53a13.31,13.31,0,0,1,1.16-1.39,14.3,14.3,0,0,1,1.67,1.57A7.62,7.62,0,0,1,357.3,54.18Z"/><path class="cls-1" d="M371.08,56.7a16.38,16.38,0,0,1,.23,2.61,5,5,0,0,1-.52,2,2.82,2.82,0,0,1-2.17,1.61,2.49,2.49,0,0,1-1.83-1.21h-.12A3.42,3.42,0,0,1,364.11,63a1.26,1.26,0,0,1-1.41-1.25h-.06A3.92,3.92,0,0,1,359.52,63h-.25a.94.94,0,0,1-1-1,.91.91,0,0,1,1-.9h.5a3.46,3.46,0,0,0,3.09-1.36l.81-1.16,1.13-.39.05.07a5.56,5.56,0,0,0-1,2.11.7.7,0,0,0,.76.73,2.28,2.28,0,0,0,1.3-.42c.52-.38.59-.81,1-2.33l.88-.51.09.05a6.34,6.34,0,0,0-.19,1.44A1.58,1.58,0,0,0,369.26,61c.41,0,.78-.22.78-.65a13.4,13.4,0,0,0-.37-2.38A11.75,11.75,0,0,1,371,56.65Z"/><path class="cls-1" d="M374.14,63.22a19,19,0,0,0,.16-2.93V58.85c0-2.68-.29-6.58-.52-9.11a13.4,13.4,0,0,1,1.43-1.55l.13,0c.31,3.19.38,6.9.38,10.31a24.1,24.1,0,0,1-.1,2.42,3.77,3.77,0,0,1-1.29,2.36Z"/><path class="cls-1" d="M389.36,58.76h-5.1l.3-1.23h5.12Z"/><path class="cls-1" d="M128.27,109.48c-2,0-3.77-.68-3.77-2.77a7,7,0,0,1,.8-3c1.06-2.26,3.22-3.87,5.72-5.27l-.06-1c.63-.62,1.27-1.23,1.94-1.81l.31.09c.1,1.94.12,4.26.12,7.23,0,1.64,0,2.89.58,3.48a2.85,2.85,0,0,0,2.23.68h.27V111h-.27c-2.4,0-3.46-.45-4.3-2.21A10.1,10.1,0,0,1,128.27,109.48Zm.18-19.24a16.26,16.26,0,0,1,2.22,2.43,9,9,0,0,1-1.91,2c-.74-.8-1.51-1.56-2.29-2.33Zm2.87,11.24c-2.78,1.28-4.55,2.67-4.55,3.47s.93.92,2,.92a8.58,8.58,0,0,0,2.61-.41C131.39,103.92,131.36,102.55,131.32,101.48Zm1.25-11.41a15.74,15.74,0,0,1,2.22,2.42,8.76,8.76,0,0,1-1.91,2c-.74-.8-1.51-1.56-2.29-2.32Z"/><path class="cls-1" d="M145.55,111h-.25c-1.78,0-3.44-.35-4.47-2.13h-.06a4.91,4.91,0,0,1-4.08,2.13h-.28c-.93,0-1.36-1-1.36-2s.43-2,1.36-2h.28a4.6,4.6,0,0,0,2.65-.66c1.08-.67,1.18-1.92,1.61-2.82.44-.31,1-.66,1.56-1l.13.12a7.79,7.79,0,0,0-.37,1.79,2.11,2.11,0,0,0,1,2,3.85,3.85,0,0,0,2.09.57h.23Zm-7.09,3.65a15.35,15.35,0,0,1,2.23,2.42,8.76,8.76,0,0,1-1.91,2c-.75-.8-1.51-1.56-2.29-2.32Zm4.13-.18a15.34,15.34,0,0,1,2.22,2.43,9,9,0,0,1-1.91,2c-.74-.8-1.51-1.56-2.29-2.33Z"/><path class="cls-1" d="M145.83,107.06a12.17,12.17,0,0,0,2.48-.23,10.37,10.37,0,0,1-.31-2.58,6.91,6.91,0,0,1,2.24-5.14,4.53,4.53,0,0,1,2.95-1.54,2.42,2.42,0,0,1,1.92,1.25,6.79,6.79,0,0,1,1.15,3.94,9.41,9.41,0,0,1-1,4,23.29,23.29,0,0,0,2.83.25h.28V111h-.28a16.67,16.67,0,0,1-6.77-1.21,12.07,12.07,0,0,1-5.47,1.21h-.28c-.93,0-1.36-1-1.36-2s.43-2,1.36-2Zm6.09-.9c1.72-.51,2.78-1.46,2.78-2.11,0-.93-1-2.79-2.29-2.79s-2.56,1.25-3.11,2.58C149.52,104.87,150.46,105.64,151.92,106.16Zm-.15-14.88a20.34,20.34,0,0,1,2.79,2.28A6.93,6.93,0,0,1,152.8,96,33,33,0,0,0,150,93.8Z"/><path class="cls-1" d="M163.31,99.31c1.35,2.42,2,4.2,2,5.45a8.06,8.06,0,0,1-.8,3.55,4.17,4.17,0,0,1-1.91,2,9.59,9.59,0,0,1-3.95.67h-.27c-.94,0-1.37-1-1.37-2s.43-2,1.37-2h.43c2.24,0,4.25-.45,4.25-.76a18,18,0,0,0-1.91-4,29.72,29.72,0,0,1,2-3Zm-3.19,15a15.35,15.35,0,0,1,2.23,2.42,9,9,0,0,1-1.91,2c-.74-.8-1.51-1.56-2.29-2.32Zm4.13-.18a15.74,15.74,0,0,1,2.22,2.42,8.76,8.76,0,0,1-1.91,2c-.74-.8-1.51-1.56-2.29-2.32Z"/><path class="cls-1" d="M180.4,111h-.33a6.51,6.51,0,0,1-2-.37,7.86,7.86,0,0,1-1.26,4.41c-1.08,1.7-2.35,2.83-4,2.83a9.64,9.64,0,0,1-5.2-1.93l.43-1a5.35,5.35,0,0,0,1.76.33,6.12,6.12,0,0,0,4.26-1.79,7.17,7.17,0,0,0,2.29-3.73,17.67,17.67,0,0,1-2.17-3.62,31.36,31.36,0,0,1,1.38-2.89h.3c1,2.27,2.07,3.83,4.25,3.83h.28Z"/><path class="cls-1" d="M185.42,91c0,1.28.74,2.87,2.15,5.21l-1.74,1.33c.08,1.5.12,3.34.12,5.25a12.69,12.69,0,0,1-.73,4.32,9.13,9.13,0,0,1-1,2.07,4.13,4.13,0,0,1-3.58,1.76h-.27c-.94,0-1.37-1-1.37-2s.43-2,1.37-2h.27a3.87,3.87,0,0,0,2.78-.8c.33-.33.33-.88.33-1.93,0-4.87-.65-9.2-.65-10.18a2.89,2.89,0,0,1,.53-1.82,8.25,8.25,0,0,1,1.52-1.46Z"/><path class="cls-1" d="M190.28,111.2a32.71,32.71,0,0,0,.25-4.71,115.65,115.65,0,0,0-.66-12.69,29.78,29.78,0,0,1,2.27-2.48l.33.17c.39,4.22.45,8.17.45,12,0,3.06-.18,5.11-.61,5.78a14.24,14.24,0,0,1-1.6,2.28Z"/><path class="cls-1" d="M206.18,91.34a15.84,15.84,0,0,1,2.23,2.42,8.81,8.81,0,0,1-1.92,2c-.74-.8-1.5-1.56-2.28-2.32Zm1.44,5.74.41-.27c1.37,1.13,2.92,2.13,4.22,3.3a5.59,5.59,0,0,1,2.15,4.69,8.89,8.89,0,0,1-1,4.1,5.89,5.89,0,0,1-4.65,2.36c-3.91,0-4.48-3.57-4.48-4.9,0-2.85,1.23-4.83,3-7Zm-1.46,8c0,1.17,1.19,2.25,3,2.25a4.33,4.33,0,0,0,3.53-1.65c-.15-1.28-1.48-2.63-4-4.08C206.88,103.08,206.16,104.21,206.16,105.05Zm4.14-13.89a15.84,15.84,0,0,1,2.23,2.42,8.85,8.85,0,0,1-1.92,2c-.74-.8-1.5-1.57-2.28-2.33Z"/><path class="cls-1" d="M220.32,87.18l-.53-.59a.81.81,0,0,0-.66-.27c-.78,0-1.31.39-1.31.68,0,.51.9,1,2.56,1,.72,0,1.29,0,2-.06l.08.17a13.15,13.15,0,0,1-.8,1.59,12.43,12.43,0,0,0-4.88,1.4l-.24-.23c.24-.51.49-1,.76-1.47a1.66,1.66,0,0,1-1.19-1.56,3.36,3.36,0,0,1,1.25-2.21,3.78,3.78,0,0,1,2.42-1c.84,0,1.39.43,1.39,1.09a2.63,2.63,0,0,1-.57,1.45Zm-1.86,24a32.57,32.57,0,0,0,.26-4.71,115.68,115.68,0,0,0-.67-12.69c.79-.94,1.53-1.76,2.27-2.48l.33.17c.39,4.22.45,8.17.45,12,0,3.06-.17,5.11-.6,5.78a13.72,13.72,0,0,1-1.61,2.28Z"/><path class="cls-1" d="M233.91,111h-.33a6.44,6.44,0,0,1-2-.37,7.86,7.86,0,0,1-1.27,4.41c-1.07,1.7-2.34,2.83-3.94,2.83a9.61,9.61,0,0,1-5.2-1.93l.43-1a5.31,5.31,0,0,0,1.76.33,6.13,6.13,0,0,0,4.26-1.79,7.14,7.14,0,0,0,2.28-3.73,18.61,18.61,0,0,1-2.17-3.62,28.94,28.94,0,0,1,1.39-2.89h.29c1,2.27,2.07,3.83,4.26,3.83h.27Z"/><path class="cls-1" d="M238.43,109.52a6.44,6.44,0,0,1-4.24,1.45h-.28c-.93,0-1.36-1-1.36-2s.43-2,1.36-2h.28a8.9,8.9,0,0,0,4.12-.78c-.18-3.09-.31-6.15-.45-9.24,0-.92-.27-2.11-.27-2.89a2.89,2.89,0,0,1,.52-1.82,8,8,0,0,1,1.53-1.46l.23.16c0,1.28.74,2.87,2.15,5.21l-1.78,1.35c0,4.08.1,6,.22,7.5a6.28,6.28,0,0,1,2.22-.47c2,0,3.75,1.56,3.75,4.49,0,1.72-1.11,4.61-3.94,4.61-1.78,0-3.4-1.41-4-4.2Zm5.37,1.13a1.09,1.09,0,0,0,.84-.31,2.72,2.72,0,0,0-2.66-2.58,4.07,4.07,0,0,0-1.37.26A3.55,3.55,0,0,0,243.8,110.65Z"/><path class="cls-1" d="M249.7,111.2a34.22,34.22,0,0,0,.25-4.71,115.68,115.68,0,0,0-.67-12.69c.79-.94,1.53-1.76,2.27-2.48l.33.17c.39,4.22.45,8.17.45,12,0,3.06-.17,5.11-.6,5.78a13.72,13.72,0,0,1-1.61,2.28Z"/><path class="cls-1" d="M264.32,112.26h-2L268.7,92h2Z"/><path class="cls-1" d="M284.75,109.48c-1.95,0-3.77-.68-3.77-2.77a7.13,7.13,0,0,1,.8-3c1.06-2.26,3.23-3.87,5.73-5.27l-.06-1c.62-.62,1.27-1.23,1.93-1.81l.32.09c.09,1.94.11,4.26.11,7.23,0,1.64,0,2.89.59,3.48a2.82,2.82,0,0,0,2.22.68h.28V111h-.28c-2.4,0-3.45-.45-4.29-2.21A10.11,10.11,0,0,1,284.75,109.48Zm.18-19.24a16.36,16.36,0,0,1,2.23,2.43,9,9,0,0,1-1.92,2c-.74-.8-1.5-1.56-2.28-2.33Zm2.87,11.24c-2.77,1.28-4.55,2.67-4.55,3.47s.94.92,2,.92a8.64,8.64,0,0,0,2.62-.41C287.88,103.92,287.84,102.55,287.8,101.48Zm1.25-11.41a15.84,15.84,0,0,1,2.23,2.42,8.81,8.81,0,0,1-1.92,2c-.74-.8-1.5-1.56-2.28-2.32Z"/><path class="cls-1" d="M297.92,91c0,1.28.74,2.87,2.15,5.21l-1.74,1.33c.08,1.5.12,3.34.12,5.25a12.69,12.69,0,0,1-.73,4.32,9.13,9.13,0,0,1-1,2.07,4.13,4.13,0,0,1-3.58,1.76h-.27c-.94,0-1.37-1-1.37-2s.43-2,1.37-2h.27a3.87,3.87,0,0,0,2.78-.8c.33-.33.33-.88.33-1.93,0-4.87-.65-9.2-.65-10.18a2.89,2.89,0,0,1,.53-1.82,8.25,8.25,0,0,1,1.52-1.46Z"/><path class="cls-1" d="M308,111h-.33c-2.65,0-4.57-1.35-4.63-5.16,0-2.23-.19-8-.7-12.77a28.55,28.55,0,0,1,2.25-2.17l.27.14a83.33,83.33,0,0,1,.35,8.75c0,2,0,3.08,0,4.68,0,2,.78,2.62,2.56,2.62H308Z"/><path class="cls-1" d="M315.85,107.06V111H308c-.93,0-1.36-1-1.36-2s.43-2,1.36-2Z"/><path class="cls-1" d="M331.86,101.08a22.91,22.91,0,0,1,.45,4.46,7.08,7.08,0,0,1-1.15,3.42c-.88,1.21-1.8,2-2.85,2a3.43,3.43,0,0,1-2.74-1.66h0a4.8,4.8,0,0,1-3.22,1.72,1.9,1.9,0,0,1-2.09-1.55h-.06a5.5,5.5,0,0,1-4,1.55h-.27c-.94,0-1.37-1-1.37-2s.43-2,1.37-2h.27a5.12,5.12,0,0,0,3.67-1,14.9,14.9,0,0,0,1.53-2,14,14,0,0,1,1.75-.74l.14.22a6.18,6.18,0,0,0-1.21,2.61.87.87,0,0,0,.9.94,3.23,3.23,0,0,0,1.33-.37c1.25-.63,1.32-1.76,1.64-3a12.88,12.88,0,0,1,1.46-.92l.18.14a5.72,5.72,0,0,0-.31,1.87,2.14,2.14,0,0,0,.56,1.55,2,2,0,0,0,1.45.64c.45,0,.82-.11,1-.37a26.8,26.8,0,0,0-.72-3.38c.68-.76,1.37-1.52,2.15-2.28Z"/><path class="cls-1" d="M343.13,111h-.33a6.39,6.39,0,0,1-2-.37A7.86,7.86,0,0,1,339.5,115c-1.07,1.7-2.34,2.83-3.95,2.83a9.61,9.61,0,0,1-5.19-1.93l.43-1a5.31,5.31,0,0,0,1.76.33,6.09,6.09,0,0,0,4.25-1.79,7.1,7.1,0,0,0,2.29-3.73,18.61,18.61,0,0,1-2.17-3.62,28.94,28.94,0,0,1,1.39-2.89h.29c1,2.27,2.07,3.83,4.26,3.83h.27Z"/><path class="cls-1" d="M348.15,91c0,1.28.74,2.87,2.15,5.21l-1.74,1.33c.08,1.5.12,3.34.12,5.25a12.7,12.7,0,0,1-.72,4.32,9.61,9.61,0,0,1-1,2.07,4.11,4.11,0,0,1-3.57,1.76h-.28c-.93,0-1.36-1-1.36-2s.43-2,1.36-2h.28a3.84,3.84,0,0,0,2.77-.8c.33-.33.33-.88.33-1.93,0-4.87-.64-9.2-.64-10.18a2.89,2.89,0,0,1,.52-1.82,8.35,8.35,0,0,1,1.53-1.46Z"/><path class="cls-1" d="M353,111.2a34.22,34.22,0,0,0,.25-4.71,118.18,118.18,0,0,0-.66-12.69,31.6,31.6,0,0,1,2.26-2.48l.33.17c.39,4.22.45,8.17.45,12,0,3.06-.17,5.11-.6,5.78a14.24,14.24,0,0,1-1.6,2.28Z"/><path class="cls-2" d="M350.47,487.83a69.3,69.3,0,0,0,4.21-23.72,3.49,3.49,0,0,1,2.71-3.7c3.45-1.2,6.87-2.51,10.31-3.74a84.62,84.62,0,0,0-2.4-15.7c-3.52,0-7-.14-10.53,0-2.79.16-4.19-.95-5-3.5a44.48,44.48,0,0,0-9.22-16.67c-4.11-4.44-3.22-7.7-.43-12.19a46.74,46.74,0,0,0,3.6-6.39A84.64,84.64,0,0,0,332,392.2c-2.93,2.59-6.05,5-8.93,7.61-1.75,1.61-3.22,2-5.4.71a64.6,64.6,0,0,0-22-8c-2.09-.37-3.16-1.26-3.47-3.41-.58-3.93-1.41-7.82-2-11.75,0-.26-.09-.5-.14-.73-2.54-.23-5.1-.35-7.7-.35s-5.19.12-7.73.35a2.33,2.33,0,0,0-.05.28c-.58,3.93-1.37,7.83-2,11.75a4.13,4.13,0,0,1-3.92,3.91c-6.23,1-12.44,2.65-17.73,6-5.11,3.19-8.68,2.8-12.71-1.49-1.56-1.66-3.25-3.87-5.16-5.11a85.6,85.6,0,0,0-12.22,10.5c1.94,3.17,3.62,6.5,5.61,9.63,1.43,2.25,1.46,3.93-.4,6.07-4.14,4.75-7.8,10.06-9.64,16s-5.1,7.17-10.81,6.93a57,57,0,0,0-6.18-.06A85.88,85.88,0,0,0,197,456.71c3.21,1.09,6.37,2.37,9.59,3.44,2.21.74,3.3,1.93,3.32,4.43A66.4,66.4,0,0,0,214,487.24c.83,2.21.67,3.72-1.41,5.24-2.58,1.9-5,4.1-7.41,6.16a85.44,85.44,0,0,0,8.49,14.09c3.07-1.12,6.17-2.16,9.21-3.36a3.21,3.21,0,0,1,4.33,1.17c3.72,4.82,8,9.43,13.36,12,7.31,3.5,7.36,8.26,5.8,15.09l-.36,1.57a84.17,84.17,0,0,0,15.68,5.58c1.51-2.64,3.08-5.25,4.52-7.93a3.23,3.23,0,0,1,4.06-1.9,64.36,64.36,0,0,0,19.44.7c7.42-.84,7.41-1,11.2,5.63.78,1.37,1.45,2.54,2,3.52a84.33,84.33,0,0,0,15.7-5.57c-.58-3.13-1.08-6.26-1.64-9.39-.35-2,.73-3.15,2.34-4.07a67.9,67.9,0,0,0,18.18-15.27,3.34,3.34,0,0,1,4.38-1.11c3,1.18,6.08,2.22,9.12,3.35a86.37,86.37,0,0,0,8.49-14.07c-2.6-2.17-5.14-4.42-7.8-6.51A3.34,3.34,0,0,1,350.47,487.83Zm-68.11,22.76a48.78,48.78,0,1,1,48.78-48.78A48.78,48.78,0,0,1,282.36,510.59Z"/><path class="cls-3" d="M210.1,412.73A47,47,0,0,0,213,396.59a2.39,2.39,0,0,1,1.85-2.52c2.35-.81,4.67-1.71,7-2.54a57.94,57.94,0,0,0-1.64-10.69c-2.39,0-4.78-.09-7.16,0a3,3,0,0,1-3.41-2.39,30.28,30.28,0,0,0-6.28-11.34c-2.8-3-2.19-5.24-.29-8.3a32.16,32.16,0,0,0,2.45-4.35,57.85,57.85,0,0,0-8-6.85c-2,1.76-4.12,3.38-6.08,5.18-1.19,1.1-2.19,1.37-3.68.48a43.83,43.83,0,0,0-14.95-5.42,2.46,2.46,0,0,1-2.37-2.32c-.39-2.68-1-5.32-1.38-8,0-.17-.06-.34-.09-.49-1.73-.16-3.47-.24-5.24-.24s-3.54.08-5.26.24a1.06,1.06,0,0,0,0,.19c-.39,2.67-.93,5.33-1.37,8a2.8,2.8,0,0,1-2.67,2.66A31.91,31.91,0,0,0,142.34,352c-3.48,2.17-5.9,1.91-8.65-1a21.79,21.79,0,0,0-3.51-3.48,58.39,58.39,0,0,0-8.32,7.14c1.32,2.16,2.47,4.43,3.82,6.56a3,3,0,0,1-.27,4.13,30.84,30.84,0,0,0-6.56,10.9c-1.25,4-3.47,4.88-7.36,4.72a37.8,37.8,0,0,0-4.2,0,58.33,58.33,0,0,0-1.63,10.66c2.18.74,4.34,1.61,6.53,2.34a2.84,2.84,0,0,1,2.26,3,45.09,45.09,0,0,0,2.77,15.42c.57,1.51.46,2.53-1,3.57-1.75,1.29-3.37,2.79-5,4.19a58.15,58.15,0,0,0,5.78,9.59c2.09-.76,4.2-1.47,6.27-2.29a2.19,2.19,0,0,1,2.94.8c2.53,3.28,5.45,6.42,9.1,8.17,5,2.39,5,5.63,3.94,10.27-.09.39-.17.75-.24,1.07a57.31,57.31,0,0,0,10.67,3.8c1-1.8,2.1-3.57,3.08-5.4a2.19,2.19,0,0,1,2.76-1.29,44.14,44.14,0,0,0,13.23.48c5.05-.58,5-.68,7.62,3.83.53.93,1,1.73,1.4,2.39a57.38,57.38,0,0,0,10.68-3.79c-.39-2.13-.73-4.26-1.12-6.39-.23-1.37.5-2.14,1.6-2.77a46.26,46.26,0,0,0,12.37-10.39,2.28,2.28,0,0,1,3-.76c2.05.81,4.14,1.51,6.21,2.28a58.66,58.66,0,0,0,5.78-9.57c-1.77-1.48-3.5-3-5.31-4.43A2.28,2.28,0,0,1,210.1,412.73Zm-46.35,15.49A33.2,33.2,0,1,1,196.94,395,33.19,33.19,0,0,1,163.75,428.22Z"/><path class="cls-2" d="M248.26,308.9a47.1,47.1,0,0,0,2.86-16.15,2.37,2.37,0,0,1,1.85-2.51c2.35-.82,4.67-1.71,7-2.55A57.83,57.83,0,0,0,258.35,277c-2.39,0-4.78-.1-7.16,0a3,3,0,0,1-3.41-2.38,30.24,30.24,0,0,0-6.28-11.35c-2.8-3-2.19-5.24-.29-8.29a32.78,32.78,0,0,0,2.45-4.35,57.85,57.85,0,0,0-8-6.85c-2,1.76-4.12,3.38-6.08,5.17-1.19,1.1-2.19,1.37-3.68.49A44.06,44.06,0,0,0,211,244.05a2.45,2.45,0,0,1-2.37-2.32c-.39-2.67-1-5.32-1.38-8,0-.18-.06-.34-.09-.5-1.73-.16-3.47-.24-5.24-.24s-3.54.08-5.26.24a1.06,1.06,0,0,0,0,.19c-.39,2.67-.93,5.33-1.37,8a2.81,2.81,0,0,1-2.67,2.66,31.9,31.9,0,0,0-12.07,4c-3.48,2.17-5.9,1.91-8.65-1a22.21,22.21,0,0,0-3.51-3.48A58.46,58.46,0,0,0,160,250.8c1.32,2.16,2.47,4.42,3.82,6.55a3,3,0,0,1-.27,4.13A30.88,30.88,0,0,0,157,272.39c-1.25,4-3.47,4.87-7.36,4.71a40.44,40.44,0,0,0-4.2,0,58.33,58.33,0,0,0-1.63,10.66c2.18.74,4.34,1.61,6.53,2.34a2.84,2.84,0,0,1,2.26,3,45.15,45.15,0,0,0,2.77,15.43c.57,1.5.46,2.53-1,3.56-1.75,1.3-3.37,2.79-5,4.19a57.74,57.74,0,0,0,5.78,9.59c2.09-.76,4.2-1.47,6.27-2.28a2.18,2.18,0,0,1,2.94.79c2.53,3.28,5.45,6.42,9.1,8.18,5,2.38,5,5.62,3.94,10.27-.09.38-.17.74-.24,1.07a58,58,0,0,0,10.67,3.79c1-1.79,2.1-3.57,3.08-5.39a2.19,2.19,0,0,1,2.76-1.3,43.5,43.5,0,0,0,13.23.48c5.05-.57,5-.68,7.62,3.83.53.93,1,1.73,1.4,2.4a58.11,58.11,0,0,0,10.68-3.79c-.39-2.13-.73-4.26-1.12-6.39-.23-1.38.5-2.15,1.6-2.77a46.3,46.3,0,0,0,12.37-10.4,2.27,2.27,0,0,1,3-.75c2.05.8,4.14,1.51,6.21,2.28a59.18,59.18,0,0,0,5.78-9.58c-1.77-1.47-3.5-3-5.31-4.43A2.27,2.27,0,0,1,248.26,308.9Zm-46.35,15.49a33.2,33.2,0,1,1,33.19-33.2A33.2,33.2,0,0,1,201.91,324.39Z"/><path class="cls-4" d="M253.84,355.33a107.66,107.66,0,0,1,132.62,69.39"/><polygon class="cls-5" points="373.37 419.35 385.3 421.19 394.91 413.88 390.62 442.14 373.37 419.35"/><path class="cls-4" d="M94,453.44a90,90,0,0,1,5.64-120.08"/><polygon class="cls-5" points="100.69 347.5 97.03 336 86.21 330.64 113.42 321.91 100.69 347.5"/><path class="cls-4" d="M123,304.15a80.06,80.06,0,0,1,61.11-91"/><path class="cls-5" d="M122.07,298.78l-12.23-3.23-.13.42,11.72,14.91,9.12,16.52-1.35-18.82,1.71-18.89-.28-.3Z"/><path class="cls-5" d="M282.46,473.62c-5.62-2.12-13.71-7.44-13.71-14.22,0-4,2.55-8.17,10.5-13.06,6.27-3.8,11.89-6.93,11.89-9.27s-1.46-3.94-5-3.94c-7.22,0-12.62,7.88-14.59,7.88-2.55,0-6.34-3.5-6.34-7.51,0-2.12.94-3.21,2.48-4.67,3.57-3.14,9.33-4.38,11.89-4.38h.21c9.41,0,19.63,8.83,19.63,18.68,0,4.38-.88,7.58-6.35,11.3-3.43,2.41-11.16,6.5-11.16,10.36,0,1.61.58,3.58,2.84,6.28Zm-1.82,23.05c-4.53,0-7.95-3.35-7.95-8.39a8.13,8.13,0,1,1,16.26,0c0,5-3.43,8.39-8.17,8.39Z"/><path class="cls-5" d="M189.54,276.37a2.11,2.11,0,0,0-1.09-.31,2,2,0,0,0-1.57.7c0,.25.26.52.58.79a1.61,1.61,0,0,0,.79.38c.21,0,1.07-.45,2.53-1l.08.06c-.12.48-.25,1-.41,1.42-2.46.84-3.81,1.81-3.81,2.62,0,1,1.33,1.84,3.63,1.84a9.8,9.8,0,0,0,1.74-.15l.12.18a11,11,0,0,1-1.87,1.39,3.19,3.19,0,0,1-.94.11c-1.93,0-3.45-.9-3.45-2.86A4,4,0,0,1,187,279a2,2,0,0,1-1-1.58,2.7,2.7,0,0,1,.41-1.35,1.81,1.81,0,0,1,3.37.1Z"/><path class="cls-5" d="M196.53,276.32a22.4,22.4,0,0,0,1.69,2.13,1.62,1.62,0,0,0,1.32.57h.1v1.56h-.1a1.6,1.6,0,0,1-1.48-.6h0c0,1-.62,1.68-1.22,1.68a1.86,1.86,0,0,1-1.61-1.67h0a1.6,1.6,0,0,1-1.22.59c-1.1,0-1.71-.58-1.73-2.06,0-.89-.09-3.19-.29-5.11a12,12,0,0,1,.9-.86l.11.05a34.59,34.59,0,0,1,.14,3.5c0,.82,0,1.23,0,1.88s.32,1,1,1a1.07,1.07,0,0,0,.88-.4c.22-.25.8-1.54,1.35-2.3Zm-.69,2.54a1.29,1.29,0,0,0,1.13,1.3.47.47,0,0,0,.42-.52c0-.47-.45-1-1-1.64l-.15-.17A1.86,1.86,0,0,0,195.84,278.86Z"/><path class="cls-5" d="M203.3,280.58h-.1a1.84,1.84,0,0,1-1.79-.85h0a2,2,0,0,1-1.64.85h-.11c-.37,0-.54-.4-.54-.78s.17-.78.54-.78h.11a1.92,1.92,0,0,0,1.07-.26c.43-.27.47-.77.64-1.13.18-.12.38-.26.62-.4l.06,0a2.76,2.76,0,0,0-.15.72.85.85,0,0,0,.38.81,1.59,1.59,0,0,0,.84.22h.09Zm-2.8-5.71a6.49,6.49,0,0,1,.89,1,3.43,3.43,0,0,1-.77.8c-.3-.32-.6-.62-.91-.93Zm1.64-.07a6.6,6.6,0,0,1,.9,1,3.65,3.65,0,0,1-.77.8c-.3-.32-.6-.62-.91-.93Z"/><path class="cls-5" d="M209.71,276.63a9.59,9.59,0,0,1,.18,1.78,2.9,2.9,0,0,1-.46,1.37c-.36.48-.72.78-1.14.78a1.37,1.37,0,0,1-1.1-.66h0a1.93,1.93,0,0,1-1.29.68.76.76,0,0,1-.84-.61h0a2.23,2.23,0,0,1-1.62.61h-.11c-.37,0-.55-.4-.55-.78s.18-.78.55-.78h.11a2.06,2.06,0,0,0,1.47-.42,5.93,5.93,0,0,0,.61-.79,5.89,5.89,0,0,1,.7-.3l.06.09a2.43,2.43,0,0,0-.49,1,.34.34,0,0,0,.36.37,1.2,1.2,0,0,0,.53-.15c.5-.25.53-.7.66-1.18a5,5,0,0,1,.58-.37l.07.05a2.55,2.55,0,0,0-.12.75.83.83,0,0,0,.23.62.78.78,0,0,0,.57.26.45.45,0,0,0,.39-.15,12.29,12.29,0,0,0-.29-1.35c.27-.31.55-.61.86-.92Z"/><path class="cls-5" d="M211.79,275.41c1.17,1.77,1.82,2.5,1.82,3.9.38-.22.65-.51.65-1.39a40.12,40.12,0,0,0-.21-4.13c0-.43.16-.79.79-1.27l.13.09a.59.59,0,0,0,0,.18,5.48,5.48,0,0,0,.87,1.89l-.71.52v1.49a6.68,6.68,0,0,1-.68,3.25,2.26,2.26,0,0,1-2.21,1.2,6.22,6.22,0,0,1-2.33-.48v-.19a17.75,17.75,0,0,0,3.31-1,18.34,18.34,0,0,0-2.39-3.64,3,3,0,0,1-.76-1.48,2.39,2.39,0,0,1,.4-1.11h.1a8.37,8.37,0,0,0,1.62,1.57Zm0,7.21-.21-.24a.32.32,0,0,0-.27-.11c-.31,0-.52.16-.52.28s.36.41,1,.41l.79,0,0,.07a3.74,3.74,0,0,1-.32.63,5,5,0,0,0-1.95.56l-.09-.09a6.54,6.54,0,0,1,.3-.59.67.67,0,0,1-.48-.62,1.38,1.38,0,0,1,.5-.89,1.57,1.57,0,0,1,1-.41c.34,0,.56.17.56.44a1.08,1.08,0,0,1-.23.58Z"/><path class="cls-5" d="M216.89,280.68a12.94,12.94,0,0,0,.11-1.88,45.76,45.76,0,0,0-.27-5.08,10,10,0,0,1,.91-1l.13.07c.16,1.68.18,3.26.18,4.78a6.18,6.18,0,0,1-.24,2.31,6.08,6.08,0,0,1-.64.91Z"/><path class="cls-5" d="M194.35,292.58h-.11a1.44,1.44,0,0,1-1.2-.53h0a3.49,3.49,0,0,1-.33,1.18,3.16,3.16,0,0,1-2.49,1.28,2.22,2.22,0,0,1-2.28-2.46,5,5,0,0,1,.61-2.37l.43.19a3.59,3.59,0,0,0-.33,1.32,1.61,1.61,0,0,0,1.69,1.74,2.83,2.83,0,0,0,2-1c0-.37,0-.72,0-1,0-1.27-.13-3.42-.24-5.27a6.5,6.5,0,0,1,.83-.83l.13.06c.05,1.22.09,2.77.1,4.73a1.58,1.58,0,0,0,.28,1.07,1,1,0,0,0,.79.33h.11Z"/><path class="cls-5" d="M198.66,289.08a2.14,2.14,0,0,0-2.69,0,1.7,1.7,0,0,0,.54.86,1.58,1.58,0,0,0,1,.45,8.61,8.61,0,0,0,2.21-.59l.11.12c-.19.47-.39.94-.62,1.41a26.34,26.34,0,0,1-2.66.8,6.43,6.43,0,0,1-2.06.41h-.11c-.38,0-.55-.4-.55-.78s.17-.78.55-.78h.11a6.19,6.19,0,0,0,1.08-.07v0a1.58,1.58,0,0,1-.56-1.22,2.44,2.44,0,0,1,.45-1.3,2.07,2.07,0,0,1,1.67-1c.79,0,1.36.51,1.81,1.4Zm-2.47-4.24a7.85,7.85,0,0,1,1.12.92,2.84,2.84,0,0,1-.7,1c-.32-.28-.72-.57-1.14-.87Z"/><path class="cls-5" d="M203.07,292.58h-.14c-1.06,0-1.82-.53-1.85-2.06,0-.89-.08-3.19-.28-5.11a10.35,10.35,0,0,1,.9-.86l.11.05a34.59,34.59,0,0,1,.14,3.5c0,.82,0,1.23,0,1.88s.32,1,1,1h.11Z"/><path class="cls-5" d="M211.07,292.58H211c-.88,0-1.51-.19-1.78-.71h0a1.76,1.76,0,0,1-1.32.71.85.85,0,0,1-.87-.66h0a1.78,1.78,0,0,1-1.29.66.79.79,0,0,1-.84-.59,2.56,2.56,0,0,1-1.62.59h-.11c-.38,0-.55-.4-.55-.78s.17-.78.55-.78h.11a2.21,2.21,0,0,0,1.39-.35,3.91,3.91,0,0,0,.68-.83,4.78,4.78,0,0,1,.68-.31l.08.08a2.13,2.13,0,0,0-.47,1,.35.35,0,0,0,.4.4,1,1,0,0,0,.74-.3,3.77,3.77,0,0,0,.57-1,4.6,4.6,0,0,1,.63-.31l.06.08a4.05,4.05,0,0,0-.36,1.06c0,.34.14.49.39.49a.91.91,0,0,0,.79-.4,4.08,4.08,0,0,0,.44-1.1,6,6,0,0,1,.62-.38l.06.05a3.92,3.92,0,0,0-.22,1c0,.55.41.81,1.3.81h.11Zm-4.45-5.78a5.88,5.88,0,0,1,.94.92,3.31,3.31,0,0,1-.72.83c-.31-.3-.63-.58-1-.87Zm.67-1.72a6.24,6.24,0,0,1,.93.92,3.31,3.31,0,0,1-.72.83c-.31-.3-.63-.58-1-.87Zm1,1.64a5.88,5.88,0,0,1,.94.92,3.35,3.35,0,0,1-.72.84c-.31-.31-.63-.59-1-.88Z"/><path class="cls-5" d="M212.87,292a2.57,2.57,0,0,1-1.69.57h-.11c-.38,0-.55-.4-.55-.78s.17-.78.55-.78h.11a3.59,3.59,0,0,0,1.64-.31c-.07-1.23-.12-2.46-.18-3.7,0-.36-.1-.84-.1-1.15a1.15,1.15,0,0,1,.21-.73,2.64,2.64,0,0,1,.61-.58l.09.06a4.61,4.61,0,0,0,.86,2.08l-.71.54c0,1.64,0,2.4.08,3a2.61,2.61,0,0,1,.89-.18,1.58,1.58,0,0,1,1.5,1.79c0,.69-.44,1.85-1.57,1.85-.71,0-1.36-.57-1.61-1.68Zm2.15.45a.43.43,0,0,0,.34-.13,1.09,1.09,0,0,0-1.07-1,1.48,1.48,0,0,0-.54.11A1.41,1.41,0,0,0,215,292.46Z"/><path class="cls-5" d="M194.62,304.58h-.11a1.89,1.89,0,0,1-1.65-.63h0a10.68,10.68,0,0,1-4.24,1,4.9,4.9,0,0,1-2.75-.66,2.41,2.41,0,0,1-1.13-2.16,5,5,0,0,1,.47-2.07l.48.16a3.22,3.22,0,0,0-.18.94c0,1.19,1,2.16,3.48,2.16a10.7,10.7,0,0,0,3.48-.61l.37-1c.23-.17.44-.31.62-.42l.07.06a3.41,3.41,0,0,0-.18.88c0,.57.54.83,1.19.83h.11Zm-5.77,1.35a7.5,7.5,0,0,1,1.29,1,5.85,5.85,0,0,1-.8,1.13,11.14,11.14,0,0,0-1.29-1Z"/><path class="cls-5" d="M196.39,302c1-1.2,2.1-2,3.15-2a1.79,1.79,0,0,1,1.79,1.93,3.16,3.16,0,0,1-.63,1.7c-.74.66-2.28,1-6,1h-.11c-.37,0-.55-.4-.55-.78s.18-.78.55-.78h.81l.25-.34a14.73,14.73,0,0,0,.09-1.9c0-.78-.05-1.58-.12-2.51,0-.35-.11-.71-.11-1.06s.18-.68.79-1.17l.1,0a4,4,0,0,0,.86,2.11l-.68.52c0,.64,0,1.23,0,1.58a4.35,4.35,0,0,1-.28,1.64Zm4,.32a1.33,1.33,0,0,0-1.25-.89,4.45,4.45,0,0,0-2.89,1.63C198.35,303,199.79,302.8,200.43,302.28Z"/><path class="cls-5" d="M204.81,304.58h-.13c-1.07,0-1.83-.53-1.86-2.06,0-.89-.07-3.19-.28-5.11a12,12,0,0,1,.9-.86l.11.05a31.9,31.9,0,0,1,.14,3.5c0,.82,0,1.23,0,1.88s.31,1,1,1h.11Z"/><path class="cls-5" d="M208.87,302a6.63,6.63,0,0,0-2-.41,1.12,1.12,0,0,0-.65.14l-.36.82h-.16l-.51-1a1.64,1.64,0,0,1,1.71-1.39,6.52,6.52,0,0,1,2.16.54A5.07,5.07,0,0,0,211,301h.58l0,.06a10.69,10.69,0,0,1-.65,1.09,1.77,1.77,0,0,0-1.35.47,6,6,0,0,1-4.69,1.94h-.11c-.38,0-.55-.4-.55-.78s.17-.78.55-.78h.11a6.6,6.6,0,0,0,4-1Zm-1.46-4.57a9.24,9.24,0,0,1,1.12.91,2.56,2.56,0,0,1-.71,1,12.76,12.76,0,0,0-1.13-.86Zm2.94,5,0,0c.05.58.68.62,1.36.62h.11v1.56h-.11a2.13,2.13,0,0,1-1.43-.32,1.42,1.42,0,0,1-.42-1.1,3.62,3.62,0,0,1,0-.46Z"/><path class="cls-5" d="M213.66,304a2.58,2.58,0,0,1-1.7.57h-.1c-.38,0-.55-.4-.55-.78s.17-.78.55-.78h.1a3.61,3.61,0,0,0,1.65-.31c-.07-1.23-.12-2.46-.18-3.7,0-.36-.11-.84-.11-1.15a1.15,1.15,0,0,1,.22-.73,2.78,2.78,0,0,1,.6-.58l.1.06a4.61,4.61,0,0,0,.86,2.08l-.71.54c0,1.64,0,2.4.08,3a2.61,2.61,0,0,1,.89-.18,1.58,1.58,0,0,1,1.5,1.79c0,.69-.44,1.85-1.57,1.85-.72,0-1.36-.57-1.61-1.68Zm2.15.45a.4.4,0,0,0,.33-.13,1.08,1.08,0,0,0-1.06-1,1.48,1.48,0,0,0-.54.11A1.41,1.41,0,0,0,215.81,304.46Z"/><path class="cls-5" d="M218.17,304.68a13.08,13.08,0,0,0,.1-1.88,45.76,45.76,0,0,0-.27-5.08,11.37,11.37,0,0,1,.91-1l.13.07c.16,1.68.18,3.26.18,4.78a6.18,6.18,0,0,1-.24,2.31,4.9,4.9,0,0,1-.64.91Z"/><path class="cls-5" d="M154.66,383a19.82,19.82,0,0,1,2.18,2.46,1.27,1.27,0,0,0,1.07.61H158v1.56h-.11a1.5,1.5,0,0,1-1.32-.56h0a1.36,1.36,0,0,1-1.25,1.18,2.48,2.48,0,0,1-2.07-2.46h0c-.37.37-.56.58-.56,1,0,.9,1.25,4,1.25,4.7a6.16,6.16,0,0,1-.22,1.41h-.2c-.36-1.86-1.68-4.14-1.68-5.75a2.79,2.79,0,0,1,.75-2.17,23.15,23.15,0,0,0,2-1.94Zm-.6,2.25a1.52,1.52,0,0,0,1.44,1.4c.29,0,.48-.11.48-.22,0-.32-.53-1-1.45-1.81C154.25,384.88,154.06,385.08,154.06,385.29Z"/><path class="cls-5" d="M160,383a5,5,0,0,1,.79,2.18,3.31,3.31,0,0,1-.32,1.42,1.62,1.62,0,0,1-.77.79,3.69,3.69,0,0,1-1.57.27H158c-.38,0-.55-.41-.55-.78s.17-.78.55-.78h.17c.9,0,1.7-.18,1.7-.31a7.27,7.27,0,0,0-.76-1.59,11.76,11.76,0,0,1,.79-1.22Zm-1.27,6a6.54,6.54,0,0,1,.89,1,3.64,3.64,0,0,1-.77.8c-.29-.32-.6-.63-.91-.93Zm1.65-.07a6.54,6.54,0,0,1,.89,1,3.64,3.64,0,0,1-.77.8c-.3-.32-.6-.63-.91-.93Z"/><path class="cls-5" d="M167.76,387.67h-.11a1.59,1.59,0,0,1-1.69-1.31h0a1.47,1.47,0,0,1-.43.76,2.65,2.65,0,0,1-1.68.55c-.82,0-1.38-.48-1.38-1.82,0-.16,0-.38,0-.66l.51-.05a.9.9,0,0,0,1,1,2.88,2.88,0,0,0,1.15-.28c.29-.12.49-.27.49-.51a12.32,12.32,0,0,0-.67-2.61,9.11,9.11,0,0,1,.72-1.07l.13,0c.2.71.4,1.61.67,3.13.16.89.57,1.3,1.2,1.3h.11Z"/><path class="cls-5" d="M167.87,386.11a4.19,4.19,0,0,0,1-.1,4.1,4.1,0,0,1-.12-1,2.75,2.75,0,0,1,.89-2.05,1.81,1.81,0,0,1,1.18-.62.94.94,0,0,1,.77.5,2.71,2.71,0,0,1,.46,1.58,3.74,3.74,0,0,1-.41,1.62,9.79,9.79,0,0,0,1.14.1h.11v1.56h-.11a6.67,6.67,0,0,1-2.71-.48,4.88,4.88,0,0,1-2.19.48h-.11c-.38,0-.55-.41-.55-.78s.17-.78.55-.78Zm1.61-6.14a6.54,6.54,0,0,1,.89,1,3.43,3.43,0,0,1-.77.8c-.29-.32-.6-.62-.91-.93Zm.83,5.78c.68-.21,1.1-.59,1.1-.85s-.39-1.11-.91-1.11a1.58,1.58,0,0,0-1.24,1C169.34,385.23,169.72,385.54,170.31,385.75Zm.82-5.85a6.54,6.54,0,0,1,.89,1,3.43,3.43,0,0,1-.77.8c-.3-.32-.6-.63-.91-.93Z"/><path class="cls-5" d="M174.86,383a5,5,0,0,1,.79,2.18,3.31,3.31,0,0,1-.32,1.42,1.62,1.62,0,0,1-.77.79,3.69,3.69,0,0,1-1.57.27h-.11c-.38,0-.55-.41-.55-.78s.17-.78.55-.78h.17c.9,0,1.7-.18,1.7-.31a7.79,7.79,0,0,0-.76-1.59,11.76,11.76,0,0,1,.79-1.22Zm-1.43-2.16a6,6,0,0,1,.89,1,3.59,3.59,0,0,1-.76.8c-.3-.33-.61-.63-.92-.93Zm1.65-.07a6,6,0,0,1,.89,1,3.38,3.38,0,0,1-.77.79c-.29-.32-.6-.62-.91-.92Z"/><path class="cls-5" d="M147.8,403c-.83,0-1.6-.29-1.6-1.18a2.92,2.92,0,0,1,.34-1.28,5.43,5.43,0,0,1,2.43-2.24l0-.44c.27-.26.54-.52.82-.77l.14,0c0,.82,0,1.81,0,3.07,0,.7,0,1.23.25,1.48a1.18,1.18,0,0,0,.94.29h.12v1.66h-.12c-1,0-1.47-.19-1.82-.94A4.39,4.39,0,0,1,147.8,403Zm.07-8.18a6.85,6.85,0,0,1,.95,1,3.66,3.66,0,0,1-.82.85c-.31-.34-.63-.66-1-1Zm1.22,4.78c-1.18.54-1.93,1.13-1.93,1.47s.4.39.85.39a3.58,3.58,0,0,0,1.12-.17C149.13,400.67,149.11,400.09,149.09,399.64Zm.53-4.85a6.36,6.36,0,0,1,.95,1,3.79,3.79,0,0,1-.81.84c-.32-.34-.64-.66-1-1Z"/><path class="cls-5" d="M153.18,400.68a4.64,4.64,0,0,1,3-1.8,2,2,0,0,1,1.72.86,2.12,2.12,0,0,1,.4,1.26,2.51,2.51,0,0,1-.25,1h1v1.66H159a20.34,20.34,0,0,1-3-.22,34.09,34.09,0,0,1-4.61.22h-.11c-.4,0-.58-.43-.58-.83s.18-.83.58-.83H152l.38-.47a7,7,0,0,0,.1-1.31,28.9,28.9,0,0,0-.25-4.23c0-.63.27-.91.82-1.39l.13.08a5,5,0,0,0,.9,2.22l-.71.53c0,.56,0,1.12,0,1.81a4,4,0,0,1-.24,1.42Zm3.71,1.05c.27-.09.49-.19.49-.29a1.6,1.6,0,0,0-1.57-1.05A4.51,4.51,0,0,0,153,402,16.84,16.84,0,0,0,156.89,401.73Z"/><path class="cls-5" d="M163,403.67h-.11a2,2,0,0,1-1.9-.91h0a2.09,2.09,0,0,1-1.73.91h-.12c-.4,0-.58-.43-.58-.83s.18-.83.58-.83h.12a2.05,2.05,0,0,0,1.13-.28c.45-.28.49-.82.68-1.2.19-.13.4-.28.66-.43l.06,0a3.3,3.3,0,0,0-.16.76.9.9,0,0,0,.41.86,1.66,1.66,0,0,0,.89.24h.1Zm-3,1.55a6.85,6.85,0,0,1,.95,1,3.83,3.83,0,0,1-.81.85c-.32-.34-.64-.67-1-1Zm1.75-.07a6.36,6.36,0,0,1,.95,1,4,4,0,0,1-.81.84c-.32-.34-.64-.66-1-1Z"/><path class="cls-5" d="M169.75,399.47a9.33,9.33,0,0,1,.19,1.89,3,3,0,0,1-.49,1.46,1.61,1.61,0,0,1-1.21.83,1.47,1.47,0,0,1-1.16-.71h0a2,2,0,0,1-1.37.73.79.79,0,0,1-.88-.66h0a2.33,2.33,0,0,1-1.72.66H163c-.4,0-.58-.43-.58-.83s.18-.83.58-.83h.11a2.17,2.17,0,0,0,1.56-.45,5.37,5.37,0,0,0,.65-.84,5.69,5.69,0,0,1,.75-.31l.06.09a2.58,2.58,0,0,0-.52,1.11.37.37,0,0,0,.38.4,1.43,1.43,0,0,0,.57-.16c.53-.26.56-.75.69-1.26a5.72,5.72,0,0,1,.63-.39l.07.06a2.53,2.53,0,0,0-.13.8.92.92,0,0,0,.24.65.83.83,0,0,0,.61.28.48.48,0,0,0,.41-.16,9.86,9.86,0,0,0-.31-1.44c.29-.32.58-.65.92-1Z"/><path class="cls-5" d="M176,402v1.66h-.63c-.34,1.5-1.39,3-2.69,3a4.48,4.48,0,0,1-2.44-.92l.19-.44a2.59,2.59,0,0,0,1,.23,3.49,3.49,0,0,0,2.07-.85,3.29,3.29,0,0,0,1-1.05h-.24c-1.58,0-2.64-.51-2.64-2a2.49,2.49,0,0,1,.63-1.65,1.76,1.76,0,0,1,1.33-.74c.93,0,1.53,1,1.86,2.73Zm-2.83-1.38a.8.8,0,0,0-.83.61c0,.48.84.79,1.93.79a1.62,1.62,0,0,0,.32,0C174.33,401.18,173.85,400.63,173.21,400.63Z"/><path class="cls-5" d="M178.17,395.19a4.94,4.94,0,0,0,.91,2.22l-.74.57c0,.63,0,1.42,0,2.23a5.43,5.43,0,0,1-.3,1.83,3.58,3.58,0,0,1-.42.88,1.74,1.74,0,0,1-1.52.75H176c-.4,0-.58-.43-.58-.83s.18-.83.58-.83h.11a1.65,1.65,0,0,0,1.18-.34c.14-.14.14-.37.14-.82,0-2.07-.27-3.91-.27-4.33a1.21,1.21,0,0,1,.22-.77,3.25,3.25,0,0,1,.65-.62Z"/><path class="cls-5" d="M180.24,403.77a14.72,14.72,0,0,0,.1-2,49.21,49.21,0,0,0-.28-5.4c.33-.39.65-.74,1-1.05l.14.07c.16,1.8.19,3.47.19,5.08a6.51,6.51,0,0,1-.26,2.46,5.55,5.55,0,0,1-.68,1Z"/></svg>