<svg id="Layer_1" data-name="Layer 1" xmlns="http://www.w3.org/2000/svg" xmlns:xlink="http://www.w3.org/1999/xlink" viewBox="0 0 480 638"><defs><style>.cls-1{fill:#006080;}.cls-2{fill:#ef402c;}</style></defs><path class="cls-1" d="M95.43,58.76h-5.1l.29-1.23h5.13Z"/><path class="cls-1" d="M118,47.78c.16,3.1.19,6.28.19,9.46a5,5,0,0,0,.87,3.19,2.29,2.29,0,0,0,1.71.66h.2V63h-.26c-2.53,0-3.56-1.94-3.59-4h-.07a4.28,4.28,0,0,1-2.2,2.63v0a1.66,1.66,0,0,1,1.41,1.89,4.4,4.4,0,0,1-.6,2,9.36,9.36,0,0,1-6.59,3A5.2,5.2,0,0,1,105.56,67,5.55,5.55,0,0,1,104,63.11a11.25,11.25,0,0,1,1.1-4.6l.57.22a9.27,9.27,0,0,0-.66,3.08,4.92,4.92,0,0,0,.85,2.89,4.2,4.2,0,0,0,3.34,1.67,8.22,8.22,0,0,0,4.22-1.1,7.37,7.37,0,0,0,1.86-1.45c0-.56-2.42-1-4.58-1.2l-.08-.14.78-1.61a10.5,10.5,0,0,0,3.94-1.26c1.33-1,1.46-1.48,1.46-4.16,0-2-.13-4.14-.25-6.38a12.74,12.74,0,0,1,1.26-1.38Zm-9.26,24.83c-.6-.58-1.12-1-1.71-1.53a13.31,13.31,0,0,1,1.16-1.39,13.5,13.5,0,0,1,1.67,1.57A8,8,0,0,1,108.74,72.61Zm2.83-.19c-.6-.58-1.13-1-1.71-1.53A13.5,13.5,0,0,1,111,69.5a13.5,13.5,0,0,1,1.67,1.57A8.43,8.43,0,0,1,111.57,72.42Z"/><path class="cls-1" d="M129.71,58.38a13.8,13.8,0,0,0-4.6-1,2.33,2.33,0,0,0-1.86.73l.17.73L123,60.14h-.15l-.71-1.93a2.9,2.9,0,0,1,3.18-2.64,14.2,14.2,0,0,1,4.8,1.26,6.88,6.88,0,0,0,2.51.48h1.27l0,0L133,58.85a4.64,4.64,0,0,0-2.47.56L128.08,61a11.43,11.43,0,0,1-6.43,2H121a.94.94,0,0,1-1-1,.91.91,0,0,1,1-.9h.9c2.37,0,4.8-.83,7.82-2.65Zm1.64,1h0c.06,1.25,1.08,1.7,2.59,1.7h.4V63h-.46c-1.89,0-3.15-.66-3.15-2.42a7.52,7.52,0,0,1,0-.82Z"/><path class="cls-1" d="M137.92,61.71A4.72,4.72,0,0,1,134.58,63h-.2a.94.94,0,0,1-1-1,.92.92,0,0,1,1-.9h.13a5.34,5.34,0,0,0,3.32-1c-.26-2.84-.32-5.77-.32-8,0-.59-.11-1.53-.11-2.22a1.81,1.81,0,0,1,.45-1.29,5.6,5.6,0,0,1,.82-.76l.15.09a3,3,0,0,0,0,.62,6,6,0,0,0,1.13,3l-1.07.75a48.75,48.75,0,0,0,.25,7.14l.06,0a3.75,3.75,0,0,1,1.87-.51,2.2,2.2,0,0,1,1.67.81,3.16,3.16,0,0,1,.71,2,2.57,2.57,0,0,1-2.32,2.81c-1.36,0-2.49-1.1-3.07-2.77Zm3.83,1.13a1.11,1.11,0,0,0,.71-.27,2.15,2.15,0,0,0-.54-1.36,1.72,1.72,0,0,0-1.38-.66,2.2,2.2,0,0,0-1.18.32A2.77,2.77,0,0,0,141.75,62.84Z"/><path class="cls-1" d="M146.08,63.22a19,19,0,0,0,.16-2.93V58.85c0-2.68-.29-6.58-.52-9.11a13.4,13.4,0,0,1,1.43-1.55l.13,0c.31,3.19.38,6.9.38,10.31a24.1,24.1,0,0,1-.1,2.42,3.77,3.77,0,0,1-1.29,2.36Z"/><path class="cls-1" d="M166.58,60.51a4.78,4.78,0,0,1-2.67-.63,2.59,2.59,0,0,1-1-2.42,3.86,3.86,0,0,1,.53-1.7,3.08,3.08,0,0,1,2.4-1.77c1.19,0,2.14.92,2.9,2.81a12.62,12.62,0,0,1,.66,3.56,8.07,8.07,0,0,1-.23,2.09A3.36,3.36,0,0,1,168.05,64a9.49,9.49,0,0,1-6.13,2.46A5.33,5.33,0,0,1,156.38,61a10,10,0,0,1,.88-4.13l.61.16a7.89,7.89,0,0,0-.49,2.43c0,3.08,1.9,5,4.58,5a8.57,8.57,0,0,0,4.7-1.41c.9-.6,1.8-1.36,1.8-1.77a2.2,2.2,0,0,0-.2-.85A9.19,9.19,0,0,1,166.58,60.51Zm-2.82-8.63c-.6-.57-1.13-1-1.71-1.53A13.31,13.31,0,0,1,163.21,49a15.15,15.15,0,0,1,1.67,1.57A7.64,7.64,0,0,1,163.76,51.88Zm1.8,4c-.83,0-1.78.66-1.78,1.38s.82,1.35,2.88,1.35a7.12,7.12,0,0,0,1.32-.09C167.48,56.86,166.65,55.89,165.56,55.89Zm1-4.2c-.6-.57-1.13-1-1.71-1.53A14.67,14.67,0,0,1,166,48.77a14.3,14.3,0,0,1,1.67,1.57A7.62,7.62,0,0,1,166.59,51.69Z"/><path class="cls-1" d="M175.89,63h-.16a3.22,3.22,0,0,1-2.5-.84c-.9-.91-.91-2-.91-4.1,0-2.78-.16-5.7-.38-8.8a13.56,13.56,0,0,1,1.37-1.37l.11.06c.23,3.21.23,7,.23,10.61v.83a1.53,1.53,0,0,0,1.1,1.57,3,3,0,0,0,.94.16h.2Z"/><path class="cls-1" d="M176.21,61.09c1.13,0,2.3-.45,2.52-1.29l.43-1.58,1-.73.09.1a7.75,7.75,0,0,0-.33,1.7,1.48,1.48,0,0,0,.49,1.22,2.73,2.73,0,0,0,1.81.58h.27V63h-.34c-1.43,0-2.52-.4-3-1.5h-.06a3.14,3.14,0,0,1-2.91,1.5h-.28a.94.94,0,0,1-1-1,.91.91,0,0,1,1-.9Zm1.66,7.72c-.6-.57-1.13-1-1.71-1.52a13.5,13.5,0,0,1,1.15-1.39A14.19,14.19,0,0,1,179,67.46,7.62,7.62,0,0,1,177.87,68.81Zm2.83-.19c-.6-.57-1.13-1-1.72-1.52a12.34,12.34,0,0,1,1.16-1.39,14.19,14.19,0,0,1,1.67,1.56A7.62,7.62,0,0,1,180.7,68.62Z"/><path class="cls-1" d="M197.5,63h-.37c-1.81,0-2.65-.56-3-1.38H194A3.29,3.29,0,0,1,191.52,63a1.46,1.46,0,0,1-1.6-1.22h0A3.32,3.32,0,0,1,187.33,63a1.25,1.25,0,0,1-1.4-1.25h-.06A3.94,3.94,0,0,1,182.75,63h-.25a.94.94,0,0,1-1-1,.92.92,0,0,1,1-.9h.5a3.53,3.53,0,0,0,3.09-1.36l.73-1.14,1.13-.4.06.08a5.78,5.78,0,0,0-1,2.09.73.73,0,0,0,.79.73,2.09,2.09,0,0,0,1.28-.44,3.15,3.15,0,0,0,.95-1.29l.35-.86,1.12-.51.05.06a6.25,6.25,0,0,0-.6,2.19.8.8,0,0,0,.82.85,1.71,1.71,0,0,0,1-.32,2.32,2.32,0,0,0,.84-1.41c.06-.23.15-.51.3-1.15l1.11-.75.06,0a8.35,8.35,0,0,0-.37,2c0,1.16,1,1.58,2.41,1.58h.32Z"/><path class="cls-1" d="M197.82,61.09a3.35,3.35,0,0,0,1.64-.39,1.69,1.69,0,0,0,.78-1.59c0-2.34-.19-4.9-.43-7.6-.06-.67-.14-1.29-.14-1.83a1.45,1.45,0,0,1,.44-1,6.7,6.7,0,0,1,.8-.81l.1.08a6.61,6.61,0,0,0,1.19,3.35,8.25,8.25,0,0,1-.92.75c.06,1.68.19,3.46.19,5.08a8.62,8.62,0,0,1-.59,3.68,3,3,0,0,1-1.33,1.7,4.24,4.24,0,0,1-1.83.44h-.22a.94.94,0,0,1-1-1,.92.92,0,0,1,1-.9Z"/><path class="cls-1" d="M204.73,63.22a19,19,0,0,0,.17-2.93V58.85c0-2.68-.3-6.58-.53-9.11a13.4,13.4,0,0,1,1.43-1.55l.14,0c.3,3.19.38,6.9.38,10.31a21.21,21.21,0,0,1-.11,2.42,3.77,3.77,0,0,1-1.29,2.36Z"/><path class="cls-1" d="M225.43,58a6.51,6.51,0,0,1-1.52.16c-1.58,0-2.8-.41-3.27-1.47a2.43,2.43,0,0,1-.2-1,3.93,3.93,0,0,1,1-2.71,2.54,2.54,0,0,1,1.78-.91c1.11,0,2,1,2.63,2.71a9.93,9.93,0,0,1,.56,3.44,3.59,3.59,0,0,1-.68,2.08c1.38.45,1.56.88,1.56,1.93a3.64,3.64,0,0,1-.4,1.67,5.48,5.48,0,0,1-1.8,1.75,8.56,8.56,0,0,1-5,1.56,5.24,5.24,0,0,1-3.63-1.39A5.44,5.44,0,0,1,215,61.94a11.18,11.18,0,0,1,1-4.6l.58.22a9,9,0,0,0-.55,3.08,4.86,4.86,0,0,0,.84,2.88,4.34,4.34,0,0,0,3.48,1.67,8.18,8.18,0,0,0,4.23-1.08,6.2,6.2,0,0,0,1.93-1.49c0-.56-2.68-1.09-5.2-1.09l-.06-.1.65-1.51c2.4-.28,3.65-.69,3.65-1.45C225.48,58.34,225.45,58.21,225.43,58Zm-5.72,13.71c-.61-.57-1.13-1-1.72-1.53a13.31,13.31,0,0,1,1.16-1.39,13.5,13.5,0,0,1,1.67,1.57A7.62,7.62,0,0,1,219.71,71.73Zm2.82-.19c-.6-.57-1.13-1-1.71-1.53A13.31,13.31,0,0,1,222,68.62a14.25,14.25,0,0,1,1.67,1.57A8,8,0,0,1,222.53,71.54Zm-.1-24a13.32,13.32,0,0,1,1.76,1.57A5.69,5.69,0,0,1,223,50.57c-.57-.54-1.14-1-1.73-1.5C221.64,48.54,222,48,222.43,47.57Zm.5,6.33a1.67,1.67,0,0,0-1.67,1.29c0,.73,1.4,1.27,2.78,1.27a7.91,7.91,0,0,0,1.2-.06C224.71,54.76,223.92,53.9,222.93,53.9Z"/><path class="cls-1" d="M245.09,48.51c.12,3.62.21,6.8.21,10.3a2.62,2.62,0,0,0,.73,1.87,2.34,2.34,0,0,0,1.43.41h.16V63h-.27a2.47,2.47,0,0,1-2.3-1.1H245a9.63,9.63,0,0,1-.51,2.18,5.24,5.24,0,0,1-1.69,1.66,5.61,5.61,0,0,1-3,.9,3.87,3.87,0,0,1-3-1.26,4.86,4.86,0,0,1-1-3.31,8.62,8.62,0,0,1,1-3.69l.53.21a6.37,6.37,0,0,0-.62,2.55,3.59,3.59,0,0,0,.75,2.27,3,3,0,0,0,2.53,1.18,5.11,5.11,0,0,0,2.54-.68,3.89,3.89,0,0,0,1.59-1.4,3.08,3.08,0,0,0,.11-1c0-2.29-.12-6.08-.44-11.79A10.09,10.09,0,0,1,245,48.44Z"/><path class="cls-1" d="M248,61.09c1.24,0,2.24-.41,2.41-1.29.12-.57.24-1.12.39-1.67a8,8,0,0,1,1-.76l.09.09a5.31,5.31,0,0,0-.23,1.38,1.73,1.73,0,0,0,.87,1.62,18.47,18.47,0,0,1,3-3.72A5.64,5.64,0,0,1,259,55.15a3,3,0,0,1,2.72,1.61,3.68,3.68,0,0,1,.37,1.71,4.29,4.29,0,0,1-3.33,4,11.6,11.6,0,0,1-3.64.46c-1.94,0-3.42-.44-4.22-1.54h0a3.46,3.46,0,0,1-3,1.54h-.18a.94.94,0,0,1-1-1,.91.91,0,0,1,1-.9Zm8,0a9.3,9.3,0,0,0,3.8-.83c.71-.34,1.21-.66,1.21-1.06A2.56,2.56,0,0,0,258.44,57c-1.73,0-3.71,1.59-5.23,3.8A9.11,9.11,0,0,0,256,61.09Z"/><path class="cls-1" d="M264.85,63.22a19,19,0,0,0,.16-2.93V58.85c0-2.68-.29-6.58-.52-9.11a13.4,13.4,0,0,1,1.43-1.55l.13,0c.31,3.19.38,6.9.38,10.31a24.1,24.1,0,0,1-.1,2.42A3.77,3.77,0,0,1,265,63.32Z"/><path class="cls-1" d="M277,61.09V63h-1.22a6.7,6.7,0,0,1-1.11,3,5.24,5.24,0,0,1-3.53,2.51A8.61,8.61,0,0,1,266.9,67l.25-.49a4.43,4.43,0,0,0,2.15.53,5.73,5.73,0,0,0,4.08-2,4.71,4.71,0,0,0,1.37-2H274c-3,0-4.52-.95-4.52-3a4,4,0,0,1,.75-2.35,2.84,2.84,0,0,1,2.26-1.41c1.35,0,2.74,1.89,3.15,4.89ZM273.66,59a2.18,2.18,0,0,0-1.56-.82c-.82,0-1.65.71-1.65,1.29,0,.75.69,1.19,1.59,1.45a10.16,10.16,0,0,0,2.64.22A4.6,4.6,0,0,0,273.66,59Z"/><path class="cls-1" d="M277.3,61.09c1.13,0,2.3-.45,2.52-1.29l.43-1.58,1-.73.09.1a7.75,7.75,0,0,0-.33,1.7,1.48,1.48,0,0,0,.49,1.22,2.73,2.73,0,0,0,1.81.58h.27V63h-.34c-1.44,0-2.52-.4-3-1.5h-.06a3.14,3.14,0,0,1-2.91,1.5H277a.94.94,0,0,1-1-1,.91.91,0,0,1,1-.9Zm1.61-5.55c-.6-.57-1.12-1-1.71-1.52a12.34,12.34,0,0,1,1.16-1.39A13.4,13.4,0,0,1,280,54.19,7.64,7.64,0,0,1,278.91,55.54Zm2.83-.19c-.6-.57-1.13-1-1.71-1.52a13.5,13.5,0,0,1,1.15-1.39A12.73,12.73,0,0,1,282.85,54,7.62,7.62,0,0,1,281.74,55.35Z"/><path class="cls-1" d="M283.91,61.09a3.35,3.35,0,0,0,1.64-.39,1.69,1.69,0,0,0,.78-1.59c0-2.34-.19-4.9-.43-7.6-.06-.67-.15-1.29-.15-1.83a1.49,1.49,0,0,1,.44-1,7.71,7.71,0,0,1,.81-.81l.1.08a6.61,6.61,0,0,0,1.19,3.35,8.25,8.25,0,0,1-.92.75c.05,1.68.19,3.46.19,5.08a8.62,8.62,0,0,1-.59,3.68,3,3,0,0,1-1.33,1.7,4.24,4.24,0,0,1-1.83.44h-.22a.94.94,0,0,1-1-1,.92.92,0,0,1,1-.9Z"/><path class="cls-1" d="M290.82,63.22a19,19,0,0,0,.16-2.93V58.85c0-2.68-.29-6.58-.52-9.11a13.4,13.4,0,0,1,1.43-1.55l.13,0c.31,3.19.39,6.9.39,10.31A21.21,21.21,0,0,1,292.3,61,3.77,3.77,0,0,1,291,63.32Z"/><path class="cls-1" d="M303.71,61.58c-1.53,0-2.66-.55-2.66-1.72a4.25,4.25,0,0,1,.47-1.71c.58-1.28,2.16-2.64,4.68-4l-.08-1.1a13.15,13.15,0,0,1,1.15-1.2h.16c.06,2.27.08,4.56.09,6.83a2.64,2.64,0,0,0,.56,2.06,2.4,2.4,0,0,0,1.54.38H310V63h-.32a2.74,2.74,0,0,1-3-2A6.89,6.89,0,0,1,303.71,61.58Zm2.6-5.83c-2.61,1.34-4,2.43-4,3.2,0,.57.88.82,1.87.82a7,7,0,0,0,2.17-.41Zm-1.73-5.19c-.6-.57-1.13-1-1.72-1.52A14.92,14.92,0,0,1,304,47.65a13.4,13.4,0,0,1,1.67,1.56A7.62,7.62,0,0,1,304.58,50.56Zm2.83-.19c-.61-.57-1.13-1-1.72-1.52a13.49,13.49,0,0,1,1.16-1.4A14.3,14.3,0,0,1,308.52,49,7.62,7.62,0,0,1,307.41,50.37Z"/><path class="cls-1" d="M310.29,61.09c1.13,0,2.3-.45,2.52-1.29l.43-1.58,1-.73.08.1a8.21,8.21,0,0,0-.32,1.7,1.45,1.45,0,0,0,.49,1.22,2.71,2.71,0,0,0,1.81.58h.27V63h-.34c-1.44,0-2.52-.4-3-1.5h-.06a3.15,3.15,0,0,1-2.91,1.5H310a.94.94,0,0,1-1-1,.92.92,0,0,1,1-.9ZM312,68.81c-.6-.57-1.13-1-1.72-1.52a12.34,12.34,0,0,1,1.16-1.39,14.19,14.19,0,0,1,1.67,1.56A7.62,7.62,0,0,1,312,68.81Zm2.82-.19c-.6-.57-1.12-1-1.71-1.52a12.34,12.34,0,0,1,1.16-1.39,14.19,14.19,0,0,1,1.67,1.56A7.64,7.64,0,0,1,314.77,68.62Z"/><path class="cls-1" d="M325.31,58.38a13.8,13.8,0,0,0-4.6-1,2.33,2.33,0,0,0-1.86.73l.17.73-.44,1.32h-.14l-.72-1.93a2.9,2.9,0,0,1,3.18-2.64,14.2,14.2,0,0,1,4.8,1.26,6.88,6.88,0,0,0,2.51.48h1.27l0,0-.91,1.51a4.64,4.64,0,0,0-2.47.56L323.68,61a11.43,11.43,0,0,1-6.43,2h-.67a.94.94,0,0,1-1-1,.91.91,0,0,1,1-.9h.89c2.37,0,4.8-.83,7.82-2.65Zm-3.37,6.77a13.26,13.26,0,0,1,1.75,1.57,5.83,5.83,0,0,1-1.21,1.43c-.57-.54-1.14-1-1.73-1.51C321.15,66.12,321.54,65.6,321.94,65.15Zm5-5.77h0c.06,1.25,1.08,1.7,2.59,1.7h.4V63h-.46c-1.89,0-3.14-.66-3.14-2.42a7.5,7.5,0,0,1,0-.82Z"/><path class="cls-1" d="M330.3,61.09c1.13,0,2.3-.45,2.52-1.29l.43-1.58,1-.73.08.1a8.21,8.21,0,0,0-.32,1.7,1.47,1.47,0,0,0,.48,1.22,2.74,2.74,0,0,0,1.82.58h.26V63h-.33c-1.44,0-2.52-.4-3-1.5h-.06a3.15,3.15,0,0,1-2.91,1.5H330a.94.94,0,0,1-1-1,.92.92,0,0,1,1-.9ZM332,68.81c-.6-.57-1.13-1-1.72-1.52a12.34,12.34,0,0,1,1.16-1.39,14.19,14.19,0,0,1,1.67,1.56A7.62,7.62,0,0,1,332,68.81Zm2.82-.19c-.6-.57-1.12-1-1.71-1.52a12.34,12.34,0,0,1,1.16-1.39,14.19,14.19,0,0,1,1.67,1.56A7.64,7.64,0,0,1,334.78,68.62Z"/><path class="cls-1" d="M336.83,61.09a9.28,9.28,0,0,0,2.89-.28c.51-.19.83-.39.83-.64a12.22,12.22,0,0,0-1.46-3.62,11,11,0,0,1,1.1-1.65h.07a10.2,10.2,0,0,1,1.47,4.46,4.39,4.39,0,0,1-1,2.73c-.66.66-1.7.88-3.94.88h-.18a.94.94,0,0,1-1-1,.91.91,0,0,1,1-.9Zm1.1-7.45c-.6-.58-1.13-1-1.71-1.53a13.31,13.31,0,0,1,1.16-1.39,14.25,14.25,0,0,1,1.67,1.57A8,8,0,0,1,337.93,53.64Zm2.83-.19c-.6-.58-1.13-1-1.71-1.53a14.67,14.67,0,0,1,1.15-1.39,13.5,13.5,0,0,1,1.67,1.57A8.43,8.43,0,0,1,340.76,53.45Z"/><path class="cls-1" d="M344.66,63.22a20.32,20.32,0,0,0,.16-2.93V58.85c0-2.68-.3-6.58-.53-9.11a12.63,12.63,0,0,1,1.44-1.55l.13,0c.31,3.19.38,6.9.38,10.31a24.1,24.1,0,0,1-.1,2.42,3.82,3.82,0,0,1-1.29,2.36Z"/><path class="cls-1" d="M356.26,56c.06.32.17,1,.39,2.29a3.81,3.81,0,0,0,1.25,2.53,2.41,2.41,0,0,0,1.18.32h.2V63H359c-1.74,0-2.47-.79-3.06-3.17l-.37-1.49h-.07a2.41,2.41,0,0,1-2.17,1.57,8.07,8.07,0,0,1,.21,2c0,.17,0,.35,0,.76a5.2,5.2,0,0,1-.84,2c-1,1.45-2.12,2.23-2.88,2.23A8.41,8.41,0,0,1,346,65.69l.21-.47a3.35,3.35,0,0,0,1.38.37,5.22,5.22,0,0,0,4-2.08,4.05,4.05,0,0,0,1.19-2.07A8,8,0,0,0,350.93,59l.48-1.87h.13c.38.35.76.69,1.07.92a2.06,2.06,0,0,0,1.23.32,1.72,1.72,0,0,0,1-.39,8.22,8.22,0,0,0,1.23-2Zm-1.79-1.58c-.6-.57-1.13-1-1.71-1.52a13.7,13.7,0,0,1,1.15-1.4A14.3,14.3,0,0,1,355.58,53,7.62,7.62,0,0,1,354.47,54.37Zm2.83-.19c-.6-.57-1.13-1-1.72-1.53a14.67,14.67,0,0,1,1.16-1.39,14.3,14.3,0,0,1,1.67,1.57A7.62,7.62,0,0,1,357.3,54.18Z"/><path class="cls-1" d="M371.08,56.7a16.61,16.61,0,0,1,.24,2.61,5,5,0,0,1-.53,2,2.82,2.82,0,0,1-2.17,1.61,2.49,2.49,0,0,1-1.83-1.21h-.12A3.42,3.42,0,0,1,364.11,63a1.26,1.26,0,0,1-1.41-1.25h-.06A3.92,3.92,0,0,1,359.52,63h-.24a.94.94,0,0,1-1-1,.91.91,0,0,1,1-.9h.49a3.45,3.45,0,0,0,3.09-1.36l.81-1.16,1.13-.39.06.07a5.47,5.47,0,0,0-1,2.11.7.7,0,0,0,.76.73,2.34,2.34,0,0,0,1.31-.42c.51-.38.58-.81,1-2.33l.87-.51.09.05a7,7,0,0,0-.19,1.44A1.58,1.58,0,0,0,369.27,61a.68.68,0,0,0,.77-.65,13.27,13.27,0,0,0-.36-2.38A12.57,12.57,0,0,1,371,56.65Z"/><path class="cls-1" d="M374.14,63.22a19,19,0,0,0,.16-2.93V58.85c0-2.68-.29-6.58-.52-9.11a13.4,13.4,0,0,1,1.43-1.55l.13,0c.31,3.19.39,6.9.39,10.31a21.21,21.21,0,0,1-.11,2.42,3.77,3.77,0,0,1-1.29,2.36Z"/><path class="cls-1" d="M389.36,58.76h-5.09l.29-1.23h5.13Z"/><path class="cls-1" d="M78.5,109.48c-2,0-3.77-.68-3.77-2.77a7,7,0,0,1,.8-3c1-2.26,3.22-3.87,5.72-5.27l-.06-1c.63-.62,1.27-1.23,1.93-1.81l.32.09c.09,1.94.11,4.26.11,7.23,0,1.64,0,2.89.59,3.48a2.84,2.84,0,0,0,2.23.68h.27V111h-.27c-2.41,0-3.46-.45-4.3-2.21A10.1,10.1,0,0,1,78.5,109.48Zm.17-19.24a16.36,16.36,0,0,1,2.23,2.43,8.8,8.8,0,0,1-1.92,2c-.74-.8-1.5-1.56-2.28-2.33Zm2.87,11.24C78.77,102.76,77,104.15,77,105s.94.92,2,.92a8.64,8.64,0,0,0,2.62-.41C81.62,103.92,81.58,102.55,81.54,101.48Zm1.25-11.41A15.84,15.84,0,0,1,85,92.49a8.6,8.6,0,0,1-1.92,2c-.74-.8-1.5-1.56-2.28-2.32Z"/><path class="cls-1" d="M90.1,108.66A3.28,3.28,0,0,1,86.87,111h-.25c-.9,0-1.35-.94-1.35-2s.43-2,1.37-2h.27a3.1,3.1,0,0,0,1.68-.51c1.53-1,1.18-3.69,3.09-5.47a3.77,3.77,0,0,1,2.58-1.15c3.26,0,4.35,5,4.35,7.15,0,.27-.7,3.71-3.3,3.71a8.89,8.89,0,0,1-5.15-2.13Zm5.78-1.6c.37,0,.6-.06.6-.17-.41-2.19-1.58-3.6-2.89-3.6A2.55,2.55,0,0,0,91.31,105,7,7,0,0,0,95.88,107.06Z"/><path class="cls-1" d="M102,111.2a32.57,32.57,0,0,0,.26-4.71,115.68,115.68,0,0,0-.67-12.69,29.78,29.78,0,0,1,2.27-2.48l.33.17c.39,4.22.45,8.17.45,12,0,3.06-.18,5.11-.61,5.78a14.24,14.24,0,0,1-1.6,2.28Z"/><path class="cls-1" d="M121.41,111h-.28a4,4,0,0,1-4.22-3.28h-.06a3.5,3.5,0,0,1-1.07,1.89,6.49,6.49,0,0,1-4.2,1.39c-2,0-3.46-1.21-3.46-4.55,0-.39,0-1,0-1.66l1.27-.12a2.25,2.25,0,0,0,2.48,2.42,7.09,7.09,0,0,0,2.87-.68c.73-.32,1.24-.69,1.24-1.29a31.79,31.79,0,0,0-1.68-6.53,23,23,0,0,1,1.79-2.67l.33.1c.49,1.77,1,4,1.68,7.83.39,2.23,1.43,3.24,3,3.24h.28Z"/><path class="cls-1" d="M129.22,107.06V111h-7.81c-.94,0-1.37-1-1.37-2s.43-2,1.37-2Z"/><path class="cls-1" d="M137,107.06V111h-7.81c-.94,0-1.37-1-1.37-2s.43-2,1.37-2Z"/><path class="cls-1" d="M144.84,107.06V111H137c-.94,0-1.37-1-1.37-2s.43-2,1.37-2Z"/><path class="cls-1" d="M152.66,107.06V111h-7.82c-.93,0-1.36-1-1.36-2s.43-2,1.36-2Z"/><path class="cls-1" d="M161.8,111h-.26c-1.77,0-3.44-.35-4.47-2.13H157a4.89,4.89,0,0,1-4.08,2.13h-.27c-.94,0-1.37-1-1.37-2s.43-2,1.37-2h.27a4.66,4.66,0,0,0,2.66-.66c1.07-.67,1.17-1.92,1.6-2.82.45-.31.95-.66,1.56-1l.14.12a7.28,7.28,0,0,0-.37,1.79,2.1,2.1,0,0,0,.95,2,3.85,3.85,0,0,0,2.09.57h.24Zm-7-14.3A15.35,15.35,0,0,1,157,99.09a8.76,8.76,0,0,1-1.91,2c-.75-.8-1.51-1.56-2.29-2.32Zm4.13-.18a16.26,16.26,0,0,1,2.22,2.43,9,9,0,0,1-1.91,2c-.74-.8-1.51-1.56-2.29-2.33Z"/><path class="cls-1" d="M181.8,111h-.28c-2.18,0-3.77-.49-4.43-1.8H177a4.45,4.45,0,0,1-3.3,1.8,2.13,2.13,0,0,1-2.17-1.66h-.1a4.38,4.38,0,0,1-3.22,1.66,2,2,0,0,1-2.09-1.49,6.37,6.37,0,0,1-4.06,1.49h-.27c-.94,0-1.37-1-1.37-2s.43-2,1.37-2h.27a5.66,5.66,0,0,0,3.5-.88,10.37,10.37,0,0,0,1.68-2.07,13.33,13.33,0,0,1,1.69-.78l.22.2a5.46,5.46,0,0,0-1.19,2.53.88.88,0,0,0,1,1,2.53,2.53,0,0,0,1.86-.76,9.25,9.25,0,0,0,1.41-2.54,11,11,0,0,1,1.58-.78l.15.19a9.91,9.91,0,0,0-.89,2.66c0,.84.35,1.23,1,1.23a2.3,2.3,0,0,0,2-1,10.39,10.39,0,0,0,1.1-2.75,14.35,14.35,0,0,1,1.56-1l.14.14a9.5,9.5,0,0,0-.55,2.54c0,1.37,1,2,3.24,2h.28Z"/><path class="cls-1" d="M186.31,109.52a6.42,6.42,0,0,1-4.24,1.45h-.27c-.94,0-1.37-1-1.37-2s.43-2,1.37-2h.27a8.88,8.88,0,0,0,4.12-.78c-.17-3.09-.31-6.15-.45-9.24,0-.92-.27-2.11-.27-2.89a2.83,2.83,0,0,1,.53-1.82,8.25,8.25,0,0,1,1.52-1.46l.23.16c0,1.28.75,2.87,2.15,5.21l-1.78,1.35c0,4.08.1,6,.22,7.5a6.29,6.29,0,0,1,2.23-.47c2,0,3.75,1.56,3.75,4.49,0,1.72-1.12,4.61-3.95,4.61-1.78,0-3.4-1.41-4-4.2Zm5.37,1.13a1.09,1.09,0,0,0,.84-.31,2.71,2.71,0,0,0-2.66-2.58,4,4,0,0,0-1.36.26A3.53,3.53,0,0,0,191.68,110.65Z"/><path class="cls-1" d="M197.58,111.2a34.22,34.22,0,0,0,.25-4.71,115.65,115.65,0,0,0-.66-12.69,31.6,31.6,0,0,1,2.26-2.48l.34.17c.39,4.22.44,8.17.44,12,0,3.06-.17,5.11-.6,5.78a14.24,14.24,0,0,1-1.6,2.28Z"/><path class="cls-1" d="M215.23,109.48c-1.95,0-3.77-.68-3.77-2.77a7,7,0,0,1,.81-3c1-2.26,3.22-3.87,5.72-5.27l-.06-1c.62-.62,1.27-1.23,1.93-1.81l.32.09c.09,1.94.11,4.26.11,7.23,0,1.64,0,2.89.59,3.48a2.82,2.82,0,0,0,2.22.68h.28V111h-.28c-2.4,0-3.45-.45-4.29-2.21A10.11,10.11,0,0,1,215.23,109.48Zm.18-19.24a16.36,16.36,0,0,1,2.23,2.43,9,9,0,0,1-1.92,2c-.74-.8-1.5-1.56-2.28-2.33Zm2.87,11.24c-2.77,1.28-4.55,2.67-4.55,3.47s.94.92,2,.92a8.64,8.64,0,0,0,2.62-.41C218.36,103.92,218.32,102.55,218.28,101.48Zm1.25-11.41a15.84,15.84,0,0,1,2.23,2.42,8.81,8.81,0,0,1-1.92,2c-.74-.8-1.5-1.56-2.28-2.32Z"/><path class="cls-1" d="M232.52,111h-.25c-1.78,0-3.44-.35-4.48-2.13h-.06a4.89,4.89,0,0,1-4.08,2.13h-.27c-.94,0-1.37-1-1.37-2s.43-2,1.37-2h.27a4.66,4.66,0,0,0,2.66-.66c1.07-.67,1.17-1.92,1.6-2.82.45-.31,1-.66,1.56-1l.14.12a7.28,7.28,0,0,0-.37,1.79,2.1,2.1,0,0,0,.95,2,3.85,3.85,0,0,0,2.09.57h.24Zm-7.09,3.65a15.84,15.84,0,0,1,2.23,2.42,8.81,8.81,0,0,1-1.92,2c-.74-.8-1.5-1.56-2.28-2.32Zm4.12-.18a15.43,15.43,0,0,1,2.23,2.43,9,9,0,0,1-1.92,2c-.74-.8-1.5-1.56-2.28-2.33Z"/><path class="cls-1" d="M244,109.37c-.47,1.54-1.19,2.4-2.3,2.4-1.45,0-3.71-1.13-5.35-3h-.08a3.58,3.58,0,0,1-3.5,2.19h-.27c-.94,0-1.37-1-1.37-2s.43-2,1.37-2h.27c2.68,0,3-1.09,3.65-3.08a5.92,5.92,0,0,1,1.49-2.52,3.31,3.31,0,0,1,2.25-1c2.28,0,3.16,2.6,4.35,5.1a2.91,2.91,0,0,0,2.87,1.52h.28V111h-.28a3.72,3.72,0,0,1-3.34-1.6Zm-1.74-1.53c.3,0,.45-.13.45-.41,0-1-1.36-3.75-3.06-3.75a2.28,2.28,0,0,0-2,1.27C238.42,106.57,241,107.84,242.28,107.84Z"/><path class="cls-1" d="M255.49,107.06V111h-7.81c-.94,0-1.37-1-1.37-2s.43-2,1.37-2Z"/><path class="cls-1" d="M263.3,107.06V111h-7.81c-.94,0-1.37-1-1.37-2s.43-2,1.37-2Z"/><path class="cls-1" d="M271.11,107.06V111H263.3c-.94,0-1.37-1-1.37-2s.43-2,1.37-2Z"/><path class="cls-1" d="M278.93,107.06V111h-7.82c-.93,0-1.36-1-1.36-2s.43-2,1.36-2Z"/><path class="cls-1" d="M288.07,111h-.26c-1.78,0-3.44-.35-4.47-2.13h-.06A4.89,4.89,0,0,1,279.2,111h-.27c-.94,0-1.37-1-1.37-2s.43-2,1.37-2h.27a4.6,4.6,0,0,0,2.65-.66c1.08-.67,1.18-1.92,1.61-2.82.45-.31,1-.66,1.56-1l.14.12a7.42,7.42,0,0,0-.38,1.79,2.11,2.11,0,0,0,1,2,3.85,3.85,0,0,0,2.09.57h.24Zm-5.36-14.85a20.63,20.63,0,0,1,2.8,2.29,6.8,6.8,0,0,1-1.76,2.4c-.8-.7-1.78-1.42-2.83-2.17Z"/><path class="cls-1" d="M297.21,111H297c-1.77,0-3.43-.35-4.47-2.13h-.06a4.89,4.89,0,0,1-4.08,2.13h-.27c-.94,0-1.37-1-1.37-2s.43-2,1.37-2h.27a4.66,4.66,0,0,0,2.66-.66c1.07-.67,1.17-1.92,1.6-2.82.45-.31.95-.66,1.56-1l.14.12a7.28,7.28,0,0,0-.37,1.79,2.1,2.1,0,0,0,.95,2,3.85,3.85,0,0,0,2.09.57h.24Zm-7-14.3a15.35,15.35,0,0,1,2.23,2.42,8.76,8.76,0,0,1-1.91,2c-.74-.8-1.51-1.56-2.29-2.32Zm4.13-.18a16.26,16.26,0,0,1,2.22,2.43,9,9,0,0,1-1.91,2c-.74-.8-1.51-1.56-2.29-2.33Z"/><path class="cls-1" d="M302.23,91c0,1.28.74,2.87,2.14,5.21l-1.73,1.33c.07,1.5.11,3.34.11,5.25a12.7,12.7,0,0,1-.72,4.32,9.16,9.16,0,0,1-1,2.07,4.1,4.1,0,0,1-3.57,1.76h-.27c-.94,0-1.37-1-1.37-2s.43-2,1.37-2h.27a3.83,3.83,0,0,0,2.77-.8c.34-.33.34-.88.34-1.93,0-4.87-.65-9.2-.65-10.18a2.89,2.89,0,0,1,.53-1.82A8.25,8.25,0,0,1,302,90.87Z"/><path class="cls-1" d="M307.09,111.2a34.22,34.22,0,0,0,.25-4.71,115.65,115.65,0,0,0-.66-12.69,31.6,31.6,0,0,1,2.26-2.48l.34.17c.39,4.22.45,8.17.45,12,0,3.06-.18,5.11-.61,5.78a14.24,14.24,0,0,1-1.6,2.28Z"/><path class="cls-1" d="M339.78,105.64c-3.32,0-5.15-1.18-5.15-3.74A5.7,5.7,0,0,1,336.17,98a4.37,4.37,0,0,1,3.11-1.66c2.65,0,4.37,4.51,4.37,8.67a10.68,10.68,0,0,1-1,4.51,9.39,9.39,0,0,1-2.87,1.17,34.34,34.34,0,0,1-9.13,1.18c-6.46,0-9.45-3.09-9.45-6.88a13.24,13.24,0,0,1,1.17-5.51l1.25.47a7.05,7.05,0,0,0-.48,2.48c0,3.09,2.83,5.35,8.71,5.35a36.07,36.07,0,0,0,8.94-1.13c.78-.21,1.11-.51,1.11-1C341.17,105.64,340.47,105.64,339.78,105.64Zm-2.09-15.38a21.47,21.47,0,0,1,2.86,2.33,6.89,6.89,0,0,1-1.8,2.46c-.82-.7-1.82-1.47-2.89-2.21Zm.71,9.11c-1.33,0-2.11.72-2.11,1.3,0,1.1,2,1.86,5.12,1.94C340.68,100.56,339.69,99.37,338.4,99.37Z"/><path class="cls-1" d="M347.25,111.2a34.22,34.22,0,0,0,.25-4.71,118.18,118.18,0,0,0-.66-12.69,31.6,31.6,0,0,1,2.26-2.48l.33.17c.39,4.22.45,8.17.45,12,0,3.06-.17,5.11-.6,5.78a14.24,14.24,0,0,1-1.6,2.28Z"/><path class="cls-1" d="M366.64,111h-.27a4,4,0,0,1-4.22-3.28h-.06a3.56,3.56,0,0,1-1.07,1.89,6.51,6.51,0,0,1-4.2,1.39c-2.05,0-3.46-1.21-3.46-4.55,0-.39,0-1,0-1.66l1.27-.12a2.25,2.25,0,0,0,2.48,2.42,7.12,7.12,0,0,0,2.87-.68c.72-.32,1.23-.69,1.23-1.29a31.12,31.12,0,0,0-1.68-6.53,23.15,23.15,0,0,1,1.8-2.67l.33.1c.49,1.77,1,4,1.68,7.83.39,2.23,1.42,3.24,3,3.24h.27Z"/><path class="cls-1" d="M374.45,107.06V111h-7.81c-.94,0-1.37-1-1.37-2s.43-2,1.37-2Z"/><path class="cls-1" d="M382.27,107.06V111h-7.82c-.93,0-1.36-1-1.36-2s.43-2,1.36-2Z"/><path class="cls-1" d="M382.54,111h-.27c-.94,0-1.37-1-1.37-2s.43-2,1.37-2h.27a21.68,21.68,0,0,0,2.81-.31,17.8,17.8,0,0,1-.14-2,7.21,7.21,0,0,1,3.11-5.94,17.93,17.93,0,0,1,.62-2.17h.34a40.3,40.3,0,0,0,4.41,3.46c2.81,1.89,5,3.32,5,6.21a5.76,5.76,0,0,1-.61,2.6,3.3,3.3,0,0,1-3.18,2.11,26.07,26.07,0,0,1-6.68-1.23A16.18,16.18,0,0,1,382.54,111Zm9-6.45c0-1.46-1-3-2.19-3a3.1,3.1,0,0,0-2.67,2.37c0,1,1.19,1.91,2.52,2.32C390.7,105.93,391.58,105.15,391.58,104.52Zm3.93,3.11c.74,0,1.17-.14,1.17-.43,0-.88-1.43-2-3.56-3.3a10.38,10.38,0,0,1-1,3.16A12.73,12.73,0,0,0,395.51,107.63Z"/><path class="cls-1" d="M404.34,87.18l-.53-.59a.83.83,0,0,0-.67-.27c-.78,0-1.3.39-1.3.68,0,.51.89,1,2.55,1,.73,0,1.29,0,2-.06l.07.17a10.76,10.76,0,0,1-.8,1.59,12.53,12.53,0,0,0-4.88,1.4l-.23-.23c.23-.51.49-1,.76-1.47a1.66,1.66,0,0,1-1.19-1.56,3.36,3.36,0,0,1,1.25-2.21,3.78,3.78,0,0,1,2.42-1c.84,0,1.39.43,1.39,1.09a2.71,2.71,0,0,1-.57,1.45Zm-1.86,24a32.71,32.71,0,0,0,.25-4.71,115.65,115.65,0,0,0-.66-12.69,29.78,29.78,0,0,1,2.27-2.48l.33.17c.39,4.22.45,8.17.45,12,0,3.06-.18,5.11-.61,5.78a14.24,14.24,0,0,1-1.6,2.28Z"/><image width="2151" height="2151" transform="translate(40 179) scale(0.19)" xlink:href="../../sdgg.png"/><path class="cls-2" d="M294.47,293.56c0-1.65.12-1.53-1.53-1.53H265.27c-.71,0-.78.09-.81.77,0,.18,0,.37,0,.56v7.8c0,.26,0,.52,0,.78s.17.51.59.53h10.73c.14,0,.33,0,.37.16a.47.47,0,0,1-.14.28c-.09.12-.21.22-.31.33Q269.83,309.13,264,315a.8.8,0,0,1-.51.31l-.88-.63a38.22,38.22,0,0,0-33.91-5.76A38.31,38.31,0,0,0,234,383.4c.22,0,.44.08.66.13a.37.37,0,0,1,.32.4c0,.26,0,.53,0,.79v8.7c0,1.4.14,1.29-1.25,1.3h-9.26c-.3,0-.61,0-.91,0a.49.49,0,0,0-.49.51c0,.3,0,.6,0,.9v8.25c0,1.61-.06,1.52,1.55,1.52h9.6c.75,0,.75,0,.77.75v.91c0,2.9,0,5.8,0,8.7,0,1,0,1,1,1h8.81c1.34,0,1.34.07,1.34-1.39q0-4.35,0-8.7c0-1.4-.11-1.29,1.26-1.29h9.94c.57,0,.67-.13.7-.66,0-.26,0-.53,0-.79v-8.58c0-1.16,0-1.16-1.22-1.17h-9.37c-.31,0-.61,0-.91,0a.38.38,0,0,1-.4-.43c0-.19,0-.38,0-.56,0-3.13,0-6.26,0-9.38,0-1-.08-.94.95-1.14a37.74,37.74,0,0,0,15.59-6.83,38.21,38.21,0,0,0,15.17-36.31,37.56,37.56,0,0,0-6-15.59c-.15-.22-.29-.44-.44-.65a.38.38,0,0,1,0-.51c.13-.15.26-.27.4-.41l11.42-11.42a.94.94,0,0,1,.69-.4v9.54c0,.3,0,.6,0,.9s.18.46.51.49a5.15,5.15,0,0,0,.56,0h8.25a5.33,5.33,0,0,0,.56,0c.41,0,.54-.15.57-.54s0-.61,0-.91ZM240,373.75a28.2,28.2,0,1,1,28.15-28.23A28.25,28.25,0,0,1,240,373.75Z"/><path class="cls-2" d="M257.55,335.36v6.22c0,.3,0,.6,0,.9a.43.43,0,0,1-.43.43c-.34,0-.68,0-1,0h-32.2c-1.35,0-1.33.05-1.32-1.27v-6.44c0-.27,0-.53,0-.79A.45.45,0,0,1,223,334a7,7,0,0,1,.79,0h33c.62,0,.73.14.75.72C257.55,334.91,257.55,335.14,257.55,335.36Z"/><path class="cls-2" d="M257.54,357c0,.54-.13.65-.67.68H224.12c-.34,0-.67,0-1,0s-.52-.17-.53-.58c0-.64,0-1.28,0-1.92v-5.3a6.84,6.84,0,0,1,.05-.79.31.31,0,0,1,.29-.29,8.65,8.65,0,0,1,1-.05h32c.34,0,.68,0,1,0,.53,0,.64.11.64.69Q257.56,353.25,257.54,357Z"/><path class="cls-2" d="M300.16,440.79c.21,0,.27-.1.34-.19a5.3,5.3,0,0,1,3.19-2,7.75,7.75,0,0,1,3.52-.07,6,6,0,0,1,3.91,2.83,9.16,9.16,0,0,1,1.14,3.24,14,14,0,0,1,.2,2.24c0,3.37,0,6.74,0,10.11a11.27,11.27,0,0,1-.54,3.5,6.94,6.94,0,0,1-4.28,4.52,9.18,9.18,0,0,1-2.36.59,14.59,14.59,0,0,1-5.66-.27,6.91,6.91,0,0,1-5-4.64,11.59,11.59,0,0,1-.66-3.49c-.05-1.74,0-3.49,0-5.24,0-.42.07-.48.49-.49h5.05c.42,0,.48.06.48.5,0,1.41,0,2.81,0,4.22a7.81,7.81,0,0,0,.16,1.67,2.9,2.9,0,0,0,4.16,2.13,2.32,2.32,0,0,0,1.23-1.34,5.2,5.2,0,0,0,.31-1.75c0-.49,0-1,0-1.49q0-3.84,0-7.68c0-.53,0-1.06-.09-1.59a3.84,3.84,0,0,0-.2-.81,2.4,2.4,0,0,0-1.89-1.62,2.74,2.74,0,0,0-3.38,2,7,7,0,0,0-.17,1.76c0,.57,0,.59-.57.6-1.12,0-2.25,0-3.37,0-.56,0-1.12,0-1.68,0-.32,0-.39-.08-.41-.38s0-.5,0-.75V427c0-.22,0-.44,0-.66s.06-.41.45-.42h15.91c1.13,0,1-.1,1,1.07v3.28c0,.22,0,.44,0,.65a.34.34,0,0,1-.34.37c-.25,0-.5,0-.75,0h-9.26c-1.11,0-1-.07-1,1V440A2,2,0,0,0,300.16,440.79Z"/><path class="cls-2" d="M202.79,440.71a3.76,3.76,0,0,1-4.13-4.14,5.62,5.62,0,0,1,.54-2.44,4.46,4.46,0,0,1,1.51-1.78,3.74,3.74,0,0,1,2.13-.65,3.59,3.59,0,0,1,2.07.67,4.55,4.55,0,0,1,1.52,1.82,5.4,5.4,0,0,1,.56,2.38,4.14,4.14,0,0,1-1.06,3.08A4.23,4.23,0,0,1,202.79,440.71Zm-1.74-10.52a1.1,1.1,0,0,1-.71-.25,1.06,1.06,0,0,1-.29-.82,1,1,0,0,1,1-1.08,1,1,0,0,1,.72.28,1.33,1.33,0,0,1,0,1.59A1,1,0,0,1,201.05,430.19Zm1.78,9.15c1.7,0,2.55-.91,2.55-2.75a4.32,4.32,0,0,0-.68-2.56,2.26,2.26,0,0,0-3.71,0,4.08,4.08,0,0,0-.73,2.53C200.26,438.43,201.12,439.34,202.83,439.34Zm1.3-9.15a1,1,0,0,1-.73-.28,1.31,1.31,0,0,1,0-1.59,1,1,0,0,1,.73-.28.92.92,0,0,1,.74.3,1.08,1.08,0,0,1,.26.78,1.12,1.12,0,0,1-.26.78A1,1,0,0,1,204.13,430.19Z"/><path class="cls-2" d="M209.93,427h1.58v13.56h-1.58Z"/><path class="cls-2" d="M217.67,444.82a5.72,5.72,0,0,1-3.21-.91l.71-1.2a6.56,6.56,0,0,0,1.19.51,4.05,4.05,0,0,0,1.34.21,2.67,2.67,0,0,0,1.9-.65,2.26,2.26,0,0,0,.69-1.73v-.51h-1.75a4,4,0,0,1-2.94-1.05,4.11,4.11,0,0,1-1-3,4.37,4.37,0,0,1,1.33-3.34,5,5,0,0,1,3.56-1.24h2.34V441a3.71,3.71,0,0,1-1.08,2.84A4.23,4.23,0,0,1,217.67,444.82Zm2.6-5.68v-5.87h-.76a3.44,3.44,0,0,0-2.47.84,3.07,3.07,0,0,0-.88,2.34,2.93,2.93,0,0,0,.6,2,2.35,2.35,0,0,0,1.83.65Z"/><path class="cls-2" d="M225.09,427h1.58v12.16H229c.07,0,.1,0,.1.07v1.24c0,.06,0,.09-.1.09h-3.93Z"/><path class="cls-2" d="M245.47,440.54a4,4,0,0,1-1.48-.27,4.24,4.24,0,0,1-1.39-1,2.89,2.89,0,0,1-1,.9,3.27,3.27,0,0,1-1.56.35H228.85a.08.08,0,0,1-.09-.09v-1.24s0-.07.09-.07h7.55v-5.87h1.51v5.87h1.93a1.66,1.66,0,0,0,1.34-.57,2.24,2.24,0,0,0,.48-1.49v-3.81h1.51v4.29l0,.2a2.85,2.85,0,0,0,1,1.07,2.62,2.62,0,0,0,1.35.31h1.09v-7.25h1.51v7.25h10.39c.06,0,.09,0,.09.07v1.24a.08.08,0,0,1-.09.09Z"/><path class="cls-2" d="M258.28,440.54c-.06,0-.08,0-.08-.09v-1.24s0-.07.08-.07h2.21a8.67,8.67,0,0,1-.66-3.05,6.1,6.1,0,0,1,.65-2.84,5.36,5.36,0,0,1,1.49-.87,5,5,0,0,1,1.76-.32,3.8,3.8,0,0,1,2,.49A3.32,3.32,0,0,1,267,434a4.59,4.59,0,0,1,.45,2.06,5.72,5.72,0,0,1-.37,2.1,2.16,2.16,0,0,0,.85.81,3,3,0,0,0,1.25.22h.09c.06,0,.1,0,.1.07v1.24c0,.06,0,.09-.1.09h-.09a4.58,4.58,0,0,1-1.62-.26,3.85,3.85,0,0,1-1.28-.9,3.5,3.5,0,0,1-1.32.87,4.45,4.45,0,0,1-1.57.29Zm3.15-4.75a8.72,8.72,0,0,0,.15,1.62,9.32,9.32,0,0,0,.53,1.73h1.27a2.17,2.17,0,0,0,1.82-.81,3.68,3.68,0,0,0,.64-2.34,2.73,2.73,0,0,0-.62-1.84,1.86,1.86,0,0,0-1.49-.71,3.06,3.06,0,0,0-1.11.2,3.64,3.64,0,0,0-1,.53,2.55,2.55,0,0,0-.18.76C261.45,435.19,261.43,435.48,261.43,435.79Z"/><path class="cls-2" d="M269.09,440.54a.08.08,0,0,1-.09-.09v-1.24s0-.07.09-.07h2.35V427H273v13.56Z"/><path class="cls-2" d="M276.59,427h1.58v13.56h-1.58Z"/><path class="cls-2" d="M176.85,462a4.45,4.45,0,0,1-1.1,3.2,4.53,4.53,0,0,1-3.34,1.08h-1.28a3.22,3.22,0,0,1-2.63-1.16,4.77,4.77,0,0,1-1-3.14,10.44,10.44,0,0,1,.74-3.95h1.48a10.45,10.45,0,0,0-.61,3.84,3.59,3.59,0,0,0,.6,2.23,2,2,0,0,0,1.72.79h.87a3.15,3.15,0,0,0,2.27-.71,2.9,2.9,0,0,0,.73-2.15V453.3h1.51v7.25h2c.06,0,.09,0,.09.07v1.24a.08.08,0,0,1-.09.09Zm-4.61-8.66a1,1,0,0,1-.73-.28,1.11,1.11,0,0,1-.28-.8,1.1,1.1,0,0,1,.27-.79,1,1,0,0,1,.74-.28.94.94,0,0,1,.74.3,1.12,1.12,0,0,1,.26.77,1.17,1.17,0,0,1-.26.79A1,1,0,0,1,172.24,453.29Z"/><path class="cls-2" d="M178.63,462s-.08,0-.08-.09v-1.24a.07.07,0,0,1,.08-.07h2.9V453.3h1.58v7.25h2.67c.06,0,.09,0,.09.07v1.24a.08.08,0,0,1-.09.09Zm2.2,3.57a1.08,1.08,0,0,1-.71-.25,1,1,0,0,1-.29-.82,1,1,0,0,1,.29-.82,1,1,0,0,1,.71-.26,1,1,0,0,1,.72.28,1.09,1.09,0,0,1,.27.8,1.14,1.14,0,0,1-.26.79A1,1,0,0,1,180.83,465.52Zm3.08,0a1,1,0,0,1-.73-.28,1.1,1.1,0,0,1-.27-.79,1.15,1.15,0,0,1,.26-.8,1,1,0,0,1,.74-.28.92.92,0,0,1,.74.3,1.13,1.13,0,0,1,.26.78,1.17,1.17,0,0,1-.26.78A1,1,0,0,1,183.91,465.52Z"/><path class="cls-2" d="M200.23,462a4,4,0,0,1-1.48-.27,4.24,4.24,0,0,1-1.39-1,3,3,0,0,1-1.05.9,3.27,3.27,0,0,1-1.56.35h-9.14a.08.08,0,0,1-.09-.09v-1.24s0-.07.09-.07h5.55v-5.87h1.51v5.87h1.93a1.66,1.66,0,0,0,1.34-.57,2.24,2.24,0,0,0,.48-1.49v-3.81h1.51V459l0,.2a2.85,2.85,0,0,0,1,1.07,2.62,2.62,0,0,0,1.35.31h1.09V453.3h1.51v7.25h4.39c.06,0,.09,0,.09.07v1.24a.08.08,0,0,1-.09.09Z"/><path class="cls-2" d="M207,462c-.06,0-.08,0-.08-.09v-1.24s0-.07.08-.07h2.35V453.3H211v7.25h2.32c.06,0,5.09,0,5.09.07v1.24c0,.06-5,.09-5.09.09Zm3.08-10.35a1,1,0,0,1-.73-.28,1.31,1.31,0,0,1,0-1.59,1,1,0,0,1,.73-.28.92.92,0,0,1,.74.3,1.25,1.25,0,0,1,0,1.55A.92.92,0,0,1,210.12,451.6Z"/><path class="cls-2" d="M213.12,462a.08.08,0,0,1-.09-.09v-1.24s0-.07.09-.07h12.64a6.69,6.69,0,0,1-1.12-3.26,4.75,4.75,0,0,0-.76-2.15,1.78,1.78,0,0,0-1.49-.63,5.47,5.47,0,0,0-2.58.71l-.62-1.23a5.17,5.17,0,0,1,1.55-.69,7.29,7.29,0,0,1,1.67-.19,3.83,3.83,0,0,1,1.82.39,2.84,2.84,0,0,1,1.16,1.17,6.69,6.69,0,0,1,.66,2.21c.27,1.86.7,3.09,1.29,3.67h1.19c.06,0,.09,0,.09.07v1.24a.08.08,0,0,1-.09.09Zm9.24,3.57a1,1,0,0,1-.73-.28,1.1,1.1,0,0,1-.27-.79,1.15,1.15,0,0,1,.26-.8,1,1,0,0,1,.74-.28.92.92,0,0,1,.74.3,1.13,1.13,0,0,1,.26.78,1.17,1.17,0,0,1-.26.78A1,1,0,0,1,222.36,465.52Z"/><path class="cls-2" d="M228.36,462a.08.08,0,0,1-.09-.09v-1.24s0-.07.09-.07h2.35V448.39h1.58V462Z"/><path class="cls-2" d="M235.86,448.39h1.59V462h-1.59Z"/><path class="cls-2" d="M255.75,462a4.45,4.45,0,0,1-1.09,3.2,4.56,4.56,0,0,1-3.35,1.08H250a3.22,3.22,0,0,1-2.63-1.16,4.82,4.82,0,0,1-1-3.14,10.44,10.44,0,0,1,.73-3.95h1.48a10.45,10.45,0,0,0-.61,3.84,3.59,3.59,0,0,0,.6,2.23,2,2,0,0,0,1.72.79h.87a3.18,3.18,0,0,0,2.28-.71,2.89,2.89,0,0,0,.72-2.15V453.3h1.51v7.25h2c.07,0,.1,0,.1.07v1.24c0,.06,0,.09-.1.09Zm-4.61-8.66a1,1,0,0,1-.73-.28,1.11,1.11,0,0,1-.27-.8,1.14,1.14,0,0,1,.26-.79,1,1,0,0,1,.74-.28.94.94,0,0,1,.74.3,1.12,1.12,0,0,1,.26.77,1.17,1.17,0,0,1-.26.79A1,1,0,0,1,251.14,453.29Z"/><path class="cls-2" d="M257.54,462a.08.08,0,0,1-.09-.09v-1.24s0-.07.09-.07h12.89V453.3H272v7.25h2.67c.06,0,.09,0,.09.07v1.24a.08.08,0,0,1-.09.09Zm12.19,3.57a1.1,1.1,0,0,1-.71-.25,1.06,1.06,0,0,1-.29-.82,1,1,0,0,1,1-1.08,1,1,0,0,1,.72.28,1.09,1.09,0,0,1,.27.8,1.14,1.14,0,0,1-.26.79A1,1,0,0,1,269.73,465.52Zm3.08,0a1,1,0,0,1-.73-.28,1.31,1.31,0,0,1,0-1.59,1,1,0,0,1,.73-.28.92.92,0,0,1,.74.3,1.08,1.08,0,0,1,.26.78,1.12,1.12,0,0,1-.26.78A1,1,0,0,1,272.81,465.52Z"/><path class="cls-2" d="M274.51,462a.08.08,0,0,1-.09-.09v-1.24s0-.07.09-.07h2.35V453.3h1.58V462Zm3.06,3.57a1,1,0,0,1-.73-.28,1.31,1.31,0,0,1,0-1.59,1,1,0,0,1,.73-.28.92.92,0,0,1,.74.3,1.09,1.09,0,0,1,.27.78,1.12,1.12,0,0,1-.27.78A1,1,0,0,1,277.57,465.52Z"/></svg>