<svg id="Layer_1" data-name="Layer 1" xmlns="http://www.w3.org/2000/svg" xmlns:xlink="http://www.w3.org/1999/xlink" viewBox="0 0 480 638"><defs><style>.cls-1{fill:#de1768;}.cls-2{fill:#006080;}</style></defs><image width="2151" height="2151" transform="translate(40 179) scale(0.19)" xlink:href="../../sdgg.png"/><path class="cls-1" d="M240.32,373.06h-22.6c-1.46,0-1.53.07-1.52-1.46,0-3.06,0-6.12,0-9.19v-.58c0-.68.15-.79.86-.82h46.86c.58,0,.73.18.77.8,0,.2,0,.39,0,.59v9.3c0,1.33,0,1.36-1.41,1.36Z"/><path class="cls-1" d="M240.47,334.64h22.61c1.54,0,1.62-.13,1.62,1.62,0,3,0,6,0,9.07,0,1.34,0,1.37-1.39,1.37H217.61a7.48,7.48,0,0,1-.82,0c-.38,0-.54-.2-.58-.61,0-.19,0-.39,0-.59v-9.65c0-1.16,0-1.19,1.19-1.19Z"/><path class="cls-1" d="M264.58,394.55a2.73,2.73,0,0,1-.77,1l-20.56,20.57c-1,1-.77,1-1.77,0l-20.57-20.57-.58-.58c-.08-.09-.15-.2-.07-.31a.35.35,0,0,1,.19-.1h42.74Z"/><path class="cls-1" d="M280.52,331.45c1,.79,21.69,21.48,22.32,22.29a1,1,0,0,1-.17.28q-10.94,11-21.85,21.87c-.29,0-.3-.19-.3-.35V331.45Z"/><path class="cls-1" d="M199.46,376l-22.3-22.28c0-.22.21-.35.37-.5l21.13-21.14.16-.16c.15-.13.27-.37.47-.3s.14.39.17.6a5.81,5.81,0,0,1,0,.59V376Z"/><path class="cls-1" d="M262.55,314.13c-.07.06-.14.13-.2.13l-43.42,0a.86.86,0,0,1-.56-.13c-.06-.23.11-.35.24-.49l.49-.5,20.39-20.38c1-1,.8-1.08,1.86,0l20.47,20.47C262.09,313.52,262.44,313.74,262.55,314.13Z"/><path class="cls-1" d="M323.7,435.48a13.67,13.67,0,0,0-1-5.39,8.3,8.3,0,0,0-5.77-5,12.68,12.68,0,0,0-5.38-.22,8.47,8.47,0,0,0-7,5.92,14.09,14.09,0,0,0-.73,4.59v9.82c0,3.3,0,6.6,0,9.91a13.49,13.49,0,0,0,.89,4.94,8.39,8.39,0,0,0,6,5.33,12.57,12.57,0,0,0,6.5-.11,8.22,8.22,0,0,0,4.23-2.77,9.7,9.7,0,0,0,1.78-3.56,15.61,15.61,0,0,0,.52-4.14c0-4.38,0-8.77,0-13.15C323.7,439.61,323.72,437.55,323.7,435.48Zm-6.77,20.4a7.41,7.41,0,0,1-.22,2,3.11,3.11,0,0,1-4.48,1.95,2.54,2.54,0,0,1-1.19-1.19,4.25,4.25,0,0,1-.47-1.63c0-.54-.05-1.08-.05-1.62q0-10.15,0-20.3c0-.54,0-1.08.06-1.61a4,4,0,0,1,.52-1.72,2.6,2.6,0,0,1,1.78-1.31,4,4,0,0,1,.48-.07,2.94,2.94,0,0,1,3.36,2.29,7.75,7.75,0,0,1,.21,2Z"/><path class="cls-1" d="M299.11,426.17v38.5c0,.56-.06.65-.66.65h-5.53c-.5,0-.56-.07-.58-.53,0-.26,0-.51,0-.77V436c0-.37,0-.75,0-1.12l-.2-.07c-1.48,1.52-2.95,3.05-4.4,4.55-.26-.09-.22-.26-.22-.41,0-2,0-3.94,0-5.91a1.4,1.4,0,0,1,.39-1c1.8-2.1,3.6-4.2,5.38-6.31a1.32,1.32,0,0,1,1.14-.53c1.3,0,2.6,0,3.91,0a3.62,3.62,0,0,1,.47,0,.32.32,0,0,1,.31.3C299.11,425.72,299.11,426,299.11,426.17Z"/><path class="cls-1" d="M177,440a4.91,4.91,0,0,1-3.4-1.1,4,4,0,0,1-1.21-3.09,4.35,4.35,0,0,1,1.35-3.38,5.14,5.14,0,0,1,3.62-1.23h1.2V430h1.55v8.53h2.07c.06,0,.09,0,.09.07v1.26a.08.08,0,0,1-.09.09Zm1.56-1.42v-6h-1.14a3.6,3.6,0,0,0-2.53.83,3.08,3.08,0,0,0-.89,2.35,2.69,2.69,0,0,0,.77,2.07,3.11,3.11,0,0,0,2.19.72Z"/><path class="cls-1" d="M182,440a.08.08,0,0,1-.09-.09v-1.26s0-.07.09-.07h7.79a7,7,0,0,1-1.15-3.32,4.84,4.84,0,0,0-.77-2.2,1.81,1.81,0,0,0-1.51-.63,5.71,5.71,0,0,0-2.64.72l-.63-1.25a5.36,5.36,0,0,1,1.58-.7,7.08,7.08,0,0,1,1.7-.19,3.88,3.88,0,0,1,1.86.4,2.91,2.91,0,0,1,1.18,1.18,6.94,6.94,0,0,1,.67,2.25,13.92,13.92,0,0,0,.6,2.5,3.23,3.23,0,0,0,.77,1.28V440Zm4.32,3.64a1,1,0,0,1-.74-.29,1.08,1.08,0,0,1-.28-.8,1.13,1.13,0,0,1,.27-.81,1,1,0,0,1,.75-.28.92.92,0,0,1,.75.29,1.16,1.16,0,0,1,.27.8,1.13,1.13,0,0,1-.27.79A.93.93,0,0,1,186.27,443.63Z"/><path class="cls-1" d="M197,444.35a5.8,5.8,0,0,1-3.27-.93l.72-1.21a7.61,7.61,0,0,0,1.21.52,4.24,4.24,0,0,0,1.37.21,2.78,2.78,0,0,0,1.94-.66,2.36,2.36,0,0,0,.7-1.77V440h-1.79a4,4,0,0,1-3-1.06,4.17,4.17,0,0,1-1.06-3.08,4.39,4.39,0,0,1,1.36-3.4,5.11,5.11,0,0,1,3.63-1.26h2.37v9.24a3.81,3.81,0,0,1-1.09,2.89A4.35,4.35,0,0,1,197,444.35Zm2.65-5.78v-6h-.78a3.51,3.51,0,0,0-2.52.85,3.11,3.11,0,0,0-.9,2.38,3,3,0,0,0,.62,2.08,2.43,2.43,0,0,0,1.87.66Z"/><path class="cls-1" d="M203.56,425.55l.86-.12a1.31,1.31,0,0,1-.63-1.15,1.51,1.51,0,0,1,.5-1.21,2.06,2.06,0,0,1,1.35-.43,2.47,2.47,0,0,1,1.2.28l-.28.82a1.67,1.67,0,0,0-.9-.23,1.05,1.05,0,0,0-.68.23.88.88,0,0,0-.27.71.83.83,0,0,0,.16.52.89.89,0,0,0,.39.33c.12,0,.41-.08.87-.14a8.66,8.66,0,0,1,1-.09V426l-.65.05c-.33,0-1,.11-1.85.23l-1,.16Zm1,1.72h1.62V440h-1.62Z"/><path class="cls-1" d="M224.85,440a4.54,4.54,0,0,1-1.12,3.26,4.6,4.6,0,0,1-3.41,1.1H219a3.29,3.29,0,0,1-2.68-1.18,4.85,4.85,0,0,1-1-3.2,10.75,10.75,0,0,1,.74-4h1.51a10.76,10.76,0,0,0-.62,3.91,3.65,3.65,0,0,0,.61,2.27,2.09,2.09,0,0,0,1.76.8h.88a3.21,3.21,0,0,0,2.32-.72,2.94,2.94,0,0,0,.73-2.19v-8.84h1.55v7.38h2c.07,0,2.1,0,2.1.07v1.26c0,.06-2,.09-2.1.09Zm-4.7-8.81a1,1,0,0,1-.75-.29,1.34,1.34,0,0,1,0-1.61,1,1,0,0,1,.75-.29,1,1,0,0,1,.75.3,1.31,1.31,0,0,1,0,1.59A1,1,0,0,1,220.15,431.18Z"/><path class="cls-1" d="M226.67,440a.08.08,0,0,1-.09-.09v-1.26s0-.07.09-.07h4.25a8.8,8.8,0,0,1-.68-3.1,6.16,6.16,0,0,1,.66-2.89,5.26,5.26,0,0,1,1.53-.89,4.94,4.94,0,0,1,1.79-.33,3.92,3.92,0,0,1,2,.5,3.26,3.26,0,0,1,1.32,1.43,4.56,4.56,0,0,1,.46,2.09,5.59,5.59,0,0,1-.51,2.47,3.77,3.77,0,0,1-1.47,1.59,4.18,4.18,0,0,1-2.16.55Zm5.21-4.83a9,9,0,0,0,.15,1.65,8.92,8.92,0,0,0,.54,1.76h1.28a2.25,2.25,0,0,0,1.87-.82,3.82,3.82,0,0,0,.64-2.39,2.81,2.81,0,0,0-.62-1.87,2,2,0,0,0-1.52-.73,3.14,3.14,0,0,0-1.13.21,3.38,3.38,0,0,0-1,.54,2.62,2.62,0,0,0-.19.78Q231.88,434.68,231.88,435.16Z"/><path class="cls-1" d="M247.06,429.34a1.39,1.39,0,0,1-1.11-.45,2,2,0,0,1-.38-1.31v-1.14h1v1a1.36,1.36,0,0,0,.16.77.63.63,0,0,0,.56.23c.54,0,.8-.28.8-.84V426h.85v1.24a1,1,0,0,0,.17.66.69.69,0,0,0,.53.17.78.78,0,0,0,.66-.23,1.37,1.37,0,0,0,.17-.77v-1.34h1v1.51a1.87,1.87,0,0,1-.4,1.3,1.43,1.43,0,0,1-1.16.46,1.52,1.52,0,0,1-1.28-.54A1.51,1.51,0,0,1,247.06,429.34Z"/><path class="cls-1" d="M246.17,438.57h6.05a11.46,11.46,0,0,0-1.36-4.15,9.24,9.24,0,0,0-2.85-3l.58-1.37a8.78,8.78,0,0,1,3.41,3.25,13.51,13.51,0,0,1,1.76,5.24h2c.06,0,.09,0,.09.07v1.26a.08.08,0,0,1-.09.09h-9.61Z"/><path class="cls-1" d="M255.6,440a.08.08,0,0,1-.09-.09v-1.26s0-.07.09-.07h7.78a6.87,6.87,0,0,1-1.14-3.32,4.93,4.93,0,0,0-.77-2.19,1.82,1.82,0,0,0-1.52-.64,5.64,5.64,0,0,0-2.63.72l-.63-1.25a5.3,5.3,0,0,1,1.57-.7A7.17,7.17,0,0,1,260,431a3.81,3.81,0,0,1,1.85.4,2.94,2.94,0,0,1,1.19,1.18,7.19,7.19,0,0,1,.67,2.25,6.9,6.9,0,0,0,1.31,3.74h1.21c.06,0,.09,0,.09.07v1.26a.08.08,0,0,1-.09.09Z"/><path class="cls-1" d="M266,440a.08.08,0,0,1-.09-.09v-1.26s0-.07.09-.07h2.39V426.19H270V440Z"/><path class="cls-1" d="M273.67,426.19h1.62V440h-1.62Z"/><path class="cls-1" d="M169.09,462a3.82,3.82,0,0,1-4.21-4.21,5.63,5.63,0,0,1,.55-2.48,4.44,4.44,0,0,1,1.54-1.82,3.8,3.8,0,0,1,2.17-.66,3.65,3.65,0,0,1,2.11.68,4.71,4.71,0,0,1,1.55,1.85,5.47,5.47,0,0,1,.56,2.43,4.25,4.25,0,0,1-1.07,3.14A4.39,4.39,0,0,1,169.09,462Zm-1.77-10.71a1,1,0,0,1-.73-.26,1.33,1.33,0,0,1,0-1.66,1.09,1.09,0,0,1,.73-.26,1,1,0,0,1,.73.28,1.06,1.06,0,0,1,.28.81,1.13,1.13,0,0,1-.27.81A1,1,0,0,1,167.32,451.25Zm1.81,9.32c1.73,0,2.59-.93,2.59-2.8a4.39,4.39,0,0,0-.69-2.61,2.23,2.23,0,0,0-1.92-1,2.26,2.26,0,0,0-1.86,1,4.22,4.22,0,0,0-.74,2.58C166.51,459.64,167.38,460.57,169.13,460.57Zm1.33-9.32a1,1,0,0,1-.75-.28,1.35,1.35,0,0,1,0-1.62,1,1,0,0,1,.75-.28,1,1,0,0,1,.75.3,1.29,1.29,0,0,1,0,1.58A1,1,0,0,1,170.46,451.25Z"/><path class="cls-1" d="M176.36,448H178v13.8h-1.62Z"/><path class="cls-1" d="M184.25,466.15a5.86,5.86,0,0,1-3.28-.93l.73-1.22a7.61,7.61,0,0,0,1.21.52,4.24,4.24,0,0,0,1.37.21,2.69,2.69,0,0,0,1.93-.66,2.3,2.3,0,0,0,.71-1.76v-.52h-1.79a4,4,0,0,1-3-1.07,4.16,4.16,0,0,1-1.06-3.08,4.42,4.42,0,0,1,1.36-3.4,5.1,5.1,0,0,1,3.62-1.26h2.38v9.24a3.78,3.78,0,0,1-1.09,2.89A4.35,4.35,0,0,1,184.25,466.15Zm2.65-5.78v-6h-.78a3.51,3.51,0,0,0-2.52.85,3.13,3.13,0,0,0-.9,2.39,3,3,0,0,0,.62,2.08,2.43,2.43,0,0,0,1.87.66Z"/><path class="cls-1" d="M191.8,448h1.62v12.38h2.39c.07,0,.1,0,.1.07v1.26c0,.06,0,.09-.1.09h-4Z"/><path class="cls-1" d="M207.47,461.79a4.08,4.08,0,0,1-1.5-.27,4.58,4.58,0,0,1-1.42-1,3.07,3.07,0,0,1-1.07.91,3.28,3.28,0,0,1-1.59.36h-6.26a.08.08,0,0,1-.09-.09v-1.26c0-.05,0-.07.09-.07h2.6v-6h1.54v6h2a1.72,1.72,0,0,0,1.37-.58,2.28,2.28,0,0,0,.49-1.52v-3.88h1.54v4.36l0,.21a2.88,2.88,0,0,0,1,1.09,2.7,2.7,0,0,0,1.37.32h1.11V453h1.54v7.39h7.43c.07,0,.1,0,.1.07v1.26c0,.06,0,.09-.1.09Z"/><path class="cls-1" d="M217.38,461.79a.08.08,0,0,1-.09-.09v-1.26c0-.05,0-.07.09-.07h2.25a8.85,8.85,0,0,1-.68-3.11,6.18,6.18,0,0,1,.66-2.89,5,5,0,0,1,1.53-.88,4.94,4.94,0,0,1,1.79-.33,3.82,3.82,0,0,1,2,.5,3.24,3.24,0,0,1,1.32,1.42,4.59,4.59,0,0,1,.47,2.09,5.7,5.7,0,0,1-.39,2.14,2.29,2.29,0,0,0,.88.83,3,3,0,0,0,1.27.23h.09c.06,0,.1,0,.1.07v1.26c0,.06,0,.09-.1.09h-.09a4.53,4.53,0,0,1-1.65-.27,3.84,3.84,0,0,1-1.31-.91,3.62,3.62,0,0,1-1.34.89,4.63,4.63,0,0,1-1.61.29Zm3.21-4.84a8.46,8.46,0,0,0,.69,3.42h1.28a2.26,2.26,0,0,0,1.87-.83,3.79,3.79,0,0,0,.64-2.38,2.73,2.73,0,0,0-.62-1.87,1.93,1.93,0,0,0-1.52-.73,3.36,3.36,0,0,0-1.13.2,3.92,3.92,0,0,0-1,.54,3.17,3.17,0,0,0-.19.78Q220.59,456.47,220.59,457Z"/><path class="cls-1" d="M228.38,461.79a.08.08,0,0,1-.09-.09v-1.26c0-.05,0-.07.09-.07h2.4V448h1.61v13.8Z"/><path class="cls-1" d="M236,448h1.61v13.8H236Z"/><path class="cls-1" d="M249.63,461.79a1.16,1.16,0,0,0-1.3,1.33v4.47h-1.52v-4.75a2.91,2.91,0,0,1,.29-1.34,2.09,2.09,0,0,1,.8-.84,2.14,2.14,0,0,1,1.13-.29h.12a8.87,8.87,0,0,1-.66-3.11,6.33,6.33,0,0,1,.64-2.89,5.19,5.19,0,0,1,1.54-.88,4.94,4.94,0,0,1,1.79-.33,3.8,3.8,0,0,1,2,.5,3.32,3.32,0,0,1,1.33,1.42,4.72,4.72,0,0,1,.46,2.09,5.52,5.52,0,0,1-.52,2.47,3.77,3.77,0,0,1-1.47,1.59,4.15,4.15,0,0,1-2.15.56Zm.49-4.84a10.14,10.14,0,0,0,.14,1.66,8.55,8.55,0,0,0,.55,1.76h1.29a2.22,2.22,0,0,0,1.86-.83,3.79,3.79,0,0,0,.64-2.38,2.73,2.73,0,0,0-.62-1.87,1.92,1.92,0,0,0-1.52-.73,3.51,3.51,0,0,0-2.13.74,2.75,2.75,0,0,0-.18.78Q250.12,456.47,250.12,457Z"/><path class="cls-1" d="M258.23,460.37h6a11.52,11.52,0,0,0-1.36-4.16,9.1,9.1,0,0,0-2.85-3l.58-1.38a8.74,8.74,0,0,1,3.41,3.26,13.45,13.45,0,0,1,1.76,5.24h2s.08,0,.08.07v1.26c0,.06,0,.09-.08.09h-9.62Z"/><path class="cls-1" d="M267.66,461.79a.08.08,0,0,1-.09-.09v-1.26c0-.05,0-.07.09-.07h2.79a3.56,3.56,0,0,1-.93-1.34,4.82,4.82,0,0,1-.35-1.89,4.28,4.28,0,0,1,1.17-3.2,4.33,4.33,0,0,1,3.15-1.15,6.48,6.48,0,0,1,1.44.16,4.34,4.34,0,0,1,1.08.38l-.49,1.35a5.59,5.59,0,0,0-2.12-.47q-2.58,0-2.58,3a3.87,3.87,0,0,0,.61,2.28,1.88,1.88,0,0,0,1.62.88h3.24v1.42Z"/><path class="cls-2" d="M95.43,58.76h-5.1l.29-1.23h5.13Z"/><path class="cls-2" d="M118,47.78c.16,3.1.19,6.28.19,9.46a5,5,0,0,0,.87,3.19,2.29,2.29,0,0,0,1.71.66h.2V63h-.26c-2.53,0-3.56-1.94-3.59-4h-.07a4.28,4.28,0,0,1-2.2,2.63v0a1.66,1.66,0,0,1,1.41,1.89,4.4,4.4,0,0,1-.6,2,9.37,9.37,0,0,1-6.6,3,5.19,5.19,0,0,1-3.5-1.38A5.55,5.55,0,0,1,104,63.11a11.25,11.25,0,0,1,1.1-4.6l.57.22a9.27,9.27,0,0,0-.66,3.08,4.92,4.92,0,0,0,.85,2.89,4.2,4.2,0,0,0,3.34,1.67,8.22,8.22,0,0,0,4.22-1.1,7.37,7.37,0,0,0,1.86-1.45c0-.56-2.42-1-4.59-1.2l-.07-.14.78-1.61a10.5,10.5,0,0,0,3.94-1.26c1.33-1,1.46-1.48,1.46-4.16,0-2-.13-4.14-.25-6.38a12.74,12.74,0,0,1,1.26-1.38Zm-9.26,24.83c-.6-.58-1.13-1-1.71-1.53a13.31,13.31,0,0,1,1.16-1.39,14.25,14.25,0,0,1,1.67,1.57A8,8,0,0,1,108.74,72.61Zm2.83-.19c-.6-.58-1.13-1-1.71-1.53A13.5,13.5,0,0,1,111,69.5a13.5,13.5,0,0,1,1.67,1.57A8.43,8.43,0,0,1,111.57,72.42Z"/><path class="cls-2" d="M129.7,58.38a13.69,13.69,0,0,0-4.6-1,2.35,2.35,0,0,0-1.86.73l.18.73L123,60.14h-.15l-.71-1.93a2.9,2.9,0,0,1,3.18-2.64,14.2,14.2,0,0,1,4.8,1.26,6.87,6.87,0,0,0,2.5.48h1.28l0,0L133,58.85a4.71,4.71,0,0,0-2.48.56L128.08,61a11.43,11.43,0,0,1-6.43,2H121a.94.94,0,0,1-1-1,.91.91,0,0,1,1-.9h.9c2.37,0,4.8-.83,7.82-2.65Zm1.65,1h0c.06,1.25,1.08,1.7,2.59,1.7h.4V63h-.46c-1.89,0-3.15-.66-3.15-2.42a7.52,7.52,0,0,1,0-.82Z"/><path class="cls-2" d="M137.92,61.71A4.72,4.72,0,0,1,134.58,63h-.2a.94.94,0,0,1-1-1,.92.92,0,0,1,1-.9h.13a5.34,5.34,0,0,0,3.32-1c-.26-2.84-.32-5.77-.32-8,0-.59-.11-1.53-.11-2.22a1.81,1.81,0,0,1,.45-1.29,5.6,5.6,0,0,1,.82-.76l.15.09a3,3,0,0,0,0,.62,5.94,5.94,0,0,0,1.13,3l-1.07.75a48.75,48.75,0,0,0,.25,7.14l.06,0a3.73,3.73,0,0,1,1.87-.51,2.2,2.2,0,0,1,1.67.81,3.16,3.16,0,0,1,.71,2,2.57,2.57,0,0,1-2.32,2.81c-1.36,0-2.49-1.1-3.07-2.77Zm3.83,1.13a1.11,1.11,0,0,0,.71-.27,2.15,2.15,0,0,0-.54-1.36,1.72,1.72,0,0,0-1.38-.66,2.18,2.18,0,0,0-1.18.32A2.77,2.77,0,0,0,141.75,62.84Z"/><path class="cls-2" d="M146.08,63.22a19,19,0,0,0,.16-2.93V58.85c0-2.68-.29-6.58-.52-9.11a13.4,13.4,0,0,1,1.43-1.55l.13,0c.31,3.19.38,6.9.38,10.31a24.1,24.1,0,0,1-.1,2.42,3.77,3.77,0,0,1-1.29,2.36Z"/><path class="cls-2" d="M166.57,60.51a4.77,4.77,0,0,1-2.66-.63,2.59,2.59,0,0,1-1-2.42,3.86,3.86,0,0,1,.53-1.7,3.08,3.08,0,0,1,2.4-1.77c1.19,0,2.14.92,2.9,2.81a12.62,12.62,0,0,1,.66,3.56,8.07,8.07,0,0,1-.23,2.09A3.43,3.43,0,0,1,168.05,64a9.49,9.49,0,0,1-6.13,2.46A5.33,5.33,0,0,1,156.38,61a10,10,0,0,1,.88-4.13l.61.16a7.89,7.89,0,0,0-.49,2.43c0,3.08,1.9,5,4.58,5a8.57,8.57,0,0,0,4.7-1.41c.9-.6,1.8-1.36,1.8-1.77a2.2,2.2,0,0,0-.2-.85A9.31,9.31,0,0,1,166.57,60.51Zm-2.81-8.63c-.6-.57-1.13-1-1.71-1.53A13.31,13.31,0,0,1,163.21,49a15.15,15.15,0,0,1,1.67,1.57A7.64,7.64,0,0,1,163.76,51.88Zm1.8,4c-.83,0-1.78.66-1.78,1.38s.82,1.35,2.88,1.35a7.19,7.19,0,0,0,1.32-.09C167.48,56.86,166.65,55.89,165.56,55.89Zm1-4.2c-.6-.57-1.13-1-1.71-1.53A14.67,14.67,0,0,1,166,48.77a14.3,14.3,0,0,1,1.67,1.57A7.62,7.62,0,0,1,166.59,51.69Z"/><path class="cls-2" d="M175.89,63h-.16a3.22,3.22,0,0,1-2.5-.84c-.9-.91-.91-2-.91-4.1,0-2.78-.16-5.7-.38-8.8a13.56,13.56,0,0,1,1.37-1.37l.11.06c.23,3.21.23,7,.23,10.61v.83a1.53,1.53,0,0,0,1.1,1.57,3,3,0,0,0,.94.16h.2Z"/><path class="cls-2" d="M176.21,61.09c1.13,0,2.3-.45,2.52-1.29l.43-1.58,1-.73.09.1a7.75,7.75,0,0,0-.33,1.7,1.48,1.48,0,0,0,.49,1.22,2.73,2.73,0,0,0,1.81.58h.27V63h-.34c-1.43,0-2.52-.4-3-1.5h-.06a3.14,3.14,0,0,1-2.91,1.5h-.28a.94.94,0,0,1-1-1,.91.91,0,0,1,1-.9Zm1.66,7.72c-.6-.57-1.13-1-1.72-1.52a14.92,14.92,0,0,1,1.16-1.39A14.19,14.19,0,0,1,179,67.46,7.62,7.62,0,0,1,177.87,68.81Zm2.83-.19c-.6-.57-1.13-1-1.72-1.52a12.34,12.34,0,0,1,1.16-1.39,14.19,14.19,0,0,1,1.67,1.56A7.62,7.62,0,0,1,180.7,68.62Z"/><path class="cls-2" d="M197.5,63h-.37c-1.82,0-2.65-.56-3-1.38H194A3.29,3.29,0,0,1,191.52,63a1.46,1.46,0,0,1-1.6-1.22h0A3.32,3.32,0,0,1,187.33,63a1.25,1.25,0,0,1-1.4-1.25h-.06A3.94,3.94,0,0,1,182.75,63h-.25a.94.94,0,0,1-1-1,.92.92,0,0,1,1-.9h.5a3.53,3.53,0,0,0,3.09-1.36l.73-1.14,1.13-.4.06.08a5.78,5.78,0,0,0-1,2.09.73.73,0,0,0,.79.73,2.09,2.09,0,0,0,1.28-.44,3.24,3.24,0,0,0,.95-1.29l.35-.86,1.12-.51.05.06a6,6,0,0,0-.6,2.19.8.8,0,0,0,.82.85,1.67,1.67,0,0,0,1-.32,2.29,2.29,0,0,0,.85-1.41c.06-.23.15-.51.3-1.15l1.11-.75.06,0a8.35,8.35,0,0,0-.37,2c0,1.16,1,1.58,2.41,1.58h.32Z"/><path class="cls-2" d="M197.82,61.09a3.35,3.35,0,0,0,1.64-.39,1.69,1.69,0,0,0,.78-1.59c0-2.34-.19-4.9-.43-7.6-.06-.67-.14-1.29-.14-1.83a1.48,1.48,0,0,1,.43-1,7.71,7.71,0,0,1,.81-.81l.1.08a6.61,6.61,0,0,0,1.19,3.35,8.25,8.25,0,0,1-.92.75c.06,1.68.19,3.46.19,5.08a8.62,8.62,0,0,1-.59,3.68,3,3,0,0,1-1.33,1.7,4.24,4.24,0,0,1-1.83.44h-.22a.94.94,0,0,1-1-1,.92.92,0,0,1,1-.9Z"/><path class="cls-2" d="M204.73,63.22a19,19,0,0,0,.17-2.93V58.85c0-2.68-.3-6.58-.53-9.11a13.4,13.4,0,0,1,1.43-1.55l.14,0c.3,3.19.38,6.9.38,10.31a21.21,21.21,0,0,1-.11,2.42,3.77,3.77,0,0,1-1.29,2.36Z"/><path class="cls-2" d="M225.43,58a6.51,6.51,0,0,1-1.52.16c-1.58,0-2.8-.41-3.27-1.47a2.43,2.43,0,0,1-.2-1,3.93,3.93,0,0,1,1-2.71,2.54,2.54,0,0,1,1.77-.91c1.12,0,2,1,2.64,2.71a9.93,9.93,0,0,1,.56,3.44,3.59,3.59,0,0,1-.68,2.08c1.38.45,1.56.88,1.56,1.93a3.77,3.77,0,0,1-.4,1.67,5.58,5.58,0,0,1-1.8,1.75,8.56,8.56,0,0,1-5,1.56,5.24,5.24,0,0,1-3.63-1.39A5.44,5.44,0,0,1,215,61.94a11,11,0,0,1,1-4.6l.58.22a9.06,9.06,0,0,0-.56,3.08,4.87,4.87,0,0,0,.85,2.88,4.34,4.34,0,0,0,3.48,1.67,8.2,8.2,0,0,0,4.23-1.08,6.2,6.2,0,0,0,1.93-1.49c0-.56-2.68-1.09-5.2-1.09l-.06-.1.65-1.51c2.4-.28,3.65-.69,3.65-1.45C225.48,58.34,225.45,58.21,225.43,58ZM219.7,71.73c-.6-.57-1.12-1-1.71-1.53a13.31,13.31,0,0,1,1.16-1.39,13.5,13.5,0,0,1,1.67,1.57A7.64,7.64,0,0,1,219.7,71.73Zm2.83-.19c-.6-.57-1.13-1-1.71-1.53A13.31,13.31,0,0,1,222,68.62a14.25,14.25,0,0,1,1.67,1.57A8.53,8.53,0,0,1,222.53,71.54Zm-.1-24a13.32,13.32,0,0,1,1.76,1.57A5.9,5.9,0,0,1,223,50.57c-.57-.54-1.14-1-1.73-1.5C221.64,48.54,222,48,222.43,47.57Zm.5,6.33a1.67,1.67,0,0,0-1.67,1.29c0,.73,1.4,1.27,2.78,1.27a7.91,7.91,0,0,0,1.2-.06C224.71,54.76,223.92,53.9,222.93,53.9Z"/><path class="cls-2" d="M245.09,48.51c.12,3.62.21,6.8.21,10.3a2.62,2.62,0,0,0,.73,1.87,2.34,2.34,0,0,0,1.43.41h.16V63h-.27a2.47,2.47,0,0,1-2.3-1.1H245a9.63,9.63,0,0,1-.51,2.18,5.24,5.24,0,0,1-1.69,1.66,5.61,5.61,0,0,1-3,.9,3.86,3.86,0,0,1-3-1.26,4.86,4.86,0,0,1-1-3.31,8.62,8.62,0,0,1,1-3.69l.53.21a6.37,6.37,0,0,0-.62,2.55,3.53,3.53,0,0,0,.75,2.27,3,3,0,0,0,2.53,1.18,5.11,5.11,0,0,0,2.54-.68,3.89,3.89,0,0,0,1.59-1.4,3.26,3.26,0,0,0,.1-1c0-2.29-.11-6.08-.43-11.79A9.52,9.52,0,0,1,245,48.44Z"/><path class="cls-2" d="M248,61.09c1.24,0,2.24-.41,2.41-1.29.12-.57.24-1.12.38-1.67a8.91,8.91,0,0,1,1-.76l.09.09a5.34,5.34,0,0,0-.24,1.38,1.74,1.74,0,0,0,.88,1.62,18.47,18.47,0,0,1,3-3.72A5.64,5.64,0,0,1,259,55.15a3,3,0,0,1,2.72,1.61,3.81,3.81,0,0,1,.37,1.71,4.29,4.29,0,0,1-3.33,4,11.6,11.6,0,0,1-3.64.46c-1.94,0-3.42-.44-4.22-1.54h0a3.46,3.46,0,0,1-3,1.54h-.18a.94.94,0,0,1-1-1,.91.91,0,0,1,1-.9Zm8,0a9.31,9.31,0,0,0,3.81-.83c.71-.34,1.2-.66,1.2-1.06A2.54,2.54,0,0,0,258.44,57c-1.73,0-3.71,1.59-5.23,3.8A9.08,9.08,0,0,0,255.94,61.09Z"/><path class="cls-2" d="M264.85,63.22a19,19,0,0,0,.16-2.93V58.85c0-2.68-.29-6.58-.53-9.11a14.41,14.41,0,0,1,1.44-1.55l.13,0c.31,3.19.38,6.9.38,10.31a24.1,24.1,0,0,1-.1,2.42A3.77,3.77,0,0,1,265,63.32Z"/><path class="cls-2" d="M277,61.09V63h-1.22a6.7,6.7,0,0,1-1.11,3,5.24,5.24,0,0,1-3.53,2.51A8.61,8.61,0,0,1,266.9,67l.25-.49a4.43,4.43,0,0,0,2.15.53,5.73,5.73,0,0,0,4.08-2,4.71,4.71,0,0,0,1.37-2H274c-3,0-4.52-.95-4.52-3a4,4,0,0,1,.75-2.35,2.84,2.84,0,0,1,2.26-1.41c1.34,0,2.74,1.89,3.15,4.89ZM273.65,59a2.15,2.15,0,0,0-1.55-.82c-.82,0-1.65.71-1.65,1.29,0,.75.69,1.19,1.59,1.45a10.16,10.16,0,0,0,2.64.22A4.52,4.52,0,0,0,273.65,59Z"/><path class="cls-2" d="M277.3,61.09c1.13,0,2.3-.45,2.52-1.29l.43-1.58,1-.73.09.1a7.75,7.75,0,0,0-.33,1.7,1.45,1.45,0,0,0,.49,1.22,2.73,2.73,0,0,0,1.81.58h.27V63h-.34c-1.44,0-2.52-.4-3-1.5h-.06a3.14,3.14,0,0,1-2.91,1.5H277a.94.94,0,0,1-1-1,.92.92,0,0,1,1-.9Zm1.61-5.55c-.6-.57-1.12-1-1.71-1.52a12.34,12.34,0,0,1,1.16-1.39A13.4,13.4,0,0,1,280,54.19,7.64,7.64,0,0,1,278.91,55.54Zm2.83-.19c-.6-.57-1.13-1-1.71-1.52a13.5,13.5,0,0,1,1.15-1.39A13.4,13.4,0,0,1,282.85,54,7.62,7.62,0,0,1,281.74,55.35Z"/><path class="cls-2" d="M283.91,61.09a3.35,3.35,0,0,0,1.64-.39,1.69,1.69,0,0,0,.78-1.59c0-2.34-.19-4.9-.43-7.6-.06-.67-.15-1.29-.15-1.83a1.49,1.49,0,0,1,.44-1,7.71,7.71,0,0,1,.81-.81l.1.08a6.61,6.61,0,0,0,1.19,3.35,9.29,9.29,0,0,1-.92.75c.05,1.68.19,3.46.19,5.08a8.62,8.62,0,0,1-.59,3.68,3,3,0,0,1-1.33,1.7,4.24,4.24,0,0,1-1.83.44h-.22a.94.94,0,0,1-1-1,.92.92,0,0,1,1-.9Z"/><path class="cls-2" d="M290.82,63.22a19,19,0,0,0,.16-2.93V58.85c0-2.68-.29-6.58-.52-9.11a13.4,13.4,0,0,1,1.43-1.55l.13,0c.31,3.19.38,6.9.38,10.31a21.45,21.45,0,0,1-.1,2.42A3.77,3.77,0,0,1,291,63.32Z"/><path class="cls-2" d="M303.71,61.58c-1.53,0-2.66-.55-2.66-1.72a4.25,4.25,0,0,1,.47-1.71c.58-1.28,2.16-2.64,4.68-4l-.08-1.1a13.15,13.15,0,0,1,1.15-1.2h.16c.06,2.27.08,4.56.09,6.83a2.64,2.64,0,0,0,.56,2.06,2.4,2.4,0,0,0,1.54.38H310V63h-.32a2.74,2.74,0,0,1-3-2A6.89,6.89,0,0,1,303.71,61.58Zm2.6-5.83c-2.61,1.34-4,2.43-4,3.2,0,.57.88.82,1.87.82a7,7,0,0,0,2.17-.41Zm-1.73-5.19c-.6-.57-1.13-1-1.72-1.52A12.34,12.34,0,0,1,304,47.65a13.4,13.4,0,0,1,1.67,1.56A7.62,7.62,0,0,1,304.58,50.56Zm2.82-.19c-.6-.57-1.12-1-1.71-1.52a13.49,13.49,0,0,1,1.16-1.4A14.3,14.3,0,0,1,308.52,49,7.64,7.64,0,0,1,307.4,50.37Z"/><path class="cls-2" d="M310.29,61.09c1.13,0,2.3-.45,2.52-1.29l.42-1.58,1-.73.08.1a8.21,8.21,0,0,0-.32,1.7,1.47,1.47,0,0,0,.48,1.22,2.74,2.74,0,0,0,1.82.58h.26V63h-.33c-1.44,0-2.52-.4-3-1.5h-.06a3.15,3.15,0,0,1-2.91,1.5H310a.94.94,0,0,1-1-1,.92.92,0,0,1,1-.9ZM312,68.81c-.6-.57-1.13-1-1.72-1.52a12.34,12.34,0,0,1,1.16-1.39,14.19,14.19,0,0,1,1.67,1.56A7.62,7.62,0,0,1,312,68.81Zm2.82-.19c-.6-.57-1.12-1-1.71-1.52a12.34,12.34,0,0,1,1.16-1.39,15,15,0,0,1,1.67,1.56A7.64,7.64,0,0,1,314.77,68.62Z"/><path class="cls-2" d="M325.31,58.38a13.8,13.8,0,0,0-4.6-1,2.33,2.33,0,0,0-1.86.73l.17.73-.44,1.32h-.14l-.72-1.93a2.9,2.9,0,0,1,3.18-2.64,14.2,14.2,0,0,1,4.8,1.26,6.88,6.88,0,0,0,2.51.48h1.27l0,0-.91,1.51a4.64,4.64,0,0,0-2.47.56L323.68,61a11.43,11.43,0,0,1-6.43,2h-.68a.94.94,0,0,1-1-1,.91.91,0,0,1,1-.9h.9c2.37,0,4.8-.83,7.82-2.65Zm-3.37,6.77a13.26,13.26,0,0,1,1.75,1.57,5.83,5.83,0,0,1-1.21,1.43c-.57-.54-1.14-1-1.73-1.51C321.15,66.12,321.54,65.6,321.94,65.15Zm5-5.77h0c.06,1.25,1.08,1.7,2.59,1.7h.4V63h-.46c-1.89,0-3.15-.66-3.15-2.42a7.52,7.52,0,0,1,.05-.82Z"/><path class="cls-2" d="M330.3,61.09c1.13,0,2.3-.45,2.52-1.29l.42-1.58,1-.73.08.1a8.21,8.21,0,0,0-.32,1.7,1.47,1.47,0,0,0,.48,1.22,2.74,2.74,0,0,0,1.82.58h.26V63h-.33c-1.44,0-2.52-.4-3-1.5h-.06a3.15,3.15,0,0,1-2.91,1.5H330a.94.94,0,0,1-1-1,.92.92,0,0,1,1-.9ZM332,68.81c-.61-.57-1.13-1-1.72-1.52a12.34,12.34,0,0,1,1.16-1.39,14.19,14.19,0,0,1,1.67,1.56A7.62,7.62,0,0,1,332,68.81Zm2.82-.19c-.6-.57-1.13-1-1.71-1.52a12.34,12.34,0,0,1,1.16-1.39,15,15,0,0,1,1.67,1.56A7.64,7.64,0,0,1,334.78,68.62Z"/><path class="cls-2" d="M336.83,61.09a9.32,9.32,0,0,0,2.89-.28c.51-.19.83-.39.83-.64a12.22,12.22,0,0,0-1.46-3.62,11,11,0,0,1,1.1-1.65h.07a10.2,10.2,0,0,1,1.47,4.46,4.39,4.39,0,0,1-1,2.73c-.66.66-1.7.88-3.94.88h-.18a.94.94,0,0,1-1-1,.91.91,0,0,1,1-.9Zm1.1-7.45c-.6-.58-1.13-1-1.71-1.53a13.31,13.31,0,0,1,1.16-1.39,14.25,14.25,0,0,1,1.67,1.57A8,8,0,0,1,337.93,53.64Zm2.83-.19c-.6-.58-1.13-1-1.71-1.53a14.67,14.67,0,0,1,1.15-1.39,13.5,13.5,0,0,1,1.67,1.57A8.43,8.43,0,0,1,340.76,53.45Z"/><path class="cls-2" d="M344.66,63.22a20.32,20.32,0,0,0,.16-2.93V58.85c0-2.68-.3-6.58-.53-9.11a12.63,12.63,0,0,1,1.44-1.55l.13,0c.3,3.19.38,6.9.38,10.31a24.1,24.1,0,0,1-.1,2.42,3.82,3.82,0,0,1-1.29,2.36Z"/><path class="cls-2" d="M356.26,56c.06.32.17,1,.39,2.29a3.81,3.81,0,0,0,1.25,2.53,2.41,2.41,0,0,0,1.18.32h.19V63H359c-1.74,0-2.47-.79-3.06-3.17l-.37-1.49h-.07a2.41,2.41,0,0,1-2.17,1.57,8.07,8.07,0,0,1,.21,2c0,.17,0,.35,0,.76a5.2,5.2,0,0,1-.84,2c-1,1.45-2.12,2.23-2.88,2.23A8.41,8.41,0,0,1,346,65.69l.21-.47a3.35,3.35,0,0,0,1.38.37,5.23,5.23,0,0,0,4-2.08,4.05,4.05,0,0,0,1.19-2.07A8,8,0,0,0,350.93,59l.48-1.87h.13c.38.35.76.69,1.07.92a2.06,2.06,0,0,0,1.23.32,1.72,1.72,0,0,0,1-.39,8.22,8.22,0,0,0,1.23-2Zm-1.79-1.58c-.6-.57-1.13-1-1.71-1.52a13.7,13.7,0,0,1,1.15-1.4A14.3,14.3,0,0,1,355.58,53,7.62,7.62,0,0,1,354.47,54.37Zm2.83-.19c-.6-.57-1.13-1-1.72-1.53a13.31,13.31,0,0,1,1.16-1.39,14.3,14.3,0,0,1,1.67,1.57A7.62,7.62,0,0,1,357.3,54.18Z"/><path class="cls-2" d="M371.08,56.7a16.61,16.61,0,0,1,.24,2.61,5,5,0,0,1-.53,2,2.82,2.82,0,0,1-2.17,1.61,2.49,2.49,0,0,1-1.83-1.21h-.12A3.42,3.42,0,0,1,364.11,63a1.26,1.26,0,0,1-1.41-1.25h-.06A3.92,3.92,0,0,1,359.52,63h-.25a.94.94,0,0,1-1-1,.91.91,0,0,1,1-.9h.5a3.45,3.45,0,0,0,3.09-1.36l.81-1.16,1.13-.39.06.07a5.47,5.47,0,0,0-1,2.11.7.7,0,0,0,.76.73,2.34,2.34,0,0,0,1.31-.42c.51-.38.58-.81,1-2.33l.87-.51.09.05a6.34,6.34,0,0,0-.19,1.44A1.58,1.58,0,0,0,369.27,61a.68.68,0,0,0,.77-.65,13.27,13.27,0,0,0-.36-2.38A11.67,11.67,0,0,1,371,56.65Z"/><path class="cls-2" d="M374.14,63.22a19,19,0,0,0,.16-2.93V58.85c0-2.68-.29-6.58-.52-9.11a13.4,13.4,0,0,1,1.43-1.55l.13,0c.31,3.19.39,6.9.39,10.31a21.21,21.21,0,0,1-.11,2.42,3.77,3.77,0,0,1-1.29,2.36Z"/><path class="cls-2" d="M389.36,58.76h-5.09l.29-1.23h5.13Z"/><path class="cls-2" d="M78.5,109.48c-2,0-3.77-.68-3.77-2.77a7,7,0,0,1,.8-3c1-2.26,3.22-3.87,5.72-5.27l-.06-1c.63-.62,1.27-1.23,1.93-1.81l.32.09c.09,1.94.11,4.26.11,7.23,0,1.64,0,2.89.59,3.48a2.84,2.84,0,0,0,2.23.68h.27V111h-.27c-2.41,0-3.46-.45-4.3-2.21A10.1,10.1,0,0,1,78.5,109.48Zm.17-19.24a16.36,16.36,0,0,1,2.23,2.43,8.8,8.8,0,0,1-1.92,2c-.74-.8-1.5-1.56-2.28-2.33Zm2.87,11.24C78.77,102.76,77,104.15,77,105s.94.92,2,.92a8.64,8.64,0,0,0,2.62-.41C81.62,103.92,81.58,102.55,81.54,101.48Zm1.25-11.41A15.84,15.84,0,0,1,85,92.49a8.6,8.6,0,0,1-1.92,2c-.74-.8-1.5-1.56-2.28-2.32Z"/><path class="cls-2" d="M90.1,108.66A3.28,3.28,0,0,1,86.87,111h-.25c-.9,0-1.35-.94-1.35-2s.43-2,1.37-2h.27a3.13,3.13,0,0,0,1.68-.51c1.53-1,1.17-3.69,3.09-5.47a3.77,3.77,0,0,1,2.58-1.15c3.26,0,4.35,5,4.35,7.15,0,.27-.7,3.71-3.3,3.71a8.89,8.89,0,0,1-5.15-2.13Zm5.78-1.6c.37,0,.6-.06.6-.17-.41-2.19-1.58-3.6-2.89-3.6A2.54,2.54,0,0,0,91.31,105,7,7,0,0,0,95.88,107.06Z"/><path class="cls-2" d="M102,111.2a32.71,32.71,0,0,0,.25-4.71,115.65,115.65,0,0,0-.66-12.69,29.78,29.78,0,0,1,2.27-2.48l.33.17c.39,4.22.45,8.17.45,12,0,3.06-.18,5.11-.61,5.78a14.24,14.24,0,0,1-1.6,2.28Z"/><path class="cls-2" d="M121.41,111h-.28a4,4,0,0,1-4.22-3.28h-.06a3.5,3.5,0,0,1-1.07,1.89,6.49,6.49,0,0,1-4.2,1.39c-2,0-3.46-1.21-3.46-4.55,0-.39,0-1,0-1.66l1.27-.12a2.25,2.25,0,0,0,2.48,2.42,7.09,7.09,0,0,0,2.87-.68c.73-.32,1.23-.69,1.23-1.29a31.12,31.12,0,0,0-1.68-6.53,24.51,24.51,0,0,1,1.8-2.67l.33.1c.49,1.77,1,4,1.68,7.83.39,2.23,1.43,3.24,3,3.24h.28Z"/><path class="cls-2" d="M129.22,107.06V111h-7.81c-.94,0-1.37-1-1.37-2s.43-2,1.37-2Z"/><path class="cls-2" d="M137,107.06V111h-7.81c-.94,0-1.37-1-1.37-2s.43-2,1.37-2Z"/><path class="cls-2" d="M144.84,107.06V111H137c-.94,0-1.37-1-1.37-2s.43-2,1.37-2Z"/><path class="cls-2" d="M152.66,107.06V111h-7.82c-.93,0-1.36-1-1.36-2s.43-2,1.36-2Z"/><path class="cls-2" d="M161.8,111h-.26c-1.78,0-3.44-.35-4.47-2.13H157a4.89,4.89,0,0,1-4.08,2.13h-.27c-.94,0-1.37-1-1.37-2s.43-2,1.37-2h.27a4.6,4.6,0,0,0,2.65-.66c1.08-.67,1.18-1.92,1.61-2.82.45-.31.95-.66,1.56-1l.14.12a7.42,7.42,0,0,0-.38,1.79,2.11,2.11,0,0,0,1,2,3.85,3.85,0,0,0,2.09.57h.24Zm-7-14.3A15.84,15.84,0,0,1,157,99.09a8.76,8.76,0,0,1-1.91,2c-.75-.8-1.51-1.56-2.29-2.32Zm4.13-.18a16.26,16.26,0,0,1,2.22,2.43,9,9,0,0,1-1.91,2c-.74-.8-1.51-1.56-2.29-2.33Z"/><path class="cls-2" d="M181.8,111h-.28c-2.19,0-3.77-.49-4.43-1.8H177a4.45,4.45,0,0,1-3.3,1.8,2.13,2.13,0,0,1-2.17-1.66h-.1a4.38,4.38,0,0,1-3.22,1.66,2,2,0,0,1-2.09-1.49,6.37,6.37,0,0,1-4.06,1.49h-.27c-.94,0-1.37-1-1.37-2s.43-2,1.37-2h.27a5.66,5.66,0,0,0,3.5-.88,10.37,10.37,0,0,0,1.68-2.07,13.33,13.33,0,0,1,1.69-.78l.22.2a5.46,5.46,0,0,0-1.19,2.53.88.88,0,0,0,1,1,2.53,2.53,0,0,0,1.86-.76,9.25,9.25,0,0,0,1.41-2.54,11,11,0,0,1,1.58-.78l.15.19a10,10,0,0,0-.9,2.66c0,.84.36,1.23,1,1.23a2.31,2.31,0,0,0,2-1,10.39,10.39,0,0,0,1.1-2.75,14.35,14.35,0,0,1,1.56-1l.14.14a9.5,9.5,0,0,0-.55,2.54c0,1.37,1,2,3.24,2h.28Z"/><path class="cls-2" d="M186.31,109.52a6.42,6.42,0,0,1-4.24,1.45h-.27c-.94,0-1.37-1-1.37-2s.43-2,1.37-2h.27a8.88,8.88,0,0,0,4.12-.78c-.18-3.09-.31-6.15-.45-9.24,0-.92-.27-2.11-.27-2.89a2.83,2.83,0,0,1,.53-1.82,7.94,7.94,0,0,1,1.52-1.46l.23.16c0,1.28.75,2.87,2.15,5.21l-1.78,1.35c0,4.08.1,6,.22,7.5a6.29,6.29,0,0,1,2.23-.47c2,0,3.75,1.56,3.75,4.49,0,1.72-1.12,4.61-3.95,4.61-1.78,0-3.4-1.41-4-4.2Zm5.37,1.13a1.09,1.09,0,0,0,.84-.31,2.71,2.71,0,0,0-2.66-2.58,4,4,0,0,0-1.36.26A3.53,3.53,0,0,0,191.68,110.65Z"/><path class="cls-2" d="M197.58,111.2a34.22,34.22,0,0,0,.25-4.71,115.65,115.65,0,0,0-.66-12.69,31.6,31.6,0,0,1,2.26-2.48l.33.17c.4,4.22.45,8.17.45,12,0,3.06-.17,5.11-.6,5.78a14.24,14.24,0,0,1-1.6,2.28Z"/><path class="cls-2" d="M215.23,109.48c-1.95,0-3.77-.68-3.77-2.77a7.13,7.13,0,0,1,.8-3c1.06-2.26,3.23-3.87,5.73-5.27l-.06-1c.62-.62,1.27-1.23,1.93-1.81l.31.09c.1,1.94.12,4.26.12,7.23,0,1.64,0,2.89.59,3.48a2.82,2.82,0,0,0,2.22.68h.28V111h-.28c-2.4,0-3.45-.45-4.29-2.21A10.15,10.15,0,0,1,215.23,109.48Zm.18-19.24a16.36,16.36,0,0,1,2.23,2.43,9,9,0,0,1-1.92,2c-.74-.8-1.5-1.56-2.28-2.33Zm2.87,11.24c-2.77,1.28-4.55,2.67-4.55,3.47s.94.92,2,.92a8.64,8.64,0,0,0,2.62-.41C218.36,103.92,218.32,102.55,218.28,101.48Zm1.25-11.41a15.84,15.84,0,0,1,2.23,2.42,8.81,8.81,0,0,1-1.92,2c-.74-.8-1.5-1.56-2.28-2.32Z"/><path class="cls-2" d="M232.52,111h-.26c-1.77,0-3.43-.35-4.47-2.13h-.06a4.89,4.89,0,0,1-4.08,2.13h-.27c-.94,0-1.37-1-1.37-2s.43-2,1.37-2h.27a4.66,4.66,0,0,0,2.66-.66c1.07-.67,1.17-1.92,1.6-2.82.45-.31,1-.66,1.56-1l.14.12a7.28,7.28,0,0,0-.37,1.79,2.1,2.1,0,0,0,.95,2,3.85,3.85,0,0,0,2.09.57h.24Zm-7.09,3.65a15.84,15.84,0,0,1,2.23,2.42,8.81,8.81,0,0,1-1.92,2c-.74-.8-1.5-1.56-2.28-2.32Zm4.12-.18a15.43,15.43,0,0,1,2.23,2.43,9,9,0,0,1-1.92,2c-.74-.8-1.5-1.56-2.28-2.33Z"/><path class="cls-2" d="M244,109.37c-.47,1.54-1.19,2.4-2.3,2.4-1.45,0-3.71-1.13-5.35-3h-.08a3.58,3.58,0,0,1-3.5,2.19h-.27c-.94,0-1.37-1-1.37-2s.43-2,1.37-2h.27c2.68,0,3-1.09,3.65-3.08a5.92,5.92,0,0,1,1.49-2.52,3.31,3.31,0,0,1,2.24-1c2.29,0,3.17,2.6,4.36,5.1a2.9,2.9,0,0,0,2.87,1.52h.27V111h-.27a3.72,3.72,0,0,1-3.34-1.6Zm-1.74-1.53c.3,0,.45-.13.45-.41,0-1-1.36-3.75-3.06-3.75a2.28,2.28,0,0,0-2,1.27C238.42,106.57,241,107.84,242.28,107.84Z"/><path class="cls-2" d="M255.49,107.06V111h-7.82c-.93,0-1.36-1-1.36-2s.43-2,1.36-2Z"/><path class="cls-2" d="M263.3,107.06V111h-7.81c-.94,0-1.37-1-1.37-2s.43-2,1.37-2Z"/><path class="cls-2" d="M271.11,107.06V111H263.3c-.94,0-1.37-1-1.37-2s.43-2,1.37-2Z"/><path class="cls-2" d="M278.92,107.06V111h-7.81c-.94,0-1.36-1-1.36-2s.42-2,1.36-2Z"/><path class="cls-2" d="M288.07,111h-.26c-1.78,0-3.44-.35-4.47-2.13h-.06A4.89,4.89,0,0,1,279.2,111h-.28c-.93,0-1.36-1-1.36-2s.43-2,1.36-2h.28a4.6,4.6,0,0,0,2.65-.66c1.08-.67,1.18-1.92,1.61-2.82.45-.31,1-.66,1.56-1l.14.12a7.42,7.42,0,0,0-.38,1.79,2.11,2.11,0,0,0,1,2,3.85,3.85,0,0,0,2.09.57h.24Zm-5.36-14.85a20.63,20.63,0,0,1,2.8,2.29,6.8,6.8,0,0,1-1.76,2.4c-.8-.7-1.78-1.42-2.83-2.17Z"/><path class="cls-2" d="M297.21,111H297c-1.78,0-3.44-.35-4.47-2.13h-.06a4.89,4.89,0,0,1-4.08,2.13h-.27c-.94,0-1.37-1-1.37-2s.43-2,1.37-2h.27a4.66,4.66,0,0,0,2.66-.66c1.07-.67,1.17-1.92,1.6-2.82.45-.31.95-.66,1.56-1l.14.12a7.42,7.42,0,0,0-.38,1.79,2.11,2.11,0,0,0,1,2,3.85,3.85,0,0,0,2.09.57h.24Zm-7-14.3a15.84,15.84,0,0,1,2.23,2.42,8.76,8.76,0,0,1-1.91,2c-.75-.8-1.51-1.56-2.29-2.32Zm4.13-.18a16.26,16.26,0,0,1,2.22,2.43,9,9,0,0,1-1.91,2c-.74-.8-1.51-1.56-2.29-2.33Z"/><path class="cls-2" d="M302.23,91c0,1.28.74,2.87,2.14,5.21l-1.73,1.33c.07,1.5.11,3.34.11,5.25a12.7,12.7,0,0,1-.72,4.32,9.16,9.16,0,0,1-1,2.07,4.1,4.1,0,0,1-3.57,1.76h-.27c-.94,0-1.37-1-1.37-2s.43-2,1.37-2h.27a3.83,3.83,0,0,0,2.77-.8c.33-.33.33-.88.33-1.93,0-4.87-.64-9.2-.64-10.18a2.89,2.89,0,0,1,.53-1.82A8.25,8.25,0,0,1,302,90.87Z"/><path class="cls-2" d="M307.09,111.2a34.22,34.22,0,0,0,.25-4.71,115.65,115.65,0,0,0-.66-12.69,31.6,31.6,0,0,1,2.26-2.48l.34.17c.39,4.22.45,8.17.45,12,0,3.06-.18,5.11-.61,5.78a14.24,14.24,0,0,1-1.6,2.28Z"/><path class="cls-2" d="M339.78,105.64c-3.32,0-5.15-1.18-5.15-3.74A5.65,5.65,0,0,1,336.17,98a4.37,4.37,0,0,1,3.11-1.66c2.65,0,4.37,4.51,4.37,8.67a10.68,10.68,0,0,1-1,4.51,9.39,9.39,0,0,1-2.87,1.17,34.34,34.34,0,0,1-9.13,1.18c-6.46,0-9.45-3.09-9.45-6.88a13.24,13.24,0,0,1,1.17-5.51l1.25.47a7.09,7.09,0,0,0-.49,2.48c0,3.09,2.84,5.35,8.72,5.35a36.07,36.07,0,0,0,8.94-1.13c.78-.21,1.11-.51,1.11-1C341.17,105.64,340.47,105.64,339.78,105.64Zm-2.09-15.38a21.47,21.47,0,0,1,2.86,2.33,6.89,6.89,0,0,1-1.8,2.46c-.82-.7-1.82-1.47-2.89-2.21Zm.71,9.11c-1.33,0-2.11.72-2.11,1.3,0,1.1,2,1.86,5.12,1.94C340.68,100.56,339.69,99.37,338.4,99.37Z"/><path class="cls-2" d="M347.25,111.2a34.22,34.22,0,0,0,.25-4.71,115.68,115.68,0,0,0-.67-12.69c.79-.94,1.53-1.76,2.27-2.48l.33.17c.39,4.22.45,8.17.45,12,0,3.06-.17,5.11-.6,5.78a13.72,13.72,0,0,1-1.61,2.28Z"/><path class="cls-2" d="M366.64,111h-.27a4,4,0,0,1-4.22-3.28h-.06a3.5,3.5,0,0,1-1.08,1.89,6.49,6.49,0,0,1-4.19,1.39c-2.06,0-3.46-1.21-3.46-4.55,0-.39,0-1,0-1.66l1.27-.12a2.25,2.25,0,0,0,2.48,2.42,7.12,7.12,0,0,0,2.87-.68c.72-.32,1.23-.69,1.23-1.29a31.12,31.12,0,0,0-1.68-6.53,23.15,23.15,0,0,1,1.8-2.67l.33.1c.49,1.77,1,4,1.68,7.83.39,2.23,1.42,3.24,3,3.24h.27Z"/><path class="cls-2" d="M374.45,107.06V111h-7.81c-.94,0-1.37-1-1.37-2s.43-2,1.37-2Z"/><path class="cls-2" d="M382.26,107.06V111h-7.81c-.94,0-1.37-1-1.37-2s.43-2,1.37-2Z"/><path class="cls-2" d="M382.54,111h-.28c-.93,0-1.36-1-1.36-2s.43-2,1.36-2h.28a21.86,21.86,0,0,0,2.81-.31,17.8,17.8,0,0,1-.14-2,7.21,7.21,0,0,1,3.11-5.94,17.93,17.93,0,0,1,.62-2.17h.34a40.3,40.3,0,0,0,4.41,3.46c2.81,1.89,5,3.32,5,6.21a5.9,5.9,0,0,1-.61,2.6,3.3,3.3,0,0,1-3.18,2.11,26.07,26.07,0,0,1-6.68-1.23A16.18,16.18,0,0,1,382.54,111Zm9-6.45c0-1.46-1-3-2.19-3a3.1,3.1,0,0,0-2.67,2.37c0,1,1.19,1.91,2.52,2.32C390.7,105.93,391.58,105.15,391.58,104.52Zm3.93,3.11c.74,0,1.17-.14,1.17-.43,0-.88-1.43-2-3.56-3.3a10.38,10.38,0,0,1-1,3.16A12.73,12.73,0,0,0,395.51,107.63Z"/><path class="cls-2" d="M404.33,87.18l-.52-.59a.83.83,0,0,0-.67-.27c-.78,0-1.31.39-1.31.68,0,.51.9,1,2.56,1,.73,0,1.29,0,2-.06l.07.17a10.76,10.76,0,0,1-.8,1.59,12.43,12.43,0,0,0-4.88,1.4l-.23-.23a14.55,14.55,0,0,1,.76-1.47,1.66,1.66,0,0,1-1.19-1.56,3.36,3.36,0,0,1,1.25-2.21,3.78,3.78,0,0,1,2.42-1c.84,0,1.39.43,1.39,1.09a2.71,2.71,0,0,1-.57,1.45Zm-1.85,24a34.22,34.22,0,0,0,.25-4.71,115.65,115.65,0,0,0-.66-12.69,31.6,31.6,0,0,1,2.26-2.48l.34.17c.39,4.22.45,8.17.45,12,0,3.06-.18,5.11-.61,5.78a14.24,14.24,0,0,1-1.6,2.28Z"/></svg>