<svg id="Layer_1" data-name="Layer 1" xmlns="http://www.w3.org/2000/svg" xmlns:xlink="http://www.w3.org/1999/xlink" viewBox="0 0 480 638"><defs><style>.cls-1{fill:#f99d29;}.cls-2{fill:#006080;}</style></defs><image width="2151" height="2151" transform="translate(40 179) scale(0.19)" xlink:href="../../sdgg.png"/><path class="cls-1" d="M175.7,386H193c.44,0,.89,0,1.33,0a.83.83,0,0,1,.79.77,7.16,7.16,0,0,1,0,.93q0,13.77,0,27.53c0,1.58-.16,1.72-1.77,1.72-3.37,0-6.74,0-10.11,0h-.8c-.31,0-.5-.15-.51-.47s0-.8,0-1.2V399.72a9.63,9.63,0,0,0-.05-1.2.84.84,0,0,0-.79-.76,5.4,5.4,0,0,0-.8,0h-9.71c-1.44,0-1.61.17-1.61,1.6,0,5.32,0,10.64,0,16,0,1.84.2,1.67-1.6,1.67q-4.8,0-9.58,0c-1.59,0-1.72-.13-1.72-1.77v-27.4a7.23,7.23,0,0,1,0-.93.84.84,0,0,1,.84-.85c.44,0,.89,0,1.33,0Z"/><path class="cls-1" d="M175.87,382.59H158.31c-.35,0-.71,0-1.06,0a.91.91,0,0,1-.78-1.49c.12-.19.27-.36.4-.53l17.33-22.74a7.43,7.43,0,0,1,.76-.92.83.83,0,0,1,1.29,0,6.61,6.61,0,0,1,.69.8q8.87,11.48,17.72,22.94a4.79,4.79,0,0,1,.46.65.87.87,0,0,1-.64,1.31,7.85,7.85,0,0,1-1.19,0Z"/><path class="cls-1" d="M304.6,366.39c5.81,0,11.61,0,17.42,0,1.93,0,1.88.26,1.87,1.85,0,1.77,0,3.54,0,5.32,0,.31,0,.62,0,.93a.83.83,0,0,1-.82.86,7.12,7.12,0,0,1-.8,0H286.36c-.79-.06-1.06-.29-1.07-1.05,0-2.3,0-4.61,0-6.91,0-.71.28-1,1-1,.35,0,.71,0,1.06,0Z"/><path class="cls-1" d="M238.18,294.21c0-.4,0-.8,0-1.2,0-.89-.3-1.14-1.23-1.18H202.35c-.32,0-.63,0-.94,0-.75,0-1,.32-1.08,1.05,0,.44,0,.89,0,1.33V414.9c0,.44,0,.89,0,1.33a.76.76,0,0,0,.68.71,6.28,6.28,0,0,0,1.06.06h34.33a7.23,7.23,0,0,0,.93,0,.83.83,0,0,0,.81-.88c0-.49,0-1,0-1.47Zm-15.36,19.51c0-1.24,0-2.49,0-3.73a7,7,0,0,1,0-.79.59.59,0,0,1,.51-.54,4.79,4.79,0,0,1,.66,0h6.78a4.86,4.86,0,0,1,.66,0,.54.54,0,0,1,.53.51,7,7,0,0,1,0,.79v7.58a5,5,0,0,1,0,.67.55.55,0,0,1-.51.52,4.61,4.61,0,0,1-.53,0h-7.18a3.15,3.15,0,0,1-.53,0,.4.4,0,0,1-.35-.35,5.62,5.62,0,0,1-.08-.92C222.81,316.2,222.82,315,222.82,313.72Zm9.2,67.67c0,.7-.18.88-.87.88q-3.66,0-7.32,0c-.84,0-1-.16-1-1,0-2.71,0-5.41,0-8.12V373c.05-.71.18-.86.88-.87h7.45c.7,0,.86.17.87.87,0,1.38,0,2.75,0,4.13S232,380,232,381.39Zm0-42.76a7,7,0,0,1,0,.8.54.54,0,0,1-.54.5c-.48,0-1,0-1.46,0h-5.45c-.22,0-.44,0-.67,0-.89,0-1-.14-1.05-1,0-2.75,0-5.5,0-8.25a1.88,1.88,0,0,1,.08-.52.44.44,0,0,1,.37-.34,3,3,0,0,1,.52,0H231a3.59,3.59,0,0,1,.65.07.41.41,0,0,1,.34.36c0,.31.06.62.06.93v7.44ZM222.82,356c0-1.24,0-2.48,0-3.72a7,7,0,0,1,0-.8.57.57,0,0,1,.51-.53,4.86,4.86,0,0,1,.66,0h6.79c.22,0,.44,0,.66,0a.57.57,0,0,1,.52.52,4.87,4.87,0,0,1,0,.66V360a3.08,3.08,0,0,1,0,.53.54.54,0,0,1-.51.52,4.61,4.61,0,0,1-.53,0h-7.18a2.32,2.32,0,0,1-.53,0,.4.4,0,0,1-.35-.35,5.72,5.72,0,0,1-.08-.92C222.81,358.51,222.82,357.28,222.82,356ZM206.64,314.1V310a7,7,0,0,1,0-.79.55.55,0,0,1,.5-.53q.33,0,.66,0h6.77a4.79,4.79,0,0,1,.66,0,.54.54,0,0,1,.51.53c0,.61,0,1.23,0,1.85,0,.89,0,1.77,0,2.66h0c0,1.41,0,2.83,0,4.24,0,.65-.15.8-.79.8-2.52,0-5,0-7.57,0-.63,0-.78-.15-.79-.79C206.63,316.67,206.64,315.38,206.64,314.1Zm0,24.14v-6.76c0-.36,0-.71,0-1.07s.21-.53.6-.56a2.55,2.55,0,0,1,.39,0h7a4.7,4.7,0,0,1,.53,0,.57.57,0,0,1,.56.61c0,.31,0,.62,0,.93V335h0c0,1.37,0,2.74,0,4.11,0,.7-.16.86-.88.86q-3.72,0-7.43,0c-.64,0-.79-.18-.84-.77C206.63,338.86,206.64,338.55,206.64,338.24Zm9.16,64.34c0,.66-.15.8-.78.81h-7.56c-.64,0-.77-.16-.81-.79,0-.31,0-.62,0-.93V395c0-.35,0-.71,0-1.06s.21-.64.64-.69h7.3a4.86,4.86,0,0,1,.66,0,.53.53,0,0,1,.52.51c0,.31,0,.62,0,.93,0,1.2,0,2.39,0,3.59h0C215.8,399.74,215.81,401.16,215.8,402.58Zm0-21.19c0,.73-.15.88-.85.88q-3.72,0-7.44,0c-.69,0-.85-.17-.86-.89,0-2.78,0-5.57,0-8.36v-.13c0-.56.18-.71.72-.74.27,0,.53,0,.8,0,2.25,0,4.51,0,6.77,0,.7,0,.85.16.86.87,0,1.42,0,2.83,0,4.25S215.81,380,215.8,381.39Zm0-21.13c0,.66-.15.8-.78.81h-7.57c-.63,0-.79-.16-.8-.79,0-1.46,0-2.92,0-4.39h0c0-1.28,0-2.56,0-3.85,0-1,.12-1.08,1-1.09,1.59,0,3.18,0,4.78,0,.84,0,1.68,0,2.52,0,.63,0,.78.17.79.81,0,1.46,0,2.92,0,4.38S215.81,358.88,215.8,360.26ZM232,402.53c0,.72-.15.86-.88.86h-7.45c-.71,0-.86-.14-.86-.86,0-2.49,0-5,0-7.45,0-.36,0-.71,0-1.06,0-.55.2-.71.74-.74s.8,0,1.2,0H231c.86,0,1,.14,1,1,0,1.37,0,2.75,0,4.12h0C232,399.79,232,401.16,232,402.53Z"/><path class="cls-1" d="M281,414.79V317.15c0-.44,0-.88,0-1.32a2.1,2.1,0,0,0-.09-.66.91.91,0,0,0-1.58-.36c-.27.28-.51.61-.76.92l-17.37,22q-8.52,10.82-17,21.63c-1.14,1.44-1,.93-1,2.89v52.8c0,.4,0,.81,0,1.2a.89.89,0,0,0,.95.9c.31,0,.62,0,.93,0h34.05c.31,0,.63,0,.93,0a.9.9,0,0,0,.93-.93C281,415.77,281,415.28,281,414.79Zm-33.17-43.56c.07-.74.36-1,1.07-1.1a4.64,4.64,0,0,1,.53,0h9.3a4.8,4.8,0,0,1,.66,0,.9.9,0,0,1,.91.94c0,.31,0,.62,0,.93v4.65c0,.27,0,.53,0,.8,0,.87-.27,1.11-1.1,1.15-.27,0-.54,0-.8,0h-8.77a7.23,7.23,0,0,1-.93,0,.89.89,0,0,1-.86-.85,2.68,2.68,0,0,1,0-.4c0-1.95,0-3.9,0-5.85A2.35,2.35,0,0,1,247.82,371.23Zm0,12.4c.06-.73.33-1,1.11-1,1.1,0,2.21,0,3.32,0h6.38a7.23,7.23,0,0,1,.93,0,.77.77,0,0,1,.69.7,4.14,4.14,0,0,1,.05.79v5.45c0,.18,0,.35,0,.53-.06.66-.34.92-1,1a4.73,4.73,0,0,1-.53,0h-9.31c-1.41,0-1.61-.2-1.62-1.6,0-1.77,0-3.55,0-5.32A4.7,4.7,0,0,1,247.83,383.63Zm12.47,18.69c0,.92-.27,1.16-1.19,1.22H250c-.36,0-.71,0-1.06,0-.72-.06-1-.37-1.06-1.1,0-.44,0-.89,0-1.33,0-1.64,0-3.28,0-4.92,0-.83.3-1.1,1.14-1.11,1.68,0,3.36,0,5.05,0h5c1,0,1.23.23,1.24,1.28Q260.33,399.33,260.3,402.32Zm0-37.82c0,1.53-.13,1.66-1.66,1.67h-9.16c-.27,0-.54,0-.8,0a.86.86,0,0,1-.85-.86,16.31,16.31,0,0,1,0-1.85,1.9,1.9,0,0,1,.54-1.05c1-1.33,2.05-2.67,3.1-4,2.15-2.7,4.33-5.38,6.5-8.07a6.59,6.59,0,0,1,.7-.79.94.94,0,0,1,1.59.61,7.4,7.4,0,0,1,0,1.06v6.5Q260.35,361.11,260.34,364.5Zm5.59-24.81a4.91,4.91,0,0,1,.39-.54l8.32-10.36a4.12,4.12,0,0,1,.45-.48,1,1,0,0,1,1.62.54,5.74,5.74,0,0,1,0,.93v9.56a7.11,7.11,0,0,1,0,.93,1,1,0,0,1-.85.89,3.67,3.67,0,0,1-.66,0h-7.84a3.42,3.42,0,0,1-.79-.07A1,1,0,0,1,265.93,339.69ZM264.32,346a.79.79,0,0,1,.73-.67,7.17,7.17,0,0,1,.93,0h8.9c.31,0,.62,0,.93,0,.67.06.9.32,1,1,0,.13,0,.27,0,.4,0,1.86,0,3.72,0,5.58a4.79,4.79,0,0,1,0,.66.82.82,0,0,1-.68.73,4.75,4.75,0,0,1-.92.07H266c-1.51,0-1.7-.19-1.7-1.67,0-1.72,0-3.45,0-5.18A4.69,4.69,0,0,1,264.32,346Zm12.45,56a4.85,4.85,0,0,1,0,.66.91.91,0,0,1-.85.87,5.22,5.22,0,0,1-.79,0H265.8c-1.31,0-1.52-.24-1.53-1.57,0-1.81,0-3.63,0-5.45a3.65,3.65,0,0,1,0-.66.85.85,0,0,1,.78-.78c.3,0,.62,0,.93,0h9a7.17,7.17,0,0,1,.93,0,.85.85,0,0,1,.78.78,4.8,4.8,0,0,1,0,.66C276.78,398.34,276.78,400.16,276.77,402Zm0-17.8c0,1.77,0,3.55,0,5.32a4.85,4.85,0,0,1,0,.66.93.93,0,0,1-.95.91c-.22,0-.44,0-.66,0H266c-1.52,0-1.69-.16-1.69-1.66,0-1.73,0-3.46,0-5.19,0-.17,0-.35,0-.53.05-.76.31-1,1-1.1.31,0,.62,0,.93,0H275a7.11,7.11,0,0,1,.93,0,.87.87,0,0,1,.8.76A5.3,5.3,0,0,1,276.77,384.18Zm0-6.91a3.09,3.09,0,0,1,0,.53.89.89,0,0,1-.78.79c-.31,0-.62,0-.93,0H266c-.31,0-.62,0-.92,0a.87.87,0,0,1-.78-.79,4.8,4.8,0,0,1,0-.66c0-1.82,0-3.63,0-5.45a5,5,0,0,1,0-.67.91.91,0,0,1,.85-.86,5.3,5.3,0,0,1,.8,0h9.44c1.14,0,1.38.26,1.39,1.43C276.78,373.46,276.77,375.37,276.77,377.27Zm0-12.28c0,.9-.27,1.14-1.23,1.15-1.68,0-3.37,0-5,0H266.1c-.31,0-.62,0-.93,0a.87.87,0,0,1-.88-.82,5,5,0,0,1,0-.67c0-1.81,0-3.63,0-5.44a5,5,0,0,1,0-.67.9.9,0,0,1,.77-.8,4.14,4.14,0,0,1,.79-.06h9.69c.93.06,1.22.31,1.22,1.2C276.79,360.92,276.79,363,276.76,365Z"/><path class="cls-1" d="M323.92,397.9c0-6,0-12,0-18,0-1.37-.32-1.62-1.62-1.62q-17.7,0-35.4,0c-1.51,0-1.67.16-1.67,1.68q0,17.83,0,35.67c0,1.52.16,1.69,1.68,1.69h35.27a5.35,5.35,0,0,0,.8,0,.9.9,0,0,0,.92-.93c0-.4,0-.8,0-1.2Zm-17.05-13.81a4.7,4.7,0,0,1,0-.53.89.89,0,0,1,.75-.82,6.29,6.29,0,0,1,1.06-.07H318c1.48,0,1.66.19,1.66,1.7,0,1.72,0,3.45,0,5.18a5.22,5.22,0,0,1,0,.79.85.85,0,0,1-.79.77,7.17,7.17,0,0,1-.93,0h-9.29a7.06,7.06,0,0,1-.8,0,.93.93,0,0,1-.94-.92,2.64,2.64,0,0,1,0-.4C306.87,387.9,306.86,386,306.87,384.09Zm-4,17.91a5,5,0,0,1,0,.67.88.88,0,0,1-.75.82,5.62,5.62,0,0,1-.92.05h-9.43c-1.51,0-1.67-.17-1.68-1.69,0-1.72,0-3.45,0-5.18a7,7,0,0,1,0-.79.9.9,0,0,1,.81-.77c.3,0,.61,0,.92,0h9.3a7.11,7.11,0,0,1,.93,0,.87.87,0,0,1,.79.78,4.8,4.8,0,0,1,0,.66Zm0-12c0,.83-.29,1.12-1.13,1.13-1.77,0-3.54,0-5.31,0h-5.05c-1,0-1.27-.28-1.29-1.25s0-2,0-3.06,0-1.95,0-2.92.3-1.17,1.2-1.23c.31,0,.62,0,.93,0h8.51c.31,0,.62,0,.92,0,.91.05,1.22.33,1.22,1.21Q302.85,386.94,302.82,390Zm16.85,12c0,.18,0,.36,0,.53a.93.93,0,0,1-1,1c-.31,0-.62,0-.93,0h-9.56c-1-.05-1.26-.32-1.3-1.27,0-.45,0-.89,0-1.33v-4c0-.31,0-.62,0-.93a.91.91,0,0,1,.94-.91,4.85,4.85,0,0,1,.66,0h9.57c1.46,0,1.6.15,1.61,1.59C319.67,398.45,319.67,400.22,319.67,402Z"/><path class="cls-1" d="M323.93,445.17v18.94c0,1.27.14,1.19-1.19,1.19h-5.19c-.28,0-.39-.13-.41-.44s0-.64,0-1V435.81c0-.32,0-.64,0-1a.3.3,0,0,0-.1-.24c-.13-.09-.23,0-.31.12-1.18,1.22-2.36,2.45-3.54,3.66-.24.25-.43.57-.78.69-.3-.33-.15-.72-.15-1.08,0-1.7,0-3.4,0-5.1a1.73,1.73,0,0,1,.43-1.22q2.72-3.12,5.37-6.29a1.33,1.33,0,0,1,1.15-.55c1.31,0,2.62,0,3.94,0h.29c.44,0,.51.09.52.5s0,.57,0,.86Z"/><path class="cls-1" d="M301.6,434.37c-.4.39-.63.61-.85.84l-3.14,3.25a7,7,0,0,1-.55.54.23.23,0,0,1-.16,0,.2.2,0,0,1-.11-.13,3.87,3.87,0,0,1,0-.48c0-1.86,0-3.72,0-5.58a1.75,1.75,0,0,1,.45-1.21c1.79-2.06,3.55-4.13,5.3-6.22a1.42,1.42,0,0,1,1.23-.58c1.35,0,2.7,0,4,0,.6,0,.63.06.65.68,0,.19,0,.38,0,.57V464c0,1.43.1,1.29-1.3,1.3h-4.42c-.26,0-.52,0-.77,0a.3.3,0,0,1-.3-.31c0-.32,0-.64,0-1V435.63C301.63,435.28,301.61,434.94,301.6,434.37Z"/><path class="cls-1" d="M172.67,440a3.29,3.29,0,0,1-2.48-.94,3.55,3.55,0,0,1-.91-2.58,9.32,9.32,0,0,1,.12-1.39,8.2,8.2,0,0,1,.33-1.34h1.45a12.83,12.83,0,0,0-.27,2.6,2.55,2.55,0,0,0,.47,1.61,1.45,1.45,0,0,0,1.24.62h6.52v-7.38h1.54V440Zm.73-8.81a1.06,1.06,0,0,1-.72-.26,1.31,1.31,0,0,1,0-1.67,1.06,1.06,0,0,1,.72-.26,1,1,0,0,1,.73.28,1.1,1.1,0,0,1,.28.82,1.12,1.12,0,0,1-.27.8A1,1,0,0,1,173.4,431.18Zm3.14,0a1,1,0,0,1-.75-.29,1.34,1.34,0,0,1,0-1.61,1,1,0,0,1,.75-.29,1,1,0,0,1,.75.3,1.31,1.31,0,0,1,0,1.59A1,1,0,0,1,176.54,431.18Z"/><path class="cls-1" d="M184,426.19h1.62v12.38h2.39c.06,0,.1,0,.1.07v1.26c0,.06,0,.09-.1.09h-4Z"/><path class="cls-1" d="M196.71,440a6.69,6.69,0,0,1-1.64-.22,8.31,8.31,0,0,1-1.72-.68,6.76,6.76,0,0,1-3.38.9h-2.1a.08.08,0,0,1-.09-.09v-1.26s0-.07.09-.07H190a5.63,5.63,0,0,0,2.16-.36,7.37,7.37,0,0,1-1.43-1.46,10.73,10.73,0,0,1-1.24-2.06,7.77,7.77,0,0,1-.67-2.09,7.56,7.56,0,0,1,2.24-1.47,6.46,6.46,0,0,1,2.54-.53,7.91,7.91,0,0,1,4.33,1.33,7.58,7.58,0,0,1-.87,3.55,7.35,7.35,0,0,1-2.39,2.71,5.51,5.51,0,0,0,2,.38h2.2c.06,0,.09,0,.09.07v1.26a.08.08,0,0,1-.09.09Zm-3.34-2.6a6.74,6.74,0,0,0,2.08-2.08,5.63,5.63,0,0,0,.78-2.62,5.24,5.24,0,0,0-5.71.38,7.23,7.23,0,0,0,1,2.38A7.65,7.65,0,0,0,193.37,437.39Z"/><path class="cls-1" d="M198.66,440s-.08,0-.08-.09v-1.26a.07.07,0,0,1,.08-.07h2.26a8.8,8.8,0,0,1-.68-3.1,6.16,6.16,0,0,1,.66-2.89,5.26,5.26,0,0,1,1.53-.89,4.94,4.94,0,0,1,1.79-.33,3.92,3.92,0,0,1,2,.5,3.26,3.26,0,0,1,1.32,1.43,4.56,4.56,0,0,1,.46,2.09,5.73,5.73,0,0,1-.38,2.14,2.19,2.19,0,0,0,.88.82,2.86,2.86,0,0,0,1.27.23h.09c.06,0,.1,0,.1.07v1.26c0,.06,0,.09-.1.09h-.09a4.45,4.45,0,0,1-1.65-.27,3.62,3.62,0,0,1-1.31-.91,3.58,3.58,0,0,1-1.35.89,4.54,4.54,0,0,1-1.6.29Zm3.22-4.83a9,9,0,0,0,.15,1.65,8.92,8.92,0,0,0,.54,1.76h1.28a2.25,2.25,0,0,0,1.87-.82,3.82,3.82,0,0,0,.64-2.39,2.81,2.81,0,0,0-.62-1.87,2,2,0,0,0-1.52-.73,3.14,3.14,0,0,0-1.13.21,3.38,3.38,0,0,0-1,.54,2.62,2.62,0,0,0-.19.78Q201.88,434.68,201.88,435.16Z"/><path class="cls-1" d="M209.67,440a.08.08,0,0,1-.09-.09v-1.26s0-.07.09-.07h2.94v-7.38h1.62v7.38H217c.06,0,.09,0,.09.07v1.26a.08.08,0,0,1-.09.09Zm2.16-10.53a1.08,1.08,0,0,1-.72-.26,1.31,1.31,0,0,1,0-1.67,1.08,1.08,0,0,1,.72-.26,1,1,0,0,1,.74.28,1.14,1.14,0,0,1,.27.82,1.08,1.08,0,0,1-.27.8A1,1,0,0,1,211.83,429.46Zm3.14,0a1,1,0,0,1-.74-.29,1.32,1.32,0,0,1,0-1.61,1,1,0,0,1,.75-.29,1,1,0,0,1,.76.3,1.35,1.35,0,0,1,0,1.59A1,1,0,0,1,215,429.46Z"/><path class="cls-1" d="M216.77,440c-.06,0-.08,0-.08-.09v-1.26s0-.07.08-.07h7.79a6.67,6.67,0,0,1-1.14-3.32,4.92,4.92,0,0,0-.78-2.19,1.8,1.8,0,0,0-1.51-.64,5.71,5.71,0,0,0-2.64.72l-.63-1.25a5.36,5.36,0,0,1,1.58-.7,7.17,7.17,0,0,1,1.71-.19,3.86,3.86,0,0,1,1.85.4,2.85,2.85,0,0,1,1.18,1.18,6.7,6.7,0,0,1,.67,2.25c.28,1.9.72,3.14,1.32,3.74h1.21c.06,0,.09,0,.09.07v1.26a.08.08,0,0,1-.09.09Zm4.32,3.64a1,1,0,0,1-.74-.29,1.08,1.08,0,0,1-.28-.8,1.13,1.13,0,0,1,.27-.81,1,1,0,0,1,.75-.28,1,1,0,0,1,.76.29,1.2,1.2,0,0,1,.26.8,1.17,1.17,0,0,1-.26.79A1,1,0,0,1,221.09,443.63Z"/><path class="cls-1" d="M227.2,440a.08.08,0,0,1-.09-.09v-1.26s0-.07.09-.07h2.26a8.8,8.8,0,0,1-.68-3.1,6.16,6.16,0,0,1,.66-2.89,5.34,5.34,0,0,1,1.52-.89,5,5,0,0,1,1.79-.33,3.93,3.93,0,0,1,2,.5,3.38,3.38,0,0,1,1.32,1.43,4.56,4.56,0,0,1,.46,2.09,5.45,5.45,0,0,1-.52,2.47,3.69,3.69,0,0,1-1.46,1.59,4.18,4.18,0,0,1-2.16.55Zm3.21-4.83a9,9,0,0,0,.15,1.65,8.37,8.37,0,0,0,.55,1.76h1.28a2.22,2.22,0,0,0,1.86-.82,3.82,3.82,0,0,0,.65-2.39,2.81,2.81,0,0,0-.62-1.87,2,2,0,0,0-1.53-.73,3.18,3.18,0,0,0-1.13.21,3.38,3.38,0,0,0-1,.54,2.61,2.61,0,0,0-.18.78C230.43,434.55,230.41,434.84,230.41,435.16Z"/><path class="cls-1" d="M242.17,444.35a5.85,5.85,0,0,1-3.27-.93l.73-1.21a7.91,7.91,0,0,0,1.2.52,4.34,4.34,0,0,0,1.38.21,2.75,2.75,0,0,0,1.93-.66,2.32,2.32,0,0,0,.7-1.77V440h-1.78a4,4,0,0,1-3-1.06,4.17,4.17,0,0,1-1.06-3.08,4.42,4.42,0,0,1,1.35-3.4,5.14,5.14,0,0,1,3.63-1.26h2.38v9.24a3.81,3.81,0,0,1-1.1,2.89A4.33,4.33,0,0,1,242.17,444.35Zm2.65-5.78v-6H244a3.5,3.5,0,0,0-2.51.85,3.11,3.11,0,0,0-.9,2.38,2.92,2.92,0,0,0,.62,2.08,2.42,2.42,0,0,0,1.86.66Z"/><path class="cls-1" d="M258.92,444.35a3.27,3.27,0,0,1-2.68-1.18,4.86,4.86,0,0,1-1-3.2,10.56,10.56,0,0,1,.75-4h1.5a10.76,10.76,0,0,0-.62,3.91,3.65,3.65,0,0,0,.62,2.27,2.07,2.07,0,0,0,1.75.8h.89a3.2,3.2,0,0,0,2.31-.72,2.93,2.93,0,0,0,.74-2.18v-8.85h1.54v8.73a4.57,4.57,0,0,1-1.09,3.32,4.64,4.64,0,0,1-3.43,1.11ZM260,431.18a1,1,0,0,1-.74-.29,1.08,1.08,0,0,1-.28-.8,1.13,1.13,0,0,1,.27-.81A1,1,0,0,1,260,429a1,1,0,0,1,.76.3,1.35,1.35,0,0,1,0,1.59A1,1,0,0,1,260,431.18Z"/><path class="cls-1" d="M267.1,438.57h6a11.46,11.46,0,0,0-1.36-4.15,9.24,9.24,0,0,0-2.85-3l.58-1.37a8.78,8.78,0,0,1,3.41,3.25,13.51,13.51,0,0,1,1.76,5.24h2c.06,0,.09,0,.09.07v1.26a.08.08,0,0,1-.09.09H267.1Z"/><path class="cls-1" d="M276.53,440a.08.08,0,0,1-.09-.09v-1.26s0-.07.09-.07h2.25a8.77,8.77,0,0,1-.67-3.1,6.28,6.28,0,0,1,.65-2.89,5.53,5.53,0,0,1,1.53-.89,4.94,4.94,0,0,1,1.79-.33,3.89,3.89,0,0,1,2,.5,3.35,3.35,0,0,1,1.33,1.43,4.69,4.69,0,0,1,.46,2.09,5.59,5.59,0,0,1-.52,2.47,3.75,3.75,0,0,1-1.46,1.59,4.18,4.18,0,0,1-2.16.55Zm3.21-4.83a9,9,0,0,0,.15,1.65,8.92,8.92,0,0,0,.54,1.76h1.29a2.22,2.22,0,0,0,1.86-.82,3.82,3.82,0,0,0,.65-2.39,2.77,2.77,0,0,0-.63-1.87,2,2,0,0,0-1.52-.73A3.18,3.18,0,0,0,281,433a3.38,3.38,0,0,0-1,.54,3,3,0,0,0-.19.78Q279.74,434.68,279.74,435.16Z"/><path class="cls-1" d="M170.46,461.79a4.84,4.84,0,0,1-3.39-1.11,4,4,0,0,1-1.22-3.09,4.35,4.35,0,0,1,1.35-3.38,5.18,5.18,0,0,1,3.63-1.23H172v-1.14h1.55v8.53h2.06c.06,0,.09,0,.09.07v1.26a.08.08,0,0,1-.09.09Zm1.57-1.42v-6h-1.15a3.52,3.52,0,0,0-2.52.84,3,3,0,0,0-.89,2.34,2.68,2.68,0,0,0,.77,2.08,3.08,3.08,0,0,0,2.19.72Zm-2.51-10.21a1.08,1.08,0,0,1-.72-.26,1,1,0,0,1-.3-.83,1,1,0,0,1,1-1.09,1,1,0,0,1,.74.28,1.31,1.31,0,0,1,0,1.62A1,1,0,0,1,169.52,450.16Zm3.14,0a1,1,0,0,1-.74-.28,1.33,1.33,0,0,1,0-1.62,1,1,0,0,1,.75-.28,1,1,0,0,1,.76.3,1.33,1.33,0,0,1,0,1.58A1,1,0,0,1,172.66,450.16Z"/><path class="cls-1" d="M175.47,461.79a.08.08,0,0,1-.09-.09v-1.26c0-.05,0-.07.09-.07h2.25a8.85,8.85,0,0,1-.68-3.11,6.18,6.18,0,0,1,.66-2.89,5,5,0,0,1,1.53-.88,4.94,4.94,0,0,1,1.79-.33,3.82,3.82,0,0,1,2,.5,3.24,3.24,0,0,1,1.32,1.42,4.59,4.59,0,0,1,.47,2.09,5.52,5.52,0,0,1-.52,2.47,3.77,3.77,0,0,1-1.47,1.59,4.19,4.19,0,0,1-2.16.56Zm3.21-4.84a8.46,8.46,0,0,0,.69,3.42h1.28a2.26,2.26,0,0,0,1.87-.83,3.79,3.79,0,0,0,.64-2.38,2.73,2.73,0,0,0-.62-1.87,1.93,1.93,0,0,0-1.52-.73,3.36,3.36,0,0,0-1.13.2,3.92,3.92,0,0,0-1,.54,3.17,3.17,0,0,0-.19.78Q178.68,456.47,178.68,457Z"/><path class="cls-1" d="M187.8,448h1.62v13.8H187.8Z"/><path class="cls-1" d="M192.05,460.37h6a11.52,11.52,0,0,0-1.36-4.16,9.21,9.21,0,0,0-2.85-3l.58-1.38a8.8,8.8,0,0,1,3.41,3.26,13.45,13.45,0,0,1,1.76,5.24h2c.06,0,.09,0,.09.07v1.26a.08.08,0,0,1-.09.09h-9.61Z"/><path class="cls-1" d="M201.48,461.79a.08.08,0,0,1-.09-.09v-1.26c0-.05,0-.07.09-.07h2.94V453H206v7.39h2.72c.06,0,.09,0,.09.07v1.26a.08.08,0,0,1-.09.09Zm2.16-10.54a1.15,1.15,0,0,1-.72-1.92,1.08,1.08,0,0,1,.72-.26,1,1,0,0,1,.74.28,1.1,1.1,0,0,1,.27.81,1.13,1.13,0,0,1-.27.81A1,1,0,0,1,203.64,451.25Zm3.14,0A1,1,0,0,1,206,451a1.09,1.09,0,0,1-.28-.81,1.13,1.13,0,0,1,.27-.81,1,1,0,0,1,.75-.28.93.93,0,0,1,.75.3,1.29,1.29,0,0,1,0,1.58A.93.93,0,0,1,206.78,451.25Z"/><path class="cls-1" d="M220.42,461.79a4,4,0,0,1-1.5-.27,4.61,4.61,0,0,1-1.43-1,3,3,0,0,1-1.06.91,3.28,3.28,0,0,1-1.59.36h-6.26a.08.08,0,0,1-.09-.09v-1.26c0-.05,0-.07.09-.07h2.6v-6h1.54v6h2a1.72,1.72,0,0,0,1.37-.58,2.33,2.33,0,0,0,.49-1.52v-3.88h1.54v4.36l0,.21a2.88,2.88,0,0,0,1,1.09,2.67,2.67,0,0,0,1.37.32h1.11V453h1.54v7.39h2.43c.07,0,.1,0,.1.07v1.26c0,.06,0,.09-.1.09Z"/><path class="cls-1" d="M225.32,461.79c-.06,0-.08,0-.08-.09v-1.26c0-.05,0-.07.08-.07h2.26a8.85,8.85,0,0,1-.68-3.11,6.18,6.18,0,0,1,.66-2.89,5.09,5.09,0,0,1,1.52-.88,5,5,0,0,1,1.8-.33,3.82,3.82,0,0,1,2,.5,3.36,3.36,0,0,1,1.32,1.42,4.59,4.59,0,0,1,.46,2.09,5.39,5.39,0,0,1-.52,2.47,3.69,3.69,0,0,1-1.46,1.59,4.19,4.19,0,0,1-2.16.56Zm3.21-4.84a9.15,9.15,0,0,0,.15,1.66,10,10,0,0,0,.55,1.76h1.28a2.22,2.22,0,0,0,1.86-.83,3.73,3.73,0,0,0,.65-2.38,2.78,2.78,0,0,0-.62-1.87,1.93,1.93,0,0,0-1.52-.73,3.42,3.42,0,0,0-1.14.2,3.86,3.86,0,0,0-1,.54,2.78,2.78,0,0,0-.19.78C228.55,456.34,228.53,456.63,228.53,457Z"/><path class="cls-1" d="M247.8,461.79a4.84,4.84,0,0,1-3.39-1.11,4,4,0,0,1-1.22-3.09,4.35,4.35,0,0,1,1.35-3.38,5.18,5.18,0,0,1,3.63-1.23h1.19v-1.14h1.56v8.53H253c.06,0,.09,0,.09.07v1.26a.08.08,0,0,1-.09.09Zm1.56-1.42v-6h-1.14a3.52,3.52,0,0,0-2.52.84,3,3,0,0,0-.89,2.34,2.68,2.68,0,0,0,.77,2.08,3.08,3.08,0,0,0,2.19.72Zm-2.5-10.21a1.08,1.08,0,0,1-.72-.26,1,1,0,0,1-.3-.83,1,1,0,0,1,1-1.09,1,1,0,0,1,.74.28,1.1,1.1,0,0,1,.28.81,1.14,1.14,0,0,1-.28.81A1,1,0,0,1,246.86,450.16Zm3.14,0a1,1,0,0,1-.74-.28,1.33,1.33,0,0,1,0-1.62A1,1,0,0,1,250,448a1,1,0,0,1,.76.3,1.33,1.33,0,0,1,0,1.58A1,1,0,0,1,250,450.16Z"/><path class="cls-1" d="M252.81,461.79a.08.08,0,0,1-.09-.09v-1.26c0-.05,0-.07.09-.07h2.94V453h1.61v7.39h2.73c.06,0,.09,0,.09.07v1.26a.08.08,0,0,1-.09.09Zm2.23,3.63a1,1,0,0,1-1-1.09,1,1,0,0,1,.3-.83,1.08,1.08,0,0,1,.72-.26,1,1,0,0,1,.74.28,1.35,1.35,0,0,1,0,1.62A1,1,0,0,1,255,465.42Zm3.14,0a1,1,0,0,1-.74-.28,1.09,1.09,0,0,1-.28-.81,1.13,1.13,0,0,1,.27-.81,1,1,0,0,1,.75-.28.93.93,0,0,1,.75.3,1.13,1.13,0,0,1,.27.79,1.11,1.11,0,0,1-.27.79A.93.93,0,0,1,258.18,465.42Z"/><path class="cls-1" d="M259.91,461.79a.08.08,0,0,1-.09-.09v-1.26c0-.05,0-.07.09-.07h2.39V448h1.62v12.38h2.37s.08,0,.08.07v1.26c0,.06,0,.09-.08.09Z"/><path class="cls-1" d="M266.1,461.79a.08.08,0,0,1-.09-.09v-1.26c0-.05,0-.07.09-.07h7.79a6.84,6.84,0,0,1-1.15-3.33,4.84,4.84,0,0,0-.77-2.18,1.83,1.83,0,0,0-1.52-.65,5.69,5.69,0,0,0-2.63.73l-.63-1.25a5.16,5.16,0,0,1,1.57-.7,7.16,7.16,0,0,1,1.71-.2,4,4,0,0,1,1.86.4,2.94,2.94,0,0,1,1.18,1.19,6.87,6.87,0,0,1,.67,2.24c.28,1.9.71,3.15,1.31,3.75h1.22c.06,0,.09,0,.09.07v1.26a.08.08,0,0,1-.09.09Z"/><path class="cls-1" d="M276.53,461.79a.08.08,0,0,1-.09-.09v-1.26c0-.05,0-.07.09-.07h2.25a8.82,8.82,0,0,1-.67-3.11,6.3,6.3,0,0,1,.65-2.89,5.27,5.27,0,0,1,1.53-.88,4.94,4.94,0,0,1,1.79-.33,3.86,3.86,0,0,1,2,.5,3.36,3.36,0,0,1,1.32,1.42,4.72,4.72,0,0,1,.46,2.09,5.39,5.39,0,0,1-.52,2.47,3.75,3.75,0,0,1-1.46,1.59,4.19,4.19,0,0,1-2.16.56Zm3.21-4.84a8.46,8.46,0,0,0,.69,3.42h1.29a2.22,2.22,0,0,0,1.86-.83,3.79,3.79,0,0,0,.65-2.38,2.73,2.73,0,0,0-.63-1.87,1.92,1.92,0,0,0-1.52-.73,3.41,3.41,0,0,0-1.13.2,3.92,3.92,0,0,0-1,.54,3.17,3.17,0,0,0-.19.78Q279.74,456.47,279.74,457Z"/><path class="cls-2" d="M95.43,58.76h-5.1l.29-1.23h5.13Z"/><path class="cls-2" d="M118,47.78c.16,3.1.19,6.28.19,9.46a5,5,0,0,0,.87,3.19,2.29,2.29,0,0,0,1.71.66h.2V63h-.26c-2.53,0-3.56-1.94-3.59-4h-.07a4.28,4.28,0,0,1-2.2,2.63v0a1.66,1.66,0,0,1,1.41,1.89,4.4,4.4,0,0,1-.6,2,9.36,9.36,0,0,1-6.59,3A5.22,5.22,0,0,1,105.56,67,5.55,5.55,0,0,1,104,63.11a11.25,11.25,0,0,1,1.1-4.6l.57.22a9.27,9.27,0,0,0-.66,3.08,4.92,4.92,0,0,0,.85,2.89,4.2,4.2,0,0,0,3.34,1.67,8.22,8.22,0,0,0,4.22-1.1,7.37,7.37,0,0,0,1.86-1.45c0-.56-2.42-1-4.58-1.2l-.08-.14.78-1.61a10.5,10.5,0,0,0,3.94-1.26c1.33-1,1.46-1.48,1.46-4.16,0-2-.13-4.14-.25-6.38a12.74,12.74,0,0,1,1.26-1.38Zm-9.26,24.83c-.6-.58-1.12-1-1.71-1.53a13.31,13.31,0,0,1,1.16-1.39,13.5,13.5,0,0,1,1.67,1.57A8,8,0,0,1,108.74,72.61Zm2.83-.19c-.6-.58-1.13-1-1.71-1.53A13.5,13.5,0,0,1,111,69.5a13.5,13.5,0,0,1,1.67,1.57A8.43,8.43,0,0,1,111.57,72.42Z"/><path class="cls-2" d="M129.71,58.38a13.8,13.8,0,0,0-4.6-1,2.33,2.33,0,0,0-1.86.73l.17.73L123,60.14h-.14l-.72-1.93a2.9,2.9,0,0,1,3.18-2.64,14.2,14.2,0,0,1,4.8,1.26,6.88,6.88,0,0,0,2.51.48h1.27l0,0L133,58.85a4.64,4.64,0,0,0-2.47.56L128.08,61a11.43,11.43,0,0,1-6.43,2H121a.94.94,0,0,1-1-1,.91.91,0,0,1,1-.9h.9c2.37,0,4.8-.83,7.82-2.65Zm1.64,1h0c.06,1.25,1.08,1.7,2.59,1.7h.4V63h-.46c-1.89,0-3.15-.66-3.15-2.42a7.52,7.52,0,0,1,0-.82Z"/><path class="cls-2" d="M137.92,61.71A4.72,4.72,0,0,1,134.58,63h-.2a.94.94,0,0,1-1-1,.92.92,0,0,1,1-.9h.13a5.4,5.4,0,0,0,3.33-1c-.27-2.84-.33-5.77-.33-8,0-.59-.11-1.53-.11-2.22a1.81,1.81,0,0,1,.45-1.29,5.6,5.6,0,0,1,.82-.76l.15.09a3,3,0,0,0,0,.62,6,6,0,0,0,1.13,3l-1.07.75a48.75,48.75,0,0,0,.25,7.14l.06,0a3.75,3.75,0,0,1,1.87-.51,2.2,2.2,0,0,1,1.67.81,3.16,3.16,0,0,1,.71,2,2.57,2.57,0,0,1-2.32,2.81c-1.36,0-2.49-1.1-3.07-2.77Zm3.83,1.13a1.11,1.11,0,0,0,.71-.27,2.15,2.15,0,0,0-.54-1.36,1.71,1.71,0,0,0-1.37-.66,2.24,2.24,0,0,0-1.19.32A2.77,2.77,0,0,0,141.75,62.84Z"/><path class="cls-2" d="M146.08,63.22a19,19,0,0,0,.16-2.93V58.85c0-2.68-.29-6.58-.52-9.11a13.4,13.4,0,0,1,1.43-1.55l.13,0c.31,3.19.38,6.9.38,10.31a21.45,21.45,0,0,1-.1,2.42,3.77,3.77,0,0,1-1.29,2.36Z"/><path class="cls-2" d="M166.58,60.51a4.78,4.78,0,0,1-2.67-.63,2.59,2.59,0,0,1-1-2.42,3.86,3.86,0,0,1,.53-1.7,3.08,3.08,0,0,1,2.4-1.77c1.19,0,2.14.92,2.9,2.81a12.62,12.62,0,0,1,.66,3.56,8.07,8.07,0,0,1-.23,2.09A3.36,3.36,0,0,1,168.05,64a9.49,9.49,0,0,1-6.13,2.46A5.33,5.33,0,0,1,156.38,61a10,10,0,0,1,.88-4.13l.61.16a7.89,7.89,0,0,0-.49,2.43c0,3.08,1.9,5,4.58,5a8.57,8.57,0,0,0,4.7-1.41c.9-.6,1.81-1.36,1.81-1.77a2.21,2.21,0,0,0-.21-.85A9.19,9.19,0,0,1,166.58,60.51Zm-2.82-8.63c-.6-.57-1.12-1-1.71-1.53A13.31,13.31,0,0,1,163.21,49a15.15,15.15,0,0,1,1.67,1.57A7.64,7.64,0,0,1,163.76,51.88Zm1.8,4c-.83,0-1.78.66-1.78,1.38s.82,1.35,2.88,1.35a7.12,7.12,0,0,0,1.32-.09C167.48,56.86,166.65,55.89,165.56,55.89Zm1-4.2c-.6-.57-1.13-1-1.71-1.53A14.67,14.67,0,0,1,166,48.77a14.3,14.3,0,0,1,1.67,1.57A7.62,7.62,0,0,1,166.59,51.69Z"/><path class="cls-2" d="M175.89,63h-.16a3.22,3.22,0,0,1-2.5-.84c-.9-.91-.91-2-.91-4.1,0-2.78-.16-5.7-.38-8.8a13.56,13.56,0,0,1,1.37-1.37l.11.06c.23,3.21.23,7,.23,10.61v.83a1.53,1.53,0,0,0,1.1,1.57,3,3,0,0,0,.94.16h.2Z"/><path class="cls-2" d="M176.21,61.09c1.13,0,2.3-.45,2.52-1.29l.43-1.58,1-.73.09.1a7.75,7.75,0,0,0-.33,1.7,1.48,1.48,0,0,0,.49,1.22,2.73,2.73,0,0,0,1.81.58h.27V63h-.34c-1.43,0-2.52-.4-3-1.5h0a3.17,3.17,0,0,1-2.92,1.5h-.28a.94.94,0,0,1-1-1,.91.91,0,0,1,1-.9Zm1.66,7.72c-.6-.57-1.13-1-1.71-1.52a13.5,13.5,0,0,1,1.15-1.39A14.19,14.19,0,0,1,179,67.46,7.62,7.62,0,0,1,177.87,68.81Zm2.83-.19c-.6-.57-1.13-1-1.72-1.52a12.34,12.34,0,0,1,1.16-1.39,14.19,14.19,0,0,1,1.67,1.56A7.62,7.62,0,0,1,180.7,68.62Z"/><path class="cls-2" d="M197.5,63h-.37c-1.81,0-2.65-.56-3-1.38H194A3.29,3.29,0,0,1,191.52,63a1.45,1.45,0,0,1-1.59-1.22h-.06A3.32,3.32,0,0,1,187.33,63a1.25,1.25,0,0,1-1.4-1.25h-.06A3.94,3.94,0,0,1,182.75,63h-.25a.94.94,0,0,1-1-1,.92.92,0,0,1,1-.9h.5a3.53,3.53,0,0,0,3.09-1.36l.73-1.14,1.13-.4.06.08a5.78,5.78,0,0,0-1,2.09.73.73,0,0,0,.79.73,2.09,2.09,0,0,0,1.28-.44,3.15,3.15,0,0,0,.95-1.29l.35-.86,1.12-.51.05.06a6.25,6.25,0,0,0-.6,2.19.8.8,0,0,0,.82.85,1.71,1.71,0,0,0,1-.32,2.38,2.38,0,0,0,.85-1.41c0-.23.14-.51.29-1.15l1.11-.75.06,0a8.35,8.35,0,0,0-.37,2c0,1.16,1,1.58,2.41,1.58h.32Z"/><path class="cls-2" d="M197.82,61.09a3.35,3.35,0,0,0,1.64-.39,1.69,1.69,0,0,0,.78-1.59c0-2.34-.19-4.9-.43-7.6-.06-.67-.14-1.29-.14-1.83a1.45,1.45,0,0,1,.44-1,6.7,6.7,0,0,1,.8-.81l.1.08a6.61,6.61,0,0,0,1.19,3.35,8.25,8.25,0,0,1-.92.75c.06,1.68.19,3.46.19,5.08a8.62,8.62,0,0,1-.59,3.68,3,3,0,0,1-1.33,1.7,4.24,4.24,0,0,1-1.83.44h-.22a.94.94,0,0,1-1-1,.92.92,0,0,1,1-.9Z"/><path class="cls-2" d="M204.73,63.22a19,19,0,0,0,.17-2.93V58.85c0-2.68-.3-6.58-.53-9.11a13.4,13.4,0,0,1,1.43-1.55l.14,0c.3,3.19.38,6.9.38,10.31a21.21,21.21,0,0,1-.11,2.42,3.8,3.8,0,0,1-1.28,2.36Z"/><path class="cls-2" d="M225.43,58a6.51,6.51,0,0,1-1.52.16c-1.58,0-2.8-.41-3.27-1.47a2.43,2.43,0,0,1-.2-1,3.93,3.93,0,0,1,1-2.71,2.54,2.54,0,0,1,1.78-.91c1.11,0,2,1,2.63,2.71a9.93,9.93,0,0,1,.56,3.44,3.59,3.59,0,0,1-.68,2.08c1.38.45,1.56.88,1.56,1.93a3.64,3.64,0,0,1-.4,1.67,5.48,5.48,0,0,1-1.8,1.75,8.56,8.56,0,0,1-5,1.56,5.24,5.24,0,0,1-3.63-1.39A5.44,5.44,0,0,1,215,61.94a11.18,11.18,0,0,1,1-4.6l.58.22a9,9,0,0,0-.55,3.08,4.86,4.86,0,0,0,.84,2.88,4.34,4.34,0,0,0,3.48,1.67,8.18,8.18,0,0,0,4.23-1.08,6.2,6.2,0,0,0,1.93-1.49c0-.56-2.68-1.09-5.2-1.09l-.06-.1.65-1.51c2.4-.28,3.65-.69,3.65-1.45C225.48,58.34,225.45,58.21,225.43,58Zm-5.72,13.71c-.61-.57-1.13-1-1.72-1.53a13.31,13.31,0,0,1,1.16-1.39,13.5,13.5,0,0,1,1.67,1.57A7.62,7.62,0,0,1,219.71,71.73Zm2.82-.19c-.6-.57-1.13-1-1.71-1.53A13.31,13.31,0,0,1,222,68.62a14.25,14.25,0,0,1,1.67,1.57A8,8,0,0,1,222.53,71.54Zm-.1-24a13.32,13.32,0,0,1,1.76,1.57A5.69,5.69,0,0,1,223,50.57c-.57-.54-1.14-1-1.73-1.5C221.64,48.54,222,48,222.43,47.57Zm.5,6.33a1.67,1.67,0,0,0-1.67,1.29c0,.73,1.4,1.27,2.78,1.27a7.91,7.91,0,0,0,1.2-.06C224.71,54.76,223.92,53.9,222.93,53.9Z"/><path class="cls-2" d="M245.09,48.51c.12,3.62.21,6.8.21,10.3a2.62,2.62,0,0,0,.73,1.87,2.34,2.34,0,0,0,1.43.41h.16V63h-.27a2.47,2.47,0,0,1-2.3-1.1H245a9.63,9.63,0,0,1-.51,2.18,5.24,5.24,0,0,1-1.69,1.66,5.61,5.61,0,0,1-3,.9,3.87,3.87,0,0,1-3-1.26,4.86,4.86,0,0,1-1-3.31,8.62,8.62,0,0,1,1-3.69l.53.21a6.37,6.37,0,0,0-.62,2.55,3.59,3.59,0,0,0,.75,2.27,3,3,0,0,0,2.53,1.18,5.11,5.11,0,0,0,2.54-.68,3.89,3.89,0,0,0,1.59-1.4,3.08,3.08,0,0,0,.11-1c0-2.29-.12-6.08-.44-11.79A10.09,10.09,0,0,1,245,48.44Z"/><path class="cls-2" d="M248,61.09c1.24,0,2.24-.41,2.41-1.29.12-.57.24-1.12.39-1.67a8,8,0,0,1,1-.76l.09.09a5.31,5.31,0,0,0-.23,1.38,1.73,1.73,0,0,0,.87,1.62,18.47,18.47,0,0,1,3-3.72A5.64,5.64,0,0,1,259,55.15a3,3,0,0,1,2.72,1.61,3.68,3.68,0,0,1,.37,1.71,4.29,4.29,0,0,1-3.33,4,11.6,11.6,0,0,1-3.64.46c-1.94,0-3.42-.44-4.22-1.54h0a3.46,3.46,0,0,1-3,1.54h-.18a.94.94,0,0,1-1-1,.91.91,0,0,1,1-.9Zm8,0a9.3,9.3,0,0,0,3.8-.83c.71-.34,1.21-.66,1.21-1.06A2.56,2.56,0,0,0,258.44,57c-1.73,0-3.71,1.59-5.23,3.8A9.11,9.11,0,0,0,256,61.09Z"/><path class="cls-2" d="M264.85,63.22a19,19,0,0,0,.16-2.93V58.85c0-2.68-.29-6.58-.52-9.11a13.4,13.4,0,0,1,1.43-1.55l.13,0c.31,3.19.38,6.9.38,10.31a24.1,24.1,0,0,1-.1,2.42A3.77,3.77,0,0,1,265,63.32Z"/><path class="cls-2" d="M277,61.09V63h-1.22a6.7,6.7,0,0,1-1.11,3,5.24,5.24,0,0,1-3.53,2.51A8.61,8.61,0,0,1,266.9,67l.25-.49a4.43,4.43,0,0,0,2.15.53,5.73,5.73,0,0,0,4.08-2,4.71,4.71,0,0,0,1.37-2H274c-3,0-4.52-.95-4.52-3a4,4,0,0,1,.75-2.35,2.84,2.84,0,0,1,2.26-1.41c1.35,0,2.74,1.89,3.15,4.89ZM273.66,59a2.18,2.18,0,0,0-1.56-.82c-.82,0-1.65.71-1.65,1.29,0,.75.69,1.19,1.59,1.45a10.16,10.16,0,0,0,2.64.22A4.6,4.6,0,0,0,273.66,59Z"/><path class="cls-2" d="M277.3,61.09c1.13,0,2.3-.45,2.52-1.29l.43-1.58,1-.73.09.1a7.75,7.75,0,0,0-.33,1.7,1.48,1.48,0,0,0,.49,1.22,2.73,2.73,0,0,0,1.81.58h.27V63h-.34c-1.44,0-2.52-.4-3-1.5h-.06a3.14,3.14,0,0,1-2.91,1.5H277a.94.94,0,0,1-1-1,.91.91,0,0,1,1-.9Zm1.61-5.55c-.6-.57-1.12-1-1.71-1.52a12.34,12.34,0,0,1,1.16-1.39A13.4,13.4,0,0,1,280,54.19,7.64,7.64,0,0,1,278.91,55.54Zm2.83-.19c-.6-.57-1.13-1-1.71-1.52a13.5,13.5,0,0,1,1.15-1.39A12.73,12.73,0,0,1,282.85,54,7.62,7.62,0,0,1,281.74,55.35Z"/><path class="cls-2" d="M283.91,61.09a3.35,3.35,0,0,0,1.64-.39,1.69,1.69,0,0,0,.78-1.59c0-2.34-.19-4.9-.43-7.6-.06-.67-.15-1.29-.15-1.83a1.49,1.49,0,0,1,.44-1,7.71,7.71,0,0,1,.81-.81l.1.08a6.61,6.61,0,0,0,1.19,3.35,8.25,8.25,0,0,1-.92.75c.05,1.68.19,3.46.19,5.08a8.62,8.62,0,0,1-.59,3.68,3,3,0,0,1-1.33,1.7,4.24,4.24,0,0,1-1.83.44h-.22a.94.94,0,0,1-1-1,.92.92,0,0,1,1-.9Z"/><path class="cls-2" d="M290.82,63.22a19,19,0,0,0,.16-2.93V58.85c0-2.68-.29-6.58-.52-9.11a13.4,13.4,0,0,1,1.43-1.55l.13,0c.31,3.19.39,6.9.39,10.31A21.21,21.21,0,0,1,292.3,61,3.77,3.77,0,0,1,291,63.32Z"/><path class="cls-2" d="M303.71,61.58c-1.53,0-2.66-.55-2.66-1.72a4.25,4.25,0,0,1,.47-1.71c.58-1.28,2.16-2.64,4.68-4l-.08-1.1a13.15,13.15,0,0,1,1.15-1.2h.16c.06,2.27.08,4.56.09,6.83a2.64,2.64,0,0,0,.56,2.06,2.4,2.4,0,0,0,1.54.38H310V63h-.32a2.74,2.74,0,0,1-3-2A6.89,6.89,0,0,1,303.71,61.58Zm2.6-5.83c-2.61,1.34-4,2.43-4,3.2,0,.57.88.82,1.87.82a7,7,0,0,0,2.17-.41Zm-1.73-5.19c-.6-.57-1.13-1-1.72-1.52A14.92,14.92,0,0,1,304,47.65a13.4,13.4,0,0,1,1.67,1.56A7.62,7.62,0,0,1,304.58,50.56Zm2.83-.19c-.61-.57-1.13-1-1.72-1.52a13.49,13.49,0,0,1,1.16-1.4A14.3,14.3,0,0,1,308.52,49,7.62,7.62,0,0,1,307.41,50.37Z"/><path class="cls-2" d="M310.29,61.09c1.13,0,2.3-.45,2.52-1.29l.43-1.58,1-.73.08.1a8.21,8.21,0,0,0-.32,1.7,1.45,1.45,0,0,0,.49,1.22,2.71,2.71,0,0,0,1.81.58h.27V63h-.34c-1.44,0-2.52-.4-3-1.5h-.06a3.15,3.15,0,0,1-2.91,1.5H310a.94.94,0,0,1-1-1,.92.92,0,0,1,1-.9ZM312,68.81c-.6-.57-1.13-1-1.72-1.52a12.34,12.34,0,0,1,1.16-1.39,14.19,14.19,0,0,1,1.67,1.56A7.62,7.62,0,0,1,312,68.81Zm2.82-.19c-.6-.57-1.12-1-1.71-1.52a12.34,12.34,0,0,1,1.16-1.39,14.19,14.19,0,0,1,1.67,1.56A7.64,7.64,0,0,1,314.77,68.62Z"/><path class="cls-2" d="M325.31,58.38a13.8,13.8,0,0,0-4.6-1,2.33,2.33,0,0,0-1.86.73l.17.73-.44,1.32h-.14l-.72-1.93a2.9,2.9,0,0,1,3.18-2.64,14.2,14.2,0,0,1,4.8,1.26,6.88,6.88,0,0,0,2.51.48h1.27l0,0-.91,1.51a4.64,4.64,0,0,0-2.47.56L323.68,61a11.43,11.43,0,0,1-6.43,2h-.67a.94.94,0,0,1-1-1,.91.91,0,0,1,1-.9h.89c2.37,0,4.8-.83,7.82-2.65Zm-3.37,6.77a13.26,13.26,0,0,1,1.75,1.57,5.83,5.83,0,0,1-1.21,1.43c-.57-.54-1.14-1-1.73-1.51C321.15,66.12,321.54,65.6,321.94,65.15Zm5-5.77h0c.06,1.25,1.08,1.7,2.59,1.7h.4V63h-.46c-1.89,0-3.14-.66-3.14-2.42a7.5,7.5,0,0,1,0-.82Z"/><path class="cls-2" d="M330.3,61.09c1.13,0,2.3-.45,2.52-1.29l.43-1.58,1-.73.08.1a8.21,8.21,0,0,0-.32,1.7,1.47,1.47,0,0,0,.48,1.22,2.74,2.74,0,0,0,1.82.58h.26V63h-.33c-1.44,0-2.52-.4-3-1.5h-.06a3.15,3.15,0,0,1-2.91,1.5H330a.94.94,0,0,1-1-1,.92.92,0,0,1,1-.9ZM332,68.81c-.6-.57-1.13-1-1.72-1.52a12.34,12.34,0,0,1,1.16-1.39,14.19,14.19,0,0,1,1.67,1.56A7.62,7.62,0,0,1,332,68.81Zm2.82-.19c-.6-.57-1.12-1-1.71-1.52a12.34,12.34,0,0,1,1.16-1.39,14.19,14.19,0,0,1,1.67,1.56A7.64,7.64,0,0,1,334.78,68.62Z"/><path class="cls-2" d="M336.83,61.09a9.28,9.28,0,0,0,2.89-.28c.51-.19.83-.39.83-.64a12.22,12.22,0,0,0-1.46-3.62,11,11,0,0,1,1.1-1.65h.07a10.2,10.2,0,0,1,1.47,4.46,4.39,4.39,0,0,1-1,2.73c-.66.66-1.7.88-3.94.88h-.18a.94.94,0,0,1-1-1,.91.91,0,0,1,1-.9Zm1.1-7.45c-.6-.58-1.13-1-1.71-1.53a13.31,13.31,0,0,1,1.16-1.39,14.25,14.25,0,0,1,1.67,1.57A8,8,0,0,1,337.93,53.64Zm2.83-.19c-.6-.58-1.13-1-1.71-1.53a14.67,14.67,0,0,1,1.15-1.39,13.5,13.5,0,0,1,1.67,1.57A8.43,8.43,0,0,1,340.76,53.45Z"/><path class="cls-2" d="M344.66,63.22a20.32,20.32,0,0,0,.16-2.93V58.85c0-2.68-.3-6.58-.53-9.11a12.63,12.63,0,0,1,1.44-1.55l.13,0c.31,3.19.38,6.9.38,10.31a24.1,24.1,0,0,1-.1,2.42,3.82,3.82,0,0,1-1.29,2.36Z"/><path class="cls-2" d="M356.26,56c.06.32.17,1,.39,2.29a3.81,3.81,0,0,0,1.25,2.53,2.41,2.41,0,0,0,1.18.32h.2V63H359c-1.74,0-2.47-.79-3.06-3.17l-.37-1.49h-.07a2.41,2.41,0,0,1-2.17,1.57,8.07,8.07,0,0,1,.21,2c0,.17,0,.35,0,.76a5.2,5.2,0,0,1-.84,2c-1,1.45-2.12,2.23-2.88,2.23A8.41,8.41,0,0,1,346,65.69l.21-.47a3.35,3.35,0,0,0,1.38.37,5.22,5.22,0,0,0,4-2.08,4.05,4.05,0,0,0,1.19-2.07A8,8,0,0,0,350.93,59l.48-1.87h.13c.38.35.76.69,1.07.92a2.06,2.06,0,0,0,1.23.32,1.72,1.72,0,0,0,1-.39,8.22,8.22,0,0,0,1.23-2Zm-1.79-1.58c-.6-.57-1.13-1-1.71-1.52a13.7,13.7,0,0,1,1.15-1.4A14.3,14.3,0,0,1,355.58,53,7.62,7.62,0,0,1,354.47,54.37Zm2.83-.19c-.6-.57-1.13-1-1.72-1.53a14.67,14.67,0,0,1,1.16-1.39,14.3,14.3,0,0,1,1.67,1.57A7.62,7.62,0,0,1,357.3,54.18Z"/><path class="cls-2" d="M371.08,56.7a16.61,16.61,0,0,1,.24,2.61,5,5,0,0,1-.53,2,2.82,2.82,0,0,1-2.17,1.61,2.49,2.49,0,0,1-1.83-1.21h-.12A3.42,3.42,0,0,1,364.11,63a1.26,1.26,0,0,1-1.41-1.25h-.06A3.92,3.92,0,0,1,359.52,63h-.24a.94.94,0,0,1-1-1,.91.91,0,0,1,1-.9h.49a3.45,3.45,0,0,0,3.09-1.36l.81-1.16,1.13-.39.06.07a5.47,5.47,0,0,0-1,2.11.7.7,0,0,0,.76.73,2.34,2.34,0,0,0,1.31-.42c.51-.38.58-.81,1-2.33l.87-.51.09.05a7,7,0,0,0-.19,1.44A1.58,1.58,0,0,0,369.27,61a.68.68,0,0,0,.77-.65,13.27,13.27,0,0,0-.36-2.38A12.57,12.57,0,0,1,371,56.65Z"/><path class="cls-2" d="M374.14,63.22a19,19,0,0,0,.16-2.93V58.85c0-2.68-.29-6.58-.52-9.11a13.4,13.4,0,0,1,1.43-1.55l.13,0c.31,3.19.39,6.9.39,10.31a21.21,21.21,0,0,1-.11,2.42,3.77,3.77,0,0,1-1.29,2.36Z"/><path class="cls-2" d="M389.36,58.76h-5.09l.29-1.23h5.13Z"/><path class="cls-2" d="M78.5,109.48c-2,0-3.77-.68-3.77-2.77a7,7,0,0,1,.8-3c1-2.26,3.22-3.87,5.72-5.27l-.06-1c.63-.62,1.27-1.23,1.93-1.81l.32.09c.09,1.94.11,4.26.11,7.23,0,1.64,0,2.89.59,3.48a2.84,2.84,0,0,0,2.23.68h.27V111h-.27c-2.41,0-3.46-.45-4.3-2.21A10.1,10.1,0,0,1,78.5,109.48Zm.17-19.24a16.36,16.36,0,0,1,2.23,2.43,8.8,8.8,0,0,1-1.92,2c-.74-.8-1.5-1.56-2.28-2.33Zm2.87,11.24C78.77,102.76,77,104.15,77,105s.94.92,2,.92a8.64,8.64,0,0,0,2.62-.41C81.62,103.92,81.58,102.55,81.54,101.48Zm1.25-11.41A15.84,15.84,0,0,1,85,92.49a8.76,8.76,0,0,1-1.91,2c-.75-.8-1.51-1.56-2.29-2.32Z"/><path class="cls-2" d="M90.1,108.66A3.28,3.28,0,0,1,86.87,111h-.25c-.9,0-1.35-.94-1.35-2s.43-2,1.37-2h.27a3.1,3.1,0,0,0,1.68-.51c1.53-1,1.18-3.69,3.09-5.47a3.77,3.77,0,0,1,2.58-1.15c3.26,0,4.35,5,4.35,7.15,0,.27-.7,3.71-3.3,3.71a8.89,8.89,0,0,1-5.15-2.13Zm5.78-1.6c.37,0,.6-.06.6-.17-.41-2.19-1.58-3.6-2.89-3.6A2.55,2.55,0,0,0,91.31,105,7,7,0,0,0,95.88,107.06Z"/><path class="cls-2" d="M102,111.2a32.57,32.57,0,0,0,.26-4.71,115.68,115.68,0,0,0-.67-12.69,29.78,29.78,0,0,1,2.27-2.48l.33.17c.39,4.22.45,8.17.45,12,0,3.06-.18,5.11-.61,5.78a13.63,13.63,0,0,1-1.6,2.28Z"/><path class="cls-2" d="M121.41,111h-.28a4,4,0,0,1-4.22-3.28h0a3.56,3.56,0,0,1-1.08,1.89,6.49,6.49,0,0,1-4.2,1.39c-2,0-3.46-1.21-3.46-4.55,0-.39,0-1,0-1.66l1.27-.12a2.25,2.25,0,0,0,2.48,2.42,7.09,7.09,0,0,0,2.87-.68c.73-.32,1.24-.69,1.24-1.29a31.79,31.79,0,0,0-1.68-6.53,23,23,0,0,1,1.79-2.67l.33.1c.49,1.77,1,4,1.68,7.83.39,2.23,1.43,3.24,3,3.24h.28Z"/><path class="cls-2" d="M129.22,107.06V111h-7.81c-.94,0-1.37-1-1.37-2s.43-2,1.37-2Z"/><path class="cls-2" d="M137,107.06V111h-7.81c-.94,0-1.37-1-1.37-2s.43-2,1.37-2Z"/><path class="cls-2" d="M144.84,107.06V111H137c-.94,0-1.37-1-1.37-2s.43-2,1.37-2Z"/><path class="cls-2" d="M152.66,107.06V111h-7.82c-.93,0-1.36-1-1.36-2s.43-2,1.36-2Z"/><path class="cls-2" d="M161.8,111h-.26c-1.77,0-3.43-.35-4.47-2.13H157a4.89,4.89,0,0,1-4.08,2.13h-.27c-.94,0-1.37-1-1.37-2s.43-2,1.37-2h.27a4.66,4.66,0,0,0,2.66-.66c1.07-.67,1.17-1.92,1.6-2.82.45-.31.95-.66,1.56-1l.14.12a7.28,7.28,0,0,0-.37,1.79,2.1,2.1,0,0,0,.95,2,3.85,3.85,0,0,0,2.09.57h.24Zm-7-14.3A15.35,15.35,0,0,1,157,99.09a8.76,8.76,0,0,1-1.91,2c-.74-.8-1.51-1.56-2.29-2.32Zm4.13-.18a16.26,16.26,0,0,1,2.22,2.43,9,9,0,0,1-1.91,2c-.74-.8-1.51-1.56-2.29-2.33Z"/><path class="cls-2" d="M181.8,111h-.28c-2.18,0-3.77-.49-4.43-1.8H177a4.45,4.45,0,0,1-3.3,1.8,2.13,2.13,0,0,1-2.17-1.66h-.09a4.41,4.41,0,0,1-3.23,1.66,2,2,0,0,1-2.09-1.49,6.37,6.37,0,0,1-4.06,1.49h-.27c-.94,0-1.37-1-1.37-2s.43-2,1.37-2h.27a5.66,5.66,0,0,0,3.5-.88,10.37,10.37,0,0,0,1.68-2.07,12.87,12.87,0,0,1,1.7-.78l.21.2a5.46,5.46,0,0,0-1.19,2.53.88.88,0,0,0,1,1,2.53,2.53,0,0,0,1.86-.76,9.25,9.25,0,0,0,1.41-2.54,11,11,0,0,1,1.58-.78l.15.19a9.91,9.91,0,0,0-.89,2.66c0,.84.35,1.23,1,1.23a2.3,2.3,0,0,0,2-1,10.39,10.39,0,0,0,1.1-2.75,15.38,15.38,0,0,1,1.56-1l.14.14a9.5,9.5,0,0,0-.55,2.54c0,1.37,1,2,3.24,2h.28Z"/><path class="cls-2" d="M186.31,109.52a6.42,6.42,0,0,1-4.24,1.45h-.27c-.94,0-1.37-1-1.37-2s.43-2,1.37-2h.27a8.88,8.88,0,0,0,4.12-.78c-.17-3.09-.31-6.15-.45-9.24,0-.92-.27-2.11-.27-2.89a2.83,2.83,0,0,1,.53-1.82,8.25,8.25,0,0,1,1.52-1.46l.23.16c0,1.28.75,2.87,2.15,5.21l-1.78,1.35c0,4.08.1,6,.22,7.5a6.29,6.29,0,0,1,2.23-.47c2,0,3.75,1.56,3.75,4.49,0,1.72-1.12,4.61-3.95,4.61-1.78,0-3.4-1.41-4-4.2Zm5.37,1.13a1.09,1.09,0,0,0,.84-.31,2.71,2.71,0,0,0-2.66-2.58,4.06,4.06,0,0,0-1.36.26A3.53,3.53,0,0,0,191.68,110.65Z"/><path class="cls-2" d="M197.58,111.2a34.22,34.22,0,0,0,.25-4.71,115.65,115.65,0,0,0-.66-12.69,31.6,31.6,0,0,1,2.26-2.48l.34.17c.39,4.22.44,8.17.44,12,0,3.06-.17,5.11-.6,5.78a14.24,14.24,0,0,1-1.6,2.28Z"/><path class="cls-2" d="M215.23,109.48c-1.95,0-3.77-.68-3.77-2.77a7,7,0,0,1,.81-3c1-2.26,3.22-3.87,5.72-5.27l-.06-1c.62-.62,1.27-1.23,1.93-1.81l.32.09c.09,1.94.11,4.26.11,7.23,0,1.64,0,2.89.59,3.48a2.83,2.83,0,0,0,2.23.68h.27V111h-.27c-2.41,0-3.46-.45-4.3-2.21A10.11,10.11,0,0,1,215.23,109.48Zm.18-19.24a16.36,16.36,0,0,1,2.23,2.43,9,9,0,0,1-1.92,2c-.74-.8-1.5-1.56-2.28-2.33Zm2.87,11.24c-2.77,1.28-4.55,2.67-4.55,3.47s.94.92,2,.92a8.64,8.64,0,0,0,2.62-.41C218.36,103.92,218.32,102.55,218.28,101.48Zm1.25-11.41a15.84,15.84,0,0,1,2.23,2.42,8.6,8.6,0,0,1-1.92,2c-.74-.8-1.5-1.56-2.28-2.32Z"/><path class="cls-2" d="M232.52,111h-.25c-1.78,0-3.44-.35-4.48-2.13h-.06a4.89,4.89,0,0,1-4.08,2.13h-.27c-.94,0-1.37-1-1.37-2s.43-2,1.37-2h.27a4.66,4.66,0,0,0,2.66-.66c1.07-.67,1.17-1.92,1.6-2.82.45-.31,1-.66,1.56-1l.14.12a7.79,7.79,0,0,0-.37,1.79,2.09,2.09,0,0,0,1,2,3.83,3.83,0,0,0,2.09.57h.23Zm-7.09,3.65a15.84,15.84,0,0,1,2.23,2.42,8.81,8.81,0,0,1-1.92,2c-.74-.8-1.5-1.56-2.28-2.32Zm4.12-.18a15.43,15.43,0,0,1,2.23,2.43,9,9,0,0,1-1.92,2c-.74-.8-1.5-1.56-2.28-2.33Z"/><path class="cls-2" d="M244,109.37c-.47,1.54-1.19,2.4-2.3,2.4-1.45,0-3.71-1.13-5.35-3h-.08a3.58,3.58,0,0,1-3.5,2.19h-.27c-.94,0-1.37-1-1.37-2s.43-2,1.37-2h.27c2.68,0,3-1.09,3.66-3.08a5.8,5.8,0,0,1,1.48-2.52,3.31,3.31,0,0,1,2.25-1c2.28,0,3.16,2.6,4.35,5.1a2.91,2.91,0,0,0,2.87,1.52h.28V111h-.28a3.72,3.72,0,0,1-3.34-1.6Zm-1.73-1.53c.29,0,.44-.13.44-.41,0-1-1.36-3.75-3.06-3.75a2.28,2.28,0,0,0-2,1.27C238.42,106.57,241,107.84,242.29,107.84Z"/><path class="cls-2" d="M255.49,107.06V111h-7.81c-.94,0-1.37-1-1.37-2s.43-2,1.37-2Z"/><path class="cls-2" d="M263.3,107.06V111h-7.81c-.94,0-1.37-1-1.37-2s.43-2,1.37-2Z"/><path class="cls-2" d="M271.11,107.06V111H263.3c-.94,0-1.37-1-1.37-2s.43-2,1.37-2Z"/><path class="cls-2" d="M278.93,107.06V111h-7.82c-.93,0-1.36-1-1.36-2s.43-2,1.36-2Z"/><path class="cls-2" d="M288.07,111h-.26c-1.77,0-3.43-.35-4.47-2.13h-.06A4.89,4.89,0,0,1,279.2,111h-.27c-.94,0-1.37-1-1.37-2s.43-2,1.37-2h.27a4.66,4.66,0,0,0,2.66-.66c1.07-.67,1.17-1.92,1.6-2.82.45-.31,1-.66,1.56-1l.14.12a7.28,7.28,0,0,0-.37,1.79,2.1,2.1,0,0,0,.95,2,3.85,3.85,0,0,0,2.09.57h.24Zm-5.36-14.85a20.63,20.63,0,0,1,2.8,2.29,6.8,6.8,0,0,1-1.76,2.4c-.8-.7-1.78-1.42-2.83-2.17Z"/><path class="cls-2" d="M297.21,111H297c-1.77,0-3.43-.35-4.47-2.13h-.06a4.89,4.89,0,0,1-4.08,2.13h-.27c-.94,0-1.37-1-1.37-2s.43-2,1.37-2h.27a4.66,4.66,0,0,0,2.66-.66c1.07-.67,1.17-1.92,1.6-2.82.45-.31.95-.66,1.56-1l.14.12a7.28,7.28,0,0,0-.37,1.79,2.1,2.1,0,0,0,.95,2,3.85,3.85,0,0,0,2.09.57h.24Zm-7-14.3a15.74,15.74,0,0,1,2.22,2.42,8.76,8.76,0,0,1-1.91,2c-.74-.8-1.51-1.56-2.29-2.32Zm4.12-.18a16.26,16.26,0,0,1,2.22,2.43,8.75,8.75,0,0,1-1.91,2c-.74-.8-1.51-1.56-2.29-2.33Z"/><path class="cls-2" d="M302.23,91c0,1.28.74,2.87,2.15,5.21l-1.74,1.33c.07,1.5.11,3.34.11,5.25a12.7,12.7,0,0,1-.72,4.32,9.16,9.16,0,0,1-1,2.07,4.1,4.1,0,0,1-3.57,1.76h-.27c-.94,0-1.37-1-1.37-2s.43-2,1.37-2h.27a3.83,3.83,0,0,0,2.77-.8c.34-.33.34-.88.34-1.93,0-4.87-.65-9.2-.65-10.18a2.89,2.89,0,0,1,.53-1.82A8.25,8.25,0,0,1,302,90.87Z"/><path class="cls-2" d="M307.09,111.2a32.71,32.71,0,0,0,.25-4.71,115.65,115.65,0,0,0-.66-12.69A29.78,29.78,0,0,1,309,91.32l.33.17c.39,4.22.45,8.17.45,12,0,3.06-.18,5.11-.61,5.78a14.24,14.24,0,0,1-1.6,2.28Z"/><path class="cls-2" d="M339.79,105.64c-3.33,0-5.16-1.18-5.16-3.74A5.7,5.7,0,0,1,336.17,98a4.37,4.37,0,0,1,3.11-1.66c2.65,0,4.37,4.51,4.37,8.67a10.68,10.68,0,0,1-1,4.51,9.39,9.39,0,0,1-2.87,1.17,34.31,34.31,0,0,1-9.12,1.18c-6.47,0-9.46-3.09-9.46-6.88a13.24,13.24,0,0,1,1.17-5.51l1.25.47a7.05,7.05,0,0,0-.48,2.48c0,3.09,2.83,5.35,8.71,5.35a36.07,36.07,0,0,0,8.94-1.13c.78-.21,1.12-.51,1.12-1C341.17,105.64,340.47,105.64,339.79,105.64ZM337.7,90.26a22,22,0,0,1,2.85,2.33,6.89,6.89,0,0,1-1.8,2.46c-.82-.7-1.82-1.47-2.89-2.21Zm.7,9.11c-1.33,0-2.11.72-2.11,1.3,0,1.1,2,1.86,5.12,1.94C340.68,100.56,339.69,99.37,338.4,99.37Z"/><path class="cls-2" d="M347.25,111.2a34.22,34.22,0,0,0,.25-4.71,118.18,118.18,0,0,0-.66-12.69,31.6,31.6,0,0,1,2.26-2.48l.33.17c.39,4.22.45,8.17.45,12,0,3.06-.17,5.11-.6,5.78a14.24,14.24,0,0,1-1.6,2.28Z"/><path class="cls-2" d="M366.64,111h-.27a4,4,0,0,1-4.22-3.28h-.06a3.5,3.5,0,0,1-1.07,1.89,6.51,6.51,0,0,1-4.2,1.39c-2.05,0-3.46-1.21-3.46-4.55,0-.39,0-1,0-1.66l1.27-.12a2.25,2.25,0,0,0,2.48,2.42,7.12,7.12,0,0,0,2.87-.68c.72-.32,1.23-.69,1.23-1.29a31.12,31.12,0,0,0-1.68-6.53,23.15,23.15,0,0,1,1.8-2.67l.33.1c.49,1.77,1,4,1.68,7.83.39,2.23,1.42,3.24,3,3.24h.27Z"/><path class="cls-2" d="M374.45,107.06V111h-7.81c-.94,0-1.37-1-1.37-2s.43-2,1.37-2Z"/><path class="cls-2" d="M382.27,107.06V111h-7.82c-.93,0-1.36-1-1.36-2s.43-2,1.36-2Z"/><path class="cls-2" d="M382.54,111h-.27c-.94,0-1.37-1-1.37-2s.43-2,1.37-2h.27a21.68,21.68,0,0,0,2.81-.31,17.8,17.8,0,0,1-.14-2,7.21,7.21,0,0,1,3.11-5.94,16.32,16.32,0,0,1,.63-2.17h.33a40.3,40.3,0,0,0,4.41,3.46c2.81,1.89,5,3.32,5,6.21a5.89,5.89,0,0,1-.6,2.6,3.32,3.32,0,0,1-3.19,2.11,26.07,26.07,0,0,1-6.68-1.23A16.18,16.18,0,0,1,382.54,111Zm9-6.45c0-1.46-1-3-2.19-3a3.1,3.1,0,0,0-2.67,2.37c0,1,1.19,1.91,2.52,2.32C390.7,105.93,391.58,105.15,391.58,104.52Zm3.93,3.11c.74,0,1.17-.14,1.17-.43,0-.88-1.43-2-3.56-3.3a10.38,10.38,0,0,1-1,3.16A12.73,12.73,0,0,0,395.51,107.63Z"/><path class="cls-2" d="M404.34,87.18l-.53-.59a.83.83,0,0,0-.67-.27c-.78,0-1.3.39-1.3.68,0,.51.89,1,2.55,1,.73,0,1.29,0,2-.06l.08.17a11.92,11.92,0,0,1-.81,1.59,12.53,12.53,0,0,0-4.88,1.4l-.23-.23c.23-.51.49-1,.76-1.47a1.66,1.66,0,0,1-1.19-1.56,3.36,3.36,0,0,1,1.25-2.21,3.78,3.78,0,0,1,2.42-1c.84,0,1.39.43,1.39,1.09a2.71,2.71,0,0,1-.57,1.45Zm-1.86,24a32.71,32.71,0,0,0,.25-4.71,115.65,115.65,0,0,0-.66-12.69,29.78,29.78,0,0,1,2.27-2.48l.33.17c.39,4.22.45,8.17.45,12,0,3.06-.18,5.11-.61,5.78a14.24,14.24,0,0,1-1.6,2.28Z"/></svg>