<svg id="Layer_1" data-name="Layer 1" xmlns="http://www.w3.org/2000/svg" viewBox="0 0 480 638"><defs><style>.cls-1{fill:#006080;}.cls-2{fill:#7b9db1;}.cls-3{fill:#4f7e98;}.cls-4{fill:#e5e5e4;}.cls-5{fill:#4c4c4c;}.cls-6{fill:#f7f7f7;}</style></defs><path class="cls-1" d="M129.44,58.76h-5.1l.3-1.23h5.12Z"/><path class="cls-1" d="M151.72,61.09V63h-.85a8.5,8.5,0,0,1,.06,1,5.22,5.22,0,0,1-.66,1.83,11,11,0,0,1-6.82,2.73,5.21,5.21,0,0,1-4-1.58,6,6,0,0,1-1.28-4.09,10.6,10.6,0,0,1,1.38-4.84l.56.25a9.92,9.92,0,0,0-.9,3.68,4.57,4.57,0,0,0,1.17,3.19,4.84,4.84,0,0,0,3.55,1.38,10.71,10.71,0,0,0,4.67-1.26,3.37,3.37,0,0,0,1.32-1c-.34-.7-1.93-1.33-4.26-1.33l-.12-.19,1-1.69ZM142.8,72.9c-.6-.57-1.13-1-1.71-1.52a13.7,13.7,0,0,1,1.15-1.4,13.55,13.55,0,0,1,1.67,1.57A7.62,7.62,0,0,1,142.8,72.9Zm2.83-.19c-.6-.57-1.13-1-1.72-1.52a15.14,15.14,0,0,1,1.16-1.4,14.3,14.3,0,0,1,1.67,1.57A7.62,7.62,0,0,1,145.63,72.71Z"/><path class="cls-1" d="M152.65,61.09a8,8,0,0,0,2.16-.31v-.07a3.37,3.37,0,0,1-1.71-2.87,3.73,3.73,0,0,1,.63-1.92,3.62,3.62,0,0,1,3-2A3.75,3.75,0,0,1,160,56.35l-.28.29a3.7,3.7,0,0,0-2.62-.94c-1.55,0-2.68.72-2.68,1.23A2.75,2.75,0,0,0,155.69,59a3.69,3.69,0,0,0,1.77.79,14.51,14.51,0,0,0,4.19-1l.08.08L161,60.65c-2.3.82-3.41.94-5.2,1.53a11.76,11.76,0,0,1-3.57.79h-.46a.94.94,0,0,1-1-1,.91.91,0,0,1,1-.9Z"/><path class="cls-1" d="M168.8,60.76a4.88,4.88,0,0,0,1.69-2.33,12.94,12.94,0,0,1,1.33-2.24H172a40.41,40.41,0,0,0,2.78,3.32,4.19,4.19,0,0,0,3.05,1.58H178V63h-.17a3.62,3.62,0,0,1-3-1.53l0,0v.23c0,2-1,3-1.83,3-1.42,0-2.77-1.43-3.09-3.15h-.08A2.85,2.85,0,0,1,167.29,63a3,3,0,0,1-2.19-.85c-.9-.91-1-1.94-1-4.09,0-2.78-.16-5.7-.38-8.8a13.55,13.55,0,0,1,1.38-1.37l.1.06c.23,3.21.23,7,.23,10.61v.83a1.53,1.53,0,0,0,1.1,1.57,3,3,0,0,0,.94.16A3,3,0,0,0,168.8,60.76Zm2.71-2.58a4.4,4.4,0,0,0-.72,2,2.62,2.62,0,0,0,2.29,2.61,1,1,0,0,0,.79-1.07,1.94,1.94,0,0,0-.5-1.28c-.54-.76-1.17-1.46-1.78-2.25Z"/><path class="cls-1" d="M178.87,61.09c2.37,0,4.8-.83,7.82-2.65v-.06a13.74,13.74,0,0,0-4.6-1,2.35,2.35,0,0,0-1.86.73l.18.73L180,60.14h-.15l-.72-1.93a2.91,2.91,0,0,1,3.18-2.64,14.22,14.22,0,0,1,4.81,1.27,7.09,7.09,0,0,0,2.5.47h1.19l0,0-.77,1.54a4.55,4.55,0,0,0-2.54.54L185.08,61a11.43,11.43,0,0,1-6.35,2H178a.94.94,0,0,1-1-1,.91.91,0,0,1,1-.9Zm4.46,4.06a13.32,13.32,0,0,1,1.76,1.57,6.05,6.05,0,0,1-1.21,1.43c-.58-.54-1.15-1-1.73-1.51C182.54,66.12,182.94,65.6,183.33,65.15Z"/><path class="cls-1" d="M208.28,48.51c.12,3.62.2,6.8.2,10.3a2.62,2.62,0,0,0,.74,1.87,2.34,2.34,0,0,0,1.43.41h.16V63h-.27a2.46,2.46,0,0,1-2.3-1.1h-.06a9.64,9.64,0,0,1-.52,2.18A5.21,5.21,0,0,1,206,65.71a5.61,5.61,0,0,1-3,.9,3.86,3.86,0,0,1-3-1.26,4.86,4.86,0,0,1-1-3.31,8.62,8.62,0,0,1,1-3.69l.52.21a6.52,6.52,0,0,0-.61,2.55,3.53,3.53,0,0,0,.75,2.27A3,3,0,0,0,203,64.56a5.11,5.11,0,0,0,2.54-.68,3.89,3.89,0,0,0,1.59-1.4,3.26,3.26,0,0,0,.1-1c0-2.29-.11-6.08-.44-11.79a10.15,10.15,0,0,1,1.35-1.29Z"/><path class="cls-1" d="M211.24,61.09c1.54,0,2-.76,2.47-2.15.58-1.83,1.73-2.78,2.71-2.78a2,2,0,0,1,1.76,1,17.31,17.31,0,0,1,1.47,2.75,2.35,2.35,0,0,0,2.28,1.2h.25V63h-.28a2.47,2.47,0,0,1-2.25-1.28h-.06a2.41,2.41,0,0,1-.47,1.12,1.35,1.35,0,0,1-1,.48,6.5,6.5,0,0,1-4.14-2H214A3,3,0,0,1,211,63h-.22a.94.94,0,0,1-1-1,.91.91,0,0,1,1-.9Zm4.94-.25a4.69,4.69,0,0,0,2,.65c.28,0,.54,0,.54-.37a4.2,4.2,0,0,0-.73-1.95,2.48,2.48,0,0,0-1.88-1.32,1.81,1.81,0,0,0-1.68,1.32C214.59,59.72,215.53,60.48,216.18,60.84Z"/><path class="cls-1" d="M223.1,61.09a8,8,0,0,0,2.17-.31v-.07a3.37,3.37,0,0,1-1.71-2.87,3.73,3.73,0,0,1,.63-1.92,3.62,3.62,0,0,1,3-2,3.75,3.75,0,0,1,3.25,2.39l-.28.29a3.7,3.7,0,0,0-2.62-.94c-1.55,0-2.68.72-2.68,1.23A2.75,2.75,0,0,0,226.15,59a3.69,3.69,0,0,0,1.77.79,14.51,14.51,0,0,0,4.19-1l.08.08-.78,1.81c-2.3.82-3.41.94-5.2,1.53a11.76,11.76,0,0,1-3.57.79h-.46a.94.94,0,0,1-1-1,.91.91,0,0,1,1-.9Z"/><path class="cls-1" d="M242.76,61.58c-1.54,0-2.66-.55-2.66-1.72a4.37,4.37,0,0,1,.46-1.71c.59-1.28,2.17-2.64,4.69-4l-.09-1.1a14.74,14.74,0,0,1,1.16-1.2h.16c.06,2.27.08,4.56.09,6.83a2.64,2.64,0,0,0,.56,2.06,2.38,2.38,0,0,0,1.54.38H249V63h-.33a2.73,2.73,0,0,1-3-2A6.92,6.92,0,0,1,242.76,61.58Zm2.59-5.83c-2.6,1.34-4,2.43-4,3.2,0,.57.87.82,1.87.82a7,7,0,0,0,2.17-.41Zm-1.72-5.19c-.6-.57-1.13-1-1.72-1.52a12.34,12.34,0,0,1,1.16-1.39,13.4,13.4,0,0,1,1.67,1.56A7.62,7.62,0,0,1,243.63,50.56Zm2.82-.19c-.6-.57-1.12-1-1.71-1.52a13.49,13.49,0,0,1,1.16-1.4A14.3,14.3,0,0,1,247.57,49,7.64,7.64,0,0,1,246.45,50.37Z"/><path class="cls-1" d="M249.34,61.09c1.13,0,2.3-.45,2.52-1.29l.42-1.58,1-.73.09.1a8.21,8.21,0,0,0-.32,1.7,1.47,1.47,0,0,0,.48,1.22,2.74,2.74,0,0,0,1.82.58h.26V63h-.33c-1.44,0-2.52-.4-3-1.5h-.06A3.15,3.15,0,0,1,249.3,63H249a.94.94,0,0,1-1-1,.92.92,0,0,1,1-.9ZM251,68.81c-.6-.57-1.12-1-1.71-1.52a12.34,12.34,0,0,1,1.16-1.39,14.19,14.19,0,0,1,1.67,1.56A7.64,7.64,0,0,1,251,68.81Zm2.83-.19c-.6-.57-1.13-1-1.71-1.52a12.34,12.34,0,0,1,1.16-1.39,15,15,0,0,1,1.67,1.56A8.1,8.1,0,0,1,253.82,68.62Z"/><path class="cls-1" d="M256,61.09a3.38,3.38,0,0,0,1.64-.39,1.68,1.68,0,0,0,.77-1.59c0-2.34-.19-4.9-.42-7.6-.06-.67-.15-1.29-.15-1.83a1.49,1.49,0,0,1,.44-1,6.85,6.85,0,0,1,.81-.81l.1.08a6.52,6.52,0,0,0,1.19,3.35,9.47,9.47,0,0,1-.93.75c.06,1.68.19,3.46.19,5.08a8.79,8.79,0,0,1-.58,3.68,3,3,0,0,1-1.34,1.7,4.24,4.24,0,0,1-1.83.44h-.22a.94.94,0,0,1-1-1,.91.91,0,0,1,1-.9Z"/><path class="cls-1" d="M267.39,45.18a8.46,8.46,0,0,1-.43,1.1,3.06,3.06,0,0,1-2,.71c-.92,0-2-.25-2.71-.25-.23,0-.5.52-.82,1.12h-.1l-.5-.89c0-.69.29-1.62,1.33-1.62s2.07.43,3.18.43a3.19,3.19,0,0,0,1.2-.2,3,3,0,0,0,.82-.47ZM266.84,63h-.16a3.23,3.23,0,0,1-2.5-.84c-.9-.91-.91-2-.91-4.1,0-2.78-.16-5.7-.38-8.8a13.55,13.55,0,0,1,1.38-1.37l.1.06c.17,2.51.25,5.35.25,8.19,0,.81,0,1.63,0,2.42v.83a1.53,1.53,0,0,0,1.1,1.57,3,3,0,0,0,.94.16h.2Z"/><path class="cls-1" d="M276,47.21c-.33.6-.71,1.2-1.1,1.8-.75.19-1.57.44-2.36.72-1.55.54-3.15,1.18-4.82,1.91v0l2.39.92-.35.73c2.25,1.83,3.76,3.69,3.76,5.23a4.38,4.38,0,0,1-.94,3c-.92.83-2.39,1.37-5.11,1.37h-.59a.94.94,0,0,1-1-1,.91.91,0,0,1,1-.9h.93a7.59,7.59,0,0,0,3.91-.76c.53-.32.8-.61.8-.79a4.23,4.23,0,0,0-1-2.2,23.19,23.19,0,0,0-4.41-4.14,1.62,1.62,0,0,1-.52-1.35,2,2,0,0,1,.33-.94A2.49,2.49,0,0,1,268,50a64.23,64.23,0,0,1,7.88-2.93Z"/><path class="cls-1" d="M295.38,47.81c.15,2.49.22,5.31.22,9.21a6.58,6.58,0,0,0,.57,3.16,1.83,1.83,0,0,0,1.63.91h.27V63h-.33c-1.5,0-2.57-.78-3-2.7h-.07A4.86,4.86,0,0,1,292.61,62a10.23,10.23,0,0,1-4.55,1,4.29,4.29,0,0,1-4.5-4.65,7,7,0,0,1,.8-3.17l.63.21a5.5,5.5,0,0,0-.51,2.14c0,2.32,1.67,3.46,4,3.46a9.1,9.1,0,0,0,4.16-1,4,4,0,0,0,1.64-1.28,3.1,3.1,0,0,0,.07-.8c0-2.8-.24-6.08-.47-8.72a13.46,13.46,0,0,1,1.41-1.42Zm-4.64,4.87-.15-.07A2.44,2.44,0,0,0,289,54h1.15c1,0,1.48.43,1.48,1.13,0,1.44-1.39,2.09-2.68,2.09a4.49,4.49,0,0,1-.95-.07l-1-.57v-.1c1.88-.06,3.77-.54,3.77-1.12,0-.14-.34-.14-1.32-.14s-1.29,0-1.29-.19v-.57a3.29,3.29,0,0,1,.93-2,3.2,3.2,0,0,1,1.65-1.17c.23,0,.33.12.33.34a4,4,0,0,1-.31,1Z"/><path class="cls-1" d="M298.4,61.09c1.12,0,2.3-.45,2.52-1.29l.42-1.58,1-.73.09.1a7.58,7.58,0,0,0-.32,1.7,1.47,1.47,0,0,0,.48,1.22,2.74,2.74,0,0,0,1.82.58h.26V63h-.34c-1.43,0-2.52-.4-3-1.5h-.06a3.17,3.17,0,0,1-2.92,1.5h-.28a.94.94,0,0,1-1-1,.91.91,0,0,1,1-.9Zm1.65,7.72c-.6-.57-1.13-1-1.71-1.52a12.34,12.34,0,0,1,1.16-1.39,15,15,0,0,1,1.67,1.56A7.64,7.64,0,0,1,300.05,68.81Zm2.83-.19c-.6-.57-1.13-1-1.71-1.52a13.5,13.5,0,0,1,1.15-1.39A14.19,14.19,0,0,1,304,67.27,7.62,7.62,0,0,1,302.88,68.62Z"/><path class="cls-1" d="M305,61.09c1.13,0,2.3-.45,2.52-1.29l.43-1.58,1-.73.09.1a7.75,7.75,0,0,0-.33,1.7,1.48,1.48,0,0,0,.49,1.22,2.73,2.73,0,0,0,1.81.58h.27V63H311c-1.43,0-2.52-.4-3-1.5h-.06A3.14,3.14,0,0,1,305,63h-.28a.94.94,0,0,1-1-1,.91.91,0,0,1,1-.9Zm2.7,4.65a13.22,13.22,0,0,1,1.76,1.56,6.14,6.14,0,0,1-1.22,1.44c-.57-.54-1.14-1-1.73-1.51C306.91,66.7,307.3,66.19,307.7,65.74Z"/><path class="cls-1" d="M326.29,63h-.37c-1.82,0-2.65-.56-3-1.38h-.08A3.29,3.29,0,0,1,320.31,63a1.46,1.46,0,0,1-1.6-1.22h0A3.32,3.32,0,0,1,316.12,63a1.25,1.25,0,0,1-1.4-1.25h-.06A3.94,3.94,0,0,1,311.54,63h-.25a.94.94,0,0,1-1-1,.92.92,0,0,1,1-.9h.5a3.53,3.53,0,0,0,3.09-1.36l.73-1.14,1.13-.4.06.08a5.78,5.78,0,0,0-1,2.09.73.73,0,0,0,.79.73,2.09,2.09,0,0,0,1.28-.44,3.24,3.24,0,0,0,.95-1.29l.35-.86,1.12-.51.05.06a6,6,0,0,0-.6,2.19.8.8,0,0,0,.82.85,1.65,1.65,0,0,0,1-.32,2.29,2.29,0,0,0,.85-1.41c.06-.23.15-.51.3-1.15l1.11-.75.06,0a8.35,8.35,0,0,0-.37,2c0,1.16,1,1.58,2.41,1.58h.32Zm-7.8-7.14c-.6-.57-1.12-1-1.71-1.52a12.34,12.34,0,0,1,1.16-1.39,13.5,13.5,0,0,1,1.67,1.57A7.92,7.92,0,0,1,318.49,55.83Zm.8-3.12c-.6-.57-1.13-1-1.72-1.52a12.34,12.34,0,0,1,1.16-1.39,13.5,13.5,0,0,1,1.67,1.57A7.9,7.9,0,0,1,319.29,52.71Zm2,2.93c-.6-.57-1.13-1-1.71-1.52a12.34,12.34,0,0,1,1.16-1.39,14.25,14.25,0,0,1,1.67,1.57A8.41,8.41,0,0,1,321.32,55.64Z"/><path class="cls-1" d="M326.61,61.09c1.13,0,2.3-.45,2.52-1.29l.42-1.58,1-.73.09.1a8.21,8.21,0,0,0-.32,1.7,1.47,1.47,0,0,0,.48,1.22,2.74,2.74,0,0,0,1.82.58h.26V63h-.33c-1.44,0-2.52-.4-3-1.5h-.06a3.15,3.15,0,0,1-2.91,1.5h-.28a.94.94,0,0,1-1-1,.92.92,0,0,1,1-.9Zm1.61-5.55c-.6-.57-1.13-1-1.71-1.52a13.5,13.5,0,0,1,1.15-1.39,12.73,12.73,0,0,1,1.67,1.56A7.62,7.62,0,0,1,328.22,55.54Zm2.83-.19c-.6-.57-1.13-1-1.72-1.52a14.92,14.92,0,0,1,1.16-1.39A13.4,13.4,0,0,1,332.16,54,7.62,7.62,0,0,1,331.05,55.35Z"/><path class="cls-1" d="M333.22,61.09a3.35,3.35,0,0,0,1.64-.39,1.68,1.68,0,0,0,.77-1.59c0-2.34-.19-4.9-.42-7.6-.06-.67-.15-1.29-.15-1.83a1.49,1.49,0,0,1,.44-1,6.85,6.85,0,0,1,.81-.81l.1.08a6.52,6.52,0,0,0,1.19,3.35,9.47,9.47,0,0,1-.93.75c.06,1.68.19,3.46.19,5.08a8.79,8.79,0,0,1-.58,3.68,3,3,0,0,1-1.34,1.7,4.2,4.2,0,0,1-1.83.44h-.22a.94.94,0,0,1-1-1,.91.91,0,0,1,1-.9Z"/><path class="cls-1" d="M340.13,63.22a19,19,0,0,0,.16-2.93V58.85c0-2.68-.29-6.58-.53-9.11a13.46,13.46,0,0,1,1.44-1.55l.13,0c.31,3.19.38,6.9.38,10.31a24.1,24.1,0,0,1-.1,2.42,3.77,3.77,0,0,1-1.29,2.36Z"/><path class="cls-1" d="M355.35,58.76h-5.1l.3-1.23h5.12Z"/><path class="cls-1" d="M183.78,99.11a13.82,13.82,0,0,1,2.07,5.47,9.14,9.14,0,0,1-1.62,4.82,23.79,23.79,0,0,1-10.61,2.41,12.45,12.45,0,0,1-6.87-1.62,6.07,6.07,0,0,1-2.81-5.41,12.34,12.34,0,0,1,1.17-5.18l1.19.41a8.07,8.07,0,0,0-.45,2.34c0,3,2.48,5.39,8.71,5.39a28.3,28.3,0,0,0,9-1.54,29,29,0,0,0-1.93-4,32.22,32.22,0,0,1,1.89-3.05ZM172,93.94q1.47,1.23,2.76,2.52a27.28,27.28,0,0,1-1.94,2.44c-.93-.92-1.89-1.76-2.83-2.52Zm4.73-.26c1,.82,1.89,1.66,2.75,2.52a27.15,27.15,0,0,1-1.93,2.44c-.94-.91-1.89-1.75-2.83-2.52Z"/><path class="cls-1" d="M194.6,111h-.33c-2.66,0-4.57-1.35-4.63-5.16,0-2.23-.2-8-.7-12.77a28.45,28.45,0,0,1,2.24-2.17l.28.14a83.33,83.33,0,0,1,.35,8.75c0,2,0,3.08,0,4.68,0,2,.78,2.62,2.56,2.62h.27Z"/><path class="cls-1" d="M199.13,103.94c2.19-2.33,4.61-4.24,7.09-4.24a4.63,4.63,0,0,1,4.06,2,5.06,5.06,0,0,1,.94,3,5.59,5.59,0,0,1-.6,2.38H213V111h-.27a50.42,50.42,0,0,1-7-.51,80.35,80.35,0,0,1-10.84.51h-.27c-.94,0-1.37-1-1.37-2s.43-2,1.37-2h1.74l.9-1.09a18.14,18.14,0,0,0,.23-3.09,67.91,67.91,0,0,0-.59-10c0-1.48.65-2.15,1.94-3.26l.29.17c0,1.41.9,3.17,2.13,5.24l-1.68,1.25c.06,1.31.06,2.62.06,4.26a9.51,9.51,0,0,1-.57,3.34Zm8.73,2.46c.63-.22,1.13-.45,1.13-.69a3.78,3.78,0,0,0-3.69-2.46c-2.07,0-4.35,1.53-6.64,3.81C202.72,107.06,206.2,106.92,207.86,106.4Z"/><path class="cls-1" d="M220.77,107.06V111H213c-.94,0-1.37-1-1.37-2s.43-2,1.37-2Z"/><path class="cls-1" d="M228.58,107.06V111h-7.81c-.94,0-1.37-1-1.37-2s.43-2,1.37-2Z"/><path class="cls-1" d="M236.4,107.06V111h-7.82c-.93,0-1.36-1-1.36-2s.43-2,1.36-2Z"/><path class="cls-1" d="M244.21,107.06V111H236.4c-.94,0-1.37-1-1.37-2s.43-2,1.37-2Z"/><path class="cls-1" d="M252,107.06V111h-7.81c-.94,0-1.37-1-1.37-2s.43-2,1.37-2Z"/><path class="cls-1" d="M259.83,107.06V111H252c-.94,0-1.37-1-1.37-2s.43-2,1.37-2Z"/><path class="cls-1" d="M267.65,107.06V111h-7.82c-.93,0-1.36-1-1.36-2s.43-2,1.36-2Z"/><path class="cls-1" d="M275.46,107.06V111h-7.81c-.94,0-1.37-1-1.37-2s.43-2,1.37-2Z"/><path class="cls-1" d="M283.86,111h-.28a4.15,4.15,0,0,1-4.08-2.19h-.08a4.11,4.11,0,0,1-3.69,2.19h-.27c-.94,0-1.37-1-1.37-2s.43-2,1.37-2h.43c2,0,2.87-1,2.87-2.62,0-3.51-.22-7.89-.59-11.56a28.94,28.94,0,0,1,2.21-2l.25.12a80.28,80.28,0,0,1,.34,8.75c0,2,0,3.79,0,4.68,0,1.86.49,2.66,2.54,2.66h.39Z"/><path class="cls-1" d="M303.86,111h-.28c-2.18,0-3.77-.49-4.43-1.8h-.08a4.45,4.45,0,0,1-3.3,1.8,2.14,2.14,0,0,1-2.17-1.66h-.09a4.41,4.41,0,0,1-3.23,1.66,2,2,0,0,1-2.09-1.49,6.37,6.37,0,0,1-4.06,1.49h-.27c-.94,0-1.37-1-1.37-2s.43-2,1.37-2h.27a5.66,5.66,0,0,0,3.5-.88,10.37,10.37,0,0,0,1.68-2.07,12.87,12.87,0,0,1,1.7-.78l.21.2a5.46,5.46,0,0,0-1.19,2.53.88.88,0,0,0,1,1,2.53,2.53,0,0,0,1.86-.76,9.25,9.25,0,0,0,1.41-2.54,11,11,0,0,1,1.58-.78l.15.19a9.91,9.91,0,0,0-.89,2.66c0,.84.35,1.23,1,1.23a2.33,2.33,0,0,0,2-1,10.74,10.74,0,0,0,1.09-2.75,15.38,15.38,0,0,1,1.56-1l.14.14a9.5,9.5,0,0,0-.55,2.54c0,1.37,1,2,3.24,2h.28Z"/><path class="cls-1" d="M308.88,91c0,1.28.74,2.87,2.15,5.21l-1.74,1.33c.08,1.5.11,3.34.11,5.25a12.7,12.7,0,0,1-.72,4.32,9.13,9.13,0,0,1-1,2.07,4.13,4.13,0,0,1-3.58,1.76h-.27c-.94,0-1.37-1-1.37-2s.43-2,1.37-2h.27a3.83,3.83,0,0,0,2.77-.8c.34-.33.34-.88.34-1.93,0-4.87-.65-9.2-.65-10.18a2.89,2.89,0,0,1,.53-1.82,8.25,8.25,0,0,1,1.52-1.46Z"/><path class="cls-1" d="M313.74,111.2a32.71,32.71,0,0,0,.25-4.71,115.65,115.65,0,0,0-.66-12.69,29.78,29.78,0,0,1,2.27-2.48l.33.17c.39,4.22.45,8.17.45,12,0,3.06-.18,5.11-.61,5.78a14.24,14.24,0,0,1-1.6,2.28Z"/><rect class="cls-2" x="249.28" y="252.32" width="111.69" height="111.69"/><rect class="cls-3" x="118.97" y="252.32" width="111.69" height="111.69"/><rect class="cls-3" x="249.28" y="382.62" width="111.69" height="111.69"/><rect class="cls-2" x="118.97" y="382.62" width="111.69" height="111.69"/><polyline class="cls-4" points="239 239.11 239 509 240.94 509 240.94 239.11"/><polygon class="cls-4" points="230.26 241.95 239.97 225.14 249.68 241.95 230.26 241.95"/><polygon class="cls-4" points="230.26 506.16 239.97 522.98 249.68 506.16 230.26 506.16"/><polyline class="cls-4" points="108.52 375.28 371.42 375.28 371.42 372.84 108.52 372.84"/><polygon class="cls-4" points="112.07 386.2 91.05 374.06 112.07 361.92 112.07 386.2"/><polygon class="cls-4" points="367.87 386.2 388.89 374.06 367.87 361.92 367.87 386.2"/><path class="cls-5" d="M217.46,549.19a6.88,6.88,0,0,1-2.85-5.92h0a6.84,6.84,0,0,1,2.85-5.89l.36.35a7.85,7.85,0,0,0-1.95,5.55,7.94,7.94,0,0,0,1.95,5.56Z"/><path class="cls-5" d="M222.28,544.31H218.9l.19-.95h3.38Z"/><path class="cls-5" d="M226.77,543.29a6.87,6.87,0,0,1-2.88,5.9l-.33-.33a7.92,7.92,0,0,0,1.94-5.59,8.15,8.15,0,0,0-1.94-5.57l.33-.33a6.85,6.85,0,0,1,2.88,5.9Z"/><path class="cls-5" d="M234.09,546.19c-.91,0-1.76-.32-1.76-1.3a3.22,3.22,0,0,1,.37-1.41,6,6,0,0,1,2.68-2.47l0-.48c.29-.29.6-.58.91-.85l.14.05c0,.9.06,2,.06,3.38,0,.77,0,1.35.27,1.62a1.31,1.31,0,0,0,1,.32h.13v1.83h-.13c-1.12,0-1.61-.21-2-1A4.7,4.7,0,0,1,234.09,546.19Zm.08-9a7.17,7.17,0,0,1,1,1.14,3.73,3.73,0,0,1-.89.93c-.35-.37-.71-.73-1.07-1.09Zm1.35,5.26c-1.3.6-2.13,1.25-2.13,1.63s.44.43.94.43a3.9,3.9,0,0,0,1.22-.2C235.55,543.58,235.53,542.94,235.52,542.44Zm.58-5.34a7.17,7.17,0,0,1,1,1.14,4.33,4.33,0,0,1-.89.93c-.35-.38-.71-.73-1.07-1.09Z"/><path class="cls-5" d="M240,543.59c1-1.09,2.16-2,3.32-2a2.18,2.18,0,0,1,1.9.94,2.41,2.41,0,0,1,.44,1.39,2.64,2.64,0,0,1-.28,1.11h1.09v1.83h-.12a23,23,0,0,1-3.27-.24,37.56,37.56,0,0,1-5.07.24h-.13c-.44,0-.64-.47-.64-.91s.2-.92.64-.92h.82l.42-.51a8.36,8.36,0,0,0,.11-1.44,31.25,31.25,0,0,0-.28-4.66c0-.7.3-1,.91-1.53l.13.08a5.53,5.53,0,0,0,1,2.45l-.79.59c0,.61,0,1.22,0,2a4.48,4.48,0,0,1-.26,1.56Zm4.09,1.15c.29-.1.53-.21.53-.32a1.77,1.77,0,0,0-1.73-1.15,5,5,0,0,0-3.11,1.78A18.21,18.21,0,0,0,244.11,544.74Z"/><path class="cls-5" d="M250.43,546.88h-.13a2,2,0,0,1-1.91-1h0a1.92,1.92,0,0,1-1.73,1h-.12c-.44,0-.64-.47-.64-.91s.2-.92.64-.92h.2c.93,0,1.34-.44,1.34-1.22,0-1.65-.1-3.69-.27-5.41a10,10,0,0,1,1-.95l.12,0a40.34,40.34,0,0,1,.15,4.1c0,1,0,1.77,0,2.19,0,.87.23,1.24,1.19,1.24h.19Z"/><path class="cls-5" d="M259.79,546.88h-.13c-1,0-1.77-.23-2.08-.84h0a2.09,2.09,0,0,1-1.55.84,1,1,0,0,1-1-.78h-.05a2,2,0,0,1-1.51.78.92.92,0,0,1-1-.69,3,3,0,0,1-1.91.69h-.12c-.44,0-.64-.47-.64-.91s.2-.92.64-.92h.12a2.63,2.63,0,0,0,1.64-.41,4.79,4.79,0,0,0,.79-1,7.39,7.39,0,0,1,.79-.36l.1.09a2.51,2.51,0,0,0-.56,1.19c0,.34.19.46.48.46a1.19,1.19,0,0,0,.87-.35,4.6,4.6,0,0,0,.66-1.19,4.65,4.65,0,0,1,.74-.37l.07.1a4.32,4.32,0,0,0-.42,1.24c0,.39.16.57.46.57a1.1,1.1,0,0,0,.92-.46,4.7,4.7,0,0,0,.51-1.29,6.45,6.45,0,0,1,.73-.45l.07.07a4.16,4.16,0,0,0-.26,1.18c0,.64.48.95,1.52.95h.13Z"/><path class="cls-5" d="M262.14,537.55a5.36,5.36,0,0,0,1,2.44l-.81.62c0,.71.05,1.56.05,2.46a5.72,5.72,0,0,1-.34,2,3.91,3.91,0,0,1-.45,1,1.93,1.93,0,0,1-1.67.82h-.13c-.44,0-.64-.47-.64-.91s.2-.92.64-.92h.13a1.81,1.81,0,0,0,1.29-.37c.16-.16.16-.41.16-.91,0-2.27-.3-4.3-.3-4.76a1.36,1.36,0,0,1,.24-.85,3.67,3.67,0,0,1,.72-.68Z"/><path class="cls-5" d="M264.41,547a15.73,15.73,0,0,0,.12-2.2,54,54,0,0,0-.31-5.94,15.6,15.6,0,0,1,1.06-1.16l.16.08c.18,2,.21,3.82.21,5.59a7.12,7.12,0,0,1-.29,2.71,6.56,6.56,0,0,1-.75,1.07Z"/><path class="cls-5" d="M216,216.34a6.88,6.88,0,0,1-2.85-5.92h0a6.84,6.84,0,0,1,2.85-5.89l.36.36a7.76,7.76,0,0,0-2,5.54,7.94,7.94,0,0,0,2,5.56Z"/><path class="cls-5" d="M221.19,211.09V214h-1v-2.94h-2.73v-.88h2.73v-2.65h1v2.65h2.72v.88Z"/><path class="cls-5" d="M228.25,210.44a6.87,6.87,0,0,1-2.88,5.9L225,216a7.92,7.92,0,0,0,1.94-5.59,8.2,8.2,0,0,0-1.94-5.57l.33-.33a6.85,6.85,0,0,1,2.88,5.9Z"/><path class="cls-5" d="M235.57,213.34c-.91,0-1.76-.32-1.76-1.3a3.26,3.26,0,0,1,.37-1.41,5.92,5.92,0,0,1,2.68-2.46l0-.49c.29-.29.6-.57.91-.85l.14,0c.05.9.06,2,.06,3.38,0,.77,0,1.35.27,1.63a1.34,1.34,0,0,0,1,.32h.13V214h-.13c-1.12,0-1.61-.21-2-1A4.7,4.7,0,0,1,235.57,213.34Zm.08-9a6.72,6.72,0,0,1,1,1.13,3.73,3.73,0,0,1-.89.93c-.35-.37-.71-.73-1.07-1.09Zm1.35,5.25c-1.3.6-2.13,1.25-2.13,1.63s.44.43.94.43a4.2,4.2,0,0,0,1.22-.19C237,210.73,237,210.09,237,209.59Zm.58-5.34a7.17,7.17,0,0,1,1,1.14,4.11,4.11,0,0,1-.89.93c-.35-.38-.71-.73-1.07-1.09Z"/><path class="cls-5" d="M241.5,210.74c1-1.08,2.16-2,3.32-2a2.18,2.18,0,0,1,1.9.94,2.41,2.41,0,0,1,.44,1.39,2.72,2.72,0,0,1-.28,1.12H248V214h-.12a24.65,24.65,0,0,1-3.27-.23,37.61,37.61,0,0,1-5.07.23h-.13c-.44,0-.64-.47-.64-.91s.2-.91.64-.91h.82l.42-.52a8.36,8.36,0,0,0,.11-1.44,31.25,31.25,0,0,0-.28-4.66c0-.7.3-1,.91-1.53l.13.08a5.53,5.53,0,0,0,1,2.45l-.79.59c0,.61,0,1.22,0,2a4.48,4.48,0,0,1-.26,1.56Zm4.09,1.16c.29-.11.53-.22.53-.32a1.77,1.77,0,0,0-1.73-1.16,5,5,0,0,0-3.11,1.79A18.82,18.82,0,0,0,245.59,211.9Z"/><path class="cls-5" d="M251.91,214h-.13a1.92,1.92,0,0,1-1.91-1h0a1.92,1.92,0,0,1-1.73,1H248c-.44,0-.64-.47-.64-.91s.2-.91.64-.91h.2c.93,0,1.34-.45,1.34-1.23,0-1.64-.1-3.69-.27-5.41a10,10,0,0,1,1-.95l.12,0a40.34,40.34,0,0,1,.15,4.1c0,1,0,1.77,0,2.19,0,.87.23,1.25,1.19,1.25h.19Z"/><path class="cls-5" d="M261.27,214h-.13c-1,0-1.77-.22-2.08-.84h0a2.09,2.09,0,0,1-1.55.84,1,1,0,0,1-1-.77h-.05a2,2,0,0,1-1.51.77.92.92,0,0,1-1-.69A3,3,0,0,1,252,214h-.12c-.44,0-.64-.47-.64-.91s.2-.91.64-.91H252a2.62,2.62,0,0,0,1.64-.42,4.69,4.69,0,0,0,.79-1,5.82,5.82,0,0,1,.79-.37l.1.09a2.59,2.59,0,0,0-.56,1.19.42.42,0,0,0,.48.47,1.19,1.19,0,0,0,.87-.36,4.6,4.6,0,0,0,.66-1.19,4.61,4.61,0,0,1,.74-.36l.07.09a4.42,4.42,0,0,0-.42,1.24c0,.39.16.58.46.58a1.11,1.11,0,0,0,.92-.47,4.7,4.7,0,0,0,.51-1.29,8.31,8.31,0,0,1,.73-.45l.07.07a4.16,4.16,0,0,0-.26,1.18c0,.65.48,1,1.52,1h.13Z"/><path class="cls-5" d="M263.62,204.7a5.28,5.28,0,0,0,1,2.44l-.81.62c0,.71.05,1.57.05,2.46a5.68,5.68,0,0,1-.34,2,3.91,3.91,0,0,1-.45,1,1.91,1.91,0,0,1-1.68.82h-.12c-.44,0-.64-.47-.64-.91s.2-.91.64-.91h.12a1.78,1.78,0,0,0,1.3-.38c.16-.15.16-.41.16-.9,0-2.28-.3-4.31-.3-4.77a1.38,1.38,0,0,1,.24-.85,4,4,0,0,1,.72-.68Z"/><path class="cls-5" d="M265.89,214.14a15.73,15.73,0,0,0,.12-2.2,54.1,54.1,0,0,0-.31-5.94,15.6,15.6,0,0,1,1.06-1.16l.16.08c.18,2,.21,3.82.21,5.59a7.12,7.12,0,0,1-.29,2.71,6.56,6.56,0,0,1-.75,1.07Z"/><path class="cls-5" d="M35.19,378.15a6.88,6.88,0,0,1-2.85-5.92h0a6.85,6.85,0,0,1,2.85-5.9l.36.36a7.76,7.76,0,0,0-1.95,5.54,7.94,7.94,0,0,0,1.95,5.56Z"/><path class="cls-5" d="M40,373.28H36.63l.19-.95H40.2Z"/><path class="cls-5" d="M44.5,372.25a6.87,6.87,0,0,1-2.88,5.9l-.33-.33a7.92,7.92,0,0,0,1.94-5.59,8.2,8.2,0,0,0-1.94-5.57l.33-.33a6.85,6.85,0,0,1,2.88,5.9Z"/><path class="cls-5" d="M51,366.66a7.63,7.63,0,0,1,1,1.13,4,4,0,0,1-.9.93c-.35-.37-.7-.73-1.07-1.08Zm.67,2.69.19-.13c.64.53,1.37,1,2,1.54a2.63,2.63,0,0,1,1,2.2,4.22,4.22,0,0,1-.44,1.92,2.77,2.77,0,0,1-2.18,1.1,2.1,2.1,0,0,1-2.09-2.29,4.89,4.89,0,0,1,1.4-3.27ZM51,373.08c0,.54.55,1.05,1.38,1.05a2,2,0,0,0,1.65-.77c-.07-.6-.69-1.24-1.89-1.91C51.32,372.15,51,372.68,51,373.08Zm1.93-6.5a7.26,7.26,0,0,1,1,1.13,4,4,0,0,1-.9.93c-.35-.37-.7-.73-1.07-1.09Z"/><path class="cls-5" d="M57.06,373c0,.85.45,1.16,1.32,1.16a4.15,4.15,0,0,0,2-.51A4.48,4.48,0,0,0,58,371c-.31-.18-.5-.33-.5-.54a3.87,3.87,0,0,1,.58-1.41h.07a9.21,9.21,0,0,1,2.3,2,3.44,3.44,0,0,1,.84,2.28,3.56,3.56,0,0,1-.45,1.72,4.11,4.11,0,0,1-2.56.9c-1.13,0-1.81-.61-1.81-2,0-.26,0-.59,0-1Z"/><path class="cls-5" d="M62.8,376a15.64,15.64,0,0,0,.12-2.2,54.13,54.13,0,0,0-.32-5.94,15.62,15.62,0,0,1,1.07-1.16l.15.08c.18,2,.21,3.82.21,5.6a7.17,7.17,0,0,1-.28,2.7A6.16,6.16,0,0,1,63,376.1Z"/><path class="cls-5" d="M67.81,371a5.73,5.73,0,0,1,1.11,2.85c0,.43,0,.67,0,.84a4.8,4.8,0,0,1-.58,2.43,2.59,2.59,0,0,1-2.08,1.54,5.2,5.2,0,0,1-2.5-.8l.17-.48a3.74,3.74,0,0,0,.92.11A3.36,3.36,0,0,0,67,376.38a3.17,3.17,0,0,0,1-1.54,6.29,6.29,0,0,0-1.22-2.29c.26-.54.55-1.07.82-1.55Z"/><path class="cls-5" d="M72.35,369.79c1.38,2.07,2.14,2.92,2.14,4.56.44-.25.76-.59.76-1.62a46.46,46.46,0,0,0-.25-4.84c0-.5.19-.92.92-1.48l.16.1a.52.52,0,0,0,0,.21,6.23,6.23,0,0,0,1,2.21l-.84.62v1.73a7.76,7.76,0,0,1-.79,3.81,2.63,2.63,0,0,1-2.59,1.4,7.44,7.44,0,0,1-2.72-.55v-.23A21.47,21.47,0,0,0,74,374.57c-.07-.49-1.14-2-2.79-4.26a3.55,3.55,0,0,1-.89-1.74,2.72,2.72,0,0,1,.47-1.3h.12a9.71,9.71,0,0,0,1.89,1.83Zm0,8.43-.25-.27a.37.37,0,0,0-.31-.13c-.36,0-.61.18-.61.32s.42.48,1.2.48l.92,0,0,.08a5.78,5.78,0,0,1-.38.74,5.85,5.85,0,0,0-2.28.66l-.11-.11c.11-.24.23-.47.35-.69a.77.77,0,0,1-.55-.73,1.55,1.55,0,0,1,.58-1,1.79,1.79,0,0,1,1.14-.49c.39,0,.64.2.64.51a1.27,1.27,0,0,1-.26.68Z"/><path class="cls-5" d="M78.33,376a15.64,15.64,0,0,0,.12-2.2,56.69,56.69,0,0,0-.31-5.94,13.69,13.69,0,0,1,1.06-1.16l.15.08c.18,2,.21,3.82.21,5.6a7.17,7.17,0,0,1-.28,2.7,6.16,6.16,0,0,1-.75,1.07Z"/><path class="cls-5" d="M403.16,378.26a6.85,6.85,0,0,1-2.85-5.91h0a6.83,6.83,0,0,1,2.85-5.89l.36.35a7.77,7.77,0,0,0-1.95,5.55,8,8,0,0,0,1.95,5.56Z"/><path class="cls-5" d="M408.37,373V376h-1V373h-2.73v-.88h2.73v-2.65h1v2.65h2.71V373Z"/><path class="cls-5" d="M415.43,372.37a6.84,6.84,0,0,1-2.88,5.89l-.33-.33a7.9,7.9,0,0,0,1.94-5.58,8.21,8.21,0,0,0-1.94-5.58l.33-.32a6.83,6.83,0,0,1,2.88,5.9Z"/><path class="cls-5" d="M421.93,366.77a7.68,7.68,0,0,1,1,1.14,4.16,4.16,0,0,1-.9.93c-.34-.38-.7-.73-1.07-1.09Zm.67,2.69.19-.13c.65.53,1.37,1,2,1.55a2.61,2.61,0,0,1,1,2.19,4.19,4.19,0,0,1-.44,1.92,2.75,2.75,0,0,1-2.18,1.11,2.11,2.11,0,0,1-2.09-2.3,4.87,4.87,0,0,1,1.41-3.27Zm-.68,3.73c0,.55.56,1.05,1.38,1.05a2,2,0,0,0,1.65-.77c-.07-.6-.69-1.23-1.89-1.91C422.26,372.27,421.92,372.8,421.92,373.19Zm1.94-6.5a7.68,7.68,0,0,1,1,1.14,4.38,4.38,0,0,1-.9.93c-.35-.38-.7-.73-1.07-1.09Z"/><path class="cls-5" d="M428,373.1c0,.85.45,1.16,1.32,1.16a4.34,4.34,0,0,0,2-.51,4.57,4.57,0,0,0-2.42-2.6c-.31-.17-.5-.33-.5-.54a3.73,3.73,0,0,1,.59-1.4H429a9.37,9.37,0,0,1,2.3,2,3.48,3.48,0,0,1,.84,2.29,3.52,3.52,0,0,1-.45,1.71,4.06,4.06,0,0,1-2.56.91c-1.13,0-1.81-.61-1.81-2,0-.26,0-.6,0-1Z"/><path class="cls-5" d="M433.73,376.07a15.82,15.82,0,0,0,.12-2.2,54,54,0,0,0-.31-5.94,13.9,13.9,0,0,1,1.06-1.17l.15.09c.18,2,.21,3.82.21,5.59a7.2,7.2,0,0,1-.28,2.71,7,7,0,0,1-.75,1.07Z"/><path class="cls-5" d="M438.74,371.12a5.7,5.7,0,0,1,1.11,2.85c0,.43,0,.66,0,.84a4.74,4.74,0,0,1-.59,2.42,2.59,2.59,0,0,1-2.07,1.55,5.31,5.31,0,0,1-2.51-.8l.18-.48a3.6,3.6,0,0,0,.91.11A3.34,3.34,0,0,0,438,376.5a3.18,3.18,0,0,0,1-1.55,6.49,6.49,0,0,0-1.23-2.28c.26-.55.55-1.08.82-1.55Z"/><path class="cls-5" d="M443.28,369.9c1.38,2.07,2.14,2.93,2.14,4.57.44-.26.76-.59.76-1.63a45.89,45.89,0,0,0-.25-4.83c0-.5.19-.93.92-1.48l.16.1a.48.48,0,0,0,0,.21,6.31,6.31,0,0,0,1,2.21l-.83.61v1.74a7.69,7.69,0,0,1-.8,3.8,2.63,2.63,0,0,1-2.59,1.41,7.47,7.47,0,0,1-2.72-.56v-.23a21.08,21.08,0,0,0,3.88-1.14,21.89,21.89,0,0,0-2.8-4.26,3.51,3.51,0,0,1-.89-1.74,2.84,2.84,0,0,1,.47-1.29h.12a10,10,0,0,0,1.89,1.82Zm0,8.44-.24-.28a.4.4,0,0,0-.31-.13c-.37,0-.62.19-.62.32s.42.49,1.2.49c.34,0,.6,0,.92,0l0,.08a5.68,5.68,0,0,1-.37.74,5.85,5.85,0,0,0-2.29.66l-.11-.11a7.3,7.3,0,0,1,.36-.68.79.79,0,0,1-.56-.73,1.56,1.56,0,0,1,.58-1,1.78,1.78,0,0,1,1.14-.48c.39,0,.65.2.65.51a1.24,1.24,0,0,1-.27.68Z"/><path class="cls-5" d="M449.26,376.07a15.82,15.82,0,0,0,.12-2.2,54,54,0,0,0-.31-5.94,13.9,13.9,0,0,1,1.06-1.17l.15.09c.19,2,.21,3.82.21,5.59a7.2,7.2,0,0,1-.28,2.71,7,7,0,0,1-.75,1.07Z"/><path class="cls-6" d="M265.3,292.81c-1.09,0-2.11-.39-2.11-1.56a3.85,3.85,0,0,1,.45-1.68,7.17,7.17,0,0,1,3.2-3l0-.58c.35-.35.71-.68,1.08-1l.18.05c.05,1.08.07,2.39.07,4.05,0,.92,0,1.62.32,1.95a1.61,1.61,0,0,0,1.25.38h.15v2.19h-.15c-1.34,0-1.94-.25-2.41-1.24A5.67,5.67,0,0,1,265.3,292.81Zm.1-10.78a9.09,9.09,0,0,1,1.25,1.36,5.34,5.34,0,0,1-1.07,1.11c-.42-.45-.85-.87-1.29-1.3Zm1.61,6.29c-1.56.72-2.55,1.5-2.55,1.95s.52.51,1.13.51a4.55,4.55,0,0,0,1.46-.23C267.05,289.69,267,288.92,267,288.32Zm.7-6.39a9.09,9.09,0,0,1,1.25,1.36,4.93,4.93,0,0,1-1.08,1.11c-.41-.44-.84-.87-1.28-1.3Z"/><path class="cls-6" d="M274.24,291.45v2.19h-4.37c-.53,0-.77-.57-.77-1.1s.24-1.09.77-1.09Z"/><path class="cls-6" d="M278.62,291.45v2.19h-4.37c-.53,0-.77-.57-.77-1.1s.24-1.09.77-1.09Z"/><path class="cls-6" d="M283,291.45v2.19h-4.38c-.52,0-.76-.57-.76-1.1s.24-1.09.76-1.09Z"/><path class="cls-6" d="M287.38,291.45v2.19H283c-.52,0-.76-.57-.76-1.1s.24-1.09.76-1.09Z"/><path class="cls-6" d="M291.76,291.45v2.19h-4.38c-.52,0-.76-.57-.76-1.1s.24-1.09.76-1.09Z"/><path class="cls-6" d="M294.54,287.11a7,7,0,0,1,1.1,3.05,4.67,4.67,0,0,1-.44,2,2.38,2.38,0,0,1-1.08,1.12,5.34,5.34,0,0,1-2.21.37h-.15c-.53,0-.77-.57-.77-1.1s.24-1.09.77-1.09H292c1.26,0,2.39-.25,2.39-.43a10.06,10.06,0,0,0-1.08-2.23,20.35,20.35,0,0,1,1.12-1.71Zm-1.78,8.42a9,9,0,0,1,1.24,1.36,4.68,4.68,0,0,1-1.07,1.11c-.42-.45-.84-.87-1.28-1.3Zm2.3-.1a8.59,8.59,0,0,1,1.25,1.36,4.68,4.68,0,0,1-1.07,1.11c-.42-.44-.84-.87-1.28-1.3Z"/><path class="cls-6" d="M304.55,291.45v2.19h-.82c-.46,2-1.84,4-3.54,4a6,6,0,0,1-3.22-1.21l.25-.58a3.42,3.42,0,0,0,1.34.3,4.6,4.6,0,0,0,2.73-1.12,4.29,4.29,0,0,0,1.27-1.38h-.31c-2.09,0-3.48-.67-3.48-2.64a3.28,3.28,0,0,1,.84-2.18,2.32,2.32,0,0,1,1.75-1c1.22,0,2,1.32,2.45,3.6Zm-3.72-1.82a1.06,1.06,0,0,0-1.1.8c0,.64,1.11,1.05,2.55,1.05a2.77,2.77,0,0,0,.42,0C302.3,290.36,301.67,289.63,300.83,289.63Z"/><path class="cls-6" d="M305.15,291.45c2.36,0,3.91-.05,3.91-.7a.37.37,0,0,0,0-.15,11.59,11.59,0,0,1-1.19,0c-1.86,0-2.88-.65-2.88-2.09a3.22,3.22,0,0,1,.86-2.21,2.47,2.47,0,0,1,1.74-.93c1.49,0,2.49,2.68,2.49,5.2,0,2.84-1.78,3-5.34,3h-.15c-.53,0-.77-.57-.77-1.1s.24-1.09.77-1.09Zm.61-9.08a9.09,9.09,0,0,1,1.25,1.36,5.15,5.15,0,0,1-1.08,1.11c-.41-.45-.84-.87-1.28-1.3Zm1.31,4.77c-.74,0-1.18.4-1.18.73,0,.62,1.15,1,2.87,1.09C308.35,287.81,307.79,287.14,307.07,287.14Zm1-4.87a8.49,8.49,0,0,1,1.24,1.36,4.68,4.68,0,0,1-1.07,1.11c-.41-.45-.84-.87-1.28-1.3Z"/><path class="cls-6" d="M318.42,292.81c-1.09,0-2.11-.39-2.11-1.56a3.85,3.85,0,0,1,.45-1.68,7.17,7.17,0,0,1,3.2-3l0-.58c.35-.35.71-.68,1.09-1l.17.05c.06,1.08.07,2.39.07,4.05,0,.92,0,1.62.32,1.95a1.61,1.61,0,0,0,1.25.38H323v2.19h-.15c-1.34,0-1.93-.25-2.41-1.24A5.67,5.67,0,0,1,318.42,292.81Zm.1-10.78a9.09,9.09,0,0,1,1.25,1.36,5.34,5.34,0,0,1-1.07,1.11c-.42-.45-.85-.87-1.28-1.3Zm1.61,6.29c-1.55.72-2.55,1.5-2.55,1.95s.52.51,1.13.51a4.55,4.55,0,0,0,1.46-.23C320.17,289.69,320.15,288.92,320.13,288.32Zm.7-6.39a9.09,9.09,0,0,1,1.25,1.36A4.93,4.93,0,0,1,321,284.4c-.41-.44-.84-.87-1.28-1.3Z"/><path class="cls-6" d="M325.53,289.7c1.22-1.3,2.58-2.37,4-2.37a2.6,2.6,0,0,1,2.27,1.12,2.88,2.88,0,0,1,.53,1.67,3.09,3.09,0,0,1-.34,1.33h1.31v2.19h-.15a27.12,27.12,0,0,1-3.91-.29,43.88,43.88,0,0,1-6.07.29H323c-.53,0-.77-.57-.77-1.1s.24-1.09.77-1.09h1l.51-.61a10.53,10.53,0,0,0,.13-1.73,38,38,0,0,0-.33-5.58c0-.83.36-1.2,1.08-1.83l.17.1a6.63,6.63,0,0,0,1.19,2.93l-.94.7c0,.74,0,1.47,0,2.39a5.19,5.19,0,0,1-.32,1.87Zm4.89,1.38c.35-.12.63-.25.63-.38a2.11,2.11,0,0,0-2.07-1.38c-1.16,0-2.44.85-3.72,2.13A22.35,22.35,0,0,0,330.42,291.08Z"/><path class="cls-6" d="M338,293.64h-.15a2.32,2.32,0,0,1-2.29-1.23h0a2.31,2.31,0,0,1-2.07,1.23h-.15c-.53,0-.77-.57-.77-1.1s.24-1.09.77-1.09h.24c1.11,0,1.61-.54,1.61-1.47,0-2-.12-4.42-.33-6.47a14.2,14.2,0,0,1,1.23-1.14l.15.07a47.31,47.31,0,0,1,.18,4.9c0,1.15,0,2.12,0,2.62,0,1,.27,1.49,1.42,1.49H338Z"/><path class="cls-6" d="M347,288.1a13.5,13.5,0,0,1,.25,2.5,3.93,3.93,0,0,1-.65,1.91,2.11,2.11,0,0,1-1.6,1.1,1.93,1.93,0,0,1-1.53-.93h0a2.71,2.71,0,0,1-1.8,1,1.06,1.06,0,0,1-1.17-.87h0a3.09,3.09,0,0,1-2.26.87H338c-.52,0-.76-.57-.76-1.1s.24-1.09.76-1.09h.16a2.87,2.87,0,0,0,2.05-.59,8.43,8.43,0,0,0,.86-1.11,8.59,8.59,0,0,1,1-.41l.08.12a3.4,3.4,0,0,0-.68,1.46.49.49,0,0,0,.5.53,1.75,1.75,0,0,0,.75-.21c.7-.35.74-1,.92-1.66a6.94,6.94,0,0,1,.82-.52l.1.08a3.31,3.31,0,0,0-.18,1.05,1.21,1.21,0,0,0,.32.87,1.12,1.12,0,0,0,.81.36.58.58,0,0,0,.53-.21,16.09,16.09,0,0,0-.4-1.89c.38-.43.76-.86,1.2-1.28Z"/><path class="cls-6" d="M265.09,315.22c-1.1,0-2.11-.38-2.11-1.55a4,4,0,0,1,.44-1.68,7.25,7.25,0,0,1,3.21-3l0-.58q.52-.52,1.08-1l.18.06c.05,1.08.06,2.38.06,4.05,0,.92,0,1.62.33,1.94a1.56,1.56,0,0,0,1.25.39h.15v2.19h-.15c-1.35,0-1.94-.26-2.41-1.24A5.75,5.75,0,0,1,265.09,315.22Zm.1-10.77a9.46,9.46,0,0,1,1.24,1.35,4.72,4.72,0,0,1-1.07,1.12c-.41-.45-.84-.88-1.28-1.3Zm1.6,6.29c-1.55.72-2.54,1.5-2.54,1.95s.52.51,1.12.51a4.86,4.86,0,0,0,1.47-.23C266.84,312.11,266.82,311.34,266.79,310.74Zm.7-6.39a8.59,8.59,0,0,1,1.25,1.36,4.87,4.87,0,0,1-1.07,1.11c-.42-.45-.84-.87-1.28-1.3Z"/><path class="cls-6" d="M274,313.87v2.19h-4.38c-.52,0-.76-.57-.76-1.1s.24-1.09.76-1.09Z"/><path class="cls-6" d="M278.41,313.87v2.19H274c-.52,0-.76-.57-.76-1.1s.24-1.09.76-1.09Z"/><path class="cls-6" d="M282.79,313.87v2.19h-4.38c-.53,0-.77-.57-.77-1.1s.24-1.09.77-1.09Z"/><path class="cls-6" d="M287.17,313.87v2.19h-4.38c-.53,0-.77-.57-.77-1.1s.24-1.09.77-1.09Z"/><path class="cls-6" d="M291.54,313.87v2.19h-4.37c-.53,0-.77-.57-.77-1.1s.24-1.09.77-1.09Z"/><path class="cls-6" d="M295.92,313.87v2.19h-4.37c-.53,0-.77-.57-.77-1.1s.24-1.09.77-1.09Z"/><path class="cls-6" d="M298.7,309.52a7,7,0,0,1,1.11,3.06,4.54,4.54,0,0,1-.45,2,2.34,2.34,0,0,1-1.07,1.11,5.39,5.39,0,0,1-2.21.38h-.16c-.52,0-.76-.57-.76-1.1s.24-1.09.76-1.09h.24c1.26,0,2.39-.25,2.39-.43a10.14,10.14,0,0,0-1.07-2.23,15.88,15.88,0,0,1,1.11-1.71ZM296.92,318a9.09,9.09,0,0,1,1.25,1.36,5.15,5.15,0,0,1-1.08,1.11c-.41-.45-.84-.87-1.28-1.3Zm2.31-.1a9.09,9.09,0,0,1,1.25,1.36,5.15,5.15,0,0,1-1.08,1.11c-.41-.45-.84-.87-1.28-1.3Z"/><path class="cls-6" d="M308.72,313.87v2.19h-.82c-.46,2-1.84,4-3.55,4a5.93,5.93,0,0,1-3.22-1.22l.26-.58a3.21,3.21,0,0,0,1.33.31,4.61,4.61,0,0,0,2.74-1.13,4.21,4.21,0,0,0,1.26-1.37h-.3c-2.09,0-3.48-.67-3.48-2.64a3.27,3.27,0,0,1,.83-2.18,2.36,2.36,0,0,1,1.75-1c1.23,0,2,1.32,2.45,3.6ZM305,312.05a1.07,1.07,0,0,0-1.11.8c0,.63,1.12,1,2.55,1a2.9,2.9,0,0,0,.43,0C306.46,312.77,305.84,312.05,305,312.05Z"/><path class="cls-6" d="M309.31,313.87c2.36,0,3.92-.06,3.92-.7a.29.29,0,0,0,0-.16,9.21,9.21,0,0,1-1.19.06c-1.86,0-2.88-.66-2.88-2.09a3.18,3.18,0,0,1,.87-2.21,2.43,2.43,0,0,1,1.74-.93c1.49,0,2.48,2.68,2.48,5.2,0,2.84-1.77,3-5.34,3h-.15c-.53,0-.77-.57-.77-1.1s.24-1.09.77-1.09Zm.61-9.08a8.55,8.55,0,0,1,1.25,1.35,4.92,4.92,0,0,1-1.07,1.12c-.42-.45-.84-.88-1.28-1.3Zm1.32,4.77c-.75,0-1.19.4-1.19.73,0,.61,1.15,1,2.87,1.08C312.52,310.22,312,309.56,311.24,309.56Zm1-4.87a9.56,9.56,0,0,1,1.25,1.35,5.15,5.15,0,0,1-1.07,1.12c-.42-.45-.85-.87-1.28-1.3Z"/><path class="cls-6" d="M321.6,305.06a9.09,9.09,0,0,1,1.25,1.36,5.34,5.34,0,0,1-1.07,1.11c-.42-.45-.85-.87-1.28-1.3Zm.81,3.22.23-.16c.77.64,1.63,1.2,2.36,1.85a3.14,3.14,0,0,1,1.21,2.63,4.91,4.91,0,0,1-.54,2.3,3.28,3.28,0,0,1-2.6,1.32,2.52,2.52,0,0,1-2.51-2.75,5.86,5.86,0,0,1,1.69-3.91Zm-.82,4.46c0,.66.67,1.26,1.65,1.26a2.44,2.44,0,0,0,2-.92c-.08-.72-.83-1.48-2.26-2.29C322,311.64,321.59,312.27,321.59,312.74Zm2.32-7.78a9.09,9.09,0,0,1,1.25,1.36,4.93,4.93,0,0,1-1.08,1.11c-.41-.44-.84-.87-1.27-1.3Z"/><path class="cls-6" d="M328.86,312.63c0,1,.55,1.39,1.59,1.39a5.13,5.13,0,0,0,2.37-.61,5.4,5.4,0,0,0-2.89-3.11c-.37-.21-.6-.39-.6-.64A4.37,4.37,0,0,1,330,308h.08a11.39,11.39,0,0,1,2.75,2.35,4.17,4.17,0,0,1,.46,4.79,4.82,4.82,0,0,1-3.06,1.09c-1.35,0-2.17-.74-2.17-2.38a9.48,9.48,0,0,1,.07-1.19Z"/><path class="cls-6" d="M335.73,316.19a18.54,18.54,0,0,0,.15-2.64,63.1,63.1,0,0,0-.38-7.11,18,18,0,0,1,1.27-1.39l.19.1c.22,2.36.25,4.57.25,6.69a8.55,8.55,0,0,1-.34,3.24,7.34,7.34,0,0,1-.9,1.28Z"/><path class="cls-6" d="M341.73,310.26a6.78,6.78,0,0,1,1.33,3.41c0,.52,0,.8,0,1a5.74,5.74,0,0,1-.7,2.9,3.09,3.09,0,0,1-2.48,1.85,6.27,6.27,0,0,1-3-1l.21-.58a4.12,4.12,0,0,0,1.09.13,4,4,0,0,0,2.66-1.32,3.81,3.81,0,0,0,1.2-1.85c0-.39-.41-1.16-1.46-2.73.3-.66.65-1.29,1-1.86Z"/><path class="cls-6" d="M346.71,318.24l-.29-.32a.46.46,0,0,0-.38-.16c-.43,0-.73.22-.73.39s.5.58,1.43.58c.41,0,.73,0,1.11,0l0,.1a6.2,6.2,0,0,1-.45.89,7,7,0,0,0-2.73.78l-.13-.13c.13-.28.27-.55.42-.82a.93.93,0,0,1-.66-.87,1.87,1.87,0,0,1,.7-1.24,2.09,2.09,0,0,1,1.35-.58c.47,0,.78.24.78.61a1.47,1.47,0,0,1-.32.81Zm-1.28-2.05a18.68,18.68,0,0,0,.14-2.64,65.51,65.51,0,0,0-.37-7.11,16.19,16.19,0,0,1,1.27-1.39l.19.1c.22,2.36.25,4.57.25,6.69a8.55,8.55,0,0,1-.34,3.24,7.92,7.92,0,0,1-.9,1.28Z"/><path class="cls-6" d="M275.05,340.27a5.35,5.35,0,0,1-2.23-4.61h0a5.35,5.35,0,0,1,2.23-4.6l.28.28a6.93,6.93,0,0,0,0,8.66Z"/><path class="cls-6" d="M280.86,334.2a7.48,7.48,0,0,1,.75,3.15,4.47,4.47,0,0,1-.44,1.75,3.31,3.31,0,0,1-2.56,1.32,2.18,2.18,0,0,1-2.26-2.37,4.79,4.79,0,0,1,.65-2.28l.4.2a3.22,3.22,0,0,0-.37,1.26,1.6,1.6,0,0,0,1.7,1.68,3,3,0,0,0,2-.79.5.5,0,0,0,.15-.37,5.77,5.77,0,0,0-.82-2.35,12.94,12.94,0,0,1,.75-1.21Zm-2.15-2.26a6.44,6.44,0,0,1,1.16.92,5.39,5.39,0,0,1-.72,1A12.53,12.53,0,0,0,278,333Z"/><path class="cls-6" d="M286.89,337.05v1.42h-.53c-.3,1.29-1.2,2.6-2.31,2.6a3.82,3.82,0,0,1-2.1-.79l.17-.37a2.22,2.22,0,0,0,.87.19,3,3,0,0,0,1.78-.73,2.82,2.82,0,0,0,.83-.9h-.2c-1.37,0-2.27-.43-2.27-1.72a2.13,2.13,0,0,1,.54-1.41,1.52,1.52,0,0,1,1.14-.64c.8,0,1.31.87,1.6,2.35Zm-2.42-1.19a.7.7,0,0,0-.72.52c0,.42.73.69,1.66.69l.28,0C285.42,336.33,285,335.86,284.47,335.86Z"/><path class="cls-6" d="M290,338.47h-.1a1.5,1.5,0,0,1-1.49-.8h0a1.49,1.49,0,0,1-1.34.8h-.1c-.35,0-.5-.37-.5-.71s.15-.71.5-.71h.15c.73,0,1.05-.35,1.05-1,0-1.28-.08-2.88-.21-4.22a10.79,10.79,0,0,1,.8-.74l.09.05a28.46,28.46,0,0,1,.13,3.19c0,.75,0,1.38,0,1.71,0,.67.18,1,.93,1H290Z"/><path class="cls-6" d="M294.16,337.89c-.17.56-.43.87-.84.87a3,3,0,0,1-1.95-1.09h0a1.31,1.31,0,0,1-1.28.8H290c-.34,0-.5-.37-.5-.71s.16-.71.5-.71h.1c1,0,1.1-.4,1.34-1.13a2.14,2.14,0,0,1,.54-.92,1.22,1.22,0,0,1,.82-.37c.83,0,1.15.95,1.59,1.86a1,1,0,0,0,1,.56h.1v1.42h-.1a1.36,1.36,0,0,1-1.22-.58Zm-.63-.56a.14.14,0,0,0,.16-.15c0-.35-.5-1.37-1.12-1.37a.83.83,0,0,0-.71.47A2.21,2.21,0,0,0,293.53,337.33Z"/><path class="cls-6" d="M298.83,338.47h-.09a1.69,1.69,0,0,1-1.63-.77h0a1.81,1.81,0,0,1-1.49.77h-.1c-.34,0-.5-.37-.5-.71s.16-.71.5-.71h.1a1.74,1.74,0,0,0,1-.24c.39-.25.42-.7.58-1,.16-.11.35-.24.57-.37l0,0a2.59,2.59,0,0,0-.14.66.77.77,0,0,0,.35.73,1.45,1.45,0,0,0,.77.21h.08Zm-2.56-5.21a6,6,0,0,1,.82.88,3.44,3.44,0,0,1-.7.73c-.27-.29-.55-.57-.84-.85Zm1.51-.07a5.49,5.49,0,0,1,.81.89,3.18,3.18,0,0,1-.7.72c-.27-.29-.55-.57-.83-.84Z"/><path class="cls-6" d="M302.54,336.08a5.92,5.92,0,0,0-1.81-.38,1,1,0,0,0-.59.13l-.33.75h-.14l-.46-.91a1.48,1.48,0,0,1,1.55-1.27,6.18,6.18,0,0,1,2,.49,4.73,4.73,0,0,0,1.76.33H305v.06a8.81,8.81,0,0,1-.59,1,1.61,1.61,0,0,0-1.22.43,5.48,5.48,0,0,1-4.29,1.77h-.1c-.34,0-.49-.37-.49-.71s.15-.71.49-.71h.1a6,6,0,0,0,3.61-.94Zm1.35.36,0,0c.05.53.62.57,1.24.57h.1v1.42h-.1a2,2,0,0,1-1.3-.29,1.34,1.34,0,0,1-.38-1c0-.15,0-.28,0-.43Z"/><path class="cls-6" d="M306.53,337.63a1.19,1.19,0,0,1-1.18.84h-.09c-.33,0-.49-.34-.49-.71s.16-.71.5-.71h.1a1.12,1.12,0,0,0,.61-.19c.56-.35.43-1.34,1.13-2a1.34,1.34,0,0,1,.94-.42c1.19,0,1.59,1.81,1.59,2.6,0,.1-.26,1.36-1.21,1.36a3.24,3.24,0,0,1-1.88-.78Zm2.11-.58c.13,0,.22,0,.22-.07-.15-.79-.58-1.31-1.06-1.31a.93.93,0,0,0-.83.62A2.58,2.58,0,0,0,308.64,337.05Z"/><path class="cls-6" d="M317.12,336.83l-.59,1.06a8.12,8.12,0,0,0-1.45.25,4.22,4.22,0,0,0-1.13.53l-.12-.19a4.37,4.37,0,0,1,.45-.72,1,1,0,0,1-.64-.84,1.9,1.9,0,0,1,.65-1.29,2.31,2.31,0,0,1,1.44-.72.68.68,0,0,1,.77.71,1.3,1.3,0,0,1-.34.77H316a.61.61,0,0,0-.63-.49c-.33,0-.8.2-.8.43s.4.55,1.13.55a10.14,10.14,0,0,0,1.37-.12Z"/><path class="cls-6" d="M320.18,338.47h-.12c-1,0-1.67-.49-1.69-1.88,0-.81-.07-2.91-.26-4.66.27-.28.54-.55.82-.79l.1.05a31.28,31.28,0,0,1,.13,3.19c0,.75,0,1.13,0,1.71s.29,1,.94,1h.1Z"/><path class="cls-6" d="M320.28,337.05a4.19,4.19,0,0,0,.91-.09,3.45,3.45,0,0,1-.12-.94,2.49,2.49,0,0,1,.82-1.87,1.63,1.63,0,0,1,1.08-.57.87.87,0,0,1,.69.46,2.41,2.41,0,0,1,.42,1.44,3.41,3.41,0,0,1-.37,1.48,10.21,10.21,0,0,0,1,.09h.1v1.42h-.1a6,6,0,0,1-2.47-.44,4.4,4.4,0,0,1-2,.44h-.1c-.34,0-.5-.37-.5-.71s.16-.71.5-.71Zm2.22-.33c.63-.19,1-.53,1-.77s-.36-1-.84-1a1.46,1.46,0,0,0-1.13.94C321.63,336.25,322,336.53,322.5,336.72Zm-.05-5.43a8.38,8.38,0,0,1,1,.83,2.62,2.62,0,0,1-.65.88,10.6,10.6,0,0,0-1-.79Z"/><path class="cls-6" d="M327.92,338.47h-.1a1.5,1.5,0,0,1-1.49-.8h0a1.5,1.5,0,0,1-1.35.8h-.1c-.34,0-.5-.37-.5-.71s.16-.71.5-.71H325c.72,0,1.05-.35,1.05-1,0-1.28-.08-2.88-.22-4.22a10.87,10.87,0,0,1,.81-.74l.09.05a31,31,0,0,1,.12,3.19c0,.75,0,1.38,0,1.71,0,.67.17,1,.92,1h.15Z"/><path class="cls-6" d="M331.62,336.08a5.87,5.87,0,0,0-1.81-.38,1,1,0,0,0-.59.13l-.33.75h-.14l-.46-.91a1.48,1.48,0,0,1,1.55-1.27,6.23,6.23,0,0,1,2,.49,4.69,4.69,0,0,0,1.76.33h.52l0,.06a8.81,8.81,0,0,1-.59,1,1.6,1.6,0,0,0-1.22.43,5.5,5.5,0,0,1-4.29,1.77h-.1c-.34,0-.5-.37-.5-.71s.16-.71.5-.71h.1a5.94,5.94,0,0,0,3.6-.94Z"/><path class="cls-6" d="M337.44,335.67a5.34,5.34,0,0,1-2.25,4.6l-.25-.26a6.15,6.15,0,0,0,1.51-4.35,6.44,6.44,0,0,0-1.51-4.35l.25-.26a5.34,5.34,0,0,1,2.25,4.61Z"/><path class="cls-6" d="M135,292.81c-1.1,0-2.11-.39-2.11-1.56a4,4,0,0,1,.44-1.68,7.2,7.2,0,0,1,3.21-3l0-.58c.35-.35.71-.68,1.08-1l.18.05c0,1.08.06,2.39.06,4.05,0,.92,0,1.62.33,1.95a1.6,1.6,0,0,0,1.25.38h.15v2.19h-.15c-1.35,0-1.94-.25-2.41-1.24A5.76,5.76,0,0,1,135,292.81Zm.1-10.78a9,9,0,0,1,1.24,1.36,4.87,4.87,0,0,1-1.07,1.11c-.42-.45-.84-.87-1.28-1.3Zm1.6,6.29c-1.55.72-2.55,1.5-2.55,1.95s.53.51,1.13.51a4.61,4.61,0,0,0,1.47-.23C136.75,289.69,136.73,288.92,136.7,288.32Zm.7-6.39a8.59,8.59,0,0,1,1.25,1.36,4.68,4.68,0,0,1-1.07,1.11c-.42-.44-.84-.87-1.28-1.3Z"/><path class="cls-6" d="M143.94,291.45v2.19h-4.38c-.52,0-.76-.57-.76-1.1s.24-1.09.76-1.09Z"/><path class="cls-6" d="M148.32,291.45v2.19h-4.38c-.52,0-.76-.57-.76-1.1s.24-1.09.76-1.09Z"/><path class="cls-6" d="M152.7,291.45v2.19h-4.38c-.53,0-.77-.57-.77-1.1s.24-1.09.77-1.09Z"/><path class="cls-6" d="M157.07,291.45v2.19H152.7c-.53,0-.77-.57-.77-1.1s.24-1.09.77-1.09Z"/><path class="cls-6" d="M161.45,291.45v2.19h-4.37c-.53,0-.77-.57-.77-1.1s.24-1.09.77-1.09Z"/><path class="cls-6" d="M164.23,287.11a7,7,0,0,1,1.11,3.05,4.54,4.54,0,0,1-.45,2,2.42,2.42,0,0,1-1.07,1.12,5.41,5.41,0,0,1-2.21.37h-.15c-.53,0-.77-.57-.77-1.1s.24-1.09.77-1.09h.24c1.25,0,2.38-.25,2.38-.43a10.36,10.36,0,0,0-1.07-2.23,18.16,18.16,0,0,1,1.11-1.71Zm-1.78,8.42a9.09,9.09,0,0,1,1.25,1.36,5.11,5.11,0,0,1-1.07,1.11c-.42-.45-.85-.87-1.28-1.3Zm2.31-.1a9.09,9.09,0,0,1,1.25,1.36,4.93,4.93,0,0,1-1.08,1.11c-.41-.44-.84-.87-1.28-1.3Z"/><path class="cls-6" d="M174.25,291.45v2.19h-.82c-.46,2-1.84,4-3.55,4a5.93,5.93,0,0,1-3.21-1.21l.25-.58a3.37,3.37,0,0,0,1.33.3A4.65,4.65,0,0,0,171,295a4.29,4.29,0,0,0,1.27-1.38H172c-2.09,0-3.48-.67-3.48-2.64a3.27,3.27,0,0,1,.83-2.18,2.36,2.36,0,0,1,1.75-1c1.23,0,2,1.32,2.45,3.6Zm-3.72-1.82a1.07,1.07,0,0,0-1.11.8c0,.64,1.12,1.05,2.55,1.05a2.9,2.9,0,0,0,.43,0C172,290.36,171.37,289.63,170.53,289.63Z"/><path class="cls-6" d="M174.84,291.45c2.36,0,3.92-.05,3.92-.7a.37.37,0,0,0,0-.15,11.79,11.79,0,0,1-1.2,0c-1.86,0-2.87-.65-2.87-2.09a3.17,3.17,0,0,1,.86-2.21,2.45,2.45,0,0,1,1.74-.93c1.49,0,2.48,2.68,2.48,5.2,0,2.84-1.77,3-5.34,3h-.15c-.52,0-.77-.57-.77-1.1s.25-1.09.77-1.09Zm.61-9.08a8.59,8.59,0,0,1,1.25,1.36,4.87,4.87,0,0,1-1.07,1.11c-.42-.45-.84-.87-1.28-1.3Zm1.32,4.77c-.75,0-1.18.4-1.18.73,0,.62,1.14,1,2.86,1.09C178.05,287.81,177.49,287.14,176.77,287.14Zm1-4.87a8.59,8.59,0,0,1,1.25,1.36,4.88,4.88,0,0,1-1.07,1.11c-.42-.45-.84-.87-1.28-1.3Z"/><path class="cls-6" d="M188.12,292.81c-1.1,0-2.11-.39-2.11-1.56a4,4,0,0,1,.44-1.68,7.25,7.25,0,0,1,3.21-3l0-.58c.35-.35.71-.68,1.08-1l.18.05c.05,1.08.06,2.39.06,4.05,0,.92,0,1.62.33,1.95a1.6,1.6,0,0,0,1.25.38h.15v2.19h-.15c-1.35,0-1.94-.25-2.41-1.24A5.72,5.72,0,0,1,188.12,292.81Zm.1-10.78a8.49,8.49,0,0,1,1.24,1.36,4.87,4.87,0,0,1-1.07,1.11c-.41-.45-.84-.87-1.28-1.3Zm1.6,6.29c-1.55.72-2.54,1.5-2.54,1.95s.52.51,1.12.51a4.57,4.57,0,0,0,1.47-.23C189.87,289.69,189.85,288.92,189.82,288.32Zm.7-6.39a8.59,8.59,0,0,1,1.25,1.36,4.68,4.68,0,0,1-1.07,1.11c-.42-.44-.84-.87-1.28-1.3Z"/><path class="cls-6" d="M195.22,289.7c1.23-1.3,2.58-2.37,4-2.37a2.62,2.62,0,0,1,2.28,1.12,2.87,2.87,0,0,1,.52,1.67,3.09,3.09,0,0,1-.34,1.33H203v2.19h-.16a27,27,0,0,1-3.9-.29,43.88,43.88,0,0,1-6.07.29h-.16c-.52,0-.76-.57-.76-1.1s.24-1.09.76-1.09h1l.5-.61a9.53,9.53,0,0,0,.13-1.73,38,38,0,0,0-.33-5.58c0-.83.36-1.2,1.09-1.83l.16.1a6.63,6.63,0,0,0,1.19,2.93l-.94.7c0,.74,0,1.47,0,2.39a5.42,5.42,0,0,1-.32,1.87Zm4.89,1.38c.35-.12.64-.25.64-.38a2.12,2.12,0,0,0-2.07-1.38c-1.16,0-2.44.85-3.72,2.13A22.3,22.3,0,0,0,200.11,291.08Z"/><path class="cls-6" d="M207.68,293.64h-.16a2.32,2.32,0,0,1-2.28-1.23h-.05a2.29,2.29,0,0,1-2.06,1.23H203c-.52,0-.76-.57-.76-1.1s.24-1.09.76-1.09h.24c1.12,0,1.61-.54,1.61-1.47,0-2-.12-4.42-.33-6.47a14.28,14.28,0,0,1,1.24-1.14l.14.07a44.69,44.69,0,0,1,.19,4.9c0,1.15,0,2.12,0,2.62,0,1,.27,1.49,1.42,1.49h.22Z"/><path class="cls-6" d="M216.65,288.1a12.67,12.67,0,0,1,.25,2.5,3.92,3.92,0,0,1-.64,1.91,2.14,2.14,0,0,1-1.6,1.1,1.92,1.92,0,0,1-1.53-.93h0a2.72,2.72,0,0,1-1.81,1,1.06,1.06,0,0,1-1.17-.87h0a3.1,3.1,0,0,1-2.27.87h-.15c-.53,0-.77-.57-.77-1.1s.24-1.09.77-1.09h.15a2.88,2.88,0,0,0,2.06-.59,8.36,8.36,0,0,0,.85-1.11,8,8,0,0,1,1-.41l.07.12a3.48,3.48,0,0,0-.67,1.46.49.49,0,0,0,.5.53,1.75,1.75,0,0,0,.74-.21c.7-.35.75-1,.92-1.66a9.07,9.07,0,0,1,.82-.52l.1.08a3.29,3.29,0,0,0-.17,1.05,1.2,1.2,0,0,0,.31.87,1.14,1.14,0,0,0,.81.36.61.61,0,0,0,.54-.21,14.26,14.26,0,0,0-.41-1.89c.39-.43.77-.86,1.21-1.28Z"/><path class="cls-6" d="M134.87,315.22c-1.09,0-2.11-.38-2.11-1.55a3.85,3.85,0,0,1,.45-1.68,7.17,7.17,0,0,1,3.2-3l0-.58q.52-.52,1.08-1l.18.06c.05,1.08.07,2.38.07,4.05,0,.92,0,1.62.32,1.94a1.57,1.57,0,0,0,1.25.39h.15v2.19h-.15c-1.34,0-1.94-.26-2.41-1.24A5.66,5.66,0,0,1,134.87,315.22Zm.1-10.77a9.56,9.56,0,0,1,1.25,1.35,5.15,5.15,0,0,1-1.07,1.12c-.42-.45-.85-.88-1.29-1.3Zm1.61,6.29c-1.56.72-2.55,1.5-2.55,1.95s.52.51,1.13.51a4.84,4.84,0,0,0,1.46-.23C136.62,312.11,136.6,311.34,136.58,310.74Zm.7-6.39a9.09,9.09,0,0,1,1.25,1.36,5.15,5.15,0,0,1-1.08,1.11c-.41-.45-.84-.87-1.28-1.3Z"/><path class="cls-6" d="M139.59,313.87a7.14,7.14,0,0,0,1.39-.13,6,6,0,0,1-.17-1.45,3.89,3.89,0,0,1,1.25-2.88,2.57,2.57,0,0,1,1.66-.86,1.35,1.35,0,0,1,1.07.7,3.76,3.76,0,0,1,.64,2.21,5.33,5.33,0,0,1-.57,2.27,13.72,13.72,0,0,0,1.59.14h.15v2.19h-.15a9.43,9.43,0,0,1-3.8-.68,6.81,6.81,0,0,1-3.06.68h-.15c-.53,0-.77-.57-.77-1.1s.24-1.09.77-1.09Zm3.41-.51c1-.28,1.56-.82,1.56-1.18,0-.52-.55-1.56-1.28-1.56a2.21,2.21,0,0,0-1.74,1.44C141.66,312.64,142.18,313.07,143,313.36Zm-.08-8.33a11,11,0,0,1,1.56,1.28,3.91,3.91,0,0,1-1,1.34,19.29,19.29,0,0,0-1.59-1.21Z"/><path class="cls-6" d="M151.73,316.06h-.15a2.58,2.58,0,0,1-2.5-1.2h0a2.76,2.76,0,0,1-2.29,1.2h-.15c-.53,0-.77-.57-.77-1.1s.24-1.09.77-1.09h.15a2.68,2.68,0,0,0,1.49-.37c.6-.38.65-1.08.9-1.58.25-.17.53-.37.87-.57l.08.07a4.32,4.32,0,0,0-.21,1,1.17,1.17,0,0,0,.54,1.13,2.15,2.15,0,0,0,1.17.32h.13Zm-4,2a9,9,0,0,1,1.24,1.36,4.68,4.68,0,0,1-1.07,1.11c-.41-.44-.84-.87-1.28-1.3Zm2.3-.1a8.59,8.59,0,0,1,1.25,1.36,4.72,4.72,0,0,1-1.07,1.12c-.42-.45-.84-.88-1.28-1.31Z"/><path class="cls-6" d="M157.41,313.44a4.9,4.9,0,0,0,2.39.43H160v2.19h-.16a5.71,5.71,0,0,1-3.85-1.32,6.21,6.21,0,0,1-4.07,1.32h-.15c-.52,0-.77-.57-.77-1.1s.25-1.09.77-1.09h.47a6.57,6.57,0,0,0,2.36-.3v0c-.42-.37-.86-.79-1.34-1.27a1,1,0,0,0-.71-.35h-.28l0,0,.62-1.79a25,25,0,0,1,3.53-.39,8.29,8.29,0,0,1,3.09.56,16.28,16.28,0,0,1-.36,1.62c-.57.53-1.14,1-1.67,1.52Zm.52-1.79a5.7,5.7,0,0,0-1.74-.25,8.23,8.23,0,0,0-1.81.17v.05a13.18,13.18,0,0,0,1.79,1.39,16.27,16.27,0,0,0,1.76-1.31Z"/><path class="cls-6" d="M164.34,313.87v2.19H160c-.52,0-.76-.57-.76-1.1s.24-1.09.76-1.09Z"/><path class="cls-6" d="M168.72,313.87v2.19h-4.38c-.53,0-.77-.57-.77-1.1s.24-1.09.77-1.09Z"/><path class="cls-6" d="M173.09,313.87v2.19h-4.37c-.53,0-.77-.57-.77-1.1s.24-1.09.77-1.09Z"/><path class="cls-6" d="M181.51,309.56a2.4,2.4,0,0,1,2.35,2.63,3.89,3.89,0,0,1-.83,2.36c-.86,1-2.25,1.51-4.67,1.51-1.3,0-2.32-.28-2.81-1.11h-.06a2.76,2.76,0,0,1-2.25,1.11h-.14c-.53,0-.77-.57-.77-1.1s.24-1.09.77-1.09h.15a1.88,1.88,0,0,0,1.68-.66,6.47,6.47,0,0,0,.53-1.3c.26-.2.52-.41.82-.6l.08.05a4.78,4.78,0,0,0-.16,1,1.12,1.12,0,0,0,.62,1.09C178.22,311.13,179.9,309.56,181.51,309.56Zm-2.3,4.31a6.12,6.12,0,0,0,3.57-.94,1.66,1.66,0,0,0-1.59-1.47c-1.17,0-2.38.84-3.5,2.3A11.79,11.79,0,0,0,179.21,313.87Zm.37-8.11a11.07,11.07,0,0,1,1.57,1.28,3.76,3.76,0,0,1-1,1.35,17.48,17.48,0,0,0-1.58-1.22Z"/><path class="cls-6" d="M191.21,305.06a9.09,9.09,0,0,1,1.25,1.36,5.34,5.34,0,0,1-1.07,1.11c-.42-.45-.85-.87-1.28-1.3Zm.81,3.22.23-.16c.77.64,1.63,1.2,2.36,1.85a3.14,3.14,0,0,1,1.21,2.63,4.91,4.91,0,0,1-.54,2.3,3.28,3.28,0,0,1-2.6,1.32,2.52,2.52,0,0,1-2.51-2.75,5.86,5.86,0,0,1,1.69-3.91Zm-.82,4.46c0,.66.67,1.26,1.65,1.26a2.44,2.44,0,0,0,2-.92c-.09-.72-.83-1.48-2.26-2.29C191.6,311.64,191.2,312.27,191.2,312.74Zm2.32-7.78a9.09,9.09,0,0,1,1.25,1.36,4.93,4.93,0,0,1-1.08,1.11c-.41-.44-.84-.87-1.28-1.3Z"/><path class="cls-6" d="M198.47,312.63c0,1,.55,1.39,1.58,1.39a5.14,5.14,0,0,0,2.38-.61,5.4,5.4,0,0,0-2.89-3.11c-.37-.21-.6-.39-.6-.64a4.37,4.37,0,0,1,.7-1.69h.08a11.39,11.39,0,0,1,2.75,2.35,4.17,4.17,0,0,1,.46,4.79,4.82,4.82,0,0,1-3.06,1.09c-1.35,0-2.17-.74-2.17-2.38a9.48,9.48,0,0,1,.07-1.19Z"/><path class="cls-6" d="M205.34,316.19a18.68,18.68,0,0,0,.14-2.64,63.08,63.08,0,0,0-.37-7.11,18,18,0,0,1,1.27-1.39l.19.1c.22,2.36.25,4.57.25,6.69a8.55,8.55,0,0,1-.34,3.24,7.34,7.34,0,0,1-.9,1.28Z"/><path class="cls-6" d="M211.34,310.26a6.78,6.78,0,0,1,1.33,3.41c0,.52,0,.8,0,1a5.74,5.74,0,0,1-.7,2.9,3.09,3.09,0,0,1-2.48,1.85,6.21,6.21,0,0,1-3-1l.21-.58a4.07,4.07,0,0,0,1.09.13,4,4,0,0,0,2.66-1.32,3.81,3.81,0,0,0,1.2-1.85c0-.39-.41-1.16-1.46-2.73.3-.66.65-1.29,1-1.86Z"/><path class="cls-6" d="M216.32,318.24l-.29-.32a.46.46,0,0,0-.38-.16c-.43,0-.73.22-.73.39s.5.58,1.43.58c.41,0,.73,0,1.11,0l0,.1a6.2,6.2,0,0,1-.45.89,7,7,0,0,0-2.73.78l-.13-.13c.13-.28.27-.55.42-.82a.93.93,0,0,1-.66-.87,1.87,1.87,0,0,1,.7-1.24,2.09,2.09,0,0,1,1.35-.58c.47,0,.78.24.78.61a1.47,1.47,0,0,1-.32.81ZM215,316.19a18.68,18.68,0,0,0,.14-2.64,65.51,65.51,0,0,0-.37-7.11,16.19,16.19,0,0,1,1.27-1.39l.19.1c.21,2.36.25,4.57.25,6.69a8.55,8.55,0,0,1-.34,3.24,7.92,7.92,0,0,1-.9,1.28Z"/><path class="cls-6" d="M143.35,340.27a5.34,5.34,0,0,1-2.22-4.61h0a5.34,5.34,0,0,1,2.22-4.6l.28.28a6.93,6.93,0,0,0,0,8.66Z"/><path class="cls-6" d="M149.16,334.2a7.33,7.33,0,0,1,.75,3.15,4.62,4.62,0,0,1-.43,1.75,3.31,3.31,0,0,1-2.57,1.32,2.18,2.18,0,0,1-2.25-2.37,4.79,4.79,0,0,1,.65-2.28l.39.2a3.18,3.18,0,0,0-.36,1.26,1.59,1.59,0,0,0,1.69,1.68,3.06,3.06,0,0,0,2-.79.53.53,0,0,0,.14-.37,5.77,5.77,0,0,0-.82-2.35c.22-.4.47-.78.76-1.21ZM147,331.94a6.44,6.44,0,0,1,1.16.92,5,5,0,0,1-.72,1,12.53,12.53,0,0,0-1.16-.91Z"/><path class="cls-6" d="M155.2,337.05v1.42h-.54c-.3,1.29-1.2,2.6-2.31,2.6a3.77,3.77,0,0,1-2.09-.79l.16-.37a2.26,2.26,0,0,0,.87.19,3,3,0,0,0,1.78-.73,2.82,2.82,0,0,0,.83-.9h-.2c-1.36,0-2.27-.43-2.27-1.72a2.09,2.09,0,0,1,.55-1.41,1.5,1.5,0,0,1,1.14-.64c.79,0,1.31.87,1.59,2.35Zm-2.43-1.19a.7.7,0,0,0-.72.52c0,.42.73.69,1.66.69l.28,0C153.73,336.33,153.32,335.86,152.77,335.86Z"/><path class="cls-6" d="M158.26,338.47h-.1a1.49,1.49,0,0,1-1.48-.8h0a1.5,1.5,0,0,1-1.35.8h-.1c-.34,0-.5-.37-.5-.71s.16-.71.5-.71h.16c.72,0,1-.35,1-1,0-1.28-.07-2.88-.21-4.22a10.87,10.87,0,0,1,.81-.74l.09.05a31,31,0,0,1,.12,3.19c0,.75,0,1.38,0,1.71,0,.67.17,1,.92,1h.14Z"/><path class="cls-6" d="M162.46,337.89c-.17.56-.43.87-.84.87a3.05,3.05,0,0,1-2-1.09h0a1.29,1.29,0,0,1-1.27.8h-.1c-.35,0-.5-.37-.5-.71s.15-.71.5-.71h.1c1,0,1.09-.4,1.33-1.13a2.25,2.25,0,0,1,.54-.92,1.22,1.22,0,0,1,.82-.37c.83,0,1.15.95,1.59,1.86a1.05,1.05,0,0,0,1,.56h.1v1.42h-.1a1.34,1.34,0,0,1-1.22-.58Zm-.63-.56c.11,0,.16-.05.16-.15,0-.35-.49-1.37-1.11-1.37a.84.84,0,0,0-.72.47A2.25,2.25,0,0,0,161.83,337.33Z"/><path class="cls-6" d="M167.14,338.47H167a1.7,1.7,0,0,1-1.63-.77h0a1.8,1.8,0,0,1-1.49.77h-.1c-.34,0-.5-.37-.5-.71s.16-.71.5-.71h.1a1.72,1.72,0,0,0,1-.24c.39-.25.43-.7.58-1,.17-.11.35-.24.57-.37l0,0a3,3,0,0,0-.13.66.77.77,0,0,0,.35.73,1.39,1.39,0,0,0,.76.21h.09Zm-2.56-5.21a5.4,5.4,0,0,1,.81.88,3.21,3.21,0,0,1-.7.73c-.27-.29-.55-.57-.83-.85Zm1.5-.07a5.06,5.06,0,0,1,.81.89,3.13,3.13,0,0,1-.69.72c-.28-.29-.55-.57-.84-.84Z"/><path class="cls-6" d="M170.84,336.08a5.87,5.87,0,0,0-1.81-.38,1,1,0,0,0-.59.13l-.33.75H168l-.46-.91a1.48,1.48,0,0,1,1.55-1.27,6.23,6.23,0,0,1,2,.49,4.73,4.73,0,0,0,1.76.33h.52l0,.06a8.81,8.81,0,0,1-.59,1,1.64,1.64,0,0,0-1.23.43,5.47,5.47,0,0,1-4.28,1.77h-.1c-.34,0-.5-.37-.5-.71s.16-.71.5-.71h.1a5.94,5.94,0,0,0,3.6-.94Zm1.35.36,0,0c.05.53.62.57,1.24.57h.1v1.42h-.1a2,2,0,0,1-1.31-.29,1.34,1.34,0,0,1-.38-1,3.1,3.1,0,0,1,0-.43Z"/><path class="cls-6" d="M174.83,337.63a1.19,1.19,0,0,1-1.17.84h-.1c-.32,0-.49-.34-.49-.71s.16-.71.5-.71h.1a1.1,1.1,0,0,0,.61-.19c.56-.35.43-1.34,1.13-2a1.36,1.36,0,0,1,.94-.42c1.19,0,1.59,1.81,1.59,2.6,0,.1-.26,1.36-1.2,1.36a3.26,3.26,0,0,1-1.89-.78Zm2.11-.58c.14,0,.22,0,.22-.07-.15-.79-.57-1.31-1-1.31a.94.94,0,0,0-.84.62A2.6,2.6,0,0,0,176.94,337.05Z"/><path class="cls-6" d="M182.51,335.76c.33-.94.74-1.56,1.49-1.56a2,2,0,0,1,1.65,1.19,2.81,2.81,0,0,1,.45,1.33,2.73,2.73,0,0,1-.44,1.2,15.94,15.94,0,0,0-2.08-.17,1.29,1.29,0,0,0-.91.28c.11,1.21.92,3.33.92,3.89a5.51,5.51,0,0,1-.24,1.33h-.16c-.21-1.45-1.25-3.58-1.25-4.7a3.07,3.07,0,0,1,.17-.93,2.92,2.92,0,0,1,.53-.91Zm.65.65a1.83,1.83,0,0,1,.68-.12,7.36,7.36,0,0,1,1.22.13l0-.05a1.88,1.88,0,0,0-1.42-.93,1,1,0,0,0-.37.07v.1a3.29,3.29,0,0,1,0,.49l-.12.28Z"/><path class="cls-6" d="M191.35,337.05v1.42h-.54c-.3,1.29-1.19,2.6-2.31,2.6a3.77,3.77,0,0,1-2.09-.79l.16-.37a2.26,2.26,0,0,0,.87.19,3,3,0,0,0,1.78-.73,2.61,2.61,0,0,0,.83-.9h-.2c-1.36,0-2.27-.43-2.27-1.72a2.09,2.09,0,0,1,.55-1.41,1.5,1.5,0,0,1,1.14-.64c.79,0,1.31.87,1.59,2.35Zm-2.43-1.19a.7.7,0,0,0-.72.52c0,.42.73.69,1.67.69l.27,0C189.88,336.33,189.47,335.86,188.92,335.86Z"/><path class="cls-6" d="M193.47,335.42a3.2,3.2,0,0,0-.09.64.72.72,0,0,0,.38.71c1-1.5,2-2.42,3-2.42a1.58,1.58,0,0,1,1.58,1.59,2.66,2.66,0,0,1-.26,1.11h.9v1.42h-.1a13.29,13.29,0,0,1-2.42-.2,7.76,7.76,0,0,1-1.7.2,2,2,0,0,1-1.83-.72h0a1.78,1.78,0,0,1-1.47.72h-.09c-.34,0-.5-.37-.5-.71s.16-.71.5-.71h.1a1.22,1.22,0,0,0,1.1-.43,5,5,0,0,0,.34-.85l.53-.39Zm1.84,1.63c1.17,0,2.29-.36,2.29-.6a1.14,1.14,0,0,0-1.15-.86,3,3,0,0,0-2.09,1.36A3.49,3.49,0,0,0,195.31,337.05Z"/><path class="cls-6" d="M202.71,336.08a5.92,5.92,0,0,0-1.81-.38,1,1,0,0,0-.59.13l-.33.75h-.14l-.47-.91a1.49,1.49,0,0,1,1.56-1.27,6.24,6.24,0,0,1,2,.49,4.73,4.73,0,0,0,1.76.33h.53v.06a8.81,8.81,0,0,1-.59,1,1.63,1.63,0,0,0-1.22.43,5.5,5.5,0,0,1-4.29,1.77H199c-.34,0-.5-.37-.5-.71s.16-.71.5-.71h.1a6,6,0,0,0,3.61-.94Zm-1.33-4.17a8.38,8.38,0,0,1,1,.83,2.62,2.62,0,0,1-.65.88,10.6,10.6,0,0,0-1-.79Z"/><path class="cls-6" d="M208.52,335.67a5.35,5.35,0,0,1-2.24,4.6L206,340a6.15,6.15,0,0,0,1.51-4.35,6.39,6.39,0,0,0-1.51-4.35l.26-.26a5.36,5.36,0,0,1,2.24,4.61Z"/><path class="cls-6" d="M265.39,419.39c-1.1,0-2.11-.38-2.11-1.55a3.85,3.85,0,0,1,.45-1.69,7.16,7.16,0,0,1,3.2-2.95l0-.58q.53-.53,1.08-1l.18.06c0,1.08.06,2.38.06,4,0,.92,0,1.62.33,1.95a1.56,1.56,0,0,0,1.25.38H270v2.19h-.15c-1.35,0-1.94-.25-2.41-1.23A5.7,5.7,0,0,1,265.39,419.39Zm.1-10.78a8.49,8.49,0,0,1,1.24,1.36,4.72,4.72,0,0,1-1.07,1.12c-.41-.45-.84-.88-1.28-1.31Zm1.61,6.29c-1.56.73-2.55,1.5-2.55,2s.52.52,1.12.52a4.86,4.86,0,0,0,1.47-.23C267.14,416.27,267.12,415.51,267.1,414.9Zm.7-6.38a8.5,8.5,0,0,1,1.24,1.35A4.72,4.72,0,0,1,268,411c-.42-.45-.84-.88-1.28-1.3Z"/><path class="cls-6" d="M270.11,418a6.51,6.51,0,0,0,1.39-.13,5.91,5.91,0,0,1-.18-1.44,3.85,3.85,0,0,1,1.26-2.88,2.55,2.55,0,0,1,1.65-.86,1.32,1.32,0,0,1,1.07.7,3.7,3.7,0,0,1,.65,2.21,5.25,5.25,0,0,1-.57,2.26A11.82,11.82,0,0,0,277,418h.15v2.19H277a9.24,9.24,0,0,1-3.8-.68,6.68,6.68,0,0,1-3.06.68H270c-.52,0-.76-.57-.76-1.09s.24-1.1.76-1.1Zm3.41-.5c1-.28,1.55-.82,1.55-1.18,0-.53-.54-1.57-1.28-1.57a2.19,2.19,0,0,0-1.73,1.45C272.18,416.81,272.7,417.24,273.52,417.53Zm-.09-8.34a11.81,11.81,0,0,1,1.57,1.28,3.76,3.76,0,0,1-1,1.35c-.45-.39-1-.8-1.58-1.22Z"/><path class="cls-6" d="M282.24,420.22h-.14a2.59,2.59,0,0,1-2.5-1.19h0a2.73,2.73,0,0,1-2.28,1.19h-.16c-.52,0-.76-.57-.76-1.09s.24-1.1.76-1.1h.16a2.62,2.62,0,0,0,1.49-.37c.6-.37.65-1.07.89-1.57a9,9,0,0,1,.88-.57l.07.06a4.23,4.23,0,0,0-.2,1,1.2,1.2,0,0,0,.53,1.13,2.26,2.26,0,0,0,1.17.31h.13Zm-4,2a9,9,0,0,1,1.25,1.35,4.92,4.92,0,0,1-1.07,1.12c-.42-.45-.84-.87-1.28-1.3Zm2.31-.1a9.09,9.09,0,0,1,1.25,1.36,5.34,5.34,0,0,1-1.07,1.11c-.42-.45-.85-.87-1.28-1.3Z"/><path class="cls-6" d="M287.93,417.61a4.9,4.9,0,0,0,2.39.42h.15v2.19h-.15a5.66,5.66,0,0,1-3.85-1.31,6.21,6.21,0,0,1-4.07,1.31h-.15c-.53,0-.77-.57-.77-1.09s.24-1.1.77-1.1h.47a6.65,6.65,0,0,0,2.36-.29v-.05c-.43-.37-.86-.78-1.35-1.26a.92.92,0,0,0-.71-.35h-.27l0,0,.62-1.78a23.6,23.6,0,0,1,3.52-.39,8.31,8.31,0,0,1,3.1.55c-.1.54-.21,1.09-.36,1.62-.57.54-1.14,1-1.67,1.52Zm.52-1.8a6,6,0,0,0-1.74-.25,8.33,8.33,0,0,0-1.82.18v.05a13.89,13.89,0,0,0,1.8,1.39,17.72,17.72,0,0,0,1.76-1.31Z"/><path class="cls-6" d="M294.85,418v2.19h-4.37c-.53,0-.77-.57-.77-1.09s.24-1.1.77-1.1Z"/><path class="cls-6" d="M299.23,418v2.19h-4.37c-.53,0-.77-.57-.77-1.09s.24-1.1.77-1.1Z"/><path class="cls-6" d="M307.65,413.72a2.4,2.4,0,0,1,2.35,2.64,3.86,3.86,0,0,1-.83,2.35c-.87,1-2.25,1.51-4.67,1.51-1.3,0-2.32-.27-2.81-1.1h-.06a2.75,2.75,0,0,1-2.25,1.1h-.15c-.52,0-.76-.57-.76-1.09s.24-1.1.76-1.1h.16a1.91,1.91,0,0,0,1.68-.65,7.76,7.76,0,0,0,.53-1.3c.26-.2.52-.41.82-.61l.08.06a4.61,4.61,0,0,0-.16,1,1.14,1.14,0,0,0,.61,1.1C304.35,415.3,306,413.72,307.65,413.72Zm-2.3,4.31a6,6,0,0,0,3.57-.94,1.66,1.66,0,0,0-1.59-1.46c-1.17,0-2.38.84-3.5,2.29A10.14,10.14,0,0,0,305.35,418Zm.37-8.1a11.07,11.07,0,0,1,1.57,1.28,3.81,3.81,0,0,1-1,1.34,19,19,0,0,0-1.58-1.21Z"/><path class="cls-6" d="M318.33,419.39c-1.09,0-2.11-.38-2.11-1.55a4,4,0,0,1,.45-1.69,7.18,7.18,0,0,1,3.21-2.95l0-.58c.35-.35.72-.69,1.09-1l.17.06c.06,1.08.07,2.38.07,4,0,.92,0,1.62.33,1.95a1.55,1.55,0,0,0,1.24.38h.16v2.19h-.16c-1.34,0-1.93-.25-2.4-1.23A5.75,5.75,0,0,1,318.33,419.39Zm.1-10.78a8.59,8.59,0,0,1,1.25,1.36,4.92,4.92,0,0,1-1.07,1.12c-.42-.45-.84-.88-1.28-1.31ZM320,414.9c-1.55.73-2.55,1.5-2.55,2s.53.52,1.13.52a4.84,4.84,0,0,0,1.46-.23C320.08,416.27,320.06,415.51,320,414.9Zm.7-6.38a8.59,8.59,0,0,1,1.25,1.35,5.15,5.15,0,0,1-1.07,1.12c-.42-.45-.85-.88-1.28-1.3Z"/><path class="cls-6" d="M325.44,416.28c1.22-1.3,2.58-2.37,4-2.37a2.6,2.6,0,0,1,2.28,1.13,2.84,2.84,0,0,1,.52,1.66,3,3,0,0,1-.34,1.33h1.31v2.19H333a28.57,28.57,0,0,1-3.9-.28,45.7,45.7,0,0,1-6.08.28h-.15c-.52,0-.77-.57-.77-1.09s.25-1.1.77-1.1h1l.51-.61a10.53,10.53,0,0,0,.13-1.73,38.18,38.18,0,0,0-.33-5.58c0-.83.36-1.2,1.08-1.82l.17.09a6.66,6.66,0,0,0,1.19,2.94l-.94.7c0,.73,0,1.46,0,2.38a5.44,5.44,0,0,1-.31,1.87Zm4.89,1.38c.35-.12.63-.25.63-.38a2.11,2.11,0,0,0-2.06-1.38c-1.16,0-2.44.85-3.72,2.13A21.74,21.74,0,0,0,330.33,417.66Z"/><path class="cls-6" d="M337.89,420.22h-.15a2.33,2.33,0,0,1-2.29-1.22h0a2.32,2.32,0,0,1-2.07,1.22h-.15c-.53,0-.77-.57-.77-1.09s.24-1.1.77-1.1h.24c1.12,0,1.61-.53,1.61-1.46,0-2-.12-4.42-.33-6.48A14.28,14.28,0,0,1,336,409l.14.07a47.41,47.41,0,0,1,.18,4.9c0,1.15,0,2.12,0,2.63,0,1,.28,1.48,1.43,1.48h.21Z"/><path class="cls-6" d="M346.87,414.69a12.52,12.52,0,0,1,.25,2.49,3.9,3.9,0,0,1-.65,1.91,2.11,2.11,0,0,1-1.59,1.1,2,2,0,0,1-1.54-.93h0a2.71,2.71,0,0,1-1.8,1,1.06,1.06,0,0,1-1.17-.86h0a3.09,3.09,0,0,1-2.26.86h-.15c-.53,0-.77-.57-.77-1.09s.24-1.1.77-1.1h.15a2.85,2.85,0,0,0,2.06-.59,8.46,8.46,0,0,0,.85-1.1,7.21,7.21,0,0,1,1-.42l.08.12a3.43,3.43,0,0,0-.68,1.47.48.48,0,0,0,.51.52,1.74,1.74,0,0,0,.74-.2c.7-.35.74-1,.92-1.67a7.69,7.69,0,0,1,.82-.51l.1.08a3.31,3.31,0,0,0-.18,1,1.2,1.2,0,0,0,.32.86,1.12,1.12,0,0,0,.81.36c.25,0,.46-.06.54-.21a14.61,14.61,0,0,0-.41-1.89c.38-.43.77-.85,1.2-1.28Z"/><path class="cls-6" d="M265.09,443.76c-1.1,0-2.11-.39-2.11-1.56a4,4,0,0,1,.44-1.68,7.25,7.25,0,0,1,3.21-3l0-.58c.35-.35.71-.69,1.08-1l.18,0c.05,1.08.06,2.39.06,4.05,0,.92,0,1.62.33,1.95a1.6,1.6,0,0,0,1.25.38h.15v2.19h-.15c-1.35,0-1.94-.26-2.41-1.24A5.76,5.76,0,0,1,265.09,443.76Zm.1-10.78a9,9,0,0,1,1.24,1.36,4.87,4.87,0,0,1-1.07,1.11c-.41-.45-.84-.87-1.28-1.3Zm1.6,6.29c-1.55.72-2.54,1.5-2.54,2s.52.51,1.12.51a4.57,4.57,0,0,0,1.47-.23C266.84,440.64,266.82,439.87,266.79,439.27Zm.7-6.39a8.59,8.59,0,0,1,1.25,1.36,4.87,4.87,0,0,1-1.07,1.11c-.42-.45-.84-.87-1.28-1.3Z"/><path class="cls-6" d="M274,442.4v2.19h-4.38c-.52,0-.76-.57-.76-1.1s.24-1.09.76-1.09Z"/><path class="cls-6" d="M278.41,442.4v2.19H274c-.52,0-.76-.57-.76-1.1s.24-1.09.76-1.09Z"/><path class="cls-6" d="M282.79,442.4v2.19h-4.38c-.53,0-.77-.57-.77-1.1s.24-1.09.77-1.09Z"/><path class="cls-6" d="M287.17,442.4v2.19h-4.38c-.53,0-.77-.57-.77-1.1s.24-1.09.77-1.09Z"/><path class="cls-6" d="M291.54,442.4v2.19h-4.37c-.53,0-.77-.57-.77-1.1s.24-1.09.77-1.09Z"/><path class="cls-6" d="M295.92,442.4v2.19h-4.37c-.53,0-.77-.57-.77-1.1s.24-1.09.77-1.09Z"/><path class="cls-6" d="M298.7,438.06a7,7,0,0,1,1.11,3.05,4.54,4.54,0,0,1-.45,2,2.34,2.34,0,0,1-1.07,1.11,5.39,5.39,0,0,1-2.21.38h-.16c-.52,0-.76-.57-.76-1.1s.24-1.09.76-1.09h.24c1.26,0,2.39-.25,2.39-.43a10.14,10.14,0,0,0-1.07-2.23,16.94,16.94,0,0,1,1.11-1.71Zm-1.78,8.42a9.09,9.09,0,0,1,1.25,1.36,5.15,5.15,0,0,1-1.08,1.11c-.41-.45-.84-.87-1.28-1.3Zm2.31-.1a9.09,9.09,0,0,1,1.25,1.36,4.93,4.93,0,0,1-1.08,1.11c-.41-.44-.84-.87-1.28-1.3Z"/><path class="cls-6" d="M308.72,442.4v2.19h-.82c-.46,2-1.84,4-3.55,4a6,6,0,0,1-3.22-1.21l.26-.58a3.37,3.37,0,0,0,1.33.3,4.65,4.65,0,0,0,2.74-1.12,4.23,4.23,0,0,0,1.26-1.38h-.3c-2.09,0-3.48-.67-3.48-2.64a3.27,3.27,0,0,1,.83-2.18,2.36,2.36,0,0,1,1.75-1c1.23,0,2,1.32,2.45,3.6ZM305,440.58a1.07,1.07,0,0,0-1.11.8c0,.64,1.12,1.05,2.55,1.05a2.9,2.9,0,0,0,.43,0C306.46,441.3,305.84,440.58,305,440.58Z"/><path class="cls-6" d="M309.31,442.4c2.36,0,3.92-.06,3.92-.7a.24.24,0,0,0,0-.15,11.47,11.47,0,0,1-1.19.05c-1.86,0-2.88-.66-2.88-2.09a3.18,3.18,0,0,1,.87-2.21,2.43,2.43,0,0,1,1.74-.93c1.49,0,2.48,2.68,2.48,5.2,0,2.84-1.77,3-5.34,3h-.15c-.53,0-.77-.57-.77-1.1s.24-1.09.77-1.09Zm.61-9.08a9,9,0,0,1,1.25,1.35,4.92,4.92,0,0,1-1.07,1.12c-.42-.45-.84-.87-1.28-1.3Zm1.32,4.77c-.75,0-1.19.4-1.19.73,0,.61,1.15,1,2.87,1.08C312.52,438.76,312,438.09,311.24,438.09Zm1-4.87a9.09,9.09,0,0,1,1.25,1.36,5.34,5.34,0,0,1-1.07,1.11c-.42-.45-.85-.87-1.28-1.3Z"/><path class="cls-6" d="M321.6,433.59a9.09,9.09,0,0,1,1.25,1.36,5.11,5.11,0,0,1-1.07,1.11c-.42-.44-.85-.87-1.28-1.3Zm.81,3.22.23-.15c.77.63,1.63,1.19,2.36,1.84a3.14,3.14,0,0,1,1.21,2.63,4.84,4.84,0,0,1-.54,2.3,3.28,3.28,0,0,1-2.6,1.32,2.52,2.52,0,0,1-2.51-2.75,5.86,5.86,0,0,1,1.69-3.91Zm-.82,4.46c0,.66.67,1.26,1.65,1.26a2.44,2.44,0,0,0,2-.92c-.08-.72-.83-1.48-2.26-2.29C322,440.17,321.59,440.8,321.59,441.27Zm2.32-7.78a9.09,9.09,0,0,1,1.25,1.36,5,5,0,0,1-1.08,1.12c-.41-.45-.84-.88-1.27-1.31Z"/><path class="cls-6" d="M328.86,441.16c0,1,.55,1.39,1.59,1.39a5.13,5.13,0,0,0,2.37-.61,5.4,5.4,0,0,0-2.89-3.11c-.37-.21-.6-.39-.6-.64a4.43,4.43,0,0,1,.7-1.69h.08a11.39,11.39,0,0,1,2.75,2.35,4.17,4.17,0,0,1,1,2.74,4.26,4.26,0,0,1-.55,2.06,4.87,4.87,0,0,1-3.06,1.08c-1.35,0-2.17-.73-2.17-2.37a9.53,9.53,0,0,1,.07-1.2Z"/><path class="cls-6" d="M335.73,444.72a18.54,18.54,0,0,0,.15-2.64,63.23,63.23,0,0,0-.38-7.11c.44-.52.86-1,1.27-1.39l.19.1c.22,2.36.25,4.57.25,6.7a8.52,8.52,0,0,1-.34,3.23,7,7,0,0,1-.9,1.28Z"/><path class="cls-6" d="M341.73,438.79a6.78,6.78,0,0,1,1.33,3.41c0,.52,0,.8,0,1a5.74,5.74,0,0,1-.7,2.9,3.09,3.09,0,0,1-2.48,1.85,6.27,6.27,0,0,1-3-1l.21-.58a4.11,4.11,0,0,0,1.09.14,4,4,0,0,0,2.66-1.33,3.81,3.81,0,0,0,1.2-1.85c0-.39-.41-1.16-1.46-2.73.3-.66.65-1.29,1-1.86Z"/><path class="cls-6" d="M346.71,446.78l-.29-.33a.46.46,0,0,0-.38-.16c-.43,0-.73.22-.73.39s.5.58,1.43.58c.41,0,.73,0,1.11,0l0,.1a6.2,6.2,0,0,1-.45.89,6.78,6.78,0,0,0-2.73.79l-.13-.14c.13-.28.27-.55.42-.82a.93.93,0,0,1-.66-.87,1.87,1.87,0,0,1,.7-1.24,2.09,2.09,0,0,1,1.35-.58c.47,0,.78.24.78.62a1.5,1.5,0,0,1-.32.81Zm-1.28-2.06a18.68,18.68,0,0,0,.14-2.64,65.65,65.65,0,0,0-.37-7.11c.44-.52.85-1,1.27-1.39l.19.1c.22,2.36.25,4.57.25,6.7a8.52,8.52,0,0,1-.34,3.23,7.51,7.51,0,0,1-.9,1.28Z"/><path class="cls-6" d="M275.05,470.75a5.35,5.35,0,0,1-2.23-4.61h0a5.35,5.35,0,0,1,2.23-4.6l.28.28a6.1,6.1,0,0,0-1.52,4.33,6.17,6.17,0,0,0,1.52,4.33Z"/><path class="cls-6" d="M280.86,464.68a7.44,7.44,0,0,1,.75,3.15,4.47,4.47,0,0,1-.44,1.75,3.31,3.31,0,0,1-2.56,1.32,2.19,2.19,0,0,1-2.26-2.37,4.79,4.79,0,0,1,.65-2.28l.4.2a3.22,3.22,0,0,0-.37,1.26,1.6,1.6,0,0,0,1.7,1.68,3,3,0,0,0,2-.8.46.46,0,0,0,.15-.36,5.77,5.77,0,0,0-.82-2.35,12.94,12.94,0,0,1,.75-1.21Zm-2.15-2.26a6.44,6.44,0,0,1,1.16.92,5.39,5.39,0,0,1-.72,1,12.53,12.53,0,0,0-1.16-.91Z"/><path class="cls-6" d="M286.89,467.53V469h-.53c-.3,1.29-1.2,2.6-2.31,2.6a3.9,3.9,0,0,1-2.1-.79l.17-.38a2.06,2.06,0,0,0,.87.2,3,3,0,0,0,1.78-.73,2.82,2.82,0,0,0,.83-.9h-.2c-1.37,0-2.27-.43-2.27-1.72a2.11,2.11,0,0,1,.54-1.41,1.52,1.52,0,0,1,1.14-.64c.8,0,1.31.86,1.6,2.35Zm-2.42-1.19a.7.7,0,0,0-.72.52c0,.42.73.69,1.66.69l.28,0C285.42,466.81,285,466.34,284.47,466.34Z"/><path class="cls-6" d="M290,469h-.1a1.5,1.5,0,0,1-1.49-.8h0a1.49,1.49,0,0,1-1.34.8h-.1c-.35,0-.5-.37-.5-.71s.15-.71.5-.71h.15c.73,0,1.05-.35,1.05-1,0-1.28-.08-2.88-.21-4.22a10.79,10.79,0,0,1,.8-.74l.09,0a28.73,28.73,0,0,1,.13,3.2c0,.74,0,1.38,0,1.71,0,.67.18,1,.93,1H290Z"/><path class="cls-6" d="M294.16,468.37c-.17.56-.43.87-.84.87a3,3,0,0,1-1.95-1.09h0a1.31,1.31,0,0,1-1.28.8H290c-.34,0-.5-.37-.5-.71s.16-.71.5-.71h.1c1,0,1.1-.4,1.34-1.13a2,2,0,0,1,.54-.92,1.22,1.22,0,0,1,.82-.37c.83,0,1.15.95,1.59,1.86a1,1,0,0,0,1,.56h.1V469h-.1a1.36,1.36,0,0,1-1.22-.58Zm-.63-.56a.14.14,0,0,0,.16-.15c0-.36-.5-1.37-1.12-1.37a.83.83,0,0,0-.71.47A2.21,2.21,0,0,0,293.53,467.81Z"/><path class="cls-6" d="M298.83,469h-.09a1.68,1.68,0,0,1-1.63-.78h0a1.79,1.79,0,0,1-1.49.78h-.1c-.34,0-.5-.37-.5-.71s.16-.71.5-.71h.1a1.66,1.66,0,0,0,1-.25c.39-.24.42-.7.58-1a6.32,6.32,0,0,1,.57-.37l0,0a2.62,2.62,0,0,0-.14.65.78.78,0,0,0,.35.74,1.45,1.45,0,0,0,.77.21h.08Zm-2.56-5.21a6,6,0,0,1,.82.88,3.44,3.44,0,0,1-.7.73c-.27-.3-.55-.57-.84-.85Zm1.51-.07a5.89,5.89,0,0,1,.81.88,3,3,0,0,1-.7.73c-.27-.29-.55-.57-.83-.85Z"/><path class="cls-6" d="M302.54,466.56a5.92,5.92,0,0,0-1.81-.38,1,1,0,0,0-.59.13l-.33.75h-.14l-.46-.91a1.48,1.48,0,0,1,1.55-1.27,5.92,5.92,0,0,1,2,.49,4.73,4.73,0,0,0,1.76.33H305v.06a8.81,8.81,0,0,1-.59,1,1.58,1.58,0,0,0-1.22.43,5.48,5.48,0,0,1-4.29,1.77h-.1c-.34,0-.49-.37-.49-.71s.15-.71.49-.71h.1a6.06,6.06,0,0,0,3.61-.94Zm1.35.36,0,0c.05.53.62.57,1.24.57h.1V469h-.1a2,2,0,0,1-1.3-.29,1.35,1.35,0,0,1-.38-1c0-.14,0-.27,0-.42Z"/><path class="cls-6" d="M306.53,468.11a1.19,1.19,0,0,1-1.18.84h-.09c-.33,0-.49-.34-.49-.71s.16-.71.5-.71h.1a1.12,1.12,0,0,0,.61-.19c.56-.35.43-1.35,1.13-2a1.35,1.35,0,0,1,.94-.43c1.19,0,1.59,1.82,1.59,2.61,0,.1-.26,1.36-1.21,1.36a3.24,3.24,0,0,1-1.88-.78Zm2.11-.58c.13,0,.22,0,.22-.07-.15-.8-.58-1.31-1.06-1.31a.93.93,0,0,0-.83.61A2.6,2.6,0,0,0,308.64,467.53Z"/><path class="cls-6" d="M317.12,467.3l-.59,1.07a8.12,8.12,0,0,0-1.45.25,4.21,4.21,0,0,0-1.13.52l-.12-.18a4,4,0,0,1,.45-.72,1,1,0,0,1-.64-.84,1.88,1.88,0,0,1,.65-1.29,2.31,2.31,0,0,1,1.44-.72.68.68,0,0,1,.77.7,1.3,1.3,0,0,1-.34.78H316a.61.61,0,0,0-.63-.5c-.33,0-.8.21-.8.44s.4.55,1.13.55a10.14,10.14,0,0,0,1.37-.12Z"/><path class="cls-6" d="M320.18,469h-.12c-1,0-1.67-.49-1.69-1.88,0-.81-.07-2.91-.26-4.66a10.07,10.07,0,0,1,.82-.79l.1.05a31.16,31.16,0,0,1,.13,3.19c0,.75,0,1.13,0,1.71s.29,1,.94,1h.1Z"/><path class="cls-6" d="M320.28,467.53a4.19,4.19,0,0,0,.91-.09,3.45,3.45,0,0,1-.12-.94,2.49,2.49,0,0,1,.82-1.87,1.63,1.63,0,0,1,1.08-.57.87.87,0,0,1,.69.46,2.39,2.39,0,0,1,.42,1.44,3.33,3.33,0,0,1-.37,1.47,8.08,8.08,0,0,0,1,.1h.1V469h-.1a6,6,0,0,1-2.47-.44,4.4,4.4,0,0,1-2,.44h-.1c-.34,0-.5-.37-.5-.71s.16-.71.5-.71Zm2.22-.33c.63-.19,1-.54,1-.77s-.36-1-.84-1a1.46,1.46,0,0,0-1.13.94C321.63,466.73,322,467,322.5,467.2Zm-.05-5.43a7.53,7.53,0,0,1,1,.83,2.62,2.62,0,0,1-.65.88,10.6,10.6,0,0,0-1-.79Z"/><path class="cls-6" d="M327.92,469h-.1a1.5,1.5,0,0,1-1.49-.8h0a1.5,1.5,0,0,1-1.35.8h-.1c-.34,0-.5-.37-.5-.71s.16-.71.5-.71H325c.72,0,1.05-.35,1.05-1,0-1.28-.08-2.88-.22-4.22a10.87,10.87,0,0,1,.81-.74l.09,0a31.33,31.33,0,0,1,.12,3.2c0,.74,0,1.38,0,1.71,0,.67.17,1,.92,1h.15Z"/><path class="cls-6" d="M331.62,466.56a5.87,5.87,0,0,0-1.81-.38,1,1,0,0,0-.59.13l-.33.75h-.14l-.46-.91a1.48,1.48,0,0,1,1.55-1.27,6,6,0,0,1,2,.49,4.69,4.69,0,0,0,1.76.33h.52l0,.06a8.81,8.81,0,0,1-.59,1,1.56,1.56,0,0,0-1.22.43A5.5,5.5,0,0,1,328,469h-.1c-.34,0-.5-.37-.5-.71s.16-.71.5-.71h.1a6,6,0,0,0,3.6-.94Z"/><path class="cls-6" d="M337.44,466.15a5.34,5.34,0,0,1-2.25,4.6l-.25-.26a6.17,6.17,0,0,0,1.51-4.35,6.44,6.44,0,0,0-1.51-4.35l.25-.26a5.34,5.34,0,0,1,2.25,4.61Z"/><path class="cls-6" d="M135.08,419.39c-1.09,0-2.11-.38-2.11-1.55a4,4,0,0,1,.45-1.69,7.18,7.18,0,0,1,3.21-2.95l0-.58c.35-.35.71-.69,1.09-1l.17.06c.06,1.08.07,2.38.07,4,0,.92,0,1.62.33,1.95a1.54,1.54,0,0,0,1.24.38h.16v2.19h-.16c-1.34,0-1.93-.25-2.4-1.23A5.75,5.75,0,0,1,135.08,419.39Zm.1-10.78a8.59,8.59,0,0,1,1.25,1.36,4.92,4.92,0,0,1-1.07,1.12c-.42-.45-.84-.88-1.28-1.31Zm1.61,6.29c-1.55.73-2.55,1.5-2.55,2s.53.52,1.13.52a4.84,4.84,0,0,0,1.46-.23C136.83,416.27,136.81,415.51,136.79,414.9Zm.7-6.38a8.59,8.59,0,0,1,1.25,1.35,5.15,5.15,0,0,1-1.07,1.12c-.42-.45-.85-.88-1.28-1.3Z"/><path class="cls-6" d="M139.8,418a6.38,6.38,0,0,0,1.39-.13,5.92,5.92,0,0,1-.17-1.44,3.85,3.85,0,0,1,1.26-2.88,2.52,2.52,0,0,1,1.65-.86,1.32,1.32,0,0,1,1.07.7,3.77,3.77,0,0,1,.65,2.21,5.39,5.39,0,0,1-.57,2.26,11.68,11.68,0,0,0,1.58.14h.16v2.19h-.16a9.19,9.19,0,0,1-3.79-.68,6.72,6.72,0,0,1-3.07.68h-.15c-.53,0-.77-.57-.77-1.09s.24-1.1.77-1.1Zm3.42-.5c1-.28,1.55-.82,1.55-1.18,0-.53-.55-1.57-1.28-1.57a2.22,2.22,0,0,0-1.74,1.45C141.87,416.81,142.4,417.24,143.22,417.53Zm-.09-8.34a11.7,11.7,0,0,1,1.56,1.28,3.86,3.86,0,0,1-1,1.35c-.45-.39-1-.8-1.59-1.22Z"/><path class="cls-6" d="M151.94,420.22h-.14a2.59,2.59,0,0,1-2.51-1.19h0a2.75,2.75,0,0,1-2.29,1.19h-.15c-.53,0-.77-.57-.77-1.09s.24-1.1.77-1.1H147a2.57,2.57,0,0,0,1.49-.37c.6-.37.66-1.07.9-1.57a8.78,8.78,0,0,1,.87-.57l.08.06a4.38,4.38,0,0,0-.21,1,1.19,1.19,0,0,0,.54,1.13,2.26,2.26,0,0,0,1.17.31h.13Zm-4,2a9.56,9.56,0,0,1,1.25,1.35,5,5,0,0,1-1.08,1.12c-.41-.45-.84-.87-1.28-1.3Zm2.31-.1a8.49,8.49,0,0,1,1.24,1.36,4.87,4.87,0,0,1-1.07,1.11c-.41-.45-.84-.87-1.28-1.3Z"/><path class="cls-6" d="M157.62,417.61a4.92,4.92,0,0,0,2.4.42h.15v2.19H160a5.66,5.66,0,0,1-3.85-1.31,6.23,6.23,0,0,1-4.07,1.31h-.16c-.52,0-.76-.57-.76-1.09s.24-1.1.76-1.1h.47a6.68,6.68,0,0,0,2.37-.29v-.05c-.43-.37-.87-.78-1.35-1.26a.94.94,0,0,0-.71-.35h-.27l0,0,.63-1.78a23.26,23.26,0,0,1,3.52-.39,8.31,8.31,0,0,1,3.1.55,15.17,15.17,0,0,1-.37,1.62c-.56.54-1.13,1-1.67,1.52Zm.53-1.8a6.13,6.13,0,0,0-1.74-.25,8.2,8.2,0,0,0-1.82.18v.05a13.18,13.18,0,0,0,1.79,1.39,19,19,0,0,0,1.77-1.31Z"/><path class="cls-6" d="M164.55,418v2.19h-4.38c-.52,0-.76-.57-.76-1.09s.24-1.1.76-1.1Z"/><path class="cls-6" d="M168.93,418v2.19h-4.38c-.52,0-.76-.57-.76-1.09s.24-1.1.76-1.1Z"/><path class="cls-6" d="M177.34,413.72a2.41,2.41,0,0,1,2.36,2.64,3.8,3.8,0,0,1-.84,2.35c-.86,1-2.25,1.51-4.67,1.51-1.3,0-2.32-.27-2.81-1.1h0a2.75,2.75,0,0,1-2.26,1.1h-.14c-.52,0-.77-.57-.77-1.09s.25-1.1.77-1.1h.15a1.94,1.94,0,0,0,1.69-.65,7,7,0,0,0,.52-1.3c.27-.2.53-.41.82-.61l.08.06a4.48,4.48,0,0,0-.15,1,1.14,1.14,0,0,0,.61,1.1C174.05,415.3,175.74,413.72,177.34,413.72ZM175.05,418a6,6,0,0,0,3.56-.94,1.65,1.65,0,0,0-1.58-1.46c-1.17,0-2.39.84-3.5,2.29A10,10,0,0,0,175.05,418Zm.37-8.1a11,11,0,0,1,1.56,1.28,3.91,3.91,0,0,1-1,1.34,19.29,19.29,0,0,0-1.59-1.21Z"/><path class="cls-6" d="M188,419.39c-1.09,0-2.11-.38-2.11-1.55a3.85,3.85,0,0,1,.45-1.69,7.16,7.16,0,0,1,3.2-2.95l0-.58q.53-.53,1.08-1l.18.06c0,1.08.06,2.38.06,4,0,.92,0,1.62.33,1.95a1.56,1.56,0,0,0,1.25.38h.15v2.19h-.15c-1.35,0-1.94-.25-2.41-1.23A5.7,5.7,0,0,1,188,419.39Zm.1-10.78a9.09,9.09,0,0,1,1.25,1.36,5,5,0,0,1-1.08,1.12c-.41-.45-.84-.88-1.28-1.31Zm1.61,6.29c-1.56.73-2.55,1.5-2.55,2s.52.52,1.12.52a4.86,4.86,0,0,0,1.47-.23C189.78,416.27,189.76,415.51,189.74,414.9Zm.7-6.38a8,8,0,0,1,1.24,1.35,4.72,4.72,0,0,1-1.07,1.12c-.41-.45-.84-.88-1.28-1.3Z"/><path class="cls-6" d="M195.13,416.28c1.23-1.3,2.59-2.37,4-2.37a2.59,2.59,0,0,1,2.27,1.13,2.85,2.85,0,0,1,.53,1.66,3.19,3.19,0,0,1-.34,1.33h1.31v2.19h-.15a28.6,28.6,0,0,1-3.91-.28,45.55,45.55,0,0,1-6.07.28h-.15c-.53,0-.77-.57-.77-1.09s.24-1.1.77-1.1h1l.5-.61a9.53,9.53,0,0,0,.13-1.73,39.35,39.35,0,0,0-.32-5.58c0-.83.36-1.2,1.08-1.82l.16.09a6.7,6.7,0,0,0,1.2,2.94l-.95.7c0,.73,0,1.46,0,2.38a5.19,5.19,0,0,1-.32,1.87Zm4.89,1.38c.35-.12.64-.25.64-.38a2.11,2.11,0,0,0-2.07-1.38c-1.16,0-2.44.85-3.72,2.13A21.69,21.69,0,0,0,200,417.66Z"/><path class="cls-6" d="M207.59,420.22h-.15a2.31,2.31,0,0,1-2.29-1.22h0a2.33,2.33,0,0,1-2.07,1.22h-.16c-.52,0-.76-.57-.76-1.09s.24-1.1.76-1.1h.25c1.11,0,1.6-.53,1.6-1.46,0-2-.12-4.42-.32-6.48a14.2,14.2,0,0,1,1.23-1.14l.14.07a44.79,44.79,0,0,1,.19,4.9c0,1.15,0,2.12,0,2.63,0,1,.27,1.48,1.42,1.48h.22Z"/><path class="cls-6" d="M216.56,414.69a12.52,12.52,0,0,1,.25,2.49,3.88,3.88,0,0,1-.64,1.91,2.13,2.13,0,0,1-1.6,1.1,1.92,1.92,0,0,1-1.53-.93h0a2.7,2.7,0,0,1-1.81,1,1.06,1.06,0,0,1-1.17-.86h0a3.13,3.13,0,0,1-2.27.86h-.15c-.52,0-.76-.57-.76-1.09s.24-1.1.76-1.1h.15a2.83,2.83,0,0,0,2.06-.59,7.67,7.67,0,0,0,.85-1.1,6.81,6.81,0,0,1,1-.42l.08.12a3.43,3.43,0,0,0-.68,1.47.48.48,0,0,0,.5.52,1.74,1.74,0,0,0,.74-.2c.7-.35.75-1,.92-1.67a8.84,8.84,0,0,1,.82-.51l.1.08a3.29,3.29,0,0,0-.17,1,1.2,1.2,0,0,0,.32.86,1.1,1.1,0,0,0,.8.36c.26,0,.46-.06.54-.21a16.53,16.53,0,0,0-.4-1.89c.38-.43.76-.85,1.2-1.28Z"/><path class="cls-6" d="M134.87,443.76c-1.09,0-2.11-.39-2.11-1.56a3.85,3.85,0,0,1,.45-1.68,7.17,7.17,0,0,1,3.2-3l0-.58c.35-.35.71-.69,1.08-1l.18,0c.05,1.08.07,2.39.07,4.05,0,.92,0,1.62.32,1.95a1.61,1.61,0,0,0,1.25.38h.15v2.19h-.15c-1.34,0-1.94-.26-2.41-1.24A5.67,5.67,0,0,1,134.87,443.76ZM135,433a9.09,9.09,0,0,1,1.25,1.36,5.34,5.34,0,0,1-1.07,1.11c-.42-.45-.85-.87-1.29-1.3Zm1.61,6.29c-1.56.72-2.55,1.5-2.55,2s.52.51,1.13.51a4.55,4.55,0,0,0,1.46-.23C136.62,440.64,136.6,439.87,136.58,439.27Zm.7-6.39a9.09,9.09,0,0,1,1.25,1.36,5.15,5.15,0,0,1-1.08,1.11c-.41-.45-.84-.87-1.28-1.3Z"/><path class="cls-6" d="M139.59,442.4a6.44,6.44,0,0,0,1.39-.13,6,6,0,0,1-.17-1.45,3.85,3.85,0,0,1,1.25-2.87,2.54,2.54,0,0,1,1.66-.87,1.37,1.37,0,0,1,1.07.7,3.78,3.78,0,0,1,.64,2.21,5.29,5.29,0,0,1-.57,2.27,13.72,13.72,0,0,0,1.59.14h.15v2.19h-.15a9.43,9.43,0,0,1-3.8-.68,6.81,6.81,0,0,1-3.06.68h-.15c-.53,0-.77-.57-.77-1.1s.24-1.09.77-1.09Zm3.41-.5c1-.29,1.56-.82,1.56-1.19s-.55-1.56-1.28-1.56a2.21,2.21,0,0,0-1.74,1.44C141.66,441.17,142.18,441.6,143,441.9Zm-.08-8.34a11,11,0,0,1,1.56,1.28,3.82,3.82,0,0,1-1,1.34c-.45-.39-1-.79-1.59-1.21Z"/><path class="cls-6" d="M151.73,444.59h-.15a2.58,2.58,0,0,1-2.5-1.2h0a2.76,2.76,0,0,1-2.29,1.2h-.15c-.53,0-.77-.57-.77-1.1s.24-1.09.77-1.09h.15a2.6,2.6,0,0,0,1.49-.37c.6-.37.65-1.07.9-1.58.25-.17.53-.37.87-.57l.08.07a4.38,4.38,0,0,0-.21,1,1.17,1.17,0,0,0,.54,1.12,2.15,2.15,0,0,0,1.17.32h.13Zm-4,2A9,9,0,0,1,149,448a4.72,4.72,0,0,1-1.07,1.12c-.41-.45-.84-.88-1.28-1.31Zm2.3-.1a8.59,8.59,0,0,1,1.25,1.36,4.72,4.72,0,0,1-1.07,1.12c-.42-.45-.84-.88-1.28-1.3Z"/><path class="cls-6" d="M157.41,442a4.9,4.9,0,0,0,2.39.43H160v2.19h-.16a5.71,5.71,0,0,1-3.85-1.32,6.21,6.21,0,0,1-4.07,1.32h-.15c-.52,0-.77-.57-.77-1.1s.25-1.09.77-1.09h.47a6.57,6.57,0,0,0,2.36-.3v0c-.42-.37-.86-.79-1.34-1.27a1,1,0,0,0-.71-.35h-.28l0,0,.62-1.79a25,25,0,0,1,3.53-.39,8.29,8.29,0,0,1,3.09.56,16.28,16.28,0,0,1-.36,1.62c-.57.53-1.14,1-1.67,1.52Zm.52-1.79a5.7,5.7,0,0,0-1.74-.25,8.23,8.23,0,0,0-1.81.17v.06a15,15,0,0,0,1.79,1.39,17.91,17.91,0,0,0,1.76-1.32Z"/><path class="cls-6" d="M164.34,442.4v2.19H160c-.52,0-.76-.57-.76-1.1s.24-1.09.76-1.09Z"/><path class="cls-6" d="M168.72,442.4v2.19h-4.38c-.53,0-.77-.57-.77-1.1s.24-1.09.77-1.09Z"/><path class="cls-6" d="M173.09,442.4v2.19h-4.37c-.53,0-.77-.57-.77-1.1s.24-1.09.77-1.09Z"/><path class="cls-6" d="M181.51,438.09a2.4,2.4,0,0,1,2.35,2.63,3.89,3.89,0,0,1-.83,2.36c-.86,1-2.25,1.51-4.67,1.51-1.3,0-2.32-.28-2.81-1.11h-.06a2.76,2.76,0,0,1-2.25,1.11h-.14c-.53,0-.77-.57-.77-1.1s.24-1.09.77-1.09h.15a1.88,1.88,0,0,0,1.68-.66,6.47,6.47,0,0,0,.53-1.3c.26-.2.52-.4.82-.6l.08.05a4.78,4.78,0,0,0-.16,1,1.11,1.11,0,0,0,.62,1.09C178.22,439.66,179.9,438.09,181.51,438.09Zm-2.3,4.31a6.12,6.12,0,0,0,3.57-.94,1.67,1.67,0,0,0-1.59-1.47c-1.17,0-2.38.84-3.5,2.3A10.24,10.24,0,0,0,179.21,442.4Zm.37-8.11a11.81,11.81,0,0,1,1.57,1.28,3.76,3.76,0,0,1-1,1.35,17.48,17.48,0,0,0-1.58-1.22Z"/><path class="cls-6" d="M191.21,433.59a9.09,9.09,0,0,1,1.25,1.36,5.11,5.11,0,0,1-1.07,1.11c-.42-.44-.85-.87-1.28-1.3Zm.81,3.22.23-.15c.77.63,1.63,1.19,2.36,1.84a3.14,3.14,0,0,1,1.21,2.63,4.84,4.84,0,0,1-.54,2.3,3.28,3.28,0,0,1-2.6,1.32,2.52,2.52,0,0,1-2.51-2.75,5.86,5.86,0,0,1,1.69-3.91Zm-.82,4.46c0,.66.67,1.26,1.65,1.26a2.44,2.44,0,0,0,2-.92c-.09-.72-.83-1.48-2.26-2.29C191.6,440.17,191.2,440.8,191.2,441.27Zm2.32-7.78a9.09,9.09,0,0,1,1.25,1.36,5,5,0,0,1-1.08,1.12c-.41-.45-.84-.88-1.28-1.31Z"/><path class="cls-6" d="M198.47,441.16c0,1,.55,1.39,1.58,1.39a5.14,5.14,0,0,0,2.38-.61,5.4,5.4,0,0,0-2.89-3.11c-.37-.21-.6-.39-.6-.64a4.43,4.43,0,0,1,.7-1.69h.08a11.39,11.39,0,0,1,2.75,2.35,4.17,4.17,0,0,1,1,2.74,4.26,4.26,0,0,1-.55,2.06,4.87,4.87,0,0,1-3.06,1.08c-1.35,0-2.17-.73-2.17-2.37a9.53,9.53,0,0,1,.07-1.2Z"/><path class="cls-6" d="M205.34,444.72a18.68,18.68,0,0,0,.14-2.64,63.2,63.2,0,0,0-.37-7.11c.44-.52.86-1,1.27-1.39l.19.1c.22,2.36.25,4.57.25,6.7a8.52,8.52,0,0,1-.34,3.23,7,7,0,0,1-.9,1.28Z"/><path class="cls-6" d="M211.34,438.79a6.78,6.78,0,0,1,1.33,3.41c0,.52,0,.8,0,1a5.74,5.74,0,0,1-.7,2.9,3.09,3.09,0,0,1-2.48,1.85,6.21,6.21,0,0,1-3-1l.21-.58a3.53,3.53,0,0,0,3.75-1.19,3.81,3.81,0,0,0,1.2-1.85c0-.39-.41-1.16-1.46-2.73.3-.66.65-1.29,1-1.86Z"/><path class="cls-6" d="M216.32,446.78l-.29-.33a.46.46,0,0,0-.38-.16c-.43,0-.73.22-.73.39s.5.58,1.43.58c.41,0,.73,0,1.11,0l0,.1a6.2,6.2,0,0,1-.45.89,6.78,6.78,0,0,0-2.73.79l-.13-.14c.13-.28.27-.55.42-.82a.93.93,0,0,1-.66-.87,1.87,1.87,0,0,1,.7-1.24,2.09,2.09,0,0,1,1.35-.58c.47,0,.78.24.78.62a1.5,1.5,0,0,1-.32.81ZM215,444.72a18.68,18.68,0,0,0,.14-2.64,65.65,65.65,0,0,0-.37-7.11c.44-.52.85-1,1.27-1.39l.19.1c.21,2.36.25,4.57.25,6.7a8.52,8.52,0,0,1-.34,3.23,7.51,7.51,0,0,1-.9,1.28Z"/><path class="cls-6" d="M143.35,470.75a5.34,5.34,0,0,1-2.22-4.61h0a5.34,5.34,0,0,1,2.22-4.6l.28.28a6.1,6.1,0,0,0-1.52,4.33,6.17,6.17,0,0,0,1.52,4.33Z"/><path class="cls-6" d="M149.16,464.68a7.3,7.3,0,0,1,.75,3.15,4.62,4.62,0,0,1-.43,1.75,3.31,3.31,0,0,1-2.57,1.32,2.19,2.19,0,0,1-2.25-2.37,4.79,4.79,0,0,1,.65-2.28l.39.2a3.18,3.18,0,0,0-.36,1.26,1.59,1.59,0,0,0,1.69,1.68,3,3,0,0,0,2-.8.49.49,0,0,0,.14-.36,5.77,5.77,0,0,0-.82-2.35c.22-.4.47-.78.76-1.21ZM147,462.42a6.44,6.44,0,0,1,1.16.92,5,5,0,0,1-.72,1,12.53,12.53,0,0,0-1.16-.91Z"/><path class="cls-6" d="M155.2,467.53V469h-.54c-.3,1.29-1.2,2.6-2.31,2.6a3.85,3.85,0,0,1-2.09-.79l.16-.38a2.1,2.1,0,0,0,.87.2,3,3,0,0,0,1.78-.73,2.82,2.82,0,0,0,.83-.9h-.2c-1.36,0-2.27-.43-2.27-1.72a2.07,2.07,0,0,1,.55-1.41,1.5,1.5,0,0,1,1.14-.64c.79,0,1.31.86,1.59,2.35Zm-2.43-1.19a.7.7,0,0,0-.72.52c0,.42.73.69,1.66.69l.28,0C153.73,466.81,153.32,466.34,152.77,466.34Z"/><path class="cls-6" d="M158.26,469h-.1a1.49,1.49,0,0,1-1.48-.8h0a1.5,1.5,0,0,1-1.35.8h-.1c-.34,0-.5-.37-.5-.71s.16-.71.5-.71h.16c.72,0,1-.35,1-1,0-1.28-.07-2.88-.21-4.22a10.87,10.87,0,0,1,.81-.74l.09,0a31.33,31.33,0,0,1,.12,3.2c0,.74,0,1.38,0,1.71,0,.67.17,1,.92,1h.14Z"/><path class="cls-6" d="M162.46,468.37c-.17.56-.43.87-.84.87a3.05,3.05,0,0,1-2-1.09h0a1.29,1.29,0,0,1-1.27.8h-.1c-.35,0-.5-.37-.5-.71s.15-.71.5-.71h.1c1,0,1.09-.4,1.33-1.13a2.12,2.12,0,0,1,.54-.92,1.22,1.22,0,0,1,.82-.37c.83,0,1.15.95,1.59,1.86a1.05,1.05,0,0,0,1,.56h.1V469h-.1a1.34,1.34,0,0,1-1.22-.58Zm-.63-.56c.11,0,.16-.05.16-.15,0-.36-.49-1.37-1.11-1.37a.84.84,0,0,0-.72.47A2.25,2.25,0,0,0,161.83,467.81Z"/><path class="cls-6" d="M167.14,469H167a1.69,1.69,0,0,1-1.63-.78h0a1.78,1.78,0,0,1-1.49.78h-.1c-.34,0-.5-.37-.5-.71s.16-.71.5-.71h.1a1.64,1.64,0,0,0,1-.25c.39-.24.43-.7.58-1,.17-.12.35-.24.57-.37l0,0a3,3,0,0,0-.13.65.78.78,0,0,0,.35.74,1.39,1.39,0,0,0,.76.21h.09Zm-2.56-5.21a5.4,5.4,0,0,1,.81.88,3.21,3.21,0,0,1-.7.73c-.27-.3-.55-.57-.83-.85Zm1.5-.07a5.4,5.4,0,0,1,.81.88,3,3,0,0,1-.69.73c-.28-.29-.55-.57-.84-.85Z"/><path class="cls-6" d="M170.84,466.56a5.87,5.87,0,0,0-1.81-.38,1,1,0,0,0-.59.13l-.33.75H168l-.46-.91a1.48,1.48,0,0,1,1.55-1.27,6,6,0,0,1,2,.49,4.73,4.73,0,0,0,1.76.33h.52l0,.06a8.81,8.81,0,0,1-.59,1,1.6,1.6,0,0,0-1.23.43,5.47,5.47,0,0,1-4.28,1.77h-.1c-.34,0-.5-.37-.5-.71s.16-.71.5-.71h.1a6,6,0,0,0,3.6-.94Zm1.35.36,0,0c.05.53.62.57,1.24.57h.1V469h-.1a2,2,0,0,1-1.31-.29,1.35,1.35,0,0,1-.38-1,3,3,0,0,1,0-.42Z"/><path class="cls-6" d="M174.83,468.11a1.19,1.19,0,0,1-1.17.84h-.1c-.32,0-.49-.34-.49-.71s.16-.71.5-.71h.1a1.1,1.1,0,0,0,.61-.19c.56-.35.43-1.35,1.13-2a1.37,1.37,0,0,1,.94-.43c1.19,0,1.59,1.82,1.59,2.61,0,.1-.26,1.36-1.2,1.36a3.26,3.26,0,0,1-1.89-.78Zm2.11-.58c.14,0,.22,0,.22-.07-.15-.8-.57-1.31-1-1.31a.94.94,0,0,0-.84.61A2.62,2.62,0,0,0,176.94,467.53Z"/><path class="cls-6" d="M182.51,466.24c.33-.94.74-1.56,1.49-1.56a2,2,0,0,1,1.65,1.19,2.81,2.81,0,0,1,.45,1.33,2.77,2.77,0,0,1-.44,1.2,16.29,16.29,0,0,0-2.08-.18,1.29,1.29,0,0,0-.91.29c.11,1.21.92,3.33.92,3.89a5.51,5.51,0,0,1-.24,1.33h-.16c-.21-1.46-1.25-3.59-1.25-4.7a3.07,3.07,0,0,1,.17-.93,2.92,2.92,0,0,1,.53-.91Zm.65.64a2.06,2.06,0,0,1,.68-.11,7.36,7.36,0,0,1,1.22.13l0,0a1.88,1.88,0,0,0-1.42-.93.84.84,0,0,0-.37.07v.1a3.29,3.29,0,0,1,0,.49l-.12.28Z"/><path class="cls-6" d="M191.35,467.53V469h-.54c-.3,1.29-1.19,2.6-2.31,2.6a3.85,3.85,0,0,1-2.09-.79l.16-.38a2.1,2.1,0,0,0,.87.2,3,3,0,0,0,1.78-.73,2.61,2.61,0,0,0,.83-.9h-.2c-1.36,0-2.27-.43-2.27-1.72a2.07,2.07,0,0,1,.55-1.41,1.5,1.5,0,0,1,1.14-.64c.79,0,1.31.86,1.59,2.35Zm-2.43-1.19a.7.7,0,0,0-.72.52c0,.42.73.69,1.67.69l.27,0C189.88,466.81,189.47,466.34,188.92,466.34Z"/><path class="cls-6" d="M193.47,465.89a3.37,3.37,0,0,0-.09.65.72.72,0,0,0,.38.71c1-1.51,2-2.42,3-2.42a1.58,1.58,0,0,1,1.58,1.59,2.66,2.66,0,0,1-.26,1.11h.9V469h-.1a13.29,13.29,0,0,1-2.42-.2,7.76,7.76,0,0,1-1.7.2,2,2,0,0,1-1.83-.72h0a1.78,1.78,0,0,1-1.47.72h-.09c-.34,0-.5-.37-.5-.71s.16-.71.5-.71h.1a1.25,1.25,0,0,0,1.1-.43,5,5,0,0,0,.34-.85l.53-.39Zm1.84,1.64c1.17,0,2.29-.36,2.29-.6a1.14,1.14,0,0,0-1.15-.86,2.93,2.93,0,0,0-2.09,1.36A3.49,3.49,0,0,0,195.31,467.53Z"/><path class="cls-6" d="M202.71,466.56a5.92,5.92,0,0,0-1.81-.38,1,1,0,0,0-.59.13l-.33.75h-.14l-.47-.91a1.49,1.49,0,0,1,1.56-1.27,6,6,0,0,1,2,.49,4.73,4.73,0,0,0,1.76.33h.53v.06a8.81,8.81,0,0,1-.59,1,1.59,1.59,0,0,0-1.22.43A5.5,5.5,0,0,1,199.1,469H199c-.34,0-.5-.37-.5-.71s.16-.71.5-.71h.1a6.06,6.06,0,0,0,3.61-.94Zm-1.33-4.17a7.53,7.53,0,0,1,1,.83,2.62,2.62,0,0,1-.65.88,10.6,10.6,0,0,0-1-.79Z"/><path class="cls-6" d="M208.52,466.15a5.35,5.35,0,0,1-2.24,4.6l-.26-.26a6.17,6.17,0,0,0,1.51-4.35,6.39,6.39,0,0,0-1.51-4.35l.26-.26a5.36,5.36,0,0,1,2.24,4.61Z"/></svg>