<svg id="Layer_1" data-name="Layer 1" xmlns="http://www.w3.org/2000/svg" viewBox="0 0 480 638"><defs><style>.cls-1{fill:#006080;}.cls-2{fill:#7b9db1;}.cls-2,.cls-7,.cls-8{opacity:0.4;}.cls-3,.cls-4,.cls-5,.cls-6{fill:none;stroke:#000;stroke-miterlimit:10;}.cls-3{stroke-width:0.5px;}.cls-5{stroke-dasharray:3.35 3.35 3.35 3.35;}.cls-6{stroke-dasharray:3.35 3.35 3.35 3.35 3.35 3.35;}.cls-7{fill:#968398;}.cls-8{fill:#c6b8a8;}</style></defs><path class="cls-1" d="M129.44,58.76h-5.1l.3-1.23h5.12Z"/><path class="cls-1" d="M151.72,61.09V63h-.85a8.5,8.5,0,0,1,.06,1,5.22,5.22,0,0,1-.66,1.83,11,11,0,0,1-6.82,2.73,5.21,5.21,0,0,1-4-1.58,6,6,0,0,1-1.28-4.09,10.6,10.6,0,0,1,1.38-4.84l.56.25a9.92,9.92,0,0,0-.9,3.68,4.57,4.57,0,0,0,1.17,3.19,4.84,4.84,0,0,0,3.55,1.38,10.71,10.71,0,0,0,4.67-1.26,3.37,3.37,0,0,0,1.32-1c-.34-.7-1.93-1.33-4.26-1.33l-.12-.19,1-1.69ZM142.8,72.9c-.6-.57-1.13-1-1.71-1.52a13.7,13.7,0,0,1,1.15-1.4,13.55,13.55,0,0,1,1.67,1.57A7.62,7.62,0,0,1,142.8,72.9Zm2.83-.19c-.6-.57-1.13-1-1.72-1.52a15.14,15.14,0,0,1,1.16-1.4,14.3,14.3,0,0,1,1.67,1.57A7.62,7.62,0,0,1,145.63,72.71Z"/><path class="cls-1" d="M152.65,61.09a8,8,0,0,0,2.16-.31v-.07a3.37,3.37,0,0,1-1.71-2.87,3.73,3.73,0,0,1,.63-1.92,3.62,3.62,0,0,1,3-2A3.75,3.75,0,0,1,160,56.35l-.28.29a3.7,3.7,0,0,0-2.62-.94c-1.55,0-2.68.72-2.68,1.23A2.75,2.75,0,0,0,155.69,59a3.69,3.69,0,0,0,1.77.79,14.51,14.51,0,0,0,4.19-1l.08.08L161,60.65c-2.3.82-3.41.94-5.2,1.53a11.76,11.76,0,0,1-3.57.79h-.46a.94.94,0,0,1-1-1,.91.91,0,0,1,1-.9Z"/><path class="cls-1" d="M168.8,60.76a4.88,4.88,0,0,0,1.69-2.33,12.94,12.94,0,0,1,1.33-2.24H172a40.41,40.41,0,0,0,2.78,3.32,4.19,4.19,0,0,0,3.05,1.58H178V63h-.17a3.62,3.62,0,0,1-3-1.53l0,0v.23c0,2-1,3-1.83,3-1.42,0-2.77-1.43-3.09-3.15h-.08A2.85,2.85,0,0,1,167.29,63a3,3,0,0,1-2.19-.85c-.9-.91-1-1.94-1-4.09,0-2.78-.16-5.7-.38-8.8a13.55,13.55,0,0,1,1.38-1.37l.1.06c.23,3.21.23,7,.23,10.61v.83a1.53,1.53,0,0,0,1.1,1.57,3,3,0,0,0,.94.16A3,3,0,0,0,168.8,60.76Zm2.71-2.58a4.4,4.4,0,0,0-.72,2,2.62,2.62,0,0,0,2.29,2.61,1,1,0,0,0,.79-1.07,1.94,1.94,0,0,0-.5-1.28c-.54-.76-1.17-1.46-1.78-2.25Z"/><path class="cls-1" d="M178.87,61.09c2.37,0,4.8-.83,7.82-2.65v-.06a13.74,13.74,0,0,0-4.6-1,2.35,2.35,0,0,0-1.86.73l.18.73L180,60.14h-.15l-.72-1.93a2.91,2.91,0,0,1,3.18-2.64,14.22,14.22,0,0,1,4.81,1.27,7.09,7.09,0,0,0,2.5.47h1.19l0,0-.77,1.54a4.55,4.55,0,0,0-2.54.54L185.08,61a11.43,11.43,0,0,1-6.35,2H178a.94.94,0,0,1-1-1,.91.91,0,0,1,1-.9Zm4.46,4.06a13.32,13.32,0,0,1,1.76,1.57,6.05,6.05,0,0,1-1.21,1.43c-.58-.54-1.15-1-1.73-1.51C182.54,66.12,182.94,65.6,183.33,65.15Z"/><path class="cls-1" d="M208.28,48.51c.12,3.62.2,6.8.2,10.3a2.62,2.62,0,0,0,.74,1.87,2.34,2.34,0,0,0,1.43.41h.16V63h-.27a2.46,2.46,0,0,1-2.3-1.1h-.06a9.64,9.64,0,0,1-.52,2.18A5.21,5.21,0,0,1,206,65.71a5.61,5.61,0,0,1-3,.9,3.86,3.86,0,0,1-3-1.26,4.86,4.86,0,0,1-1-3.31,8.62,8.62,0,0,1,1-3.69l.52.21a6.52,6.52,0,0,0-.61,2.55,3.53,3.53,0,0,0,.75,2.27A3,3,0,0,0,203,64.56a5.11,5.11,0,0,0,2.54-.68,3.89,3.89,0,0,0,1.59-1.4,3.26,3.26,0,0,0,.1-1c0-2.29-.11-6.08-.44-11.79a10.15,10.15,0,0,1,1.35-1.29Z"/><path class="cls-1" d="M211.24,61.09c1.54,0,2-.76,2.47-2.15.58-1.83,1.73-2.78,2.71-2.78a2,2,0,0,1,1.76,1,17.31,17.31,0,0,1,1.47,2.75,2.35,2.35,0,0,0,2.28,1.2h.25V63h-.28a2.47,2.47,0,0,1-2.25-1.28h-.06a2.41,2.41,0,0,1-.47,1.12,1.35,1.35,0,0,1-1,.48,6.5,6.5,0,0,1-4.14-2H214A3,3,0,0,1,211,63h-.22a.94.94,0,0,1-1-1,.91.91,0,0,1,1-.9Zm4.94-.25a4.69,4.69,0,0,0,2,.65c.28,0,.54,0,.54-.37a4.2,4.2,0,0,0-.73-1.95,2.48,2.48,0,0,0-1.88-1.32,1.81,1.81,0,0,0-1.68,1.32C214.59,59.72,215.53,60.48,216.18,60.84Z"/><path class="cls-1" d="M223.1,61.09a8,8,0,0,0,2.17-.31v-.07a3.37,3.37,0,0,1-1.71-2.87,3.73,3.73,0,0,1,.63-1.92,3.62,3.62,0,0,1,3-2,3.75,3.75,0,0,1,3.25,2.39l-.28.29a3.7,3.7,0,0,0-2.62-.94c-1.55,0-2.68.72-2.68,1.23A2.75,2.75,0,0,0,226.15,59a3.69,3.69,0,0,0,1.77.79,14.51,14.51,0,0,0,4.19-1l.08.08-.78,1.81c-2.3.82-3.41.94-5.2,1.53a11.76,11.76,0,0,1-3.57.79h-.46a.94.94,0,0,1-1-1,.91.91,0,0,1,1-.9Z"/><path class="cls-1" d="M242.76,61.58c-1.54,0-2.66-.55-2.66-1.72a4.37,4.37,0,0,1,.46-1.71c.59-1.28,2.17-2.64,4.69-4l-.09-1.1a14.74,14.74,0,0,1,1.16-1.2h.16c.06,2.27.08,4.56.09,6.83a2.64,2.64,0,0,0,.56,2.06,2.38,2.38,0,0,0,1.54.38H249V63h-.33a2.73,2.73,0,0,1-3-2A6.92,6.92,0,0,1,242.76,61.58Zm2.59-5.83c-2.6,1.34-4,2.43-4,3.2,0,.57.87.82,1.87.82a7,7,0,0,0,2.17-.41Zm-1.72-5.19c-.6-.57-1.13-1-1.72-1.52a12.34,12.34,0,0,1,1.16-1.39,13.4,13.4,0,0,1,1.67,1.56A7.62,7.62,0,0,1,243.63,50.56Zm2.82-.19c-.6-.57-1.12-1-1.71-1.52a13.49,13.49,0,0,1,1.16-1.4A14.3,14.3,0,0,1,247.57,49,7.64,7.64,0,0,1,246.45,50.37Z"/><path class="cls-1" d="M249.34,61.09c1.13,0,2.3-.45,2.52-1.29l.42-1.58,1-.73.09.1a8.21,8.21,0,0,0-.32,1.7,1.47,1.47,0,0,0,.48,1.22,2.74,2.74,0,0,0,1.82.58h.26V63h-.33c-1.44,0-2.52-.4-3-1.5h-.06A3.15,3.15,0,0,1,249.3,63H249a.94.94,0,0,1-1-1,.92.92,0,0,1,1-.9ZM251,68.81c-.6-.57-1.12-1-1.71-1.52a12.34,12.34,0,0,1,1.16-1.39,14.19,14.19,0,0,1,1.67,1.56A7.64,7.64,0,0,1,251,68.81Zm2.83-.19c-.6-.57-1.13-1-1.71-1.52a12.34,12.34,0,0,1,1.16-1.39,15,15,0,0,1,1.67,1.56A8.1,8.1,0,0,1,253.82,68.62Z"/><path class="cls-1" d="M256,61.09a3.38,3.38,0,0,0,1.64-.39,1.68,1.68,0,0,0,.77-1.59c0-2.34-.19-4.9-.42-7.6-.06-.67-.15-1.29-.15-1.83a1.49,1.49,0,0,1,.44-1,6.85,6.85,0,0,1,.81-.81l.1.08a6.52,6.52,0,0,0,1.19,3.35,9.47,9.47,0,0,1-.93.75c.06,1.68.19,3.46.19,5.08a8.79,8.79,0,0,1-.58,3.68,3,3,0,0,1-1.34,1.7,4.24,4.24,0,0,1-1.83.44h-.22a.94.94,0,0,1-1-1,.91.91,0,0,1,1-.9Z"/><path class="cls-1" d="M267.39,45.18a8.46,8.46,0,0,1-.43,1.1,3.06,3.06,0,0,1-2,.71c-.92,0-2-.25-2.71-.25-.23,0-.5.52-.82,1.12h-.1l-.5-.89c0-.69.29-1.62,1.33-1.62s2.07.43,3.18.43a3.19,3.19,0,0,0,1.2-.2,3,3,0,0,0,.82-.47ZM266.84,63h-.16a3.23,3.23,0,0,1-2.5-.84c-.9-.91-.91-2-.91-4.1,0-2.78-.16-5.7-.38-8.8a13.55,13.55,0,0,1,1.38-1.37l.1.06c.17,2.51.25,5.35.25,8.19,0,.81,0,1.63,0,2.42v.83a1.53,1.53,0,0,0,1.1,1.57,3,3,0,0,0,.94.16h.2Z"/><path class="cls-1" d="M276,47.21c-.33.6-.71,1.2-1.1,1.8-.75.19-1.57.44-2.36.72-1.55.54-3.15,1.18-4.82,1.91v0l2.39.92-.35.73c2.25,1.83,3.76,3.69,3.76,5.23a4.38,4.38,0,0,1-.94,3c-.92.83-2.39,1.37-5.11,1.37h-.59a.94.94,0,0,1-1-1,.91.91,0,0,1,1-.9h.93a7.59,7.59,0,0,0,3.91-.76c.53-.32.8-.61.8-.79a4.23,4.23,0,0,0-1-2.2,23.19,23.19,0,0,0-4.41-4.14,1.62,1.62,0,0,1-.52-1.35,2,2,0,0,1,.33-.94A2.49,2.49,0,0,1,268,50a64.23,64.23,0,0,1,7.88-2.93Z"/><path class="cls-1" d="M295.38,47.81c.15,2.49.22,5.31.22,9.21a6.58,6.58,0,0,0,.57,3.16,1.83,1.83,0,0,0,1.63.91h.27V63h-.33c-1.5,0-2.57-.78-3-2.7h-.07A4.86,4.86,0,0,1,292.61,62a10.23,10.23,0,0,1-4.55,1,4.29,4.29,0,0,1-4.5-4.65,7,7,0,0,1,.8-3.17l.63.21a5.5,5.5,0,0,0-.51,2.14c0,2.32,1.67,3.46,4,3.46a9.1,9.1,0,0,0,4.16-1,4,4,0,0,0,1.64-1.28,3.1,3.1,0,0,0,.07-.8c0-2.8-.24-6.08-.47-8.72a13.46,13.46,0,0,1,1.41-1.42Zm-4.64,4.87-.15-.07A2.44,2.44,0,0,0,289,54h1.15c1,0,1.48.43,1.48,1.13,0,1.44-1.39,2.09-2.68,2.09a4.49,4.49,0,0,1-.95-.07l-1-.57v-.1c1.88-.06,3.77-.54,3.77-1.12,0-.14-.34-.14-1.32-.14s-1.29,0-1.29-.19v-.57a3.29,3.29,0,0,1,.93-2,3.2,3.2,0,0,1,1.65-1.17c.23,0,.33.12.33.34a4,4,0,0,1-.31,1Z"/><path class="cls-1" d="M298.4,61.09c1.12,0,2.3-.45,2.52-1.29l.42-1.58,1-.73.09.1a7.58,7.58,0,0,0-.32,1.7,1.47,1.47,0,0,0,.48,1.22,2.74,2.74,0,0,0,1.82.58h.26V63h-.34c-1.43,0-2.52-.4-3-1.5h-.06a3.17,3.17,0,0,1-2.92,1.5h-.28a.94.94,0,0,1-1-1,.91.91,0,0,1,1-.9Zm1.65,7.72c-.6-.57-1.13-1-1.71-1.52a12.34,12.34,0,0,1,1.16-1.39,15,15,0,0,1,1.67,1.56A7.64,7.64,0,0,1,300.05,68.81Zm2.83-.19c-.6-.57-1.13-1-1.71-1.52a13.5,13.5,0,0,1,1.15-1.39A14.19,14.19,0,0,1,304,67.27,7.62,7.62,0,0,1,302.88,68.62Z"/><path class="cls-1" d="M305,61.09c1.13,0,2.3-.45,2.52-1.29l.43-1.58,1-.73.09.1a7.75,7.75,0,0,0-.33,1.7,1.48,1.48,0,0,0,.49,1.22,2.73,2.73,0,0,0,1.81.58h.27V63H311c-1.43,0-2.52-.4-3-1.5h-.06A3.14,3.14,0,0,1,305,63h-.28a.94.94,0,0,1-1-1,.91.91,0,0,1,1-.9Zm2.7,4.65a13.22,13.22,0,0,1,1.76,1.56,6.14,6.14,0,0,1-1.22,1.44c-.57-.54-1.14-1-1.73-1.51C306.91,66.7,307.3,66.19,307.7,65.74Z"/><path class="cls-1" d="M326.29,63h-.37c-1.82,0-2.65-.56-3-1.38h-.08A3.29,3.29,0,0,1,320.31,63a1.46,1.46,0,0,1-1.6-1.22h0A3.32,3.32,0,0,1,316.12,63a1.25,1.25,0,0,1-1.4-1.25h-.06A3.94,3.94,0,0,1,311.54,63h-.25a.94.94,0,0,1-1-1,.92.92,0,0,1,1-.9h.5a3.53,3.53,0,0,0,3.09-1.36l.73-1.14,1.13-.4.06.08a5.78,5.78,0,0,0-1,2.09.73.73,0,0,0,.79.73,2.09,2.09,0,0,0,1.28-.44,3.24,3.24,0,0,0,.95-1.29l.35-.86,1.12-.51.05.06a6,6,0,0,0-.6,2.19.8.8,0,0,0,.82.85,1.65,1.65,0,0,0,1-.32,2.29,2.29,0,0,0,.85-1.41c.06-.23.15-.51.3-1.15l1.11-.75.06,0a8.35,8.35,0,0,0-.37,2c0,1.16,1,1.58,2.41,1.58h.32Zm-7.8-7.14c-.6-.57-1.12-1-1.71-1.52a12.34,12.34,0,0,1,1.16-1.39,13.5,13.5,0,0,1,1.67,1.57A7.92,7.92,0,0,1,318.49,55.83Zm.8-3.12c-.6-.57-1.13-1-1.72-1.52a12.34,12.34,0,0,1,1.16-1.39,13.5,13.5,0,0,1,1.67,1.57A7.9,7.9,0,0,1,319.29,52.71Zm2,2.93c-.6-.57-1.13-1-1.71-1.52a12.34,12.34,0,0,1,1.16-1.39,14.25,14.25,0,0,1,1.67,1.57A8.41,8.41,0,0,1,321.32,55.64Z"/><path class="cls-1" d="M326.61,61.09c1.13,0,2.3-.45,2.52-1.29l.42-1.58,1-.73.09.1a8.21,8.21,0,0,0-.32,1.7,1.47,1.47,0,0,0,.48,1.22,2.74,2.74,0,0,0,1.82.58h.26V63h-.33c-1.44,0-2.52-.4-3-1.5h-.06a3.15,3.15,0,0,1-2.91,1.5h-.28a.94.94,0,0,1-1-1,.92.92,0,0,1,1-.9Zm1.61-5.55c-.6-.57-1.13-1-1.71-1.52a13.5,13.5,0,0,1,1.15-1.39,12.73,12.73,0,0,1,1.67,1.56A7.62,7.62,0,0,1,328.22,55.54Zm2.83-.19c-.6-.57-1.13-1-1.72-1.52a14.92,14.92,0,0,1,1.16-1.39A13.4,13.4,0,0,1,332.16,54,7.62,7.62,0,0,1,331.05,55.35Z"/><path class="cls-1" d="M333.22,61.09a3.35,3.35,0,0,0,1.64-.39,1.68,1.68,0,0,0,.77-1.59c0-2.34-.19-4.9-.42-7.6-.06-.67-.15-1.29-.15-1.83a1.49,1.49,0,0,1,.44-1,6.85,6.85,0,0,1,.81-.81l.1.08a6.52,6.52,0,0,0,1.19,3.35,9.47,9.47,0,0,1-.93.75c.06,1.68.19,3.46.19,5.08a8.79,8.79,0,0,1-.58,3.68,3,3,0,0,1-1.34,1.7,4.2,4.2,0,0,1-1.83.44h-.22a.94.94,0,0,1-1-1,.91.91,0,0,1,1-.9Z"/><path class="cls-1" d="M340.13,63.22a19,19,0,0,0,.16-2.93V58.85c0-2.68-.29-6.58-.53-9.11a13.46,13.46,0,0,1,1.44-1.55l.13,0c.31,3.19.38,6.9.38,10.31a24.1,24.1,0,0,1-.1,2.42,3.77,3.77,0,0,1-1.29,2.36Z"/><path class="cls-1" d="M355.35,58.76h-5.1l.3-1.23h5.12Z"/><path class="cls-1" d="M175.25,111H175c-3.44,0-3.87-1.86-4.65-5.18l-.13-.6h-.06a3.67,3.67,0,0,1-2.31,1.73,13.4,13.4,0,0,1,.12,1.92,8.16,8.16,0,0,1-1.11,4.14c-1.12,1.89-2.48,3.16-4.07,3.16a11.56,11.56,0,0,1-5.31-2l.45-1a5.09,5.09,0,0,0,1.8.38,6.79,6.79,0,0,0,4.69-2.23,7.82,7.82,0,0,0,2-2.87c0-.53-1-1.56-2.7-3.05.31-1.13.65-2.28,1.08-3.42l.21,0c.86.73,1.74,1.61,2.87,1.61,2,0,2.48-2.09,3.24-3.13l.43,0c.35,1.21.61,3.77,1.31,5.23a2.27,2.27,0,0,0,2.13,1.39h.27Zm-7,4a15.84,15.84,0,0,1,2.23,2.42,8.6,8.6,0,0,1-1.92,2c-.74-.8-1.5-1.56-2.28-2.32Zm4.12-.18a16.36,16.36,0,0,1,2.23,2.43,9,9,0,0,1-1.91,2c-.75-.8-1.51-1.56-2.29-2.33Z"/><path class="cls-1" d="M184.39,111h-.25c-1.78,0-3.44-.35-4.47-2.13h-.06a4.91,4.91,0,0,1-4.08,2.13h-.28c-.93,0-1.36-1-1.36-2s.43-2,1.36-2h.28a4.6,4.6,0,0,0,2.65-.66c1.08-.67,1.18-1.92,1.61-2.82.44-.31,1-.66,1.56-1l.13.12a7.79,7.79,0,0,0-.37,1.79,2.11,2.11,0,0,0,1,2,3.85,3.85,0,0,0,2.09.57h.23Zm-7.09,3.65a15.35,15.35,0,0,1,2.23,2.42,8.76,8.76,0,0,1-1.91,2c-.74-.8-1.51-1.56-2.29-2.32Zm4.13-.18a15.34,15.34,0,0,1,2.22,2.43,9,9,0,0,1-1.91,2c-.74-.8-1.51-1.56-2.29-2.33Z"/><path class="cls-1" d="M192.21,107.06V111h-7.82c-.93,0-1.36-1-1.36-2s.43-2,1.36-2Z"/><path class="cls-1" d="M200,107.06V111h-7.81c-.94,0-1.37-1-1.37-2s.43-2,1.37-2Z"/><path class="cls-1" d="M207.83,107.06V111H200c-.94,0-1.37-1-1.37-2s.43-2,1.37-2Z"/><path class="cls-1" d="M218,106.3a8.8,8.8,0,0,0,4.28.76h.27V111h-.27a10.12,10.12,0,0,1-6.88-2.35,11.06,11.06,0,0,1-7.26,2.35h-.28c-.94,0-1.37-1-1.37-2s.43-2,1.37-2h.84a11.77,11.77,0,0,0,4.22-.53v-.07c-.76-.67-1.54-1.41-2.4-2.27a1.72,1.72,0,0,0-1.27-.63h-.49l-.06,0,1.12-3.19a43.74,43.74,0,0,1,6.28-.7,14.6,14.6,0,0,1,5.53,1c-.17.95-.37,1.93-.64,2.89-1,.95-2,1.85-3,2.71Zm.94-3.2a10.45,10.45,0,0,0-3.11-.45,14.5,14.5,0,0,0-3.24.31v.1a25.69,25.69,0,0,0,3.2,2.48,32.83,32.83,0,0,0,3.15-2.35Zm-4.52-10.51a19.85,19.85,0,0,1,2.8,2.28,6.93,6.93,0,0,1-1.76,2.41,33,33,0,0,0-2.83-2.17Z"/><path class="cls-1" d="M231.66,111h-.25c-1.78,0-3.44-.35-4.48-2.13h-.05a4.92,4.92,0,0,1-4.09,2.13h-.27c-.94,0-1.37-1-1.37-2s.43-2,1.37-2h.27a4.66,4.66,0,0,0,2.66-.66c1.07-.67,1.17-1.92,1.6-2.82.45-.31,1-.66,1.56-1l.14.12a7.79,7.79,0,0,0-.37,1.79,2.09,2.09,0,0,0,1,2,3.83,3.83,0,0,0,2.09.57h.23Zm-7-14.3a15.84,15.84,0,0,1,2.23,2.42,8.81,8.81,0,0,1-1.92,2c-.74-.8-1.5-1.56-2.28-2.32Zm4.12-.18A16.36,16.36,0,0,1,231,98.92a9,9,0,0,1-1.92,2c-.74-.8-1.5-1.56-2.28-2.33Z"/><path class="cls-1" d="M236.68,91c0,1.28.74,2.87,2.15,5.21l-1.74,1.33c.08,1.5.12,3.34.12,5.25a12.69,12.69,0,0,1-.73,4.32,9.13,9.13,0,0,1-1,2.07,4.12,4.12,0,0,1-3.58,1.76h-.27c-.94,0-1.37-1-1.37-2s.43-2,1.37-2h.27a3.87,3.87,0,0,0,2.78-.8c.33-.33.33-.88.33-1.93,0-4.87-.65-9.2-.65-10.18a2.89,2.89,0,0,1,.53-1.82,8,8,0,0,1,1.53-1.46Z"/><path class="cls-1" d="M241.54,111.2a32.57,32.57,0,0,0,.26-4.71,115.68,115.68,0,0,0-.67-12.69,31.62,31.62,0,0,1,2.27-2.48l.33.17c.39,4.22.45,8.17.45,12,0,3.06-.18,5.11-.61,5.78a13.63,13.63,0,0,1-1.6,2.28Z"/><path class="cls-1" d="M262.4,100.62c1.7,2.79,2.39,4.49,2.39,6.09,0,.92-.08,1.43-.08,1.8a10.13,10.13,0,0,1-1.25,5.17c-1.23,2.09-2.74,3.3-4.44,3.3a11.23,11.23,0,0,1-5.35-1.7l.37-1a7.87,7.87,0,0,0,2,.23,7.18,7.18,0,0,0,4.74-2.36c1.33-1.33,2.15-2.68,2.15-3.3s-.74-2.07-2.62-4.88c.55-1.18,1.18-2.31,1.76-3.32Z"/><path class="cls-1" d="M273.54,111h-.34c-2.65,0-4.57-1.35-4.63-5.16,0-2.23-.19-8-.7-12.77a28.55,28.55,0,0,1,2.25-2.17l.27.14a83.33,83.33,0,0,1,.35,8.75c0,2,0,3.08,0,4.68,0,2,.78,2.62,2.56,2.62h.28Z"/><path class="cls-1" d="M281.35,107.06V111h-7.81c-.94,0-1.37-1-1.37-2s.43-2,1.37-2Z"/><path class="cls-1" d="M289.16,107.06V111h-7.81c-.94,0-1.37-1-1.37-2s.43-2,1.37-2Z"/><path class="cls-1" d="M309.16,111h-.27c-2.19,0-3.77-.49-4.44-1.8h-.07a4.46,4.46,0,0,1-3.31,1.8,2.12,2.12,0,0,1-2.16-1.66h-.1a4.39,4.39,0,0,1-3.22,1.66,2,2,0,0,1-2.09-1.49,6.4,6.4,0,0,1-4.07,1.49h-.27c-.94,0-1.37-1-1.37-2s.43-2,1.37-2h.27a5.64,5.64,0,0,0,3.5-.88,9.71,9.71,0,0,0,1.68-2.07,13.49,13.49,0,0,1,1.7-.78l.21.2a5.46,5.46,0,0,0-1.19,2.53c0,.73.39,1,1,1a2.51,2.51,0,0,0,1.85-.76,9.25,9.25,0,0,0,1.41-2.54,11.59,11.59,0,0,1,1.58-.78l.16.19a9.67,9.67,0,0,0-.9,2.66c0,.84.35,1.23,1,1.23a2.32,2.32,0,0,0,2-1,10.39,10.39,0,0,0,1.09-2.75,15.38,15.38,0,0,1,1.56-1l.14.14a9.5,9.5,0,0,0-.55,2.54c0,1.37,1,2,3.25,2h.27Z"/><path class="cls-1" d="M312.62,108.66a3.28,3.28,0,0,1-3.23,2.31h-.25c-.9,0-1.35-.94-1.35-2s.43-2,1.37-2h.27a3.1,3.1,0,0,0,1.68-.51c1.53-1,1.18-3.69,3.09-5.47a3.77,3.77,0,0,1,2.58-1.15c3.26,0,4.35,5,4.35,7.15,0,.27-.7,3.71-3.3,3.71a8.89,8.89,0,0,1-5.15-2.13Zm5.78-1.6c.37,0,.6-.06.6-.17-.41-2.19-1.58-3.6-2.89-3.6a2.55,2.55,0,0,0-2.28,1.68A7,7,0,0,0,318.4,107.06Z"/><rect class="cls-2" x="137.16" y="411.1" width="103.16" height="20"/><rect class="cls-3" x="134.01" y="413.96" width="103.16" height="20"/><line class="cls-4" x1="185.59" y1="407.6" x2="185.59" y2="405.8"/><line class="cls-5" x1="185.59" y1="401.78" x2="185.59" y2="387.74"/><line class="cls-6" x1="185.59" y1="385.73" x2="185.59" y2="315.51"/><line class="cls-4" x1="185.59" y1="313.5" x2="185.59" y2="311.7"/><path d="M188.49,310.61a2.9,2.9,0,1,1-2.9-2.9,2.9,2.9,0,0,1,2.9,2.9"/><rect class="cls-7" x="33.14" y="381.41" width="103.16" height="20"/><rect class="cls-3" x="30" y="384.28" width="103.16" height="20"/><line class="cls-4" x1="393.73" y1="373.25" x2="393.73" y2="371.45"/><rect class="cls-8" x="241.28" y="441.15" width="103.16" height="20"/><rect class="cls-3" x="238.13" y="444.02" width="103.16" height="20"/><line class="cls-4" x1="289.71" y1="437.65" x2="289.71" y2="435.85"/><line class="cls-5" x1="289.71" y1="431.84" x2="289.71" y2="417.8"/><line class="cls-6" x1="289.71" y1="415.79" x2="289.71" y2="345.57"/><line class="cls-4" x1="289.71" y1="343.56" x2="289.71" y2="341.76"/><path d="M292.61,340.67a2.9,2.9,0,1,1-2.9-2.9,2.9,2.9,0,0,1,2.9,2.9"/><rect class="cls-3" x="343.7" y="474.01" width="103.16" height="20"/><path d="M378.29,447.1h-.19a2.53,2.53,0,0,1-2.1-.94h-.06a6,6,0,0,1-.58,2.06,5.49,5.49,0,0,1-4.35,2.24c-3,0-4-2.29-4-4.3a8.74,8.74,0,0,1,1.06-4.15l.75.33a6.63,6.63,0,0,0-.58,2.31,2.82,2.82,0,0,0,3,3.05,5,5,0,0,0,3.54-1.68c0-.64,0-1.26,0-1.82,0-2.21-.21-6-.41-9.23a12.4,12.4,0,0,1,1.45-1.45l.22.11c.1,2.13.17,4.86.18,8.27a2.85,2.85,0,0,0,.49,1.89,1.79,1.79,0,0,0,1.38.57h.19Z"/><path d="M381.59,439c3.65,2.75,4.63,5.34,7,5.34h.19v2.74h-.19c-2.62,0-2.82-1-4.88-3.47h0a4.28,4.28,0,0,1-1.23,2.57c-.67.6-2,.9-4,.9h-.2c-.65,0-1-.71-1-1.37s.3-1.37,1-1.37h.2c1.8,0,3.43-.08,3.84-.73-.14-1-1.48-2.6-3.87-4.79a3.7,3.7,0,0,1-.22-1.33,2.71,2.71,0,0,1,.53-1.77,3,3,0,0,1,.81-.59,51.32,51.32,0,0,1,7.81-2.86l.11.11c-.41.88-.8,1.57-1.17,2.2a46.34,46.34,0,0,0-6.72,2.44v.06c.73.26,1.56.54,2.54.82Z"/><path d="M394.29,444.36v2.74h-5.47c-.65,0-.95-.71-.95-1.37s.3-1.37.95-1.37Z"/><path d="M399.76,444.36v2.74h-5.47c-.66,0-1-.71-1-1.37s.3-1.37,1-1.37Z"/><path d="M413.76,447.1h-.19c-1.53,0-2.64-.34-3.11-1.26h0a3.11,3.11,0,0,1-2.31,1.26,1.49,1.49,0,0,1-1.52-1.16h-.07a3.07,3.07,0,0,1-2.25,1.16,1.39,1.39,0,0,1-1.47-1,4.46,4.46,0,0,1-2.84,1h-.19c-.66,0-1-.71-1-1.37s.3-1.37,1-1.37H400a4,4,0,0,0,2.45-.61,6.81,6.81,0,0,0,1.17-1.45,12.05,12.05,0,0,1,1.19-.55l.15.14a3.83,3.83,0,0,0-.83,1.78c0,.5.27.69.71.69a1.74,1.74,0,0,0,1.3-.53,6.29,6.29,0,0,0,1-1.78,8.11,8.11,0,0,1,1.11-.54l.11.13a6.86,6.86,0,0,0-.63,1.86c0,.59.25.86.69.86a1.64,1.64,0,0,0,1.38-.69,7.47,7.47,0,0,0,.76-1.93,8.92,8.92,0,0,1,1.1-.67l.09.1a6.49,6.49,0,0,0-.38,1.77c0,1,.71,1.42,2.27,1.42h.19ZM406,437a11.42,11.42,0,0,1,1.64,1.61,5.44,5.44,0,0,1-1.26,1.46c-.54-.53-1.1-1-1.68-1.53Zm1.16-3a10.93,10.93,0,0,1,1.64,1.61,5.79,5.79,0,0,1-1.25,1.47c-.55-.54-1.11-1-1.69-1.54Zm1.83,2.87a11.53,11.53,0,0,1,1.65,1.61,6,6,0,0,1-1.26,1.47c-.55-.54-1.11-1-1.68-1.53Z"/><path d="M416.92,446.09a4.52,4.52,0,0,1-3,1h-.19c-.66,0-1-.71-1-1.37s.3-1.37,1-1.37H414a6.3,6.3,0,0,0,2.89-.54c-.13-2.16-.22-4.31-.32-6.47,0-.64-.19-1.48-.19-2a2,2,0,0,1,.37-1.27,5.59,5.59,0,0,1,1.07-1l.16.11c0,.9.52,2,1.5,3.65l-1.24.94c0,2.86.07,4.2.15,5.25a4.3,4.3,0,0,1,1.56-.32c1.38,0,2.62,1.09,2.62,3.14,0,1.2-.78,3.23-2.76,3.23-1.24,0-2.38-1-2.8-2.94Zm3.76.79a.77.77,0,0,0,.59-.22,1.89,1.89,0,0,0-1.86-1.8,3,3,0,0,0-1,.17A2.48,2.48,0,0,0,420.68,446.88Z"/><path d="M424.81,447.26A24.43,24.43,0,0,0,425,444a80.72,80.72,0,0,0-.46-8.89,23.4,23.4,0,0,1,1.59-1.74l.23.13c.27,2.95.31,5.71.31,8.36,0,2.15-.12,3.59-.42,4.05a10.42,10.42,0,0,1-1.12,1.6Z"/><path d="M42.89,352.9c.63-1.82,1.42-3,2.86-3,1.24,0,2.27.84,3.15,2.29a5.36,5.36,0,0,1,.87,2.55,5.16,5.16,0,0,1-.85,2.29,32.52,32.52,0,0,0-4-.33,2.43,2.43,0,0,0-1.75.55c.2,2.33,1.76,6.39,1.76,7.47a10.89,10.89,0,0,1-.45,2.55l-.31,0c-.41-2.79-2.41-6.88-2.41-9a6,6,0,0,1,.34-1.8,5.81,5.81,0,0,1,1-1.75Zm1.23,1.23a3.68,3.68,0,0,1,1.31-.21,14.49,14.49,0,0,1,2.35.24l0-.09a3.6,3.6,0,0,0-2.72-1.78,1.88,1.88,0,0,0-.71.12v.19a6,6,0,0,1-.07.95l-.23.54Z"/><path d="M55.89,358.1h-.23c-1.86,0-3.2-.94-3.24-3.61,0-1.56-.14-5.58-.49-8.94A18.68,18.68,0,0,1,53.5,344l.19.1a57.46,57.46,0,0,1,.25,6.12c0,1.44,0,2.16,0,3.28,0,1.37.55,1.83,1.79,1.83h.19Z"/><path d="M63,354.83a6,6,0,0,0,3,.53h.19v2.74H66a7.12,7.12,0,0,1-4.81-1.64,7.8,7.8,0,0,1-5.09,1.64h-.19c-.66,0-1-.71-1-1.37s.3-1.37,1-1.37h.59a8.56,8.56,0,0,0,3-.36v-.06c-.53-.46-1.08-1-1.68-1.59a1.19,1.19,0,0,0-.89-.43h-.34l0,0,.78-2.23a30.29,30.29,0,0,1,4.4-.49,10.42,10.42,0,0,1,3.87.69c-.12.67-.26,1.36-.45,2-.71.67-1.42,1.29-2.09,1.9Zm.65-2.24a7.45,7.45,0,0,0-2.17-.32,10.81,10.81,0,0,0-2.27.22v.07a17.26,17.26,0,0,0,2.24,1.74,22.69,22.69,0,0,0,2.2-1.64Z"/><path d="M69.69,344.14c0,.9.52,2,1.5,3.65l-1.22.93c.06,1,.08,2.34.08,3.68a9,9,0,0,1-.5,3,6.89,6.89,0,0,1-.68,1.45,2.9,2.9,0,0,1-2.51,1.23h-.19c-.65,0-1-.71-1-1.37s.31-1.37,1-1.37h.19a2.67,2.67,0,0,0,1.94-.56c.24-.23.24-.61.24-1.35,0-3.4-.45-6.44-.45-7.12a2,2,0,0,1,.37-1.27,5.23,5.23,0,0,1,1.06-1Z"/><path d="M73.09,358.26a22.75,22.75,0,0,0,.18-3.29,80.74,80.74,0,0,0-.47-8.89,23.4,23.4,0,0,1,1.59-1.74l.23.13c.27,2.95.32,5.71.32,8.36,0,2.15-.13,3.59-.43,4.05a9.76,9.76,0,0,1-1.12,1.6Z"/><path d="M96,354.37c-2.33,0-3.61-.82-3.61-2.62A4,4,0,0,1,93.45,349a3.05,3.05,0,0,1,2.17-1.16c1.86,0,3.06,3.16,3.06,6.07a7.55,7.55,0,0,1-.73,3.16,6.69,6.69,0,0,1-2,.82,24.11,24.11,0,0,1-6.39.82c-4.52,0-6.62-2.16-6.62-4.81a9.34,9.34,0,0,1,.82-3.86l.88.33a4.85,4.85,0,0,0-.34,1.74c0,2.16,2,3.74,6.09,3.74a25,25,0,0,0,6.27-.79c.54-.15.78-.36.78-.72C97,354.37,96.46,354.37,96,354.37Zm-1.47-10.76a14.72,14.72,0,0,1,2,1.62A4.7,4.7,0,0,1,95.25,347a23,23,0,0,0-2-1.55ZM95,350c-.93,0-1.48.5-1.48.91,0,.77,1.43,1.3,3.58,1.36C96.61,350.81,95.91,350,95,350Z"/><path d="M110.43,358.1h-.19a2.79,2.79,0,0,1-3-2.3h0a2.43,2.43,0,0,1-.75,1.33,4.54,4.54,0,0,1-2.94,1c-1.43,0-2.42-.85-2.42-3.19,0-.27,0-.67,0-1.16l.89-.08a1.56,1.56,0,0,0,1.73,1.69,5,5,0,0,0,2-.47c.51-.22.86-.48.86-.91a22,22,0,0,0-1.17-4.56,15.82,15.82,0,0,1,1.26-1.88l.23.07c.34,1.25.7,2.82,1.17,5.48.28,1.56,1,2.27,2.1,2.27h.19Z"/><path d="M119.07,355.36v2.74h-.19c-.18,0-.48,0-.95-.07a3.73,3.73,0,0,1,.22,1.38c0,1.25-1,3.2-2.9,3.2-1.69,0-3.71-1.59-3.71-4.55-.58,0-.89,0-1.11,0-.66,0-1-.71-1-1.37s.3-1.37,1-1.37H112a19.54,19.54,0,0,1,2.34-6.54h.22l.82,1.35a8,8,0,0,1,1.47,3.85,4.16,4.16,0,0,1-.24,1.34Zm-3.21,5.06c.41,0,.67-.13.67-.39a2.3,2.3,0,0,0-.5-1.32,2,2,0,0,0-1.75-.8,9.5,9.5,0,0,0-1.43.12A3.51,3.51,0,0,0,115.86,360.42Zm-.41-5.6a7.81,7.81,0,0,0-1.4-2.89h0c-.44,1.29-.77,2.41-1.06,3.43C114.52,355.36,115.45,355.25,115.45,354.82Z"/><path d="M122.58,344.14c0,.9.52,2,1.51,3.65l-1.22.93c0,1,.08,2.34.08,3.68a9,9,0,0,1-.5,3,6.45,6.45,0,0,1-.69,1.45,2.87,2.87,0,0,1-2.5,1.23h-.19c-.66,0-1-.71-1-1.37s.3-1.37,1-1.37h.19a2.7,2.7,0,0,0,1.94-.56c.23-.23.23-.61.23-1.35,0-3.4-.45-6.44-.45-7.12a2,2,0,0,1,.37-1.27,5.59,5.59,0,0,1,1.07-1Z"/><path d="M126,358.26a24.43,24.43,0,0,0,.17-3.29,80.72,80.72,0,0,0-.46-8.89,23.4,23.4,0,0,1,1.59-1.74l.23.13c.27,2.95.31,5.71.31,8.36,0,2.15-.12,3.59-.42,4.05a10.42,10.42,0,0,1-1.12,1.6Z"/><path d="M244.73,311.1v-.55c1.29-.1,1.43-.33,1.43-1.45v-5.64c0-.83-.06-.92-.69-1l-.86,0V302c1-.16,2.2-.44,3.65-.82v7.94c0,1.08.1,1.35,1.4,1.45v.55Z"/><path d="M265.83,308.19a2.59,2.59,0,0,1-1,1.34,1.41,1.41,0,0,1,.56,1.27,4.85,4.85,0,0,1-.47,2,6.42,6.42,0,0,1-4.88,2.36c-2.27,0-3.62-1.77-3.62-4a9,9,0,0,1,.71-3.51l.6.25a6.43,6.43,0,0,0-.39,2,2.8,2.8,0,0,0,3,3.08,7.11,7.11,0,0,0,4.06-1.5,6.93,6.93,0,0,0-3.51-.61l-.1-.16.71-1.58a7.74,7.74,0,0,0,3.34-1.13,1.62,1.62,0,0,0,.89-1.76c0-1.55-.11-3.25-.28-5a11.08,11.08,0,0,1,1.18-1.19l.14.1c.18,2.1.2,4.09.2,5.94v1.08c0,1.18.46,1.87,1.68,1.87v2.15h-.15c-1.4,0-2.39-.71-2.57-2.91Zm-7,7.67a11.63,11.63,0,0,1,1.48,1.34,8.18,8.18,0,0,1-1,1.3c-.51-.48-1-.92-1.52-1.32Zm2.53-.17a9.8,9.8,0,0,1,1.48,1.34,8.06,8.06,0,0,1-1,1.3,16.58,16.58,0,0,0-1.51-1.32Z"/><path d="M274.2,307.49a9.14,9.14,0,0,0-2.73-.57,1.59,1.59,0,0,0-.89.19l-.5,1.13h-.21l-.7-1.36a2.25,2.25,0,0,1,2.34-1.93,9.15,9.15,0,0,1,3,.75,7.05,7.05,0,0,0,2.65.5h.8l0,.09a15.67,15.67,0,0,1-.89,1.49,2.43,2.43,0,0,0-1.84.64c-1.9,1.72-3.33,2.68-6.47,2.68h-.15c-.51,0-.75-.56-.75-1.08s.24-1.07.75-1.07h.15a9,9,0,0,0,5.44-1.41Z"/><path d="M283.9,311.1h-.18a3.62,3.62,0,0,1-1.12-.2,4.27,4.27,0,0,1-.7,2.42,2.71,2.71,0,0,1-2.17,1.56,5.33,5.33,0,0,1-2.86-1.06l.24-.54a3,3,0,0,0,1,.18,3.34,3.34,0,0,0,2.34-1,3.8,3.8,0,0,0,1.25-2.05,10.56,10.56,0,0,1-1.19-2,17,17,0,0,1,.76-1.59h.17c.55,1.24,1.13,2.1,2.34,2.1h.15Z"/><path d="M286.38,310.3a3.49,3.49,0,0,1-2.33.8h-.15c-.52,0-.75-.56-.75-1.08s.23-1.07.75-1.07h.15a4.91,4.91,0,0,0,2.26-.43c-.09-1.7-.17-3.38-.24-5.08,0-.5-.15-1.16-.15-1.59a1.54,1.54,0,0,1,.29-1,3.83,3.83,0,0,1,.84-.8l.12.08a6.3,6.3,0,0,0,1.19,2.87l-1,.74c0,2.25.05,3.3.12,4.13a3.27,3.27,0,0,1,1.22-.26c1.09,0,2.06.86,2.06,2.47,0,.94-.61,2.53-2.17,2.53-1,0-1.87-.77-2.2-2.31Zm2.95.63a.67.67,0,0,0,.47-.17,1.49,1.49,0,0,0-1.47-1.42,2.22,2.22,0,0,0-.75.14A2,2,0,0,0,289.33,310.93Z"/><path d="M292.58,311.23a17.94,17.94,0,0,0,.14-2.59,63.16,63.16,0,0,0-.37-7,17.33,17.33,0,0,1,1.25-1.37l.18.1c.22,2.32.25,4.49.25,6.57a8.23,8.23,0,0,1-.34,3.18,7.06,7.06,0,0,1-.88,1.26Z"/><path d="M310.56,308.17c-1.83,0-2.84-.65-2.84-2.06a3.15,3.15,0,0,1,.85-2.17,2.46,2.46,0,0,1,1.71-.91c1.46,0,2.41,2.48,2.41,4.77a6,6,0,0,1-.58,2.48,5.14,5.14,0,0,1-1.58.65,19.37,19.37,0,0,1-5,.64c-3.55,0-5.2-1.7-5.2-3.78a7.18,7.18,0,0,1,.65-3l.68.26a3.9,3.9,0,0,0-.26,1.36c0,1.7,1.55,2.95,4.79,2.95a19.68,19.68,0,0,0,4.92-.63c.43-.11.61-.28.61-.57A10.86,10.86,0,0,1,310.56,308.17Zm-1.15-8.46A11.81,11.81,0,0,1,311,301a3.67,3.67,0,0,1-1,1.35c-.45-.38-1-.8-1.59-1.21Zm.39,5c-.73,0-1.16.4-1.16.72,0,.6,1.13,1,2.81,1.06C311.05,305.37,310.51,304.72,309.8,304.72Z"/><path d="M321.91,311.1h-.15a2.19,2.19,0,0,1-2.32-1.81h0a2,2,0,0,1-.59,1,3.58,3.58,0,0,1-2.31.76c-1.13,0-1.9-.67-1.9-2.5,0-.22,0-.53,0-.92l.7-.06a1.23,1.23,0,0,0,1.36,1.33,3.88,3.88,0,0,0,1.58-.38c.4-.17.68-.37.68-.7a17.5,17.5,0,0,0-.92-3.59,12.52,12.52,0,0,1,1-1.47l.19.05c.27,1,.54,2.21.92,4.31.22,1.22.78,1.78,1.64,1.78h.15Z"/><path d="M328.7,309v2.15h-.15a7.1,7.1,0,0,1-.74-.05,2.91,2.91,0,0,1,.17,1.08,2.49,2.49,0,0,1-2.27,2.51c-1.34,0-2.93-1.24-2.93-3.57-.45,0-.69,0-.87,0-.51,0-.75-.56-.75-1.08s.24-1.07.75-1.07h1.21a15.48,15.48,0,0,1,1.83-5.14h.18l.64,1.06a6.22,6.22,0,0,1,1.16,3,3.24,3.24,0,0,1-.19,1.05Zm-2.52,4c.32,0,.53-.11.53-.32a1.8,1.8,0,0,0-.39-1,1.59,1.59,0,0,0-1.38-.63,6.55,6.55,0,0,0-1.12.1A2.76,2.76,0,0,0,326.18,312.93Zm-.32-4.41a6.11,6.11,0,0,0-1.1-2.27h0c-.35,1-.6,1.9-.83,2.7C325.13,309,325.86,308.86,325.86,308.52Z"/><path d="M331.46,300.13a6.3,6.3,0,0,0,1.19,2.87l-1,.73c0,.83.06,1.84.06,2.89a7.07,7.07,0,0,1-.39,2.37,4.79,4.79,0,0,1-.54,1.14,2.26,2.26,0,0,1-2,1h-.15c-.51,0-.75-.56-.75-1.08s.24-1.07.75-1.07h.15a2.14,2.14,0,0,0,1.53-.44c.18-.18.18-.48.18-1.06,0-2.68-.35-5.06-.35-5.6a1.54,1.54,0,0,1,.29-1,3.83,3.83,0,0,1,.84-.8Z"/><path d="M334.14,311.23a17.94,17.94,0,0,0,.14-2.59,63.16,63.16,0,0,0-.37-7,17.33,17.33,0,0,1,1.25-1.37l.18.1c.22,2.32.25,4.49.25,6.57a8.53,8.53,0,0,1-.33,3.18,8.28,8.28,0,0,1-.88,1.26Z"/><path d="M140.73,280.1v-.55c1.29-.1,1.43-.33,1.43-1.45v-5.64c0-.83-.06-.92-.69-1l-.86,0V271c1-.16,2.2-.44,3.65-.82v7.94c0,1.08.1,1.35,1.4,1.45v.55Z"/><path d="M161.83,277.19a2.59,2.59,0,0,1-1,1.34,1.41,1.41,0,0,1,.56,1.27,4.85,4.85,0,0,1-.47,2,6.42,6.42,0,0,1-4.88,2.36c-2.27,0-3.62-1.77-3.62-4a9,9,0,0,1,.71-3.51l.6.25a6.43,6.43,0,0,0-.39,2,2.8,2.8,0,0,0,3,3.08,7.11,7.11,0,0,0,4.06-1.5,6.93,6.93,0,0,0-3.51-.61l-.1-.16.71-1.58a7.74,7.74,0,0,0,3.34-1.13,1.62,1.62,0,0,0,.89-1.76c0-1.55-.11-3.25-.28-5a11.08,11.08,0,0,1,1.18-1.19l.14.1c.18,2.1.2,4.09.2,5.94v1.08c0,1.18.46,1.87,1.68,1.87v2.15h-.15c-1.4,0-2.39-.71-2.57-2.91Zm-7,7.67a11.63,11.63,0,0,1,1.48,1.34,8.18,8.18,0,0,1-1,1.3c-.51-.48-1-.92-1.52-1.32Zm2.53-.17a9.8,9.8,0,0,1,1.48,1.34,8.06,8.06,0,0,1-1,1.3,16.58,16.58,0,0,0-1.51-1.32Z"/><path d="M170.2,276.49a9.14,9.14,0,0,0-2.73-.57,1.59,1.59,0,0,0-.89.19l-.5,1.13h-.21l-.7-1.36a2.25,2.25,0,0,1,2.34-1.93,9.15,9.15,0,0,1,3,.75,7.05,7.05,0,0,0,2.65.5h.8l0,.09a15.67,15.67,0,0,1-.89,1.49,2.43,2.43,0,0,0-1.84.64c-1.9,1.72-3.33,2.68-6.47,2.68h-.15c-.51,0-.75-.56-.75-1.08s.24-1.07.75-1.07h.15a9,9,0,0,0,5.44-1.41Z"/><path d="M179.9,280.1h-.18a3.62,3.62,0,0,1-1.12-.2,4.27,4.27,0,0,1-.7,2.42,2.71,2.71,0,0,1-2.17,1.56,5.33,5.33,0,0,1-2.86-1.06l.24-.54a3,3,0,0,0,1,.18,3.34,3.34,0,0,0,2.34-1,3.8,3.8,0,0,0,1.25-2.05,10.56,10.56,0,0,1-1.19-2,17,17,0,0,1,.76-1.59h.17c.55,1.24,1.13,2.1,2.34,2.1h.15Z"/><path d="M182.38,279.3a3.49,3.49,0,0,1-2.33.8h-.15c-.52,0-.75-.56-.75-1.08s.23-1.07.75-1.07h.15a4.91,4.91,0,0,0,2.26-.43c-.09-1.7-.17-3.38-.24-5.08,0-.5-.15-1.16-.15-1.59a1.54,1.54,0,0,1,.29-1,3.83,3.83,0,0,1,.84-.8l.12.08a6.3,6.3,0,0,0,1.19,2.87l-1,.74c0,2.25.05,3.3.12,4.13a3.27,3.27,0,0,1,1.22-.26c1.09,0,2.06.86,2.06,2.47,0,.94-.61,2.53-2.17,2.53-1,0-1.87-.77-2.2-2.31Zm3,.63a.67.67,0,0,0,.47-.17,1.49,1.49,0,0,0-1.47-1.42,2.22,2.22,0,0,0-.75.14A2,2,0,0,0,185.33,279.93Z"/><path d="M188.58,280.23a17.94,17.94,0,0,0,.14-2.59,63.16,63.16,0,0,0-.37-7,17.33,17.33,0,0,1,1.25-1.37l.18.1c.22,2.32.25,4.49.25,6.57a8.23,8.23,0,0,1-.34,3.18,7.06,7.06,0,0,1-.88,1.26Z"/><path d="M206.56,277.17c-1.83,0-2.84-.65-2.84-2.06a3.15,3.15,0,0,1,.85-2.17,2.46,2.46,0,0,1,1.71-.91c1.46,0,2.41,2.48,2.41,4.77a6,6,0,0,1-.58,2.48,5.14,5.14,0,0,1-1.58.65,19.37,19.37,0,0,1-5,.64c-3.55,0-5.2-1.7-5.2-3.78a7.18,7.18,0,0,1,.65-3l.68.26a3.9,3.9,0,0,0-.26,1.36c0,1.7,1.55,2.95,4.79,2.95a19.68,19.68,0,0,0,4.92-.63c.43-.11.61-.28.61-.57A10.86,10.86,0,0,1,206.56,277.17Zm-1.15-8.46A11.81,11.81,0,0,1,207,270a3.67,3.67,0,0,1-1,1.35c-.45-.38-1-.8-1.59-1.21Zm.39,5c-.73,0-1.16.4-1.16.72,0,.6,1.13,1,2.81,1.06C207.05,274.37,206.51,273.72,205.8,273.72Z"/><path d="M217.91,280.1h-.15a2.19,2.19,0,0,1-2.32-1.81h0a2,2,0,0,1-.59,1,3.58,3.58,0,0,1-2.31.76c-1.13,0-1.9-.67-1.9-2.5,0-.22,0-.53,0-.92l.7-.06a1.23,1.23,0,0,0,1.36,1.33,3.88,3.88,0,0,0,1.58-.38c.4-.17.68-.37.68-.7a17.5,17.5,0,0,0-.92-3.59,12.52,12.52,0,0,1,1-1.47l.19.05c.27,1,.54,2.21.92,4.31.22,1.22.78,1.78,1.64,1.78h.15Z"/><path d="M224.7,278v2.15h-.15a7.1,7.1,0,0,1-.74-.05,2.91,2.91,0,0,1,.17,1.08,2.49,2.49,0,0,1-2.27,2.51c-1.34,0-2.93-1.24-2.93-3.57-.45,0-.69,0-.87,0-.51,0-.75-.56-.75-1.08s.24-1.07.75-1.07h1.21a15.48,15.48,0,0,1,1.83-5.14h.18l.64,1.06a6.22,6.22,0,0,1,1.16,3,3.24,3.24,0,0,1-.19,1.05Zm-2.52,4c.32,0,.53-.11.53-.32a1.8,1.8,0,0,0-.39-1,1.59,1.59,0,0,0-1.38-.63,6.55,6.55,0,0,0-1.12.1A2.76,2.76,0,0,0,222.18,281.93Zm-.32-4.41a6.11,6.11,0,0,0-1.1-2.27h0c-.35,1-.6,1.9-.83,2.7C221.13,278,221.86,277.86,221.86,277.52Z"/><path d="M227.46,269.13a6.3,6.3,0,0,0,1.19,2.87l-1,.73c0,.83.06,1.84.06,2.89a7.07,7.07,0,0,1-.39,2.37,4.79,4.79,0,0,1-.54,1.14,2.26,2.26,0,0,1-2,1h-.15c-.51,0-.75-.56-.75-1.08s.24-1.07.75-1.07h.15a2.14,2.14,0,0,0,1.53-.44c.18-.18.18-.48.18-1.06,0-2.68-.35-5.06-.35-5.6a1.54,1.54,0,0,1,.29-1,3.83,3.83,0,0,1,.84-.8Z"/><path d="M230.14,280.23a17.94,17.94,0,0,0,.14-2.59,63.16,63.16,0,0,0-.37-7,17.33,17.33,0,0,1,1.25-1.37l.18.1c.22,2.32.25,4.49.25,6.57a8.53,8.53,0,0,1-.33,3.18,8.28,8.28,0,0,1-.88,1.26Z"/><path d="M151.54,481.09a7.57,7.57,0,0,1,1.14,3,5.09,5.09,0,0,1-.89,2.65,13.11,13.11,0,0,1-5.84,1.32,6.81,6.81,0,0,1-3.78-.89,3.34,3.34,0,0,1-1.55-3,6.8,6.8,0,0,1,.65-2.85l.65.23a4.33,4.33,0,0,0-.24,1.28c0,1.64,1.36,3,4.79,3a15.66,15.66,0,0,0,5-.85,15.88,15.88,0,0,0-1.06-2.21,18.38,18.38,0,0,1,1-1.68Zm-6.5-2.85c.54.46,1,.92,1.51,1.39a14.47,14.47,0,0,1-1.06,1.34c-.51-.5-1-1-1.56-1.38Zm2.6-.14c.54.46,1,.92,1.51,1.39a14.47,14.47,0,0,1-1.06,1.34q-.78-.75-1.56-1.38Z"/><path d="M157.49,487.61h-.18c-1.46,0-2.52-.74-2.55-2.83,0-1.23-.11-4.39-.39-7a15.31,15.31,0,0,1,1.24-1.19l.15.07a46.12,46.12,0,0,1,.19,4.82c0,1.12,0,1.69,0,2.57,0,1.08.43,1.44,1.41,1.44h.15Z"/><path d="M161.79,485.46v2.15h-4.3c-.52,0-.75-.56-.75-1.07s.23-1.08.75-1.08Z"/><path d="M166.08,485.46v2.15h-4.29c-.52,0-.76-.56-.76-1.07s.24-1.08.76-1.08Z"/><path d="M170.38,485.46v2.15h-4.3c-.51,0-.75-.56-.75-1.07s.24-1.08.75-1.08Z"/><path d="M174.68,485.46v2.15h-4.3c-.52,0-.75-.56-.75-1.07s.23-1.08.75-1.08Z"/><path d="M177.27,481.26c2.86,2.16,3.64,4.2,5.53,4.2H183v2.15h-.15c-2.06,0-2.21-.76-3.84-2.73h0a3.33,3.33,0,0,1-1,2c-.52.48-1.55.71-3.13.71h-.15c-.52,0-.75-.56-.75-1.07s.23-1.08.75-1.08h.15c1.42,0,2.69-.06,3-.58-.11-.77-1.16-2-3-3.76a2.89,2.89,0,0,1-.18-1,2.14,2.14,0,0,1,.42-1.4,2.4,2.4,0,0,1,.64-.46,40,40,0,0,1,6.13-2.24l.09.08c-.33.69-.63,1.24-.92,1.73a36.44,36.44,0,0,0-5.28,1.92v.05c.57.2,1.22.42,2,.64Z"/><path d="M187.25,485.46v2.15H183c-.52,0-.75-.56-.75-1.07s.23-1.08.75-1.08Z"/><path d="M191.54,485.46v2.15h-4.29c-.52,0-.76-.56-.76-1.07s.24-1.08.76-1.08Z"/><path d="M195.84,485.46v2.15h-4.3c-.51,0-.75-.56-.75-1.07s.24-1.08.75-1.08Z"/><path d="M200.87,487.61h-.14a2.53,2.53,0,0,1-2.46-1.17h0a2.7,2.7,0,0,1-2.24,1.17h-.15c-.52,0-.75-.56-.75-1.07s.23-1.08.75-1.08H196a2.57,2.57,0,0,0,1.46-.36c.59-.37.65-1.05.88-1.55.25-.17.53-.36.86-.56l.08.07a4.16,4.16,0,0,0-.21,1,1.16,1.16,0,0,0,.53,1.1,2.1,2.1,0,0,0,1.15.31h.13Zm-3.9,2a8.67,8.67,0,0,1,1.22,1.33,4.75,4.75,0,0,1-1.05,1.1c-.41-.44-.83-.86-1.26-1.28Zm2.26-.1a8.32,8.32,0,0,1,1.23,1.34,5.15,5.15,0,0,1-1.05,1.09c-.41-.44-.83-.86-1.26-1.28Z"/><path d="M205.89,487.61h-.14a2.54,2.54,0,0,1-2.46-1.17h0a2.7,2.7,0,0,1-2.24,1.17h-.15c-.52,0-.76-.56-.76-1.07s.24-1.08.76-1.08H201a2.6,2.6,0,0,0,1.46-.36c.59-.37.64-1.05.88-1.55.25-.17.53-.36.86-.56l.07.07a4,4,0,0,0-.2,1,1.16,1.16,0,0,0,.53,1.1,2.07,2.07,0,0,0,1.15.31h.12ZM202,479.75a8.67,8.67,0,0,1,1.22,1.33,5,5,0,0,1-1,1.1c-.41-.44-.83-.86-1.26-1.28Zm2.26-.1a8.28,8.28,0,0,1,1.23,1.33,4.75,4.75,0,0,1-1.05,1.1c-.41-.44-.83-.86-1.26-1.28Z"/><path d="M210.19,485.46v2.15h-4.3c-.51,0-.75-.56-.75-1.07s.24-1.08.75-1.08Z"/><path d="M212.78,481.26c2.87,2.16,3.64,4.2,5.53,4.2h.15v2.15h-.15c-2.06,0-2.21-.76-3.83-2.73h0a3.32,3.32,0,0,1-1,2,4.85,4.85,0,0,1-3.14.71h-.15c-.51,0-.75-.56-.75-1.07s.24-1.08.75-1.08h.15c1.42,0,2.7-.06,3-.58-.11-.77-1.16-2-3-3.76a2.9,2.9,0,0,1-.17-1,2.14,2.14,0,0,1,.42-1.4,2.33,2.33,0,0,1,.63-.46,40.4,40.4,0,0,1,6.13-2.24l.09.08a19,19,0,0,1-.91,1.73,36.18,36.18,0,0,0-5.29,1.92v.05c.57.2,1.23.42,2,.64Z"/><path d="M223.49,487.61h-.14a2.53,2.53,0,0,1-2.46-1.17h0a2.71,2.71,0,0,1-2.25,1.17h-.15c-.51,0-.75-.56-.75-1.07s.24-1.08.75-1.08h.15a2.57,2.57,0,0,0,1.46-.36c.59-.37.65-1.05.88-1.55.25-.17.53-.36.86-.56l.08.07a4,4,0,0,0-.2,1,1.15,1.15,0,0,0,.52,1.1,2.1,2.1,0,0,0,1.15.31h.13Zm-3.86-7.86a8.28,8.28,0,0,1,1.23,1.33,5.19,5.19,0,0,1-1.05,1.1c-.41-.44-.83-.86-1.26-1.28Zm2.27-.1a8.67,8.67,0,0,1,1.22,1.33,4.55,4.55,0,0,1-1.05,1.1c-.41-.44-.83-.86-1.26-1.28Z"/><path d="M226.25,476.64a6.37,6.37,0,0,0,1.18,2.87l-1,.73c0,.83.06,1.84.06,2.89a6.92,6.92,0,0,1-.4,2.38,5.32,5.32,0,0,1-.53,1.13,2.26,2.26,0,0,1-2,1h-.15c-.52,0-.75-.56-.75-1.07s.23-1.08.75-1.08h.15a2.15,2.15,0,0,0,1.53-.44c.18-.18.18-.48.18-1.06,0-2.68-.36-5.06-.36-5.6a1.62,1.62,0,0,1,.29-1,5,5,0,0,1,.84-.8Z"/><path d="M228.93,487.74a19.67,19.67,0,0,0,.13-2.59,63.13,63.13,0,0,0-.36-7A17.33,17.33,0,0,1,230,476.8l.18.1c.21,2.32.25,4.49.25,6.58a8.3,8.3,0,0,1-.34,3.18,7.39,7.39,0,0,1-.88,1.25Z"/><line class="cls-3" x1="133.16" y1="484.01" x2="32.98" y2="484.01"/><polygon points="34.39 482.16 33.6 484.01 34.39 485.87 30 484.01 34.39 482.16"/><line class="cls-3" x1="338.02" y1="484.01" x2="238.13" y2="484.01"/><polygon points="336.61 482.16 337.4 484.01 336.61 485.87 341 484.01 336.61 482.16"/></svg>